<svg width="100" height="100" viewBox="0 0 100 100" fill="none" xmlns="http://www.w3.org/2000/svg">
<g filter="url(#filter0_f_101_582)">
<circle cx="50" cy="50" r="16.5" fill="#1B1551"/>
</g>
<path d="M41 43.5C41 52.0604 47.9396 59 56.5 59C56.8862 59 57.2691 58.9859 57.6483 58.9581C58.0834 58.9262 58.3009 58.9103 58.499 58.7963C58.663 58.7019 58.8185 58.5345 58.9007 58.364C59 58.1582 59 57.9181 59 57.438V54.6207C59 54.2169 59 54.015 58.9335 53.842C58.8749 53.6891 58.7795 53.553 58.6559 53.4456C58.516 53.324 58.3262 53.255 57.9468 53.117L54.74 51.9509C54.2985 51.7904 54.0777 51.7101 53.8683 51.7237C53.6836 51.7357 53.5059 51.7988 53.3549 51.9058C53.1837 52.0271 53.0629 52.2285 52.8212 52.6314L52 54C49.3501 52.7999 47.2019 50.6489 46 48L47.3686 47.1788C47.7715 46.9371 47.9729 46.8163 48.0942 46.6451C48.2012 46.4941 48.2643 46.3164 48.2763 46.1317C48.2899 45.9223 48.2096 45.7015 48.0491 45.26L46.883 42.0532C46.745 41.6738 46.676 41.484 46.5544 41.3441C46.447 41.2205 46.3109 41.1251 46.158 41.0665C45.985 41 45.7831 41 45.3793 41H42.562C42.0819 41 41.8418 41 41.636 41.0993C41.4655 41.1815 41.2981 41.337 41.2037 41.501C41.0897 41.6991 41.0738 41.9166 41.0419 42.3517C41.0141 42.7309 41 43.1138 41 43.5Z" stroke="#D4CEFD" stroke-width="1.2" stroke-linecap="round" stroke-linejoin="round"/>
<defs>
<filter id="filter0_f_101_582" x="0.5" y="0.5" width="99" height="99" filterUnits="userSpaceOnUse" color-interpolation-filters="sRGB">
<feFlood flood-opacity="0" result="BackgroundImageFix"/>
<feBlend mode="normal" in="SourceGraphic" in2="BackgroundImageFix" result="shape"/>
<feGaussianBlur stdDeviation="16.5" result="effect1_foregroundBlur_101_582"/>
</filter>
</defs>
</svg>
