<svg width="42" height="42" viewBox="0 0 42 42" fill="none" xmlns="http://www.w3.org/2000/svg">
<rect x="1" y="1" width="40" height="40" rx="4" stroke="#D9D9D9" stroke-linecap="square"/>
<path d="M27 19.6668H15M23.6667 14.3335V17.0002M18.3333 14.3335V17.0002M18.2 27.6668H23.8C24.9201 27.6668 25.4802 27.6668 25.908 27.4488C26.2843 27.2571 26.5903 26.9511 26.782 26.5748C27 26.147 27 25.5869 27 24.4668V18.8668C27 17.7467 27 17.1867 26.782 16.7588C26.5903 16.3825 26.2843 16.0766 25.908 15.8848C25.4802 15.6668 24.9201 15.6668 23.8 15.6668H18.2C17.0799 15.6668 16.5198 15.6668 16.092 15.8848C15.7157 16.0766 15.4097 16.3825 15.218 16.7588C15 17.1867 15 17.7467 15 18.8668V24.4668C15 25.5869 15 26.147 15.218 26.5748C15.4097 26.9511 15.7157 27.2571 16.092 27.4488C16.5198 27.6668 17.0799 27.6668 18.2 27.6668Z" stroke="#6E6E6E" stroke-width="1.2" stroke-linecap="round" stroke-linejoin="round"/>
</svg>
