<svg xmlns="http://www.w3.org/2000/svg" width="42" height="42" viewBox="0 0 42 42" fill="none">
<rect x="1" y="1" width="40" height="40" rx="4" fill="white" stroke="#D9D9D9" stroke-linecap="square"/>
<path d="M14.5 25.5C18.0571 25.4971 21.5987 25.9681 25.0313 26.9007C25.516 27.0327 26 26.6727 26 26.17V25.5M15.5 16V16.5C15.5 16.6326 15.4473 16.7598 15.3536 16.8536C15.2598 16.9473 15.1326 17 15 17H14.5M14.5 17V16.75C14.5 16.336 14.836 16 15.25 16H26.5M14.5 17V23M26.5 16V16.5C26.5 16.776 26.724 17 27 17H27.5M26.5 16H26.75C27.164 16 27.5 16.336 27.5 16.75V23.25C27.5 23.664 27.164 24 26.75 24H26.5M14.5 23V23.25C14.5 23.4489 14.579 23.6397 14.7197 23.7803C14.8603 23.921 15.0511 24 15.25 24H15.5M14.5 23H15C15.1326 23 15.2598 23.0527 15.3536 23.1464C15.4473 23.2402 15.5 23.3674 15.5 23.5V24M26.5 24V23.5C26.5 23.3674 26.5527 23.2402 26.6464 23.1464C26.7402 23.0527 26.8674 23 27 23H27.5M26.5 24H15.5M23 20C23 20.5304 22.7893 21.0391 22.4142 21.4142C22.0391 21.7893 21.5304 22 21 22C20.4696 22 19.9609 21.7893 19.5858 21.4142C19.2107 21.0391 19 20.5304 19 20C19 19.4696 19.2107 18.9609 19.5858 18.5858C19.9609 18.2107 20.4696 18 21 18C21.5304 18 22.0391 18.2107 22.4142 18.5858C22.7893 18.9609 23 19.4696 23 20ZM25 20H25.0053V20.0053H25V20ZM17 20H17.0053V20.0053H17V20Z" stroke="#6E6E6E" stroke-width="1.2" stroke-linecap="round" stroke-linejoin="round"/>
</svg>