<svg width="28" height="28" viewBox="0 0 28 28" fill="none" xmlns="http://www.w3.org/2000/svg">
<circle cx="14" cy="14" r="14" fill="white"/>
<g clip-path="url(#clip0_324_10848)">
<path d="M18.0013 12.6662L15.3347 9.99955M7.66797 20.3329L9.92421 20.0822C10.1999 20.0516 10.3377 20.0362 10.4665 19.9945C10.5808 19.9575 10.6896 19.9053 10.7899 19.8391C10.9029 19.7646 11.001 19.6665 11.1971 19.4704L20.0013 10.6662C20.7377 9.92984 20.7377 8.73593 20.0013 7.99955C19.2649 7.26317 18.071 7.26317 17.3347 7.99955L8.53045 16.8037C8.33433 16.9999 8.23627 17.0979 8.16173 17.211C8.09559 17.3113 8.04331 17.42 8.00631 17.5343C7.96461 17.6631 7.94929 17.801 7.91866 18.0766L7.66797 20.3329Z" stroke="#7A73FF" stroke-width="1.4" stroke-linecap="round" stroke-linejoin="round"/>
</g>
<defs>
<clipPath id="clip0_324_10848">
<rect width="16" height="16" fill="white" transform="translate(6 6)"/>
</clipPath>
</defs>
</svg>
