<svg width="20" height="20" viewBox="0 0 20 20" fill="none" xmlns="http://www.w3.org/2000/svg">
<path d="M15.0017 8.33277L11.6683 4.99944M2.08496 17.9161L4.90527 17.6027C5.24984 17.5645 5.42213 17.5453 5.58317 17.4932C5.72604 17.4469 5.862 17.3816 5.98737 17.2989C6.12867 17.2057 6.25125 17.0832 6.4964 16.838L17.5016 5.83277C18.4221 4.9123 18.4221 3.41991 17.5016 2.49944C16.5812 1.57896 15.0888 1.57896 14.1683 2.49944L3.16307 13.5047C2.91792 13.7498 2.79534 13.8724 2.70216 14.0137C2.61949 14.1391 2.55414 14.275 2.50789 14.4179C2.45576 14.5789 2.43661 14.7512 2.39833 15.0958L2.08496 17.9161Z" stroke="#7A73FF" stroke-width="1.4" stroke-linecap="round" stroke-linejoin="round"/>
</svg>
