<svg width="24" height="24" viewBox="0 0 24 24" fill="none" xmlns="http://www.w3.org/2000/svg">
<path d="M21.4286 1.5H2.57143C1.15179 1.5 0 2.50781 0 3.75V20.25C0 21.4922 1.15179 22.5 2.57143 22.5H21.4286C22.8482 22.5 24 21.4922 24 20.25V3.75C24 2.50781 22.8482 1.5 21.4286 1.5ZM14.8554 19.4859C14.4054 19.5563 14.2393 19.3125 14.2393 19.1109C14.2393 18.8578 14.25 17.5641 14.25 16.5187C14.25 15.7875 13.9714 15.3234 13.6446 15.0797C15.6268 14.8875 17.7161 14.6484 17.7161 11.6531C17.7161 10.8 17.3679 10.3734 16.8 9.825C16.8911 9.62344 17.1964 8.79375 16.7089 7.71563C15.9643 7.51406 14.2607 8.55469 14.2607 8.55469C13.5536 8.38125 12.7875 8.29219 12.0321 8.29219C11.2768 8.29219 10.5107 8.38125 9.80357 8.55469C9.80357 8.55469 8.1 7.51406 7.35536 7.71563C6.86786 8.78906 7.16786 9.61875 7.26429 9.825C6.69643 10.3734 6.42857 10.8 6.42857 11.6531C6.42857 14.6344 8.42679 14.8875 10.4089 15.0797C10.1518 15.2813 9.92143 15.6281 9.84107 16.125C9.33214 16.3266 8.03036 16.6734 7.25357 15.4734C6.76607 14.7328 5.8875 14.6719 5.8875 14.6719C5.01964 14.6625 5.82857 15.15 5.82857 15.15C6.40714 15.3844 6.81429 16.2844 6.81429 16.2844C7.33393 17.6766 9.81964 17.2078 9.81964 17.2078C9.81964 17.8594 9.83036 18.9188 9.83036 19.1109C9.83036 19.3125 9.66964 19.5563 9.21429 19.4859C5.67857 18.45 3.20357 15.5062 3.20357 12.0656C3.20357 7.7625 6.96429 4.49531 11.8821 4.49531C16.8 4.49531 20.7857 7.7625 20.7857 12.0656C20.7911 15.5062 18.3911 18.4547 14.8554 19.4859ZM9.6 16.6219C9.49821 16.6406 9.40179 16.6031 9.39107 16.5422C9.38036 16.4719 9.45 16.4109 9.55179 16.3922C9.65357 16.3828 9.75 16.4203 9.76071 16.4813C9.77679 16.5422 9.70714 16.6031 9.6 16.6219ZM9.09107 16.5797C9.09107 16.6406 9.01071 16.6922 8.90357 16.6922C8.78571 16.7016 8.70536 16.65 8.70536 16.5797C8.70536 16.5188 8.78571 16.4672 8.89286 16.4672C8.99464 16.4578 9.09107 16.5094 9.09107 16.5797ZM8.35714 16.5281C8.33571 16.5891 8.22857 16.6172 8.1375 16.5891C8.03571 16.5703 7.96607 16.5 7.9875 16.4391C8.00893 16.3781 8.11607 16.35 8.20714 16.3688C8.31429 16.3969 8.38393 16.4672 8.35714 16.5281ZM7.69821 16.275C7.65 16.3266 7.54821 16.3172 7.46786 16.2469C7.3875 16.1859 7.36607 16.0969 7.41964 16.0547C7.46786 16.0031 7.56964 16.0125 7.65 16.0828C7.71964 16.1438 7.74643 16.2375 7.69821 16.275ZM7.21071 15.8484C7.1625 15.8766 7.07143 15.8484 7.0125 15.7781C6.95357 15.7078 6.95357 15.6281 7.0125 15.5953C7.07143 15.5531 7.1625 15.5859 7.21071 15.6562C7.26964 15.7266 7.26964 15.8109 7.21071 15.8484ZM6.8625 15.3937C6.81429 15.4359 6.73393 15.4125 6.675 15.3656C6.61607 15.3047 6.60536 15.2344 6.65357 15.2016C6.70179 15.1594 6.78214 15.1828 6.84107 15.2297C6.9 15.2906 6.91071 15.3609 6.8625 15.3937ZM6.50357 15.0469C6.48214 15.0891 6.4125 15.0984 6.35357 15.0656C6.28393 15.0375 6.25179 14.9859 6.27321 14.9437C6.29464 14.9156 6.35357 14.9016 6.42321 14.925C6.49286 14.9578 6.525 15.0094 6.50357 15.0469Z" fill="#111111"/>
</svg>
