<svg width="22" height="17" viewBox="0 0 22 17" fill="none" xmlns="http://www.w3.org/2000/svg">
<g clip-path="url(#clip0_11321_12088)">
<path d="M12.4453 8.48482L14.5901 10.7832L17.4743 12.511L17.976 8.49932L17.4743 4.57812L14.5348 6.09596L12.4453 8.48482Z" fill="#00832D"/>
<path d="M0 12.1376V15.5561C0 16.3366 0.675813 16.9704 1.50855 16.9704H5.15487L5.90992 14.3874L5.15487 12.1376L2.65323 11.4297L8.59375e-05 12.1376H0Z" fill="#0066DA"/>
<path d="M5.15487 0L0 4.83283L2.65341 5.53902L5.15487 4.83283L5.89617 2.61357L5.15487 0Z" fill="#E94235"/>
<path d="M0 12.1393H5.15479V4.83203H0V12.1393Z" fill="#2684FC"/>
<path d="M20.7676 2.04695L17.4746 4.5797V12.5125L20.7812 15.0551C21.2762 15.4186 22.0003 15.0873 22.0003 14.4974V2.59336C22.0003 1.99691 21.259 1.66722 20.7676 2.04703" fill="#00AC47"/>
<path d="M12.446 8.48633V12.1392H5.15527V16.972H15.9666C16.7993 16.972 17.475 16.3382 17.475 15.5577V12.5125L12.446 8.48633Z" fill="#00AC47"/>
<path d="M15.9666 0H5.15527V4.83283H12.446V8.48566L17.4751 4.57888V1.41438C17.4751 0.633673 16.7993 8.05687e-05 15.9666 8.05687e-05" fill="#FFBA00"/>
</g>
<defs>
<clipPath id="clip0_11321_12088">
<rect width="22" height="17" fill="white"/>
</clipPath>
</defs>
</svg>
