<svg width="16" height="21" viewBox="0 0 16 21" fill="none" xmlns="http://www.w3.org/2000/svg">
<path d="M1.57234 5.88696C1.28584 3.99996 2.61634 2.30497 4.64884 1.68397C5.00952 1.57369 5.39868 1.60508 5.73703 1.77174C6.07537 1.93841 6.33744 2.2278 6.46984 2.58097L7.12234 4.32097C7.22738 4.60088 7.24638 4.90581 7.17688 5.1966C7.10739 5.48739 6.95259 5.75078 6.73234 5.95297L4.79134 7.73046C4.69567 7.81826 4.62437 7.92936 4.58441 8.05291C4.54446 8.17647 4.5372 8.30827 4.56334 8.43546L4.58134 8.51346L4.62784 8.70847C4.86923 9.65593 5.23703 10.5666 5.72134 11.416C6.24891 12.3185 6.90362 13.1404 7.66534 13.8565L7.72534 13.9105C7.82224 13.9965 7.93977 14.0559 8.06648 14.083C8.19319 14.1101 8.32475 14.1039 8.44834 14.065L10.9578 13.2745C11.243 13.1849 11.5485 13.1826 11.835 13.2679C12.1215 13.3531 12.376 13.5221 12.5658 13.753L13.7538 15.1945C14.2488 15.7945 14.1888 16.6765 13.6203 17.206C12.0648 18.6565 9.92584 18.9535 8.43784 17.758C6.61388 16.2867 5.07627 14.4923 3.90184 12.4645C2.71788 10.4382 1.92703 8.20661 1.57084 5.88696H1.57234ZM6.13684 8.53446L7.74484 7.05847C8.1856 6.65427 8.49549 6.12757 8.63474 5.54598C8.77399 4.96439 8.73624 4.35445 8.52634 3.79447L7.87534 2.05447C7.60886 1.34384 7.08144 0.761556 6.40056 0.426274C5.71969 0.0909914 4.93659 0.0279392 4.21084 0.249965C1.68634 1.02247 -0.340159 3.28596 0.0888411 6.11347C0.388841 8.08747 1.08034 10.5985 2.60584 13.2205C3.87291 15.407 5.53153 17.3417 7.49884 18.928C9.73084 20.7205 12.7098 20.1085 14.6448 18.3055C15.1985 17.7899 15.5346 17.0826 15.5845 16.3277C15.6344 15.5728 15.3943 14.8274 14.9133 14.2435L13.7253 12.8005C13.3453 12.3392 12.8361 12.0019 12.2631 11.832C11.6901 11.662 11.0794 11.667 10.5093 11.8465L8.42584 12.502C7.8879 11.9473 7.41669 11.3316 7.02184 10.6675C6.64043 9.99601 6.34319 9.28011 6.13684 8.53596V8.53446Z" fill="#7A73FF"/>
</svg>
