<svg width="31" height="32" viewBox="0 0 31 32" fill="none" xmlns="http://www.w3.org/2000/svg">
<path d="M15.3814 0C16.586 0.0131287 17.7856 0.152621 18.9606 0.415194C19.211 0.471072 19.4376 0.603758 19.6088 0.794711C19.7801 0.985664 19.8874 1.22534 19.9158 1.48026L20.1947 3.98619C20.234 4.3397 20.3558 4.67904 20.5503 4.97687C20.7447 5.2747 21.0064 5.5227 21.3143 5.70089C21.6221 5.87908 21.9675 5.98247 22.3226 6.00275C22.6777 6.02303 23.0326 5.95962 23.3587 5.81763L25.6563 4.80837C25.8897 4.70555 26.1493 4.67781 26.3992 4.72896C26.6491 4.78012 26.8769 4.90765 27.0512 5.09392C28.7118 6.86811 29.9485 8.99579 30.6681 11.3169C30.7436 11.5608 30.7413 11.8222 30.6616 12.0648C30.5819 12.3073 30.4288 12.5191 30.2234 12.6708L28.1852 14.174C27.8983 14.3845 27.6651 14.6596 27.5044 14.977C27.3437 15.2944 27.26 15.6452 27.2602 16.001C27.2603 16.3567 27.3443 16.7075 27.5053 17.0247C27.6663 17.342 27.8998 17.6169 28.1868 17.8271L30.2267 19.3287C30.4324 19.4804 30.5858 19.6925 30.6655 19.9354C30.7452 20.1783 30.7472 20.44 30.6714 20.6842C29.952 23.005 28.7159 25.1326 27.0561 26.9072C26.8822 27.0934 26.6547 27.221 26.4052 27.2724C26.1556 27.3239 25.8962 27.2966 25.6628 27.1944L23.3555 26.1818C23.0298 26.0387 22.675 25.9744 22.3198 25.9939C21.9646 26.0135 21.619 26.1165 21.311 26.2946C21.0031 26.4726 20.7414 26.7207 20.5471 27.0187C20.3529 27.3167 20.2316 27.6563 20.1931 28.01L19.9158 30.5143C19.8878 30.7664 19.7826 31.0038 19.6146 31.1938C19.4465 31.3839 19.2239 31.5174 18.9771 31.576C16.6006 32.1413 14.1246 32.1413 11.7481 31.576C11.5013 31.5174 11.2786 31.3839 11.1106 31.1938C10.9426 31.0038 10.8374 30.7664 10.8094 30.5143L10.5304 28.0133C10.49 27.6611 10.3677 27.3234 10.1732 27.0271C9.97876 26.7308 9.71755 26.4842 9.41056 26.3071C9.10356 26.13 8.75933 26.0273 8.40548 26.0072C8.05163 25.9872 7.69801 26.0504 7.37297 26.1917L5.06397 27.2026C4.83058 27.3048 4.5712 27.3321 4.32164 27.2806C4.07208 27.2292 3.84463 27.1016 3.67069 26.9154C2.01003 25.139 0.773925 23.009 0.0553916 20.6858C-0.020441 20.4417 -0.0183641 20.18 0.0613337 19.9371C0.141031 19.6941 0.294394 19.4821 0.500124 19.3303L2.54163 17.8271C2.82857 17.6167 3.06191 17.3418 3.22276 17.0244C3.38361 16.7071 3.46743 16.3563 3.46743 16.0005C3.46743 15.6448 3.38361 15.294 3.22276 14.9767C3.06191 14.6593 2.82857 14.3844 2.54163 14.174L0.501766 12.6741C0.295745 12.5225 0.142055 12.3105 0.0620587 12.0676C-0.017938 11.8247 -0.0202683 11.5629 0.0553916 11.3185C0.775526 8.99728 2.01275 6.86958 3.67398 5.09556C3.84811 4.90963 4.07565 4.78232 4.3252 4.73117C4.57475 4.68003 4.83402 4.70757 5.06725 4.81001L7.36477 5.81927C7.69137 5.96085 8.04663 6.02385 8.40201 6.00322C8.75738 5.98258 9.10296 5.87888 9.41099 5.70045C9.71901 5.52202 9.98089 5.27383 10.1756 4.97583C10.3703 4.67782 10.4924 4.3383 10.5321 3.98455L10.811 1.48026C10.8392 1.22483 10.9466 0.984622 11.1182 0.793322C11.2898 0.602022 11.5169 0.469225 11.7678 0.413553C12.9461 0.152621 14.1474 0.0147697 15.3814 0ZM15.3601 11.0773C14.0544 11.0773 12.8021 11.596 11.8789 12.5193C10.9556 13.4426 10.4369 14.6948 10.4369 16.0005C10.4369 17.3063 10.9556 18.5585 11.8789 19.4818C12.8021 20.4051 14.0544 20.9238 15.3601 20.9238C16.6658 20.9238 17.9181 20.4051 18.8414 19.4818C19.7647 18.5585 20.2834 17.3063 20.2834 16.0005C20.2834 14.6948 19.7647 13.4426 18.8414 12.5193C17.9181 11.596 16.6658 11.0773 15.3601 11.0773Z" fill="#7A73FF"/>
</svg>
