<svg width="24" height="24" viewBox="0 0 24 24" fill="none" xmlns="http://www.w3.org/2000/svg">
<path d="M20.2809 21.8045V15.3931H22.8078V23.9324H0V15.3931H2.52694V21.8045H20.2809Z" fill="#BCBBBB"/>
<path d="M5.31542 14.7849L17.7202 16.9682L18.2452 14.8678L5.84061 12.6846L5.31552 14.7849H5.31542ZM6.95623 9.81055L18.4422 14.3151L19.4924 12.3807L8.00642 7.84847L6.95623 9.81055ZM10.1395 5.05729L19.8861 11.8832L21.4941 10.2527L11.7475 3.42679L10.1395 5.05729ZM16.4405 0L14.4056 1.27121L21.9535 9.83818L23.9882 8.56697L16.4405 0ZM5.05273 19.6487H17.7201V17.5208H5.05283V19.6487H5.05273Z" fill="#F48023"/>
</svg>
