<svg width="22" height="22" viewBox="0 0 22 22" fill="none" xmlns="http://www.w3.org/2000/svg">
<path d="M9.02076 0.0209961H15.0208V2.021H9.02076V0.0209961ZM19.0398 6.41L20.4738 4.976L19.0598 3.562L17.6268 4.995C16.0567 3.73681 14.1099 3.04175 12.098 3.02109C10.086 3.00042 8.12537 3.65533 6.52977 4.881L7.94976 6.321C9.13616 5.47836 10.5546 5.02418 12.0098 5.021L12.0198 5.022V12.002L16.9728 16.96C15.995 17.9424 14.7475 18.6124 13.3886 18.8852C12.0296 19.158 10.6203 19.0212 9.3391 18.4923C8.05792 17.9634 6.96258 17.066 6.19187 15.914C5.42115 14.7619 5.00974 13.4071 5.00977 12.021H8.00976L4.00977 8.021L0.00976562 12.021H3.00977C3.0084 13.4592 3.35171 14.8767 4.01092 16.1549C4.67014 17.4331 5.62607 18.5347 6.79862 19.3674C7.97118 20.2001 9.32622 20.7397 10.7502 20.9409C12.1742 21.1422 13.6257 20.9993 14.9831 20.5242C16.3406 20.049 17.5643 19.2555 18.552 18.2101C19.5396 17.1647 20.2623 15.8978 20.6596 14.5156C21.0568 13.1334 21.1171 11.6761 20.8353 10.2658C20.5534 8.85556 19.9377 7.53336 19.0398 6.41Z" fill="#7A73FF"/>
</svg>
