<svg width="127" height="126" viewBox="0 0 127 126" fill="none" xmlns="http://www.w3.org/2000/svg">
<g filter="url(#filter0_f_9716_16959)">
<circle cx="63.666" cy="63" r="21" fill="#1B1551"/>
</g>
<path d="M59.666 56.0001C58.6777 56.0008 58.1596 56.0134 57.758 56.218C57.3817 56.4097 57.0757 56.7157 56.884 57.092C56.666 57.5198 56.666 58.0799 56.666 59.2V68.8C56.666 69.9201 56.666 70.4802 56.884 70.908C57.0757 71.2843 57.3817 71.5903 57.758 71.782C58.1859 72 58.7459 72 59.866 72H67.466C68.5861 72 69.1462 72 69.574 71.782C69.9503 71.5903 70.2563 71.2843 70.448 70.908C70.666 70.4802 70.666 69.9201 70.666 68.8V59.2C70.666 58.0799 70.666 57.5198 70.448 57.092C70.2563 56.7157 69.9503 56.4097 69.574 56.218C69.1724 56.0134 68.6544 56.0008 67.666 56.0001M59.666 56.0001V58H67.666V56.0001M59.666 56.0001V55.7071C59.666 55.2544 59.8459 54.8201 60.166 54.5C60.4862 54.1799 60.9204 54 61.3731 54H65.9589C66.4117 54 66.8459 54.1799 67.166 54.5C67.4862 54.8201 67.666 55.2544 67.666 55.7071V56.0001M67.666 62H65.666M67.666 67H65.666M59.666 62L60.666 63L62.666 61M59.666 67L60.666 68L62.666 66" stroke="#D4CEFD" stroke-opacity="0.7" stroke-width="1.2" stroke-linecap="round" stroke-linejoin="round"/>
<defs>
<filter id="filter0_f_9716_16959" x="0.666016" y="0" width="126" height="126" filterUnits="userSpaceOnUse" color-interpolation-filters="sRGB">
<feFlood flood-opacity="0" result="BackgroundImageFix"/>
<feBlend mode="normal" in="SourceGraphic" in2="BackgroundImageFix" result="shape"/>
<feGaussianBlur stdDeviation="21" result="effect1_foregroundBlur_9716_16959"/>
</filter>
</defs>
</svg>
