<svg width="126" height="126" viewBox="0 0 126 126" fill="none" xmlns="http://www.w3.org/2000/svg">
<g filter="url(#filter0_f_9716_16954)">
<circle cx="63" cy="63" r="21" fill="#362AA2"/>
</g>
<path d="M56.4615 53.5001C55.921 53.2872 55.6507 53.1807 55.4785 53.238C55.3289 53.2878 55.2116 53.4051 55.1618 53.5546C55.1045 53.7268 55.211 53.9971 55.424 54.5377L60.7246 67.9931C60.8961 68.4285 60.9819 68.6462 61.1216 68.7336C61.2435 68.8097 61.3922 68.8298 61.5299 68.7887C61.6878 68.7415 61.8282 68.5543 62.1089 68.1799L64.2496 65.3257L67.6989 70.0686C67.8885 70.3293 67.9834 70.4597 68.1042 70.5142C68.2102 70.562 68.3296 70.5714 68.4418 70.5407C68.5696 70.5057 68.6836 70.3917 68.9116 70.1637L72.0876 66.9878C72.3155 66.7598 72.4295 66.6458 72.4645 66.518C72.4952 66.4058 72.4859 66.2864 72.438 66.1803C72.3835 66.0595 72.2532 65.9647 71.9924 65.7751L67.2496 62.3257L70.1038 60.1851C70.4781 59.9043 70.6653 59.764 70.7125 59.606C70.7536 59.4684 70.7336 59.3196 70.6574 59.1978C70.57 59.058 70.3524 58.9723 69.917 58.8008L56.4615 53.5001Z" stroke="white" stroke-width="1.2" stroke-linecap="round" stroke-linejoin="round"/>
<defs>
<filter id="filter0_f_9716_16954" x="0" y="0" width="126" height="126" filterUnits="userSpaceOnUse" color-interpolation-filters="sRGB">
<feFlood flood-opacity="0" result="BackgroundImageFix"/>
<feBlend mode="normal" in="SourceGraphic" in2="BackgroundImageFix" result="shape"/>
<feGaussianBlur stdDeviation="21" result="effect1_foregroundBlur_9716_16954"/>
</filter>
</defs>
</svg>
