<svg width="126" height="126" viewBox="0 0 126 126" fill="none" xmlns="http://www.w3.org/2000/svg">
<g filter="url(#filter0_f_3127_108422)">
<circle cx="63" cy="63" r="21" fill="#1B1551"/>
</g>
<path d="M67 61L69.5768 59.4539C70.3699 58.978 70.7665 58.7401 71.0928 58.7705C71.3773 58.797 71.6369 58.944 71.806 59.1743C72 59.4385 72 59.901 72 60.8259V65.1741C72 66.099 72 66.5615 71.806 66.8257C71.6369 67.056 71.3773 67.203 71.0928 67.2295C70.7665 67.2599 70.3699 67.022 69.5768 66.5461L67 65M57.2 69H63.8C64.9201 69 65.4802 69 65.908 68.782C66.2843 68.5903 66.5903 68.2843 66.782 67.908C67 67.4802 67 66.9201 67 65.8V60.2C67 59.0799 67 58.5198 66.782 58.092C66.5903 57.7157 66.2843 57.4097 65.908 57.218C65.4802 57 64.9201 57 63.8 57H57.2C56.0799 57 55.5198 57 55.092 57.218C54.7157 57.4097 54.4097 57.7157 54.218 58.092C54 58.5198 54 59.0799 54 60.2V65.8C54 66.9201 54 67.4802 54.218 67.908C54.4097 68.2843 54.7157 68.5903 55.092 68.782C55.5198 69 56.0799 69 57.2 69Z" stroke="#D4CEFD" stroke-width="1.2" stroke-linecap="round" stroke-linejoin="round"/>
<defs>
<filter id="filter0_f_3127_108422" x="0" y="0" width="126" height="126" filterUnits="userSpaceOnUse" color-interpolation-filters="sRGB">
<feFlood flood-opacity="0" result="BackgroundImageFix"/>
<feBlend mode="normal" in="SourceGraphic" in2="BackgroundImageFix" result="shape"/>
<feGaussianBlur stdDeviation="21" result="effect1_foregroundBlur_3127_108422"/>
</filter>
</defs>
</svg>
