<svg width="126" height="126" viewBox="0 0 126 126" fill="none" xmlns="http://www.w3.org/2000/svg">
<g filter="url(#filter0_f_3127_108413)">
<circle cx="63" cy="63" r="21" fill="#1B1551"/>
</g>
<path d="M56.4615 53.4992C55.921 53.2862 55.6507 53.1797 55.4785 53.237C55.3289 53.2868 55.2116 53.4041 55.1618 53.5537C55.1045 53.7259 55.211 53.9962 55.424 54.5367L60.7246 67.9922C60.8961 68.4275 60.9819 68.6452 61.1216 68.7326C61.2435 68.8088 61.3922 68.8288 61.5299 68.7877C61.6878 68.7405 61.8282 68.5533 62.1089 68.1789L64.2496 65.3248L67.6989 70.0676C67.8885 70.3284 67.9834 70.4587 68.1042 70.5132C68.2102 70.5611 68.3296 70.5704 68.4418 70.5397C68.5696 70.5047 68.6836 70.3907 68.9116 70.1628L72.0876 66.9868C72.3155 66.7588 72.4295 66.6448 72.4645 66.517C72.4952 66.4048 72.4859 66.2854 72.438 66.1794C72.3835 66.0586 72.2532 65.9637 71.9924 65.7741L67.2496 62.3248L70.1038 60.1841C70.4781 59.9034 70.6653 59.763 70.7125 59.6051C70.7536 59.4674 70.7336 59.3187 70.6574 59.1968C70.57 59.0571 70.3524 58.9713 69.917 58.7998L56.4615 53.4992Z" stroke="#D4CEFD" stroke-width="1.2" stroke-linecap="round" stroke-linejoin="round"/>
<defs>
<filter id="filter0_f_3127_108413" x="0" y="0" width="126" height="126" filterUnits="userSpaceOnUse" color-interpolation-filters="sRGB">
<feFlood flood-opacity="0" result="BackgroundImageFix"/>
<feBlend mode="normal" in="SourceGraphic" in2="BackgroundImageFix" result="shape"/>
<feGaussianBlur stdDeviation="21" result="effect1_foregroundBlur_3127_108413"/>
</filter>
</defs>
</svg>
