<svg width="126" height="126" viewBox="0 0 126 126" fill="none" xmlns="http://www.w3.org/2000/svg">
<g filter="url(#filter0_f_3127_108418)">
<circle cx="63" cy="63" r="21" fill="#1B1551"/>
</g>
<path d="M59 56.0001C58.0116 56.0008 57.4936 56.0134 57.092 56.218C56.7157 56.4097 56.4097 56.7157 56.218 57.092C56 57.5198 56 58.0799 56 59.2V68.8C56 69.9201 56 70.4802 56.218 70.908C56.4097 71.2843 56.7157 71.5903 57.092 71.782C57.5198 72 58.0799 72 59.2 72H66.8C67.9201 72 68.4802 72 68.908 71.782C69.2843 71.5903 69.5903 71.2843 69.782 70.908C70 70.4802 70 69.9201 70 68.8V59.2C70 58.0799 70 57.5198 69.782 57.092C69.5903 56.7157 69.2843 56.4097 68.908 56.218C68.5064 56.0134 67.9884 56.0008 67 56.0001M59 56.0001V58H67V56.0001M59 56.0001V55.7071C59 55.2544 59.1799 54.8201 59.5 54.5C59.8201 54.1799 60.2544 54 60.7071 54H65.2929C65.7456 54 66.1799 54.1799 66.5 54.5C66.8201 54.8201 67 55.2544 67 55.7071V56.0001M67 62H65M67 67H65M59 62L60 63L62 61M59 67L60 68L62 66" stroke="#D4CEFD" stroke-width="1.2" stroke-linecap="round" stroke-linejoin="round"/>
<defs>
<filter id="filter0_f_3127_108418" x="0" y="0" width="126" height="126" filterUnits="userSpaceOnUse" color-interpolation-filters="sRGB">
<feFlood flood-opacity="0" result="BackgroundImageFix"/>
<feBlend mode="normal" in="SourceGraphic" in2="BackgroundImageFix" result="shape"/>
<feGaussianBlur stdDeviation="21" result="effect1_foregroundBlur_3127_108418"/>
</filter>
</defs>
</svg>
