<svg width="123" height="33" viewBox="0 0 123 33" fill="none" xmlns="http://www.w3.org/2000/svg">
<g clip-path="url(#clip0_2810_92690)">
<path opacity="0.78" d="M21.2099 16.1646C21.2099 16.281 21.2099 16.3877 21.2002 16.5042C21.0644 20.5016 18.4944 24.0139 14.7025 25.3431L6.83743 28.0986L6.78894 28.118L0.0488281 30.4854L19.7067 1.31979L19.8715 1.07723C20.211 0.630913 20.6668 0.204004 21.2099 0.0390625V6.73376V16.1646Z" fill="white"/>
<path opacity="0.78" d="M42.5459 30.3883L36.0676 28.1179L35.7573 28.0112L27.9019 25.2557C24.0033 23.8877 21.3945 20.2104 21.3945 16.0772V0.0292969C21.9376 0.194239 22.4031 0.524122 22.7426 0.970436L22.9074 1.213L42.5459 30.3883Z" fill="white"/>
<path opacity="0.3" d="M21.2098 16.5039V20.4431C21.2098 23.7614 19.115 26.7109 15.9923 27.8073L4.23828 31.9308L6.80825 28.1178L6.85674 28.0984L14.7218 25.3429C18.504 24.0136 21.074 20.4916 21.2098 16.5039Z" fill="white"/>
<path d="M21.2101 6.72363V16.5037C21.0743 20.4914 18.5043 24.0134 14.7124 25.3427L6.84732 28.0982L6.79883 28.1176L21.2101 6.72363Z" fill="white"/>
<path opacity="0.3" d="M38.366 31.5332L26.6121 27.4096C23.4893 26.3133 21.3945 23.3637 21.3945 20.0455V16.0771C21.3945 20.2104 24.0033 23.8876 27.9019 25.2557L35.767 28.0112L36.0773 28.1179L38.366 31.5332Z" fill="white"/>
<path d="M36.0676 28.1082L35.7573 28.0015L27.9019 25.246C24.0033 23.8779 21.3945 20.2007 21.3945 16.0674V6.32617L36.0676 28.1082Z" fill="white"/>
</g>
<path fill-rule="evenodd" clip-rule="evenodd" d="M45.2797 14.1231C43.8014 17.435 42.5759 20.1891 42.5563 20.2434C42.5231 20.3355 42.6049 20.3421 43.7841 20.3421H45.0474L45.5623 19.1999L46.0771 18.0576L49.249 18.0431L52.4208 18.0285L52.9272 19.1712L53.4335 20.3139L54.7131 20.3291C55.4168 20.3374 55.9926 20.3356 55.9926 20.3251C55.9926 20.3145 54.7676 17.5663 53.2703 14.218L50.5479 8.12999L49.2577 8.11578L47.9674 8.10156L45.2797 14.1231ZM78.5196 14.222V20.3421H83.1106H87.7016L87.6864 19.1999L87.6711 18.0576L84.2499 18.0431L80.8286 18.0286V16.6752V15.3219H84.1513H87.474V14.2502V13.1784H84.1513H80.8286V11.7682V10.3581H84.2639H87.6993V9.22993V8.10179H83.1094H78.5196V14.222ZM118.941 9.38894L118.111 9.47603V10.5939V11.7118H117.294H116.477V12.6426V13.5733H117.294H118.111V15.7641C118.111 17.7456 118.121 17.9958 118.22 18.3816C118.492 19.4468 119.12 20.1043 120.123 20.3739C120.649 20.5152 121.625 20.4896 122.303 20.3167C122.611 20.2382 122.889 20.1478 122.921 20.1159C122.961 20.0761 122.885 19.7744 122.681 19.1564C122.517 18.6607 122.378 18.2551 122.373 18.2551C122.367 18.2551 122.229 18.3059 122.066 18.3679C121.871 18.4422 121.634 18.4807 121.37 18.4807C120.878 18.4807 120.605 18.3464 120.412 18.0087C120.279 17.7766 120.279 17.7667 120.262 15.6744L120.246 13.5733H121.431H122.616V12.6426V11.7118H121.433H120.251V10.4991V9.28634L120.011 9.29406C119.88 9.29835 119.398 9.34105 118.941 9.38894ZM50.4153 13.4041L51.4816 15.8578L49.2793 15.8725C48.068 15.8807 47.0673 15.8775 47.0553 15.8655C47.0388 15.849 48.7736 11.8052 49.1849 10.9018C49.2506 10.7573 49.263 10.7514 49.3037 10.8454C49.3287 10.9031 49.8289 12.0545 50.4153 13.4041ZM102.224 11.5135C101.207 11.7074 100.404 12.1291 99.7735 12.8C99.2993 13.3049 99.0534 13.7103 98.8455 14.33C98.423 15.5894 98.506 17.0521 99.0667 18.2269C99.5676 19.2764 100.443 19.991 101.706 20.3815C102.173 20.5259 102.264 20.5346 103.299 20.5346C104.333 20.5346 104.427 20.5256 104.904 20.3812C105.624 20.1633 106.368 19.782 106.735 19.4432L107.044 19.1569L106.347 18.4837L105.65 17.8105L105.446 17.9738C104.982 18.3454 104.129 18.5935 103.314 18.5935C102.55 18.5935 101.876 18.3732 101.424 17.9751C101.228 17.8029 100.92 17.2745 100.855 17L100.819 16.8449H104.144H107.47L107.531 16.6898C107.623 16.4539 107.549 15.1054 107.412 14.5425C107.035 12.9945 106.074 12 104.566 11.5995C103.971 11.4414 102.823 11.3992 102.224 11.5135ZM112.929 11.5437C112.289 11.6767 111.816 11.9508 111.469 12.3908L111.251 12.6669L111.183 12.1893L111.116 11.7118H110.108H109.1V16.027V20.3421H110.165H111.231L111.253 17.8179C111.273 15.67 111.29 15.2517 111.369 15.0117C111.664 14.1137 112.347 13.6671 113.418 13.672C113.952 13.6745 114.336 13.7847 114.68 14.0341C114.904 14.1972 114.92 14.2009 114.979 14.1014C115.013 14.0436 115.236 13.6222 115.473 13.1651L115.904 12.3338L115.735 12.1915C115.24 11.7737 114.563 11.5426 113.746 11.5121C113.436 11.5005 113.069 11.5148 112.929 11.5437ZM60.6958 11.6337C60.1505 11.7657 59.5554 12.0932 59.1664 12.4751L58.8179 12.8174L58.7873 12.589C58.7704 12.4633 58.7401 12.2145 58.7198 12.0362L58.6829 11.7118H57.6757H56.6684V17.832V23.9522H57.7385H58.8085V21.6991V19.446L59.0916 19.7178C59.4482 20.0603 59.9431 20.3059 60.5869 20.4598C61.2644 20.6218 62.4566 20.5925 63.0605 20.3991C64.4993 19.9381 65.4645 18.9163 65.8849 17.409C66.0304 16.8878 66.0314 15.2853 65.8866 14.7578C65.5443 13.51 64.6118 12.3945 63.4991 11.9016C62.7268 11.5595 61.4903 11.4413 60.6958 11.6337ZM71.5651 11.6337C71.0197 11.7657 70.4246 12.0932 70.0357 12.4751L69.6872 12.8174L69.6565 12.589C69.6397 12.4633 69.6093 12.2145 69.589 12.0362L69.5522 11.7118H68.5449H67.5377V17.832V23.9522H68.6077H69.6777V21.6991V19.446L69.9609 19.7178C70.3175 20.0603 70.8123 20.3059 71.4561 20.4598C72.1337 20.6218 73.3259 20.5925 73.9297 20.3991C75.3685 19.9381 76.3337 18.9163 76.7542 17.409C76.8996 16.8878 76.9006 15.2853 76.7559 14.7578C76.4135 13.51 75.4811 12.3945 74.3684 11.9016C73.596 11.5595 72.3595 11.4413 71.5651 11.6337ZM89.2394 11.7942C89.2572 11.8407 89.8852 12.7851 90.635 13.8929C91.3848 15.0008 91.9976 15.9341 91.9968 15.9671C91.996 16 91.3336 16.9789 90.5247 18.1422C89.7159 19.3056 89.0533 20.277 89.0525 20.3008C89.0517 20.3247 89.6367 20.3374 90.3528 20.329L91.6546 20.3139L92.5351 18.9507C93.0194 18.2009 93.4313 17.5718 93.4504 17.5527C93.4695 17.5336 93.8962 18.1534 94.3987 18.93L95.3123 20.3421H96.6085C97.6441 20.3421 97.8992 20.3275 97.8769 20.2694C97.8615 20.2293 97.3482 19.4741 96.736 18.5912C96.1239 17.7083 95.4636 16.7559 95.2687 16.4747L94.9143 15.9636L96.319 13.8844C97.0916 12.7409 97.7238 11.7838 97.7238 11.7575C97.7238 11.7312 97.1382 11.7166 96.4224 11.7249L95.1211 11.74L94.299 13.1627L93.4768 14.5854L93.1579 14.0371C92.9824 13.7354 92.6107 13.0952 92.3318 12.6144L91.8247 11.74L90.5159 11.7249C89.3724 11.7117 89.2111 11.7204 89.2394 11.7942ZM104.116 13.4914C104.722 13.6579 105.188 14.0986 105.355 14.6645C105.401 14.8202 105.439 14.9683 105.439 14.9937C105.439 15.0191 104.413 15.0399 103.158 15.0399C101.633 15.0399 100.878 15.0206 100.878 14.9818C100.878 14.8966 101.196 14.2975 101.314 14.1606C101.899 13.4825 103.068 13.2034 104.116 13.4914ZM62.5418 13.8704C63.0301 14.1045 63.3728 14.4383 63.6008 14.9014C64.1654 16.049 63.7778 17.5059 62.743 18.1258C61.4897 18.8766 59.8567 18.4023 59.2531 17.1123C59.069 16.719 59.0619 16.6787 59.0619 16.027C59.0619 15.3841 59.0709 15.3312 59.2402 14.9733C59.6829 14.0373 60.4501 13.605 61.5844 13.6526C62.0708 13.6729 62.1835 13.6986 62.5418 13.8704ZM73.411 13.8704C73.8994 14.1045 74.2421 14.4383 74.47 14.9014C75.0347 16.049 74.6471 17.5059 73.6122 18.1258C72.359 18.8766 70.726 18.4023 70.1223 17.1123C69.9383 16.719 69.9312 16.6787 69.9312 16.027C69.9312 15.3841 69.9401 15.3312 70.1094 14.9733C70.5521 14.0373 71.3194 13.605 72.4536 13.6526C72.94 13.6729 73.0527 13.6986 73.411 13.8704Z" fill="white"/>
<defs>
<clipPath id="clip0_2810_92690">
<rect width="42.5742" height="32.0181" fill="white"/>
</clipPath>
</defs>
</svg>
