<svg width="20" height="24" viewBox="0 0 20 24" fill="none" xmlns="http://www.w3.org/2000/svg">
<path fill-rule="evenodd" clip-rule="evenodd" d="M0.57135 23.25V3C0.57135 2.20435 0.898709 1.44129 1.48141 0.87868C2.06411 0.316071 2.85443 0 3.67849 0L16.1071 0C16.9311 0 17.7214 0.316071 18.3041 0.87868C18.8869 1.44129 19.2142 2.20435 19.2142 3V23.25C19.2143 23.3802 19.1793 23.5083 19.1126 23.6215C19.0459 23.7347 18.9498 23.8291 18.8338 23.8956C18.7177 23.962 18.5858 23.9982 18.4509 24.0004C18.3161 24.0027 18.1829 23.971 18.0646 23.9085L9.89278 19.6035L1.72099 23.9085C1.60266 23.971 1.4695 24.0027 1.33463 24.0004C1.19976 23.9982 1.06782 23.962 0.951807 23.8956C0.835794 23.8291 0.739702 23.7347 0.672992 23.6215C0.606281 23.5083 0.571252 23.3802 0.57135 23.25ZM14.3267 8.781C14.4725 8.64017 14.5545 8.44916 14.5545 8.25C14.5545 8.05084 14.4725 7.85983 14.3267 7.719C14.1808 7.57817 13.983 7.49905 13.7767 7.49905C13.5704 7.49905 13.3726 7.57817 13.2267 7.719L9.11599 11.6895L7.3356 9.969C7.26338 9.89927 7.17764 9.84395 7.08328 9.80622C6.98891 9.76848 6.88777 9.74905 6.78564 9.74905C6.6835 9.74905 6.58236 9.76848 6.488 9.80622C6.39363 9.84395 6.30789 9.89927 6.23567 9.969C6.16345 10.0387 6.10616 10.1215 6.06707 10.2126C6.02799 10.3037 6.00787 10.4014 6.00787 10.5C6.00787 10.5986 6.02799 10.6963 6.06707 10.7874C6.10616 10.8785 6.16345 10.9613 6.23567 11.031L8.56603 13.281C8.63819 13.3508 8.72391 13.4063 8.81828 13.4441C8.91265 13.4819 9.01382 13.5013 9.11599 13.5013C9.21817 13.5013 9.31934 13.4819 9.41371 13.4441C9.50808 13.4063 9.5938 13.3508 9.66596 13.281L14.3267 8.781Z" fill="#49A84D"/>
</svg>
