<svg width="20" height="24" viewBox="0 0 20 24" fill="none" xmlns="http://www.w3.org/2000/svg">
<path fill-rule="evenodd" clip-rule="evenodd" d="M0.535645 23.25V3C0.535645 2.20435 0.863003 1.44129 1.44571 0.87868C2.02841 0.316071 2.81872 0 3.64279 0L16.0714 0C16.8954 0 17.6857 0.316071 18.2684 0.87868C18.8511 1.44129 19.1785 2.20435 19.1785 3V23.25C19.1786 23.3802 19.1436 23.5083 19.0769 23.6215C19.0102 23.7347 18.9141 23.8291 18.798 23.8956C18.682 23.962 18.5501 23.9982 18.4152 24.0004C18.2804 24.0027 18.1472 23.971 18.0289 23.9085L9.85707 19.6035L1.68529 23.9085C1.56695 23.971 1.43379 24.0027 1.29892 24.0004C1.16405 23.9982 1.03211 23.962 0.916101 23.8956C0.800088 23.8291 0.703997 23.7347 0.637286 23.6215C0.570576 23.5083 0.535546 23.3802 0.535645 23.25ZM14.291 8.781C14.4368 8.64017 14.5188 8.44916 14.5188 8.25C14.5188 8.05084 14.4368 7.85983 14.291 7.719C14.1451 7.57817 13.9473 7.49905 13.741 7.49905C13.5347 7.49905 13.3369 7.57817 13.191 7.719L9.08029 11.6895L7.2999 9.969C7.22767 9.89927 7.14193 9.84395 7.04757 9.80622C6.95321 9.76848 6.85207 9.74905 6.74993 9.74905C6.64779 9.74905 6.54666 9.76848 6.45229 9.80622C6.35793 9.84395 6.27219 9.89927 6.19997 9.969C6.12774 10.0387 6.07045 10.1215 6.03137 10.2126C5.99228 10.3037 5.97216 10.4014 5.97216 10.5C5.97216 10.5986 5.99228 10.6963 6.03137 10.7874C6.07045 10.8785 6.12774 10.9613 6.19997 11.031L8.53032 13.281C8.60248 13.3508 8.6882 13.4063 8.78257 13.4441C8.87694 13.4819 8.97811 13.5013 9.08029 13.5013C9.18246 13.5013 9.28363 13.4819 9.37801 13.4441C9.47238 13.4063 9.5581 13.3508 9.63025 13.281L14.291 8.781Z" fill="#BF0905"/>
</svg>
