<svg width="16" height="16" viewBox="0 0 16 16" fill="none" xmlns="http://www.w3.org/2000/svg">
<g clip-path="url(#clip0_324_11234)">
<path d="M7.999 0.166992C3.582 0.166992 0 3.76299 0 8.19899C0 11.747 2.292 14.757 5.472 15.82C5.872 15.894 6.018 15.646 6.018 15.433C6.018 15.242 6.011 14.737 6.007 14.067C3.782 14.552 3.312 12.99 3.312 12.99C2.949 12.062 2.424 11.815 2.424 11.815C1.697 11.317 2.478 11.327 2.478 11.327C3.281 11.384 3.703 12.155 3.703 12.155C4.417 13.382 5.576 13.028 6.032 12.822C6.104 12.303 6.311 11.949 6.54 11.748C4.764 11.545 2.896 10.856 2.896 7.77899C2.896 6.90199 3.208 6.18499 3.72 5.62299C3.637 5.41999 3.363 4.60299 3.798 3.49799C3.798 3.49799 4.47 3.28199 5.998 4.32099C6.636 4.14299 7.32 4.05399 8.001 4.05099C8.68 4.05499 9.365 4.14299 10.004 4.32199C11.531 3.28299 12.202 3.49899 12.202 3.49899C12.638 4.60499 12.364 5.42099 12.282 5.62399C12.795 6.18599 13.104 6.90299 13.104 7.77999C13.104 10.865 11.234 11.544 9.452 11.743C9.739 11.991 9.995 12.481 9.995 13.23C9.995 14.304 9.985 15.17 9.985 15.433C9.985 15.648 10.129 15.898 10.535 15.819C13.71 14.755 16 11.746 16 8.19899C16 3.76299 12.418 0.166992 7.999 0.166992Z" fill="black"/>
</g>
<defs>
<clipPath id="clip0_324_11234">
<rect width="16" height="16" fill="white"/>
</clipPath>
</defs>
</svg>
