<svg width="79" height="26" viewBox="0 0 79 26" fill="#0000" xmlns="http://www.w3.org/2000/svg">
<g clip-path="url(#clip0_665_43)">
<path fill-rule="evenodd" clip-rule="evenodd" d="M66.0136 0C58.8387 0 53.0273 5.8175 53.0273 13C53.0273 18.7525 56.7447 23.6113 61.9067 25.3338C62.556 25.4475 62.7995 25.0575 62.7995 24.7163C62.7995 24.4075 62.7833 23.3838 62.7833 22.295C59.5205 22.8963 58.6764 21.4988 58.4167 20.7675C58.2706 20.3938 57.6375 19.24 57.0856 18.9313C56.631 18.6875 55.9817 18.0863 57.0693 18.07C58.092 18.0538 58.8225 19.0125 59.066 19.4025C60.2347 21.3688 62.1015 20.8162 62.8482 20.475C62.9619 19.63 63.3028 19.0613 63.6761 18.7362C60.7867 18.4113 57.7673 17.29 57.7673 12.3175C57.7673 10.9038 58.2706 9.73375 59.0984 8.82375C58.9686 8.49875 58.5141 7.16625 59.2283 5.37875C59.2283 5.37875 60.3159 5.0375 62.7995 6.71125C63.8384 6.41875 64.9423 6.2725 66.0461 6.2725C67.1499 6.2725 68.2538 6.41875 69.2927 6.71125C71.7763 5.02125 72.8639 5.37875 72.8639 5.37875C73.5782 7.16625 73.1236 8.49875 72.9938 8.82375C73.8217 9.73375 74.3249 10.8875 74.3249 12.3175C74.3249 17.3062 71.2893 18.4113 68.3999 18.7362C68.8706 19.1425 69.2765 19.9225 69.2765 21.1413C69.2765 22.88 69.2602 24.2775 69.2602 24.7163C69.2602 25.0575 69.5037 25.4638 70.153 25.3338C72.731 24.4625 74.9711 22.8038 76.5582 20.5913C78.1452 18.3788 78.9992 15.7238 78.9999 13C78.9999 5.8175 73.1886 0 66.0136 0Z" fill="black"/>
</g>
<g clip-path="url(#clip1_665_43)">
<path fill-rule="evenodd" clip-rule="evenodd" d="M20.053 17.3657H20.0314C20.0411 17.3657 20.0476 17.3765 20.0573 17.3776H20.0638L20.053 17.3667V17.3657ZM20.0573 17.3776C19.9567 17.3787 19.7035 17.4317 19.4362 17.4317C18.5921 17.4317 18.2999 17.0417 18.2999 16.5326V13.1407H20.0205C20.1179 13.1407 20.1937 13.054 20.1937 12.9348V11.0932C20.1937 10.9957 20.1071 10.909 20.0205 10.909H18.2999V8.62316C18.2999 8.5365 18.2458 8.48233 18.1484 8.48233H15.8108C15.7134 8.48233 15.6593 8.5365 15.6593 8.62316V10.974C15.6593 10.974 14.4797 11.2665 14.404 11.2773C14.3174 11.299 14.2633 11.3748 14.2633 11.4615V12.9348C14.2633 13.054 14.3499 13.1407 14.4473 13.1407H15.6485V16.694C15.6485 19.3373 17.4882 19.6082 18.7436 19.6082C19.3171 19.6082 20.0097 19.424 20.1179 19.3698C20.1829 19.3482 20.2153 19.2723 20.2153 19.1965V17.5715C20.2168 17.5254 20.2017 17.4803 20.1727 17.4445C20.1436 17.4087 20.1027 17.3846 20.0573 17.3765V17.3776ZM45.701 14.9932C45.701 13.0323 44.911 12.7723 44.0777 12.859C43.4284 12.9023 42.9089 13.2273 42.9089 13.2273V17.0407C42.9089 17.0407 43.4392 17.409 44.2292 17.4307C45.3438 17.4632 45.701 17.0623 45.701 14.9932ZM48.3307 14.8198C48.3307 18.5357 47.1295 19.5973 45.03 19.5973C43.2552 19.5973 42.3029 18.6982 42.3029 18.6982C42.3029 18.6982 42.2596 19.1965 42.2055 19.2615C42.173 19.3265 42.1189 19.3482 42.054 19.3482H40.4523C40.3441 19.3482 40.2467 19.2615 40.2467 19.164L40.2684 7.12816C40.2684 7.03066 40.3549 6.944 40.4523 6.944H42.7574C42.8548 6.944 42.9414 7.03066 42.9414 7.12816V11.2123C42.9414 11.2123 43.8288 10.6382 45.1274 10.6382L45.1166 10.6165C46.4152 10.6165 48.3307 11.104 48.3307 14.8198ZM38.894 10.909H36.6214C36.5023 10.909 36.4374 10.9957 36.4374 11.1148V17.0082C36.4374 17.0082 35.8422 17.4307 35.0305 17.4307C34.2189 17.4307 33.9808 17.0623 33.9808 16.2498V11.104C33.9808 11.0065 33.8942 10.9198 33.7968 10.9198H31.481C31.3836 10.9198 31.297 11.0065 31.297 11.104V16.6398C31.297 19.0232 32.6281 19.619 34.457 19.619C35.9612 19.619 37.1841 18.7848 37.1841 18.7848C37.1841 18.7848 37.2382 19.2073 37.2707 19.2723C37.2923 19.3265 37.3681 19.3698 37.4438 19.3698H38.894C39.013 19.3698 39.0779 19.2832 39.0779 19.1857L39.0996 11.0932C39.0996 10.9957 39.013 10.909 38.894 10.909ZM13.246 10.8982H10.941C10.8436 10.8982 10.757 10.9957 10.757 11.1148V19.0665C10.757 19.2832 10.8977 19.359 11.0816 19.359H13.1595C13.3759 19.359 13.43 19.2615 13.43 19.0665V11.0823C13.43 10.9848 13.3434 10.8982 13.246 10.8982ZM12.1097 7.2365C11.2764 7.2365 10.6163 7.89733 10.6163 8.7315C10.6163 9.56567 11.2764 10.2265 12.1097 10.2265C12.9214 10.2265 13.5815 9.56567 13.5815 8.7315C13.5815 7.89733 12.9214 7.2365 12.1097 7.2365ZM29.9551 6.96566H27.6716C27.5742 6.96566 27.4877 7.05233 27.4877 7.14983V11.5807H23.9056V7.14983C23.9056 7.05233 23.819 6.96566 23.7216 6.96566H21.4166C21.3192 6.96566 21.2326 7.05233 21.2326 7.14983V19.1857C21.2326 19.2832 21.33 19.3698 21.4166 19.3698H23.7216C23.819 19.3698 23.9056 19.2832 23.9056 19.1857V14.0398H27.4877L27.466 19.1857C27.466 19.2832 27.5526 19.3698 27.65 19.3698H29.9551C30.0525 19.3698 30.139 19.2832 30.139 19.1857V7.14983C30.139 7.05233 30.0525 6.96566 29.9551 6.96566ZM9.53411 12.2957V18.514C9.53411 18.5573 9.52329 18.6332 9.46918 18.6548C9.46918 18.6548 8.11644 19.619 5.88712 19.619C3.19247 19.619 0 18.774 0 13.2057C0 7.63733 2.79205 6.489 5.51918 6.49983C7.87836 6.49983 8.83069 7.03066 8.98219 7.12816C9.02548 7.18233 9.04712 7.22566 9.04712 7.27983L8.5926 9.20816C8.5926 9.30567 8.49521 9.42483 8.37616 9.39233C7.98658 9.27316 7.40219 9.03483 6.02781 9.03483C4.43699 9.03483 2.72712 9.48983 2.72712 13.0757C2.72712 16.6615 4.35041 17.084 5.51918 17.084C6.51479 17.084 6.87192 16.9648 6.87192 16.9648V14.4732H5.2811C5.16206 14.4732 5.07548 14.3865 5.07548 14.289V12.2957C5.07548 12.1982 5.16206 12.1115 5.2811 12.1115H9.32849C9.44753 12.1115 9.53411 12.1982 9.53411 12.2957Z" fill="#474747"/>
</g>
<defs>
<clipPath id="clip0_665_43">
<rect width="25.9726" height="26" fill="white" transform="translate(53.0273)"/>
</clipPath>
<clipPath id="clip1_665_43">
<rect width="48.6986" height="17.3333" fill="white" transform="translate(0 4.33325)"/>
</clipPath>
</defs>
</svg>
