<svg width="24" height="25" viewBox="0 0 24 25" fill="none" xmlns="http://www.w3.org/2000/svg">
<path d="M21.4286 0.6875H2.57143C1.15179 0.6875 0 1.82129 0 3.21875V21.7812C0 23.1787 1.15179 24.3125 2.57143 24.3125H21.4286C22.8482 24.3125 24 23.1787 24 21.7812V3.21875C24 1.82129 22.8482 0.6875 21.4286 0.6875ZM14.8554 20.9217C14.4054 21.0008 14.2393 20.7266 14.2393 20.4998C14.2393 20.215 14.25 18.7596 14.25 17.5836C14.25 16.7609 13.9714 16.2389 13.6446 15.9646C15.6268 15.7484 17.7161 15.4795 17.7161 12.1098C17.7161 11.15 17.3679 10.6701 16.8 10.0531C16.8911 9.82637 17.1964 8.89297 16.7089 7.68008C15.9643 7.45332 14.2607 8.62402 14.2607 8.62402C13.5536 8.42891 12.7875 8.32871 12.0321 8.32871C11.2768 8.32871 10.5107 8.42891 9.80357 8.62402C9.80357 8.62402 8.1 7.45332 7.35536 7.68008C6.86786 8.8877 7.16786 9.82109 7.26429 10.0531C6.69643 10.6701 6.42857 11.15 6.42857 12.1098C6.42857 15.4637 8.42679 15.7484 10.4089 15.9646C10.1518 16.1914 9.92143 16.5816 9.84107 17.1406C9.33214 17.3674 8.03036 17.7576 7.25357 16.4076C6.76607 15.5744 5.8875 15.5059 5.8875 15.5059C5.01964 15.4953 5.82857 16.0438 5.82857 16.0438C6.40714 16.3074 6.81429 17.3199 6.81429 17.3199C7.33393 18.8861 9.81964 18.3588 9.81964 18.3588C9.81964 19.0918 9.83036 20.2836 9.83036 20.4998C9.83036 20.7266 9.66964 21.0008 9.21429 20.9217C5.67857 19.7563 3.20357 16.4445 3.20357 12.5738C3.20357 7.73281 6.96429 4.05723 11.8821 4.05723C16.8 4.05723 20.7857 7.73281 20.7857 12.5738C20.7911 16.4445 18.3911 19.7615 14.8554 20.9217ZM9.6 17.6996C9.49821 17.7207 9.40179 17.6785 9.39107 17.61C9.38036 17.5309 9.45 17.4623 9.55179 17.4412C9.65357 17.4307 9.75 17.4729 9.76071 17.5414C9.77679 17.61 9.70714 17.6785 9.6 17.6996ZM9.09107 17.6521C9.09107 17.7207 9.01071 17.7787 8.90357 17.7787C8.78571 17.7893 8.70536 17.7313 8.70536 17.6521C8.70536 17.5836 8.78571 17.5256 8.89286 17.5256C8.99464 17.515 9.09107 17.573 9.09107 17.6521ZM8.35714 17.5941C8.33571 17.6627 8.22857 17.6943 8.1375 17.6627C8.03571 17.6416 7.96607 17.5625 7.9875 17.4939C8.00893 17.4254 8.11607 17.3938 8.20714 17.4148C8.31429 17.4465 8.38393 17.5256 8.35714 17.5941ZM7.69821 17.3094C7.65 17.3674 7.54821 17.3568 7.46786 17.2777C7.3875 17.2092 7.36607 17.109 7.41964 17.0615C7.46786 17.0035 7.56964 17.0141 7.65 17.0932C7.71964 17.1617 7.74643 17.2672 7.69821 17.3094ZM7.21071 16.8295C7.1625 16.8611 7.07143 16.8295 7.0125 16.7504C6.95357 16.6713 6.95357 16.5816 7.0125 16.5447C7.07143 16.4973 7.1625 16.5342 7.21071 16.6133C7.26964 16.6924 7.26964 16.7873 7.21071 16.8295ZM6.8625 16.318C6.81429 16.3654 6.73393 16.3391 6.675 16.2863C6.61607 16.2178 6.60536 16.1387 6.65357 16.1018C6.70179 16.0543 6.78214 16.0807 6.84107 16.1334C6.9 16.202 6.91071 16.2811 6.8625 16.318ZM6.50357 15.9277C6.48214 15.9752 6.4125 15.9857 6.35357 15.9488C6.28393 15.9172 6.25179 15.8592 6.27321 15.8117C6.29464 15.7801 6.35357 15.7643 6.42321 15.7906C6.49286 15.8275 6.525 15.8855 6.50357 15.9277Z" fill="#222222"/>
</svg>
