<svg width="96" height="109" viewBox="0 0 96 109" fill="none" xmlns="http://www.w3.org/2000/svg">
<rect y="0.5" width="120" height="120" rx="60" fill="#F7F8FA"/>
<g clip-path="url(#clip0_2003_69394)">
<path d="M62.8535 60.5071L68.9464 67.2779L77.1392 72.3682L78.5678 60.5487L77.1392 48.9932L68.7892 53.4654L62.8535 60.5071Z" fill="#00832D"/>
<path d="M27.498 71.2757V81.3452C27.498 83.6472 29.4159 85.5118 31.7838 85.5118H42.1409L44.2838 77.9007L42.1409 71.2757L35.0338 69.1924L27.498 71.2757Z" fill="#0066DA"/>
<path d="M42.1409 35.498L27.498 49.7342L35.0338 51.8175L42.1409 49.7342L44.248 43.1994L42.1409 35.498Z" fill="#E94235"/>
<path d="M42.1409 49.7393H27.498V71.267H42.1409V49.7393Z" fill="#2684FC"/>
<path d="M86.5056 41.5438L77.1484 49.0021V72.3771L86.5484 79.8702C87.9556 80.9396 90.0127 79.9639 90.0127 78.2243V43.1549C90.0127 41.3945 87.9091 40.4292 86.5056 41.5438ZM62.8627 60.516V71.2799H42.1484V85.516H72.8627C75.2306 85.516 77.1484 83.6514 77.1484 81.3493V72.3771L62.8627 60.516Z" fill="#00AC47"/>
<path d="M72.8627 35.498H42.1484V49.7342H62.8627V60.498L77.1484 48.9911V39.6647C77.1484 37.3626 75.2306 35.498 72.8627 35.498Z" fill="#FFBA00"/>
</g>
<defs>
<clipPath id="clip0_2003_69394">
<rect width="62.5" height="50" fill="white" transform="translate(27.4971 35.4971)"/>
</clipPath>
</defs>
</svg>
