<svg width="41" height="40" viewBox="0 0 41 40" fill="none" xmlns="http://www.w3.org/2000/svg">
<path d="M34.8092 16.7357H33.5246V16.6666H19.171V23.3332H28.1843C26.8693 27.2141 23.336 29.9999 19.171 29.9999C13.8865 29.9999 9.60201 25.5224 9.60201 19.9999C9.60201 14.4774 13.8865 9.99992 19.171 9.99992C21.6104 9.99992 23.8296 10.9616 25.5193 12.5324L30.0303 7.81825C27.1819 5.04408 23.3719 3.33325 19.171 3.33325C10.3635 3.33325 3.22266 10.7958 3.22266 19.9999C3.22266 29.2041 10.3635 36.6666 19.171 36.6666C27.9785 36.6666 35.1194 29.2041 35.1194 19.9999C35.1194 18.8824 35.0094 17.7916 34.8092 16.7357Z" fill="#FFC107"/>
<path d="M5.0625 12.2424L10.3023 16.2583C11.7202 12.5899 15.1538 9.99992 19.172 9.99992C21.6113 9.99992 23.8306 10.9616 25.5203 12.5324L30.0313 7.81825C27.1829 5.04409 23.3728 3.33325 19.172 3.33325C13.0463 3.33325 7.73386 6.94742 5.0625 12.2424Z" fill="#FF3D00"/>
<path d="M19.1707 36.6665C23.2902 36.6665 27.0333 35.019 29.8633 32.3398L24.9273 27.9748C23.2723 29.2902 21.2499 30.0016 19.1707 29.9998C15.0225 29.9998 11.5003 27.2357 10.1734 23.3782L4.97266 27.5657C7.61211 32.9632 12.9724 36.6665 19.1707 36.6665Z" fill="#4CAF50"/>
<path d="M34.8101 16.7359H33.5254V16.6667H19.1719V23.3334H28.1851C27.5561 25.1804 26.4231 26.7944 24.9261 27.9759L24.9284 27.9742L29.8645 32.3392C29.5152 32.6709 35.1203 28.3334 35.1203 20.0001C35.1203 18.8826 35.0102 17.7917 34.8101 16.7359Z" fill="#1976D2"/>
</svg>
