<svg width="78" height="20" viewBox="0 0 78 20" fill="none" xmlns="http://www.w3.org/2000/svg">
<path d="M30.7821 11.4214L35.0861 16.7142H31.6875L27.8571 11.8533V16.7142H25.0714V2.78576H27.8571V10.9758L31.395 6.96424H34.9467L30.7821 11.4214ZM19.6392 6.68576C19.0293 6.69489 18.4307 6.85171 17.8946 7.14279C17.3585 7.43388 16.901 7.85054 16.5611 8.35712V6.96424H13.9286V16.7142H16.7142V12.1596C16.6777 11.829 16.7095 11.4944 16.8078 11.1767C16.9061 10.859 17.0688 10.5648 17.2857 10.3127C17.5026 10.0605 17.769 9.85568 18.0685 9.71094C18.368 9.5662 18.694 9.48465 19.0264 9.47136C20.6421 9.47136 20.8929 11.0592 20.8929 12.1596V16.7142H23.6786V11.5467C23.6786 8.4825 22.6617 6.68576 19.695 6.68576H19.6392ZM44.5714 12.0621C44.582 12.2663 44.582 12.4709 44.5714 12.675H37.2589V12.7725C37.3776 13.3533 37.6994 13.8729 38.1665 14.2379C38.6337 14.6029 39.2156 14.7895 39.8079 14.7642C40.2777 14.7847 40.7469 14.7101 41.1873 14.545C41.6276 14.3799 42.0302 14.1276 42.3708 13.8033L44.2233 15.1961C43.6361 15.7953 42.9299 16.2647 42.1502 16.5742C41.3705 16.8837 40.5346 17.0263 39.6964 16.9929C39.0022 17.0367 38.3067 16.9311 37.6568 16.6832C37.007 16.4352 36.4179 16.0507 35.9294 15.5556C35.4409 15.0604 35.0643 14.4663 34.8251 13.8131C34.5859 13.16 34.4897 12.4631 34.5429 11.7696C34.5286 11.085 34.6555 10.4048 34.9157 9.77135C35.1758 9.13792 35.5637 8.56487 36.055 8.0879C36.5463 7.61094 37.1307 7.24029 37.7715 6.99906C38.4124 6.75782 39.0961 6.65117 39.78 6.68576C42.3986 6.68576 44.5714 8.53826 44.5714 12.0621ZM41.9808 10.8642C41.9705 10.5884 41.9042 10.3174 41.7859 10.068C41.6675 9.81857 41.4996 9.59584 41.2924 9.41339C41.0852 9.23095 40.843 9.0926 40.5806 9.00678C40.3182 8.92097 40.0411 8.88948 39.7661 8.91424C38.5413 8.78185 37.4321 9.64458 37.2589 10.8642H41.9808ZM2.78576 2.78576H0V16.7142H8.35712V13.9288H2.78576V2.78576ZM52.9286 2.78576H55.7142V16.7142H53.0817V15.7392C52.7475 16.1511 52.3214 16.479 51.8377 16.6967C51.354 16.9143 50.8261 17.0158 50.2961 16.9929C49.6487 16.9763 49.0115 16.8274 48.4237 16.5555C47.8359 16.2835 47.31 15.8942 46.8782 15.4116C46.4463 14.9289 46.1178 14.363 45.9128 13.7486C45.7077 13.1343 45.6305 12.4845 45.6858 11.8392C45.62 11.193 45.6895 10.5402 45.8897 9.92235C46.09 9.30447 46.4167 8.73504 46.849 8.2503C47.2814 7.76555 47.8099 7.37611 48.4009 7.10676C48.992 6.8374 49.6326 6.69403 50.2821 6.68576C50.7659 6.66456 51.249 6.73985 51.7034 6.90725C52.1577 7.07464 52.5743 7.33079 52.9286 7.66076V2.78576ZM53.1375 11.8392C53.1813 11.5176 53.1556 11.1903 53.0622 10.8795C52.9688 10.5686 52.8098 10.2814 52.596 10.0372C52.3821 9.79296 52.1184 9.59745 51.8226 9.46382C51.5268 9.33018 51.2057 9.26153 50.8811 9.2625C49.5486 9.35924 48.5388 10.5052 48.6108 11.8392C48.5388 13.1733 49.5486 14.3194 50.8811 14.4161C51.2057 14.4171 51.5268 14.3485 51.8226 14.2148C52.1184 14.0812 52.3822 13.8856 52.596 13.6414C52.8099 13.3972 52.9689 13.11 53.0623 12.7991C53.1557 12.4882 53.1813 12.1609 53.1375 11.8392ZM11.1429 2.50712C10.6949 2.51347 10.2661 2.68956 9.94288 2.99984C9.61971 3.31011 9.42631 3.73146 9.40174 4.17879C9.40174 5.14023 10.1813 5.91977 11.1429 5.91977C12.1045 5.91977 12.8837 5.14008 12.8837 4.17879C12.8591 3.73151 12.6657 3.31022 12.3426 2.99998C12.0194 2.68974 11.5908 2.5135 11.1429 2.50712ZM9.75 16.7142H12.5358V6.96424H9.75V16.7142ZM78 1.39288V18.1071C78 18.4765 77.8532 18.8308 77.592 19.092C77.3308 19.3533 76.9765 19.5 76.6071 19.5H59.8929C59.5235 19.5 59.1692 19.3533 58.908 19.092C58.6467 18.8308 58.5 18.4765 58.5 18.1071V1.39288C58.5 1.02346 58.6467 0.66918 58.908 0.407965C59.1692 0.146749 59.5235 0 59.8929 0L76.6071 0C76.9765 0 77.3308 0.146749 77.592 0.407965C77.8532 0.66918 78 1.02346 78 1.39288ZM64.0714 6.96424H61.2858V16.7142H64.0714V6.96424ZM64.4196 4.17864C64.4196 3.21704 63.6401 2.4375 62.6786 2.4375C61.717 2.4375 60.9375 3.21704 60.9375 4.17864C60.9375 5.14008 61.717 5.91962 62.6786 5.91962C63.6401 5.91962 64.4196 5.14008 64.4196 4.17864ZM75.2142 11.5467C75.2142 8.4825 74.1975 6.68576 71.2308 6.68576C70.6113 6.68581 70.0014 6.8383 69.4549 7.12978C68.9083 7.42126 68.4419 7.84277 68.0967 8.35712V6.96424H65.4642V16.7142H68.25V12.1596C68.2134 11.829 68.2453 11.4944 68.3436 11.1767C68.4419 10.859 68.6046 10.5648 68.8214 10.3127C69.0383 10.0605 69.3048 9.85568 69.6043 9.71094C69.9037 9.5662 70.2298 9.48465 70.5621 9.47136C72.1779 9.47136 72.4286 11.0592 72.4286 12.1596V16.7142H75.2142V11.5467Z" fill="#0A66C2"/>
</svg>
