<svg width="12" height="16" viewBox="0 0 12 16" fill="none" xmlns="http://www.w3.org/2000/svg">
<path d="M11.2838 4.55066C11.5673 4.26716 11.7233 3.89066 11.7233 3.49016C11.7233 3.08966 11.5673 2.71316 11.2838 2.42966L10.0942 1.24016C9.81075 0.956659 9.43425 0.800659 9.03375 0.800659C8.63325 0.800659 8.25675 0.956659 7.974 1.23941L0 9.18866V12.4999H3.30975L11.2838 4.55066ZM9.03375 2.30066L10.224 3.48941L9.0315 4.67741L7.842 3.48866L9.03375 2.30066ZM1.5 10.9999V9.81116L6.78 4.54766L7.9695 5.73716L2.69025 10.9999H1.5ZM0 13.9999H12V15.4999H0V13.9999Z" fill="#0E0E0E" fill-opacity="0.53"/>
</svg>
