<svg width="89" height="88" viewBox="0 0 89 88" fill="none" xmlns="http://www.w3.org/2000/svg">
<g clip-path="url(#clip0_1355_34687)">
<rect x="0.333496" width="88" height="88" rx="6" fill="#EEEDF3"/>
<path fill-rule="evenodd" clip-rule="evenodd" d="M25.5837 36C25.5837 31.0272 27.5592 26.2581 31.0755 22.7417C34.5918 19.2254 39.3609 17.25 44.3337 17.25C49.3065 17.25 54.0757 19.2254 57.592 22.7417C61.1083 26.2581 63.0837 31.0272 63.0837 36C63.0837 40.9728 61.1083 45.7419 57.592 49.2583C54.0757 52.7746 49.3065 54.75 44.3337 54.75C39.3609 54.75 34.5918 52.7746 31.0755 49.2583C27.5592 45.7419 25.5837 40.9728 25.5837 36ZM9.9629 94.7708C10.1034 85.7478 13.7864 77.1419 20.2169 70.8108C26.6474 64.4796 35.3096 60.931 44.3337 60.931C53.3579 60.931 62.0201 64.4796 68.4506 70.8108C74.8811 77.1419 78.5641 85.7478 78.7046 94.7708C78.7154 95.3783 78.5489 95.9757 78.2256 96.49C77.9022 97.0043 77.4359 97.4132 76.8837 97.6667C66.6719 102.349 55.5677 104.765 44.3337 104.75C32.7254 104.75 21.6962 102.217 11.7837 97.6667C11.2316 97.4132 10.7653 97.0043 10.4419 96.49C10.1185 95.9757 9.95206 95.3783 9.9629 94.7708Z" fill="#ABA6C9"/>
</g>
<defs>
<clipPath id="clip0_1355_34687">
<rect width="88" height="88" fill="white" transform="translate(0.333496)"/>
</clipPath>
</defs>
</svg>
