<svg width="24" height="29" viewBox="0 0 24 29" fill="none" xmlns="http://www.w3.org/2000/svg">
<g clip-path="url(#clip0_3779_3119)">
<path d="M20.2809 25.8928V18.2793H22.8078V28.4198H0V18.2793H2.52694V25.8928H20.2809Z" fill="#BCBBBB"/>
<path d="M5.31579 17.5571L17.7206 20.1497L18.2456 17.6556L5.84098 15.063L5.31588 17.5571H5.31579ZM6.9566 11.65L18.4426 16.9992L19.4928 14.7021L8.00679 9.32006L6.9566 11.65ZM10.1399 6.00553L19.8865 14.1113L21.4945 12.1751L11.7479 4.06931L10.1399 6.00553ZM16.4408 0L14.406 1.50956L21.9539 11.6828L23.9885 10.1733L16.4408 0ZM5.0531 23.3329H17.7205V20.8059H5.05319V23.3329H5.0531Z" fill="#F48023"/>
</g>
<defs>
<clipPath id="clip0_3779_3119">
<rect width="24" height="28.5" fill="white"/>
</clipPath>
</defs>
</svg>
