<svg width="69" height="26" viewBox="0 0 69 26" fill="none" xmlns="http://www.w3.org/2000/svg">
<rect width="69" height="26" rx="13" fill="#F7F8FA"/>
<path fill-rule="evenodd" clip-rule="evenodd" d="M15.387 5.62694C15.2825 5.52788 15.144 5.47266 15 5.47266C14.856 5.47266 14.7175 5.52788 14.613 5.62694C13.021 7.13885 10.9006 7.96794 8.70526 7.93694C8.58566 7.93539 8.46867 7.972 8.3713 8.04146C8.27392 8.11091 8.20122 8.2096 8.16375 8.32319C7.84723 9.28782 7.68647 10.2967 7.6875 11.3119C7.6875 15.7684 10.7355 19.5117 14.8598 20.5729C14.9518 20.5967 15.0483 20.5967 15.1403 20.5729C19.2645 19.5117 22.3125 15.7684 22.3125 11.3119C22.3125 10.2694 22.1453 9.26444 21.8363 8.32319C21.7989 8.20946 21.7263 8.11061 21.6289 8.04101C21.5315 7.97141 21.4144 7.93469 21.2948 7.93619L21.1875 7.93694C18.9405 7.93694 16.8998 7.05944 15.387 5.62694ZM17.7075 11.6389C17.7525 11.579 17.7851 11.5106 17.8033 11.4379C17.8215 11.3652 17.825 11.2895 17.8135 11.2155C17.8021 11.1414 17.7759 11.0703 17.7366 11.0065C17.6974 10.9426 17.6457 10.8873 17.5847 10.8437C17.5237 10.8001 17.4546 10.7691 17.3815 10.7526C17.3084 10.7361 17.2327 10.7344 17.1589 10.7475C17.0851 10.7607 17.0146 10.7885 16.9517 10.8293C16.8888 10.87 16.8347 10.923 16.7925 10.9849L14.3655 14.3824L13.1475 13.1644C13.0409 13.0651 12.8998 13.011 12.7541 13.0136C12.6084 13.0161 12.4693 13.0752 12.3663 13.1782C12.2632 13.2813 12.2042 13.4203 12.2016 13.5661C12.1991 13.7118 12.2531 13.8528 12.3525 13.9594L14.04 15.6469C14.0977 15.7046 14.1674 15.7491 14.244 15.7772C14.3206 15.8053 14.4025 15.8164 14.4838 15.8096C14.5652 15.8029 14.6441 15.7786 14.7151 15.7383C14.7861 15.6981 14.8475 15.6428 14.895 15.5764L17.7075 11.6389Z" fill="#1A1A1A"/>
<path d="M27.4347 9.72727L29.4588 15.6506H29.5405L31.5646 9.72727H32.7507L30.1335 17H28.8658L26.2486 9.72727H27.4347ZM35.5197 17.1101C34.9823 17.1101 34.5195 16.9953 34.1312 16.7656C33.7453 16.5336 33.447 16.2081 33.2363 15.7891C33.028 15.3677 32.9238 14.8741 32.9238 14.3082C32.9238 13.7495 33.028 13.2571 33.2363 12.831C33.447 12.4048 33.7406 12.0722 34.117 11.8331C34.4958 11.594 34.9385 11.4744 35.4451 11.4744C35.7529 11.4744 36.0512 11.5253 36.34 11.6271C36.6288 11.7289 36.8881 11.8887 37.1177 12.1065C37.3474 12.3243 37.5285 12.6072 37.661 12.9553C37.7936 13.3009 37.8599 13.7211 37.8599 14.2159V14.5923H33.524V13.7969H36.8194C36.8194 13.5175 36.7626 13.2701 36.649 13.0547C36.5353 12.8369 36.3755 12.6652 36.1696 12.5398C35.966 12.4143 35.7269 12.3516 35.4522 12.3516C35.1539 12.3516 34.8935 12.425 34.671 12.5717C34.4508 12.7161 34.2804 12.9055 34.1596 13.1399C34.0413 13.3719 33.9821 13.6241 33.9821 13.8963V14.5178C33.9821 14.8823 34.046 15.1925 34.1738 15.4482C34.304 15.7038 34.4851 15.8991 34.7172 16.0341C34.9492 16.1667 35.2202 16.233 35.5304 16.233C35.7316 16.233 35.9151 16.2045 36.0808 16.1477C36.2465 16.0885 36.3897 16.0009 36.5105 15.8849C36.6312 15.7689 36.7235 15.6257 36.7875 15.4553L37.7924 15.6364C37.7119 15.9323 37.5675 16.1915 37.3592 16.4141C37.1532 16.6342 36.894 16.8059 36.5815 16.929C36.2714 17.0497 35.9174 17.1101 35.5197 17.1101ZM39.038 17V11.5455H40.0643V12.4119H40.1211C40.2205 12.1184 40.3957 11.8875 40.6467 11.7195C40.9 11.549 41.1864 11.4638 41.506 11.4638C41.5723 11.4638 41.6504 11.4661 41.7404 11.4709C41.8327 11.4756 41.9049 11.4815 41.957 11.4886V12.5043C41.9144 12.4924 41.8387 12.4794 41.7298 12.4652C41.6209 12.4486 41.512 12.4403 41.4031 12.4403C41.1521 12.4403 40.9284 12.4936 40.7319 12.6001C40.5378 12.7043 40.3839 12.8499 40.2702 13.0369C40.1566 13.2216 40.0998 13.4323 40.0998 13.669V17H39.038ZM42.8759 17V11.5455H43.9377V17H42.8759ZM43.4121 10.7038C43.2275 10.7038 43.0688 10.6423 42.9363 10.5192C42.806 10.3937 42.7409 10.2446 42.7409 10.0717C42.7409 9.89654 42.806 9.7474 42.9363 9.62429C43.0688 9.49882 43.2275 9.43608 43.4121 9.43608C43.5968 9.43608 43.7542 9.49882 43.8844 9.62429C44.017 9.7474 44.0833 9.89654 44.0833 10.0717C44.0833 10.2446 44.017 10.3937 43.8844 10.5192C43.7542 10.6423 43.5968 10.7038 43.4121 10.7038ZM47.962 11.5455V12.3977H44.8796V11.5455H47.962ZM45.7248 17V10.9134C45.7248 10.5724 45.7994 10.2895 45.9485 10.0646C46.0977 9.83736 46.2953 9.66809 46.5415 9.55682C46.7878 9.44318 47.0553 9.38636 47.3441 9.38636C47.5572 9.38636 47.7395 9.40412 47.891 9.43963C48.0425 9.47277 48.1549 9.50355 48.2283 9.53196L47.9798 10.3913C47.93 10.3771 47.8661 10.3606 47.788 10.3416C47.7099 10.3203 47.6152 10.3097 47.5039 10.3097C47.2459 10.3097 47.0612 10.3736 46.9499 10.5014C46.841 10.6293 46.7866 10.8139 46.7866 11.0554V17H45.7248ZM49.0575 17V11.5455H50.1193V17H49.0575ZM49.5938 10.7038C49.4091 10.7038 49.2505 10.6423 49.1179 10.5192C48.9877 10.3937 48.9226 10.2446 48.9226 10.0717C48.9226 9.89654 48.9877 9.7474 49.1179 9.62429C49.2505 9.49882 49.4091 9.43608 49.5938 9.43608C49.7784 9.43608 49.9358 9.49882 50.0661 9.62429C50.1986 9.7474 50.2649 9.89654 50.2649 10.0717C50.2649 10.2446 50.1986 10.3937 50.0661 10.5192C49.9358 10.6423 49.7784 10.7038 49.5938 10.7038ZM53.8986 17.1101C53.3612 17.1101 52.8984 16.9953 52.5101 16.7656C52.1242 16.5336 51.8259 16.2081 51.6152 15.7891C51.4069 15.3677 51.3027 14.8741 51.3027 14.3082C51.3027 13.7495 51.4069 13.2571 51.6152 12.831C51.8259 12.4048 52.1195 12.0722 52.4959 11.8331C52.8747 11.594 53.3174 11.4744 53.824 11.4744C54.1318 11.4744 54.4301 11.5253 54.7189 11.6271C55.0078 11.7289 55.267 11.8887 55.4966 12.1065C55.7263 12.3243 55.9074 12.6072 56.04 12.9553C56.1725 13.3009 56.2388 13.7211 56.2388 14.2159V14.5923H51.9029V13.7969H55.1983C55.1983 13.5175 55.1415 13.2701 55.0279 13.0547C54.9142 12.8369 54.7544 12.6652 54.5485 12.5398C54.3449 12.4143 54.1058 12.3516 53.8311 12.3516C53.5328 12.3516 53.2724 12.425 53.0499 12.5717C52.8297 12.7161 52.6593 12.9055 52.5385 13.1399C52.4202 13.3719 52.361 13.6241 52.361 13.8963V14.5178C52.361 14.8823 52.4249 15.1925 52.5527 15.4482C52.6829 15.7038 52.8641 15.8991 53.0961 16.0341C53.3281 16.1667 53.5991 16.233 53.9093 16.233C54.1105 16.233 54.294 16.2045 54.4597 16.1477C54.6254 16.0885 54.7686 16.0009 54.8894 15.8849C55.0101 15.7689 55.1025 15.6257 55.1664 15.4553L56.1713 15.6364C56.0908 15.9323 55.9464 16.1915 55.7381 16.4141C55.5321 16.6342 55.2729 16.8059 54.9604 16.929C54.6503 17.0497 54.2963 17.1101 53.8986 17.1101ZM59.4588 17.1065C59.0185 17.1065 58.6255 16.9941 58.2798 16.7692C57.9366 16.5419 57.6667 16.2187 57.4702 15.7997C57.276 15.3783 57.179 14.8729 57.179 14.2834C57.179 13.6939 57.2772 13.1896 57.4737 12.7706C57.6726 12.3516 57.9448 12.0308 58.2905 11.8082C58.6361 11.5857 59.0279 11.4744 59.4659 11.4744C59.8045 11.4744 60.0767 11.5312 60.2827 11.6449C60.491 11.7562 60.652 11.8864 60.7656 12.0355C60.8816 12.1847 60.9716 12.3161 61.0355 12.4297H61.0994V9.72727H62.1612V17H61.1243V16.1513H61.0355C60.9716 16.2673 60.8793 16.3999 60.7585 16.549C60.6402 16.6982 60.4768 16.8284 60.2685 16.9396C60.0601 17.0509 59.7902 17.1065 59.4588 17.1065ZM59.6932 16.201C59.9986 16.201 60.2566 16.1205 60.4673 15.9595C60.6804 15.7962 60.8414 15.5701 60.9503 15.2812C61.0616 14.9924 61.1172 14.6562 61.1172 14.2727C61.1172 13.8939 61.0627 13.5625 60.9538 13.2784C60.8449 12.9943 60.6851 12.773 60.4744 12.6143C60.2637 12.4557 60.0033 12.3764 59.6932 12.3764C59.3736 12.3764 59.1072 12.4593 58.8942 12.625C58.6811 12.7907 58.5201 13.0168 58.4112 13.3033C58.3047 13.5897 58.2514 13.9129 58.2514 14.2727C58.2514 14.6373 58.3059 14.9652 58.4148 15.2564C58.5237 15.5476 58.6847 15.7784 58.8977 15.9489C59.1132 16.117 59.3783 16.201 59.6932 16.201Z" fill="#1A1A1A"/>
</svg>
