<svg width="40" height="46" viewBox="0 0 40 46" fill="none" xmlns="http://www.w3.org/2000/svg">
<path d="M35.7143 2.85693H4.28571C1.91964 2.85693 0 4.77658 0 7.14265V38.5712C0 40.9373 1.91964 42.8569 4.28571 42.8569H35.7143C38.0804 42.8569 40 40.9373 40 38.5712V7.14265C40 4.77658 38.0804 2.85693 35.7143 2.85693ZM24.7589 37.1159C24.0089 37.2498 23.7321 36.7855 23.7321 36.4016C23.7321 35.9194 23.75 33.4551 23.75 31.4641C23.75 30.0712 23.2857 29.1873 22.7411 28.723C26.0446 28.3569 29.5268 27.9016 29.5268 22.1962C29.5268 20.5712 28.9464 19.7587 28 18.7141C28.1518 18.3301 28.6607 16.7498 27.8482 14.6962C26.6071 14.3123 23.7679 16.2944 23.7679 16.2944C22.5893 15.9641 21.3125 15.7944 20.0536 15.7944C18.7946 15.7944 17.5179 15.9641 16.3393 16.2944C16.3393 16.2944 13.5 14.3123 12.2589 14.6962C11.4464 16.7409 11.9464 18.3212 12.1071 18.7141C11.1607 19.7587 10.7143 20.5712 10.7143 22.1962C10.7143 27.8748 14.0446 28.3569 17.3482 28.723C16.9196 29.1069 16.5357 29.7676 16.4018 30.7141C15.5536 31.098 13.3839 31.7587 12.0893 29.473C11.2768 28.0623 9.8125 27.9462 9.8125 27.9462C8.36607 27.9284 9.71429 28.8569 9.71429 28.8569C10.6786 29.3034 11.3571 31.0176 11.3571 31.0176C12.2232 33.6694 16.3661 32.7766 16.3661 32.7766C16.3661 34.0176 16.3839 36.0355 16.3839 36.4016C16.3839 36.7855 16.1161 37.2498 15.3571 37.1159C9.46429 35.1426 5.33929 29.5355 5.33929 22.9819C5.33929 14.7855 11.6071 8.56229 19.8036 8.56229C28 8.56229 34.6429 14.7855 34.6429 22.9819C34.6518 29.5355 30.6518 35.1516 24.7589 37.1159ZM16 31.6605C15.8304 31.6962 15.6696 31.6248 15.6518 31.5087C15.6339 31.3748 15.75 31.2587 15.9196 31.223C16.0893 31.2051 16.25 31.2766 16.2679 31.3926C16.2946 31.5087 16.1786 31.6248 16 31.6605ZM15.1518 31.5801C15.1518 31.6962 15.0179 31.7944 14.8393 31.7944C14.6429 31.8123 14.5089 31.7141 14.5089 31.5801C14.5089 31.4641 14.6429 31.3659 14.8214 31.3659C14.9911 31.348 15.1518 31.4462 15.1518 31.5801ZM13.9286 31.4819C13.8929 31.598 13.7143 31.6516 13.5625 31.598C13.3929 31.5623 13.2768 31.4284 13.3125 31.3123C13.3482 31.1962 13.5268 31.1426 13.6786 31.1784C13.8571 31.2319 13.9732 31.3659 13.9286 31.4819ZM12.8304 30.9998C12.75 31.098 12.5804 31.0801 12.4464 30.9462C12.3125 30.8301 12.2768 30.6605 12.3661 30.5801C12.4464 30.4819 12.6161 30.4998 12.75 30.6337C12.8661 30.7498 12.9107 30.9284 12.8304 30.9998ZM12.0179 30.1873C11.9375 30.2409 11.7857 30.1873 11.6875 30.0534C11.5893 29.9194 11.5893 29.7676 11.6875 29.7051C11.7857 29.6248 11.9375 29.6873 12.0179 29.8212C12.1161 29.9551 12.1161 30.1159 12.0179 30.1873V30.1873ZM11.4375 29.3212C11.3571 29.4016 11.2232 29.3569 11.125 29.2676C11.0268 29.1516 11.0089 29.0176 11.0893 28.9551C11.1696 28.8748 11.3036 28.9194 11.4018 29.0087C11.5 29.1248 11.5179 29.2587 11.4375 29.3212ZM10.8393 28.6605C10.8036 28.7409 10.6875 28.7587 10.5893 28.6962C10.4732 28.6426 10.4196 28.5444 10.4554 28.4641C10.4911 28.4105 10.5893 28.3837 10.7054 28.4284C10.8214 28.4909 10.875 28.5891 10.8393 28.6605Z" fill="#111111"/>
</svg>
