<svg width="40" height="48" viewBox="0 0 40 48" fill="none" xmlns="http://www.w3.org/2000/svg">
<g clip-path="url(#clip0_977_2552)">
<path d="M33.8016 43.1545V30.4653H38.013V47.3661H0V30.4653H4.21156V43.1545H33.8016Z" fill="#BCBBBB"/>
<path d="M8.85969 29.2619L29.5344 33.5828L30.4094 29.4259L9.735 25.105L8.85984 29.2619H8.85969ZM11.5944 19.4167L30.7377 28.332L32.488 24.5034L13.3447 15.5334L11.5944 19.4167V19.4167ZM16.8998 10.0092L33.1442 23.5189L35.8242 20.2919L19.5798 6.78219L16.8998 10.0092V10.0092ZM27.4014 0L24.01 2.51594L36.5898 19.4714L39.9809 16.9555L27.4014 0ZM8.42188 38.8881H29.5342V34.6766H8.42203V38.8881H8.42188Z" fill="#F48023"/>
</g>
<defs>
<clipPath id="clip0_977_2552">
<rect width="40" height="47.5" fill="white"/>
</clipPath>
</defs>
</svg>
