<svg width="20" height="20" viewBox="0 0 20 20" fill="none" xmlns="http://www.w3.org/2000/svg">
<circle cx="10" cy="10" r="10" fill="#908E9F"/>
<g clip-path="url(#clip0_2576_69399)">
<path d="M15.9906 7.52803C15.9625 6.89041 15.8594 6.45209 15.7117 6.07223C15.5593 5.66905 15.3249 5.30809 15.0178 5.00801C14.7177 4.70326 14.3543 4.46645 13.9558 4.31647C13.5738 4.16878 13.1377 4.06564 12.5001 4.03755C11.8578 4.00703 11.6538 4 10.0246 4C8.39539 4 8.19146 4.00703 7.55147 4.03516C6.91387 4.06329 6.47553 4.16649 6.09579 4.31408C5.69249 4.46645 5.33153 4.70087 5.03145 5.00801C4.7267 5.30807 4.49001 5.67142 4.33991 6.06994C4.19222 6.45209 4.0891 6.88806 4.06099 7.52564C4.03049 8.16802 4.02344 8.37195 4.02344 10.0012C4.02344 11.6304 4.03049 11.8343 4.0586 12.4743C4.08673 13.1119 4.18992 13.5503 4.33763 13.9301C4.49001 14.3333 4.7267 14.6943 5.03145 14.9943C5.33153 15.2991 5.69488 15.5359 6.0934 15.6859C6.4755 15.8336 6.91148 15.9367 7.5492 15.9648C8.18907 15.993 8.39311 16 10.0223 16C11.6516 16 11.8555 15.993 12.4955 15.9648C13.1331 15.9367 13.5714 15.8336 13.9512 15.6859C14.35 15.5317 14.7122 15.2958 15.0146 14.9935C15.3169 14.6911 15.5528 14.3289 15.707 13.9301C15.8546 13.548 15.9578 13.1119 15.986 12.4743C16.0141 11.8343 16.0211 11.6304 16.0211 10.0012C16.0211 8.37195 16.0187 8.168 15.9906 7.52803ZM14.91 12.4274C14.8842 13.0135 14.7857 13.3299 14.7037 13.5409C14.502 14.0637 14.0871 14.4786 13.5644 14.6803C13.3534 14.7623 13.0346 14.8607 12.4509 14.8865C11.8179 14.9147 11.6281 14.9216 10.027 14.9216C8.42588 14.9216 8.23368 14.9147 7.60302 14.8865C7.01697 14.8607 6.7005 14.7623 6.48952 14.6803C6.22938 14.5841 5.9926 14.4317 5.80037 14.2325C5.60111 14.0379 5.44874 13.8035 5.35258 13.5433C5.27053 13.3323 5.1721 13.0135 5.14638 12.4298C5.11816 11.7969 5.11122 11.607 5.11122 10.0058C5.11122 8.40472 5.11816 8.21252 5.14638 7.58197C5.1721 6.99592 5.27053 6.67945 5.35258 6.46847C5.44874 6.20822 5.60111 5.97148 5.80276 5.77921C5.99724 5.57995 6.23166 5.42758 6.49191 5.33153C6.70289 5.24949 7.02175 5.15103 7.60541 5.12522C8.23835 5.09709 8.42828 5.09006 10.0293 5.09006C11.6328 5.09006 11.8226 5.09709 12.4533 5.12522C13.0393 5.15105 13.3558 5.24946 13.5668 5.33151C13.8269 5.42758 14.0637 5.57995 14.2559 5.77921C14.4552 5.9738 14.6075 6.20822 14.7037 6.46847C14.7857 6.67945 14.8842 6.99819 14.91 7.58197C14.9381 8.21491 14.9452 8.40472 14.9452 10.0058C14.9452 11.607 14.9381 11.7945 14.91 12.4274Z" fill="black"/>
<path d="M10.0279 6.91855C8.3261 6.91855 6.94531 8.29924 6.94531 10.0012C6.94531 11.7031 8.3261 13.0838 10.0279 13.0838C11.7298 13.0838 13.1106 11.7031 13.1106 10.0012C13.1106 8.29924 11.7298 6.91855 10.0279 6.91855ZM10.0279 12.0008C8.92387 12.0008 8.02829 11.1054 8.02829 10.0012C8.02829 8.89702 8.92387 8.00157 10.0279 8.00157C11.1321 8.00157 12.0276 8.89702 12.0276 10.0012C12.0276 11.1054 11.1321 12.0008 10.0279 12.0008ZM13.9522 6.79665C13.9522 7.19409 13.6299 7.51632 13.2324 7.51632C12.835 7.51632 12.5128 7.19409 12.5128 6.79665C12.5128 6.39917 12.835 6.07703 13.2325 6.07703C13.6299 6.07703 13.9522 6.39914 13.9522 6.79665Z" fill="black"/>
</g>
<defs>
<clipPath id="clip0_2576_69399">
<rect width="12" height="12" fill="white" transform="translate(4 4)"/>
</clipPath>
</defs>
</svg>
