<svg width="20" height="20" viewBox="0 0 20 20" fill="none" xmlns="http://www.w3.org/2000/svg">
<circle cx="10" cy="10" r="10" fill="#908E9F"/>
<g clip-path="url(#clip0_2576_69387)">
<path d="M14.9917 14.9994V14.999H14.9942V11.3315C14.9942 9.53736 14.6079 8.15527 12.5104 8.15527C11.5021 8.15527 10.8254 8.70861 10.5492 9.23319H10.52V8.32277H8.53125V14.999H10.6021V11.6932C10.6021 10.8228 10.7671 9.98111 11.845 9.98111C12.9071 9.98111 12.9229 10.9744 12.9229 11.749V14.9994H14.9917Z" fill="#020013"/>
<path d="M5.16406 8.32324H7.2374V14.9995H5.16406V8.32324Z" fill="#020013"/>
<path d="M6.20083 5C5.53792 5 5 5.53792 5 6.20083C5 6.86375 5.53792 7.41292 6.20083 7.41292C6.86375 7.41292 7.40167 6.86375 7.40167 6.20083C7.40125 5.53792 6.86333 5 6.20083 5V5Z" fill="#020013"/>
</g>
<defs>
<clipPath id="clip0_2576_69387">
<rect width="10" height="10" fill="white" transform="translate(5 5)"/>
</clipPath>
</defs>
</svg>
