<svg width="20" height="20" viewBox="0 0 20 20" fill="none" xmlns="http://www.w3.org/2000/svg">
<circle cx="10" cy="10" r="10" fill="#908E9F"/>
<path d="M7.90523 14.5053C12.1507 14.5053 14.4724 10.988 14.4724 7.93806C14.4724 7.83817 14.4704 7.73868 14.4659 7.63975C14.9165 7.31392 15.3082 6.90732 15.6172 6.44451C15.2037 6.62841 14.7586 6.75204 14.2918 6.80797C14.7683 6.52211 15.1341 6.07011 15.3067 5.53127C14.8607 5.79567 14.3668 5.98775 13.8411 6.0915C13.4199 5.64287 12.8202 5.3623 12.1562 5.3623C10.8816 5.3623 9.84791 6.39594 9.84791 7.67009C9.84791 7.85131 9.8682 8.02743 9.90776 8.1964C7.98944 8.09988 6.28832 7.18148 5.15005 5.78487C4.95191 6.1259 4.83756 6.52218 4.83756 6.94502C4.83756 7.7457 5.24506 8.45275 5.86466 8.86623C5.48599 8.8546 5.1303 8.75065 4.81933 8.57762C4.81899 8.58732 4.81899 8.59674 4.81899 8.60706C4.81899 9.72491 5.61458 10.6582 6.67085 10.8697C6.47683 10.9225 6.27271 10.9509 6.06218 10.9509C5.91372 10.9509 5.76896 10.9363 5.62834 10.9093C5.92218 11.8264 6.77432 12.4937 7.78456 12.5124C6.99454 13.1316 5.99937 13.5004 4.91778 13.5004C4.73175 13.5004 4.54785 13.4898 4.36719 13.4685C5.38871 14.1232 6.6017 14.5053 7.9053 14.5053" fill="#020013"/>
</svg>
