<svg width="800" height="200" viewBox="0 0 800 200" fill="none" xmlns="http://www.w3.org/2000/svg">
<path fillRule="evenodd" clip-rule="evenodd" d="M691.048 94.1524L673.085 92.2009C662.405 91.2251 659.977 88.2978 659.977 84.8825C659.977 80.9794 665.318 77.5641 675.998 77.5641C686.193 77.5641 691.534 81.4673 692.505 86.8341H711.439C710.468 70.7336 696.874 60.4879 676.969 60.4879C653.18 60.4879 641.529 69.7578 641.529 86.3462C641.529 100.007 649.296 106.35 665.803 107.813L683.766 109.765C690.563 110.741 693.961 113.18 693.961 116.595C693.961 120.499 689.592 123.914 678.426 123.914C665.803 123.914 660.463 120.499 659.492 114.156H640.558C641.529 131.72 652.695 140.99 677.455 140.99C699.787 140.99 712.41 131.232 712.41 116.108C712.41 103.422 705.127 95.6161 691.048 94.1524ZM275.959 123.914C286.639 123.914 292.465 120.011 292.465 109.765V61.9516H311.885V111.717C311.885 134.16 292.465 140.99 275.959 140.99C259.452 140.99 239.547 134.16 239.547 111.717V61.9516H258.967V109.765C258.967 119.523 265.763 123.914 275.959 123.914ZM7.48549 139.526L75.9389 96.5919H111.379C111.865 96.5919 111.865 96.5919 112.35 96.5919C112.836 96.5919 112.836 97.0798 112.836 97.0798L113.321 97.5677C113.321 98.0556 113.321 98.0556 113.321 98.5435C113.321 99.0314 113.321 99.0314 113.321 99.5193C113.321 100.007 112.836 100.007 112.35 100.007L78.8518 120.499C76.4243 121.962 75.9389 124.402 75.9389 126.353V139.039H118.662V64.8789C118.662 64.391 118.662 64.391 118.662 63.9032C118.662 63.4153 118.176 63.4153 118.176 62.9274C117.691 62.4395 117.691 62.4395 117.205 62.4395C116.72 62.4395 116.72 62.4395 116.234 62.4395H75.4534L7 105.374V139.526H7.48549V139.526ZM570.162 139.526H631.819V122.938H589.582V108.789H623.566V92.2009H589.582V79.0278H631.819V62.4395H570.162V139.526ZM152.645 139.526L182.26 62.4395H207.02L236.634 139.526H215.759L210.904 124.89H177.891L172.55 139.526H152.645ZM194.883 78.5399L184.202 108.789H205.563L194.883 78.5399ZM320.623 79.0278H345.383V139.526H364.802V79.0278H389.562V62.4395H320.623V79.0278ZM793 62.4395H769.697L742.024 93.6646V62.4395H722.605V139.526H742.024V110.253L768.24 139.526H793L757.56 101.471L793 62.4395ZM488.116 62.4395H524.041C551.714 62.4395 558.996 73.1731 558.996 100.495C558.996 129.281 551.229 139.526 524.041 139.526H488.116V62.4395V62.4395ZM508.02 122.938H523.556C535.208 122.938 539.577 117.083 539.577 100.495C539.577 82.4431 536.179 79.0278 523.556 79.0278H508.02V122.938ZM392.96 100.495C392.96 77.0762 407.525 60 435.198 60C463.356 60 477.435 77.0762 477.435 100.495C477.435 123.914 462.87 140.99 435.198 140.99C407.525 141.478 392.96 123.914 392.96 100.495ZM412.865 100.495C412.865 115.132 420.633 123.914 435.198 123.914C449.762 123.914 457.53 115.132 457.53 100.495C457.53 86.3462 449.762 77.5641 435.198 77.5641C420.633 77.5641 412.865 86.3462 412.865 100.495Z" fill="#1D1D1B"/>
</svg>
