<svg width="158" height="40" viewBox="0 0 158 40" fill="none" xmlns="http://www.w3.org/2000/svg">
<g clip-path="url(#clip0_6450_30069)">
<path d="M84.7109 13.5295C80.2236 13.5295 77.8993 16.2898 77.8993 20.007C77.8993 23.7388 80.2236 26.5139 84.7109 26.5139C89.2129 26.5139 91.5372 23.7388 91.5372 20.007C91.5441 16.2898 89.2129 13.5295 84.7109 13.5295ZM123.609 13.5295C119.814 13.5295 117.909 15.0385 117.909 17.7106C117.909 19.8819 119.174 20.9048 121.792 21.1843L124.705 21.4941C125.816 21.6191 126.324 22.0457 126.324 22.605C126.324 23.238 125.581 23.8052 123.794 23.8052C121.727 23.8052 120.895 23.2821 120.755 22.2295H117.732C117.872 25.0708 119.718 26.5213 123.683 26.5213C127.302 26.5213 129.325 24.9309 129.325 22.5386C129.325 20.4557 128.126 19.2045 125.861 18.9469L122.992 18.6231C121.315 18.4392 120.895 18.0193 120.895 17.4524C120.895 16.8194 121.756 16.253 123.44 16.253C125.059 16.253 125.905 16.8569 126.059 17.7622H129.142C128.987 15.1491 126.802 13.5295 123.609 13.5295ZM53.2127 13.8239V21.8179C53.2127 25.3802 56.3901 26.4917 59.0527 26.4917C61.7011 26.4917 64.8641 25.3802 64.8641 21.8179V13.8239H61.7157V21.4572H61.7305C61.7305 23.062 60.7453 23.7093 59.0609 23.7093C57.4278 23.7093 56.361 23.0325 56.361 21.4572V13.8239H53.2127ZM26.797 13.8681L15.7852 20.7129V26.2114H15.8803L26.9217 19.3372H32.6518C32.8286 19.3372 32.9904 19.4767 32.9904 19.6757C32.9904 19.8374 32.9169 19.904 32.8289 19.9553L27.407 23.2084C27.0539 23.4218 26.929 23.8413 26.929 24.1578L26.9211 26.2114H33.8139V14.2952C33.8139 14.0671 33.6375 13.8681 33.3727 13.8681L26.797 13.8681ZM44.0177 13.8681L39.2871 26.2122H42.5387L43.3627 23.9003H48.6443L49.4536 26.2122H52.8151L48.0262 13.8681L44.0177 13.8681ZM66.3062 13.8681V16.5399H70.2859V26.2122H73.4268V16.5399H77.3918V13.8681L66.3062 13.8681ZM93.2508 13.8681V26.2122H99.0186C103.44 26.2122 104.66 24.5629 104.66 19.9479C104.66 15.6125 103.491 13.8681 99.0186 13.8681H93.2508ZM106.419 13.8681V26.2122H116.349V23.5396H109.567V21.3023H115.025V18.6231H109.567V16.5399H116.349V13.8681L106.419 13.8681ZM130.928 13.8681L130.943 26.2122H134.077V21.5236L138.329 26.2122H142.309L136.571 20.1176L142.309 13.8681H138.565L134.077 18.8805V13.8681L130.928 13.8681ZM84.7109 16.3046C87.0574 16.3046 88.3158 17.7397 88.3158 20.007C88.3227 22.3256 87.0574 23.7388 84.7109 23.7388C82.3862 23.7388 81.1066 22.318 81.1066 20.007C81.1066 17.7397 82.3862 16.3046 84.7109 16.3046ZM46.0256 16.4374L47.7245 21.2728H44.2966L46.0256 16.4374ZM96.3925 16.5399H98.8932C100.865 16.5399 101.453 17.0772 101.453 19.9479C101.453 22.5683 100.791 23.5396 98.8932 23.5396H96.3925V16.5399Z" fill="#C3C2CB"/>
</g>
<defs>
<clipPath id="clip0_6450_30069">
<rect width="127.273" height="14" fill="white" transform="translate(15.3418 13)"/>
</clipPath>
</defs>
</svg>






