<svg width="85" height="28" viewBox="0 0 85 28" fill="none" xmlns="http://www.w3.org/2000/svg">
<g clip-path="url(#clip0_3382_3248)">
<path d="M82.3528 17.0455L84.7109 18.6175C83.9456 19.7447 82.1151 21.6788 78.9504 21.6788C75.0204 21.6788 72.0938 18.6382 72.0938 14.7702C72.0938 10.6542 75.0515 7.86182 78.6195 7.86182C82.2081 7.86182 83.9662 10.7161 84.5351 12.2571L84.8454 13.0432L75.5997 16.8697C76.3029 18.2556 77.3993 18.9588 78.9504 18.9588C80.5018 18.9588 81.5772 18.1935 82.3528 17.0455ZM75.1033 14.5532L81.2774 11.9883C80.9361 11.13 79.9227 10.5199 78.7125 10.5199C77.1717 10.5199 75.0309 11.885 75.1033 14.5532Z" fill="#FF302F"/>
<path d="M67.6367 0.818525H70.615V21.0475H67.6367V0.818359V0.818525Z" fill="#20B15A"/>
<path d="M62.941 8.39909H65.816V20.6854C65.816 25.7839 62.8065 27.8833 59.2488 27.8833C55.8981 27.8833 53.8815 25.6289 53.1265 23.7984L55.7636 22.702C56.2393 23.8292 57.3873 25.1635 59.2488 25.1635C61.5343 25.1635 62.941 23.7466 62.941 21.0991V20.1063H62.8376C62.1549 20.9336 60.8518 21.6782 59.1972 21.6782C55.7429 21.6782 52.5781 18.6687 52.5781 14.7905C52.5781 10.8915 55.7429 7.85107 59.1972 7.85107C60.8416 7.85107 62.1549 8.58536 62.8376 9.39203H62.941V8.39926V8.39909ZM63.1477 14.7905C63.1477 12.3498 61.524 10.5709 59.4557 10.5709C57.3665 10.5709 55.6084 12.3498 55.6084 14.7905C55.6084 17.2001 57.3665 18.9479 59.4557 18.9479C61.5242 18.9583 63.1478 17.2001 63.1478 14.7905H63.1477Z" fill="#3686F7"/>
<path d="M36.227 14.7385C36.227 18.7202 33.1245 21.6469 29.3186 21.6469C25.5128 21.6469 22.4102 18.71 22.4102 14.7385C22.4102 10.7362 25.5128 7.81982 29.3186 7.81982C33.1245 7.81982 36.227 10.7362 36.227 14.7385ZM33.2071 14.7385C33.2071 12.2566 31.4075 10.55 29.3186 10.55C27.2296 10.55 25.43 12.2566 25.43 14.7385C25.43 17.1999 27.2296 18.9271 29.3186 18.9271C31.4077 18.9271 33.2071 17.1999 33.2071 14.7385Z" fill="#FF302F"/>
<path d="M51.3168 14.7702C51.3168 18.7519 48.2142 21.6786 44.4084 21.6786C40.6025 21.6786 37.5 18.7518 37.5 14.7702C37.5 10.7679 40.6025 7.86182 44.4084 7.86182C48.2142 7.86182 51.3168 10.7576 51.3168 14.7702ZM48.2865 14.7702C48.2865 12.2883 46.4871 10.5817 44.3979 10.5817C42.309 10.5817 40.5094 12.2883 40.5094 14.7702C40.5094 17.2316 42.309 18.9588 44.3979 18.9588C46.4974 18.9588 48.2865 17.2213 48.2865 14.7702Z" fill="#FFBA40"/>
<path d="M11.0545 18.6483C6.72117 18.6483 3.32914 15.1527 3.32914 10.8194C3.32914 6.4862 6.72117 2.99058 11.0545 2.99058C13.3918 2.99058 15.0982 3.91097 16.3599 5.09001L18.4387 3.01133C16.6806 1.32561 14.333 0.0429688 11.0545 0.0429688C5.11829 0.0431348 0.123047 4.88332 0.123047 10.8194C0.123047 16.7558 5.11829 21.5958 11.0545 21.5958C14.2606 21.5958 16.6806 20.5409 18.5732 18.576C20.5174 16.6316 21.1172 13.9013 21.1172 11.6881C21.1172 10.9952 21.0345 10.2817 20.9414 9.75422H11.0545V12.6293H18.0974C17.8905 14.4289 17.3218 15.6596 16.4841 16.4971C15.4705 17.5211 13.8676 18.6483 11.0545 18.6483Z" fill="#3686F7"/>
</g>
<defs>
<clipPath id="clip0_3382_3248">
<rect width="85" height="27.8906" fill="white"/>
</clipPath>
</defs>
</svg>
