<svg width="800" height="200" viewBox="0 0 800 200" fill="none" xmlns="http://www.w3.org/2000/svg">
<path fillRule="evenodd" clip-rule="evenodd" d="M712.57 189.296C710.478 189.281 708.475 188.449 706.996 186.98C705.516 185.511 704.678 183.522 704.662 181.445C704.786 179.442 705.675 177.562 707.147 176.187C708.619 174.812 710.564 174.047 712.585 174.047C714.606 174.047 716.551 174.812 718.023 176.187C719.495 177.562 720.384 179.442 720.508 181.445C720.5 183.53 719.66 185.527 718.173 186.999C716.685 188.47 714.67 189.296 712.57 189.296V189.296ZM712.57 172.112C711.335 172.108 710.111 172.347 708.968 172.814C707.826 173.282 706.788 173.969 705.915 174.837C705.041 175.704 704.349 176.735 703.878 177.869C703.407 179.003 703.166 180.218 703.17 181.445C703.17 186.6 707.378 190.63 712.57 190.63C717.792 190.63 722 186.6 722 181.445C722 176.29 717.792 172.142 712.57 172.142V172.112ZM710.78 180.734V177.771H712.57C713.525 177.771 714.659 178.067 714.659 179.193C714.659 180.467 713.406 180.734 712.332 180.734H710.78ZM716.539 179.223C716.539 176.971 714.599 176.141 712.63 176.141H708.93V186.63H710.81V182.245H712.182L714.659 186.63H716.957L714.092 182.037C715.584 181.741 716.539 180.734 716.539 179.223ZM657.275 46.2207C659.802 46.2207 662.305 45.7264 664.64 44.766C666.976 43.8056 669.097 42.398 670.885 40.6234C672.672 38.8488 674.09 36.7421 675.057 34.4236C676.024 32.105 676.522 29.62 676.522 27.1103C676.522 24.6007 676.024 22.1157 675.057 19.7971C674.09 17.4786 672.672 15.3718 670.885 13.5973C669.097 11.8227 666.976 10.4151 664.64 9.45469C662.305 8.4943 659.802 8 657.275 8C652.17 8 647.274 10.0134 643.665 13.5973C640.055 17.1812 638.027 22.042 638.027 27.1103C638.027 32.1787 640.055 37.0395 643.665 40.6234C647.274 44.2073 652.17 46.2207 657.275 46.2207V46.2207ZM605.65 62.7237V90.7522H641.34V189.326H673.21V90.7522H708.9V62.7534L605.65 62.7237ZM327.68 46.2207C330.208 46.2207 332.711 45.7264 335.046 44.766C337.381 43.8056 339.503 42.398 341.29 40.6234C343.078 38.8488 344.495 36.7421 345.463 34.4236C346.43 32.105 346.928 29.62 346.928 27.1103C346.928 24.6007 346.43 22.1157 345.463 19.7971C344.495 17.4786 343.078 15.3718 341.29 13.5973C339.503 11.8227 337.381 10.4151 335.046 9.45469C332.711 8.4943 330.208 8 327.68 8C322.575 8 317.68 10.0134 314.07 13.5973C310.461 17.1812 308.433 22.042 308.433 27.1103C308.433 32.1787 310.461 37.0395 314.07 40.6234C317.68 44.2073 322.575 46.2207 327.68 46.2207V46.2207ZM276.085 90.7522H311.805V189.326H343.645V90.7522H379.365V62.7534H276.085V90.7819V90.7522ZM551.488 189.326H583.358V62.8126H551.488V189.326ZM487.031 132.38C487.031 149.268 477.452 166.66 457.28 166.66C436.839 166.66 433.407 147.935 433.407 132.914V62.8126H401.537V141.861C401.537 167.727 415.353 193 448.536 193C467.366 193 482.496 181.682 488.076 169.001H488.613V189.326H518.872V62.8126H487.031V132.38ZM212.822 59.1091C193.962 59.1091 178.833 70.4568 173.253 83.1081H172.716V62.8126H142.487V189.326H174.357V119.729C174.357 102.841 183.906 85.4784 204.078 85.4784C224.52 85.4784 227.951 104.174 227.951 119.225V189.326H259.822V110.218C259.822 84.4118 246.035 59.1091 212.852 59.1091H212.822ZM78 189.326H109.87V62.8126H78V189.326Z" fill="#0077C5"/>
</svg>
