<svg width="119" height="48" viewBox="0 0 119 48" fill="none" xmlns="http://www.w3.org/2000/svg">
<path d="M73.3215 16.7517C71.3864 18.5396 71.5315 22.4296 73.6359 25.0631C74.5309 26.1987 76.5386 27.2618 77.748 27.2618C78.3527 27.2618 78.5221 27.1893 78.2802 27.0443C78.0141 26.8752 78.0383 26.8027 78.4495 26.7302C78.9333 26.6578 78.8607 26.4161 77.0949 22.4779C76.0548 20.2067 75.1356 18.3947 75.0631 18.4671C74.9905 18.5396 74.9421 18.443 74.9421 18.2739C74.9905 17.8631 74.3374 16.1477 74.1197 16.1477C74.0471 16.1477 73.6843 16.4135 73.3215 16.7517Z" fill="#908E9F"/>
<path opacity="0.7" d="M77.8522 15.8559C75.347 16.675 73.8552 20.2711 74.6686 23.5413C75.008 24.9462 76.3891 26.7486 77.4884 27.2523C78.038 27.5042 78.2222 27.5088 78.0628 27.2763C77.8916 27.0118 77.9438 26.956 78.3478 27.0613C78.8178 27.1969 78.8527 26.9471 78.8917 22.6321C78.8944 20.1346 78.8154 18.1048 78.7191 18.1404C78.6229 18.1761 78.6193 18.0681 78.6899 17.9144C78.9053 17.5612 79.0278 15.73 78.8299 15.6393C78.764 15.6091 78.3232 15.6996 77.8522 15.8559Z" fill="#908E9F"/>
<path d="M49.3512 17.4282C49.2786 17.5974 49.2544 21.1007 49.2786 25.2081L49.3512 32.698H50.3187H51.2863L51.4072 30.2819L51.5282 27.8658L52.2538 27.7933C52.9311 27.745 53.1246 27.9383 54.7453 30.2819L56.5111 32.8188H57.5754C58.1559 32.8188 58.7122 32.698 58.7848 32.5772C58.8574 32.4323 58.1075 31.1759 57.0916 29.7746C56.0757 28.3732 55.2049 27.0927 55.1323 26.9235C55.0839 26.7786 55.8338 25.498 56.8255 24.1209C57.8172 22.7195 58.5429 21.4873 58.4462 21.3907C58.3252 21.2699 57.7689 21.2215 57.1883 21.2699C56.1724 21.3423 56.0998 21.3907 54.6001 23.5168C53.2214 25.4739 53.0037 25.6913 52.3022 25.6913H51.5282L51.4556 21.3907L51.4072 17.1141H50.4155C49.8591 17.1141 49.3995 17.235 49.3512 17.4282Z" fill="#908E9F"/>
<path d="M22.6484 21.2215C20.81 21.6805 19.6006 23.2993 19.8425 24.9664C20.0843 26.5852 21.0277 27.2859 23.5917 27.7449C25.7929 28.1315 26.4944 28.5423 26.4944 29.4362C26.4944 31.2725 22.9144 31.6349 22.0194 29.9194C21.6808 29.2671 21.5115 29.1946 20.5439 29.1946C19.3587 29.1946 19.3587 29.1705 19.9634 30.7651C20.4956 32.1423 22.6484 33.0845 24.9221 32.8913C27.2926 32.6738 28.7681 31.2725 28.7197 29.2671C28.6956 27.31 27.728 26.5127 24.6076 25.9087C21.9469 25.4013 21.1728 24.4832 22.5274 23.4201C23.6643 22.5262 26.0106 22.9611 26.3734 24.1208C26.4944 24.5074 26.7363 24.604 27.4861 24.604C28.3085 24.604 28.4295 24.5315 28.4295 24.0483C28.4295 23.2268 27.6071 22.0671 26.7121 21.6322C25.672 21.149 23.7127 20.9557 22.6484 21.2215Z" fill="#908E9F"/>
<path d="M37.2569 21.1973C33.6286 22.1395 31.7661 26.1744 33.3625 29.557C34.4268 31.804 36.1684 32.8671 38.7324 32.8671C40.6917 32.8429 42.1431 32.1181 43.3767 30.5476C44.1749 29.5087 44.0782 29.1946 42.9171 29.1946C42.1431 29.1946 41.7319 29.3637 41.1029 29.9194C39.7726 31.0791 37.6439 31.1758 36.3378 30.161C35.7088 29.6536 34.9106 28.2523 35.1041 27.9382C35.1767 27.8416 37.2811 27.7449 39.8209 27.7449H44.3926V26.8268C44.3926 24.7006 42.9171 22.3087 41.1271 21.5597C40.1112 21.1489 38.1761 20.9557 37.2569 21.1973ZM40.6434 23.6617C41.6351 24.2416 42.4091 25.5463 41.9496 25.8362C41.756 25.957 40.208 26.0295 38.4664 26.0053C34.8622 25.9328 34.6203 25.7637 35.9265 24.2899C37.1118 22.9369 39.0227 22.6711 40.6434 23.6617Z" fill="#908E9F"/>
<path d="M92.4578 21.3181C89.8938 22.0188 88.3457 24.1691 88.3457 26.9959C88.3457 30.5718 90.5469 32.8188 94.1268 32.8671C95.2879 32.8912 95.9168 32.7704 96.8118 32.3114C97.8519 31.7557 99.5451 29.9919 99.5451 29.412C99.5451 29.2912 99.0371 29.1946 98.3841 29.1946C97.5374 29.1946 97.1746 29.3154 96.9569 29.6295C96.5699 30.2818 95.1669 30.8859 94.1026 30.8859C92.5062 30.8859 90.5953 29.3879 90.5953 28.1315C90.5953 27.7933 91.1516 27.7449 95.1911 27.7449C98.9646 27.7449 99.8354 27.6724 99.9321 27.4067C100.174 26.7785 99.3032 24.0241 98.6018 23.1543C97.223 21.4147 94.7557 20.6657 92.4578 21.3181ZM96.0377 23.6134C96.836 24.0724 97.731 25.4255 97.4891 25.812C97.2956 26.1261 90.9097 26.1503 90.7162 25.812C90.4985 25.4738 91.4902 23.9275 92.1192 23.5892C93.4737 22.8886 94.7315 22.8886 96.0377 23.6134Z" fill="#908E9F"/>
<path d="M63.1153 21.5839C63.0186 21.7772 63.0186 23.6618 63.0669 25.7396C63.1637 29.8712 63.3088 30.4027 64.6392 31.6591C65.5826 32.553 66.5259 32.8671 68.2917 32.8671C70.4687 32.8913 71.8475 32.1181 72.7424 30.4269C73.2504 29.4363 73.4197 28.8081 73.4197 27.7208C73.4197 26.4644 73.323 26.1745 72.5731 25.1839C72.1135 24.5799 71.7265 23.9275 71.7265 23.7342C71.7265 23.541 71.6298 23.396 71.4846 23.396C71.3395 23.396 71.2427 24.3624 71.2186 25.7396C71.2186 28.6148 70.9041 29.6054 69.8156 30.3302C68.7755 31.0309 67.6628 31.0309 66.6227 30.3302C65.4616 29.5571 65.2197 28.6389 65.2197 24.6524L65.1955 21.2215H64.228C63.5749 21.2215 63.1879 21.3423 63.1153 21.5839Z" fill="#908E9F"/>
<path d="M80.991 21.3907C79.8057 21.6081 79.709 22.1397 79.709 27.6725C79.709 30.4994 79.7816 32.8188 79.8541 32.8188C80.3863 32.8188 81.6199 31.949 82.0069 31.2967C82.4181 30.6444 82.5149 29.9195 82.6116 26.7303C82.7326 23.1061 82.7568 22.9128 83.3373 22.3088C83.6759 21.9464 84.1597 21.5598 84.4258 21.4631C84.9338 21.2457 82.0069 21.1974 80.991 21.3907ZM81.6441 22.5504C81.6441 22.7437 81.5473 22.9128 81.4264 22.9128C81.1119 22.9128 80.8942 22.5262 81.0877 22.3329C81.3538 22.0672 81.6441 22.188 81.6441 22.5504Z" fill="#908E9F"/>
</svg>
