<svg xmlns="http://www.w3.org/2000/svg" width="120" height="40" viewBox="0 0 120 40" fill="none">
<g clip-path="url(#clip0_2804_90150)">
<path d="M89.0874 22.2684L90.8049 23.4178C90.2475 24.2421 88.9143 25.6563 86.6092 25.6563C83.7469 25.6563 81.6152 23.433 81.6152 20.6047C81.6152 17.595 83.7695 15.5532 86.3682 15.5532C88.982 15.5532 90.2625 17.6403 90.6769 18.7671L90.9029 19.3419L84.1688 22.1398C84.681 23.1532 85.4795 23.6674 86.6092 23.6674C87.7392 23.6674 88.5225 23.1078 89.0874 22.2684ZM83.8072 20.446L88.3041 18.5705C88.0555 17.9429 87.3175 17.4968 86.436 17.4968C85.3137 17.4968 83.7545 18.495 83.8072 20.446Z" fill="#C3C2CB"/>
<path d="M78.373 10.401H80.5423V25.1926H78.373V10.4009V10.401Z" fill="#C3C2CB"/>
<path d="M74.9443 15.9461H77.0383V24.9299C77.0383 28.658 74.8463 30.1931 72.2551 30.1931C69.8146 30.1931 68.3458 28.5446 67.7959 27.2062L69.7166 26.4045C70.0631 27.2287 70.8992 28.2044 72.2551 28.2044C73.9197 28.2044 74.9443 27.1683 74.9443 25.2325V24.5065H74.8689C74.3717 25.1114 73.4226 25.6559 72.2175 25.6559C69.7015 25.6559 67.3965 23.4553 67.3965 20.6196C67.3965 17.7686 69.7015 15.5454 72.2175 15.5454C73.4151 15.5454 74.3717 16.0823 74.8689 16.6722H74.9443V15.9462V15.9461ZM75.0948 20.6196C75.0948 18.8349 73.9122 17.5342 72.4057 17.5342C70.8841 17.5342 69.6036 18.8349 69.6036 20.6196C69.6036 22.3815 70.8841 23.6595 72.4057 23.6595C73.9124 23.6671 75.0949 22.3815 75.0949 20.6196H75.0948Z" fill="#C3C2CB"/>
<path d="M55.4912 20.581C55.4912 23.4924 53.2315 25.6324 50.4595 25.6324C47.6876 25.6324 45.4277 23.4849 45.4277 20.581C45.4277 17.6545 47.6876 15.522 50.4595 15.522C53.2315 15.522 55.4912 17.6545 55.4912 20.581ZM53.2917 20.581C53.2917 18.7662 51.981 17.5183 50.4595 17.5183C48.938 17.5183 47.6272 18.7662 47.6272 20.581C47.6272 22.3807 48.938 23.6437 50.4595 23.6437C51.9811 23.6437 53.2917 22.3807 53.2917 20.581Z" fill="#C3C2CB"/>
<path d="M66.4912 20.6047C66.4912 23.5161 64.2314 25.6562 61.4595 25.6562C58.6874 25.6562 56.4277 23.516 56.4277 20.6047C56.4277 17.6782 58.6874 15.5532 61.4595 15.5532C64.2314 15.5532 66.4912 17.6707 66.4912 20.6047ZM64.2841 20.6047C64.2841 18.7899 62.9735 17.542 61.4518 17.542C59.9303 17.542 58.6196 18.7899 58.6196 20.6047C58.6196 22.4044 59.9303 23.6674 61.4518 23.6674C62.981 23.6674 64.2841 22.3969 64.2841 20.6047Z" fill="#C3C2CB"/>
<path d="M37.1553 23.4388C33.9991 23.4388 31.5285 20.8828 31.5285 17.7142C31.5285 14.5458 33.9991 11.9898 37.1553 11.9898C38.8577 11.9898 40.1005 12.6628 41.0194 13.5249L42.5336 12.005C41.253 10.7723 39.5432 9.83447 37.1553 9.83447C32.8316 9.83459 29.1934 13.3738 29.1934 17.7142C29.1934 22.055 32.8316 25.594 37.1553 25.594C39.4904 25.594 41.253 24.8227 42.6315 23.3859C44.0476 21.9642 44.4844 19.9677 44.4844 18.3495C44.4844 17.8428 44.4242 17.3211 44.3564 16.9354H37.1553V19.0376H42.285C42.1343 20.3535 41.72 21.2534 41.1099 21.8658C40.3717 22.6146 39.2042 23.4388 37.1553 23.4388Z" fill="#C3C2CB"/>
</g>
<defs>
<clipPath id="clip0_2804_90150">
<rect width="61.9097" height="20.3938" fill="white" transform="translate(29.1074 9.80322)"/>
</clipPath>
</defs>
</svg>