<svg xmlns="http://www.w3.org/2000/svg" width="121" height="40" viewBox="0 0 121 40" fill="none">
<g clip-path="url(#clip0_2804_90123)">
<path d="M33.3052 7.56104C26.4652 7.56104 20.9199 13.1062 20.9199 19.9462C20.9199 26.7865 26.4652 32.3312 33.3052 32.3312C40.1461 32.3312 45.6907 26.7865 45.6907 19.9462C45.6907 13.1066 40.1461 7.56166 33.3051 7.56166L33.3052 7.56104ZM38.9852 25.424C38.9323 25.5106 38.8629 25.586 38.7809 25.6457C38.6989 25.7055 38.6059 25.7485 38.5073 25.7722C38.4086 25.796 38.3063 25.8001 38.2061 25.7842C38.1058 25.7684 38.0097 25.733 37.9232 25.6799C35.0153 23.9037 31.3545 23.5014 27.0433 24.4864C26.8437 24.5318 26.6342 24.4961 26.4609 24.3871C26.2876 24.2781 26.1647 24.1048 26.1191 23.9052C26.0964 23.8064 26.0934 23.7041 26.1103 23.6041C26.1272 23.5041 26.1637 23.4084 26.2176 23.3226C26.2715 23.2367 26.3419 23.1623 26.4246 23.1037C26.5073 23.045 26.6008 23.0033 26.6997 22.9808C31.4176 21.9029 35.4645 22.367 38.7293 24.3622C38.8158 24.4151 38.8911 24.4845 38.9508 24.5665C39.0105 24.6486 39.0535 24.7415 39.0773 24.8402C39.101 24.9388 39.1051 25.0411 39.0893 25.1413C39.0734 25.2416 39.038 25.3377 38.985 25.4242L38.9852 25.424ZM40.5012 22.0517C40.2215 22.506 39.627 22.6495 39.1729 22.3699C35.8439 20.3237 30.7689 19.731 26.8312 20.9264C26.5861 21.0006 26.3216 20.9745 26.0957 20.8539C25.8698 20.7333 25.7009 20.5279 25.6262 20.283C25.5523 20.0379 25.5786 19.7735 25.6993 19.5478C25.82 19.3221 26.0252 19.1534 26.2701 19.0787C30.7682 17.7139 36.3599 18.375 40.1831 20.7243C40.6371 21.0038 40.7806 21.5984 40.501 22.0518L40.5012 22.0517ZM40.6312 18.54C36.6397 16.1691 30.0535 15.9511 26.2424 17.1079C25.6304 17.2936 24.9833 16.9481 24.7979 16.3361C24.7088 16.0421 24.74 15.7247 24.8848 15.4537C25.0295 15.1828 25.276 14.9803 25.5699 14.891C29.9449 13.5628 37.2178 13.8194 41.8135 16.5477C41.9445 16.6252 42.0589 16.7278 42.1502 16.8495C42.2414 16.9713 42.3078 17.1099 42.3454 17.2573C42.3831 17.4048 42.3913 17.5582 42.3695 17.7088C42.3478 17.8595 42.2965 18.0043 42.2187 18.1351C41.8934 18.6855 41.1805 18.867 40.6318 18.5401H40.6312V18.54ZM54.6163 18.9943C52.4777 18.4843 52.0977 18.1265 52.0977 17.3744C52.0977 16.6639 52.7662 16.1857 53.7614 16.1857C54.7258 16.1857 55.6812 16.549 56.684 17.2964C56.7135 17.3189 56.7519 17.328 56.7889 17.322C56.8075 17.3194 56.8254 17.313 56.8415 17.3031C56.8575 17.2933 56.8714 17.2803 56.8822 17.265L57.9263 15.7931C57.9469 15.764 57.9557 15.728 57.9507 15.6926C57.9458 15.6573 57.9276 15.6251 57.8997 15.6027C56.7062 14.6453 55.3633 14.18 53.7925 14.18C51.4839 14.18 49.8704 15.5655 49.8704 17.5481C49.8704 19.6741 51.262 20.427 53.6669 21.008C55.7123 21.4793 56.0583 21.8741 56.0583 22.58C56.0583 23.3624 55.3601 23.8489 54.2363 23.8489C52.988 23.8489 51.969 23.4276 50.8302 22.4424C50.8018 22.4184 50.7653 22.4063 50.7282 22.4085C50.7097 22.4098 50.6917 22.4147 50.6751 22.4231C50.6586 22.4314 50.6439 22.443 50.6319 22.4572L49.4607 23.8503C49.4371 23.8783 49.4254 23.9142 49.4279 23.9507C49.4304 23.9871 49.4469 24.0211 49.474 24.0456C50.7991 25.2289 52.4289 25.853 54.1889 25.853C56.6767 25.853 58.2842 24.4937 58.2842 22.3892C58.2886 20.6134 57.2254 19.6299 54.6208 18.9963L54.6163 18.9943V18.9943ZM63.9132 16.8853C62.835 16.8853 61.9506 17.3101 61.22 18.1805V17.2009C61.22 17.1235 61.1578 17.0605 61.081 17.0605H59.1657C59.1287 17.0607 59.0933 17.0756 59.0672 17.1019C59.0411 17.1282 59.0266 17.1637 59.0267 17.2008V28.0863C59.0267 28.1631 59.0889 28.2267 59.1657 28.2267H61.081C61.118 28.2264 61.1534 28.2115 61.1795 28.1851C61.2055 28.1588 61.2201 28.1233 61.22 28.0863V24.6505C61.9506 25.4683 62.835 25.8692 63.913 25.8692C65.9173 25.8692 67.9464 24.3267 67.9464 21.3778C67.9493 18.4282 65.9201 16.8851 63.9146 16.8851L63.913 16.8853H63.9132ZM65.719 21.3778C65.719 22.8787 64.7946 23.9273 63.4694 23.9273C62.1605 23.9273 61.1726 22.8314 61.1726 21.3778C61.1726 19.924 62.1605 18.8283 63.4694 18.8283C64.7724 18.8283 65.719 19.9 65.719 21.3776V21.3778ZM73.1449 16.8853C70.5641 16.8853 68.5423 18.8724 68.5423 21.41C68.5423 23.92 70.5508 25.8855 73.1138 25.8855C75.7035 25.8855 77.7312 23.9052 77.7312 21.3778C77.7312 18.8589 75.7168 16.8858 73.1449 16.8858V16.8853V16.8853ZM73.1449 23.9421C71.7724 23.9421 70.7372 22.8387 70.7372 21.377C70.7372 19.9086 71.737 18.8429 73.1138 18.8429C74.4952 18.8429 75.5363 19.9457 75.5363 21.409C75.5363 22.8773 74.5306 23.9421 73.1449 23.9421ZM83.2418 17.0605H81.1343V14.9062C81.1343 14.829 81.0721 14.766 80.9953 14.766H79.0799C79.0427 14.7661 79.007 14.7809 78.9807 14.8071C78.9543 14.8334 78.9395 14.869 78.9393 14.9062V17.0605H78.0194C77.9824 17.0607 77.947 17.0756 77.9209 17.1019C77.8949 17.1282 77.8803 17.1637 77.8804 17.2008V18.8464C77.8803 18.8835 77.8949 18.919 77.9209 18.9454C77.947 18.9717 77.9824 18.9866 78.0194 18.9868H78.9393V23.2456C78.9393 24.9656 79.7957 25.8382 81.4862 25.8382C82.1723 25.8382 82.7417 25.6961 83.2786 25.3915C83.3003 25.3796 83.3184 25.3621 83.3309 25.3407C83.3434 25.3193 83.3499 25.295 83.3497 25.2702V23.7025C83.3496 23.6787 83.3434 23.6554 83.3318 23.6347C83.3201 23.614 83.3034 23.5967 83.2831 23.5843C83.263 23.5714 83.2398 23.564 83.2158 23.5629C83.1919 23.5619 83.1682 23.5671 83.1469 23.5782C82.7787 23.7633 82.4224 23.8489 82.0229 23.8489C81.4092 23.8489 81.1342 23.5694 81.1342 22.9452V18.9878H83.2416C83.2787 18.9876 83.3141 18.9727 83.3402 18.9463C83.3662 18.92 83.3808 18.8844 83.3806 18.8474V17.2017C83.3813 17.1833 83.3782 17.165 83.3715 17.1479C83.3649 17.1308 83.3548 17.1152 83.342 17.1021C83.3291 17.0889 83.3137 17.0786 83.2968 17.0715C83.2798 17.0645 83.2615 17.0611 83.2432 17.0613L83.2416 17.0605H83.2418ZM90.5834 17.0689V16.8043C90.5834 16.0259 90.8821 15.6789 91.5505 15.6789C91.9501 15.6789 92.2709 15.7582 92.6304 15.8779C92.6514 15.885 92.6739 15.8869 92.6958 15.8835C92.7178 15.8802 92.7386 15.8716 92.7566 15.8585C92.7745 15.8455 92.7891 15.8283 92.7991 15.8085C92.809 15.7886 92.8141 15.7667 92.8139 15.7445L92.8137 14.131C92.8141 14.1008 92.8046 14.0714 92.7867 14.0471C92.7689 14.0229 92.7436 14.0051 92.7147 13.9965C92.3361 13.8836 91.8509 13.7679 91.1233 13.7679C89.3558 13.7679 88.4197 14.7638 88.4197 16.6469V17.0521H87.4998C87.4626 17.0522 87.4269 17.067 87.4006 17.0933C87.3743 17.1195 87.3594 17.1552 87.3592 17.1924V18.8464C87.3592 18.9237 87.423 18.9868 87.4998 18.9868H88.4197V25.5542C88.4197 25.6325 88.4834 25.6947 88.5602 25.6947H90.4739C90.5523 25.6947 90.6145 25.6325 90.6145 25.5542V18.9873H92.4026L95.1417 25.5542C94.831 26.2434 94.5249 26.3809 94.1077 26.3809C93.7706 26.3809 93.4142 26.2804 93.0519 26.0808C93.0176 26.0634 92.9779 26.0597 92.9409 26.0704C92.9226 26.0765 92.9058 26.0864 92.8916 26.0994C92.8773 26.1124 92.8659 26.1282 92.858 26.1458L92.2089 27.57C92.1939 27.6024 92.1919 27.6392 92.2031 27.673C92.2144 27.7068 92.2381 27.7351 92.2695 27.752C92.9468 28.1188 93.5576 28.2755 94.3134 28.2755C95.7272 28.2755 96.5096 27.6159 97.1974 25.8441L100.519 17.2606C100.528 17.2394 100.531 17.2164 100.528 17.1936C100.526 17.1708 100.518 17.1491 100.504 17.1303C100.492 17.1115 100.475 17.0962 100.455 17.0855C100.435 17.0749 100.413 17.0693 100.39 17.0694H98.3968C98.3676 17.0692 98.339 17.0782 98.3152 17.0951C98.2913 17.1119 98.2733 17.1358 98.2637 17.1635L96.2212 22.9956L93.985 17.1596C93.975 17.1331 93.9572 17.1103 93.934 17.0942C93.9107 17.0781 93.8831 17.0695 93.8549 17.0694H90.5834V17.0689V17.0689ZM86.327 17.0605H84.4117C84.3745 17.0607 84.3389 17.0755 84.3126 17.1018C84.2863 17.128 84.2715 17.1636 84.2713 17.2008V25.5542C84.2713 25.6325 84.3349 25.6947 84.4117 25.6947H86.327C86.4039 25.6947 86.4675 25.6325 86.4675 25.5542V17.2014C86.4676 17.1829 86.464 17.1646 86.4569 17.1475C86.4499 17.1305 86.4395 17.115 86.4265 17.1019C86.4134 17.0889 86.3979 17.0785 86.3808 17.0715C86.3637 17.0645 86.3454 17.0609 86.327 17.061V17.0605ZM85.3804 13.2567C84.6216 13.2567 84.0065 13.8709 84.0065 14.6293C84.0064 14.8097 84.042 14.9884 84.111 15.1551C84.18 15.3218 84.2812 15.4733 84.4088 15.6008C84.5364 15.7284 84.6879 15.8296 84.8546 15.8987C85.0213 15.9677 85.1999 16.0032 85.3804 16.0032C86.1391 16.0032 86.7528 15.3884 86.7528 14.6293C86.7528 14.2653 86.6081 13.9163 86.3508 13.6589C86.0934 13.4015 85.7443 13.2568 85.3804 13.2567Z" fill="#C3C2CB"/>
</g>
<defs>
<clipPath id="clip0_2804_90123">
<rect width="79.6094" height="24.8779" fill="white" transform="translate(20.9199 7.56104)"/>
</clipPath>
</defs>
</svg>