<svg xmlns="http://www.w3.org/2000/svg" width="121" height="40" viewBox="0 0 121 40" fill="none">
<g clip-path="url(#clip0_2804_90143)">
<path d="M107.23 18.9825V17.3326H105.181V14.7676L105.112 14.7889L103.187 15.3776L103.149 15.3892V17.3328H100.112V16.2503C100.112 15.7462 100.225 15.3602 100.447 15.1029C100.667 14.8487 100.983 14.7194 101.385 14.7194C101.675 14.7194 101.974 14.7876 102.276 14.9222L102.351 14.9557V13.2181L102.316 13.2051C102.035 13.1039 101.652 13.053 101.178 13.053C100.58 13.053 100.037 13.1831 99.5638 13.4408C99.0898 13.6989 98.717 14.0673 98.456 14.536C98.1957 15.0039 98.0638 15.5444 98.0638 16.1425V17.3328H96.637V18.9827H98.0638V25.9336H100.112V18.9825H103.149V23.3998C103.149 25.2191 104.008 26.1412 105.7 26.1412C105.978 26.1412 106.271 26.1084 106.57 26.0447C106.874 25.9792 107.081 25.9138 107.203 25.8438L107.23 25.828V24.1626L107.147 24.2176C107.035 24.292 106.897 24.3524 106.735 24.3973C106.571 24.4431 106.435 24.4662 106.33 24.4662C105.934 24.4662 105.64 24.3593 105.458 24.1485C105.274 23.9359 105.181 23.5638 105.181 23.0433V18.9825H107.23ZM92.0631 24.4665C91.3197 24.4665 90.7337 24.2198 90.3205 23.7343C89.905 23.2462 89.6944 22.5504 89.6944 21.6664C89.6944 20.7546 89.905 20.0407 90.3207 19.544C90.734 19.0505 91.3145 18.8002 92.0464 18.8002C92.7566 18.8002 93.3221 19.0394 93.7268 19.5113C94.1339 19.9861 94.3402 20.6941 94.3402 21.6168C94.3402 22.5506 94.146 23.2682 93.7631 23.748C93.3828 24.2244 92.8109 24.4665 92.0631 24.4665ZM92.1544 17.1255C90.7361 17.1255 89.6094 17.541 88.8064 18.3606C88.0036 19.1805 87.5967 20.3147 87.5967 21.7326C87.5967 23.0792 87.9939 24.1625 88.7776 24.9515C89.5612 25.7411 90.6276 26.1411 91.9467 26.1411C93.3217 26.1411 94.4258 25.7195 95.2286 24.8887C96.0315 24.0584 96.4382 22.9348 96.4382 21.5501C96.4382 20.1824 96.0564 19.0911 95.3034 18.3071C94.5501 17.523 93.4903 17.1255 92.1544 17.1255ZM84.2944 17.1255C83.3296 17.1255 82.5317 17.3722 81.9219 17.8586C81.3086 18.348 80.9976 18.9901 80.9976 19.7668C80.9976 20.1706 81.0648 20.5293 81.197 20.8336C81.3299 21.1388 81.5357 21.4075 81.809 21.6331C82.0803 21.8567 82.4989 22.0911 83.0539 22.3296C83.5204 22.5215 83.8682 22.6839 84.0893 22.8118C84.3052 22.9372 84.4586 23.0633 84.5453 23.1861C84.6292 23.3061 84.6721 23.4705 84.6721 23.6736C84.6721 24.2515 84.2394 24.5325 83.3488 24.5325C83.0187 24.5325 82.6419 24.4638 82.2293 24.3278C81.8195 24.1938 81.4328 23.9976 81.0826 23.7462L80.9976 23.6854V25.6572L81.0287 25.6718C81.3187 25.8056 81.684 25.9182 82.1145 26.0071C82.5445 26.096 82.9349 26.1412 83.2742 26.1412C84.3211 26.1412 85.1643 25.8933 85.7794 25.4037C86.3984 24.911 86.7123 24.2539 86.7123 23.45C86.7123 22.8703 86.5433 22.3732 86.2103 21.9722C85.8797 21.5744 85.306 21.2093 84.5054 20.8865C83.8677 20.6307 83.4591 20.4182 83.2907 20.2551C83.1283 20.0975 83.0458 19.8748 83.0458 19.5927C83.0458 19.3425 83.1475 19.1422 83.3567 18.9798C83.5675 18.8167 83.8605 18.7336 84.2282 18.7336C84.5695 18.7336 84.9187 18.7875 85.2658 18.8931C85.613 18.9989 85.9176 19.1404 86.172 19.3134L86.2558 19.3706V17.5001L86.2235 17.4862C85.9889 17.3856 85.6793 17.2996 85.3034 17.2296C84.9291 17.1605 84.5897 17.1255 84.2944 17.1255ZM75.658 24.4664C74.915 24.4664 74.3286 24.2198 73.9157 23.7343C73.5 23.2462 73.2897 22.5506 73.2897 21.6664C73.2897 20.7546 73.5002 20.0407 73.916 19.544C74.329 19.0505 74.9095 18.8002 75.6417 18.8002C76.3516 18.8002 76.9168 19.0394 77.3219 19.5113C77.7288 19.9861 77.9354 20.6941 77.9354 21.6168C77.9354 22.5506 77.7411 23.2682 77.358 23.748C76.9779 24.2244 76.4062 24.4665 75.658 24.4665V24.4664ZM75.7497 17.1255C74.331 17.1255 73.2043 17.541 72.4015 18.3606C71.5989 19.1805 71.1918 20.3147 71.1918 21.7326C71.1918 23.0798 71.5892 24.1625 72.3727 24.9515C73.1563 25.7411 74.2227 26.1411 75.542 26.1411C76.9167 26.1411 78.021 25.7195 78.8238 24.8887C79.6264 24.0584 80.0335 22.9348 80.0335 21.5501C80.0335 20.1824 79.6515 19.0911 78.8984 18.3071C78.1447 17.523 77.0853 17.1255 75.7495 17.1255H75.7497ZM68.0827 18.8222V17.3326H66.0594V25.9336H68.0825V21.5339C68.0825 20.7857 68.2522 20.1712 68.5869 19.7069C68.9174 19.2481 69.3576 19.0159 69.8954 19.0159C70.0776 19.0159 70.2822 19.0458 70.5038 19.1053C70.723 19.1644 70.8819 19.2285 70.9755 19.296L71.0604 19.3576V17.3179L71.0278 17.3038C70.8392 17.2237 70.5728 17.1834 70.2354 17.1834C69.7272 17.1834 69.2721 17.3467 68.8824 17.6684C68.5404 17.951 68.2931 18.3387 68.104 18.8222H68.0825H68.0827ZM62.4363 17.1255C61.5081 17.1255 60.6802 17.3245 59.9758 17.7168C59.2702 18.1099 58.7245 18.6715 58.3534 19.3854C57.9837 20.0977 57.7962 20.9294 57.7962 21.8572C57.7962 22.6698 57.978 23.4156 58.3376 24.0728C58.6974 24.7312 59.2069 25.2462 59.8516 25.6033C60.4955 25.9602 61.2394 26.1412 62.0633 26.1412C63.0248 26.1412 63.8458 25.9488 64.504 25.5699L64.5306 25.5545V23.7009L64.4455 23.7631C64.1427 23.9826 63.8092 24.1563 63.4558 24.2785C63.0982 24.4031 62.7721 24.4664 62.4862 24.4664C61.6925 24.4664 61.0552 24.2178 60.5924 23.7283C60.1287 23.2378 59.8937 22.5493 59.8937 21.6828C59.8937 20.8108 60.139 20.1046 60.6221 19.5834C61.1036 19.0639 61.742 18.8004 62.5197 18.8004C63.1847 18.8004 63.8326 19.0254 64.4457 19.4703L64.5306 19.5319V17.5789L64.5031 17.5633C64.2725 17.4343 63.9578 17.3276 63.567 17.2468C63.1783 17.1662 62.7977 17.1255 62.4361 17.1255H62.4363ZM56.4024 17.3326H54.3793V25.9336H56.4026V17.3328L56.4024 17.3326ZM55.4116 13.6686C55.0787 13.6686 54.7884 13.7819 54.5496 14.0066C54.31 14.2321 54.1885 14.5156 54.1885 14.8503C54.1885 15.1797 54.3086 15.4581 54.5459 15.6773C54.7816 15.896 55.0729 16.0069 55.4116 16.0069C55.7503 16.0069 56.0426 15.896 56.2813 15.6777C56.5214 15.4581 56.6433 15.1797 56.6433 14.8503C56.6433 14.5272 56.5247 14.2464 56.2912 14.0156C56.0579 13.7854 55.762 13.6686 55.4116 13.6686ZM50.3638 16.698V25.9336H52.4284V13.932H49.5709L45.9385 22.8463L42.4135 13.932H39.4395V25.9336H41.3797V16.6971H41.4465L45.1687 25.9334H46.633L50.2969 16.698H50.3636H50.3638Z" fill="#C3C2CB"/>
<path d="M22.9336 19.4368H13.416V9.91919H22.9336V19.4368Z" fill="#C3C2CB"/>
<path d="M33.4413 19.4368H23.9238V9.91919H33.4413V19.4368Z" fill="#C3C2CB"/>
<path d="M22.9333 29.9476H13.416V20.4302H22.9333V29.9476Z" fill="#C3C2CB"/>
<path d="M33.4413 29.9474H23.9238V20.4299H33.4413V29.9474Z" fill="#C3C2CB"/>
</g>
<defs>
<clipPath id="clip0_2804_90143">
<rect width="93.8438" height="20.1617" fill="white" transform="translate(13.416 9.91919)"/>
</clipPath>
</defs>
</svg>