<svg xmlns="http://www.w3.org/2000/svg" width="166" height="40" viewBox="0 0 166 40" fill="none">
<g clip-path="url(#clip0_2780_90883)">
<path d="M20.6711 19.2638C20.6222 19.1998 20.5577 19.1496 20.4838 19.1179C20.4098 19.0862 20.3289 19.0741 20.2489 19.0828C20.1689 19.0916 20.0925 19.1209 20.0271 19.1678C19.9618 19.2147 19.9096 19.2778 19.8758 19.3508L15.8422 27.418C15.8054 27.4914 15.7879 27.573 15.7915 27.6551C15.795 27.7372 15.8195 27.817 15.8626 27.8869C15.9057 27.9569 15.9659 28.0147 16.0376 28.0548C16.1093 28.095 16.19 28.1161 16.2722 28.1163H21.8889C21.9798 28.118 22.0692 28.0931 22.1461 28.0445C22.2229 27.9959 22.2839 27.9258 22.3213 27.8429C23.5316 25.3577 22.7985 21.5378 20.6711 19.2638Z" fill="#C3C2CB"/>
<path d="M23.635 11.9375C22.6295 13.4844 22.0435 15.2662 21.9346 17.108C21.8256 18.9497 22.1975 20.7881 23.0137 22.4427L25.7351 27.8432C25.7747 27.9235 25.836 27.9911 25.9119 28.0385C25.9879 28.0859 26.0755 28.1112 26.165 28.1116H31.7817C31.8604 28.1051 31.9365 28.08 32.0035 28.0382C32.0706 27.9965 32.1268 27.9393 32.1673 27.8715C32.2079 27.8038 32.2317 27.7273 32.2368 27.6484C32.242 27.5696 32.2282 27.4907 32.1967 27.4182L24.4552 11.9375C24.4181 11.8603 24.3599 11.795 24.2874 11.7493C24.2148 11.7037 24.1308 11.6794 24.0451 11.6794C23.9594 11.6794 23.8754 11.7037 23.8028 11.7493C23.7303 11.795 23.6721 11.8603 23.635 11.9375Z" fill="#C3C2CB"/>
<path d="M142.288 20.5374L146.366 28.1174H149.989V14.5876H147.107V23.3184L146.016 20.7859L142.74 14.5876H138.189V28.1174H141.072V17.7986L142.288 20.5374Z" fill="#C3C2CB"/>
<path d="M119.864 14.5876H116.713V28.1174H119.864V14.5876Z" fill="#C3C2CB"/>
<path d="M113.066 24.1162C113.066 21.7477 111.811 20.6368 108.267 19.8739C106.311 19.4414 105.839 19.009 105.839 18.3827C105.839 17.5998 106.537 17.2693 107.827 17.2693C109.393 17.2693 110.939 17.744 112.4 18.4026V15.3084C110.997 14.6695 109.468 14.3527 107.927 14.3814C104.425 14.3814 102.613 15.9049 102.613 18.3976C102.613 20.3858 103.54 21.9789 107.164 22.6797C109.326 23.132 109.781 23.4825 109.781 24.2032C109.781 24.9239 109.326 25.3563 107.792 25.3563C105.952 25.3227 104.148 24.8353 102.541 23.9373V27.1905C103.632 27.7248 105.073 28.3213 107.76 28.3213C111.548 28.3213 113.051 26.6338 113.051 24.1212" fill="#C3C2CB"/>
<path d="M99.9514 24.1162C99.9514 21.7477 98.7088 20.6368 95.1548 19.8739C93.1989 19.4414 92.7243 19.009 92.7243 18.3827C92.7243 17.5998 93.4251 17.2693 94.7125 17.2693C96.2782 17.2693 97.8215 17.744 99.2829 18.4026V15.3084C97.8796 14.6695 96.351 14.3527 94.8094 14.3814C91.3101 14.3814 89.4959 15.9049 89.4959 18.3976C89.4959 20.3858 90.4229 21.9789 94.0489 22.6797C96.2111 23.132 96.6634 23.4825 96.6634 24.2032C96.6634 24.9239 96.2111 25.3563 94.6752 25.3563C92.8346 25.3227 91.0308 24.8353 89.4238 23.9373V27.1905C90.5173 27.7248 91.9588 28.3213 94.6429 28.3213C98.4329 28.3213 99.934 26.6338 99.934 24.1212" fill="#C3C2CB"/>
<path d="M68.2044 25.1923V14.5876H65.0332V28.1174H71.5098L72.5288 25.1923H68.2044Z" fill="#C3C2CB"/>
<path d="M58.9093 28.1174V17.5103H62.657V14.5876H52.2363V17.5103H55.7381V28.1174H58.9093Z" fill="#C3C2CB"/>
<path d="M47.6371 14.5876H43.4818L38.7598 28.1174H42.3758L43.0468 25.8384C44.6937 26.3224 46.445 26.3224 48.0919 25.8384L48.7605 28.1174H52.3641L47.6371 14.5876ZM45.5594 23.4004C44.9706 23.4012 44.3848 23.3175 43.8198 23.1519L45.5594 17.2469L47.2991 23.1519C46.7341 23.3174 46.1482 23.4011 45.5594 23.4004Z" fill="#C3C2CB"/>
<path d="M82.6762 14.5876H78.5208L73.7988 28.1174H77.4025L78.0735 25.8384C79.7204 26.3224 81.4717 26.3224 83.1186 25.8384L83.7871 28.1174H87.3907L82.6762 14.5876ZM80.5985 23.4004C80.0097 23.4014 79.4238 23.3177 78.8588 23.1519L80.5985 17.2469L82.3382 23.1519C81.7732 23.3178 81.1873 23.4015 80.5985 23.4004Z" fill="#C3C2CB"/>
<path d="M131.215 14.5876H127.06L122.338 28.1174H125.942L126.61 25.8384C128.257 26.3224 130.008 26.3224 131.655 25.8384L132.324 28.1174H135.93L131.215 14.5876ZM129.138 23.4004C128.549 23.4011 127.963 23.3174 127.398 23.1519L129.138 17.2469L130.877 23.1519C130.312 23.3174 129.726 23.4011 129.138 23.4004Z" fill="#C3C2CB"/>
</g>
<defs>
<clipPath id="clip0_2780_90883">
<rect width="134.203" height="16.6409" fill="white" transform="translate(15.791 11.6794)"/>
</clipPath>
</defs>
</svg>