<svg width="21" height="22" viewBox="0 0 21 22" fill="none" xmlns="http://www.w3.org/2000/svg">
<g id="bi:meta" clip-path="url(#clip0_2346_537)">
<path id="Vector" fill-rule="evenodd" clip-rule="evenodd" d="M10.7147 7.48533C11.8983 5.88465 13.2069 4.62451 14.8803 4.62451C18.0396 4.62451 20.6415 8.64599 20.6428 13.434C20.6428 16.3548 19.3852 18.185 17.1264 18.185C15.1583 18.185 14.0717 17.0805 12.1215 13.8179L11.2708 12.3856L11.1203 12.1343C10.8984 11.7594 10.6731 11.3865 10.4443 11.0158L8.94183 13.6687C6.80801 17.3994 5.60655 18.185 3.93827 18.185C1.61951 18.185 0.234375 16.3803 0.234375 13.5182C0.234375 8.94572 2.77889 4.62451 6.09887 4.62451C6.50573 4.62451 6.89602 4.67425 7.27738 4.78012C7.67277 4.8898 8.05667 5.06071 8.44186 5.29922C9.17779 5.75711 9.91372 6.46625 10.7147 7.48533ZM12.6483 10.3219C12.3269 9.79899 12.0182 9.31815 11.721 8.87684L11.7134 8.86664C12.7911 7.20218 13.6814 6.37442 14.7387 6.37442C16.9363 6.37442 18.6952 9.61022 18.6952 13.5845C18.6952 15.0997 18.1977 15.9785 17.171 15.9785C16.1851 15.9785 15.7144 15.328 13.8421 12.318L12.647 10.3219H12.6483ZM6.41518 6.86419C7.33988 6.99174 8.18167 7.67282 9.39972 9.41636C8.69691 10.4925 8.00177 11.5737 7.31437 12.6598C5.58359 15.3714 4.9854 15.9798 4.02244 15.9798C3.03142 15.9798 2.44089 15.1099 2.44089 13.5564C2.44089 10.2377 4.09642 6.84251 6.07081 6.84251C6.18687 6.84251 6.30166 6.85016 6.41518 6.86547V6.86419Z" fill="#C3C2CB"/>
</g>
<defs>
<clipPath id="clip0_2346_537">
<rect width="20.4071" height="20.4071" fill="white" transform="translate(0.234375 0.796387)"/>
</clipPath>
</defs>
</svg>
