<svg width="153" height="48" viewBox="0 0 153 48" fill="none" xmlns="http://www.w3.org/2000/svg">
<path fill-rule="evenodd" clip-rule="evenodd" d="M122.211 21.1589V30.3177H123.399H124.586V21.1589V12H123.399H122.211V21.1589ZM104.365 15.1978C104.263 15.4641 104.23 16.0367 104.291 16.4699C104.384 17.1229 104.606 17.2579 105.59 17.2579C106.571 17.2579 106.796 17.1222 106.888 16.476C106.949 16.0458 106.816 15.4736 106.592 15.2039C106.068 14.5733 104.606 14.5692 104.365 15.1978ZM78.1132 17.4275C78.1132 19.0106 78.0002 19.4628 77.6044 19.4628C77.2879 19.4628 77.0956 19.783 77.0956 20.3108C77.0956 20.8156 77.2896 21.1589 77.5752 21.1589C77.9545 21.1589 78.0786 21.9818 78.1688 25.0901C78.2808 28.9565 78.2991 29.0352 79.2771 29.8754C80.0875 30.5721 80.5155 30.697 81.5946 30.5525C83.233 30.3327 83.3378 30.2292 83.0573 29.1108C82.8853 28.4252 82.6723 28.2529 82.1624 28.3862C80.8734 28.7234 80.4877 27.796 80.4877 24.3573V21.1589H81.8446C83.0658 21.1589 83.2015 21.0741 83.2015 20.3108C83.2015 19.5476 83.0658 19.4628 81.8446 19.4628H80.4877V17.4275V15.3922H79.3005H78.1132V17.4275ZM21.1244 19.8868C17.6799 22.2379 17.9812 28.2105 21.6335 29.9785C23.4097 30.8381 25.0613 30.8395 26.4674 29.9823L27.5698 29.3099V30.2635C27.5698 32.5145 24.5443 33.5925 22.4897 32.0735L21.469 31.3191L20.1033 32.0159C18.9354 32.6115 18.7871 32.8059 19.0809 33.3547C20.9951 36.9318 28.5851 36.8646 30.5397 33.253C31.0119 32.3809 31.1414 31.0101 31.2419 25.8231L31.3646 19.4628H29.4674C28.4236 19.4628 27.5698 19.6063 27.5698 19.782C27.5698 19.9574 27.1499 19.8821 26.637 19.6144C25.1729 18.8508 22.4449 18.9855 21.1244 19.8868ZM35.3722 19.4872C33.2008 20.3977 31.9796 22.3794 31.9796 24.9927C31.9796 27.1542 32.8623 28.7143 34.6944 29.7906C36.4397 30.8157 40.1714 30.7723 41.8848 29.7071C45.4252 27.5056 45.5114 22.57 42.0541 20.0086C40.9618 19.1992 36.8281 18.8766 35.3722 19.4872ZM48.8557 19.6568C48.3153 19.9499 47.9229 20.0157 47.9229 19.8129C47.9229 19.6202 47.3886 19.4628 46.7356 19.4628H45.5483V24.8903V30.3177H46.7356H47.9229V26.6053C47.9229 23.2444 47.9951 22.8088 48.6861 22.0056C49.7021 20.8244 51.5081 20.7348 52.3883 21.8217C52.9111 22.4672 53.0111 23.2111 53.0111 26.4544V30.3177H54.1984H55.3856V26.662C55.3856 22.7532 55.7255 21.7271 57.2011 21.1813C58.229 20.8007 59.6347 21.3841 60.0879 22.379C60.3002 22.8448 60.4739 24.8217 60.4739 26.7719V30.3177H61.6873H62.901L62.7897 25.7095L62.6788 21.1015L61.5709 20.1124C60.0899 18.7905 57.7595 18.7277 55.942 19.9614C55.2628 20.4221 54.7072 20.6551 54.7072 20.4791C54.7072 19.8922 52.7245 19.1232 51.2472 19.1371C50.4449 19.1446 49.3689 19.3783 48.8557 19.6568ZM66.5798 19.8637C65.9268 20.3037 65.1256 21.1948 64.7996 21.8441C63.9533 23.528 64.0204 26.3346 64.9462 27.9819C66.4112 30.5884 70.1952 31.4127 72.6549 29.6614C73.7003 28.9168 73.7034 28.9168 73.7034 29.6162C73.7034 30.1695 73.9184 30.3177 74.721 30.3177H75.7387V24.8903V19.4628H74.721C73.9022 19.4628 73.7034 19.6069 73.7034 20.2002V20.938L72.8445 20.131C71.5432 18.9085 68.2091 18.7664 66.5798 19.8637ZM86.2198 19.8895C84.827 20.8152 83.5407 23.2247 83.5407 24.9089C83.5407 29.8581 90.1503 32.5478 93.7766 29.0738C94.9482 27.951 94.9662 27.6949 93.9055 27.2115C93.1921 26.8866 92.9217 26.9636 91.9706 27.7641C91.0293 28.5562 90.6429 28.6691 89.3678 28.5257C87.7728 28.3459 86.5054 27.3645 86.0967 25.9927L85.8694 25.2295H90.4719H95.0741L95.0734 24.127C95.0727 22.5785 94.0893 20.799 92.7342 19.8936C91.1103 18.8088 87.8494 18.8067 86.2198 19.8895ZM99.5595 19.6517C99.1369 19.9475 98.8055 20.0222 98.8055 19.8213C98.8055 19.6242 98.2712 19.4628 97.6182 19.4628H96.4309V24.8903V30.3177H97.6182H98.8055V26.5711C98.8055 22.9971 98.8458 22.7837 99.6793 21.9503C100.403 21.2271 100.776 21.1063 101.847 21.2501C102.976 21.4014 103.189 21.3173 103.521 20.5873C103.731 20.1273 103.815 19.61 103.709 19.4373C103.39 18.9227 100.378 19.0784 99.5595 19.6517ZM110.678 19.8637C109.079 20.9408 108.305 22.5924 108.304 24.9249C108.304 27.0199 109.06 28.4972 110.788 29.7777C112.178 30.8076 115.203 30.7682 116.699 29.701C117.786 28.9256 117.802 28.9242 117.802 29.6162C117.802 30.1919 118.015 30.3177 118.989 30.3177H120.176V24.8903V19.4628H118.989C117.996 19.4628 117.802 19.5835 117.802 20.2002V20.938L116.943 20.131C115.641 18.9085 112.307 18.7664 110.678 19.8637ZM128.148 19.5333C127.067 20.1531 126.644 20.9004 126.632 22.2087C126.619 23.6769 127.135 24.1949 129.759 25.3509C131.338 26.0463 131.71 26.3618 131.71 27.0087C131.71 28.8086 129.424 29.2407 127.811 27.7458L126.866 26.8699L126.171 27.5643C125.484 28.2512 125.484 28.2658 126.133 28.9836C127.572 30.5732 129.762 31.064 131.976 30.2923C133.326 29.8215 134.084 28.639 134.084 27.0022C134.084 25.2949 133.621 24.7427 131.357 23.7501C128.971 22.7043 128.43 22.1124 129.178 21.3644C129.879 20.6633 131.006 20.6704 132.023 21.3828C132.778 21.9116 132.854 21.9079 133.286 21.3176C133.937 20.4268 133.872 20.2243 132.744 19.6412C131.571 19.0347 129.118 18.977 128.148 19.5333ZM104.233 24.8903V30.3177H105.42H106.607V24.8903V19.4628H105.42H104.233V24.8903ZM91.8434 22.091C92.3142 22.5622 92.6996 23.0792 92.6996 23.2403C92.6996 23.4014 91.2494 23.5334 89.477 23.5334C86.0516 23.5334 85.5604 23.2491 86.8966 22.0398C88.3688 20.7074 90.4814 20.7291 91.8434 22.091ZM72.123 21.8556C75.0636 24.1684 73.0463 29.1468 69.4425 28.4704C67.1229 28.0355 65.8498 25.0633 67.0534 22.8923C68.0157 21.1558 70.5694 20.6334 72.123 21.8556ZM116.454 22.1331C117.718 23.397 118.002 24.604 117.406 26.1769C116.042 29.7808 111.209 29.0274 110.771 25.1426C110.605 23.6677 110.679 23.4645 111.788 22.3553C113.363 20.7806 115.022 20.7016 116.454 22.1331ZM26.7849 22.914C28.4043 24.4354 27.2157 27.604 25.0257 27.604C23.7811 27.604 22.4816 26.1935 22.4816 24.8428C22.4816 22.5205 25.1112 21.3417 26.7849 22.914ZM40.1137 23.0168C41.6728 24.6766 40.4869 27.604 38.2552 27.604C35.9933 27.604 34.7836 24.4238 36.4536 22.8682C37.4899 21.9028 39.1293 21.9693 40.1137 23.0168Z" fill="#908E9F"/>
<path fill-rule="evenodd" clip-rule="evenodd" d="M122.209 21.1589V30.3177H123.397H124.584V21.1589V12H123.397H122.209V21.1589ZM104.363 15.1978C104.261 15.4641 104.227 16.0367 104.289 16.4699C104.381 17.1229 104.604 17.2579 105.588 17.2579C106.569 17.2579 106.794 17.1222 106.886 16.476C106.947 16.0458 106.814 15.4736 106.59 15.2039C106.066 14.5733 104.604 14.5692 104.363 15.1978ZM78.1111 17.4275C78.1111 19.0106 77.9981 19.4628 77.6023 19.4628C77.2858 19.4628 77.0934 19.783 77.0934 20.3108C77.0934 20.8156 77.2875 21.1589 77.5731 21.1589C77.9523 21.1589 78.0765 21.9818 78.1667 25.0901C78.2787 28.9565 78.297 29.0352 79.2749 29.8754C80.0853 30.5721 80.5134 30.697 81.5925 30.5525C83.2309 30.3327 83.3357 30.2292 83.0552 29.1108C82.8832 28.4252 82.6702 28.2529 82.1603 28.3862C80.8713 28.7234 80.4856 27.796 80.4856 24.3573V21.1589H81.8425C83.0637 21.1589 83.1993 21.0741 83.1993 20.3108C83.1993 19.5476 83.0637 19.4628 81.8425 19.4628H80.4856V17.4275V15.3922H79.2983H78.1111V17.4275ZM21.1924 19.8505C19.6565 20.8339 18.748 22.7464 18.748 24.9961C18.748 29.1257 22.8251 31.849 26.2956 30.0372L27.5677 29.3734V30.2072C27.5677 32.8391 24.2905 33.7903 22.0883 31.7974C21.5863 31.3429 21.3749 31.3659 20.1097 32.0114C18.7677 32.696 18.7189 32.7733 19.1792 33.4765C21.1389 36.4677 27.0076 36.8965 29.5854 34.2371C31.0457 32.7302 31.2814 31.4494 31.2909 24.9751L31.2991 19.4628H29.4334C28.3845 19.4628 27.5677 19.6151 27.5677 19.8108C27.5677 20.0103 27.1406 19.9377 26.567 19.6412C25.1087 18.8871 22.5408 18.9869 21.1924 19.8505ZM35.2008 19.6578C32.8893 20.8631 31.9775 22.3512 31.9775 24.9181C31.9775 28.0226 34.0016 30.1474 37.3348 30.5423C40.172 30.8785 42.9899 29.5569 44.0068 27.4137C45.3257 24.6341 44.3091 21.4119 41.635 19.8977C39.9932 18.9675 36.7561 18.8471 35.2008 19.6578ZM48.8536 19.6568C48.3132 19.9499 47.9207 20.0157 47.9207 19.8129C47.9207 19.6202 47.3865 19.4628 46.7335 19.4628H45.5462V24.8903V30.3177H46.7335H47.9207V26.6053C47.9207 23.2444 47.993 22.8088 48.684 22.0056C49.6999 20.8244 51.5059 20.7348 52.3862 21.8217C52.9089 22.4672 53.009 23.2111 53.009 26.4544V30.3177H54.1963H55.3835V26.662C55.3835 22.7532 55.7234 21.7271 57.199 21.1813C58.2268 20.8007 59.6326 21.3841 60.0858 22.379C60.2981 22.8448 60.4718 24.8217 60.4718 26.7719V30.3177H61.6852H62.8989L62.7876 25.7095L62.6767 21.1015L61.5688 20.1124C60.0878 18.7905 57.7574 18.7277 55.9398 19.9614C55.2607 20.4221 54.7051 20.6551 54.7051 20.4791C54.7051 19.8922 52.7224 19.1232 51.2451 19.1371C50.4428 19.1446 49.3668 19.3783 48.8536 19.6568ZM66.5777 19.8637C65.9247 20.3037 65.1235 21.1948 64.7975 21.8441C63.9511 23.528 64.0183 26.3346 64.944 27.9819C66.4091 30.5884 70.1931 31.4127 72.6527 29.6614C73.6982 28.9168 73.7013 28.9168 73.7013 29.6162C73.7013 30.1695 73.9163 30.3177 74.7189 30.3177H75.7366V24.8903V19.4628H74.7189C73.9 19.4628 73.7013 19.6069 73.7013 20.2002V20.938L72.8424 20.131C71.5411 18.9085 68.207 18.7664 66.5777 19.8637ZM86.2177 19.8895C84.8249 20.8152 83.5386 23.2247 83.5386 24.9089C83.5386 29.8581 90.1482 32.5478 93.7744 29.0738C94.9461 27.951 94.9641 27.6949 93.9033 27.2115C93.19 26.8866 92.9196 26.9636 91.9684 27.7641C91.0271 28.5562 90.6407 28.6691 89.3656 28.5257C87.7706 28.3459 86.5033 27.3645 86.0946 25.9927L85.8673 25.2295H90.4698H95.0719L95.0713 24.127C95.0706 22.5785 94.0872 20.799 92.732 19.8936C91.1082 18.8088 87.8473 18.8067 86.2177 19.8895ZM99.5574 19.6517C99.1348 19.9475 98.8033 20.0222 98.8033 19.8213C98.8033 19.6242 98.2691 19.4628 97.6161 19.4628H96.4288V24.8903V30.3177H97.6161H98.8033V26.5711C98.8033 22.9971 98.8437 22.7837 99.6772 21.9503C100.4 21.2271 100.774 21.1063 101.845 21.2501C102.974 21.4014 103.187 21.3173 103.519 20.5873C103.729 20.1273 103.813 19.61 103.706 19.4373C103.388 18.9227 100.376 19.0784 99.5574 19.6517ZM110.676 19.8637C109.077 20.9408 108.302 22.5924 108.302 24.9249C108.301 27.0199 109.058 28.4972 110.786 29.7777C112.176 30.8076 115.2 30.7682 116.697 29.701C117.784 28.9256 117.8 28.9242 117.8 29.6162C117.8 30.1919 118.013 30.3177 118.987 30.3177H120.174V24.8903V19.4628H118.987C117.994 19.4628 117.8 19.5835 117.8 20.2002V20.938L116.941 20.131C115.639 18.9085 112.305 18.7664 110.676 19.8637ZM128.146 19.5333C127.065 20.1531 126.642 20.9004 126.63 22.2087C126.617 23.6769 127.133 24.1949 129.757 25.3509C131.336 26.0463 131.707 26.3618 131.707 27.0087C131.707 28.8086 129.421 29.2407 127.808 27.7458L126.863 26.8699L126.169 27.5643C125.482 28.2512 125.481 28.2658 126.131 28.9836C127.57 30.5732 129.76 31.064 131.974 30.2923C133.324 29.8215 134.082 28.639 134.082 27.0022C134.082 25.2949 133.619 24.7427 131.355 23.7501C128.969 22.7043 128.428 22.1124 129.176 21.3644C129.877 20.6633 131.004 20.6704 132.021 21.3828C132.776 21.9116 132.852 21.9079 133.284 21.3176C133.935 20.4268 133.87 20.2243 132.742 19.6412C131.569 19.0347 129.115 18.977 128.146 19.5333ZM104.231 24.8903V30.3177H105.418H106.605V24.8903V19.4628H105.418H104.231V24.8903ZM91.8412 22.091C92.3121 22.5622 92.6974 23.0792 92.6974 23.2403C92.6974 23.4014 91.2473 23.5334 89.4749 23.5334C86.0494 23.5334 85.5583 23.2491 86.8944 22.0398C88.3666 20.7074 90.4793 20.7291 91.8412 22.091ZM72.1208 21.8556C75.0615 24.1684 73.0442 29.1468 69.4403 28.4704C67.1208 28.0355 65.8477 25.0633 67.0512 22.8923C68.0136 21.1558 70.5672 20.6334 72.1208 21.8556ZM116.451 22.1331C117.715 23.397 118 24.604 117.404 26.1769C116.04 29.7808 111.207 29.0274 110.769 25.1426C110.603 23.6677 110.677 23.4645 111.786 22.3553C113.361 20.7806 115.02 20.7016 116.451 22.1331ZM26.8893 22.855C27.9266 23.8923 27.8143 26.0039 26.6739 26.9008C26.1823 27.2875 25.4398 27.604 25.0236 27.604C24.6073 27.604 23.8648 27.2875 23.3733 26.9008C22.6786 26.3547 22.4794 25.9008 22.4794 24.8655C22.4794 23.1535 23.4038 22.1765 25.0236 22.1765C25.7587 22.1765 26.4693 22.435 26.8893 22.855ZM39.7663 22.5086C40.6204 22.9659 41.1866 24.7139 40.8053 25.7169C40.4352 26.6908 39.1998 27.604 38.253 27.604C37.3015 27.604 36.0705 26.6891 35.696 25.704C35.3354 24.7559 35.7954 23.2396 36.637 22.6005C37.3043 22.0938 38.9033 22.0469 39.7663 22.5086Z" fill="#908E9F"/>
<path fill-rule="evenodd" clip-rule="evenodd" d="M122.209 21.1589V30.3177H123.397H124.584V21.1589V12H123.397H122.209V21.1589ZM104.363 15.1978C104.261 15.4641 104.227 16.0367 104.289 16.4699C104.381 17.1229 104.604 17.2579 105.588 17.2579C106.569 17.2579 106.794 17.1222 106.886 16.476C106.947 16.0458 106.814 15.4736 106.59 15.2039C106.066 14.5733 104.604 14.5692 104.363 15.1978ZM78.1111 17.4275C78.1111 19.0106 77.9981 19.4628 77.6023 19.4628C77.2858 19.4628 77.0934 19.783 77.0934 20.3108C77.0934 20.8156 77.2875 21.1589 77.5731 21.1589C77.9523 21.1589 78.0765 21.9818 78.1667 25.0901C78.2787 28.9565 78.297 29.0352 79.2749 29.8754C80.0853 30.5721 80.5134 30.697 81.5925 30.5525C83.2309 30.3327 83.3357 30.2292 83.0552 29.1108C82.8832 28.4252 82.6702 28.2529 82.1603 28.3862C80.8713 28.7234 80.4856 27.796 80.4856 24.3573V21.1589H81.8425C83.0637 21.1589 83.1993 21.0741 83.1993 20.3108C83.1993 19.5476 83.0637 19.4628 81.8425 19.4628H80.4856V17.4275V15.3922H79.2983H78.1111V17.4275ZM21.1924 19.8505C19.6565 20.8339 18.748 22.7464 18.748 24.9961C18.748 29.1257 22.8251 31.849 26.2956 30.0372L27.5677 29.3734V30.2072C27.5677 32.8391 24.2905 33.7903 22.0883 31.7974C21.5863 31.3429 21.3749 31.3659 20.1097 32.0114C18.7677 32.696 18.7189 32.7733 19.1792 33.4765C21.1389 36.4677 27.0076 36.8965 29.5854 34.2371C31.0457 32.7302 31.2814 31.4494 31.2909 24.9751L31.2991 19.4628H29.4334C28.3845 19.4628 27.5677 19.6151 27.5677 19.8108C27.5677 20.0103 27.1406 19.9377 26.567 19.6412C25.1087 18.8871 22.5408 18.9869 21.1924 19.8505ZM35.2008 19.6578C32.8893 20.8631 31.9775 22.3512 31.9775 24.9181C31.9775 28.0226 34.0016 30.1474 37.3348 30.5423C40.172 30.8785 42.9899 29.5569 44.0068 27.4137C45.3257 24.6341 44.3091 21.4119 41.635 19.8977C39.9932 18.9675 36.7561 18.8471 35.2008 19.6578ZM48.8536 19.6568C48.3132 19.9499 47.9207 20.0157 47.9207 19.8129C47.9207 19.6202 47.3865 19.4628 46.7335 19.4628H45.5462V24.8903V30.3177H46.7335H47.9207V26.6053C47.9207 23.2444 47.993 22.8088 48.684 22.0056C49.6999 20.8244 51.5059 20.7348 52.3862 21.8217C52.9089 22.4672 53.009 23.2111 53.009 26.4544V30.3177H54.1963H55.3835V26.662C55.3835 22.7532 55.7234 21.7271 57.199 21.1813C58.2268 20.8007 59.6326 21.3841 60.0858 22.379C60.2981 22.8448 60.4718 24.8217 60.4718 26.7719V30.3177H61.6852H62.8989L62.7876 25.7095L62.6767 21.1015L61.5688 20.1124C60.0878 18.7905 57.7574 18.7277 55.9398 19.9614C55.2607 20.4221 54.7051 20.6551 54.7051 20.4791C54.7051 19.8922 52.7224 19.1232 51.2451 19.1371C50.4428 19.1446 49.3668 19.3783 48.8536 19.6568ZM66.5777 19.8637C65.9247 20.3037 65.1235 21.1948 64.7975 21.8441C63.9511 23.528 64.0183 26.3346 64.944 27.9819C66.4091 30.5884 70.1931 31.4127 72.6527 29.6614C73.6982 28.9168 73.7013 28.9168 73.7013 29.6162C73.7013 30.1695 73.9163 30.3177 74.7189 30.3177H75.7366V24.8903V19.4628H74.7189C73.9 19.4628 73.7013 19.6069 73.7013 20.2002V20.938L72.8424 20.131C71.5411 18.9085 68.207 18.7664 66.5777 19.8637ZM86.2177 19.8895C84.8249 20.8152 83.5386 23.2247 83.5386 24.9089C83.5386 29.8581 90.1482 32.5478 93.7744 29.0738C94.9461 27.951 94.9641 27.6949 93.9033 27.2115C93.19 26.8866 92.9196 26.9636 91.9684 27.7641C91.0271 28.5562 90.6407 28.6691 89.3656 28.5257C87.7706 28.3459 86.5033 27.3645 86.0946 25.9927L85.8673 25.2295H90.4698H95.0719L95.0713 24.127C95.0706 22.5785 94.0872 20.799 92.732 19.8936C91.1082 18.8088 87.8473 18.8067 86.2177 19.8895ZM99.5574 19.6517C99.1348 19.9475 98.8033 20.0222 98.8033 19.8213C98.8033 19.6242 98.2691 19.4628 97.6161 19.4628H96.4288V24.8903V30.3177H97.6161H98.8033V26.5711C98.8033 22.9971 98.8437 22.7837 99.6772 21.9503C100.4 21.2271 100.774 21.1063 101.845 21.2501C102.974 21.4014 103.187 21.3173 103.519 20.5873C103.729 20.1273 103.813 19.61 103.706 19.4373C103.388 18.9227 100.376 19.0784 99.5574 19.6517ZM110.676 19.8637C109.077 20.9408 108.302 22.5924 108.302 24.9249C108.301 27.0199 109.058 28.4972 110.786 29.7777C112.176 30.8076 115.2 30.7682 116.697 29.701C117.784 28.9256 117.8 28.9242 117.8 29.6162C117.8 30.1919 118.013 30.3177 118.987 30.3177H120.174V24.8903V19.4628H118.987C117.994 19.4628 117.8 19.5835 117.8 20.2002V20.938L116.941 20.131C115.639 18.9085 112.305 18.7664 110.676 19.8637ZM128.146 19.5333C127.065 20.1531 126.642 20.9004 126.63 22.2087C126.617 23.6769 127.133 24.1949 129.757 25.3509C131.336 26.0463 131.707 26.3618 131.707 27.0087C131.707 28.8086 129.421 29.2407 127.808 27.7458L126.863 26.8699L126.169 27.5643C125.482 28.2512 125.481 28.2658 126.131 28.9836C127.57 30.5732 129.76 31.064 131.974 30.2923C133.324 29.8215 134.082 28.639 134.082 27.0022C134.082 25.2949 133.619 24.7427 131.355 23.7501C128.969 22.7043 128.428 22.1124 129.176 21.3644C129.877 20.6633 131.004 20.6704 132.021 21.3828C132.776 21.9116 132.852 21.9079 133.284 21.3176C133.935 20.4268 133.87 20.2243 132.742 19.6412C131.569 19.0347 129.115 18.977 128.146 19.5333ZM104.231 24.8903V30.3177H105.418H106.605V24.8903V19.4628H105.418H104.231V24.8903ZM91.8412 22.091C92.3121 22.5622 92.6974 23.0792 92.6974 23.2403C92.6974 23.4014 91.2473 23.5334 89.4749 23.5334C86.0494 23.5334 85.5583 23.2491 86.8944 22.0398C88.3666 20.7074 90.4793 20.7291 91.8412 22.091ZM72.1208 21.8556C75.0615 24.1684 73.0442 29.1468 69.4403 28.4704C67.1208 28.0355 65.8477 25.0633 67.0512 22.8923C68.0136 21.1558 70.5672 20.6334 72.1208 21.8556ZM116.451 22.1331C117.715 23.397 118 24.604 117.404 26.1769C116.04 29.7808 111.207 29.0274 110.769 25.1426C110.603 23.6677 110.677 23.4645 111.786 22.3553C113.361 20.7806 115.02 20.7016 116.451 22.1331ZM26.8893 22.855C27.9266 23.8923 27.8143 26.0039 26.6739 26.9008C26.1823 27.2875 25.4398 27.604 25.0236 27.604C24.6073 27.604 23.8648 27.2875 23.3733 26.9008C22.6786 26.3547 22.4794 25.9008 22.4794 24.8655C22.4794 23.1535 23.4038 22.1765 25.0236 22.1765C25.7587 22.1765 26.4693 22.435 26.8893 22.855ZM39.7663 22.5086C40.6204 22.9659 41.1866 24.7139 40.8053 25.7169C40.4352 26.6908 39.1998 27.604 38.253 27.604C37.3015 27.604 36.0705 26.6891 35.696 25.704C35.3354 24.7559 35.7954 23.2396 36.637 22.6005C37.3043 22.0938 38.9033 22.0469 39.7663 22.5086Z" fill="#908E9F"/>
<path fill-rule="evenodd" clip-rule="evenodd" d="M122.21 21.1589V30.3177H123.397H124.585V21.1589V12H123.397H122.21V21.1589ZM104.364 15.1978C104.261 15.4641 104.228 16.0367 104.289 16.4699C104.382 17.1229 104.604 17.2579 105.588 17.2579C106.57 17.2579 106.795 17.1222 106.887 16.476C106.947 16.0458 106.814 15.4736 106.59 15.2039C106.067 14.5733 104.605 14.5692 104.364 15.1978ZM78.1117 17.4275C78.1117 19.0106 77.9988 19.4628 77.6029 19.4628C77.2864 19.4628 77.0941 19.783 77.0941 20.3108C77.0941 20.8156 77.2881 21.1589 77.5737 21.1589C77.953 21.1589 78.0771 21.9818 78.1674 25.0901C78.2793 28.9565 78.2976 29.0352 79.2756 29.8754C80.086 30.5722 80.5141 30.697 81.5931 30.5525C83.2315 30.3327 83.3363 30.2292 83.0558 29.1108C82.8838 28.4252 82.6708 28.2529 82.161 28.3862C80.8719 28.7234 80.4862 27.796 80.4862 24.3574V21.1589H81.8431C83.0643 21.1589 83.2 21.0741 83.2 20.3108C83.2 19.5476 83.0643 19.4628 81.8431 19.4628H80.4862V17.4275V15.3922H79.299H78.1117V17.4275ZM21.9061 19.5686C21.8125 19.7199 21.3752 19.9808 20.9346 20.1483C19.1208 20.838 18.059 25.6518 19.3019 27.5511C21.1575 30.3856 24.0354 31.2204 26.7671 29.7163C27.4103 29.3622 27.5103 29.411 27.6518 30.1495C27.8811 31.3507 26.3936 32.8313 24.8203 32.9674C23.8994 33.0471 23.3407 32.8554 22.5479 32.1885L21.4967 31.3042L20.0713 32.0311C18.9943 32.581 18.7622 32.832 19.1215 33.0593C19.3827 33.2248 19.4587 33.3626 19.2897 33.3656C18.882 33.3724 20.0957 34.6984 20.9071 35.1326C22.1504 35.7981 26.5731 36.003 27.9618 35.4596C29.0137 35.0485 30.6915 33.0691 30.8458 32.0579C30.9045 31.6736 30.9724 31.2391 30.9968 31.0928C31.0209 30.9463 31.0229 28.2699 31.0005 25.1447L30.9605 19.4628H29.2644C28.3316 19.4628 27.5683 19.6195 27.5683 19.8108C27.5683 20.0079 27.1206 19.9272 26.5361 19.6249C25.4743 19.0757 22.2355 19.0364 21.9061 19.5686ZM35.7007 19.401C33.5016 20.0981 31.8923 22.6731 32.047 25.2475C32.1023 26.1701 32.2458 26.9256 32.3655 26.9256C32.4849 26.9256 32.6763 27.297 32.7902 27.7512C32.9866 28.5338 34.5786 29.9456 35.4673 30.1254C35.6939 30.1712 36.4575 30.3279 37.1648 30.4731C38.6774 30.7842 41.1967 30.1831 42.5658 29.1844C43.9559 28.1702 44.6133 26.4985 44.438 24.4235C44.2422 22.1083 43.7788 21.3136 41.9484 20.1528C40.6842 19.3508 40.0841 19.1962 38.3171 19.2172C37.1533 19.2311 35.9758 19.3139 35.7007 19.401ZM48.8542 19.6568C48.3138 19.9499 47.9214 20.0157 47.9214 19.8129C47.9214 19.6202 47.3871 19.4628 46.7341 19.4628H45.5469V24.8903V30.3177H46.7341H47.9214V26.6053C47.9214 23.2444 47.9936 22.8088 48.6846 22.0056C49.7006 20.8244 51.5066 20.7348 52.3868 21.8217C52.9096 22.4672 53.0096 23.2111 53.0096 26.4544V30.3177H54.1969H55.3842V26.662C55.3842 22.7532 55.724 21.7271 57.1996 21.1813C58.2275 20.8007 59.6332 21.3841 60.0864 22.379C60.2987 22.8448 60.4724 24.8217 60.4724 26.7719V30.3177H61.6858H62.8995L62.7882 25.7095L62.6773 21.1015L61.5694 20.1124C60.0884 18.7905 57.758 18.7277 55.9405 19.9614C55.2614 20.4221 54.7057 20.6551 54.7057 20.4791C54.7057 19.8922 52.723 19.1232 51.2457 19.1371C50.4435 19.1446 49.3675 19.3783 48.8542 19.6568ZM66.5783 19.8637C65.9253 20.3037 65.1241 21.1948 64.7981 21.8441C63.9518 23.528 64.0189 26.3346 64.9447 27.9819C66.4097 30.5884 70.1937 31.4127 72.6534 29.6614C73.6988 28.9168 73.7019 28.9168 73.7019 29.6162C73.7019 30.1695 73.917 30.3177 74.7195 30.3177H75.7372V24.8903V19.4628H74.7195C73.9007 19.4628 73.7019 19.6069 73.7019 20.2002V20.938L72.843 20.131C71.5418 18.9085 68.2076 18.7664 66.5783 19.8637ZM86.2183 19.8895C84.8255 20.8152 83.5392 23.2247 83.5392 24.9089C83.5392 29.8581 90.1488 32.5478 93.7751 29.0738C94.9467 27.951 94.9647 27.6949 93.904 27.2115C93.1906 26.8866 92.9202 26.9636 91.9691 27.7641C91.0278 28.5562 90.6414 28.6691 89.3663 28.5257C87.7713 28.3459 86.504 27.3645 86.0952 25.9927L85.8679 25.2295H90.4704H95.0726L95.0719 24.127C95.0712 22.5785 94.0878 20.799 92.7327 19.8936C91.1088 18.8088 87.8479 18.8067 86.2183 19.8895ZM99.5581 19.6517C99.1354 19.9475 98.804 20.0222 98.804 19.8213C98.804 19.6242 98.2697 19.4628 97.6167 19.4628H96.4295V24.8903V30.3177H97.6167H98.804V26.5711C98.804 22.9971 98.8443 22.7837 99.6778 21.9503C100.401 21.2271 100.775 21.1063 101.845 21.2501C102.974 21.4014 103.187 21.3173 103.52 20.5873C103.729 20.1273 103.814 19.61 103.707 19.4373C103.389 18.9227 100.376 19.0784 99.5581 19.6517ZM110.677 19.8637C109.078 20.9408 108.303 22.5924 108.303 24.9249C108.302 27.0199 109.058 28.4972 110.786 29.7777C112.176 30.8076 115.201 30.7682 116.698 29.701C117.785 28.9256 117.8 28.9242 117.8 29.6162C117.8 30.1919 118.013 30.3177 118.987 30.3177H120.175V24.8903V19.4628H118.987C117.995 19.4628 117.8 19.5835 117.8 20.2002V20.938L116.941 20.131C115.64 18.9085 112.306 18.7664 110.677 19.8637ZM128.146 19.5333C127.066 20.1531 126.642 20.9004 126.631 22.2087C126.618 23.6769 127.133 24.1949 129.758 25.3509C131.337 26.0463 131.708 26.3618 131.708 27.0087C131.708 28.8086 129.422 29.2407 127.809 27.7458L126.864 26.8699L126.17 27.5643C125.482 28.2512 125.482 28.2658 126.132 28.9836C127.57 30.5732 129.761 31.064 131.974 30.2923C133.325 29.8215 134.083 28.639 134.083 27.0022C134.083 25.2949 133.619 24.7427 131.355 23.7501C128.969 22.7043 128.429 22.1124 129.176 21.3644C129.878 20.6633 131.005 20.6704 132.022 21.3828C132.777 21.9116 132.853 21.9079 133.284 21.3176C133.936 20.4268 133.87 20.2243 132.743 19.6412C131.57 19.0347 129.116 18.977 128.146 19.5333ZM104.231 24.8903V30.3177H105.419H106.606V24.8903V19.4628H105.419H104.231V24.8903ZM91.8419 22.091C92.3127 22.5622 92.6981 23.0792 92.6981 23.2403C92.6981 23.4014 91.2479 23.5334 89.4755 23.5334C86.0501 23.5334 85.5589 23.2491 86.8951 22.0398C88.3673 20.7074 90.4799 20.7291 91.8419 22.091ZM72.1215 21.8556C75.0622 24.1684 73.0448 29.1468 69.441 28.4704C67.1214 28.0355 65.8483 25.0633 67.0519 22.8923C68.0142 21.1558 70.5679 20.6334 72.1215 21.8556ZM116.452 22.1331C117.716 23.397 118.001 24.604 117.405 26.1769C116.041 29.7808 111.207 29.0274 110.77 25.1426C110.604 23.6677 110.678 23.4645 111.787 22.3553C113.362 20.7806 115.021 20.7016 116.452 22.1331ZM26.0361 22.1745C26.5578 22.3726 27.1253 22.9964 27.415 23.6901C28.0666 25.2495 28.0538 25.3431 27.011 26.5823C26.2657 27.468 25.9082 27.6311 24.8909 27.5501C23.512 27.4398 22.9736 27.0368 22.4835 25.7475C21.8841 24.1708 23.2331 22.0147 24.9173 21.8587C25.0452 21.8471 25.5486 21.9889 26.0361 22.1745ZM40.3714 22.5157C40.4196 22.5157 40.4586 22.7447 40.4586 23.0246C40.4586 23.3044 40.5997 23.5334 40.7724 23.5334C40.945 23.5334 41.0424 24.1501 40.9888 24.9035C40.8307 27.1216 38.8432 28.1671 36.8378 27.087C35.3954 26.3102 35.1237 25.2787 35.9304 23.6382C36.6288 22.2169 37.6492 21.7881 39.269 22.2355C39.8276 22.3896 40.3236 22.5157 40.3714 22.5157Z" fill="#908E9F"/>
<path fill-rule="evenodd" clip-rule="evenodd" d="M122.211 21.1589V30.3177H123.398H124.585V21.1589V12H123.398H122.211V21.1589ZM104.364 15.1978C104.262 15.4641 104.229 16.0367 104.29 16.4699C104.383 17.1229 104.605 17.2579 105.589 17.2579C106.57 17.2579 106.796 17.1222 106.887 16.476C106.948 16.0458 106.815 15.4736 106.591 15.2039C106.068 14.5733 104.606 14.5692 104.364 15.1978ZM78.1123 17.4275C78.1123 19.0106 77.9994 19.4628 77.6035 19.4628C77.287 19.4628 77.0947 19.783 77.0947 20.3108C77.0947 20.8156 77.2887 21.1589 77.5743 21.1589C77.9536 21.1589 78.0777 21.9818 78.168 25.0901C78.2799 28.9565 78.2982 29.0352 79.2762 29.8754C80.0866 30.5721 80.5147 30.697 81.5937 30.5525C83.2321 30.3327 83.3369 30.2292 83.0564 29.1108C82.8844 28.4252 82.6714 28.2529 82.1616 28.3862C80.8725 28.7234 80.4868 27.796 80.4868 24.3573V21.1589H81.8437C83.0649 21.1589 83.2006 21.0741 83.2006 20.3108C83.2006 19.5476 83.0649 19.4628 81.8437 19.4628H80.4868V17.4275V15.3922H79.2996H78.1123V17.4275ZM48.8548 19.6568C48.3145 19.9499 47.922 20.0157 47.922 19.8129C47.922 19.6202 47.3877 19.4628 46.7347 19.4628H45.5475V24.8903V30.3177H46.7347H47.922V26.6053C47.922 23.2444 47.9942 22.8088 48.6852 22.0056C49.7012 20.8244 51.5072 20.7348 52.3874 21.8217C52.9102 22.4672 53.0102 23.2111 53.0102 26.4544V30.3177H54.1975H55.3848V26.662C55.3848 22.7532 55.7247 21.7271 57.2003 21.1813C58.2281 20.8007 59.6338 21.3841 60.087 22.379C60.2993 22.8448 60.473 24.8217 60.473 26.7719V30.3177H61.6864H62.9001L62.7889 25.7095L62.6779 21.1015L61.57 20.1124C60.089 18.7905 57.7586 18.7277 55.9411 19.9614C55.262 20.4221 54.7063 20.6551 54.7063 20.4791C54.7063 19.8922 52.7236 19.1232 51.2463 19.1371C50.4441 19.1446 49.3681 19.3783 48.8548 19.6568ZM66.5789 19.8637C65.9259 20.3037 65.1247 21.1948 64.7987 21.8441C63.9524 23.528 64.0195 26.3346 64.9453 27.9819C66.4103 30.5884 70.1943 31.4127 72.654 29.6614C73.6994 28.9168 73.7025 28.9168 73.7025 29.6162C73.7025 30.1695 73.9176 30.3177 74.7201 30.3177H75.7378V24.8903V19.4628H74.7201C73.9013 19.4628 73.7025 19.6069 73.7025 20.2002V20.938L72.8436 20.131C71.5424 18.9085 68.2082 18.7664 66.5789 19.8637ZM86.2189 19.8895C84.8261 20.8152 83.5398 23.2247 83.5398 24.9089C83.5398 29.8581 90.1495 32.5478 93.7757 29.0738C94.9473 27.951 94.9653 27.6949 93.9046 27.2115C93.1912 26.8866 92.9209 26.9636 91.9697 27.7641C91.0284 28.5562 90.642 28.6691 89.3669 28.5257C87.7719 28.3459 86.5046 27.3645 86.0958 25.9927L85.8685 25.2295H90.471H95.0732L95.0725 24.127C95.0718 22.5785 94.0884 20.799 92.7333 19.8936C91.1094 18.8088 87.8485 18.8067 86.2189 19.8895ZM99.5587 19.6517C99.136 19.9475 98.8046 20.0222 98.8046 19.8213C98.8046 19.6242 98.2703 19.4628 97.6173 19.4628H96.4301V24.8903V30.3177H97.6173H98.8046V26.5711C98.8046 22.9971 98.8449 22.7837 99.6784 21.9503C100.402 21.2271 100.775 21.1063 101.846 21.2501C102.975 21.4014 103.188 21.3173 103.52 20.5873C103.73 20.1273 103.814 19.61 103.708 19.4373C103.389 18.9227 100.377 19.0784 99.5587 19.6517ZM110.677 19.8637C109.078 20.9408 108.304 22.5924 108.303 24.9249C108.303 27.0199 109.059 28.4972 110.787 29.7777C112.177 30.8076 115.202 30.7682 116.698 29.701C117.785 28.9256 117.801 28.9242 117.801 29.6162C117.801 30.1919 118.014 30.3177 118.988 30.3177H120.175V24.8903V19.4628H118.988C117.995 19.4628 117.801 19.5835 117.801 20.2002V20.938L116.942 20.131C115.641 18.9085 112.306 18.7664 110.677 19.8637ZM128.147 19.5333C127.066 20.1531 126.643 20.9004 126.631 22.2087C126.618 23.6769 127.134 24.1949 129.758 25.3509C131.337 26.0463 131.709 26.3618 131.709 27.0087C131.709 28.8086 129.423 29.2407 127.81 27.7458L126.865 26.8699L126.17 27.5643C125.483 28.2512 125.483 28.2658 126.132 28.9836C127.571 30.5732 129.761 31.064 131.975 30.2923C133.325 29.8215 134.083 28.639 134.083 27.0022C134.083 25.2949 133.62 24.7427 131.356 23.7501C128.97 22.7043 128.429 22.1124 129.177 21.3644C129.878 20.6633 131.005 20.6704 132.022 21.3828C132.778 21.9116 132.854 21.9079 133.285 21.3176C133.936 20.4268 133.871 20.2243 132.743 19.6412C131.571 19.0347 129.117 18.977 128.147 19.5333ZM27.5957 19.7372C27.5805 19.9913 27.3875 20.0788 27.1449 19.9418C26.8084 19.7518 26.8071 19.7956 27.1391 20.1538C27.6219 20.6741 28.0639 20.3963 27.8006 19.7386C27.6544 19.3729 27.6178 19.3725 27.5957 19.7372ZM34.8645 19.7983C34.7458 19.9903 34.8818 20.0473 35.1837 19.9316C35.7712 19.706 35.8787 19.4628 35.3909 19.4628C35.2152 19.4628 34.9785 19.6137 34.8645 19.7983ZM104.232 24.8903V30.3177H105.419H106.607V24.8903V19.4628H105.419H104.232V24.8903ZM91.8425 22.091C92.3133 22.5622 92.6987 23.0792 92.6987 23.2403C92.6987 23.4014 91.2485 23.5334 89.4761 23.5334C86.0507 23.5334 85.5595 23.2491 86.8957 22.0398C88.3679 20.7074 90.4805 20.7291 91.8425 22.091ZM72.1221 21.8556C75.0628 24.1684 73.0454 29.1468 69.4416 28.4704C67.122 28.0355 65.8489 25.0633 67.0525 22.8923C68.0148 21.1558 70.5685 20.6334 72.1221 21.8556ZM116.453 22.1331C117.717 23.397 118.001 24.604 117.406 26.1769C116.042 29.7808 111.208 29.0274 110.77 25.1426C110.604 23.6677 110.678 23.4645 111.787 22.3553C113.362 20.7806 115.021 20.7016 116.453 22.1331ZM27.6351 29.8089C27.6419 30.3686 27.7179 30.5565 27.804 30.2265C27.8902 29.8964 27.8844 29.4385 27.7915 29.2088C27.6985 28.9792 27.6283 29.2492 27.6351 29.8089ZM23.7527 30.5423C23.9861 30.6366 24.3677 30.6366 24.6008 30.5423C24.8342 30.4483 24.6432 30.3713 24.1768 30.3713C23.7103 30.3713 23.5197 30.4483 23.7527 30.5423ZM37.6647 30.5576C38.0867 30.6386 38.6973 30.6356 39.0216 30.5508C39.3459 30.466 39.0006 30.3995 38.2543 30.4032C37.508 30.4069 37.2427 30.4765 37.6647 30.5576ZM21.152 31.4314C21.23 31.4843 21.5987 31.7513 21.9719 32.025C22.5994 32.4853 22.6153 32.4782 22.1849 31.929C21.9288 31.6027 21.5597 31.3354 21.365 31.3354C21.1703 31.3354 21.0743 31.3785 21.152 31.4314Z" fill="#908E9F"/>
<path fill-rule="evenodd" clip-rule="evenodd" d="M122.211 21.1589V30.3177H123.398H124.585V21.1589V12H123.398H122.211V21.1589ZM104.364 15.1978C104.262 15.4641 104.229 16.0367 104.29 16.4699C104.383 17.1229 104.605 17.2579 105.589 17.2579C106.57 17.2579 106.796 17.1222 106.887 16.476C106.948 16.0458 106.815 15.4736 106.591 15.2039C106.068 14.5733 104.606 14.5692 104.364 15.1978ZM78.1123 17.4275C78.1123 19.0106 77.9994 19.4628 77.6035 19.4628C77.287 19.4628 77.0947 19.783 77.0947 20.3108C77.0947 20.8156 77.2887 21.1589 77.5743 21.1589C77.9536 21.1589 78.0777 21.9818 78.168 25.0901C78.2799 28.9565 78.2982 29.0352 79.2762 29.8754C80.0866 30.5721 80.5147 30.697 81.5937 30.5525C83.2321 30.3327 83.3369 30.2292 83.0564 29.1108C82.8844 28.4252 82.6714 28.2529 82.1616 28.3862C80.8725 28.7234 80.4868 27.796 80.4868 24.3573V21.1589H81.8437C83.0649 21.1589 83.2006 21.0741 83.2006 20.3108C83.2006 19.5476 83.0649 19.4628 81.8437 19.4628H80.4868V17.4275V15.3922H79.2996H78.1123V17.4275ZM48.8548 19.6568C48.3145 19.9499 47.922 20.0157 47.922 19.8129C47.922 19.6202 47.3877 19.4628 46.7347 19.4628H45.5475V24.8903V30.3177H46.7347H47.922V26.6053C47.922 23.2444 47.9942 22.8088 48.6852 22.0056C49.7012 20.8244 51.5072 20.7348 52.3874 21.8217C52.9102 22.4672 53.0102 23.2111 53.0102 26.4544V30.3177H54.1975H55.3848V26.662C55.3848 22.7532 55.7247 21.7271 57.2003 21.1813C58.2281 20.8007 59.6338 21.3841 60.087 22.379C60.2993 22.8448 60.473 24.8217 60.473 26.7719V30.3177H61.6864H62.9001L62.7889 25.7095L62.6779 21.1015L61.57 20.1124C60.089 18.7905 57.7586 18.7277 55.9411 19.9614C55.262 20.4221 54.7063 20.6551 54.7063 20.4791C54.7063 19.8922 52.7236 19.1232 51.2463 19.1371C50.4441 19.1446 49.3681 19.3783 48.8548 19.6568ZM66.5789 19.8637C65.9259 20.3037 65.1247 21.1948 64.7987 21.8441C63.9524 23.528 64.0195 26.3346 64.9453 27.9819C66.4103 30.5884 70.1943 31.4127 72.654 29.6614C73.6994 28.9168 73.7025 28.9168 73.7025 29.6162C73.7025 30.1695 73.9176 30.3177 74.7201 30.3177H75.7378V24.8903V19.4628H74.7201C73.9013 19.4628 73.7025 19.6069 73.7025 20.2002V20.938L72.8436 20.131C71.5424 18.9085 68.2082 18.7664 66.5789 19.8637ZM86.2189 19.8895C84.8261 20.8152 83.5398 23.2247 83.5398 24.9089C83.5398 29.8581 90.1495 32.5478 93.7757 29.0738C94.9473 27.951 94.9653 27.6949 93.9046 27.2115C93.1912 26.8866 92.9209 26.9636 91.9697 27.7641C91.0284 28.5562 90.642 28.6691 89.3669 28.5257C87.7719 28.3459 86.5046 27.3645 86.0958 25.9927L85.8685 25.2295H90.471H95.0732L95.0725 24.127C95.0718 22.5785 94.0884 20.799 92.7333 19.8936C91.1094 18.8088 87.8485 18.8067 86.2189 19.8895ZM99.5587 19.6517C99.136 19.9475 98.8046 20.0222 98.8046 19.8213C98.8046 19.6242 98.2703 19.4628 97.6173 19.4628H96.4301V24.8903V30.3177H97.6173H98.8046V26.5711C98.8046 22.9971 98.8449 22.7837 99.6784 21.9503C100.402 21.2271 100.775 21.1063 101.846 21.2501C102.975 21.4014 103.188 21.3173 103.52 20.5873C103.73 20.1273 103.814 19.61 103.708 19.4373C103.389 18.9227 100.377 19.0784 99.5587 19.6517ZM110.677 19.8637C109.078 20.9408 108.304 22.5924 108.303 24.9249C108.303 27.0199 109.059 28.4972 110.787 29.7777C112.177 30.8076 115.202 30.7682 116.698 29.701C117.785 28.9256 117.801 28.9242 117.801 29.6162C117.801 30.1919 118.014 30.3177 118.988 30.3177H120.175V24.8903V19.4628H118.988C117.995 19.4628 117.801 19.5835 117.801 20.2002V20.938L116.942 20.131C115.641 18.9085 112.306 18.7664 110.677 19.8637ZM128.147 19.5333C127.066 20.1531 126.643 20.9004 126.631 22.2087C126.618 23.6769 127.134 24.1949 129.758 25.3509C131.337 26.0463 131.709 26.3618 131.709 27.0087C131.709 28.8086 129.423 29.2407 127.81 27.7458L126.865 26.8699L126.17 27.5643C125.483 28.2512 125.483 28.2658 126.132 28.9836C127.571 30.5732 129.761 31.064 131.975 30.2923C133.325 29.8215 134.083 28.639 134.083 27.0022C134.083 25.2949 133.62 24.7427 131.356 23.7501C128.97 22.7043 128.429 22.1124 129.177 21.3644C129.878 20.6633 131.005 20.6704 132.022 21.3828C132.778 21.9116 132.854 21.9079 133.285 21.3176C133.936 20.4268 133.871 20.2243 132.743 19.6412C131.571 19.0347 129.117 18.977 128.147 19.5333ZM27.5957 19.7372C27.5805 19.9913 27.3875 20.0788 27.1449 19.9418C26.8084 19.7518 26.8071 19.7956 27.1391 20.1538C27.6219 20.6741 28.0639 20.3963 27.8006 19.7386C27.6544 19.3729 27.6178 19.3725 27.5957 19.7372ZM104.232 24.8903V30.3177H105.419H106.607V24.8903V19.4628H105.419H104.232V24.8903ZM91.8425 22.091C92.3133 22.5622 92.6987 23.0792 92.6987 23.2403C92.6987 23.4014 91.2485 23.5334 89.4761 23.5334C86.0507 23.5334 85.5595 23.2491 86.8957 22.0398C88.3679 20.7074 90.4805 20.7291 91.8425 22.091ZM72.1221 21.8556C75.0628 24.1684 73.0454 29.1468 69.4416 28.4704C67.122 28.0355 65.8489 25.0633 67.0525 22.8923C68.0148 21.1558 70.5685 20.6334 72.1221 21.8556ZM116.453 22.1331C117.717 23.397 118.001 24.604 117.406 26.1769C116.042 29.7808 111.208 29.0274 110.77 25.1426C110.604 23.6677 110.678 23.4645 111.787 22.3553C113.362 20.7806 115.021 20.7016 116.453 22.1331ZM27.6351 29.8089C27.6419 30.3686 27.7179 30.5565 27.804 30.2265C27.8902 29.8964 27.8844 29.4385 27.7915 29.2088C27.6985 28.9792 27.6283 29.2492 27.6351 29.8089ZM23.7527 30.5423C23.9861 30.6366 24.3677 30.6366 24.6008 30.5423C24.8342 30.4483 24.6432 30.3713 24.1768 30.3713C23.7103 30.3713 23.5197 30.4483 23.7527 30.5423ZM37.6647 30.5576C38.0867 30.6386 38.6973 30.6356 39.0216 30.5508C39.3459 30.466 39.0006 30.3995 38.2543 30.4032C37.508 30.4069 37.2427 30.4765 37.6647 30.5576ZM21.152 31.4314C21.23 31.4843 21.5987 31.7513 21.9719 32.025C22.5994 32.4853 22.6153 32.4782 22.1849 31.929C21.9288 31.6027 21.5597 31.3354 21.365 31.3354C21.1703 31.3354 21.0743 31.3785 21.152 31.4314Z" fill="#020013"/>
<path fill-rule="evenodd" clip-rule="evenodd" d="M122.211 21.1589V30.3177H123.398H124.585V21.1589V12H123.398H122.211V21.1589ZM104.364 15.1978C104.262 15.4641 104.229 16.0367 104.29 16.4699C104.383 17.1229 104.605 17.2579 105.589 17.2579C106.57 17.2579 106.796 17.1222 106.887 16.476C106.948 16.0458 106.815 15.4736 106.591 15.2039C106.068 14.5733 104.606 14.5692 104.364 15.1978ZM78.1123 17.4275C78.1123 19.0106 77.9994 19.4628 77.6035 19.4628C77.287 19.4628 77.0947 19.783 77.0947 20.3108C77.0947 20.8156 77.2887 21.1589 77.5743 21.1589C77.9536 21.1589 78.0777 21.9818 78.168 25.0901C78.2799 28.9565 78.2982 29.0352 79.2762 29.8754C80.0866 30.5721 80.5147 30.697 81.5937 30.5525C83.2321 30.3327 83.3369 30.2292 83.0564 29.1108C82.8844 28.4252 82.6714 28.2529 82.1616 28.3862C80.8725 28.7234 80.4868 27.796 80.4868 24.3573V21.1589H81.8437C83.0649 21.1589 83.2006 21.0741 83.2006 20.3108C83.2006 19.5476 83.0649 19.4628 81.8437 19.4628H80.4868V17.4275V15.3922H79.2996H78.1123V17.4275ZM48.8548 19.6568C48.3145 19.9499 47.922 20.0157 47.922 19.8129C47.922 19.6202 47.3877 19.4628 46.7347 19.4628H45.5475V24.8903V30.3177H46.7347H47.922V26.6053C47.922 23.2444 47.9942 22.8088 48.6852 22.0056C49.7012 20.8244 51.5072 20.7348 52.3874 21.8217C52.9102 22.4672 53.0102 23.2111 53.0102 26.4544V30.3177H54.1975H55.3848V26.662C55.3848 22.7532 55.7247 21.7271 57.2003 21.1813C58.2281 20.8007 59.6338 21.3841 60.087 22.379C60.2993 22.8448 60.473 24.8217 60.473 26.7719V30.3177H61.6864H62.9001L62.7889 25.7095L62.6779 21.1015L61.57 20.1124C60.089 18.7905 57.7586 18.7277 55.9411 19.9614C55.262 20.4221 54.7063 20.6551 54.7063 20.4791C54.7063 19.8922 52.7236 19.1232 51.2463 19.1371C50.4441 19.1446 49.3681 19.3783 48.8548 19.6568ZM66.5789 19.8637C65.9259 20.3037 65.1247 21.1948 64.7987 21.8441C63.9524 23.528 64.0195 26.3346 64.9453 27.9819C66.4103 30.5884 70.1943 31.4127 72.654 29.6614C73.6994 28.9168 73.7025 28.9168 73.7025 29.6162C73.7025 30.1695 73.9176 30.3177 74.7201 30.3177H75.7378V24.8903V19.4628H74.7201C73.9013 19.4628 73.7025 19.6069 73.7025 20.2002V20.938L72.8436 20.131C71.5424 18.9085 68.2082 18.7664 66.5789 19.8637ZM86.2189 19.8895C84.8261 20.8152 83.5398 23.2247 83.5398 24.9089C83.5398 29.8581 90.1495 32.5478 93.7757 29.0738C94.9473 27.951 94.9653 27.6949 93.9046 27.2115C93.1912 26.8866 92.9209 26.9636 91.9697 27.7641C91.0284 28.5562 90.642 28.6691 89.3669 28.5257C87.7719 28.3459 86.5046 27.3645 86.0958 25.9927L85.8685 25.2295H90.471H95.0732L95.0725 24.127C95.0718 22.5785 94.0884 20.799 92.7333 19.8936C91.1094 18.8088 87.8485 18.8067 86.2189 19.8895ZM99.5587 19.6517C99.136 19.9475 98.8046 20.0222 98.8046 19.8213C98.8046 19.6242 98.2703 19.4628 97.6173 19.4628H96.4301V24.8903V30.3177H97.6173H98.8046V26.5711C98.8046 22.9971 98.8449 22.7837 99.6784 21.9503C100.402 21.2271 100.775 21.1063 101.846 21.2501C102.975 21.4014 103.188 21.3173 103.52 20.5873C103.73 20.1273 103.814 19.61 103.708 19.4373C103.389 18.9227 100.377 19.0784 99.5587 19.6517ZM110.677 19.8637C109.078 20.9408 108.304 22.5924 108.303 24.9249C108.303 27.0199 109.059 28.4972 110.787 29.7777C112.177 30.8076 115.202 30.7682 116.698 29.701C117.785 28.9256 117.801 28.9242 117.801 29.6162C117.801 30.1919 118.014 30.3177 118.988 30.3177H120.175V24.8903V19.4628H118.988C117.995 19.4628 117.801 19.5835 117.801 20.2002V20.938L116.942 20.131C115.641 18.9085 112.306 18.7664 110.677 19.8637ZM128.147 19.5333C127.066 20.1531 126.643 20.9004 126.631 22.2087C126.618 23.6769 127.134 24.1949 129.758 25.3509C131.337 26.0463 131.709 26.3618 131.709 27.0087C131.709 28.8086 129.423 29.2407 127.81 27.7458L126.865 26.8699L126.17 27.5643C125.483 28.2512 125.483 28.2658 126.132 28.9836C127.571 30.5732 129.761 31.064 131.975 30.2923C133.325 29.8215 134.083 28.639 134.083 27.0022C134.083 25.2949 133.62 24.7427 131.356 23.7501C128.97 22.7043 128.429 22.1124 129.177 21.3644C129.878 20.6633 131.005 20.6704 132.022 21.3828C132.778 21.9116 132.854 21.9079 133.285 21.3176C133.936 20.4268 133.871 20.2243 132.743 19.6412C131.571 19.0347 129.117 18.977 128.147 19.5333ZM27.5957 19.7372C27.5805 19.9913 27.3875 20.0788 27.1449 19.9418C26.8084 19.7518 26.8071 19.7956 27.1391 20.1538C27.6219 20.6741 28.0639 20.3963 27.8006 19.7386C27.6544 19.3729 27.6178 19.3725 27.5957 19.7372ZM104.232 24.8903V30.3177H105.419H106.607V24.8903V19.4628H105.419H104.232V24.8903ZM91.8425 22.091C92.3133 22.5622 92.6987 23.0792 92.6987 23.2403C92.6987 23.4014 91.2485 23.5334 89.4761 23.5334C86.0507 23.5334 85.5595 23.2491 86.8957 22.0398C88.3679 20.7074 90.4805 20.7291 91.8425 22.091ZM72.1221 21.8556C75.0628 24.1684 73.0454 29.1468 69.4416 28.4704C67.122 28.0355 65.8489 25.0633 67.0525 22.8923C68.0148 21.1558 70.5685 20.6334 72.1221 21.8556ZM116.453 22.1331C117.717 23.397 118.001 24.604 117.406 26.1769C116.042 29.7808 111.208 29.0274 110.77 25.1426C110.604 23.6677 110.678 23.4645 111.787 22.3553C113.362 20.7806 115.021 20.7016 116.453 22.1331ZM27.6351 29.8089C27.6419 30.3686 27.7179 30.5565 27.804 30.2265C27.8902 29.8964 27.8844 29.4385 27.7915 29.2088C27.6985 28.9792 27.6283 29.2492 27.6351 29.8089ZM23.7527 30.5423C23.9861 30.6366 24.3677 30.6366 24.6008 30.5423C24.8342 30.4483 24.6432 30.3713 24.1768 30.3713C23.7103 30.3713 23.5197 30.4483 23.7527 30.5423ZM37.6647 30.5576C38.0867 30.6386 38.6973 30.6356 39.0216 30.5508C39.3459 30.466 39.0006 30.3995 38.2543 30.4032C37.508 30.4069 37.2427 30.4765 37.6647 30.5576ZM21.152 31.4314C21.23 31.4843 21.5987 31.7513 21.9719 32.025C22.5994 32.4853 22.6153 32.4782 22.1849 31.929C21.9288 31.6027 21.5597 31.3354 21.365 31.3354C21.1703 31.3354 21.0743 31.3785 21.152 31.4314Z" fill="#908E9F"/>
<path fill-rule="evenodd" clip-rule="evenodd" d="M122.21 21.1589V30.3177H123.397H124.585V21.1589V12H123.397H122.21V21.1589ZM104.364 15.1978C104.261 15.4641 104.228 16.0367 104.289 16.4699C104.382 17.1229 104.604 17.2579 105.588 17.2579C106.57 17.2579 106.795 17.1222 106.887 16.476C106.947 16.0458 106.814 15.4736 106.59 15.2039C106.067 14.5733 104.605 14.5692 104.364 15.1978ZM78.1117 17.4275C78.1117 19.0106 77.9988 19.4628 77.6029 19.4628C77.2864 19.4628 77.0941 19.783 77.0941 20.3108C77.0941 20.8156 77.2881 21.1589 77.5737 21.1589C77.953 21.1589 78.0771 21.9818 78.1674 25.0901C78.2793 28.9565 78.2976 29.0352 79.2756 29.8754C80.086 30.5721 80.5141 30.697 81.5931 30.5525C83.2315 30.3327 83.3364 30.2292 83.0558 29.1108C82.8839 28.4252 82.6708 28.2529 82.161 28.3862C80.872 28.7234 80.4863 27.796 80.4863 24.3573V21.1589H81.8431C83.0643 21.1589 83.2 21.0741 83.2 20.3108C83.2 19.5476 83.0643 19.4628 81.8431 19.4628H80.4863V17.4275V15.3922H79.299H78.1117V17.4275ZM48.8542 19.6568C48.3139 19.9499 47.9214 20.0157 47.9214 19.8129C47.9214 19.6202 47.3871 19.4628 46.7341 19.4628H45.5469V24.8903V30.3177H46.7341H47.9214V26.6053C47.9214 23.2444 47.9936 22.8088 48.6846 22.0056C49.7006 20.8244 51.5066 20.7348 52.3869 21.8217C52.9096 22.4672 53.0097 23.2111 53.0097 26.4544V30.3177H54.1969H55.3842V26.662C55.3842 22.7532 55.7241 21.7271 57.1997 21.1813C58.2275 20.8007 59.6332 21.3841 60.0864 22.379C60.2988 22.8448 60.4724 24.8217 60.4724 26.7719V30.3177H61.6858H62.8995L62.7883 25.7095L62.6774 21.1015L61.5695 20.1124C60.0884 18.7905 57.758 18.7277 55.9405 19.9614C55.2614 20.4221 54.7057 20.6551 54.7057 20.4791C54.7057 19.8922 52.723 19.1232 51.2457 19.1371C50.4435 19.1446 49.3675 19.3783 48.8542 19.6568ZM66.5784 19.8637C65.9254 20.3037 65.1241 21.1948 64.7981 21.8441C63.9518 23.528 64.019 26.3346 64.9447 27.9819C66.4098 30.5884 70.1937 31.4127 72.6534 29.6614C73.6989 28.9168 73.7019 28.9168 73.7019 29.6162C73.7019 30.1695 73.917 30.3177 74.7196 30.3177H75.7372V24.8903V19.4628H74.7196C73.9007 19.4628 73.7019 19.6069 73.7019 20.2002V20.938L72.843 20.131C71.5418 18.9085 68.2076 18.7664 66.5784 19.8637ZM86.2184 19.8895C84.8255 20.8152 83.5392 23.2247 83.5392 24.9089C83.5392 29.8581 90.1489 32.5478 93.7751 29.0738C94.9468 27.951 94.9647 27.6949 93.904 27.2115C93.1906 26.8866 92.9203 26.9636 91.9691 27.7641C91.0278 28.5562 90.6414 28.6691 89.3663 28.5257C87.7713 28.3459 86.504 27.3645 86.0952 25.9927L85.868 25.2295H90.4704H95.0726L95.0719 24.127C95.0713 22.5785 94.0879 20.799 92.7327 19.8936C91.1089 18.8088 87.848 18.8067 86.2184 19.8895ZM99.5581 19.6517C99.1354 19.9475 98.804 20.0222 98.804 19.8213C98.804 19.6242 98.2697 19.4628 97.6167 19.4628H96.4295V24.8903V30.3177H97.6167H98.804V26.5711C98.804 22.9971 98.8444 22.7837 99.6778 21.9503C100.401 21.2271 100.775 21.1063 101.845 21.2501C102.974 21.4014 103.187 21.3173 103.52 20.5873C103.729 20.1273 103.814 19.61 103.707 19.4373C103.389 18.9227 100.376 19.0784 99.5581 19.6517ZM110.677 19.8637C109.078 20.9408 108.303 22.5924 108.303 24.9249C108.302 27.0199 109.058 28.4972 110.786 29.7777C112.176 30.8076 115.201 30.7682 116.698 29.701C117.785 28.9256 117.8 28.9242 117.8 29.6162C117.8 30.1919 118.013 30.3177 118.987 30.3177H120.175V24.8903V19.4628H118.987C117.995 19.4628 117.8 19.5835 117.8 20.2002V20.938L116.941 20.131C115.64 18.9085 112.306 18.7664 110.677 19.8637ZM128.146 19.5333C127.066 20.1531 126.642 20.9004 126.631 22.2087C126.618 23.6769 127.133 24.1949 129.758 25.3509C131.337 26.0463 131.708 26.3618 131.708 27.0087C131.708 28.8086 129.422 29.2407 127.809 27.7458L126.864 26.8699L126.17 27.5643C125.482 28.2512 125.482 28.2658 126.132 28.9836C127.57 30.5732 129.761 31.064 131.974 30.2923C133.325 29.8215 134.083 28.639 134.083 27.0022C134.083 25.2949 133.619 24.7427 131.355 23.7501C128.969 22.7043 128.429 22.1124 129.176 21.3644C129.878 20.6633 131.005 20.6704 132.022 21.3828C132.777 21.9116 132.853 21.9079 133.284 21.3176C133.936 20.4268 133.87 20.2243 132.743 19.6412C131.57 19.0347 129.116 18.977 128.146 19.5333ZM104.231 24.8903V30.3177H105.419H106.606V24.8903V19.4628H105.419H104.231V24.8903ZM91.8419 22.091C92.3127 22.5622 92.6981 23.0792 92.6981 23.2403C92.6981 23.4014 91.2479 23.5334 89.4755 23.5334C86.0501 23.5334 85.5589 23.2491 86.8951 22.0398C88.3673 20.7074 90.4799 20.7291 91.8419 22.091ZM72.1215 21.8556C75.0622 24.1684 73.0449 29.1468 69.441 28.4704C67.1214 28.0355 65.8484 25.0633 67.0519 22.8923C68.0143 21.1558 70.5679 20.6334 72.1215 21.8556ZM116.452 22.1331C117.716 23.397 118.001 24.604 117.405 26.1769C116.041 29.7808 111.207 29.0274 110.77 25.1426C110.604 23.6677 110.678 23.4645 111.787 22.3553C113.362 20.7806 115.021 20.7016 116.452 22.1331Z" fill="#908E9F"/>
</svg>
