<svg width="140" height="48" viewBox="0 0 140 48" fill="none" xmlns="http://www.w3.org/2000/svg">
<path fill-rule="evenodd" clip-rule="evenodd" d="M70.8053 18.6599V21.3198L70.4342 20.9652C69.1787 19.7653 66.8276 19.7483 65.448 20.9291C63.1765 22.8734 63.0365 28.7388 65.2097 30.9121C66.6536 32.3559 69.1249 32.3503 70.4925 30.9002C70.7457 30.6319 70.9714 30.4347 70.9942 30.4622C71.017 30.4896 71.2021 30.8005 71.4056 31.1531L71.7755 31.794H73.3829H74.9903L74.9555 23.9343L74.9207 16.0745L72.863 16.0372L70.8053 16V18.6599ZM88.9161 16.1973C87.6858 16.5987 86.7336 17.7128 86.4489 19.0839C86.1546 20.5016 86.7637 23.5057 88.2598 28.0159C89.5786 31.9913 89.6721 32.1759 90.2017 31.8496C90.6351 31.5826 92.8145 24.7115 93.3334 21.9764C93.6612 20.2483 93.6797 19.3661 93.4047 18.561C93.1426 17.7935 92.249 16.7508 91.5463 16.3922C90.8534 16.0387 89.6705 15.951 88.9161 16.1973ZM90.9017 18.4124C91.1546 18.548 91.4725 18.8659 91.6081 19.1188C92.4929 20.7685 90.6969 22.579 89.1026 21.6449C86.9689 20.3946 88.7227 17.2438 90.9017 18.4124ZM41.5251 20.2572C40.3418 20.4959 39.0963 20.9783 39.0963 21.1981C39.0963 21.3562 40.1159 23.6831 40.2391 23.8063C40.2654 23.8327 40.7205 23.6979 41.2504 23.5067C43.1393 22.8252 44.3317 22.9047 44.6198 23.731C44.6988 23.9577 44.7635 24.1948 44.7635 24.258C44.7635 24.3211 44.3233 24.374 43.7852 24.3755C39.6984 24.3867 37.6632 25.8824 37.9177 28.6882C38.0489 30.1354 38.7269 31.1655 39.9059 31.7085C40.3775 31.9257 40.7715 31.9863 41.6698 31.9794C43.0068 31.9694 43.9484 31.6233 44.784 30.8352L45.2768 30.3704L45.6258 31.0823L45.9749 31.794H47.4691H48.9632L48.9211 27.4425C48.8798 23.1886 48.8716 23.0749 48.5565 22.3774C48.1167 21.4042 47.2485 20.6646 46.1463 20.3242C45.1156 20.0059 42.9287 19.9741 41.5251 20.2572ZM56.6375 20.263C55.8344 20.4878 54.9474 21.0324 54.7336 21.4319C54.5479 21.779 54.4089 21.6473 54.2096 20.9355L54.0387 20.3248H52.437H50.8354V26.0594V31.794H52.9268H55.0183L55.0191 28.5219C55.0199 24.9511 55.0987 24.4065 55.7028 23.8024C56.0385 23.4667 56.1786 23.419 56.7222 23.4544C57.2308 23.4878 57.4071 23.5693 57.6358 23.8764C57.9054 24.2383 57.9213 24.4421 57.9609 28.0255L58.0024 31.794H60.0861H62.1697V27.6357C62.1697 23.0069 62.1056 22.5466 61.317 21.5129C60.4006 20.3112 58.387 19.7734 56.6375 20.263ZM82.6118 20.3256C81.9247 20.6044 81.359 21.0466 80.836 21.7131L80.5444 22.0849L80.2515 21.2049L79.9587 20.3248H78.4179H76.8772V26.0594V31.794H78.8924H80.9075L80.9501 28.5894C80.9867 25.8331 81.026 25.3238 81.2311 24.9485C81.6073 24.2601 82.157 24.0435 83.5217 24.0458L84.7014 24.0477L84.7673 23.6369C84.8838 22.9107 85.1095 20.2814 85.0598 20.2315C85.0332 20.205 84.6234 20.1537 84.149 20.1176C83.4816 20.0666 83.1339 20.1137 82.6118 20.3256ZM97.3868 20.2508C96.2696 20.4843 94.9581 20.9763 94.9581 21.1618C94.9581 21.3588 96.0501 23.8331 96.1371 23.8331C96.1757 23.8331 96.6277 23.6814 97.1414 23.4961C99.0008 22.8254 100.195 22.9094 100.481 23.731C100.561 23.9577 100.625 24.1948 100.625 24.258C100.625 24.3211 100.155 24.3732 99.5795 24.3739C97.5457 24.3757 95.7481 24.8523 94.8716 25.622C94.1003 26.2992 93.8263 26.9745 93.8182 28.2183C93.8093 29.588 94.099 30.3752 94.8754 31.0909C95.6352 31.7913 96.2688 31.9979 97.5984 31.9789C98.9094 31.9601 99.7533 31.6355 100.571 30.8348L101.124 30.2934L101.448 31.0449L101.772 31.7965L103.256 31.7615L104.741 31.7266L104.73 27.4762C104.72 23.8641 104.685 23.1379 104.495 22.6403C104.133 21.6913 103.532 21.0525 102.544 20.5657C101.686 20.1432 101.565 20.1211 99.9538 20.0949C98.94 20.0784 97.9129 20.1408 97.3868 20.2508ZM112.554 20.2362C111.746 20.4425 110.993 20.8802 110.61 21.367C110.289 21.7753 110.3 21.782 110.044 20.9995L109.846 20.3923L108.204 20.3544L106.562 20.3165V26.0552V31.794H108.654H110.745L110.746 28.9942C110.748 24.4342 111.064 23.4283 112.494 23.4283C113.073 23.4283 113.295 23.5519 113.55 24.018C113.749 24.3813 113.787 24.9545 113.824 28.1206L113.868 31.8009L115.916 31.7638L117.964 31.7266V27.5437C117.964 22.9177 117.917 22.5693 117.155 21.5199C116.295 20.3354 114.322 19.7848 112.554 20.2362ZM19.5312 20.4121C19.5312 20.5181 22.3175 30.7335 22.5169 31.3587L22.6578 31.8006L24.8283 31.7635L26.9988 31.7266L27.5814 29.2978C27.9019 27.962 28.2615 26.3529 28.3803 25.7221C28.6887 24.0869 28.7205 24.0554 28.9199 25.187C29.0186 25.7461 29.3969 27.4463 29.7608 28.965L30.4224 31.7266L32.6403 31.7634L34.858 31.8002L36.3902 26.2312C37.2329 23.1682 37.9501 20.5863 37.9841 20.4935C38.0317 20.3633 37.5836 20.3248 36.0204 20.3248H33.995L33.5113 22.3825C32.8676 25.1198 32.762 25.6436 32.6465 26.6717L32.5487 27.5437L31.8118 23.9343L31.0751 20.3248H28.7766H26.4781L25.8301 23.2596C25.4738 24.8738 25.1367 26.498 25.0813 26.869L24.9803 27.5437L24.8762 26.7341C24.7767 25.9611 23.7904 21.0547 23.6352 20.561C23.5689 20.3499 23.3468 20.3248 21.5462 20.3248C20.438 20.3248 19.5312 20.3641 19.5312 20.4121ZM70.2927 23.7463C70.7188 24.0125 70.9402 24.8392 70.94 26.1633C70.9397 27.7424 70.7137 28.2683 69.9169 28.5438C69.4164 28.7168 69.3175 28.7107 68.8374 28.4763C68.1121 28.1221 67.8082 27.2815 67.887 25.846C67.9805 24.141 68.6017 23.324 69.6539 23.522C69.8741 23.5636 70.1615 23.6645 70.2927 23.7463ZM44.6285 27.4066C44.6285 28.258 44.115 28.8253 43.2568 28.922C42.2844 29.0317 41.8228 28.4251 42.2183 27.5572C42.4115 27.1329 43.157 26.8175 43.9876 26.8086L44.6285 26.8016V27.4066ZM100.76 27.4066C100.76 28.258 100.247 28.8253 99.3884 28.922C98.416 29.0317 97.9544 28.4251 98.3499 27.5572C98.5431 27.1329 99.2886 26.8175 100.119 26.8086L100.76 26.8016V27.4066ZM119.56 29.6969C118.559 30.1323 118.579 31.4509 119.594 31.8747C119.994 32.0418 120.117 32.0418 120.517 31.8747C121.548 31.444 121.55 30.1211 120.521 29.6911C119.984 29.4669 120.09 29.4662 119.56 29.6969ZM119.506 30.8158C119.499 31.3653 119.477 31.4146 119.355 31.1617C119.225 30.8934 119.295 30.1748 119.451 30.1748C119.486 30.1748 119.512 30.4632 119.506 30.8158ZM120.863 30.8078C120.865 31.1285 120.661 31.3344 120.538 31.1354C120.496 31.0677 120.5 30.8189 120.547 30.5826C120.641 30.1128 120.859 30.2682 120.863 30.8078ZM120.188 31.423C120.189 31.4786 120.13 31.5242 120.055 31.5242C119.981 31.5242 119.921 31.3876 119.922 31.2206C119.924 30.9751 119.95 30.9557 120.055 31.1194C120.127 31.2307 120.187 31.3674 120.188 31.423Z" fill="#908E9F"/>
<path fill-rule="evenodd" clip-rule="evenodd" d="M70.8053 18.6599V21.3198L70.4342 20.9652C69.1787 19.7653 66.8276 19.7483 65.448 20.9291C63.1765 22.8734 63.0365 28.7388 65.2097 30.9121C66.6536 32.3559 69.1249 32.3503 70.4925 30.9002C70.7457 30.6319 70.9714 30.4347 70.9942 30.4622C71.017 30.4896 71.2021 30.8005 71.4056 31.1531L71.7755 31.794H73.3829H74.9903L74.9555 23.9343L74.9207 16.0745L72.863 16.0372L70.8053 16V18.6599ZM88.9161 16.1973C87.7059 16.5921 86.7289 17.7352 86.449 19.0835C86.107 20.731 87.1335 25.0584 89.2723 30.9844C89.5748 31.8226 89.8419 32.0713 90.2017 31.8496C90.5899 31.6104 92.6136 25.379 93.2046 22.6033C93.6193 20.6555 93.6815 19.5626 93.4266 18.6992C93.1666 17.8178 92.3308 16.7925 91.5463 16.3922C90.8534 16.0387 89.6705 15.951 88.9161 16.1973ZM90.8539 18.3826C91.7766 18.8206 92.1335 20.0682 91.5907 20.9585C91.0294 21.879 89.9889 22.1662 89.1026 21.6457C86.9937 20.4067 88.6431 17.3337 90.8539 18.3826ZM41.5251 20.2572C40.3418 20.4959 39.0963 20.9783 39.0963 21.1981C39.0963 21.3562 40.1159 23.6831 40.2391 23.8063C40.2654 23.8327 40.7205 23.6979 41.2504 23.5067C43.1393 22.8252 44.3317 22.9047 44.6198 23.731C44.6988 23.9577 44.7635 24.1948 44.7635 24.258C44.7635 24.3211 44.3233 24.374 43.7852 24.3755C39.6984 24.3867 37.6632 25.8824 37.9177 28.6882C38.0489 30.1354 38.7269 31.1655 39.9059 31.7085C40.3775 31.9257 40.7715 31.9863 41.6698 31.9794C43.0068 31.9694 43.9484 31.6233 44.784 30.8352L45.2768 30.3704L45.6258 31.0823L45.9749 31.794H47.4691H48.9632L48.9211 27.4425C48.8798 23.1886 48.8716 23.0749 48.5565 22.3774C48.1167 21.4042 47.2485 20.6646 46.1463 20.3242C45.1156 20.0059 42.9287 19.9741 41.5251 20.2572ZM56.6375 20.263C55.8344 20.4878 54.9474 21.0324 54.7336 21.4319C54.5479 21.779 54.4089 21.6473 54.2096 20.9355L54.0387 20.3248H52.437H50.8354V26.0594V31.794H52.9268H55.0183L55.0191 28.5219C55.0199 24.9511 55.0987 24.4065 55.7028 23.8024C56.0385 23.4667 56.1786 23.419 56.7222 23.4544C57.2308 23.4878 57.4071 23.5693 57.6358 23.8764C57.9054 24.2383 57.9213 24.4421 57.9609 28.0255L58.0024 31.794H60.0861H62.1697V27.6357C62.1697 23.0069 62.1056 22.5466 61.317 21.5129C60.4006 20.3112 58.387 19.7734 56.6375 20.263ZM82.6118 20.3256C81.9247 20.6044 81.359 21.0466 80.836 21.7131L80.5444 22.0849L80.2515 21.2049L79.9587 20.3248H78.4179H76.8772V26.0594V31.794H78.8924H80.9075L80.9501 28.5894C80.9867 25.8331 81.026 25.3238 81.2311 24.9485C81.6073 24.2601 82.157 24.0435 83.5217 24.0458L84.7014 24.0477L84.7673 23.6369C84.8838 22.9107 85.1095 20.2814 85.0598 20.2315C85.0332 20.205 84.6234 20.1537 84.149 20.1176C83.4816 20.0666 83.1339 20.1137 82.6118 20.3256ZM97.3868 20.2508C96.2696 20.4843 94.9581 20.9763 94.9581 21.1618C94.9581 21.3588 96.0501 23.8331 96.1371 23.8331C96.1757 23.8331 96.6277 23.6814 97.1414 23.4961C99.0008 22.8254 100.195 22.9094 100.481 23.731C100.561 23.9577 100.625 24.1948 100.625 24.258C100.625 24.3211 100.155 24.3732 99.5795 24.3739C97.5457 24.3757 95.7481 24.8523 94.8716 25.622C94.1003 26.2992 93.8263 26.9745 93.8182 28.2183C93.8093 29.588 94.099 30.3752 94.8754 31.0909C95.6352 31.7913 96.2688 31.9979 97.5984 31.9789C98.9094 31.9601 99.7533 31.6355 100.571 30.8348L101.124 30.2934L101.448 31.0449L101.772 31.7965L103.256 31.7615L104.741 31.7266L104.73 27.4762C104.72 23.8641 104.685 23.1379 104.495 22.6403C104.133 21.6913 103.532 21.0525 102.544 20.5657C101.686 20.1432 101.565 20.1211 99.9538 20.0949C98.94 20.0784 97.9129 20.1408 97.3868 20.2508ZM112.554 20.2362C111.746 20.4425 110.993 20.8802 110.61 21.367C110.289 21.7753 110.3 21.782 110.044 20.9995L109.846 20.3923L108.204 20.3544L106.562 20.3165V26.0552V31.794H108.654H110.745L110.746 28.9942C110.748 24.4342 111.064 23.4283 112.494 23.4283C113.073 23.4283 113.295 23.5519 113.55 24.018C113.749 24.3813 113.787 24.9545 113.824 28.1206L113.868 31.8009L115.916 31.7638L117.964 31.7266V27.5437C117.964 22.9177 117.917 22.5693 117.155 21.5199C116.295 20.3354 114.322 19.7848 112.554 20.2362ZM19.5312 20.4121C19.5312 20.5181 22.3175 30.7335 22.5169 31.3587L22.6578 31.8006L24.8283 31.7635L26.9988 31.7266L27.5814 29.2978C27.9019 27.962 28.2615 26.3529 28.3803 25.7221C28.6887 24.0869 28.7205 24.0554 28.9199 25.187C29.0186 25.7461 29.3969 27.4463 29.7608 28.965L30.4224 31.7266L32.6403 31.7634L34.858 31.8002L36.3902 26.2312C37.2329 23.1682 37.9501 20.5863 37.9841 20.4935C38.0317 20.3633 37.5836 20.3248 36.0204 20.3248H33.995L33.5113 22.3825C32.8676 25.1198 32.762 25.6436 32.6465 26.6717L32.5487 27.5437L31.8118 23.9343L31.0751 20.3248H28.7766H26.4781L25.8301 23.2596C25.4738 24.8738 25.1367 26.498 25.0813 26.869L24.9803 27.5437L24.8762 26.7341C24.7767 25.9611 23.7904 21.0547 23.6352 20.561C23.5689 20.3499 23.3468 20.3248 21.5462 20.3248C20.438 20.3248 19.5312 20.3641 19.5312 20.4121ZM70.2927 23.7463C70.7188 24.0125 70.9402 24.8392 70.94 26.1633C70.9397 27.7424 70.7137 28.2683 69.9169 28.5438C69.4164 28.7168 69.3175 28.7107 68.8374 28.4763C68.1121 28.1221 67.8082 27.2815 67.887 25.846C67.9805 24.141 68.6017 23.324 69.6539 23.522C69.8741 23.5636 70.1615 23.6645 70.2927 23.7463ZM44.6285 27.4066C44.6285 28.258 44.115 28.8253 43.2568 28.922C42.2844 29.0317 41.8228 28.4251 42.2183 27.5572C42.4115 27.1329 43.157 26.8175 43.9876 26.8086L44.6285 26.8016V27.4066ZM100.76 27.4066C100.76 28.258 100.247 28.8253 99.3884 28.922C98.416 29.0317 97.9544 28.4251 98.3499 27.5572C98.5431 27.1329 99.2886 26.8175 100.119 26.8086L100.76 26.8016V27.4066ZM119.56 29.6969C118.559 30.1323 118.579 31.4509 119.594 31.8747C119.994 32.0418 120.117 32.0418 120.517 31.8747C121.548 31.444 121.55 30.1211 120.521 29.6911C119.984 29.4669 120.09 29.4662 119.56 29.6969ZM119.506 30.8158C119.499 31.3653 119.477 31.4146 119.355 31.1617C119.225 30.8934 119.295 30.1748 119.451 30.1748C119.486 30.1748 119.512 30.4632 119.506 30.8158ZM120.863 30.8078C120.865 31.1285 120.661 31.3344 120.538 31.1354C120.496 31.0677 120.5 30.8189 120.547 30.5826C120.641 30.1128 120.859 30.2682 120.863 30.8078ZM120.188 31.423C120.189 31.4786 120.13 31.5242 120.055 31.5242C119.981 31.5242 119.921 31.3876 119.922 31.2206C119.924 30.9751 119.95 30.9557 120.055 31.1194C120.127 31.2307 120.187 31.3674 120.188 31.423Z" fill="#908E9F"/>
<path fill-rule="evenodd" clip-rule="evenodd" d="M70.8053 18.6599V21.3198L70.4342 20.9652C69.1787 19.7653 66.8276 19.7483 65.448 20.9291C63.1765 22.8734 63.0365 28.7388 65.2097 30.9121C66.6536 32.3559 69.1249 32.3503 70.4925 30.9002C70.7457 30.6319 70.9714 30.4347 70.9942 30.4622C71.017 30.4896 71.2021 30.8005 71.4056 31.1531L71.7755 31.794H73.3829H74.9903L74.9555 23.9343L74.9207 16.0745L72.863 16.0372L70.8053 16V18.6599ZM88.9161 16.1973C87.7048 16.5925 86.7289 17.7352 86.4482 19.087C86.1088 20.7221 87.1046 24.9137 89.2747 30.9844C89.5746 31.8232 89.8419 32.0721 90.2017 31.8479C90.5318 31.6422 92.386 26.0791 93.0306 23.3608C93.3442 22.0386 93.6084 20.4305 93.6086 19.8434C93.609 18.4906 92.7098 16.9858 91.5463 16.3922C90.8534 16.0387 89.6705 15.951 88.9161 16.1973ZM90.8539 18.3826C91.5516 18.7137 91.9019 19.3807 91.8209 20.2239C91.7654 20.8006 91.675 20.988 91.2757 21.3541C90.6501 21.9273 89.9835 22.054 89.2743 21.7342C87.8589 21.0958 87.7148 19.3356 89.0073 18.4722C89.5466 18.1118 90.215 18.0794 90.8539 18.3826ZM41.5251 20.2572C40.3418 20.4959 39.0963 20.9783 39.0963 21.1981C39.0963 21.3562 40.1159 23.6831 40.2391 23.8063C40.2654 23.8327 40.7205 23.6979 41.2504 23.5067C43.1393 22.8252 44.3317 22.9047 44.6198 23.731C44.6988 23.9577 44.7635 24.1948 44.7635 24.258C44.7635 24.3211 44.3233 24.374 43.7852 24.3755C39.6984 24.3867 37.6632 25.8824 37.9177 28.6882C38.0489 30.1354 38.7269 31.1655 39.9059 31.7085C40.3775 31.9257 40.7715 31.9863 41.6698 31.9794C43.0068 31.9694 43.9484 31.6233 44.784 30.8352L45.2768 30.3704L45.6258 31.0823L45.9749 31.794H47.4691H48.9632L48.9211 27.4425C48.8798 23.1886 48.8716 23.0749 48.5565 22.3774C48.1167 21.4042 47.2485 20.6646 46.1463 20.3242C45.1156 20.0059 42.9287 19.9741 41.5251 20.2572ZM56.6375 20.263C55.8344 20.4878 54.9474 21.0324 54.7336 21.4319C54.5479 21.779 54.4089 21.6473 54.2096 20.9355L54.0387 20.3248H52.437H50.8354V26.0594V31.794H52.9268H55.0183L55.0191 28.5219C55.0199 24.9511 55.0987 24.4065 55.7028 23.8024C56.0385 23.4667 56.1786 23.419 56.7222 23.4544C57.2308 23.4878 57.4071 23.5693 57.6358 23.8764C57.9054 24.2383 57.9213 24.4421 57.9609 28.0255L58.0024 31.794H60.0861H62.1697V27.6357C62.1697 23.0069 62.1056 22.5466 61.317 21.5129C60.4006 20.3112 58.387 19.7734 56.6375 20.263ZM82.6118 20.3256C81.9247 20.6044 81.359 21.0466 80.836 21.7131L80.5444 22.0849L80.2515 21.2049L79.9587 20.3248H78.4179H76.8772V26.0594V31.794H78.8924H80.9075L80.9501 28.5894C80.9867 25.8331 81.026 25.3238 81.2311 24.9485C81.6073 24.2601 82.157 24.0435 83.5217 24.0458L84.7014 24.0477L84.7673 23.6369C84.8838 22.9107 85.1095 20.2814 85.0598 20.2315C85.0332 20.205 84.6234 20.1537 84.149 20.1176C83.4816 20.0666 83.1339 20.1137 82.6118 20.3256ZM97.3868 20.2508C96.2696 20.4843 94.9581 20.9763 94.9581 21.1618C94.9581 21.3588 96.0501 23.8331 96.1371 23.8331C96.1757 23.8331 96.6277 23.6814 97.1414 23.4961C99.0008 22.8254 100.195 22.9094 100.481 23.731C100.561 23.9577 100.625 24.1948 100.625 24.258C100.625 24.3211 100.155 24.3732 99.5795 24.3739C97.5457 24.3757 95.7481 24.8523 94.8716 25.622C94.1003 26.2992 93.8263 26.9745 93.8182 28.2183C93.8093 29.588 94.099 30.3752 94.8754 31.0909C95.6352 31.7913 96.2688 31.9979 97.5984 31.9789C98.9094 31.9601 99.7533 31.6355 100.571 30.8348L101.124 30.2934L101.448 31.0449L101.772 31.7965L103.256 31.7615L104.741 31.7266L104.73 27.4762C104.72 23.8641 104.685 23.1379 104.495 22.6403C104.133 21.6913 103.532 21.0525 102.544 20.5657C101.686 20.1432 101.565 20.1211 99.9538 20.0949C98.94 20.0784 97.9129 20.1408 97.3868 20.2508ZM112.554 20.2362C111.746 20.4425 110.993 20.8802 110.61 21.367C110.289 21.7753 110.3 21.782 110.044 20.9995L109.846 20.3923L108.204 20.3544L106.562 20.3165V26.0552V31.794H108.654H110.745L110.746 28.9942C110.748 24.4342 111.064 23.4283 112.494 23.4283C113.073 23.4283 113.295 23.5519 113.55 24.018C113.749 24.3813 113.787 24.9545 113.824 28.1206L113.868 31.8009L115.916 31.7638L117.964 31.7266V27.5437C117.964 22.9177 117.917 22.5693 117.155 21.5199C116.295 20.3354 114.322 19.7848 112.554 20.2362ZM19.5312 20.4121C19.5312 20.5181 22.3175 30.7335 22.5169 31.3587L22.6578 31.8006L24.8283 31.7635L26.9988 31.7266L27.5814 29.2978C27.9019 27.962 28.2615 26.3529 28.3803 25.7221C28.6887 24.0869 28.7205 24.0554 28.9199 25.187C29.0186 25.7461 29.3969 27.4463 29.7608 28.965L30.4224 31.7266L32.6403 31.7634L34.858 31.8002L36.3902 26.2312C37.2329 23.1682 37.9501 20.5863 37.9841 20.4935C38.0317 20.3633 37.5836 20.3248 36.0204 20.3248H33.995L33.5113 22.3825C32.8676 25.1198 32.762 25.6436 32.6465 26.6717L32.5487 27.5437L31.8118 23.9343L31.0751 20.3248H28.7766H26.4781L25.8301 23.2596C25.4738 24.8738 25.1367 26.498 25.0813 26.869L24.9803 27.5437L24.8762 26.7341C24.7767 25.9611 23.7904 21.0547 23.6352 20.561C23.5689 20.3499 23.3468 20.3248 21.5462 20.3248C20.438 20.3248 19.5312 20.3641 19.5312 20.4121ZM70.2927 23.7463C70.7188 24.0125 70.9402 24.8392 70.94 26.1633C70.9397 27.7424 70.7137 28.2683 69.9169 28.5438C69.4164 28.7168 69.3175 28.7107 68.8374 28.4763C68.1121 28.1221 67.8082 27.2815 67.887 25.846C67.9805 24.141 68.6017 23.324 69.6539 23.522C69.8741 23.5636 70.1615 23.6645 70.2927 23.7463ZM44.6285 27.4066C44.6285 28.258 44.115 28.8253 43.2568 28.922C42.2844 29.0317 41.8228 28.4251 42.2183 27.5572C42.4115 27.1329 43.157 26.8175 43.9876 26.8086L44.6285 26.8016V27.4066ZM100.76 27.4066C100.76 28.258 100.247 28.8253 99.3884 28.922C98.416 29.0317 97.9544 28.4251 98.3499 27.5572C98.5431 27.1329 99.2886 26.8175 100.119 26.8086L100.76 26.8016V27.4066ZM119.56 29.6969C118.559 30.1323 118.579 31.4509 119.594 31.8747C119.994 32.0418 120.117 32.0418 120.517 31.8747C121.548 31.444 121.55 30.1211 120.521 29.6911C119.984 29.4669 120.09 29.4662 119.56 29.6969ZM119.506 30.8158C119.499 31.3653 119.477 31.4146 119.355 31.1617C119.225 30.8934 119.295 30.1748 119.451 30.1748C119.486 30.1748 119.512 30.4632 119.506 30.8158ZM120.863 30.8078C120.865 31.1285 120.661 31.3344 120.538 31.1354C120.496 31.0677 120.5 30.8189 120.547 30.5826C120.641 30.1128 120.859 30.2682 120.863 30.8078ZM120.188 31.423C120.189 31.4786 120.13 31.5242 120.055 31.5242C119.981 31.5242 119.921 31.3876 119.922 31.2206C119.924 30.9751 119.95 30.9557 120.055 31.1194C120.127 31.2307 120.187 31.3674 120.188 31.423Z" fill="#908E9F"/>
<path fill-rule="evenodd" clip-rule="evenodd" d="M70.8053 18.6599V21.3198L70.4342 20.9652C69.1787 19.7653 66.8276 19.7483 65.448 20.9291C63.1765 22.8734 63.0365 28.7388 65.2097 30.9121C66.6536 32.3559 69.1249 32.3503 70.4925 30.9002C70.7457 30.6319 70.9714 30.4347 70.9942 30.4622C71.017 30.4896 71.2021 30.8005 71.4056 31.1531L71.7755 31.794H73.3829H74.9903L74.9555 23.9343L74.9207 16.0745L72.863 16.0372L70.8053 16V18.6599ZM89.0398 16.1618C87.8105 16.5156 86.7374 17.7321 86.4454 19.1029C86.2496 20.0218 86.4122 21.2965 87.0601 23.9202C87.5102 25.7434 88.9044 30.105 89.4256 31.3212C89.6926 31.9439 90.0495 32.1153 90.3408 31.7603C90.5109 31.5532 91.7974 27.7222 92.4369 25.5197C93.179 22.9633 93.6087 20.8847 93.6087 19.8523C93.6087 17.3917 91.286 15.5155 89.0398 16.1618ZM90.8539 18.3826C92.349 19.0922 92.1026 21.3464 90.4769 21.8335C88.9506 22.2908 87.504 20.4712 88.3378 19.143C88.9003 18.2467 89.9188 17.939 90.8539 18.3826ZM41.5251 20.2572C40.3418 20.4959 39.0963 20.9783 39.0963 21.1981C39.0963 21.3562 40.1159 23.6831 40.2391 23.8063C40.2654 23.8327 40.7205 23.6979 41.2504 23.5067C43.1393 22.8252 44.3317 22.9047 44.6198 23.731C44.6988 23.9577 44.7635 24.1948 44.7635 24.258C44.7635 24.3211 44.3233 24.374 43.7852 24.3755C39.6984 24.3867 37.6632 25.8824 37.9177 28.6882C38.0489 30.1354 38.7269 31.1655 39.9059 31.7085C40.3775 31.9257 40.7715 31.9863 41.6698 31.9794C43.0068 31.9694 43.9484 31.6233 44.784 30.8352L45.2768 30.3704L45.6258 31.0823L45.9749 31.794H47.4691H48.9632L48.9211 27.4425C48.8798 23.1886 48.8716 23.0749 48.5565 22.3774C48.1167 21.4042 47.2485 20.6646 46.1463 20.3242C45.1156 20.0059 42.9287 19.9741 41.5251 20.2572ZM56.6375 20.263C55.8344 20.4878 54.9474 21.0324 54.7336 21.4319C54.5479 21.779 54.4089 21.6473 54.2096 20.9355L54.0387 20.3248H52.437H50.8354V26.0594V31.794H52.9268H55.0183L55.0191 28.5219C55.0199 24.9511 55.0987 24.4065 55.7028 23.8024C56.0385 23.4667 56.1786 23.419 56.7222 23.4544C57.2308 23.4878 57.4071 23.5693 57.6358 23.8764C57.9054 24.2383 57.9213 24.4421 57.9609 28.0255L58.0024 31.794H60.0861H62.1697V27.6357C62.1697 23.0069 62.1056 22.5466 61.317 21.5129C60.4006 20.3112 58.387 19.7734 56.6375 20.263ZM82.6118 20.3256C81.9247 20.6044 81.359 21.0466 80.836 21.7131L80.5444 22.0849L80.2515 21.2049L79.9587 20.3248H78.4179H76.8772V26.0594V31.794H78.8924H80.9075L80.9501 28.5894C80.9867 25.8331 81.026 25.3238 81.2311 24.9485C81.6073 24.2601 82.157 24.0435 83.5217 24.0458L84.7014 24.0477L84.7673 23.6369C84.8838 22.9107 85.1095 20.2814 85.0598 20.2315C85.0332 20.205 84.6234 20.1537 84.149 20.1176C83.4816 20.0666 83.1339 20.1137 82.6118 20.3256ZM97.3868 20.2508C96.2696 20.4843 94.9581 20.9763 94.9581 21.1618C94.9581 21.3588 96.0501 23.8331 96.1371 23.8331C96.1757 23.8331 96.6277 23.6814 97.1414 23.4961C99.0008 22.8254 100.195 22.9094 100.481 23.731C100.561 23.9577 100.625 24.1948 100.625 24.258C100.625 24.3211 100.155 24.3732 99.5795 24.3739C97.5457 24.3757 95.7481 24.8523 94.8716 25.622C94.1003 26.2992 93.8263 26.9745 93.8182 28.2183C93.8093 29.588 94.099 30.3752 94.8754 31.0909C95.6352 31.7913 96.2688 31.9979 97.5984 31.9789C98.9094 31.9601 99.7533 31.6355 100.571 30.8348L101.124 30.2934L101.448 31.0449L101.772 31.7965L103.256 31.7615L104.741 31.7266L104.73 27.4762C104.72 23.8641 104.685 23.1379 104.495 22.6403C104.133 21.6913 103.532 21.0525 102.544 20.5657C101.686 20.1432 101.565 20.1211 99.9538 20.0949C98.94 20.0784 97.9129 20.1408 97.3868 20.2508ZM112.554 20.2362C111.746 20.4425 110.993 20.8802 110.61 21.367C110.289 21.7753 110.3 21.782 110.044 20.9995L109.846 20.3923L108.204 20.3544L106.562 20.3165V26.0552V31.794H108.654H110.745L110.746 28.9942C110.748 24.4342 111.064 23.4283 112.494 23.4283C113.073 23.4283 113.295 23.5519 113.55 24.018C113.749 24.3813 113.787 24.9545 113.824 28.1206L113.868 31.8009L115.916 31.7638L117.964 31.7266V27.5437C117.964 22.9177 117.917 22.5693 117.155 21.5199C116.295 20.3354 114.322 19.7848 112.554 20.2362ZM19.5312 20.4121C19.5312 20.5181 22.3175 30.7335 22.5169 31.3587L22.6578 31.8006L24.8283 31.7635L26.9988 31.7266L27.5814 29.2978C27.9019 27.962 28.2615 26.3529 28.3803 25.7221C28.6887 24.0869 28.7205 24.0554 28.9199 25.187C29.0186 25.7461 29.3969 27.4463 29.7608 28.965L30.4224 31.7266L32.6403 31.7634L34.858 31.8002L36.3902 26.2312C37.2329 23.1682 37.9501 20.5863 37.9841 20.4935C38.0317 20.3633 37.5836 20.3248 36.0204 20.3248H33.995L33.5113 22.3825C32.8676 25.1198 32.762 25.6436 32.6465 26.6717L32.5487 27.5437L31.8118 23.9343L31.0751 20.3248H28.7766H26.4781L25.8301 23.2596C25.4738 24.8738 25.1367 26.498 25.0813 26.869L24.9803 27.5437L24.8762 26.7341C24.7767 25.9611 23.7904 21.0547 23.6352 20.561C23.5689 20.3499 23.3468 20.3248 21.5462 20.3248C20.438 20.3248 19.5312 20.3641 19.5312 20.4121ZM70.2927 23.7463C70.7188 24.0125 70.9402 24.8392 70.94 26.1633C70.9397 27.7424 70.7137 28.2683 69.9169 28.5438C69.4164 28.7168 69.3175 28.7107 68.8374 28.4763C68.1121 28.1221 67.8082 27.2815 67.887 25.846C67.9805 24.141 68.6017 23.324 69.6539 23.522C69.8741 23.5636 70.1615 23.6645 70.2927 23.7463ZM44.6285 27.4066C44.6285 28.258 44.115 28.8253 43.2568 28.922C42.2844 29.0317 41.8228 28.4251 42.2183 27.5572C42.4115 27.1329 43.157 26.8175 43.9876 26.8086L44.6285 26.8016V27.4066ZM100.76 27.4066C100.76 28.258 100.247 28.8253 99.3884 28.922C98.416 29.0317 97.9544 28.4251 98.3499 27.5572C98.5431 27.1329 99.2886 26.8175 100.119 26.8086L100.76 26.8016V27.4066ZM119.56 29.6969C118.559 30.1323 118.579 31.4509 119.594 31.8747C119.994 32.0418 120.117 32.0418 120.517 31.8747C121.548 31.444 121.55 30.1211 120.521 29.6911C119.984 29.4669 120.09 29.4662 119.56 29.6969ZM119.506 30.8158C119.499 31.3653 119.477 31.4146 119.355 31.1617C119.225 30.8934 119.295 30.1748 119.451 30.1748C119.486 30.1748 119.512 30.4632 119.506 30.8158ZM120.863 30.8078C120.865 31.1285 120.661 31.3344 120.538 31.1354C120.496 31.0677 120.5 30.8189 120.547 30.5826C120.641 30.1128 120.859 30.2682 120.863 30.8078ZM120.188 31.423C120.189 31.4786 120.13 31.5242 120.055 31.5242C119.981 31.5242 119.921 31.3876 119.922 31.2206C119.924 30.9751 119.95 30.9557 120.055 31.1194C120.127 31.2307 120.187 31.3674 120.188 31.423Z" fill="#908E9F"/>
<path fill-rule="evenodd" clip-rule="evenodd" d="M70.8053 18.6599V21.3198L70.4342 20.9652C69.1787 19.7653 66.8276 19.7483 65.448 20.9291C63.1765 22.8734 63.0365 28.7388 65.2097 30.9121C66.6536 32.3559 69.1249 32.3503 70.4925 30.9002C70.7457 30.6319 70.9714 30.4347 70.9942 30.4622C71.017 30.4896 71.2021 30.8005 71.4056 31.1531L71.7755 31.794H73.3829H74.9903L74.9555 23.9343L74.9207 16.0745L72.863 16.0372L70.8053 16V18.6599ZM89.0398 16.1618C88.0174 16.4561 87.1228 17.3091 86.6255 18.4641C86.1844 19.4887 86.3188 21.0218 87.1311 24.2289C87.5148 25.7444 89.2746 31.1242 89.5624 31.6621C89.7234 31.963 90.1318 32.0145 90.3415 31.7603C90.5038 31.5636 91.7695 27.8053 92.3976 25.6546C93.2923 22.5913 93.6927 20.4464 93.5675 19.3885C93.2991 17.1234 91.1129 15.5653 89.0398 16.1618ZM90.8719 18.3913C91.5775 18.726 91.8811 19.2938 91.8171 20.1591C91.7545 21.006 91.2862 21.591 90.4769 21.8335C89.1803 22.222 87.7994 20.9077 88.1281 19.5981C88.2333 19.1786 88.844 18.4456 89.2124 18.2967C89.671 18.1111 90.365 18.1507 90.8719 18.3913ZM41.5251 20.2572C40.3418 20.4959 39.0963 20.9783 39.0963 21.1981C39.0963 21.3562 40.1159 23.6831 40.2391 23.8063C40.2654 23.8327 40.7205 23.6979 41.2504 23.5067C43.1393 22.8252 44.3317 22.9047 44.6198 23.731C44.6988 23.9577 44.7635 24.1948 44.7635 24.258C44.7635 24.3211 44.3233 24.374 43.7852 24.3755C39.6984 24.3867 37.6632 25.8824 37.9177 28.6882C38.0489 30.1354 38.7269 31.1655 39.9059 31.7085C40.3775 31.9257 40.7715 31.9863 41.6698 31.9794C43.0068 31.9694 43.9484 31.6233 44.784 30.8352L45.2768 30.3704L45.6258 31.0823L45.9749 31.794H47.4691H48.9632L48.9211 27.4425C48.8798 23.1886 48.8716 23.0749 48.5565 22.3774C48.1167 21.4042 47.2485 20.6646 46.1463 20.3242C45.1156 20.0059 42.9287 19.9741 41.5251 20.2572ZM56.6375 20.263C55.8344 20.4878 54.9474 21.0324 54.7336 21.4319C54.5479 21.779 54.4089 21.6473 54.2096 20.9355L54.0387 20.3248H52.437H50.8354V26.0594V31.794H52.9268H55.0183L55.0191 28.5219C55.0199 24.9511 55.0987 24.4065 55.7028 23.8024C56.0385 23.4667 56.1786 23.419 56.7222 23.4544C57.2308 23.4878 57.4071 23.5693 57.6358 23.8764C57.9054 24.2383 57.9213 24.4421 57.9609 28.0255L58.0024 31.794H60.0861H62.1697V27.6357C62.1697 23.0069 62.1056 22.5466 61.317 21.5129C60.4006 20.3112 58.387 19.7734 56.6375 20.263ZM82.6118 20.3256C81.9247 20.6044 81.359 21.0466 80.836 21.7131L80.5444 22.0849L80.2515 21.2049L79.9587 20.3248H78.4179H76.8772V26.0594V31.794H78.8924H80.9075L80.9501 28.5894C80.9867 25.8331 81.026 25.3238 81.2311 24.9485C81.6073 24.2601 82.157 24.0435 83.5217 24.0458L84.7014 24.0477L84.7673 23.6369C84.8838 22.9107 85.1095 20.2814 85.0598 20.2315C85.0332 20.205 84.6234 20.1537 84.149 20.1176C83.4816 20.0666 83.1339 20.1137 82.6118 20.3256ZM97.3868 20.2508C96.2696 20.4843 94.9581 20.9763 94.9581 21.1618C94.9581 21.3588 96.0501 23.8331 96.1371 23.8331C96.1757 23.8331 96.6277 23.6814 97.1414 23.4961C99.0008 22.8254 100.195 22.9094 100.481 23.731C100.561 23.9577 100.625 24.1948 100.625 24.258C100.625 24.3211 100.155 24.3732 99.5795 24.3739C97.5457 24.3757 95.7481 24.8523 94.8716 25.622C94.1003 26.2992 93.8263 26.9745 93.8182 28.2183C93.8093 29.588 94.099 30.3752 94.8754 31.0909C95.6352 31.7913 96.2688 31.9979 97.5984 31.9789C98.9094 31.9601 99.7533 31.6355 100.571 30.8348L101.124 30.2934L101.448 31.0449L101.772 31.7965L103.256 31.7615L104.741 31.7266L104.73 27.4762C104.72 23.8641 104.685 23.1379 104.495 22.6403C104.133 21.6913 103.532 21.0525 102.544 20.5657C101.686 20.1432 101.565 20.1211 99.9538 20.0949C98.94 20.0784 97.9129 20.1408 97.3868 20.2508ZM112.554 20.2362C111.746 20.4425 110.993 20.8802 110.61 21.367C110.289 21.7753 110.3 21.782 110.044 20.9995L109.846 20.3923L108.204 20.3544L106.562 20.3165V26.0552V31.794H108.654H110.745L110.746 28.9942C110.748 24.4342 111.064 23.4283 112.494 23.4283C113.073 23.4283 113.295 23.5519 113.55 24.018C113.749 24.3813 113.787 24.9545 113.824 28.1206L113.868 31.8009L115.916 31.7638L117.964 31.7266V27.5437C117.964 22.9177 117.917 22.5693 117.155 21.5199C116.295 20.3354 114.322 19.7848 112.554 20.2362ZM19.5312 20.4121C19.5312 20.5181 22.3175 30.7335 22.5169 31.3587L22.6578 31.8006L24.8283 31.7635L26.9988 31.7266L27.5814 29.2978C27.9019 27.962 28.2615 26.3529 28.3803 25.7221C28.6887 24.0869 28.7205 24.0554 28.9199 25.187C29.0186 25.7461 29.3969 27.4463 29.7608 28.965L30.4224 31.7266L32.6403 31.7634L34.858 31.8002L36.3902 26.2312C37.2329 23.1682 37.9501 20.5863 37.9841 20.4935C38.0317 20.3633 37.5836 20.3248 36.0204 20.3248H33.995L33.5113 22.3825C32.8676 25.1198 32.762 25.6436 32.6465 26.6717L32.5487 27.5437L31.8118 23.9343L31.0751 20.3248H28.7766H26.4781L25.8301 23.2596C25.4738 24.8738 25.1367 26.498 25.0813 26.869L24.9803 27.5437L24.8762 26.7341C24.7767 25.9611 23.7904 21.0547 23.6352 20.561C23.5689 20.3499 23.3468 20.3248 21.5462 20.3248C20.438 20.3248 19.5312 20.3641 19.5312 20.4121ZM70.2927 23.7463C70.7188 24.0125 70.9402 24.8392 70.94 26.1633C70.9397 27.7424 70.7137 28.2683 69.9169 28.5438C69.4164 28.7168 69.3175 28.7107 68.8374 28.4763C68.1121 28.1221 67.8082 27.2815 67.887 25.846C67.9805 24.141 68.6017 23.324 69.6539 23.522C69.8741 23.5636 70.1615 23.6645 70.2927 23.7463ZM44.6285 27.4066C44.6285 28.258 44.115 28.8253 43.2568 28.922C42.2844 29.0317 41.8228 28.4251 42.2183 27.5572C42.4115 27.1329 43.157 26.8175 43.9876 26.8086L44.6285 26.8016V27.4066ZM100.76 27.4066C100.76 28.258 100.247 28.8253 99.3884 28.922C98.416 29.0317 97.9544 28.4251 98.3499 27.5572C98.5431 27.1329 99.2886 26.8175 100.119 26.8086L100.76 26.8016V27.4066ZM119.56 29.6969C118.559 30.1323 118.579 31.4509 119.594 31.8747C119.994 32.0418 120.117 32.0418 120.517 31.8747C121.548 31.444 121.55 30.1211 120.521 29.6911C119.984 29.4669 120.09 29.4662 119.56 29.6969ZM119.506 30.8158C119.499 31.3653 119.477 31.4146 119.355 31.1617C119.225 30.8934 119.295 30.1748 119.451 30.1748C119.486 30.1748 119.512 30.4632 119.506 30.8158ZM120.863 30.8078C120.865 31.1285 120.661 31.3344 120.538 31.1354C120.496 31.0677 120.5 30.8189 120.547 30.5826C120.641 30.1128 120.859 30.2682 120.863 30.8078ZM120.188 31.423C120.189 31.4786 120.13 31.5242 120.055 31.5242C119.981 31.5242 119.921 31.3876 119.922 31.2206C119.924 30.9751 119.95 30.9557 120.055 31.1194C120.127 31.2307 120.187 31.3674 120.188 31.423Z" fill="#908E9F"/>
<path fill-rule="evenodd" clip-rule="evenodd" d="M70.8053 18.6599V21.3198L70.4342 20.9652C69.1787 19.7653 66.8276 19.7483 65.448 20.9291C63.1765 22.8734 63.0365 28.7388 65.2097 30.9121C66.6536 32.3559 69.1249 32.3503 70.4925 30.9002C70.7457 30.6319 70.9714 30.4347 70.9942 30.4622C71.017 30.4896 71.2021 30.8005 71.4056 31.1531L71.7755 31.794H73.3829H74.9903L74.9555 23.9343L74.9207 16.0745L72.863 16.0372L70.8053 16V18.6599ZM89.0398 16.1618C88.0174 16.4561 87.1228 17.3091 86.6255 18.4641C86.1844 19.4887 86.3188 21.0218 87.1311 24.2289C87.5148 25.7444 89.2746 31.1242 89.5624 31.6621C89.7234 31.963 90.1318 32.0145 90.3415 31.7603C90.5038 31.5636 91.7695 27.8053 92.3976 25.6546C93.2923 22.5913 93.6927 20.4464 93.5675 19.3885C93.2991 17.1234 91.1129 15.5653 89.0398 16.1618ZM90.8719 18.3913C91.5775 18.726 91.8811 19.2938 91.8171 20.1591C91.7545 21.006 91.2862 21.591 90.4769 21.8335C89.1803 22.222 87.7994 20.9077 88.1281 19.5981C88.2333 19.1786 88.844 18.4456 89.2124 18.2967C89.671 18.1111 90.365 18.1507 90.8719 18.3913ZM41.5251 20.2572C40.3418 20.4959 39.0963 20.9783 39.0963 21.1981C39.0963 21.3562 40.1159 23.6831 40.2391 23.8063C40.2654 23.8327 40.7205 23.6979 41.2504 23.5067C43.1393 22.8252 44.3317 22.9047 44.6198 23.731C44.6988 23.9577 44.7635 24.1948 44.7635 24.258C44.7635 24.3211 44.3233 24.374 43.7852 24.3755C39.6984 24.3867 37.6632 25.8824 37.9177 28.6882C38.0489 30.1354 38.7269 31.1655 39.9059 31.7085C40.3775 31.9257 40.7715 31.9863 41.6698 31.9794C43.0068 31.9694 43.9484 31.6233 44.784 30.8352L45.2768 30.3704L45.6258 31.0823L45.9749 31.794H47.4691H48.9632L48.9211 27.4425C48.8798 23.1886 48.8716 23.0749 48.5565 22.3774C48.1167 21.4042 47.2485 20.6646 46.1463 20.3242C45.1156 20.0059 42.9287 19.9741 41.5251 20.2572ZM56.6375 20.263C55.8344 20.4878 54.9474 21.0324 54.7336 21.4319C54.5479 21.779 54.4089 21.6473 54.2096 20.9355L54.0387 20.3248H52.437H50.8354V26.0594V31.794H52.9268H55.0183L55.0191 28.5219C55.0199 24.9511 55.0987 24.4065 55.7028 23.8024C56.0385 23.4667 56.1786 23.419 56.7222 23.4544C57.2308 23.4878 57.4071 23.5693 57.6358 23.8764C57.9054 24.2383 57.9213 24.4421 57.9609 28.0255L58.0024 31.794H60.0861H62.1697V27.6357C62.1697 23.0069 62.1056 22.5466 61.317 21.5129C60.4006 20.3112 58.387 19.7734 56.6375 20.263ZM82.6118 20.3256C81.9247 20.6044 81.359 21.0466 80.836 21.7131L80.5444 22.0849L80.2515 21.2049L79.9587 20.3248H78.4179H76.8772V26.0594V31.794H78.8924H80.9075L80.9501 28.5894C80.9867 25.8331 81.026 25.3238 81.2311 24.9485C81.6073 24.2601 82.157 24.0435 83.5217 24.0458L84.7014 24.0477L84.7673 23.6369C84.8838 22.9107 85.1095 20.2814 85.0598 20.2315C85.0332 20.205 84.6234 20.1537 84.149 20.1176C83.4816 20.0666 83.1339 20.1137 82.6118 20.3256ZM97.3868 20.2508C96.2696 20.4843 94.9581 20.9763 94.9581 21.1618C94.9581 21.3588 96.0501 23.8331 96.1371 23.8331C96.1757 23.8331 96.6277 23.6814 97.1414 23.4961C99.0008 22.8254 100.195 22.9094 100.481 23.731C100.561 23.9577 100.625 24.1948 100.625 24.258C100.625 24.3211 100.155 24.3732 99.5795 24.3739C97.5457 24.3757 95.7481 24.8523 94.8716 25.622C94.1003 26.2992 93.8263 26.9745 93.8182 28.2183C93.8093 29.588 94.099 30.3752 94.8754 31.0909C95.6352 31.7913 96.2688 31.9979 97.5984 31.9789C98.9094 31.9601 99.7533 31.6355 100.571 30.8348L101.124 30.2934L101.448 31.0449L101.772 31.7965L103.256 31.7615L104.741 31.7266L104.73 27.4762C104.72 23.8641 104.685 23.1379 104.495 22.6403C104.133 21.6913 103.532 21.0525 102.544 20.5657C101.686 20.1432 101.565 20.1211 99.9538 20.0949C98.94 20.0784 97.9129 20.1408 97.3868 20.2508ZM112.554 20.2362C111.746 20.4425 110.993 20.8802 110.61 21.367C110.289 21.7753 110.3 21.782 110.044 20.9995L109.846 20.3923L108.204 20.3544L106.562 20.3165V26.0552V31.794H108.654H110.745L110.746 28.9942C110.748 24.4342 111.064 23.4283 112.494 23.4283C113.073 23.4283 113.295 23.5519 113.55 24.018C113.749 24.3813 113.787 24.9545 113.824 28.1206L113.868 31.8009L115.916 31.7638L117.964 31.7266V27.5437C117.964 22.9177 117.917 22.5693 117.155 21.5199C116.295 20.3354 114.322 19.7848 112.554 20.2362ZM19.5312 20.4121C19.5312 20.5181 22.3175 30.7335 22.5169 31.3587L22.6578 31.8006L24.8283 31.7635L26.9988 31.7266L27.5814 29.2978C27.9019 27.962 28.2615 26.3529 28.3803 25.7221C28.6887 24.0869 28.7205 24.0554 28.9199 25.187C29.0186 25.7461 29.3969 27.4463 29.7608 28.965L30.4224 31.7266L32.6403 31.7634L34.858 31.8002L36.3902 26.2312C37.2329 23.1682 37.9501 20.5863 37.9841 20.4935C38.0317 20.3633 37.5836 20.3248 36.0204 20.3248H33.995L33.5113 22.3825C32.8676 25.1198 32.762 25.6436 32.6465 26.6717L32.5487 27.5437L31.8118 23.9343L31.0751 20.3248H28.7766H26.4781L25.8301 23.2596C25.4738 24.8738 25.1367 26.498 25.0813 26.869L24.9803 27.5437L24.8762 26.7341C24.7767 25.9611 23.7904 21.0547 23.6352 20.561C23.5689 20.3499 23.3468 20.3248 21.5462 20.3248C20.438 20.3248 19.5312 20.3641 19.5312 20.4121ZM70.2927 23.7463C70.7188 24.0125 70.9402 24.8392 70.94 26.1633C70.9397 27.7424 70.7137 28.2683 69.9169 28.5438C69.4164 28.7168 69.3175 28.7107 68.8374 28.4763C68.1121 28.1221 67.8082 27.2815 67.887 25.846C67.9805 24.141 68.6017 23.324 69.6539 23.522C69.8741 23.5636 70.1615 23.6645 70.2927 23.7463ZM44.6285 27.4066C44.6285 28.258 44.115 28.8253 43.2568 28.922C42.2844 29.0317 41.8228 28.4251 42.2183 27.5572C42.4115 27.1329 43.157 26.8175 43.9876 26.8086L44.6285 26.8016V27.4066ZM100.76 27.4066C100.76 28.258 100.247 28.8253 99.3884 28.922C98.416 29.0317 97.9544 28.4251 98.3499 27.5572C98.5431 27.1329 99.2886 26.8175 100.119 26.8086L100.76 26.8016V27.4066ZM119.56 29.6969C118.559 30.1323 118.579 31.4509 119.594 31.8747C119.994 32.0418 120.117 32.0418 120.517 31.8747C121.548 31.444 121.55 30.1211 120.521 29.6911C119.984 29.4669 120.09 29.4662 119.56 29.6969ZM119.506 30.8158C119.499 31.3653 119.477 31.4146 119.355 31.1617C119.225 30.8934 119.295 30.1748 119.451 30.1748C119.486 30.1748 119.512 30.4632 119.506 30.8158ZM120.863 30.8078C120.865 31.1285 120.661 31.3344 120.538 31.1354C120.496 31.0677 120.5 30.8189 120.547 30.5826C120.641 30.1128 120.859 30.2682 120.863 30.8078ZM120.188 31.423C120.189 31.4786 120.13 31.5242 120.055 31.5242C119.981 31.5242 119.921 31.3876 119.922 31.2206C119.924 30.9751 119.95 30.9557 120.055 31.1194C120.127 31.2307 120.187 31.3674 120.188 31.423Z" fill="#908E9F"/>
<path fill-rule="evenodd" clip-rule="evenodd" d="M70.8053 18.6599V21.3198L70.4342 20.9652C69.1787 19.7653 66.8276 19.7483 65.448 20.9291C63.1765 22.8734 63.0365 28.7388 65.2097 30.9121C66.6536 32.3559 69.1249 32.3503 70.4925 30.9002C70.7457 30.6319 70.9714 30.4347 70.9942 30.4622C71.017 30.4896 71.2021 30.8005 71.4056 31.1531L71.7755 31.794H73.3829H74.9903L74.9555 23.9343L74.9207 16.0745L72.863 16.0372L70.8053 16V18.6599ZM41.5251 20.2572C40.3418 20.4959 39.0963 20.9783 39.0963 21.1981C39.0963 21.3562 40.1159 23.6831 40.2391 23.8063C40.2654 23.8327 40.7205 23.6979 41.2504 23.5067C43.1393 22.8252 44.3317 22.9047 44.6198 23.731C44.6988 23.9577 44.7635 24.1948 44.7635 24.258C44.7635 24.3211 44.3233 24.374 43.7852 24.3755C39.6984 24.3867 37.6632 25.8824 37.9177 28.6882C38.0489 30.1354 38.7269 31.1655 39.9059 31.7085C40.3775 31.9257 40.7715 31.9863 41.6698 31.9794C43.0068 31.9694 43.9484 31.6233 44.784 30.8352L45.2768 30.3704L45.6258 31.0823L45.9749 31.794H47.4691H48.9632L48.9211 27.4425C48.8798 23.1886 48.8716 23.0749 48.5565 22.3774C48.1167 21.4042 47.2485 20.6646 46.1463 20.3242C45.1156 20.0059 42.9287 19.9741 41.5251 20.2572ZM56.6375 20.263C55.8344 20.4878 54.9474 21.0324 54.7336 21.4319C54.5479 21.779 54.4089 21.6473 54.2096 20.9355L54.0387 20.3248H52.437H50.8354V26.0594V31.794H52.9268H55.0183L55.0191 28.5219C55.0199 24.9511 55.0987 24.4065 55.7028 23.8024C56.0385 23.4667 56.1786 23.419 56.7222 23.4544C57.2308 23.4878 57.4071 23.5693 57.6358 23.8764C57.9054 24.2383 57.9213 24.4421 57.9609 28.0255L58.0024 31.794H60.0861H62.1697V27.6357C62.1697 23.0069 62.1056 22.5466 61.317 21.5129C60.4006 20.3112 58.387 19.7734 56.6375 20.263ZM82.6118 20.3256C81.9247 20.6044 81.359 21.0466 80.836 21.7131L80.5444 22.0849L80.2515 21.2049L79.9587 20.3248H78.4179H76.8772V26.0594V31.794H78.8924H80.9075L80.9501 28.5894C80.9867 25.8331 81.026 25.3238 81.2311 24.9485C81.6073 24.2601 82.157 24.0435 83.5217 24.0458L84.7014 24.0477L84.7673 23.6369C84.8838 22.9107 85.1095 20.2814 85.0598 20.2315C85.0332 20.205 84.6234 20.1537 84.149 20.1176C83.4816 20.0666 83.1339 20.1137 82.6118 20.3256ZM97.3868 20.2508C96.2696 20.4843 94.9581 20.9763 94.9581 21.1618C94.9581 21.3588 96.0501 23.8331 96.1371 23.8331C96.1757 23.8331 96.6277 23.6814 97.1414 23.4961C99.0008 22.8254 100.195 22.9094 100.481 23.731C100.561 23.9577 100.625 24.1948 100.625 24.258C100.625 24.3211 100.155 24.3732 99.5795 24.3739C97.5457 24.3757 95.7481 24.8523 94.8716 25.622C94.1003 26.2992 93.8263 26.9745 93.8182 28.2183C93.8093 29.588 94.099 30.3752 94.8754 31.0909C95.6352 31.7913 96.2688 31.9979 97.5984 31.9789C98.9094 31.9601 99.7533 31.6355 100.571 30.8348L101.124 30.2934L101.448 31.0449L101.772 31.7965L103.256 31.7615L104.741 31.7266L104.73 27.4762C104.72 23.8641 104.685 23.1379 104.495 22.6403C104.133 21.6913 103.532 21.0525 102.544 20.5657C101.686 20.1432 101.565 20.1211 99.9538 20.0949C98.94 20.0784 97.9129 20.1408 97.3868 20.2508ZM112.554 20.2362C111.746 20.4425 110.993 20.8802 110.61 21.367C110.289 21.7753 110.3 21.782 110.044 20.9995L109.846 20.3923L108.204 20.3544L106.562 20.3165V26.0552V31.794H108.654H110.745L110.746 28.9942C110.748 24.4342 111.064 23.4283 112.494 23.4283C113.073 23.4283 113.295 23.5519 113.55 24.018C113.749 24.3813 113.787 24.9545 113.824 28.1206L113.868 31.8009L115.916 31.7638L117.964 31.7266V27.5437C117.964 22.9177 117.917 22.5693 117.155 21.5199C116.295 20.3354 114.322 19.7848 112.554 20.2362ZM19.5312 20.4121C19.5312 20.5181 22.3175 30.7335 22.5169 31.3587L22.6578 31.8006L24.8283 31.7635L26.9988 31.7266L27.5814 29.2978C27.9019 27.962 28.2615 26.3529 28.3803 25.7221C28.6887 24.0869 28.7205 24.0554 28.9199 25.187C29.0186 25.7461 29.3969 27.4463 29.7608 28.965L30.4224 31.7266L32.6403 31.7634L34.858 31.8002L36.3902 26.2312C37.2329 23.1682 37.9501 20.5863 37.9841 20.4935C38.0317 20.3633 37.5836 20.3248 36.0204 20.3248H33.995L33.5113 22.3825C32.8676 25.1198 32.762 25.6436 32.6465 26.6717L32.5487 27.5437L31.8118 23.9343L31.0751 20.3248H28.7766H26.4781L25.8301 23.2596C25.4738 24.8738 25.1367 26.498 25.0813 26.869L24.9803 27.5437L24.8762 26.7341C24.7767 25.9611 23.7904 21.0547 23.6352 20.561C23.5689 20.3499 23.3468 20.3248 21.5462 20.3248C20.438 20.3248 19.5312 20.3641 19.5312 20.4121ZM70.2927 23.7463C70.7188 24.0125 70.9402 24.8392 70.94 26.1633C70.9397 27.7424 70.7137 28.2683 69.9169 28.5438C69.4164 28.7168 69.3175 28.7107 68.8374 28.4763C68.1121 28.1221 67.8082 27.2815 67.887 25.846C67.9805 24.141 68.6017 23.324 69.6539 23.522C69.8741 23.5636 70.1615 23.6645 70.2927 23.7463ZM44.6285 27.4066C44.6285 28.258 44.115 28.8253 43.2568 28.922C42.2844 29.0317 41.8228 28.4251 42.2183 27.5572C42.4115 27.1329 43.157 26.8175 43.9876 26.8086L44.6285 26.8016V27.4066ZM100.76 27.4066C100.76 28.258 100.247 28.8253 99.3884 28.922C98.416 29.0317 97.9544 28.4251 98.3499 27.5572C98.5431 27.1329 99.2886 26.8175 100.119 26.8086L100.76 26.8016V27.4066ZM119.56 29.6969C118.559 30.1323 118.579 31.4509 119.594 31.8747C119.994 32.0418 120.117 32.0418 120.517 31.8747C121.548 31.444 121.55 30.1211 120.521 29.6911C119.984 29.4669 120.09 29.4662 119.56 29.6969ZM119.506 30.8158C119.499 31.3653 119.477 31.4146 119.355 31.1617C119.225 30.8934 119.295 30.1748 119.451 30.1748C119.486 30.1748 119.512 30.4632 119.506 30.8158ZM120.863 30.8078C120.865 31.1285 120.661 31.3344 120.538 31.1354C120.496 31.0677 120.5 30.8189 120.547 30.5826C120.641 30.1128 120.859 30.2682 120.863 30.8078ZM120.188 31.423C120.189 31.4786 120.13 31.5242 120.055 31.5242C119.981 31.5242 119.921 31.3876 119.922 31.2206C119.924 30.9751 119.95 30.9557 120.055 31.1194C120.127 31.2307 120.187 31.3674 120.188 31.423Z" fill="#908E9F"/>
<path fill-rule="evenodd" clip-rule="evenodd" d="M70.8053 18.6599V21.3198L70.4342 20.9652C69.1787 19.7653 66.8276 19.7483 65.448 20.9291C63.1765 22.8734 63.0365 28.7388 65.2097 30.9121C66.6536 32.3559 69.1249 32.3503 70.4925 30.9002C70.7457 30.6319 70.9714 30.4347 70.9942 30.4622C71.017 30.4896 71.2021 30.8005 71.4056 31.1531L71.7755 31.794H73.3829H74.9903L74.9555 23.9343L74.9207 16.0745L72.863 16.0372L70.8053 16V18.6599ZM41.5251 20.2572C40.3418 20.4959 39.0963 20.9783 39.0963 21.1981C39.0963 21.3562 40.1159 23.6831 40.2391 23.8063C40.2654 23.8327 40.7205 23.6979 41.2504 23.5067C43.1393 22.8252 44.3317 22.9047 44.6198 23.731C44.6988 23.9577 44.7635 24.1948 44.7635 24.258C44.7635 24.3211 44.3233 24.374 43.7852 24.3755C39.6984 24.3867 37.6632 25.8824 37.9177 28.6882C38.0489 30.1354 38.7269 31.1655 39.9059 31.7085C40.3775 31.9257 40.7715 31.9863 41.6698 31.9794C43.0068 31.9694 43.9484 31.6233 44.784 30.8352L45.2768 30.3704L45.6258 31.0823L45.9749 31.794H47.4691H48.9632L48.9211 27.4425C48.8798 23.1886 48.8716 23.0749 48.5565 22.3774C48.1167 21.4042 47.2485 20.6646 46.1463 20.3242C45.1156 20.0059 42.9287 19.9741 41.5251 20.2572ZM56.6375 20.263C55.8344 20.4878 54.9474 21.0324 54.7336 21.4319C54.5479 21.779 54.4089 21.6473 54.2096 20.9355L54.0387 20.3248H52.437H50.8354V26.0594V31.794H52.9268H55.0183L55.0191 28.5219C55.0199 24.9511 55.0987 24.4065 55.7028 23.8024C56.0385 23.4667 56.1786 23.419 56.7222 23.4544C57.2308 23.4878 57.4071 23.5693 57.6358 23.8764C57.9054 24.2383 57.9213 24.4421 57.9609 28.0255L58.0024 31.794H60.0861H62.1697V27.6357C62.1697 23.0069 62.1056 22.5466 61.317 21.5129C60.4006 20.3112 58.387 19.7734 56.6375 20.263ZM82.6118 20.3256C81.9247 20.6044 81.359 21.0466 80.836 21.7131L80.5444 22.0849L80.2515 21.2049L79.9587 20.3248H78.4179H76.8772V26.0594V31.794H78.8924H80.9075L80.9501 28.5894C80.9867 25.8331 81.026 25.3238 81.2311 24.9485C81.6073 24.2601 82.157 24.0435 83.5217 24.0458L84.7014 24.0477L84.7673 23.6369C84.8838 22.9107 85.1095 20.2814 85.0598 20.2315C85.0332 20.205 84.6234 20.1537 84.149 20.1176C83.4816 20.0666 83.1339 20.1137 82.6118 20.3256ZM97.3868 20.2508C96.2696 20.4843 94.9581 20.9763 94.9581 21.1618C94.9581 21.3588 96.0501 23.8331 96.1371 23.8331C96.1757 23.8331 96.6277 23.6814 97.1414 23.4961C99.0008 22.8254 100.195 22.9094 100.481 23.731C100.561 23.9577 100.625 24.1948 100.625 24.258C100.625 24.3211 100.155 24.3732 99.5795 24.3739C97.5457 24.3757 95.7481 24.8523 94.8716 25.622C94.1003 26.2992 93.8263 26.9745 93.8182 28.2183C93.8093 29.588 94.099 30.3752 94.8754 31.0909C95.6352 31.7913 96.2688 31.9979 97.5984 31.9789C98.9094 31.9601 99.7533 31.6355 100.571 30.8348L101.124 30.2934L101.448 31.0449L101.772 31.7965L103.256 31.7615L104.741 31.7266L104.73 27.4762C104.72 23.8641 104.685 23.1379 104.495 22.6403C104.133 21.6913 103.532 21.0525 102.544 20.5657C101.686 20.1432 101.565 20.1211 99.9538 20.0949C98.94 20.0784 97.9129 20.1408 97.3868 20.2508ZM112.554 20.2362C111.746 20.4425 110.993 20.8802 110.61 21.367C110.289 21.7753 110.3 21.782 110.044 20.9995L109.846 20.3923L108.204 20.3544L106.562 20.3165V26.0552V31.794H108.654H110.745L110.746 28.9942C110.748 24.4342 111.064 23.4283 112.494 23.4283C113.073 23.4283 113.295 23.5519 113.55 24.018C113.749 24.3813 113.787 24.9545 113.824 28.1206L113.868 31.8009L115.916 31.7638L117.964 31.7266V27.5437C117.964 22.9177 117.917 22.5693 117.155 21.5199C116.295 20.3354 114.322 19.7848 112.554 20.2362ZM19.5312 20.4121C19.5312 20.5181 22.3175 30.7335 22.5169 31.3587L22.6578 31.8006L24.8283 31.7635L26.9988 31.7266L27.5814 29.2978C27.9019 27.962 28.2615 26.3529 28.3803 25.7221C28.6887 24.0869 28.7205 24.0554 28.9199 25.187C29.0186 25.7461 29.3969 27.4463 29.7608 28.965L30.4224 31.7266L32.6403 31.7634L34.858 31.8002L36.3902 26.2312C37.2329 23.1682 37.9501 20.5863 37.9841 20.4935C38.0317 20.3633 37.5836 20.3248 36.0204 20.3248H33.995L33.5113 22.3825C32.8676 25.1198 32.762 25.6436 32.6465 26.6717L32.5487 27.5437L31.8118 23.9343L31.0751 20.3248H28.7766H26.4781L25.8301 23.2596C25.4738 24.8738 25.1367 26.498 25.0813 26.869L24.9803 27.5437L24.8762 26.7341C24.7767 25.9611 23.7904 21.0547 23.6352 20.561C23.5689 20.3499 23.3468 20.3248 21.5462 20.3248C20.438 20.3248 19.5312 20.3641 19.5312 20.4121ZM70.2927 23.7463C70.7188 24.0125 70.9402 24.8392 70.94 26.1633C70.9397 27.7424 70.7137 28.2683 69.9169 28.5438C69.4164 28.7168 69.3175 28.7107 68.8374 28.4763C68.1121 28.1221 67.8082 27.2815 67.887 25.846C67.9805 24.141 68.6017 23.324 69.6539 23.522C69.8741 23.5636 70.1615 23.6645 70.2927 23.7463ZM44.6285 27.4066C44.6285 28.258 44.115 28.8253 43.2568 28.922C42.2844 29.0317 41.8228 28.4251 42.2183 27.5572C42.4115 27.1329 43.157 26.8175 43.9876 26.8086L44.6285 26.8016V27.4066ZM100.76 27.4066C100.76 28.258 100.247 28.8253 99.3884 28.922C98.416 29.0317 97.9544 28.4251 98.3499 27.5572C98.5431 27.1329 99.2886 26.8175 100.119 26.8086L100.76 26.8016V27.4066ZM119.56 29.6969C118.559 30.1323 118.579 31.4509 119.594 31.8747C119.994 32.0418 120.117 32.0418 120.517 31.8747C121.548 31.444 121.55 30.1211 120.521 29.6911C119.984 29.4669 120.09 29.4662 119.56 29.6969ZM119.506 30.8158C119.499 31.3653 119.477 31.4146 119.355 31.1617C119.225 30.8934 119.295 30.1748 119.451 30.1748C119.486 30.1748 119.512 30.4632 119.506 30.8158ZM120.863 30.8078C120.865 31.1285 120.661 31.3344 120.538 31.1354C120.496 31.0677 120.5 30.8189 120.547 30.5826C120.641 30.1128 120.859 30.2682 120.863 30.8078ZM120.188 31.423C120.189 31.4786 120.13 31.5242 120.055 31.5242C119.981 31.5242 119.921 31.3876 119.922 31.2206C119.924 30.9751 119.95 30.9557 120.055 31.1194C120.127 31.2307 120.187 31.3674 120.188 31.423Z" fill="#908E9F"/>
</svg>
