<svg width="135" height="48" viewBox="0 0 135 48" fill="none" xmlns="http://www.w3.org/2000/svg">
<path fill-rule="evenodd" clip-rule="evenodd" d="M37.5573 6.02649C37.5436 6.10563 37.5027 6.51262 37.4663 6.93092C37.1055 11.0794 35.9412 14.7193 34.1823 17.1982C34.0339 17.4073 33.9196 17.5784 33.9282 17.5784C33.937 17.5784 34.0796 17.5062 34.2453 17.4179C34.411 17.3296 34.7315 17.1887 34.9576 17.1048C36.8446 16.4047 38.9706 16.4818 40.7297 17.3141C40.9424 17.4147 41.1221 17.4914 41.1291 17.4845C41.136 17.4775 41.0304 17.3062 40.8943 17.1037C39.0583 14.3727 38.0036 10.9476 37.6352 6.51981C37.5998 6.09511 37.5739 5.93058 37.5573 6.02649ZM62.0835 16.4036C60.7139 16.6634 59.7209 17.448 59.068 18.7863C58.7032 19.5339 58.5251 20.1379 58.3633 21.1756C58.2553 21.8679 58.2121 23.7631 58.2858 24.5744C58.4879 26.8 59.1906 28.3957 60.3583 29.2807C60.699 29.5389 61.353 29.8469 61.8028 29.9609C62.1302 30.0439 62.2689 30.0544 63.0153 30.0524C63.7873 30.0504 63.8908 30.0413 64.249 29.9446C65.8998 29.4988 66.9812 28.224 67.4683 26.1499C67.8648 24.4615 67.8756 22.1463 67.4951 20.3989C67.1866 18.9821 66.5173 17.8119 65.6312 17.1404C65.2955 16.886 64.6387 16.5749 64.2075 16.4661C63.7578 16.3526 62.541 16.3168 62.0835 16.4036ZM63.6114 18.4808C64.1416 18.7394 64.5758 19.4609 64.8002 20.4562C65.14 21.9629 65.123 24.6949 64.7652 26.1009C64.4955 27.1605 64.0511 27.805 63.4524 28.0046C63.1563 28.1034 62.6481 28.0676 62.3781 27.9289C61.6968 27.5791 61.2762 26.6919 61.0572 25.1427C60.9708 24.5312 60.937 22.7143 60.998 21.9553C61.123 20.3988 61.4255 19.4004 61.9408 18.8439C62.2934 18.4629 62.5401 18.3586 63.0564 18.3717C63.3308 18.3786 63.4499 18.402 63.6114 18.4808ZM37.1159 18.9395C36.4189 18.9979 35.7025 19.2321 35.1011 19.5981C34.6287 19.8855 33.8835 20.6345 33.6095 21.0972C32.584 22.829 32.5972 25.0512 33.643 26.7292C33.894 27.1317 34.5188 27.7839 34.9178 28.0597C36.278 29 38.091 29.1447 39.6077 28.434C40.055 28.2244 40.394 27.9886 40.7846 27.6154C41.4922 26.9393 41.9402 26.1309 42.1777 25.1016C42.2981 24.58 42.3252 23.6403 42.2364 23.0666C42.1066 22.2279 41.7756 21.416 41.3067 20.7865C41.0333 20.4194 40.5571 19.9593 40.1992 19.7162C39.61 19.3161 38.7487 19.003 38.1057 18.9552C37.9344 18.9424 37.7295 18.9263 37.6503 18.9194C37.5712 18.9124 37.3307 18.9215 37.1159 18.9395ZM70.189 20.2662C69.7594 20.4073 69.3663 20.5453 69.3154 20.5731C69.1978 20.6372 69.1936 20.8106 69.3027 21.0976C69.5617 21.7791 69.5913 22.5559 69.5922 28.7103C69.5928 33.3532 69.5985 33.7806 69.6598 33.8041C69.723 33.8283 71.5135 33.4905 71.8051 33.3993C71.8889 33.373 71.9561 33.3177 71.9798 33.2553C72.0017 33.1978 72.0184 32.3865 72.0184 31.3844C72.0184 29.9844 72.0291 29.6196 72.0698 29.6371C72.0981 29.6493 72.2677 29.7241 72.4467 29.8034C72.9293 30.017 73.4085 30.0907 74.147 30.0649C75.1451 30.0301 75.6921 29.8169 76.2769 29.2351C76.8921 28.623 77.2279 27.8271 77.431 26.4993C77.5231 25.8975 77.5351 24.092 77.451 23.4983C77.3041 22.4622 76.9431 21.5311 76.4707 20.9702C76.1559 20.5963 75.7119 20.2986 75.2368 20.1429C74.8979 20.0318 74.8336 20.0245 74.1972 20.0245C73.6009 20.0245 73.4816 20.0361 73.2106 20.1208C72.8011 20.2488 72.3435 20.4902 72.031 20.7433C71.7654 20.9583 71.7306 20.9773 71.7306 20.9071C71.7306 20.7998 71.4711 20.2077 71.382 20.1115C71.2355 19.9533 71.0812 19.9734 70.189 20.2662ZM79.4774 20.3288C79.0465 20.5057 78.6534 20.6721 78.6038 20.6986C78.4771 20.7665 78.4884 20.8797 78.6768 21.4352C78.9846 22.3422 78.9802 22.2758 78.9967 26.1689C79.0068 28.5537 79.0252 29.6576 79.0554 29.6941C79.0894 29.735 79.3594 29.747 80.2411 29.747C81.2442 29.747 81.3858 29.7392 81.4077 29.682C81.4214 29.6462 81.4326 28.1519 81.4326 26.3611V23.1052L81.669 22.874C81.9783 22.5715 82.3357 22.3268 82.5933 22.2412C82.8443 22.1579 83.114 22.1781 83.5271 22.3111C83.7808 22.3928 83.8253 22.3972 83.8745 22.3452C83.9201 22.2969 84.4695 20.8571 84.5751 20.5091C84.6187 20.3653 84.5273 20.2513 84.276 20.1361C83.964 19.993 83.2612 19.9565 82.8908 20.0642C82.3363 20.2254 81.8812 20.5475 81.4064 21.1147C81.2553 21.2951 81.12 21.4428 81.1057 21.4428C81.0913 21.4428 81.0591 21.3453 81.0341 21.2261C80.9672 20.9069 80.7488 20.3659 80.6089 20.1727C80.5159 20.0444 80.4596 20.0043 80.3738 20.0055C80.3118 20.0065 79.9084 20.1519 79.4774 20.3288ZM87.928 20.0322C85.7576 20.3927 84.4748 22.2529 84.4748 25.0399C84.4748 26.2805 84.7419 27.3961 85.2398 28.2355C85.3698 28.4547 85.5789 28.7142 85.8314 28.9697C86.3698 29.5145 86.8398 29.7822 87.6001 29.9767C88.0405 30.0894 89.2119 30.0896 89.6547 29.977C90.3579 29.7981 90.823 29.5477 91.3199 29.0801C92.023 28.4184 92.4266 27.6274 92.6647 26.4445C92.7445 26.0481 92.7571 25.8565 92.7571 25.0399C92.7571 24.2267 92.7443 24.031 92.6658 23.6412C92.4322 22.4813 92.0103 21.6505 91.3277 21.0063C90.8016 20.5098 90.1937 20.203 89.4558 20.0617C89.1772 20.0084 88.1867 19.9892 87.928 20.0322ZM94.9642 20.2884C94.5041 20.4416 94.1112 20.593 94.0912 20.6246C94.033 20.7165 94.0465 20.8203 94.1588 21.1457C94.3818 21.7918 94.3933 22.0125 94.4098 25.9444C94.4181 27.9341 94.4342 29.6037 94.4455 29.6546L94.4661 29.747H95.6082C96.4417 29.747 96.7636 29.7337 96.7996 29.6977C96.8372 29.6601 96.8489 28.8285 96.8489 26.2057V22.7631L97.0853 22.5825C97.543 22.2326 97.8703 22.0812 98.3083 22.0165C98.7052 21.9579 98.9893 22.0758 99.1385 22.3611C99.3266 22.7207 99.3287 22.7596 99.3536 26.3349L99.3772 29.7265L100.528 29.7375C101.574 29.7474 101.684 29.742 101.731 29.6782C101.771 29.6234 101.782 28.8583 101.782 26.1837V22.7595L102.019 22.5718C102.353 22.3058 102.856 22.0701 103.187 22.0231C103.776 21.9398 104.046 22.1284 104.185 22.72C104.238 22.9446 104.248 23.4782 104.248 26.2603C104.249 28.2877 104.264 29.5763 104.289 29.6416L104.329 29.747H105.482H106.635L106.675 29.6416C106.729 29.5015 106.727 23.0612 106.674 22.4166C106.56 21.0425 106.087 20.3137 105.148 20.0637C104.85 19.9843 104.08 19.9872 103.682 20.0692C103.016 20.2064 102.436 20.5067 101.831 21.0279C101.666 21.1703 101.524 21.2802 101.517 21.2723C101.51 21.2643 101.454 21.1569 101.392 21.0336C101.174 20.6011 100.654 20.2073 100.115 20.0669C99.8059 19.9862 99.1606 19.9858 98.7796 20.0659C98.1025 20.2084 97.4406 20.5702 96.7965 21.1501C96.7111 21.227 96.6344 21.2827 96.6261 21.2738C96.6178 21.265 96.5625 21.0747 96.5032 20.8509C96.444 20.6271 96.3448 20.3496 96.283 20.2342C96.1749 20.0325 96.1636 20.0242 95.9856 20.0171C95.8526 20.0118 95.5659 20.0879 94.9642 20.2884ZM110.888 20.0682C109.58 20.2458 108.686 20.5846 108.69 20.9011C108.692 21.0872 109.154 22.3987 109.234 22.4472C109.291 22.4814 109.432 22.4482 109.872 22.2965C110.746 21.9949 111.096 21.9211 111.669 21.9181C112.197 21.9154 112.385 21.9559 112.638 22.1261C112.933 22.3248 113.046 22.6881 113.046 23.4387V23.9094L112.625 23.9095C111.686 23.9099 110.594 24.0772 109.984 24.3145C108.999 24.6971 108.391 25.3351 108.148 26.2404C108.024 26.7016 108.024 27.5783 108.148 28.041C108.293 28.5826 108.494 28.9436 108.849 29.2993C109.385 29.836 110.031 30.0762 110.938 30.0756C111.832 30.0751 112.479 29.8162 113.172 29.1811L113.401 28.9715L113.511 29.3079C113.662 29.7665 113.843 30.0757 113.962 30.0765C114.012 30.0769 114.447 29.9174 114.927 29.7221L115.801 29.3669V29.2041C115.801 29.1147 115.747 28.9181 115.681 28.7673C115.563 28.4965 115.514 28.3421 115.425 27.9526C115.396 27.8251 115.369 26.7758 115.35 25.0399C115.322 22.4537 115.316 22.3108 115.232 21.9883C114.944 20.8765 114.252 20.2728 113.031 20.0658C112.577 19.9889 111.463 19.9902 110.888 20.0682ZM31.0302 20.3994C28.2255 22.3594 24.7317 23.4531 20.0552 23.8351L19.418 23.8871L19.7674 23.9172C22.3281 24.1377 24.0478 24.4278 25.8062 24.9359C27.6934 25.4813 29.1652 26.1463 30.6205 27.1109C30.9483 27.3283 31.2317 27.5128 31.2502 27.521C31.2687 27.5291 31.2296 27.4275 31.1632 27.2951C30.8546 26.6791 30.5967 25.8713 30.4758 25.1427C30.3973 24.6694 30.3664 23.6068 30.4172 23.1283C30.5038 22.3122 30.7464 21.4491 31.0979 20.7065C31.22 20.4485 31.3145 20.2321 31.308 20.2255C31.3014 20.2189 31.1764 20.2972 31.0302 20.3994ZM43.858 20.2205C43.858 20.2305 43.9391 20.4124 44.0383 20.6249C44.5619 21.7464 44.7983 22.9199 44.7494 24.1561C44.7065 25.2401 44.4596 26.259 44.0236 27.1506C43.9113 27.3803 43.8295 27.5682 43.842 27.5682C43.8545 27.5682 44.0157 27.4585 44.2004 27.3243C44.6837 26.9734 45.5563 26.4583 46.2234 26.1301C48.5335 24.9935 51.2643 24.3016 54.6699 23.9899C55.1561 23.9455 55.6 23.9045 55.6566 23.8988C55.7131 23.8933 55.3801 23.8555 54.9166 23.8151C51.488 23.5158 48.7748 22.8546 46.4061 21.7412C45.6763 21.3982 44.5882 20.7531 44.0327 20.3341C43.9366 20.2617 43.858 20.2105 43.858 20.2205ZM74.0851 21.9952C74.4208 22.1383 74.6939 22.4752 74.8562 22.9466C75.1242 23.7246 75.1762 25.6771 74.9581 26.7696C74.8697 27.2124 74.6548 27.6437 74.4192 27.8511C74.1368 28.0996 73.9021 28.1652 73.3134 28.1599C72.7943 28.1553 72.4554 28.0766 72.152 27.8902L72.0184 27.8082V25.2033V22.5984L72.2522 22.4079C72.5292 22.1823 72.8247 22.0243 73.1078 21.9504C73.3648 21.8833 73.8777 21.9068 74.0851 21.9952ZM89.0406 21.9613C89.606 22.1292 89.9076 22.5651 90.0945 23.4843C90.1561 23.7874 90.1681 24.0526 90.167 25.081C90.1657 26.1864 90.1564 26.3562 90.0774 26.7174C89.9255 27.4117 89.6558 27.8524 89.2711 28.0349C88.733 28.2903 88.0504 28.1902 87.6723 27.8006C87.2424 27.3576 87.0647 26.5504 87.0647 25.0399C87.0647 23.4599 87.2549 22.6772 87.7481 22.2264C88.0859 21.9177 88.5638 21.8197 89.0406 21.9613ZM113.037 26.549L113.026 27.6263L112.779 27.8255C112.643 27.935 112.413 28.0839 112.266 28.1562C112.026 28.2746 111.963 28.2876 111.629 28.2876C111.203 28.2876 110.967 28.1994 110.714 27.9462C110.469 27.7014 110.356 27.4003 110.355 26.9927C110.354 26.6921 110.37 26.6105 110.469 26.4088C110.77 25.7962 111.491 25.487 112.646 25.4756L113.048 25.4716L113.037 26.549ZM40.7336 30.4506C39.9694 30.8348 39.1034 31.0636 38.0984 31.1467C36.8683 31.2485 35.4613 30.9898 34.3842 30.4638C34.1818 30.365 34.0119 30.2885 34.0065 30.2939C34.0012 30.2992 34.1575 30.5447 34.3539 30.8393C35.969 33.2627 36.9645 36.338 37.4007 40.2507C37.446 40.6577 37.4959 41.1849 37.5115 41.4223C37.5447 41.927 37.6 42.18 37.6058 41.854C37.6122 41.5022 37.7277 40.328 37.8385 39.4902C38.1295 37.2883 38.6514 35.2444 39.352 33.562C39.8551 32.3536 40.236 31.6615 41.1177 30.3534C41.2135 30.2113 41.2059 30.2132 40.7336 30.4506Z" fill="#908E9F"/>
<path fill-rule="evenodd" clip-rule="evenodd" d="M37.5573 6.02649C37.5436 6.10563 37.5027 6.51262 37.4663 6.93092C37.1055 11.0794 35.9412 14.7193 34.1823 17.1982C34.0339 17.4073 33.9196 17.5784 33.9282 17.5784C33.937 17.5784 34.0796 17.5062 34.2453 17.4179C34.411 17.3296 34.7315 17.1887 34.9576 17.1048C36.8446 16.4047 38.9706 16.4818 40.7297 17.3141C40.9424 17.4147 41.1221 17.4914 41.1291 17.4845C41.136 17.4775 41.0304 17.3062 40.8943 17.1037C39.0583 14.3727 38.0036 10.9476 37.6352 6.51981C37.5998 6.09511 37.5739 5.93058 37.5573 6.02649ZM62.0835 16.4036C60.7139 16.6634 59.7209 17.448 59.068 18.7863C58.7032 19.5339 58.5251 20.1379 58.3633 21.1756C58.2553 21.8679 58.2121 23.7631 58.2858 24.5744C58.4879 26.8 59.1906 28.3957 60.3583 29.2807C60.699 29.5389 61.353 29.8469 61.8028 29.9609C62.1302 30.0439 62.2689 30.0544 63.0153 30.0524C63.7873 30.0504 63.8908 30.0413 64.249 29.9446C65.8998 29.4988 66.9812 28.224 67.4683 26.1499C67.8648 24.4615 67.8756 22.1463 67.4951 20.3989C67.1866 18.9821 66.5173 17.8119 65.6312 17.1404C65.2955 16.886 64.6387 16.5749 64.2075 16.4661C63.7578 16.3526 62.541 16.3168 62.0835 16.4036ZM63.6114 18.4808C64.1416 18.7394 64.5758 19.4609 64.8002 20.4562C65.14 21.9629 65.123 24.6949 64.7652 26.1009C64.4955 27.1605 64.0511 27.805 63.4524 28.0046C63.1563 28.1034 62.6481 28.0676 62.3781 27.9289C61.6968 27.5791 61.2762 26.6919 61.0572 25.1427C60.9708 24.5312 60.937 22.7143 60.998 21.9553C61.123 20.3988 61.4255 19.4004 61.9408 18.8439C62.2934 18.4629 62.5401 18.3586 63.0564 18.3717C63.3308 18.3786 63.4499 18.402 63.6114 18.4808ZM37.1159 18.9395C36.4189 18.9979 35.7025 19.2321 35.1011 19.5981C34.6287 19.8855 33.8835 20.6345 33.6095 21.0972C32.584 22.829 32.5972 25.0512 33.643 26.7292C33.894 27.1317 34.5188 27.7839 34.9178 28.0597C36.278 29 38.091 29.1447 39.6077 28.434C40.055 28.2244 40.394 27.9886 40.7846 27.6154C41.4922 26.9393 41.9402 26.1309 42.1777 25.1016C42.2981 24.58 42.3252 23.6403 42.2364 23.0666C42.1066 22.2279 41.7756 21.416 41.3067 20.7865C41.0333 20.4194 40.5571 19.9593 40.1992 19.7162C39.61 19.3161 38.7487 19.003 38.1057 18.9552C37.9344 18.9424 37.7295 18.9263 37.6503 18.9194C37.5712 18.9124 37.3307 18.9215 37.1159 18.9395ZM70.189 20.2662C69.7594 20.4073 69.3663 20.5453 69.3154 20.5731C69.1978 20.6372 69.1936 20.8106 69.3027 21.0976C69.5617 21.7791 69.5913 22.5559 69.5922 28.7103C69.5928 33.3532 69.5985 33.7806 69.6598 33.8041C69.723 33.8283 71.5135 33.4905 71.8051 33.3993C71.8889 33.373 71.9561 33.3177 71.9798 33.2553C72.0017 33.1978 72.0184 32.3865 72.0184 31.3844C72.0184 29.9844 72.0291 29.6196 72.0698 29.6371C72.0981 29.6493 72.2677 29.7241 72.4467 29.8034C72.9293 30.017 73.4085 30.0907 74.147 30.0649C75.1451 30.0301 75.6921 29.8169 76.2769 29.2351C76.8921 28.623 77.2279 27.8271 77.431 26.4993C77.5231 25.8975 77.5351 24.092 77.451 23.4983C77.3041 22.4622 76.9431 21.5311 76.4707 20.9702C76.1559 20.5963 75.7119 20.2986 75.2368 20.1429C74.8979 20.0318 74.8336 20.0245 74.1972 20.0245C73.6009 20.0245 73.4816 20.0361 73.2106 20.1208C72.8011 20.2488 72.3435 20.4902 72.031 20.7433C71.7654 20.9583 71.7306 20.9773 71.7306 20.9071C71.7306 20.7998 71.4711 20.2077 71.382 20.1115C71.2355 19.9533 71.0812 19.9734 70.189 20.2662ZM79.4774 20.3288C79.0465 20.5057 78.6534 20.6721 78.6038 20.6986C78.4771 20.7665 78.4884 20.8797 78.6768 21.4352C78.9846 22.3422 78.9802 22.2758 78.9967 26.1689C79.0068 28.5537 79.0252 29.6576 79.0554 29.6941C79.0894 29.735 79.3594 29.747 80.2411 29.747C81.2442 29.747 81.3858 29.7392 81.4077 29.682C81.4214 29.6462 81.4326 28.1519 81.4326 26.3611V23.1052L81.669 22.874C81.9783 22.5715 82.3357 22.3268 82.5933 22.2412C82.8443 22.1579 83.114 22.1781 83.5271 22.3111C83.7808 22.3928 83.8253 22.3972 83.8745 22.3452C83.9201 22.2969 84.4695 20.8571 84.5751 20.5091C84.6187 20.3653 84.5273 20.2513 84.276 20.1361C83.964 19.993 83.2612 19.9565 82.8908 20.0642C82.3363 20.2254 81.8812 20.5475 81.4064 21.1147C81.2553 21.2951 81.12 21.4428 81.1057 21.4428C81.0913 21.4428 81.0591 21.3453 81.0341 21.2261C80.9672 20.9069 80.7488 20.3659 80.6089 20.1727C80.5159 20.0444 80.4596 20.0043 80.3738 20.0055C80.3118 20.0065 79.9084 20.1519 79.4774 20.3288ZM87.928 20.0322C85.7576 20.3927 84.4748 22.2529 84.4748 25.0399C84.4748 26.2805 84.7419 27.3961 85.2398 28.2355C85.3698 28.4547 85.5789 28.7142 85.8314 28.9697C86.3698 29.5145 86.8398 29.7822 87.6001 29.9767C88.0405 30.0894 89.2119 30.0896 89.6547 29.977C90.3579 29.7981 90.823 29.5477 91.3199 29.0801C92.023 28.4184 92.4266 27.6274 92.6647 26.4445C92.7445 26.0481 92.7571 25.8565 92.7571 25.0399C92.7571 24.2267 92.7443 24.031 92.6658 23.6412C92.4322 22.4813 92.0103 21.6505 91.3277 21.0063C90.8016 20.5098 90.1937 20.203 89.4558 20.0617C89.1772 20.0084 88.1867 19.9892 87.928 20.0322ZM94.9642 20.2884C94.5041 20.4416 94.1112 20.593 94.0912 20.6246C94.033 20.7165 94.0465 20.8203 94.1588 21.1457C94.3818 21.7918 94.3933 22.0125 94.4098 25.9444C94.4181 27.9341 94.4342 29.6037 94.4455 29.6546L94.4661 29.747H95.6082C96.4417 29.747 96.7636 29.7337 96.7996 29.6977C96.8372 29.6601 96.8489 28.8285 96.8489 26.2057V22.7631L97.0853 22.5825C97.543 22.2326 97.8703 22.0812 98.3083 22.0165C98.7052 21.9579 98.9893 22.0758 99.1385 22.3611C99.3266 22.7207 99.3287 22.7596 99.3536 26.3349L99.3772 29.7265L100.528 29.7375C101.574 29.7474 101.684 29.742 101.731 29.6782C101.771 29.6234 101.782 28.8583 101.782 26.1837V22.7595L102.019 22.5718C102.353 22.3058 102.856 22.0701 103.187 22.0231C103.776 21.9398 104.046 22.1284 104.185 22.72C104.238 22.9446 104.248 23.4782 104.248 26.2603C104.249 28.2877 104.264 29.5763 104.289 29.6416L104.329 29.747H105.482H106.635L106.675 29.6416C106.729 29.5015 106.727 23.0612 106.674 22.4166C106.56 21.0425 106.087 20.3137 105.148 20.0637C104.85 19.9843 104.08 19.9872 103.682 20.0692C103.016 20.2064 102.436 20.5067 101.831 21.0279C101.666 21.1703 101.524 21.2802 101.517 21.2723C101.51 21.2643 101.454 21.1569 101.392 21.0336C101.174 20.6011 100.654 20.2073 100.115 20.0669C99.8059 19.9862 99.1606 19.9858 98.7796 20.0659C98.1025 20.2084 97.4406 20.5702 96.7965 21.1501C96.7111 21.227 96.6344 21.2827 96.6261 21.2738C96.6178 21.265 96.5625 21.0747 96.5032 20.8509C96.444 20.6271 96.3448 20.3496 96.283 20.2342C96.1749 20.0325 96.1636 20.0242 95.9856 20.0171C95.8526 20.0118 95.5659 20.0879 94.9642 20.2884ZM110.888 20.0682C109.58 20.2458 108.686 20.5846 108.69 20.9011C108.692 21.0872 109.154 22.3987 109.234 22.4472C109.291 22.4814 109.432 22.4482 109.872 22.2965C110.746 21.9949 111.096 21.9211 111.669 21.9181C112.197 21.9154 112.385 21.9559 112.638 22.1261C112.933 22.3248 113.046 22.6881 113.046 23.4387V23.9094L112.625 23.9095C111.686 23.9099 110.594 24.0772 109.984 24.3145C108.999 24.6971 108.391 25.3351 108.148 26.2404C108.024 26.7016 108.024 27.5783 108.148 28.041C108.293 28.5826 108.494 28.9436 108.849 29.2993C109.385 29.836 110.031 30.0762 110.938 30.0756C111.832 30.0751 112.479 29.8162 113.172 29.1811L113.401 28.9715L113.511 29.3079C113.662 29.7665 113.843 30.0757 113.962 30.0765C114.012 30.0769 114.447 29.9174 114.927 29.7221L115.801 29.3669V29.2041C115.801 29.1147 115.747 28.9181 115.681 28.7673C115.563 28.4965 115.514 28.3421 115.425 27.9526C115.396 27.8251 115.369 26.7758 115.35 25.0399C115.322 22.4537 115.316 22.3108 115.232 21.9883C114.944 20.8765 114.252 20.2728 113.031 20.0658C112.577 19.9889 111.463 19.9902 110.888 20.0682ZM31.0302 20.3994C28.2255 22.3594 24.7317 23.4531 20.0552 23.8351L19.418 23.8871L19.7674 23.9172C22.3281 24.1377 24.0478 24.4278 25.8062 24.9359C27.6934 25.4813 29.1652 26.1463 30.6205 27.1109C30.9483 27.3283 31.2317 27.5128 31.2502 27.521C31.2687 27.5291 31.2296 27.4275 31.1632 27.2951C30.8546 26.6791 30.5967 25.8713 30.4758 25.1427C30.3973 24.6694 30.3664 23.6068 30.4172 23.1283C30.5038 22.3122 30.7464 21.4491 31.0979 20.7065C31.22 20.4485 31.3145 20.2321 31.308 20.2255C31.3014 20.2189 31.1764 20.2972 31.0302 20.3994ZM43.858 20.2205C43.858 20.2305 43.9391 20.4124 44.0383 20.6249C44.5619 21.7464 44.7983 22.9199 44.7494 24.1561C44.7065 25.2401 44.4596 26.259 44.0236 27.1506C43.9113 27.3803 43.8295 27.5682 43.842 27.5682C43.8545 27.5682 44.0157 27.4585 44.2004 27.3243C44.6837 26.9734 45.5563 26.4583 46.2234 26.1301C48.5335 24.9935 51.2643 24.3016 54.6699 23.9899C55.1561 23.9455 55.6 23.9045 55.6566 23.8988C55.7131 23.8933 55.3801 23.8555 54.9166 23.8151C51.488 23.5158 48.7748 22.8546 46.4061 21.7412C45.6763 21.3982 44.5882 20.7531 44.0327 20.3341C43.9366 20.2617 43.858 20.2105 43.858 20.2205ZM74.0851 21.9952C74.4208 22.1383 74.6939 22.4752 74.8562 22.9466C75.1242 23.7246 75.1762 25.6771 74.9581 26.7696C74.8697 27.2124 74.6548 27.6437 74.4192 27.8511C74.1368 28.0996 73.9021 28.1652 73.3134 28.1599C72.7943 28.1553 72.4554 28.0766 72.152 27.8902L72.0184 27.8082V25.2033V22.5984L72.2522 22.4079C72.5292 22.1823 72.8247 22.0243 73.1078 21.9504C73.3648 21.8833 73.8777 21.9068 74.0851 21.9952ZM89.0406 21.9613C89.606 22.1292 89.9076 22.5651 90.0945 23.4843C90.1561 23.7874 90.1681 24.0526 90.167 25.081C90.1657 26.1864 90.1564 26.3562 90.0774 26.7174C89.9255 27.4117 89.6558 27.8524 89.2711 28.0349C88.733 28.2903 88.0504 28.1902 87.6723 27.8006C87.2424 27.3576 87.0647 26.5504 87.0647 25.0399C87.0647 23.4599 87.2549 22.6772 87.7481 22.2264C88.0859 21.9177 88.5638 21.8197 89.0406 21.9613ZM113.037 26.549L113.026 27.6263L112.779 27.8255C112.643 27.935 112.413 28.0839 112.266 28.1562C112.026 28.2746 111.963 28.2876 111.629 28.2876C111.203 28.2876 110.967 28.1994 110.714 27.9462C110.469 27.7014 110.356 27.4003 110.355 26.9927C110.354 26.6921 110.37 26.6105 110.469 26.4088C110.77 25.7962 111.491 25.487 112.646 25.4756L113.048 25.4716L113.037 26.549ZM40.7336 30.4506C39.9694 30.8348 39.1034 31.0636 38.0984 31.1467C36.8683 31.2485 35.4613 30.9898 34.3842 30.4638C34.1818 30.365 34.0119 30.2885 34.0065 30.2939C34.0012 30.2992 34.1575 30.5447 34.3539 30.8393C35.969 33.2627 36.9645 36.338 37.4007 40.2507C37.446 40.6577 37.4959 41.1849 37.5115 41.4223C37.5447 41.927 37.6 42.18 37.6058 41.854C37.6122 41.5022 37.7277 40.328 37.8385 39.4902C38.1295 37.2883 38.6514 35.2444 39.352 33.562C39.8551 32.3536 40.236 31.6615 41.1177 30.3534C41.2135 30.2113 41.2059 30.2132 40.7336 30.4506Z" fill="#908E9F"/>
<path fill-rule="evenodd" clip-rule="evenodd" d="M37.5573 6.02649C37.5436 6.10563 37.5027 6.51262 37.4663 6.93092C37.1055 11.0794 35.9412 14.7193 34.1823 17.1982C34.0339 17.4073 33.9196 17.5784 33.9282 17.5784C33.937 17.5784 34.0796 17.5062 34.2453 17.4179C34.411 17.3296 34.7315 17.1887 34.9576 17.1048C36.8446 16.4047 38.9706 16.4818 40.7297 17.3141C40.9424 17.4147 41.1221 17.4914 41.1291 17.4845C41.136 17.4775 41.0304 17.3062 40.8943 17.1037C39.0583 14.3727 38.0036 10.9476 37.6352 6.51981C37.5998 6.09511 37.5739 5.93058 37.5573 6.02649ZM62.0835 16.4036C60.7139 16.6634 59.7209 17.448 59.068 18.7863C58.7032 19.5339 58.5251 20.1379 58.3633 21.1756C58.2553 21.8679 58.2121 23.7631 58.2858 24.5744C58.4879 26.8 59.1906 28.3957 60.3583 29.2807C60.699 29.5389 61.353 29.8469 61.8028 29.9609C62.1302 30.0439 62.2689 30.0544 63.0153 30.0524C63.7873 30.0504 63.8908 30.0413 64.249 29.9446C65.8998 29.4988 66.9812 28.224 67.4683 26.1499C67.8648 24.4615 67.8756 22.1463 67.4951 20.3989C67.1866 18.9821 66.5173 17.8119 65.6312 17.1404C65.2955 16.886 64.6387 16.5749 64.2075 16.4661C63.7578 16.3526 62.541 16.3168 62.0835 16.4036ZM63.6114 18.4808C64.1416 18.7394 64.5758 19.4609 64.8002 20.4562C65.14 21.9629 65.123 24.6949 64.7652 26.1009C64.4955 27.1605 64.0511 27.805 63.4524 28.0046C63.1563 28.1034 62.6481 28.0676 62.3781 27.9289C61.6968 27.5791 61.2762 26.6919 61.0572 25.1427C60.9708 24.5312 60.937 22.7143 60.998 21.9553C61.123 20.3988 61.4255 19.4004 61.9408 18.8439C62.2934 18.4629 62.5401 18.3586 63.0564 18.3717C63.3308 18.3786 63.4499 18.402 63.6114 18.4808ZM37.1159 18.9395C36.4189 18.9979 35.7025 19.2321 35.1011 19.5981C34.6287 19.8855 33.8835 20.6345 33.6095 21.0972C32.584 22.829 32.5972 25.0512 33.643 26.7292C33.894 27.1317 34.5188 27.7839 34.9178 28.0597C36.278 29 38.091 29.1447 39.6077 28.434C40.055 28.2244 40.394 27.9886 40.7846 27.6154C41.4922 26.9393 41.9402 26.1309 42.1777 25.1016C42.2981 24.58 42.3252 23.6403 42.2364 23.0666C42.1066 22.2279 41.7756 21.416 41.3067 20.7865C41.0333 20.4194 40.5571 19.9593 40.1992 19.7162C39.61 19.3161 38.7487 19.003 38.1057 18.9552C37.9344 18.9424 37.7295 18.9263 37.6503 18.9194C37.5712 18.9124 37.3307 18.9215 37.1159 18.9395ZM70.189 20.2662C69.7594 20.4073 69.3663 20.5453 69.3154 20.5731C69.1978 20.6372 69.1936 20.8106 69.3027 21.0976C69.5617 21.7791 69.5913 22.5559 69.5922 28.7103C69.5928 33.3532 69.5985 33.7806 69.6598 33.8041C69.723 33.8283 71.5135 33.4905 71.8051 33.3993C71.8889 33.373 71.9561 33.3177 71.9798 33.2553C72.0017 33.1978 72.0184 32.3865 72.0184 31.3844C72.0184 29.9844 72.0291 29.6196 72.0698 29.6371C72.0981 29.6493 72.2677 29.7241 72.4467 29.8034C72.9293 30.017 73.4085 30.0907 74.147 30.0649C75.1451 30.0301 75.6921 29.8169 76.2769 29.2351C76.8921 28.623 77.2279 27.8271 77.431 26.4993C77.5231 25.8975 77.5351 24.092 77.451 23.4983C77.3041 22.4622 76.9431 21.5311 76.4707 20.9702C76.1559 20.5963 75.7119 20.2986 75.2368 20.1429C74.8979 20.0318 74.8336 20.0245 74.1972 20.0245C73.6009 20.0245 73.4816 20.0361 73.2106 20.1208C72.8011 20.2488 72.3435 20.4902 72.031 20.7433C71.7654 20.9583 71.7306 20.9773 71.7306 20.9071C71.7306 20.7998 71.4711 20.2077 71.382 20.1115C71.2355 19.9533 71.0812 19.9734 70.189 20.2662ZM79.4774 20.3288C79.0465 20.5057 78.6534 20.6721 78.6038 20.6986C78.4771 20.7665 78.4884 20.8797 78.6768 21.4352C78.9846 22.3422 78.9802 22.2758 78.9967 26.1689C79.0068 28.5537 79.0252 29.6576 79.0554 29.6941C79.0894 29.735 79.3594 29.747 80.2411 29.747C81.2442 29.747 81.3858 29.7392 81.4077 29.682C81.4214 29.6462 81.4326 28.1519 81.4326 26.3611V23.1052L81.669 22.874C81.9783 22.5715 82.3357 22.3268 82.5933 22.2412C82.8443 22.1579 83.114 22.1781 83.5271 22.3111C83.7808 22.3928 83.8253 22.3972 83.8745 22.3452C83.9201 22.2969 84.4695 20.8571 84.5751 20.5091C84.6187 20.3653 84.5273 20.2513 84.276 20.1361C83.964 19.993 83.2612 19.9565 82.8908 20.0642C82.3363 20.2254 81.8812 20.5475 81.4064 21.1147C81.2553 21.2951 81.12 21.4428 81.1057 21.4428C81.0913 21.4428 81.0591 21.3453 81.0341 21.2261C80.9672 20.9069 80.7488 20.3659 80.6089 20.1727C80.5159 20.0444 80.4596 20.0043 80.3738 20.0055C80.3118 20.0065 79.9084 20.1519 79.4774 20.3288ZM87.928 20.0322C85.7576 20.3927 84.4748 22.2529 84.4748 25.0399C84.4748 26.2805 84.7419 27.3961 85.2398 28.2355C85.3698 28.4547 85.5789 28.7142 85.8314 28.9697C86.3698 29.5145 86.8398 29.7822 87.6001 29.9767C88.0405 30.0894 89.2119 30.0896 89.6547 29.977C90.3579 29.7981 90.823 29.5477 91.3199 29.0801C92.023 28.4184 92.4266 27.6274 92.6647 26.4445C92.7445 26.0481 92.7571 25.8565 92.7571 25.0399C92.7571 24.2267 92.7443 24.031 92.6658 23.6412C92.4322 22.4813 92.0103 21.6505 91.3277 21.0063C90.8016 20.5098 90.1937 20.203 89.4558 20.0617C89.1772 20.0084 88.1867 19.9892 87.928 20.0322ZM94.9642 20.2884C94.5041 20.4416 94.1112 20.593 94.0912 20.6246C94.033 20.7165 94.0465 20.8203 94.1588 21.1457C94.3818 21.7918 94.3933 22.0125 94.4098 25.9444C94.4181 27.9341 94.4342 29.6037 94.4455 29.6546L94.4661 29.747H95.6082C96.4417 29.747 96.7636 29.7337 96.7996 29.6977C96.8372 29.6601 96.8489 28.8285 96.8489 26.2057V22.7631L97.0853 22.5825C97.543 22.2326 97.8703 22.0812 98.3083 22.0165C98.7052 21.9579 98.9893 22.0758 99.1385 22.3611C99.3266 22.7207 99.3287 22.7596 99.3536 26.3349L99.3772 29.7265L100.528 29.7375C101.574 29.7474 101.684 29.742 101.731 29.6782C101.771 29.6234 101.782 28.8583 101.782 26.1837V22.7595L102.019 22.5718C102.353 22.3058 102.856 22.0701 103.187 22.0231C103.776 21.9398 104.046 22.1284 104.185 22.72C104.238 22.9446 104.248 23.4782 104.248 26.2603C104.249 28.2877 104.264 29.5763 104.289 29.6416L104.329 29.747H105.482H106.635L106.675 29.6416C106.729 29.5015 106.727 23.0612 106.674 22.4166C106.56 21.0425 106.087 20.3137 105.148 20.0637C104.85 19.9843 104.08 19.9872 103.682 20.0692C103.016 20.2064 102.436 20.5067 101.831 21.0279C101.666 21.1703 101.524 21.2802 101.517 21.2723C101.51 21.2643 101.454 21.1569 101.392 21.0336C101.174 20.6011 100.654 20.2073 100.115 20.0669C99.8059 19.9862 99.1606 19.9858 98.7796 20.0659C98.1025 20.2084 97.4406 20.5702 96.7965 21.1501C96.7111 21.227 96.6344 21.2827 96.6261 21.2738C96.6178 21.265 96.5625 21.0747 96.5032 20.8509C96.444 20.6271 96.3448 20.3496 96.283 20.2342C96.1749 20.0325 96.1636 20.0242 95.9856 20.0171C95.8526 20.0118 95.5659 20.0879 94.9642 20.2884ZM110.888 20.0682C109.58 20.2458 108.686 20.5846 108.69 20.9011C108.692 21.0872 109.154 22.3987 109.234 22.4472C109.291 22.4814 109.432 22.4482 109.872 22.2965C110.746 21.9949 111.096 21.9211 111.669 21.9181C112.197 21.9154 112.385 21.9559 112.638 22.1261C112.933 22.3248 113.046 22.6881 113.046 23.4387V23.9094L112.625 23.9095C111.686 23.9099 110.594 24.0772 109.984 24.3145C108.999 24.6971 108.391 25.3351 108.148 26.2404C108.024 26.7016 108.024 27.5783 108.148 28.041C108.293 28.5826 108.494 28.9436 108.849 29.2993C109.385 29.836 110.031 30.0762 110.938 30.0756C111.832 30.0751 112.479 29.8162 113.172 29.1811L113.401 28.9715L113.511 29.3079C113.662 29.7665 113.843 30.0757 113.962 30.0765C114.012 30.0769 114.447 29.9174 114.927 29.7221L115.801 29.3669V29.2041C115.801 29.1147 115.747 28.9181 115.681 28.7673C115.563 28.4965 115.514 28.3421 115.425 27.9526C115.396 27.8251 115.369 26.7758 115.35 25.0399C115.322 22.4537 115.316 22.3108 115.232 21.9883C114.944 20.8765 114.252 20.2728 113.031 20.0658C112.577 19.9889 111.463 19.9902 110.888 20.0682ZM31.0302 20.3994C28.2255 22.3594 24.7317 23.4531 20.0552 23.8351L19.418 23.8871L19.7674 23.9172C22.3281 24.1377 24.0478 24.4278 25.8062 24.9359C27.6934 25.4813 29.1652 26.1463 30.6205 27.1109C30.9483 27.3283 31.2317 27.5128 31.2502 27.521C31.2687 27.5291 31.2296 27.4275 31.1632 27.2951C30.8546 26.6791 30.5967 25.8713 30.4758 25.1427C30.3973 24.6694 30.3664 23.6068 30.4172 23.1283C30.5038 22.3122 30.7464 21.4491 31.0979 20.7065C31.22 20.4485 31.3145 20.2321 31.308 20.2255C31.3014 20.2189 31.1764 20.2972 31.0302 20.3994ZM43.858 20.2205C43.858 20.2305 43.9391 20.4124 44.0383 20.6249C44.5619 21.7464 44.7983 22.9199 44.7494 24.1561C44.7065 25.2401 44.4596 26.259 44.0236 27.1506C43.9113 27.3803 43.8295 27.5682 43.842 27.5682C43.8545 27.5682 44.0157 27.4585 44.2004 27.3243C44.6837 26.9734 45.5563 26.4583 46.2234 26.1301C48.5335 24.9935 51.2643 24.3016 54.6699 23.9899C55.1561 23.9455 55.6 23.9045 55.6566 23.8988C55.7131 23.8933 55.3801 23.8555 54.9166 23.8151C51.488 23.5158 48.7748 22.8546 46.4061 21.7412C45.6763 21.3982 44.5882 20.7531 44.0327 20.3341C43.9366 20.2617 43.858 20.2105 43.858 20.2205ZM74.0851 21.9952C74.4208 22.1383 74.6939 22.4752 74.8562 22.9466C75.1242 23.7246 75.1762 25.6771 74.9581 26.7696C74.8697 27.2124 74.6548 27.6437 74.4192 27.8511C74.1368 28.0996 73.9021 28.1652 73.3134 28.1599C72.7943 28.1553 72.4554 28.0766 72.152 27.8902L72.0184 27.8082V25.2033V22.5984L72.2522 22.4079C72.5292 22.1823 72.8247 22.0243 73.1078 21.9504C73.3648 21.8833 73.8777 21.9068 74.0851 21.9952ZM89.0406 21.9613C89.606 22.1292 89.9076 22.5651 90.0945 23.4843C90.1561 23.7874 90.1681 24.0526 90.167 25.081C90.1657 26.1864 90.1564 26.3562 90.0774 26.7174C89.9255 27.4117 89.6558 27.8524 89.2711 28.0349C88.733 28.2903 88.0504 28.1902 87.6723 27.8006C87.2424 27.3576 87.0647 26.5504 87.0647 25.0399C87.0647 23.4599 87.2549 22.6772 87.7481 22.2264C88.0859 21.9177 88.5638 21.8197 89.0406 21.9613ZM113.037 26.549L113.026 27.6263L112.779 27.8255C112.643 27.935 112.413 28.0839 112.266 28.1562C112.026 28.2746 111.963 28.2876 111.629 28.2876C111.203 28.2876 110.967 28.1994 110.714 27.9462C110.469 27.7014 110.356 27.4003 110.355 26.9927C110.354 26.6921 110.37 26.6105 110.469 26.4088C110.77 25.7962 111.491 25.487 112.646 25.4756L113.048 25.4716L113.037 26.549ZM40.7336 30.4506C39.9694 30.8348 39.1034 31.0636 38.0984 31.1467C36.8683 31.2485 35.4613 30.9898 34.3842 30.4638C34.1818 30.365 34.0119 30.2885 34.0065 30.2939C34.0012 30.2992 34.1575 30.5447 34.3539 30.8393C35.969 33.2627 36.9645 36.338 37.4007 40.2507C37.446 40.6577 37.4959 41.1849 37.5115 41.4223C37.5447 41.927 37.6 42.18 37.6058 41.854C37.6122 41.5022 37.7277 40.328 37.8385 39.4902C38.1295 37.2883 38.6514 35.2444 39.352 33.562C39.8551 32.3536 40.236 31.6615 41.1177 30.3534C41.2135 30.2113 41.2059 30.2132 40.7336 30.4506Z" fill="#908E9F"/>
<path fill-rule="evenodd" clip-rule="evenodd" d="M37.5573 6.02649C37.5436 6.10563 37.5027 6.51262 37.4663 6.93092C37.1055 11.0794 35.9412 14.7193 34.1823 17.1982C34.0339 17.4073 33.9196 17.5784 33.9282 17.5784C33.937 17.5784 34.0796 17.5062 34.2453 17.4179C34.411 17.3296 34.7315 17.1887 34.9576 17.1048C36.8446 16.4047 38.9706 16.4818 40.7297 17.3141C40.9424 17.4147 41.1221 17.4914 41.1291 17.4845C41.136 17.4775 41.0304 17.3062 40.8943 17.1037C39.0583 14.3727 38.0036 10.9476 37.6352 6.51981C37.5998 6.09511 37.5739 5.93058 37.5573 6.02649ZM62.0835 16.4036C60.7139 16.6634 59.7209 17.448 59.068 18.7863C58.7032 19.5339 58.5251 20.1379 58.3633 21.1756C58.2553 21.8679 58.2121 23.7631 58.2858 24.5744C58.4879 26.8 59.1906 28.3957 60.3583 29.2807C60.699 29.5389 61.353 29.8469 61.8028 29.9609C62.1302 30.0439 62.2689 30.0544 63.0153 30.0524C63.7873 30.0504 63.8908 30.0413 64.249 29.9446C65.8998 29.4988 66.9812 28.224 67.4683 26.1499C67.8648 24.4615 67.8756 22.1463 67.4951 20.3989C67.1866 18.9821 66.5173 17.8119 65.6312 17.1404C65.2955 16.886 64.6387 16.5749 64.2075 16.4661C63.7578 16.3526 62.541 16.3168 62.0835 16.4036ZM63.6114 18.4808C64.1416 18.7394 64.5758 19.4609 64.8002 20.4562C65.14 21.9629 65.123 24.6949 64.7652 26.1009C64.4955 27.1605 64.0511 27.805 63.4524 28.0046C63.1563 28.1034 62.6481 28.0676 62.3781 27.9289C61.6968 27.5791 61.2762 26.6919 61.0572 25.1427C60.9708 24.5312 60.937 22.7143 60.998 21.9553C61.123 20.3988 61.4255 19.4004 61.9408 18.8439C62.2934 18.4629 62.5401 18.3586 63.0564 18.3717C63.3308 18.3786 63.4499 18.402 63.6114 18.4808ZM37.1159 18.9395C36.4189 18.9979 35.7025 19.2321 35.1011 19.5981C34.6287 19.8855 33.8835 20.6345 33.6095 21.0972C32.584 22.829 32.5972 25.0512 33.643 26.7292C33.894 27.1317 34.5188 27.7839 34.9178 28.0597C36.278 29 38.091 29.1447 39.6077 28.434C40.055 28.2244 40.394 27.9886 40.7846 27.6154C41.4922 26.9393 41.9402 26.1309 42.1777 25.1016C42.2981 24.58 42.3252 23.6403 42.2364 23.0666C42.1066 22.2279 41.7756 21.416 41.3067 20.7865C41.0333 20.4194 40.5571 19.9593 40.1992 19.7162C39.61 19.3161 38.7487 19.003 38.1057 18.9552C37.9344 18.9424 37.7295 18.9263 37.6503 18.9194C37.5712 18.9124 37.3307 18.9215 37.1159 18.9395ZM70.189 20.2662C69.7594 20.4073 69.3663 20.5453 69.3154 20.5731C69.1978 20.6372 69.1936 20.8106 69.3027 21.0976C69.5617 21.7791 69.5913 22.5559 69.5922 28.7103C69.5928 33.3532 69.5985 33.7806 69.6598 33.8041C69.723 33.8283 71.5135 33.4905 71.8051 33.3993C71.8889 33.373 71.9561 33.3177 71.9798 33.2553C72.0017 33.1978 72.0184 32.3865 72.0184 31.3844C72.0184 29.9844 72.0291 29.6196 72.0698 29.6371C72.0981 29.6493 72.2677 29.7241 72.4467 29.8034C72.9293 30.017 73.4085 30.0907 74.147 30.0649C75.1451 30.0301 75.6921 29.8169 76.2769 29.2351C76.8921 28.623 77.2279 27.8271 77.431 26.4993C77.5231 25.8975 77.5351 24.092 77.451 23.4983C77.3041 22.4622 76.9431 21.5311 76.4707 20.9702C76.1559 20.5963 75.7119 20.2986 75.2368 20.1429C74.8979 20.0318 74.8336 20.0245 74.1972 20.0245C73.6009 20.0245 73.4816 20.0361 73.2106 20.1208C72.8011 20.2488 72.3435 20.4902 72.031 20.7433C71.7654 20.9583 71.7306 20.9773 71.7306 20.9071C71.7306 20.7998 71.4711 20.2077 71.382 20.1115C71.2355 19.9533 71.0812 19.9734 70.189 20.2662ZM79.4774 20.3288C79.0465 20.5057 78.6534 20.6721 78.6038 20.6986C78.4771 20.7665 78.4884 20.8797 78.6768 21.4352C78.9846 22.3422 78.9802 22.2758 78.9967 26.1689C79.0068 28.5537 79.0252 29.6576 79.0554 29.6941C79.0894 29.735 79.3594 29.747 80.2411 29.747C81.2442 29.747 81.3858 29.7392 81.4077 29.682C81.4214 29.6462 81.4326 28.1519 81.4326 26.3611V23.1052L81.669 22.874C81.9783 22.5715 82.3357 22.3268 82.5933 22.2412C82.8443 22.1579 83.114 22.1781 83.5271 22.3111C83.7808 22.3928 83.8253 22.3972 83.8745 22.3452C83.9201 22.2969 84.4695 20.8571 84.5751 20.5091C84.6187 20.3653 84.5273 20.2513 84.276 20.1361C83.964 19.993 83.2612 19.9565 82.8908 20.0642C82.3363 20.2254 81.8812 20.5475 81.4064 21.1147C81.2553 21.2951 81.12 21.4428 81.1057 21.4428C81.0913 21.4428 81.0591 21.3453 81.0341 21.2261C80.9672 20.9069 80.7488 20.3659 80.6089 20.1727C80.5159 20.0444 80.4596 20.0043 80.3738 20.0055C80.3118 20.0065 79.9084 20.1519 79.4774 20.3288ZM87.928 20.0322C85.7576 20.3927 84.4748 22.2529 84.4748 25.0399C84.4748 26.2805 84.7419 27.3961 85.2398 28.2355C85.3698 28.4547 85.5789 28.7142 85.8314 28.9697C86.3698 29.5145 86.8398 29.7822 87.6001 29.9767C88.0405 30.0894 89.2119 30.0896 89.6547 29.977C90.3579 29.7981 90.823 29.5477 91.3199 29.0801C92.023 28.4184 92.4266 27.6274 92.6647 26.4445C92.7445 26.0481 92.7571 25.8565 92.7571 25.0399C92.7571 24.2267 92.7443 24.031 92.6658 23.6412C92.4322 22.4813 92.0103 21.6505 91.3277 21.0063C90.8016 20.5098 90.1937 20.203 89.4558 20.0617C89.1772 20.0084 88.1867 19.9892 87.928 20.0322ZM94.9642 20.2884C94.5041 20.4416 94.1112 20.593 94.0912 20.6246C94.033 20.7165 94.0465 20.8203 94.1588 21.1457C94.3818 21.7918 94.3933 22.0125 94.4098 25.9444C94.4181 27.9341 94.4342 29.6037 94.4455 29.6546L94.4661 29.747H95.6082C96.4417 29.747 96.7636 29.7337 96.7996 29.6977C96.8372 29.6601 96.8489 28.8285 96.8489 26.2057V22.7631L97.0853 22.5825C97.543 22.2326 97.8703 22.0812 98.3083 22.0165C98.7052 21.9579 98.9893 22.0758 99.1385 22.3611C99.3266 22.7207 99.3287 22.7596 99.3536 26.3349L99.3772 29.7265L100.528 29.7375C101.574 29.7474 101.684 29.742 101.731 29.6782C101.771 29.6234 101.782 28.8583 101.782 26.1837V22.7595L102.019 22.5718C102.353 22.3058 102.856 22.0701 103.187 22.0231C103.776 21.9398 104.046 22.1284 104.185 22.72C104.238 22.9446 104.248 23.4782 104.248 26.2603C104.249 28.2877 104.264 29.5763 104.289 29.6416L104.329 29.747H105.482H106.635L106.675 29.6416C106.729 29.5015 106.727 23.0612 106.674 22.4166C106.56 21.0425 106.087 20.3137 105.148 20.0637C104.85 19.9843 104.08 19.9872 103.682 20.0692C103.016 20.2064 102.436 20.5067 101.831 21.0279C101.666 21.1703 101.524 21.2802 101.517 21.2723C101.51 21.2643 101.454 21.1569 101.392 21.0336C101.174 20.6011 100.654 20.2073 100.115 20.0669C99.8059 19.9862 99.1606 19.9858 98.7796 20.0659C98.1025 20.2084 97.4406 20.5702 96.7965 21.1501C96.7111 21.227 96.6344 21.2827 96.6261 21.2738C96.6178 21.265 96.5625 21.0747 96.5032 20.8509C96.444 20.6271 96.3448 20.3496 96.283 20.2342C96.1749 20.0325 96.1636 20.0242 95.9856 20.0171C95.8526 20.0118 95.5659 20.0879 94.9642 20.2884ZM110.888 20.0682C109.58 20.2458 108.686 20.5846 108.69 20.9011C108.692 21.0872 109.154 22.3987 109.234 22.4472C109.291 22.4814 109.432 22.4482 109.872 22.2965C110.746 21.9949 111.096 21.9211 111.669 21.9181C112.197 21.9154 112.385 21.9559 112.638 22.1261C112.933 22.3248 113.046 22.6881 113.046 23.4387V23.9094L112.625 23.9095C111.686 23.9099 110.594 24.0772 109.984 24.3145C108.999 24.6971 108.391 25.3351 108.148 26.2404C108.024 26.7016 108.024 27.5783 108.148 28.041C108.293 28.5826 108.494 28.9436 108.849 29.2993C109.385 29.836 110.031 30.0762 110.938 30.0756C111.832 30.0751 112.479 29.8162 113.172 29.1811L113.401 28.9715L113.511 29.3079C113.662 29.7665 113.843 30.0757 113.962 30.0765C114.012 30.0769 114.447 29.9174 114.927 29.7221L115.801 29.3669V29.2041C115.801 29.1147 115.747 28.9181 115.681 28.7673C115.563 28.4965 115.514 28.3421 115.425 27.9526C115.396 27.8251 115.369 26.7758 115.35 25.0399C115.322 22.4537 115.316 22.3108 115.232 21.9883C114.944 20.8765 114.252 20.2728 113.031 20.0658C112.577 19.9889 111.463 19.9902 110.888 20.0682ZM31.0302 20.3994C28.2255 22.3594 24.7317 23.4531 20.0552 23.8351L19.418 23.8871L19.7674 23.9172C22.3281 24.1377 24.0478 24.4278 25.8062 24.9359C27.6934 25.4813 29.1652 26.1463 30.6205 27.1109C30.9483 27.3283 31.2317 27.5128 31.2502 27.521C31.2687 27.5291 31.2296 27.4275 31.1632 27.2951C30.8546 26.6791 30.5967 25.8713 30.4758 25.1427C30.3973 24.6694 30.3664 23.6068 30.4172 23.1283C30.5038 22.3122 30.7464 21.4491 31.0979 20.7065C31.22 20.4485 31.3145 20.2321 31.308 20.2255C31.3014 20.2189 31.1764 20.2972 31.0302 20.3994ZM43.858 20.2205C43.858 20.2305 43.9391 20.4124 44.0383 20.6249C44.5619 21.7464 44.7983 22.9199 44.7494 24.1561C44.7065 25.2401 44.4596 26.259 44.0236 27.1506C43.9113 27.3803 43.8295 27.5682 43.842 27.5682C43.8545 27.5682 44.0157 27.4585 44.2004 27.3243C44.6837 26.9734 45.5563 26.4583 46.2234 26.1301C48.5335 24.9935 51.2643 24.3016 54.6699 23.9899C55.1561 23.9455 55.6 23.9045 55.6566 23.8988C55.7131 23.8933 55.3801 23.8555 54.9166 23.8151C51.488 23.5158 48.7748 22.8546 46.4061 21.7412C45.6763 21.3982 44.5882 20.7531 44.0327 20.3341C43.9366 20.2617 43.858 20.2105 43.858 20.2205ZM74.0851 21.9952C74.4208 22.1383 74.6939 22.4752 74.8562 22.9466C75.1242 23.7246 75.1762 25.6771 74.9581 26.7696C74.8697 27.2124 74.6548 27.6437 74.4192 27.8511C74.1368 28.0996 73.9021 28.1652 73.3134 28.1599C72.7943 28.1553 72.4554 28.0766 72.152 27.8902L72.0184 27.8082V25.2033V22.5984L72.2522 22.4079C72.5292 22.1823 72.8247 22.0243 73.1078 21.9504C73.3648 21.8833 73.8777 21.9068 74.0851 21.9952ZM89.0406 21.9613C89.606 22.1292 89.9076 22.5651 90.0945 23.4843C90.1561 23.7874 90.1681 24.0526 90.167 25.081C90.1657 26.1864 90.1564 26.3562 90.0774 26.7174C89.9255 27.4117 89.6558 27.8524 89.2711 28.0349C88.733 28.2903 88.0504 28.1902 87.6723 27.8006C87.2424 27.3576 87.0647 26.5504 87.0647 25.0399C87.0647 23.4599 87.2549 22.6772 87.7481 22.2264C88.0859 21.9177 88.5638 21.8197 89.0406 21.9613ZM113.037 26.549L113.026 27.6263L112.779 27.8255C112.643 27.935 112.413 28.0839 112.266 28.1562C112.026 28.2746 111.963 28.2876 111.629 28.2876C111.203 28.2876 110.967 28.1994 110.714 27.9462C110.469 27.7014 110.356 27.4003 110.355 26.9927C110.354 26.6921 110.37 26.6105 110.469 26.4088C110.77 25.7962 111.491 25.487 112.646 25.4756L113.048 25.4716L113.037 26.549ZM40.7336 30.4506C39.9694 30.8348 39.1034 31.0636 38.0984 31.1467C36.8683 31.2485 35.4613 30.9898 34.3842 30.4638C34.1818 30.365 34.0119 30.2885 34.0065 30.2939C34.0012 30.2992 34.1575 30.5447 34.3539 30.8393C35.969 33.2627 36.9645 36.338 37.4007 40.2507C37.446 40.6577 37.4959 41.1849 37.5115 41.4223C37.5447 41.927 37.6 42.18 37.6058 41.854C37.6122 41.5022 37.7277 40.328 37.8385 39.4902C38.1295 37.2883 38.6514 35.2444 39.352 33.562C39.8551 32.3536 40.236 31.6615 41.1177 30.3534C41.2135 30.2113 41.2059 30.2132 40.7336 30.4506Z" fill="#908E9F"/>
<path fill-rule="evenodd" clip-rule="evenodd" d="M37.5573 6.02649C37.5436 6.10563 37.5027 6.51262 37.4663 6.93092C37.1055 11.0794 35.9412 14.7193 34.1823 17.1982C34.0339 17.4073 33.9196 17.5784 33.9282 17.5784C33.937 17.5784 34.0796 17.5062 34.2453 17.4179C34.411 17.3296 34.7315 17.1887 34.9576 17.1048C36.8446 16.4047 38.9706 16.4818 40.7297 17.3141C40.9424 17.4147 41.1221 17.4914 41.1291 17.4845C41.136 17.4775 41.0304 17.3062 40.8943 17.1037C39.0583 14.3727 38.0036 10.9476 37.6352 6.51981C37.5998 6.09511 37.5739 5.93058 37.5573 6.02649ZM62.0835 16.4036C60.7139 16.6634 59.7209 17.448 59.068 18.7863C58.7032 19.5339 58.5251 20.1379 58.3633 21.1756C58.2553 21.8679 58.2121 23.7631 58.2858 24.5744C58.4879 26.8 59.1906 28.3957 60.3583 29.2807C60.699 29.5389 61.353 29.8469 61.8028 29.9609C62.1302 30.0439 62.2689 30.0544 63.0153 30.0524C63.7873 30.0504 63.8908 30.0413 64.249 29.9446C65.8998 29.4988 66.9812 28.224 67.4683 26.1499C67.8648 24.4615 67.8756 22.1463 67.4951 20.3989C67.1866 18.9821 66.5173 17.8119 65.6312 17.1404C65.2955 16.886 64.6387 16.5749 64.2075 16.4661C63.7578 16.3526 62.541 16.3168 62.0835 16.4036ZM63.6114 18.4808C64.1416 18.7394 64.5758 19.4609 64.8002 20.4562C65.14 21.9629 65.123 24.6949 64.7652 26.1009C64.4955 27.1605 64.0511 27.805 63.4524 28.0046C63.1563 28.1034 62.6481 28.0676 62.3781 27.9289C61.6968 27.5791 61.2762 26.6919 61.0572 25.1427C60.9708 24.5312 60.937 22.7143 60.998 21.9553C61.123 20.3988 61.4255 19.4004 61.9408 18.8439C62.2934 18.4629 62.5401 18.3586 63.0564 18.3717C63.3308 18.3786 63.4499 18.402 63.6114 18.4808ZM37.1159 18.9395C36.4189 18.9979 35.7025 19.2321 35.1011 19.5981C34.6287 19.8855 33.8835 20.6345 33.6095 21.0972C32.584 22.829 32.5972 25.0512 33.643 26.7292C33.894 27.1317 34.5188 27.7839 34.9178 28.0597C36.278 29 38.091 29.1447 39.6077 28.434C40.055 28.2244 40.394 27.9886 40.7846 27.6154C41.4922 26.9393 41.9402 26.1309 42.1777 25.1016C42.2981 24.58 42.3252 23.6403 42.2364 23.0666C42.1066 22.2279 41.7756 21.416 41.3067 20.7865C41.0333 20.4194 40.5571 19.9593 40.1992 19.7162C39.61 19.3161 38.7487 19.003 38.1057 18.9552C37.9344 18.9424 37.7295 18.9263 37.6503 18.9194C37.5712 18.9124 37.3307 18.9215 37.1159 18.9395ZM70.189 20.2662C69.7594 20.4073 69.3663 20.5453 69.3154 20.5731C69.1978 20.6372 69.1936 20.8106 69.3027 21.0976C69.5617 21.7791 69.5913 22.5559 69.5922 28.7103C69.5928 33.3532 69.5985 33.7806 69.6598 33.8041C69.723 33.8283 71.5135 33.4905 71.8051 33.3993C71.8889 33.373 71.9561 33.3177 71.9798 33.2553C72.0017 33.1978 72.0184 32.3865 72.0184 31.3844C72.0184 29.9844 72.0291 29.6196 72.0698 29.6371C72.0981 29.6493 72.2677 29.7241 72.4467 29.8034C72.9293 30.017 73.4085 30.0907 74.147 30.0649C75.1451 30.0301 75.6921 29.8169 76.2769 29.2351C76.8921 28.623 77.2279 27.8271 77.431 26.4993C77.5231 25.8975 77.5351 24.092 77.451 23.4983C77.3041 22.4622 76.9431 21.5311 76.4707 20.9702C76.1559 20.5963 75.7119 20.2986 75.2368 20.1429C74.8979 20.0318 74.8336 20.0245 74.1972 20.0245C73.6009 20.0245 73.4816 20.0361 73.2106 20.1208C72.8011 20.2488 72.3435 20.4902 72.031 20.7433C71.7654 20.9583 71.7306 20.9773 71.7306 20.9071C71.7306 20.7998 71.4711 20.2077 71.382 20.1115C71.2355 19.9533 71.0812 19.9734 70.189 20.2662ZM79.4774 20.3288C79.0465 20.5057 78.6534 20.6721 78.6038 20.6986C78.4771 20.7665 78.4884 20.8797 78.6768 21.4352C78.9846 22.3422 78.9802 22.2758 78.9967 26.1689C79.0068 28.5537 79.0252 29.6576 79.0554 29.6941C79.0894 29.735 79.3594 29.747 80.2411 29.747C81.2442 29.747 81.3858 29.7392 81.4077 29.682C81.4214 29.6462 81.4326 28.1519 81.4326 26.3611V23.1052L81.669 22.874C81.9783 22.5715 82.3357 22.3268 82.5933 22.2412C82.8443 22.1579 83.114 22.1781 83.5271 22.3111C83.7808 22.3928 83.8253 22.3972 83.8745 22.3452C83.9201 22.2969 84.4695 20.8571 84.5751 20.5091C84.6187 20.3653 84.5273 20.2513 84.276 20.1361C83.964 19.993 83.2612 19.9565 82.8908 20.0642C82.3363 20.2254 81.8812 20.5475 81.4064 21.1147C81.2553 21.2951 81.12 21.4428 81.1057 21.4428C81.0913 21.4428 81.0591 21.3453 81.0341 21.2261C80.9672 20.9069 80.7488 20.3659 80.6089 20.1727C80.5159 20.0444 80.4596 20.0043 80.3738 20.0055C80.3118 20.0065 79.9084 20.1519 79.4774 20.3288ZM87.928 20.0322C85.7576 20.3927 84.4748 22.2529 84.4748 25.0399C84.4748 26.2805 84.7419 27.3961 85.2398 28.2355C85.3698 28.4547 85.5789 28.7142 85.8314 28.9697C86.3698 29.5145 86.8398 29.7822 87.6001 29.9767C88.0405 30.0894 89.2119 30.0896 89.6547 29.977C90.3579 29.7981 90.823 29.5477 91.3199 29.0801C92.023 28.4184 92.4266 27.6274 92.6647 26.4445C92.7445 26.0481 92.7571 25.8565 92.7571 25.0399C92.7571 24.2267 92.7443 24.031 92.6658 23.6412C92.4322 22.4813 92.0103 21.6505 91.3277 21.0063C90.8016 20.5098 90.1937 20.203 89.4558 20.0617C89.1772 20.0084 88.1867 19.9892 87.928 20.0322ZM94.9642 20.2884C94.5041 20.4416 94.1112 20.593 94.0912 20.6246C94.033 20.7165 94.0465 20.8203 94.1588 21.1457C94.3818 21.7918 94.3933 22.0125 94.4098 25.9444C94.4181 27.9341 94.4342 29.6037 94.4455 29.6546L94.4661 29.747H95.6082C96.4417 29.747 96.7636 29.7337 96.7996 29.6977C96.8372 29.6601 96.8489 28.8285 96.8489 26.2057V22.7631L97.0853 22.5825C97.543 22.2326 97.8703 22.0812 98.3083 22.0165C98.7052 21.9579 98.9893 22.0758 99.1385 22.3611C99.3266 22.7207 99.3287 22.7596 99.3536 26.3349L99.3772 29.7265L100.528 29.7375C101.574 29.7474 101.684 29.742 101.731 29.6782C101.771 29.6234 101.782 28.8583 101.782 26.1837V22.7595L102.019 22.5718C102.353 22.3058 102.856 22.0701 103.187 22.0231C103.776 21.9398 104.046 22.1284 104.185 22.72C104.238 22.9446 104.248 23.4782 104.248 26.2603C104.249 28.2877 104.264 29.5763 104.289 29.6416L104.329 29.747H105.482H106.635L106.675 29.6416C106.729 29.5015 106.727 23.0612 106.674 22.4166C106.56 21.0425 106.087 20.3137 105.148 20.0637C104.85 19.9843 104.08 19.9872 103.682 20.0692C103.016 20.2064 102.436 20.5067 101.831 21.0279C101.666 21.1703 101.524 21.2802 101.517 21.2723C101.51 21.2643 101.454 21.1569 101.392 21.0336C101.174 20.6011 100.654 20.2073 100.115 20.0669C99.8059 19.9862 99.1606 19.9858 98.7796 20.0659C98.1025 20.2084 97.4406 20.5702 96.7965 21.1501C96.7111 21.227 96.6344 21.2827 96.6261 21.2738C96.6178 21.265 96.5625 21.0747 96.5032 20.8509C96.444 20.6271 96.3448 20.3496 96.283 20.2342C96.1749 20.0325 96.1636 20.0242 95.9856 20.0171C95.8526 20.0118 95.5659 20.0879 94.9642 20.2884ZM110.888 20.0682C109.58 20.2458 108.686 20.5846 108.69 20.9011C108.692 21.0872 109.154 22.3987 109.234 22.4472C109.291 22.4814 109.432 22.4482 109.872 22.2965C110.746 21.9949 111.096 21.9211 111.669 21.9181C112.197 21.9154 112.385 21.9559 112.638 22.1261C112.933 22.3248 113.046 22.6881 113.046 23.4387V23.9094L112.625 23.9095C111.686 23.9099 110.594 24.0772 109.984 24.3145C108.999 24.6971 108.391 25.3351 108.148 26.2404C108.024 26.7016 108.024 27.5783 108.148 28.041C108.293 28.5826 108.494 28.9436 108.849 29.2993C109.385 29.836 110.031 30.0762 110.938 30.0756C111.832 30.0751 112.479 29.8162 113.172 29.1811L113.401 28.9715L113.511 29.3079C113.662 29.7665 113.843 30.0757 113.962 30.0765C114.012 30.0769 114.447 29.9174 114.927 29.7221L115.801 29.3669V29.2041C115.801 29.1147 115.747 28.9181 115.681 28.7673C115.563 28.4965 115.514 28.3421 115.425 27.9526C115.396 27.8251 115.369 26.7758 115.35 25.0399C115.322 22.4537 115.316 22.3108 115.232 21.9883C114.944 20.8765 114.252 20.2728 113.031 20.0658C112.577 19.9889 111.463 19.9902 110.888 20.0682ZM31.0302 20.3994C28.2255 22.3594 24.7317 23.4531 20.0552 23.8351L19.418 23.8871L19.7674 23.9172C22.3281 24.1377 24.0478 24.4278 25.8062 24.9359C27.6934 25.4813 29.1652 26.1463 30.6205 27.1109C30.9483 27.3283 31.2317 27.5128 31.2502 27.521C31.2687 27.5291 31.2296 27.4275 31.1632 27.2951C30.8546 26.6791 30.5967 25.8713 30.4758 25.1427C30.3973 24.6694 30.3664 23.6068 30.4172 23.1283C30.5038 22.3122 30.7464 21.4491 31.0979 20.7065C31.22 20.4485 31.3145 20.2321 31.308 20.2255C31.3014 20.2189 31.1764 20.2972 31.0302 20.3994ZM43.858 20.2205C43.858 20.2305 43.9391 20.4124 44.0383 20.6249C44.5619 21.7464 44.7983 22.9199 44.7494 24.1561C44.7065 25.2401 44.4596 26.259 44.0236 27.1506C43.9113 27.3803 43.8295 27.5682 43.842 27.5682C43.8545 27.5682 44.0157 27.4585 44.2004 27.3243C44.6837 26.9734 45.5563 26.4583 46.2234 26.1301C48.5335 24.9935 51.2643 24.3016 54.6699 23.9899C55.1561 23.9455 55.6 23.9045 55.6566 23.8988C55.7131 23.8933 55.3801 23.8555 54.9166 23.8151C51.488 23.5158 48.7748 22.8546 46.4061 21.7412C45.6763 21.3982 44.5882 20.7531 44.0327 20.3341C43.9366 20.2617 43.858 20.2105 43.858 20.2205ZM74.0851 21.9952C74.4208 22.1383 74.6939 22.4752 74.8562 22.9466C75.1242 23.7246 75.1762 25.6771 74.9581 26.7696C74.8697 27.2124 74.6548 27.6437 74.4192 27.8511C74.1368 28.0996 73.9021 28.1652 73.3134 28.1599C72.7943 28.1553 72.4554 28.0766 72.152 27.8902L72.0184 27.8082V25.2033V22.5984L72.2522 22.4079C72.5292 22.1823 72.8247 22.0243 73.1078 21.9504C73.3648 21.8833 73.8777 21.9068 74.0851 21.9952ZM89.0406 21.9613C89.606 22.1292 89.9076 22.5651 90.0945 23.4843C90.1561 23.7874 90.1681 24.0526 90.167 25.081C90.1657 26.1864 90.1564 26.3562 90.0774 26.7174C89.9255 27.4117 89.6558 27.8524 89.2711 28.0349C88.733 28.2903 88.0504 28.1902 87.6723 27.8006C87.2424 27.3576 87.0647 26.5504 87.0647 25.0399C87.0647 23.4599 87.2549 22.6772 87.7481 22.2264C88.0859 21.9177 88.5638 21.8197 89.0406 21.9613ZM113.037 26.549L113.026 27.6263L112.779 27.8255C112.643 27.935 112.413 28.0839 112.266 28.1562C112.026 28.2746 111.963 28.2876 111.629 28.2876C111.203 28.2876 110.967 28.1994 110.714 27.9462C110.469 27.7014 110.356 27.4003 110.355 26.9927C110.354 26.6921 110.37 26.6105 110.469 26.4088C110.77 25.7962 111.491 25.487 112.646 25.4756L113.048 25.4716L113.037 26.549ZM40.7336 30.4506C39.9694 30.8348 39.1034 31.0636 38.0984 31.1467C36.8683 31.2485 35.4613 30.9898 34.3842 30.4638C34.1818 30.365 34.0119 30.2885 34.0065 30.2939C34.0012 30.2992 34.1575 30.5447 34.3539 30.8393C35.969 33.2627 36.9645 36.338 37.4007 40.2507C37.446 40.6577 37.4959 41.1849 37.5115 41.4223C37.5447 41.927 37.6 42.18 37.6058 41.854C37.6122 41.5022 37.7277 40.328 37.8385 39.4902C38.1295 37.2883 38.6514 35.2444 39.352 33.562C39.8551 32.3536 40.236 31.6615 41.1177 30.3534C41.2135 30.2113 41.2059 30.2132 40.7336 30.4506Z" fill="#908E9F"/>
<path fill-rule="evenodd" clip-rule="evenodd" d="M37.5573 6.02649C37.5436 6.10563 37.5027 6.51262 37.4663 6.93092C37.1055 11.0794 35.9412 14.7193 34.1823 17.1982C34.0339 17.4073 33.9196 17.5784 33.9282 17.5784C33.937 17.5784 34.0796 17.5062 34.2453 17.4179C34.411 17.3296 34.7315 17.1887 34.9576 17.1048C36.8446 16.4047 38.9706 16.4818 40.7297 17.3141C40.9424 17.4147 41.1221 17.4914 41.1291 17.4845C41.136 17.4775 41.0304 17.3062 40.8943 17.1037C39.0583 14.3727 38.0036 10.9476 37.6352 6.51981C37.5998 6.09511 37.5739 5.93058 37.5573 6.02649ZM62.0835 16.4036C60.7139 16.6634 59.7209 17.448 59.068 18.7863C58.7032 19.5339 58.5251 20.1379 58.3633 21.1756C58.2553 21.8679 58.2121 23.7631 58.2858 24.5744C58.4879 26.8 59.1906 28.3957 60.3583 29.2807C60.699 29.5389 61.353 29.8469 61.8028 29.9609C62.1302 30.0439 62.2689 30.0544 63.0153 30.0524C63.7873 30.0504 63.8908 30.0413 64.249 29.9446C65.8998 29.4988 66.9812 28.224 67.4683 26.1499C67.8648 24.4615 67.8756 22.1463 67.4951 20.3989C67.1866 18.9821 66.5173 17.8119 65.6312 17.1404C65.2955 16.886 64.6387 16.5749 64.2075 16.4661C63.7578 16.3526 62.541 16.3168 62.0835 16.4036ZM63.6114 18.4808C64.1416 18.7394 64.5758 19.4609 64.8002 20.4562C65.14 21.9629 65.123 24.6949 64.7652 26.1009C64.4955 27.1605 64.0511 27.805 63.4524 28.0046C63.1563 28.1034 62.6481 28.0676 62.3781 27.9289C61.6968 27.5791 61.2762 26.6919 61.0572 25.1427C60.9708 24.5312 60.937 22.7143 60.998 21.9553C61.123 20.3988 61.4255 19.4004 61.9408 18.8439C62.2934 18.4629 62.5401 18.3586 63.0564 18.3717C63.3308 18.3786 63.4499 18.402 63.6114 18.4808ZM37.1159 18.9395C36.4189 18.9979 35.7025 19.2321 35.1011 19.5981C34.6287 19.8855 33.8835 20.6345 33.6095 21.0972C32.584 22.829 32.5972 25.0512 33.643 26.7292C33.894 27.1317 34.5188 27.7839 34.9178 28.0597C36.278 29 38.091 29.1447 39.6077 28.434C40.055 28.2244 40.394 27.9886 40.7846 27.6154C41.4922 26.9393 41.9402 26.1309 42.1777 25.1016C42.2981 24.58 42.3252 23.6403 42.2364 23.0666C42.1066 22.2279 41.7756 21.416 41.3067 20.7865C41.0333 20.4194 40.5571 19.9593 40.1992 19.7162C39.61 19.3161 38.7487 19.003 38.1057 18.9552C37.9344 18.9424 37.7295 18.9263 37.6503 18.9194C37.5712 18.9124 37.3307 18.9215 37.1159 18.9395ZM70.189 20.2662C69.7594 20.4073 69.3663 20.5453 69.3154 20.5731C69.1978 20.6372 69.1936 20.8106 69.3027 21.0976C69.5617 21.7791 69.5913 22.5559 69.5922 28.7103C69.5928 33.3532 69.5985 33.7806 69.6598 33.8041C69.723 33.8283 71.5135 33.4905 71.8051 33.3993C71.8889 33.373 71.9561 33.3177 71.9798 33.2553C72.0017 33.1978 72.0184 32.3865 72.0184 31.3844C72.0184 29.9844 72.0291 29.6196 72.0698 29.6371C72.0981 29.6493 72.2677 29.7241 72.4467 29.8034C72.9293 30.017 73.4085 30.0907 74.147 30.0649C75.1451 30.0301 75.6921 29.8169 76.2769 29.2351C76.8921 28.623 77.2279 27.8271 77.431 26.4993C77.5231 25.8975 77.5351 24.092 77.451 23.4983C77.3041 22.4622 76.9431 21.5311 76.4707 20.9702C76.1559 20.5963 75.7119 20.2986 75.2368 20.1429C74.8979 20.0318 74.8336 20.0245 74.1972 20.0245C73.6009 20.0245 73.4816 20.0361 73.2106 20.1208C72.8011 20.2488 72.3435 20.4902 72.031 20.7433C71.7654 20.9583 71.7306 20.9773 71.7306 20.9071C71.7306 20.7998 71.4711 20.2077 71.382 20.1115C71.2355 19.9533 71.0812 19.9734 70.189 20.2662ZM79.4774 20.3288C79.0465 20.5057 78.6534 20.6721 78.6038 20.6986C78.4771 20.7665 78.4884 20.8797 78.6768 21.4352C78.9846 22.3422 78.9802 22.2758 78.9967 26.1689C79.0068 28.5537 79.0252 29.6576 79.0554 29.6941C79.0894 29.735 79.3594 29.747 80.2411 29.747C81.2442 29.747 81.3858 29.7392 81.4077 29.682C81.4214 29.6462 81.4326 28.1519 81.4326 26.3611V23.1052L81.669 22.874C81.9783 22.5715 82.3357 22.3268 82.5933 22.2412C82.8443 22.1579 83.114 22.1781 83.5271 22.3111C83.7808 22.3928 83.8253 22.3972 83.8745 22.3452C83.9201 22.2969 84.4695 20.8571 84.5751 20.5091C84.6187 20.3653 84.5273 20.2513 84.276 20.1361C83.964 19.993 83.2612 19.9565 82.8908 20.0642C82.3363 20.2254 81.8812 20.5475 81.4064 21.1147C81.2553 21.2951 81.12 21.4428 81.1057 21.4428C81.0913 21.4428 81.0591 21.3453 81.0341 21.2261C80.9672 20.9069 80.7488 20.3659 80.6089 20.1727C80.5159 20.0444 80.4596 20.0043 80.3738 20.0055C80.3118 20.0065 79.9084 20.1519 79.4774 20.3288ZM87.928 20.0322C85.7576 20.3927 84.4748 22.2529 84.4748 25.0399C84.4748 26.2805 84.7419 27.3961 85.2398 28.2355C85.3698 28.4547 85.5789 28.7142 85.8314 28.9697C86.3698 29.5145 86.8398 29.7822 87.6001 29.9767C88.0405 30.0894 89.2119 30.0896 89.6547 29.977C90.3579 29.7981 90.823 29.5477 91.3199 29.0801C92.023 28.4184 92.4266 27.6274 92.6647 26.4445C92.7445 26.0481 92.7571 25.8565 92.7571 25.0399C92.7571 24.2267 92.7443 24.031 92.6658 23.6412C92.4322 22.4813 92.0103 21.6505 91.3277 21.0063C90.8016 20.5098 90.1937 20.203 89.4558 20.0617C89.1772 20.0084 88.1867 19.9892 87.928 20.0322ZM94.9642 20.2884C94.5041 20.4416 94.1112 20.593 94.0912 20.6246C94.033 20.7165 94.0465 20.8203 94.1588 21.1457C94.3818 21.7918 94.3933 22.0125 94.4098 25.9444C94.4181 27.9341 94.4342 29.6037 94.4455 29.6546L94.4661 29.747H95.6082C96.4417 29.747 96.7636 29.7337 96.7996 29.6977C96.8372 29.6601 96.8489 28.8285 96.8489 26.2057V22.7631L97.0853 22.5825C97.543 22.2326 97.8703 22.0812 98.3083 22.0165C98.7052 21.9579 98.9893 22.0758 99.1385 22.3611C99.3266 22.7207 99.3287 22.7596 99.3536 26.3349L99.3772 29.7265L100.528 29.7375C101.574 29.7474 101.684 29.742 101.731 29.6782C101.771 29.6234 101.782 28.8583 101.782 26.1837V22.7595L102.019 22.5718C102.353 22.3058 102.856 22.0701 103.187 22.0231C103.776 21.9398 104.046 22.1284 104.185 22.72C104.238 22.9446 104.248 23.4782 104.248 26.2603C104.249 28.2877 104.264 29.5763 104.289 29.6416L104.329 29.747H105.482H106.635L106.675 29.6416C106.729 29.5015 106.727 23.0612 106.674 22.4166C106.56 21.0425 106.087 20.3137 105.148 20.0637C104.85 19.9843 104.08 19.9872 103.682 20.0692C103.016 20.2064 102.436 20.5067 101.831 21.0279C101.666 21.1703 101.524 21.2802 101.517 21.2723C101.51 21.2643 101.454 21.1569 101.392 21.0336C101.174 20.6011 100.654 20.2073 100.115 20.0669C99.8059 19.9862 99.1606 19.9858 98.7796 20.0659C98.1025 20.2084 97.4406 20.5702 96.7965 21.1501C96.7111 21.227 96.6344 21.2827 96.6261 21.2738C96.6178 21.265 96.5625 21.0747 96.5032 20.8509C96.444 20.6271 96.3448 20.3496 96.283 20.2342C96.1749 20.0325 96.1636 20.0242 95.9856 20.0171C95.8526 20.0118 95.5659 20.0879 94.9642 20.2884ZM110.888 20.0682C109.58 20.2458 108.686 20.5846 108.69 20.9011C108.692 21.0872 109.154 22.3987 109.234 22.4472C109.291 22.4814 109.432 22.4482 109.872 22.2965C110.746 21.9949 111.096 21.9211 111.669 21.9181C112.197 21.9154 112.385 21.9559 112.638 22.1261C112.933 22.3248 113.046 22.6881 113.046 23.4387V23.9094L112.625 23.9095C111.686 23.9099 110.594 24.0772 109.984 24.3145C108.999 24.6971 108.391 25.3351 108.148 26.2404C108.024 26.7016 108.024 27.5783 108.148 28.041C108.293 28.5826 108.494 28.9436 108.849 29.2993C109.385 29.836 110.031 30.0762 110.938 30.0756C111.832 30.0751 112.479 29.8162 113.172 29.1811L113.401 28.9715L113.511 29.3079C113.662 29.7665 113.843 30.0757 113.962 30.0765C114.012 30.0769 114.447 29.9174 114.927 29.7221L115.801 29.3669V29.2041C115.801 29.1147 115.747 28.9181 115.681 28.7673C115.563 28.4965 115.514 28.3421 115.425 27.9526C115.396 27.8251 115.369 26.7758 115.35 25.0399C115.322 22.4537 115.316 22.3108 115.232 21.9883C114.944 20.8765 114.252 20.2728 113.031 20.0658C112.577 19.9889 111.463 19.9902 110.888 20.0682ZM31.0302 20.3994C28.2255 22.3594 24.7317 23.4531 20.0552 23.8351L19.418 23.8871L19.7674 23.9172C22.3281 24.1377 24.0478 24.4278 25.8062 24.9359C27.6934 25.4813 29.1652 26.1463 30.6205 27.1109C30.9483 27.3283 31.2317 27.5128 31.2502 27.521C31.2687 27.5291 31.2296 27.4275 31.1632 27.2951C30.8546 26.6791 30.5967 25.8713 30.4758 25.1427C30.3973 24.6694 30.3664 23.6068 30.4172 23.1283C30.5038 22.3122 30.7464 21.4491 31.0979 20.7065C31.22 20.4485 31.3145 20.2321 31.308 20.2255C31.3014 20.2189 31.1764 20.2972 31.0302 20.3994ZM43.858 20.2205C43.858 20.2305 43.9391 20.4124 44.0383 20.6249C44.5619 21.7464 44.7983 22.9199 44.7494 24.1561C44.7065 25.2401 44.4596 26.259 44.0236 27.1506C43.9113 27.3803 43.8295 27.5682 43.842 27.5682C43.8545 27.5682 44.0157 27.4585 44.2004 27.3243C44.6837 26.9734 45.5563 26.4583 46.2234 26.1301C48.5335 24.9935 51.2643 24.3016 54.6699 23.9899C55.1561 23.9455 55.6 23.9045 55.6566 23.8988C55.7131 23.8933 55.3801 23.8555 54.9166 23.8151C51.488 23.5158 48.7748 22.8546 46.4061 21.7412C45.6763 21.3982 44.5882 20.7531 44.0327 20.3341C43.9366 20.2617 43.858 20.2105 43.858 20.2205ZM74.0851 21.9952C74.4208 22.1383 74.6939 22.4752 74.8562 22.9466C75.1242 23.7246 75.1762 25.6771 74.9581 26.7696C74.8697 27.2124 74.6548 27.6437 74.4192 27.8511C74.1368 28.0996 73.9021 28.1652 73.3134 28.1599C72.7943 28.1553 72.4554 28.0766 72.152 27.8902L72.0184 27.8082V25.2033V22.5984L72.2522 22.4079C72.5292 22.1823 72.8247 22.0243 73.1078 21.9504C73.3648 21.8833 73.8777 21.9068 74.0851 21.9952ZM89.0406 21.9613C89.606 22.1292 89.9076 22.5651 90.0945 23.4843C90.1561 23.7874 90.1681 24.0526 90.167 25.081C90.1657 26.1864 90.1564 26.3562 90.0774 26.7174C89.9255 27.4117 89.6558 27.8524 89.2711 28.0349C88.733 28.2903 88.0504 28.1902 87.6723 27.8006C87.2424 27.3576 87.0647 26.5504 87.0647 25.0399C87.0647 23.4599 87.2549 22.6772 87.7481 22.2264C88.0859 21.9177 88.5638 21.8197 89.0406 21.9613ZM113.037 26.549L113.026 27.6263L112.779 27.8255C112.643 27.935 112.413 28.0839 112.266 28.1562C112.026 28.2746 111.963 28.2876 111.629 28.2876C111.203 28.2876 110.967 28.1994 110.714 27.9462C110.469 27.7014 110.356 27.4003 110.355 26.9927C110.354 26.6921 110.37 26.6105 110.469 26.4088C110.77 25.7962 111.491 25.487 112.646 25.4756L113.048 25.4716L113.037 26.549ZM40.7336 30.4506C39.9694 30.8348 39.1034 31.0636 38.0984 31.1467C36.8683 31.2485 35.4613 30.9898 34.3842 30.4638C34.1818 30.365 34.0119 30.2885 34.0065 30.2939C34.0012 30.2992 34.1575 30.5447 34.3539 30.8393C35.969 33.2627 36.9645 36.338 37.4007 40.2507C37.446 40.6577 37.4959 41.1849 37.5115 41.4223C37.5447 41.927 37.6 42.18 37.6058 41.854C37.6122 41.5022 37.7277 40.328 37.8385 39.4902C38.1295 37.2883 38.6514 35.2444 39.352 33.562C39.8551 32.3536 40.236 31.6615 41.1177 30.3534C41.2135 30.2113 41.2059 30.2132 40.7336 30.4506Z" fill="#908E9F"/>
<path fill-rule="evenodd" clip-rule="evenodd" d="M37.5573 6.02649C37.5436 6.10563 37.5027 6.51262 37.4663 6.93092C37.1055 11.0794 35.9412 14.7193 34.1823 17.1982C34.0339 17.4073 33.9196 17.5784 33.9282 17.5784C33.937 17.5784 34.0796 17.5062 34.2453 17.4179C34.411 17.3296 34.7315 17.1887 34.9576 17.1048C36.8446 16.4047 38.9706 16.4818 40.7297 17.3141C40.9424 17.4147 41.1221 17.4914 41.1291 17.4845C41.136 17.4775 41.0304 17.3062 40.8943 17.1037C39.0583 14.3727 38.0036 10.9476 37.6352 6.51981C37.5998 6.09511 37.5739 5.93058 37.5573 6.02649ZM62.0835 16.4036C60.7139 16.6634 59.7209 17.448 59.068 18.7863C58.7032 19.5339 58.5251 20.1379 58.3633 21.1756C58.2553 21.8679 58.2121 23.7631 58.2858 24.5744C58.4879 26.8 59.1906 28.3957 60.3583 29.2807C60.699 29.5389 61.353 29.8469 61.8028 29.9609C62.1302 30.0439 62.2689 30.0544 63.0153 30.0524C63.7873 30.0504 63.8908 30.0413 64.249 29.9446C65.8998 29.4988 66.9812 28.224 67.4683 26.1499C67.8648 24.4615 67.8756 22.1463 67.4951 20.3989C67.1866 18.9821 66.5173 17.8119 65.6312 17.1404C65.2955 16.886 64.6387 16.5749 64.2075 16.4661C63.7578 16.3526 62.541 16.3168 62.0835 16.4036ZM63.6114 18.4808C64.1416 18.7394 64.5758 19.4609 64.8002 20.4562C65.14 21.9629 65.123 24.6949 64.7652 26.1009C64.4955 27.1605 64.0511 27.805 63.4524 28.0046C63.1563 28.1034 62.6481 28.0676 62.3781 27.9289C61.6968 27.5791 61.2762 26.6919 61.0572 25.1427C60.9708 24.5312 60.937 22.7143 60.998 21.9553C61.123 20.3988 61.4255 19.4004 61.9408 18.8439C62.2934 18.4629 62.5401 18.3586 63.0564 18.3717C63.3308 18.3786 63.4499 18.402 63.6114 18.4808ZM37.1159 18.9395C36.4189 18.9979 35.7025 19.2321 35.1011 19.5981C34.6287 19.8855 33.8835 20.6345 33.6095 21.0972C32.584 22.829 32.5972 25.0512 33.643 26.7292C33.894 27.1317 34.5188 27.7839 34.9178 28.0597C36.278 29 38.091 29.1447 39.6077 28.434C40.055 28.2244 40.394 27.9886 40.7846 27.6154C41.4922 26.9393 41.9402 26.1309 42.1777 25.1016C42.2981 24.58 42.3252 23.6403 42.2364 23.0666C42.1066 22.2279 41.7756 21.416 41.3067 20.7865C41.0333 20.4194 40.5571 19.9593 40.1992 19.7162C39.61 19.3161 38.7487 19.003 38.1057 18.9552C37.9344 18.9424 37.7295 18.9263 37.6503 18.9194C37.5712 18.9124 37.3307 18.9215 37.1159 18.9395ZM70.189 20.2662C69.7594 20.4073 69.3663 20.5453 69.3154 20.5731C69.1978 20.6372 69.1936 20.8106 69.3027 21.0976C69.5617 21.7791 69.5913 22.5559 69.5922 28.7103C69.5928 33.3532 69.5985 33.7806 69.6598 33.8041C69.723 33.8283 71.5135 33.4905 71.8051 33.3993C71.8889 33.373 71.9561 33.3177 71.9798 33.2553C72.0017 33.1978 72.0184 32.3865 72.0184 31.3844C72.0184 29.9844 72.0291 29.6196 72.0698 29.6371C72.0981 29.6493 72.2677 29.7241 72.4467 29.8034C72.9293 30.017 73.4085 30.0907 74.147 30.0649C75.1451 30.0301 75.6921 29.8169 76.2769 29.2351C76.8921 28.623 77.2279 27.8271 77.431 26.4993C77.5231 25.8975 77.5351 24.092 77.451 23.4983C77.3041 22.4622 76.9431 21.5311 76.4707 20.9702C76.1559 20.5963 75.7119 20.2986 75.2368 20.1429C74.8979 20.0318 74.8336 20.0245 74.1972 20.0245C73.6009 20.0245 73.4816 20.0361 73.2106 20.1208C72.8011 20.2488 72.3435 20.4902 72.031 20.7433C71.7654 20.9583 71.7306 20.9773 71.7306 20.9071C71.7306 20.7998 71.4711 20.2077 71.382 20.1115C71.2355 19.9533 71.0812 19.9734 70.189 20.2662ZM79.4774 20.3288C79.0465 20.5057 78.6534 20.6721 78.6038 20.6986C78.4771 20.7665 78.4884 20.8797 78.6768 21.4352C78.9846 22.3422 78.9802 22.2758 78.9967 26.1689C79.0068 28.5537 79.0252 29.6576 79.0554 29.6941C79.0894 29.735 79.3594 29.747 80.2411 29.747C81.2442 29.747 81.3858 29.7392 81.4077 29.682C81.4214 29.6462 81.4326 28.1519 81.4326 26.3611V23.1052L81.669 22.874C81.9783 22.5715 82.3357 22.3268 82.5933 22.2412C82.8443 22.1579 83.114 22.1781 83.5271 22.3111C83.7808 22.3928 83.8253 22.3972 83.8745 22.3452C83.9201 22.2969 84.4695 20.8571 84.5751 20.5091C84.6187 20.3653 84.5273 20.2513 84.276 20.1361C83.964 19.993 83.2612 19.9565 82.8908 20.0642C82.3363 20.2254 81.8812 20.5475 81.4064 21.1147C81.2553 21.2951 81.12 21.4428 81.1057 21.4428C81.0913 21.4428 81.0591 21.3453 81.0341 21.2261C80.9672 20.9069 80.7488 20.3659 80.6089 20.1727C80.5159 20.0444 80.4596 20.0043 80.3738 20.0055C80.3118 20.0065 79.9084 20.1519 79.4774 20.3288ZM87.928 20.0322C85.7576 20.3927 84.4748 22.2529 84.4748 25.0399C84.4748 26.2805 84.7419 27.3961 85.2398 28.2355C85.3698 28.4547 85.5789 28.7142 85.8314 28.9697C86.3698 29.5145 86.8398 29.7822 87.6001 29.9767C88.0405 30.0894 89.2119 30.0896 89.6547 29.977C90.3579 29.7981 90.823 29.5477 91.3199 29.0801C92.023 28.4184 92.4266 27.6274 92.6647 26.4445C92.7445 26.0481 92.7571 25.8565 92.7571 25.0399C92.7571 24.2267 92.7443 24.031 92.6658 23.6412C92.4322 22.4813 92.0103 21.6505 91.3277 21.0063C90.8016 20.5098 90.1937 20.203 89.4558 20.0617C89.1772 20.0084 88.1867 19.9892 87.928 20.0322ZM94.9642 20.2884C94.5041 20.4416 94.1112 20.593 94.0912 20.6246C94.033 20.7165 94.0465 20.8203 94.1588 21.1457C94.3818 21.7918 94.3933 22.0125 94.4098 25.9444C94.4181 27.9341 94.4342 29.6037 94.4455 29.6546L94.4661 29.747H95.6082C96.4417 29.747 96.7636 29.7337 96.7996 29.6977C96.8372 29.6601 96.8489 28.8285 96.8489 26.2057V22.7631L97.0853 22.5825C97.543 22.2326 97.8703 22.0812 98.3083 22.0165C98.7052 21.9579 98.9893 22.0758 99.1385 22.3611C99.3266 22.7207 99.3287 22.7596 99.3536 26.3349L99.3772 29.7265L100.528 29.7375C101.574 29.7474 101.684 29.742 101.731 29.6782C101.771 29.6234 101.782 28.8583 101.782 26.1837V22.7595L102.019 22.5718C102.353 22.3058 102.856 22.0701 103.187 22.0231C103.776 21.9398 104.046 22.1284 104.185 22.72C104.238 22.9446 104.248 23.4782 104.248 26.2603C104.249 28.2877 104.264 29.5763 104.289 29.6416L104.329 29.747H105.482H106.635L106.675 29.6416C106.729 29.5015 106.727 23.0612 106.674 22.4166C106.56 21.0425 106.087 20.3137 105.148 20.0637C104.85 19.9843 104.08 19.9872 103.682 20.0692C103.016 20.2064 102.436 20.5067 101.831 21.0279C101.666 21.1703 101.524 21.2802 101.517 21.2723C101.51 21.2643 101.454 21.1569 101.392 21.0336C101.174 20.6011 100.654 20.2073 100.115 20.0669C99.8059 19.9862 99.1606 19.9858 98.7796 20.0659C98.1025 20.2084 97.4406 20.5702 96.7965 21.1501C96.7111 21.227 96.6344 21.2827 96.6261 21.2738C96.6178 21.265 96.5625 21.0747 96.5032 20.8509C96.444 20.6271 96.3448 20.3496 96.283 20.2342C96.1749 20.0325 96.1636 20.0242 95.9856 20.0171C95.8526 20.0118 95.5659 20.0879 94.9642 20.2884ZM110.888 20.0682C109.58 20.2458 108.686 20.5846 108.69 20.9011C108.692 21.0872 109.154 22.3987 109.234 22.4472C109.291 22.4814 109.432 22.4482 109.872 22.2965C110.746 21.9949 111.096 21.9211 111.669 21.9181C112.197 21.9154 112.385 21.9559 112.638 22.1261C112.933 22.3248 113.046 22.6881 113.046 23.4387V23.9094L112.625 23.9095C111.686 23.9099 110.594 24.0772 109.984 24.3145C108.999 24.6971 108.391 25.3351 108.148 26.2404C108.024 26.7016 108.024 27.5783 108.148 28.041C108.293 28.5826 108.494 28.9436 108.849 29.2993C109.385 29.836 110.031 30.0762 110.938 30.0756C111.832 30.0751 112.479 29.8162 113.172 29.1811L113.401 28.9715L113.511 29.3079C113.662 29.7665 113.843 30.0757 113.962 30.0765C114.012 30.0769 114.447 29.9174 114.927 29.7221L115.801 29.3669V29.2041C115.801 29.1147 115.747 28.9181 115.681 28.7673C115.563 28.4965 115.514 28.3421 115.425 27.9526C115.396 27.8251 115.369 26.7758 115.35 25.0399C115.322 22.4537 115.316 22.3108 115.232 21.9883C114.944 20.8765 114.252 20.2728 113.031 20.0658C112.577 19.9889 111.463 19.9902 110.888 20.0682ZM31.0302 20.3994C28.2255 22.3594 24.7317 23.4531 20.0552 23.8351L19.418 23.8871L19.7674 23.9172C22.3281 24.1377 24.0478 24.4278 25.8062 24.9359C27.6934 25.4813 29.1652 26.1463 30.6205 27.1109C30.9483 27.3283 31.2317 27.5128 31.2502 27.521C31.2687 27.5291 31.2296 27.4275 31.1632 27.2951C30.8546 26.6791 30.5967 25.8713 30.4758 25.1427C30.3973 24.6694 30.3664 23.6068 30.4172 23.1283C30.5038 22.3122 30.7464 21.4491 31.0979 20.7065C31.22 20.4485 31.3145 20.2321 31.308 20.2255C31.3014 20.2189 31.1764 20.2972 31.0302 20.3994ZM43.858 20.2205C43.858 20.2305 43.9391 20.4124 44.0383 20.6249C44.5619 21.7464 44.7983 22.9199 44.7494 24.1561C44.7065 25.2401 44.4596 26.259 44.0236 27.1506C43.9113 27.3803 43.8295 27.5682 43.842 27.5682C43.8545 27.5682 44.0157 27.4585 44.2004 27.3243C44.6837 26.9734 45.5563 26.4583 46.2234 26.1301C48.5335 24.9935 51.2643 24.3016 54.6699 23.9899C55.1561 23.9455 55.6 23.9045 55.6566 23.8988C55.7131 23.8933 55.3801 23.8555 54.9166 23.8151C51.488 23.5158 48.7748 22.8546 46.4061 21.7412C45.6763 21.3982 44.5882 20.7531 44.0327 20.3341C43.9366 20.2617 43.858 20.2105 43.858 20.2205ZM74.0851 21.9952C74.4208 22.1383 74.6939 22.4752 74.8562 22.9466C75.1242 23.7246 75.1762 25.6771 74.9581 26.7696C74.8697 27.2124 74.6548 27.6437 74.4192 27.8511C74.1368 28.0996 73.9021 28.1652 73.3134 28.1599C72.7943 28.1553 72.4554 28.0766 72.152 27.8902L72.0184 27.8082V25.2033V22.5984L72.2522 22.4079C72.5292 22.1823 72.8247 22.0243 73.1078 21.9504C73.3648 21.8833 73.8777 21.9068 74.0851 21.9952ZM89.0406 21.9613C89.606 22.1292 89.9076 22.5651 90.0945 23.4843C90.1561 23.7874 90.1681 24.0526 90.167 25.081C90.1657 26.1864 90.1564 26.3562 90.0774 26.7174C89.9255 27.4117 89.6558 27.8524 89.2711 28.0349C88.733 28.2903 88.0504 28.1902 87.6723 27.8006C87.2424 27.3576 87.0647 26.5504 87.0647 25.0399C87.0647 23.4599 87.2549 22.6772 87.7481 22.2264C88.0859 21.9177 88.5638 21.8197 89.0406 21.9613ZM113.037 26.549L113.026 27.6263L112.779 27.8255C112.643 27.935 112.413 28.0839 112.266 28.1562C112.026 28.2746 111.963 28.2876 111.629 28.2876C111.203 28.2876 110.967 28.1994 110.714 27.9462C110.469 27.7014 110.356 27.4003 110.355 26.9927C110.354 26.6921 110.37 26.6105 110.469 26.4088C110.77 25.7962 111.491 25.487 112.646 25.4756L113.048 25.4716L113.037 26.549ZM40.7336 30.4506C39.9694 30.8348 39.1034 31.0636 38.0984 31.1467C36.8683 31.2485 35.4613 30.9898 34.3842 30.4638C34.1818 30.365 34.0119 30.2885 34.0065 30.2939C34.0012 30.2992 34.1575 30.5447 34.3539 30.8393C35.969 33.2627 36.9645 36.338 37.4007 40.2507C37.446 40.6577 37.4959 41.1849 37.5115 41.4223C37.5447 41.927 37.6 42.18 37.6058 41.854C37.6122 41.5022 37.7277 40.328 37.8385 39.4902C38.1295 37.2883 38.6514 35.2444 39.352 33.562C39.8551 32.3536 40.236 31.6615 41.1177 30.3534C41.2135 30.2113 41.2059 30.2132 40.7336 30.4506Z" fill="#908E9F"/>
<path fill-rule="evenodd" clip-rule="evenodd" d="M37.5573 6.02649C37.5436 6.10563 37.5027 6.51262 37.4663 6.93092C37.1055 11.0794 35.9412 14.7193 34.1823 17.1982C34.0339 17.4073 33.9196 17.5784 33.9282 17.5784C33.937 17.5784 34.0796 17.5062 34.2453 17.4179C34.411 17.3296 34.7315 17.1887 34.9576 17.1048C36.8446 16.4047 38.9706 16.4818 40.7297 17.3141C40.9424 17.4147 41.1221 17.4914 41.1291 17.4845C41.136 17.4775 41.0304 17.3062 40.8943 17.1037C39.0583 14.3727 38.0036 10.9476 37.6352 6.51981C37.5998 6.09511 37.5739 5.93058 37.5573 6.02649ZM62.0835 16.4036C60.7139 16.6634 59.7209 17.448 59.068 18.7863C58.7032 19.5339 58.5251 20.1379 58.3633 21.1756C58.2553 21.8679 58.2121 23.7631 58.2858 24.5744C58.4879 26.8 59.1906 28.3957 60.3583 29.2807C60.699 29.5389 61.353 29.8469 61.8028 29.9609C62.1302 30.0439 62.2689 30.0544 63.0153 30.0524C63.7873 30.0504 63.8908 30.0413 64.249 29.9446C65.8998 29.4988 66.9812 28.224 67.4683 26.1499C67.8648 24.4615 67.8756 22.1463 67.4951 20.3989C67.1866 18.9821 66.5173 17.8119 65.6312 17.1404C65.2955 16.886 64.6387 16.5749 64.2075 16.4661C63.7578 16.3526 62.541 16.3168 62.0835 16.4036ZM63.6114 18.4808C64.1416 18.7394 64.5758 19.4609 64.8002 20.4562C65.14 21.9629 65.123 24.6949 64.7652 26.1009C64.4955 27.1605 64.0511 27.805 63.4524 28.0046C63.1563 28.1034 62.6481 28.0676 62.3781 27.9289C61.6968 27.5791 61.2762 26.6919 61.0572 25.1427C60.9708 24.5312 60.937 22.7143 60.998 21.9553C61.123 20.3988 61.4255 19.4004 61.9408 18.8439C62.2934 18.4629 62.5401 18.3586 63.0564 18.3717C63.3308 18.3786 63.4499 18.402 63.6114 18.4808ZM37.1159 18.9395C36.4189 18.9979 35.7025 19.2321 35.1011 19.5981C34.6287 19.8855 33.8835 20.6345 33.6095 21.0972C32.584 22.829 32.5972 25.0512 33.643 26.7292C33.894 27.1317 34.5188 27.7839 34.9178 28.0597C36.278 29 38.091 29.1447 39.6077 28.434C40.055 28.2244 40.394 27.9886 40.7846 27.6154C41.4922 26.9393 41.9402 26.1309 42.1777 25.1016C42.2981 24.58 42.3252 23.6403 42.2364 23.0666C42.1066 22.2279 41.7756 21.416 41.3067 20.7865C41.0333 20.4194 40.5571 19.9593 40.1992 19.7162C39.61 19.3161 38.7487 19.003 38.1057 18.9552C37.9344 18.9424 37.7295 18.9263 37.6503 18.9194C37.5712 18.9124 37.3307 18.9215 37.1159 18.9395ZM70.189 20.2662C69.7594 20.4073 69.3663 20.5453 69.3154 20.5731C69.1978 20.6372 69.1936 20.8106 69.3027 21.0976C69.5617 21.7791 69.5913 22.5559 69.5922 28.7103C69.5928 33.3532 69.5985 33.7806 69.6598 33.8041C69.723 33.8283 71.5135 33.4905 71.8051 33.3993C71.8889 33.373 71.9561 33.3177 71.9798 33.2553C72.0017 33.1978 72.0184 32.3865 72.0184 31.3844C72.0184 29.9844 72.0291 29.6196 72.0698 29.6371C72.0981 29.6493 72.2677 29.7241 72.4467 29.8034C72.9293 30.017 73.4085 30.0907 74.147 30.0649C75.1451 30.0301 75.6921 29.8169 76.2769 29.2351C76.8921 28.623 77.2279 27.8271 77.431 26.4993C77.5231 25.8975 77.5351 24.092 77.451 23.4983C77.3041 22.4622 76.9431 21.5311 76.4707 20.9702C76.1559 20.5963 75.7119 20.2986 75.2368 20.1429C74.8979 20.0318 74.8336 20.0245 74.1972 20.0245C73.6009 20.0245 73.4816 20.0361 73.2106 20.1208C72.8011 20.2488 72.3435 20.4902 72.031 20.7433C71.7654 20.9583 71.7306 20.9773 71.7306 20.9071C71.7306 20.7998 71.4711 20.2077 71.382 20.1115C71.2355 19.9533 71.0812 19.9734 70.189 20.2662ZM79.4774 20.3288C79.0465 20.5057 78.6534 20.6721 78.6038 20.6986C78.4771 20.7665 78.4884 20.8797 78.6768 21.4352C78.9846 22.3422 78.9802 22.2758 78.9967 26.1689C79.0068 28.5537 79.0252 29.6576 79.0554 29.6941C79.0894 29.735 79.3594 29.747 80.2411 29.747C81.2442 29.747 81.3858 29.7392 81.4077 29.682C81.4214 29.6462 81.4326 28.1519 81.4326 26.3611V23.1052L81.669 22.874C81.9783 22.5715 82.3357 22.3268 82.5933 22.2412C82.8443 22.1579 83.114 22.1781 83.5271 22.3111C83.7808 22.3928 83.8253 22.3972 83.8745 22.3452C83.9201 22.2969 84.4695 20.8571 84.5751 20.5091C84.6187 20.3653 84.5273 20.2513 84.276 20.1361C83.964 19.993 83.2612 19.9565 82.8908 20.0642C82.3363 20.2254 81.8812 20.5475 81.4064 21.1147C81.2553 21.2951 81.12 21.4428 81.1057 21.4428C81.0913 21.4428 81.0591 21.3453 81.0341 21.2261C80.9672 20.9069 80.7488 20.3659 80.6089 20.1727C80.5159 20.0444 80.4596 20.0043 80.3738 20.0055C80.3118 20.0065 79.9084 20.1519 79.4774 20.3288ZM87.928 20.0322C85.7576 20.3927 84.4748 22.2529 84.4748 25.0399C84.4748 26.2805 84.7419 27.3961 85.2398 28.2355C85.3698 28.4547 85.5789 28.7142 85.8314 28.9697C86.3698 29.5145 86.8398 29.7822 87.6001 29.9767C88.0405 30.0894 89.2119 30.0896 89.6547 29.977C90.3579 29.7981 90.823 29.5477 91.3199 29.0801C92.023 28.4184 92.4266 27.6274 92.6647 26.4445C92.7445 26.0481 92.7571 25.8565 92.7571 25.0399C92.7571 24.2267 92.7443 24.031 92.6658 23.6412C92.4322 22.4813 92.0103 21.6505 91.3277 21.0063C90.8016 20.5098 90.1937 20.203 89.4558 20.0617C89.1772 20.0084 88.1867 19.9892 87.928 20.0322ZM94.9642 20.2884C94.5041 20.4416 94.1112 20.593 94.0912 20.6246C94.033 20.7165 94.0465 20.8203 94.1588 21.1457C94.3818 21.7918 94.3933 22.0125 94.4098 25.9444C94.4181 27.9341 94.4342 29.6037 94.4455 29.6546L94.4661 29.747H95.6082C96.4417 29.747 96.7636 29.7337 96.7996 29.6977C96.8372 29.6601 96.8489 28.8285 96.8489 26.2057V22.7631L97.0853 22.5825C97.543 22.2326 97.8703 22.0812 98.3083 22.0165C98.7052 21.9579 98.9893 22.0758 99.1385 22.3611C99.3266 22.7207 99.3287 22.7596 99.3536 26.3349L99.3772 29.7265L100.528 29.7375C101.574 29.7474 101.684 29.742 101.731 29.6782C101.771 29.6234 101.782 28.8583 101.782 26.1837V22.7595L102.019 22.5718C102.353 22.3058 102.856 22.0701 103.187 22.0231C103.776 21.9398 104.046 22.1284 104.185 22.72C104.238 22.9446 104.248 23.4782 104.248 26.2603C104.249 28.2877 104.264 29.5763 104.289 29.6416L104.329 29.747H105.482H106.635L106.675 29.6416C106.729 29.5015 106.727 23.0612 106.674 22.4166C106.56 21.0425 106.087 20.3137 105.148 20.0637C104.85 19.9843 104.08 19.9872 103.682 20.0692C103.016 20.2064 102.436 20.5067 101.831 21.0279C101.666 21.1703 101.524 21.2802 101.517 21.2723C101.51 21.2643 101.454 21.1569 101.392 21.0336C101.174 20.6011 100.654 20.2073 100.115 20.0669C99.8059 19.9862 99.1606 19.9858 98.7796 20.0659C98.1025 20.2084 97.4406 20.5702 96.7965 21.1501C96.7111 21.227 96.6344 21.2827 96.6261 21.2738C96.6178 21.265 96.5625 21.0747 96.5032 20.8509C96.444 20.6271 96.3448 20.3496 96.283 20.2342C96.1749 20.0325 96.1636 20.0242 95.9856 20.0171C95.8526 20.0118 95.5659 20.0879 94.9642 20.2884ZM110.888 20.0682C109.58 20.2458 108.686 20.5846 108.69 20.9011C108.692 21.0872 109.154 22.3987 109.234 22.4472C109.291 22.4814 109.432 22.4482 109.872 22.2965C110.746 21.9949 111.096 21.9211 111.669 21.9181C112.197 21.9154 112.385 21.9559 112.638 22.1261C112.933 22.3248 113.046 22.6881 113.046 23.4387V23.9094L112.625 23.9095C111.686 23.9099 110.594 24.0772 109.984 24.3145C108.999 24.6971 108.391 25.3351 108.148 26.2404C108.024 26.7016 108.024 27.5783 108.148 28.041C108.293 28.5826 108.494 28.9436 108.849 29.2993C109.385 29.836 110.031 30.0762 110.938 30.0756C111.832 30.0751 112.479 29.8162 113.172 29.1811L113.401 28.9715L113.511 29.3079C113.662 29.7665 113.843 30.0757 113.962 30.0765C114.012 30.0769 114.447 29.9174 114.927 29.7221L115.801 29.3669V29.2041C115.801 29.1147 115.747 28.9181 115.681 28.7673C115.563 28.4965 115.514 28.3421 115.425 27.9526C115.396 27.8251 115.369 26.7758 115.35 25.0399C115.322 22.4537 115.316 22.3108 115.232 21.9883C114.944 20.8765 114.252 20.2728 113.031 20.0658C112.577 19.9889 111.463 19.9902 110.888 20.0682ZM31.0302 20.3994C28.2255 22.3594 24.7317 23.4531 20.0552 23.8351L19.418 23.8871L19.7674 23.9172C22.3281 24.1377 24.0478 24.4278 25.8062 24.9359C27.6934 25.4813 29.1652 26.1463 30.6205 27.1109C30.9483 27.3283 31.2317 27.5128 31.2502 27.521C31.2687 27.5291 31.2296 27.4275 31.1632 27.2951C30.8546 26.6791 30.5967 25.8713 30.4758 25.1427C30.3973 24.6694 30.3664 23.6068 30.4172 23.1283C30.5038 22.3122 30.7464 21.4491 31.0979 20.7065C31.22 20.4485 31.3145 20.2321 31.308 20.2255C31.3014 20.2189 31.1764 20.2972 31.0302 20.3994ZM43.858 20.2205C43.858 20.2305 43.9391 20.4124 44.0383 20.6249C44.5619 21.7464 44.7983 22.9199 44.7494 24.1561C44.7065 25.2401 44.4596 26.259 44.0236 27.1506C43.9113 27.3803 43.8295 27.5682 43.842 27.5682C43.8545 27.5682 44.0157 27.4585 44.2004 27.3243C44.6837 26.9734 45.5563 26.4583 46.2234 26.1301C48.5335 24.9935 51.2643 24.3016 54.6699 23.9899C55.1561 23.9455 55.6 23.9045 55.6566 23.8988C55.7131 23.8933 55.3801 23.8555 54.9166 23.8151C51.488 23.5158 48.7748 22.8546 46.4061 21.7412C45.6763 21.3982 44.5882 20.7531 44.0327 20.3341C43.9366 20.2617 43.858 20.2105 43.858 20.2205ZM74.0851 21.9952C74.4208 22.1383 74.6939 22.4752 74.8562 22.9466C75.1242 23.7246 75.1762 25.6771 74.9581 26.7696C74.8697 27.2124 74.6548 27.6437 74.4192 27.8511C74.1368 28.0996 73.9021 28.1652 73.3134 28.1599C72.7943 28.1553 72.4554 28.0766 72.152 27.8902L72.0184 27.8082V25.2033V22.5984L72.2522 22.4079C72.5292 22.1823 72.8247 22.0243 73.1078 21.9504C73.3648 21.8833 73.8777 21.9068 74.0851 21.9952ZM89.0406 21.9613C89.606 22.1292 89.9076 22.5651 90.0945 23.4843C90.1561 23.7874 90.1681 24.0526 90.167 25.081C90.1657 26.1864 90.1564 26.3562 90.0774 26.7174C89.9255 27.4117 89.6558 27.8524 89.2711 28.0349C88.733 28.2903 88.0504 28.1902 87.6723 27.8006C87.2424 27.3576 87.0647 26.5504 87.0647 25.0399C87.0647 23.4599 87.2549 22.6772 87.7481 22.2264C88.0859 21.9177 88.5638 21.8197 89.0406 21.9613ZM113.037 26.549L113.026 27.6263L112.779 27.8255C112.643 27.935 112.413 28.0839 112.266 28.1562C112.026 28.2746 111.963 28.2876 111.629 28.2876C111.203 28.2876 110.967 28.1994 110.714 27.9462C110.469 27.7014 110.356 27.4003 110.355 26.9927C110.354 26.6921 110.37 26.6105 110.469 26.4088C110.77 25.7962 111.491 25.487 112.646 25.4756L113.048 25.4716L113.037 26.549ZM40.7336 30.4506C39.9694 30.8348 39.1034 31.0636 38.0984 31.1467C36.8683 31.2485 35.4613 30.9898 34.3842 30.4638C34.1818 30.365 34.0119 30.2885 34.0065 30.2939C34.0012 30.2992 34.1575 30.5447 34.3539 30.8393C35.969 33.2627 36.9645 36.338 37.4007 40.2507C37.446 40.6577 37.4959 41.1849 37.5115 41.4223C37.5447 41.927 37.6 42.18 37.6058 41.854C37.6122 41.5022 37.7277 40.328 37.8385 39.4902C38.1295 37.2883 38.6514 35.2444 39.352 33.562C39.8551 32.3536 40.236 31.6615 41.1177 30.3534C41.2135 30.2113 41.2059 30.2132 40.7336 30.4506Z" fill="#908E9F"/>
</svg>
