<svg xmlns="http://www.w3.org/2000/svg" width="121" height="40" viewBox="0 0 121 40" fill="none">
<path fill-rule="evenodd" clip-rule="evenodd" d="M89.9577 28.4194C89.76 28.4186 89.5706 28.3397 89.4308 28.1999C89.291 28.0601 89.2122 27.8707 89.2114 27.673C89.22 27.4809 89.3024 27.2995 89.4414 27.1665C89.5804 27.0336 89.7654 26.9594 89.9577 26.9594C90.1501 26.9594 90.335 27.0336 90.474 27.1665C90.613 27.2995 90.6954 27.4809 90.704 27.673C90.704 28.0819 90.3703 28.4194 89.9577 28.4194ZM89.9577 26.7907C89.4686 26.7907 89.0716 27.1832 89.0716 27.673C89.0716 28.1637 89.4686 28.5473 89.9577 28.5473C90.4483 28.5473 90.8445 28.1629 90.8445 27.673C90.8445 27.1832 90.4476 26.7907 89.9577 26.7907ZM89.7905 27.6069V27.3237H89.9541C90.0476 27.3237 90.1524 27.3518 90.1524 27.4597C90.1524 27.5802 90.0358 27.6069 89.9347 27.6069H89.7905ZM90.3309 27.4628C90.3309 27.2501 90.1489 27.1714 89.9623 27.1714H89.6129V28.166H89.7904V27.7505H89.9191L90.1526 28.1667H90.3703L90.1012 27.7311C90.2425 27.7008 90.3309 27.6061 90.3309 27.4628ZM84.7506 14.8518C84.9916 14.8567 85.2312 14.8134 85.4552 14.7245C85.6793 14.6357 85.8834 14.503 86.0556 14.3343C86.2278 14.1656 86.3645 13.9643 86.4579 13.7421C86.5513 13.5199 86.5995 13.2813 86.5995 13.0402C86.5996 12.7992 86.5515 12.5605 86.4582 12.3383C86.3649 12.116 86.2282 11.9146 86.0561 11.7459C85.884 11.5771 85.6799 11.4444 85.4559 11.3554C85.2319 11.2665 84.9923 11.2231 84.7513 11.2279C84.2771 11.2374 83.8254 11.4325 83.4934 11.7712C83.1613 12.11 82.9753 12.5655 82.9753 13.0398C82.9753 13.5142 83.1613 13.9697 83.4934 14.3084C83.8254 14.6472 84.2763 14.8423 84.7506 14.8518ZM79.8891 16.4165V19.0747H83.2505V28.4202H86.2499V19.0747H89.6121V16.4165H79.8891ZM53.7207 14.8518C53.9587 14.8518 54.1944 14.805 54.4143 14.714C54.6342 14.623 54.834 14.4895 55.0023 14.3212C55.1706 14.153 55.3041 13.9532 55.3951 13.7333C55.4862 13.5135 55.5331 13.2778 55.5331 13.0398C55.5331 12.8019 55.4862 12.5662 55.3951 12.3463C55.3041 12.1265 55.1706 11.9267 55.0023 11.7585C54.834 11.5902 54.6342 11.4567 54.4143 11.3657C54.1944 11.2746 53.9587 11.2278 53.7207 11.2279C53.2465 11.2374 52.7948 11.4325 52.4627 11.7712C52.1307 12.11 51.9447 12.5655 51.9447 13.0398C51.9447 13.5142 52.1307 13.9697 52.4627 14.3084C52.7948 14.6472 53.2465 14.8423 53.7207 14.8518ZM48.8584 19.074H52.2206V28.4202H55.2193V19.0747H58.5823V16.4165H48.8592L48.8584 19.074ZM74.7874 28.4202H77.7876V16.424H74.7882L74.7874 28.4202ZM68.7187 23.022C68.7187 24.6217 67.8177 26.2704 65.9192 26.2704C63.9946 26.2704 63.6698 24.4968 63.6698 23.0718V16.424H60.6704V23.9215C60.6704 26.3715 61.9697 28.7703 65.0948 28.7703C66.8685 28.7703 68.2934 27.6954 68.8183 26.4957H68.868V28.4202H71.7173V16.424H68.7186L68.7187 23.022ZM42.9072 16.0738C41.1328 16.0738 39.7085 17.1487 39.1837 18.3485H39.1331V16.424H36.2846V28.4202H39.2833V21.8222C39.2833 20.2225 40.1835 18.573 42.0828 18.573C44.0066 18.573 44.3322 20.3474 44.3322 21.7724V28.4202H47.3308V20.9213C47.3308 18.4727 46.0322 16.0738 42.9072 16.0738ZM30.2129 28.4202H33.2116V16.424H30.2129V28.4202Z" fill="#C3C2CB"/>
</svg>