<svg width="133" height="48" viewBox="0 0 133 48" fill="none" xmlns="http://www.w3.org/2000/svg">
<g clip-path="url(#clip0_2780_91320)">
<path d="M46.6116 30.6187H54.3391C54.8421 30.6187 55.2765 31.0302 55.2765 31.5332C55.2765 32.059 54.8421 32.4705 54.3391 32.4705H45.6743V32.4477C45.1942 32.4477 44.8055 32.0819 44.7598 31.6017V18.6388C44.7598 17.6328 45.5828 16.7869 46.6116 16.7869V30.6187Z" fill="#908E9F"/>
<path d="M57.5625 17.5414C57.5625 18.0901 57.9969 18.5245 58.5456 18.5245C59.0943 18.5245 59.5287 18.0901 59.5287 17.5414C59.5287 16.9927 59.0943 16.5583 58.5456 16.5583C57.9969 16.5583 57.5625 16.9927 57.5625 17.5414ZM59.5058 31.7618V20.5592C58.4541 20.5592 57.5854 21.428 57.5854 22.5025V31.7618C57.5854 32.2876 58.0197 32.722 58.5456 32.722C59.0714 32.722 59.5058 32.2876 59.5058 31.7618Z" fill="#908E9F"/>
<path d="M65.8843 22.2053V29.3384C65.8843 29.3841 65.93 30.8702 67.3018 30.8702C67.759 30.8702 68.1705 30.6644 68.422 30.3215C68.582 30.0928 68.8793 29.9099 69.1993 29.9099C69.7023 29.9099 70.1138 30.3215 70.1138 30.8473C70.1138 31.1216 70.023 31.3503 69.8172 31.5332H69.8166C69.1993 32.2419 68.262 32.6991 67.2103 32.6991C65.3813 32.6991 63.8953 31.3045 63.8953 29.5899V22.2053H62.0434H62.0205C61.5176 22.2053 61.1289 21.8624 61.1289 21.3594C61.1289 20.8564 61.5176 20.5364 62.0205 20.5364H62.0434H63.8953V17.1756C63.941 16.1239 64.8097 15.278 65.8843 15.278V20.5364H69.6794C70.1824 20.5364 70.5939 20.8564 70.5939 21.3594C70.5939 21.8624 70.1824 22.2053 69.6794 22.2053H65.8843Z" fill="#908E9F"/>
<path d="M74.1616 20.4449V22.1824C75.099 21.1079 75.9449 20.4449 77.4766 20.4449C78.1168 20.4449 79.2599 20.7878 79.8315 21.3365C80.7917 22.251 81.1118 23.5084 81.6833 22.6625C82.5978 21.3137 84.1296 20.4449 85.89 20.4449C88.7021 20.4449 90.9655 22.7311 90.9883 25.5432V31.716C90.9883 32.2419 90.5311 32.6991 90.0052 32.6991C89.4565 32.6991 89.0221 32.2419 89.0221 31.716V25.5432C89.0221 23.5999 87.3989 22.0681 85.3642 22.0681C84.1067 22.0681 83.2151 23.1198 82.575 24.1029V24.903V25.4746V31.716C82.575 32.2647 82.1406 32.6991 81.5919 32.6991C81.066 32.6991 80.6317 32.2647 80.6317 31.716V25.5432C80.6317 23.5999 78.9856 22.0681 76.9737 22.0681C75.4876 22.0681 74.7332 23.0512 74.1616 24.2858V31.716C74.1616 32.2647 73.7272 32.6991 73.1785 32.6991C72.5992 32.5677 72.2304 32.1361 72.1954 31.716C72.2155 30.7558 72.1319 22.0224 72.2412 22.0224C72.4241 21.1079 73.2014 20.4449 74.1616 20.4449Z" fill="#908E9F"/>
<path d="M102.075 21.3366L102.076 21.3313C102.076 20.8055 102.51 20.3763 103.059 20.3763C103.584 20.3763 104.019 20.8107 104.019 21.3366V32.6992C103.081 32.6992 102.304 32.0362 102.121 31.1445C102.085 31.0436 102.09 31.0533 102.075 30.9845C101.161 32.0362 99.8121 32.6992 98.3032 32.6992C95.5368 32.6992 93.2734 30.4587 93.2734 27.6694V21.3366C93.2734 20.8107 93.7078 20.3763 94.2337 20.3763C94.7824 20.3763 95.1939 20.8107 95.1939 21.3366L95.1935 21.3404L95.2167 27.6694C95.2238 29.5899 96.8171 31.1445 98.8061 31.1445C100.269 31.1445 101.527 30.3215 102.075 29.1326L102.075 21.3366Z" fill="#908E9F"/>
<path d="M108.181 23.8286C108.043 26.1377 114.376 24.4001 114.559 29.1555C114.628 30.6644 113.485 32.6992 110.078 32.6992C106.946 32.6992 105.826 29.9328 105.826 29.9328C105.757 29.8185 105.734 29.6813 105.734 29.5213C105.734 28.9726 106.169 28.5382 106.695 28.5382C107.083 28.5382 107.403 28.744 107.563 29.0641C107.586 29.1098 107.609 29.1326 107.609 29.1555C108.661 31.3732 112.616 31.1445 112.616 29.1098C112.616 26.412 106.443 28.2181 106.237 23.9886C106.1 20.6736 109.918 20.6507 109.918 20.6507C112.822 20.6507 113.576 22.7998 113.576 22.7998C113.622 22.9369 113.645 23.0512 113.645 23.1884C113.645 23.7371 113.21 24.1715 112.685 24.1715C112.227 24.1715 111.839 23.8743 111.724 23.4628C110.97 22.2282 108.272 22.2053 108.181 23.8286Z" fill="#908E9F"/>
<path d="M26.0252 26.2886C29.4488 26.3396 32.5015 23.7431 32.5656 21.0103C32.6748 18.1126 30.3615 15.4179 27.4398 15.4903C24.6868 15.4486 22.0372 17.7645 22.0086 20.5786C21.4186 21.5166 20.5154 21.7063 18.4844 20.1917C18.7922 16.2502 21.9419 12.6573 25.9088 12.1209C29.1793 11.5691 32.7132 12.9322 34.6251 15.675C37.028 18.9191 36.8711 23.836 34.0756 26.8018C30.7723 30.5466 26.0268 29.6879 26.0268 29.6879L26.0252 26.2886Z" fill="#908E9F"/>
<path d="M22.6289 28.2343L26.0254 26.2849L26.0401 36C24.5151 36 24.1359 36 22.6715 36C22.6715 33.0271 22.6289 31.2073 22.6289 28.2343Z" fill="#908E9F"/>
<path d="M22.0086 20.5787C22.0086 22.4525 22.3444 23.4971 23.7121 24.831L22.5384 27.9249C22.5384 27.9249 18.1558 24.6539 18.4844 20.1918C18.7923 16.2502 21.9419 12.6573 25.9089 12.121C29.1793 11.5692 32.7133 12.9323 34.6251 15.675C31.9311 13.3001 22.4176 12.2501 22.0086 20.5787Z" fill="#908E9F"/>
<path d="M22.6289 30.6211H26.0254L26.0401 36H22.6715C22.6715 33.0271 22.6289 33.594 22.6289 30.6211Z" fill="#908E9F"/>
</g>
<defs>
<clipPath id="clip0_2780_91320">
<rect width="96.3977" height="24" fill="white" transform="translate(18.4668 12)"/>
</clipPath>
</defs>
</svg>
