<svg xmlns="http://www.w3.org/2000/svg" width="120" height="40" viewBox="0 0 120 40" fill="none">
<g clip-path="url(#clip0_2804_90106)">
<path d="M67.9179 20.7718C67.9179 18.4017 66.9033 16.3076 63.472 16.3076C61.7116 16.3076 60.3132 16.8094 59.555 17.2486L60.1107 19.1501C60.8088 18.7121 61.9226 18.3514 62.974 18.3514C64.7111 18.349 64.9957 19.3316 64.9957 19.9634V20.1155C61.2037 20.1094 58.8066 21.4196 58.8066 24.0878C58.8066 25.7182 60.0236 27.2468 62.1508 27.2468C63.4488 27.2468 64.5455 26.7229 65.2006 25.8961H65.2644C65.2644 25.8961 65.6962 27.7031 68.0847 27.0125C67.9633 26.2555 67.9179 25.4581 67.9179 24.489V20.7718ZM65.089 23.2745C65.089 23.4658 65.073 23.6646 65.0166 23.8351C64.7982 24.565 64.045 25.176 63.1077 25.176C62.3165 25.176 61.6957 24.7282 61.6957 23.7897C61.6957 22.3544 63.2807 21.9594 65.089 21.9692" fill="#C3C2CB"/>
<path d="M9.86133 13.0828C9.86133 13.0828 12.3382 23.2159 12.732 24.8573C13.1957 26.776 14.0262 27.4851 16.4233 27.0128L17.9715 20.7292C18.3629 19.1725 18.6291 18.0561 18.8818 16.4699H18.9247C19.1001 18.0721 19.3529 19.1725 19.6731 20.7342C19.6731 20.7342 20.3048 23.5889 20.6324 25.0843C20.9513 26.5797 21.8493 27.5231 24.2011 27.0128L27.8863 13.0828H24.9114L23.6466 19.1087C23.3117 20.8544 23.0074 22.2296 22.7706 23.8293H22.7277C22.5143 22.2468 22.2431 20.928 21.8947 19.2179L20.5846 13.0828H17.4808L16.0823 19.0608C15.6836 20.8863 15.3106 22.3498 15.0763 23.8992H15.0358C14.7942 22.4455 14.4666 20.5943 14.1194 18.8376C14.1194 18.8376 13.2889 14.5574 12.9957 13.0828" fill="#C3C2CB"/>
<path d="M36.1781 20.7718C36.1781 18.4017 35.1611 16.3076 31.7298 16.3076C29.9743 16.3076 28.5734 16.8094 27.8152 17.2486L28.3709 19.1501C29.0665 18.7121 30.1792 18.3514 31.2342 18.3514C32.9713 18.349 33.2559 19.3316 33.2559 19.9634V20.1155C29.464 20.1094 27.0645 21.4196 27.0645 24.0878C27.0645 25.7182 28.2863 27.2468 30.4037 27.2468C31.7139 27.2468 32.8008 26.7229 33.4559 25.8961H33.5221C33.5221 25.8961 33.9564 27.7031 36.3425 27.0125C36.2198 26.2555 36.1781 25.4581 36.1781 24.489V20.7718ZM33.3468 23.2745C33.3468 23.4658 33.3308 23.6646 33.2768 23.8351C33.0559 24.565 32.3028 25.176 31.3631 25.176C30.5767 25.176 29.9535 24.7282 29.9535 23.7897C29.9535 22.3544 31.5384 21.9594 33.3468 21.9692" fill="#C3C2CB"/>
<path d="M37.7207 13.0828V27.0079H40.5521V24.055V13.0828H37.7207Z" fill="#C3C2CB"/>
<path d="M76.6035 13.083V23.3572C76.6035 24.7754 76.8697 25.7642 77.4426 26.3702C77.9456 26.9014 78.7687 27.2473 79.7489 27.2473C80.5905 27.2473 81.4136 27.0854 81.8026 26.9443L81.7682 24.7325C81.4774 24.7999 81.145 24.8576 80.6886 24.8576C79.722 24.8576 79.403 24.2454 79.403 22.972V19.039H81.8688V16.3781H79.403V13.083" fill="#C3C2CB"/>
<path d="M69.291 16.5495V27.0127H72.2181V21.6541C72.2181 21.3658 72.2364 21.1168 72.2819 20.8861C72.5002 19.7563 73.3577 19.0411 74.5931 19.0411C74.9378 19.0411 75.1721 19.0791 75.4322 19.1196V16.3765C75.2138 16.3373 75.0654 16.3164 74.7967 16.3164C73.7012 16.3164 72.4597 17.012 71.9359 18.5271H71.8635V16.5495" fill="#C3C2CB"/>
<path d="M42.1973 16.5495V27.0127H45.0495V20.8714C45.0495 20.5831 45.0814 20.2887 45.1832 20.0225C45.4151 19.4005 45.9904 18.6804 46.9142 18.6804C48.0624 18.6804 48.6047 19.6496 48.6047 21.0481V27.0127H51.4496V20.7978C51.4496 20.5267 51.4876 20.1942 51.5673 19.9538C51.7955 19.2484 52.4187 18.6804 53.2799 18.6804C54.4404 18.6804 55.0023 19.6287 55.0023 21.2775V27.0127H57.8447V20.8432C57.8447 17.6021 56.1959 16.3164 54.3239 16.3164C53.5008 16.3164 52.8457 16.5188 52.2568 16.882C51.7587 17.1874 51.322 17.618 50.9306 18.1811H50.8877C50.4375 17.0549 49.38 16.3164 47.9986 16.3164C46.2272 16.3164 45.4224 17.2107 44.9489 17.9664H44.9059V16.5495" fill="#C3C2CB"/>
<path d="M97.1874 16.0795C97.7468 16.0795 98.2179 15.7876 98.2792 15.4122L98.8337 9.13109C98.8337 8.50911 98.1013 8 97.1874 8C96.2685 8 95.541 8.50911 95.541 9.13109L96.1004 15.4122C96.1593 15.7876 96.6279 16.0795 97.1874 16.0795Z" fill="#C3C2CB"/>
<path d="M93.7876 18.0448C94.0648 17.5541 94.0489 17.0094 93.7496 16.7665L88.5726 13.1463C88.0341 12.8323 87.228 13.2064 86.7668 13.9989C86.3067 14.7902 86.4 15.6784 86.9275 15.9863L92.6589 18.6435C93.0258 18.7809 93.5054 18.5257 93.7876 18.0399" fill="#C3C2CB"/>
<path d="M100.591 18.0398C100.884 18.5256 101.364 18.7808 101.721 18.6507L107.452 15.9862C107.985 15.6721 108.065 14.7925 107.614 14.0012C107.154 13.2088 106.343 12.837 105.806 13.145L100.628 16.7615C100.341 17.0081 100.32 17.5552 100.597 18.0447" fill="#C3C2CB"/>
<path d="M97.1874 23.9253C97.7468 23.9253 98.2179 24.2173 98.2792 24.5927L98.8337 30.8737C98.8337 31.4957 98.1013 31.9999 97.1874 31.9999C96.2685 31.9999 95.541 31.4957 95.541 30.8737L96.1004 24.5927C96.1593 24.2173 96.6279 23.9253 97.1874 23.9253Z" fill="#C3C2CB"/>
<path d="M100.591 21.9655C100.884 21.4785 101.364 21.2184 101.721 21.3595L107.452 24.0192C107.985 24.3271 108.065 25.214 107.614 26.0065C107.154 26.7929 106.343 27.1671 105.806 26.8591L100.628 23.2377C100.341 22.9936 100.32 22.4489 100.597 21.9655" fill="#C3C2CB"/>
<path d="M93.7876 21.9601C94.0648 22.4495 94.0489 22.993 93.7496 23.2384L88.5726 26.8537C88.0341 27.1677 87.228 26.7923 86.7668 26.006C86.3067 25.2147 86.4 24.3265 86.9275 24.0186L92.6589 21.3589C93.0258 21.2191 93.5054 21.4767 93.7876 21.9601Z" fill="#C3C2CB"/>
<path d="M109.13 26.3079H109.201C109.298 26.3079 109.337 26.3385 109.348 26.4158C109.369 26.5017 109.38 26.5593 109.401 26.5839H109.585C109.569 26.5655 109.548 26.5189 109.537 26.4109C109.516 26.3177 109.468 26.2649 109.401 26.2465V26.2293C109.494 26.2085 109.548 26.1459 109.548 26.0686C109.548 25.9987 109.516 25.9484 109.484 25.9165C109.423 25.8871 109.364 25.8638 109.234 25.8638C109.119 25.8638 109.034 25.8736 108.967 25.8895V26.5839H109.13V26.3079ZM109.135 25.9913L109.218 25.9803C109.316 25.9803 109.369 26.0257 109.369 26.0895C109.369 26.1606 109.298 26.1938 109.207 26.1938H109.135V25.9913ZM109.239 25.5203C108.837 25.5203 108.518 25.8343 108.518 26.2195C108.518 26.6145 108.837 26.9286 109.239 26.9286C109.646 26.9286 109.955 26.6145 109.955 26.2195C109.955 25.8343 109.646 25.5203 109.239 25.5203ZM109.239 25.6613C109.548 25.6613 109.777 25.9116 109.777 26.2195C109.777 26.5299 109.548 26.7875 109.239 26.7826C108.93 26.7826 108.695 26.5299 108.695 26.2195C108.695 25.9116 108.93 25.6613 109.234 25.6613" fill="#C3C2CB"/>
</g>
<defs>
<clipPath id="clip0_2804_90106">
<rect width="100.094" height="24" fill="white" transform="translate(9.86133 8)"/>
</clipPath>
</defs>
</svg>