<svg width="800" height="200" viewBox="0 0 800 200" fill="none" xmlns="http://www.w3.org/2000/svg">
<g clip-path="url(#clip0_18_72)">
<path d="M777 92.3847V79.2113H760.533V58.7316L759.979 58.9011L744.512 63.6024L744.207 63.6944V79.212H719.796V70.5674C719.796 66.5422 720.701 63.4618 722.487 61.4076C724.26 59.3779 726.796 58.3461 730.031 58.3461C732.356 58.3461 734.764 58.8903 737.187 59.9634L737.795 60.233V46.3596L737.509 46.2552C735.248 45.448 732.174 45.0415 728.363 45.0415C723.56 45.0415 719.196 46.0799 715.39 48.1378C711.582 50.1986 708.586 53.1405 706.488 56.8809C704.397 60.617 703.335 64.9321 703.335 69.7073V79.2113H691.87V92.3847H703.335V147.882H719.796V92.3847H744.207V127.652C744.207 142.177 751.104 149.538 764.705 149.538C766.939 149.538 769.292 149.278 771.693 148.768C774.138 148.245 775.804 147.723 776.784 147.165L777 147.037V133.742L776.331 134.182C775.437 134.773 774.325 135.256 773.021 135.616C771.711 135.982 770.617 136.165 769.769 136.165C766.583 136.165 764.226 135.312 762.764 133.629C761.284 131.93 760.534 128.96 760.534 124.805V92.3847H777ZM655.111 136.167C649.137 136.167 644.427 134.199 641.107 130.322C637.767 126.426 636.075 120.871 636.075 113.814C636.075 106.532 637.767 100.833 641.109 96.8679C644.43 92.9289 649.095 90.9297 654.977 90.9297C660.685 90.9297 665.228 92.839 668.482 96.6077C671.753 100.396 673.413 106.049 673.413 113.416C673.413 120.873 671.852 126.601 668.774 130.433C665.717 134.235 661.121 136.167 655.111 136.167V136.167ZM655.843 77.557C644.445 77.557 635.392 80.875 628.937 87.4189C622.486 93.9636 619.215 103.021 619.215 114.34C619.215 125.092 622.408 133.74 628.705 140.041C635.003 146.344 643.573 149.536 654.176 149.536C665.225 149.536 674.098 146.172 680.55 139.537C687.002 132.91 690.27 123.939 690.27 112.883C690.27 101.963 687.203 93.2506 681.151 86.9921C675.097 80.7308 666.58 77.557 655.843 77.557V77.557ZM592.677 77.557C584.923 77.557 578.51 79.5272 573.611 83.4118C568.681 87.3197 566.181 92.4448 566.181 98.6468C566.181 101.871 566.721 104.734 567.783 107.163C568.851 109.6 570.505 111.746 572.702 113.546C574.882 115.332 578.247 117.203 582.707 119.107C586.456 120.639 589.251 121.936 591.028 122.957C592.763 123.959 593.995 124.965 594.691 125.946C595.367 126.905 595.71 128.218 595.71 129.838C595.71 134.452 592.232 136.697 585.076 136.697C582.422 136.697 579.395 136.146 576.078 135.061C572.785 133.992 569.677 132.426 566.863 130.419L566.18 129.932V145.675L566.43 145.791C568.759 146.859 571.696 147.76 575.157 148.469C578.611 149.178 581.75 149.539 584.476 149.539C592.89 149.539 599.665 147.559 604.609 143.652C609.584 139.717 612.105 134.471 612.105 128.054C612.105 123.426 610.748 119.456 608.073 116.255C605.415 113.08 600.803 110.164 594.371 107.588C589.246 105.544 585.963 103.848 584.609 102.546C583.303 101.288 582.64 99.5091 582.64 97.2562C582.64 95.2592 583.459 93.6593 585.138 92.3637C586.831 91.0615 589.188 90.3993 592.143 90.3993C594.886 90.3993 597.692 90.8297 600.483 91.6731C603.271 92.5166 605.72 93.6462 607.765 95.0281L608.437 95.4846V80.5503L608.179 80.4402C606.293 79.6366 603.806 78.949 600.785 78.391C597.777 77.8367 595.049 77.557 592.677 77.557V77.557ZM523.271 136.167C517.298 136.167 512.586 134.199 509.267 130.322C505.926 126.426 504.237 120.873 504.237 113.814C504.237 106.532 505.929 100.833 509.271 96.8679C512.589 92.9289 517.254 90.9297 523.138 90.9297C528.844 90.9297 533.387 92.839 536.642 96.6077C539.914 100.396 541.573 106.049 541.573 113.416C541.573 120.873 540.011 126.601 536.933 130.433C533.877 134.235 529.282 136.167 523.271 136.167V136.167ZM524.004 77.557C512.603 77.557 503.549 80.875 497.098 87.4189C490.647 93.9636 487.374 103.021 487.374 114.34C487.374 125.097 490.569 133.74 496.867 140.041C503.164 146.344 511.734 149.536 522.337 149.536C533.384 149.536 542.259 146.172 548.711 139.537C555.161 132.91 558.431 123.939 558.431 112.883C558.431 101.963 555.363 93.2506 549.31 86.9921C543.254 80.7308 534.739 77.557 524.004 77.557V77.557ZM462.389 91.1036V79.2113H446.129V147.88H462.389V112.754C462.389 106.781 463.752 101.873 466.442 98.1671C469.098 94.5049 472.637 92.6492 476.957 92.6492C478.422 92.6492 480.066 92.889 481.846 93.3636C483.609 93.8354 484.885 94.3477 485.638 94.8868L486.321 95.3788V79.0939L486.058 78.9816C484.544 78.3425 482.402 78.02 479.691 78.02C475.605 78.02 471.949 79.3243 468.817 81.8923C466.068 84.1495 464.081 87.2443 462.562 91.1036H462.389ZM417.011 77.557C409.552 77.557 402.898 79.146 397.239 82.2785C391.568 85.4183 387.182 89.9007 384.198 95.6005C381.228 101.287 379.719 107.928 379.719 115.335C379.719 121.823 381.182 127.778 384.072 133.025C386.964 138.282 391.058 142.394 396.239 145.246C401.413 148.094 407.394 149.538 414.015 149.538C421.742 149.538 428.339 148.004 433.629 144.977L433.843 144.855V130.056L433.159 130.552C430.763 132.286 428.086 133.67 425.205 134.667C422.331 135.664 419.711 136.167 417.413 136.167C411.033 136.167 405.912 134.184 402.194 130.274C398.468 126.359 396.579 120.861 396.579 113.943C396.579 106.982 398.549 101.343 402.432 97.1823C406.303 93.0339 411.434 90.9297 417.682 90.9297C423.026 90.9297 428.234 92.7274 433.161 96.278L433.843 96.77V81.1771L433.622 81.0539C431.768 80.0228 429.24 79.1714 426.1 78.5258C422.974 77.8816 419.917 77.557 417.011 77.557V77.557ZM368.521 79.212H352.262V147.88H368.521V79.212V79.212ZM360.558 49.9587C357.882 49.9587 355.547 50.8638 353.63 52.6572C351.704 54.4557 350.728 56.7201 350.728 59.3924C350.728 62.0228 351.693 64.2459 353.6 65.9965C355.495 67.7421 357.836 68.6269 360.558 68.6269C363.28 68.6269 365.63 67.7421 367.547 65.9994C369.477 64.2459 370.456 62.0235 370.456 59.3924C370.456 56.8135 369.504 54.5723 367.627 52.7296C365.752 50.8906 363.372 49.9587 360.558 49.9587ZM319.989 74.1455V147.88H336.583V52.0608H313.617L284.425 123.233L256.096 52.0608H232.195V147.88H247.789V74.1383H248.324L278.238 147.88H290.006L319.454 74.1455H319.989V74.1455Z" fill="#706D6E"/>
<path d="M99.4893 96.0295H23V20.041H99.4893V96.0295Z" fill="#F1511B"/>
<path d="M183.942 96.0295H107.454V20.041H183.942V96.0295Z" fill="#80CC28"/>
<path d="M99.4871 179.959H23V103.971H99.4871V179.959Z" fill="#00ADEF"/>
<path d="M183.942 179.959H107.454V103.971H183.942V179.959Z" fill="#FBBC09"/>
</g>
<defs>
<clipPath id="clip0_18_72">
<rect width="754" height="160" fill="white" transform="translate(23 20)"/>
</clipPath>
</defs>
</svg>
