<svg width="800" height="200" viewBox="0 0 800 200" fill="none" xmlns="http://www.w3.org/2000/svg">
<path d="M624.342 48V119.529C624.342 123.066 626.195 125.126 628.109 126.427C630.157 127.797 633.169 128.486 637.224 128.486C639.789 128.486 643.18 127.638 643.18 127.638V121.224C642.164 121.286 641.262 121.346 640.264 121.346C634.226 121.346 633.337 118.998 633.337 116.384V48H624.342V48ZM434.395 48.7281C427.615 48.7281 421.486 50.8461 417.137 54.6594C412.914 58.3797 410.574 63.512 410.574 69.0625C410.574 75.1753 413.057 79.949 418.23 83.707C422.792 87.0245 428.826 89.1668 434.637 91.2118C444.737 94.7904 454.204 98.0548 454.204 107.188C454.204 111.252 452.815 114.731 450.192 117.112C447.308 119.733 443.159 120.985 437.675 120.985C428.061 120.985 421.063 115.685 417.137 105.371L408.508 107.671C410.366 111.854 413.528 117.889 418.108 121.952C423.13 126.438 429.366 128.61 437.188 128.61C446.45 128.61 453.481 126.23 458.09 121.468C462.868 116.51 463.924 110.17 463.924 105.734C463.924 99.3805 461.228 94.4739 455.781 90.6053C451.028 87.2082 444.875 85.0216 438.888 82.981C429.135 79.6591 419.826 76.4987 419.93 68.3366C419.966 64.53 421.288 61.5688 423.697 59.5017C426.15 57.4015 429.648 56.3546 434.148 56.3546C438.875 56.3546 443.088 57.6715 446.301 60.2277C449.252 62.5559 451.401 66.0128 452.377 69.9102L460.761 68.8213C457.086 56.3281 448.097 48.7281 434.395 48.7281V48.7281ZM50 49.817V127.518H58.9934V56.4742L59.2356 56.7154L80.6245 127.518H87.5512L109.062 56.7154L109.185 56.4742V127.518H118.178V49.817H103.229L84.149 112.27V112.511L84.0268 112.27L64.9467 49.817H50V49.817ZM478.144 51.3905V70.0297H469.515V77.1715H478.144V119.533C478.144 123.07 479.759 125.13 481.668 126.432C483.721 127.802 486.724 128.49 490.784 128.49C493.353 128.49 496.859 127.642 496.859 127.642V121.229C495.861 121.291 494.815 121.35 493.821 121.35C487.775 121.35 487.137 119.002 487.137 116.389V77.1693H496.859V70.0275H487.137V51.3883H478.144V51.3905ZM154.636 68.9386C147.063 68.9386 140.645 71.9773 136.165 77.654C132.005 82.9501 129.725 90.4327 129.725 98.7143C129.725 107 132.007 114.47 136.165 119.775C140.647 125.465 147.065 128.49 154.636 128.49C162.238 128.49 168.638 125.467 173.107 119.775C177.267 114.472 179.547 107.003 179.547 98.7143C179.547 90.4349 177.265 82.9501 173.107 77.654C168.638 71.9773 162.238 68.9386 154.636 68.9386ZM673.44 69.0603C669.595 69.0603 666.022 69.7641 662.989 71.1186C659.994 72.4524 657.368 74.4873 655.333 77.0498C651.253 82.1356 648.893 89.6869 648.893 98.8361C648.893 109.019 651.831 116.787 657.157 121.952C662.775 127.414 669.935 128.488 674.9 128.488C687.804 128.488 694.131 121.534 696.775 115.174L689.604 111.663C687.86 115.536 683.853 121.468 674.9 121.468C669.782 121.468 665.593 119.381 662.626 115.536C659.757 111.816 658.146 106.668 658.131 100.529H697.507V95.0826C697.507 85.6745 694.989 78.6588 690.335 74.3852C686.369 70.7578 680.809 69.0603 673.44 69.0603V69.0603ZM246.754 69.1821C236.607 69.1821 222.205 75.9809 222.205 98.8338C222.205 121.023 236.563 128.486 246.267 128.486C251.932 128.486 257.078 125.361 260.607 120.861L261.094 120.62V131.513C261.094 139.153 254.454 143.858 247.361 143.858C240.465 143.858 234.358 142.548 229.374 140.226V147.972C233.572 149.765 240.403 150.876 246.267 150.876C262.232 150.876 269.843 142.127 269.843 129.453V70.2709H263.158L261.214 76.3217C257.916 72.0415 253.598 69.1821 246.754 69.1821V69.1821ZM304.845 69.1821C292.072 69.1821 286.025 76.8019 283.456 81.527L290.627 85.2783C291.634 82.5783 295.256 76.3217 304.967 76.3217C312.625 76.3217 316.512 79.6879 316.512 86.3672V88.4254C316.512 88.4254 316.574 89.0517 316.39 89.273C316.105 89.6316 315.299 89.9215 313.352 90.1207C302.63 91.3136 295.503 93.0664 290.261 96.4149C284.57 100.058 281.025 105.159 281.025 112.148C281.025 117.114 283.439 121.353 286.616 124.371C289.57 127.151 293.592 128.599 298.041 128.729C307.507 129.032 313.739 125.106 316.756 120.498C316.99 123.665 318.13 125.474 320.645 126.793C323.008 128.05 326.881 127.8 328.545 127.397V121.346C326.541 121.246 325.263 120.295 325.263 117.836V86.4889C325.263 80.7701 323.01 76.076 318.701 73.0551C315.145 70.5454 310.183 69.1821 304.845 69.1821V69.1821ZM366.703 69.1821C360.85 69.1821 354.861 72.2008 349.81 77.8974V70.2731H340.816V127.642H349.81V85.0393C352.87 81.7837 359.728 76.3239 365.972 76.3239C372.232 76.3239 374.965 79.3825 374.965 86.2477V127.64H383.959V86.0042C383.959 73.6106 375.108 69.1821 366.703 69.1821V69.1821ZM529.428 69.1821C516.664 69.1821 510.617 76.8019 508.039 81.527L515.21 85.2783C516.221 82.5783 519.837 76.3217 529.55 76.3217C537.206 76.3217 541.095 79.6879 541.095 86.3672V88.4254C541.095 88.4254 541.033 89.0517 540.853 89.273C540.57 89.6316 539.888 89.9215 537.937 90.1207C527.217 91.3113 520.09 93.0664 514.846 96.4149C509.159 100.058 505.61 105.159 505.61 112.148C505.61 117.114 508.019 121.35 511.201 124.371C514.153 127.151 518.181 128.599 522.626 128.729C532.084 129.032 538.324 125.106 541.342 120.498C541.579 123.663 542.71 125.474 545.23 126.793C547.588 128.05 551.464 127.8 553.13 127.397V121.346C551.13 121.246 549.848 120.295 549.848 117.836V86.4889C549.848 80.7701 547.479 76.076 543.164 73.0551C539.606 70.5454 534.764 69.1821 529.428 69.1821V69.1821ZM591.286 69.1821C585.417 69.1821 579.442 72.2008 574.393 77.8974V70.2731H565.399V127.642H574.393V85.0393C577.457 81.7815 584.304 76.3239 590.555 76.3239C596.804 76.3239 599.548 79.3825 599.548 86.2477V127.64H608.542V86.0042C608.544 73.6106 599.693 69.1821 591.286 69.1821V69.1821ZM218.803 69.4233C209.678 69.4233 204.269 72.9466 199.6 81.2836V70.2709H190.607V127.518H199.6V95.0826C201.82 83.2997 208.085 77.7757 218.803 77.7757V69.4233ZM703.578 70.1492L723.629 127.034V127.518C722.431 132.969 718.964 139.7 715.851 141.8C713.1 143.659 710.122 143.858 707.831 143.858C706.724 143.858 704.44 143.486 703.455 143.254V150.152C704.702 150.456 707.571 151 709.411 151C713.695 151 717.311 149.933 720.349 147.731C723.987 145.1 728.013 138.235 729.949 132.361L750 70.1514H741.249L728.124 114.206L728.002 115.176L727.76 114.206L712.327 70.1514H703.578V70.1492ZM154.636 76.0804C164.318 76.0804 170.069 84.5435 170.069 98.7143C170.069 112.887 164.318 121.348 154.636 121.348C144.969 121.348 139.203 112.89 139.203 98.7143C139.203 84.5435 144.969 76.0804 154.636 76.0804V76.0804ZM247.361 76.2022C252.434 76.2022 256.89 78.3843 261.094 83.5852V110.938C258.767 117.533 252.101 121.346 247.361 121.346C238.087 121.346 231.683 115.594 231.683 98.3492C231.685 83.8508 237.432 76.2022 247.361 76.2022V76.2022ZM673.682 76.2022C683.986 76.2022 688.591 81.6288 688.631 93.3895H658.371C659.153 81.6377 664.1 76.2022 673.682 76.2022V76.2022ZM316.754 96.4127V110.935C316.339 115.95 306.932 122.019 299.254 121.585C295.019 121.355 290.936 117.958 290.503 112.387C289.801 103.079 296.823 99.2123 312.499 97.4993C313.592 97.4042 315.701 97.0168 316.754 96.4127V96.4127ZM541.339 96.4127V110.935C540.924 115.948 531.517 122.019 523.839 121.585C519.613 121.353 515.51 117.953 515.088 112.387C514.375 103.079 521.406 99.2123 537.084 97.4993C538.168 97.4042 540.293 97.0168 541.339 96.4127V96.4127Z" fill="black"/>
</svg>
