<svg width="800" height="200" viewBox="0 0 800 200" fill="none" xmlns="http://www.w3.org/2000/svg">
<path d="M166.175 0C110.851 0 66 44.7712 66 99.9982C66 155.231 110.851 200 166.175 200C221.501 200 266.35 155.231 266.35 99.9982C266.35 44.7748 221.504 0.00477283 166.174 0.00477283L166.175 0V0ZM212.115 144.226C210.315 147.172 206.471 148.095 203.529 146.3C180.006 131.948 150.397 128.706 115.527 136.658C112.167 137.427 108.817 135.324 108.052 131.971C107.283 128.617 109.38 125.273 112.748 124.509C150.908 115.8 183.64 119.548 210.044 135.655C212.987 137.458 213.92 141.291 212.113 144.228L212.115 144.226V144.226ZM224.376 117.001C222.11 120.671 217.304 121.822 213.633 119.569C186.712 103.049 145.661 98.2643 113.812 107.915C109.681 109.161 105.318 106.837 104.065 102.721C102.821 98.5975 105.15 94.2509 109.273 92.9971C145.654 81.9777 190.88 87.3154 221.803 106.284C225.475 108.541 226.635 113.341 224.375 117.003L224.376 117.001ZM225.428 88.6481C193.138 69.5051 139.875 67.7449 109.049 77.0842C104.1 78.5828 98.8648 75.7933 97.3648 70.852C95.8647 65.9084 98.6567 60.6864 103.61 59.1842C138.996 48.4611 197.82 50.5328 234.991 72.5608C239.443 75.1986 240.904 80.9387 238.265 85.3773C235.633 89.8218 229.868 91.287 225.43 88.6481H225.428V88.6481ZM338.543 92.3164C321.247 88.1991 318.168 85.3094 318.168 79.2371C318.168 73.5006 323.578 69.6401 331.624 69.6401C339.423 69.6401 347.157 72.5716 355.265 78.6067C355.51 78.7894 355.818 78.8622 356.12 78.8145C356.423 78.7691 356.691 78.6031 356.868 78.3536L365.313 66.4696C365.66 65.98 365.566 65.3054 365.098 64.9316C355.448 57.202 344.582 53.4441 331.88 53.4441C313.205 53.4441 300.16 64.6318 300.16 80.6391C300.16 97.8046 311.413 103.883 330.859 108.574C347.409 112.38 350.203 115.568 350.203 121.268C350.203 127.584 344.554 131.51 335.464 131.51C325.368 131.51 317.133 128.115 307.921 120.151C307.693 119.954 307.379 119.865 307.09 119.882C306.785 119.907 306.506 120.048 306.312 120.28L296.843 131.53C296.446 131.997 296.496 132.694 296.955 133.098C307.673 142.65 320.856 147.695 335.081 147.695C355.205 147.695 368.209 136.719 368.209 119.73C368.245 105.389 359.644 97.4476 338.579 92.332L338.543 92.3164V92.3164ZM413.737 75.2882C405.015 75.2882 397.86 78.7177 391.96 85.7451V77.8352C391.96 77.2107 391.453 76.702 390.829 76.702H375.341C374.715 76.702 374.209 77.2107 374.209 77.8352V165.725C374.209 166.35 374.715 166.858 375.341 166.858H390.829C391.453 166.858 391.96 166.35 391.96 165.725V137.982C397.861 144.593 405.017 147.823 413.737 147.823C429.945 147.823 446.352 135.368 446.352 111.56C446.376 87.7453 429.964 75.287 413.755 75.287L413.737 75.2882ZM428.343 111.56C428.343 123.684 420.862 132.144 410.15 132.144C399.56 132.144 391.571 123.299 391.571 111.56C391.571 99.8215 399.56 90.9754 410.15 90.9754C420.689 90.9742 428.344 99.6292 428.344 111.558L428.343 111.56V111.56ZM488.405 75.2882C467.533 75.2882 451.18 91.3324 451.18 111.819C451.18 132.082 467.42 147.958 488.149 147.958C509.096 147.958 525.499 131.967 525.499 111.56C525.499 91.2225 509.206 75.2906 488.404 75.2906L488.405 75.2882V75.2882ZM488.405 132.265C477.303 132.265 468.933 123.36 468.933 111.554C468.933 99.6972 477.014 91.0936 488.149 91.0936C499.323 91.0936 507.749 99.9981 507.749 111.813C507.749 123.667 499.615 132.265 488.406 132.265H488.405V132.265ZM570.071 76.7021H553.029V59.3085C553.029 58.6851 552.524 58.1765 551.898 58.1765H536.413C535.786 58.1765 535.278 58.6851 535.278 59.3085V76.7021H527.832C527.208 76.7021 526.703 77.2107 526.703 77.8353V91.1223C526.703 91.7456 527.208 92.2555 527.832 92.2555H535.278V126.635C535.278 140.529 542.205 147.573 555.867 147.573C561.423 147.573 566.032 146.428 570.375 143.969C570.728 143.772 570.947 143.393 570.947 142.989V130.336C570.947 129.946 570.743 129.577 570.409 129.372C570.071 129.161 569.651 129.15 569.306 129.321C566.322 130.82 563.438 131.511 560.214 131.511C555.245 131.511 553.029 129.259 553.029 124.211V92.2616H570.071C570.697 92.2616 571.2 91.7528 571.2 91.1284V77.8425C571.224 77.218 570.722 76.7093 570.088 76.7093L570.071 76.7021V76.7021ZM629.452 76.7701V74.6338C629.452 68.3491 631.866 65.5465 637.28 65.5465C640.508 65.5465 643.102 66.1866 646.006 67.1538C646.364 67.2661 646.737 67.21 647.028 66.9962C647.327 66.7824 647.495 66.4397 647.495 66.0767V53.0488C647.495 52.5508 647.175 52.1102 646.694 51.9633C643.626 51.0522 639.7 50.1172 633.821 50.1172C619.517 50.1172 611.956 58.1584 611.956 73.3632V76.6351H604.515C603.891 76.6351 603.379 77.1438 603.379 77.7671V91.1222C603.379 91.7456 603.891 92.2554 604.515 92.2554H611.956V145.285C611.956 145.91 612.46 146.418 613.085 146.418H628.572C629.198 146.418 629.708 145.91 629.708 145.285V92.2591H644.168L666.318 145.276C663.803 150.846 661.331 151.954 657.955 151.954C655.227 151.954 652.353 151.141 649.415 149.536C649.139 149.385 648.811 149.36 648.513 149.452C648.218 149.555 647.969 149.775 647.843 150.062L642.594 161.558C642.344 162.101 642.559 162.739 643.083 163.02C648.562 165.983 653.509 167.248 659.623 167.248C671.059 167.248 677.379 161.93 682.951 147.625L709.82 78.3177C709.955 77.969 709.914 77.5749 709.7 77.2657C709.487 76.9587 709.144 76.7737 708.768 76.7737H692.645C692.162 76.7737 691.73 77.0805 691.572 77.5331L675.056 124.627L656.966 77.5021C656.801 77.0638 656.377 76.7736 655.909 76.7736H629.448L629.452 76.7701V76.7701ZM595.024 76.7021H579.537C578.911 76.7021 578.402 77.2107 578.402 77.8353V145.285C578.402 145.91 578.911 146.418 579.537 146.418H595.024C595.649 146.418 596.16 145.91 596.16 145.285V77.84C596.16 77.691 596.131 77.5434 596.074 77.4056C596.017 77.2679 595.933 77.1428 595.827 77.0375C595.722 76.9322 595.596 76.8488 595.458 76.792C595.32 76.7353 595.172 76.7063 595.023 76.7068L595.024 76.7021ZM587.369 45.9905C581.233 45.9905 576.254 50.9484 576.254 57.0731C576.254 63.2013 581.234 68.1653 587.369 68.1653C593.502 68.1653 598.475 63.2013 598.475 57.0731C598.475 50.9496 593.499 45.9905 587.375 45.9905H587.369V45.9905ZM723.044 98.3885C716.914 98.3885 712.145 93.4746 712.145 87.5076C712.145 81.5406 716.977 76.5707 723.101 76.5707C729.231 76.5707 734 81.4833 734 87.4455C734 93.4126 729.167 98.3885 723.043 98.3885H723.044V98.3885ZM723.104 77.6526C717.521 77.6526 713.297 82.0828 713.297 87.5076C713.297 92.9302 717.491 97.3007 723.047 97.3007C728.629 97.3007 732.858 92.8741 732.858 87.4455C732.858 82.0231 728.659 77.6526 723.108 77.6526H723.104V77.6526ZM725.52 88.5644L728.603 92.8729H726.003L723.228 88.9203H720.842V92.8729H718.666V81.4523H723.768C726.426 81.4523 728.173 82.81 728.173 85.0956C728.185 86.968 727.097 88.1119 725.53 88.5645H725.52V88.5644ZM723.678 83.4119H720.84V87.0241H723.678C725.094 87.0241 725.94 86.3327 725.94 85.2162C725.94 84.0412 725.091 83.4119 723.679 83.4119H723.678V83.4119Z" fill="#2EBD59"/>
</svg>
