<svg width="520" height="520" viewBox="0 0 520 520" fill="none" xmlns="http://www.w3.org/2000/svg">
<g clip-path="url(#clip0_6785_44263)">
<rect width="520" height="520" rx="7.17483" fill="#09071B"/>
<g filter="url(#filter0_d_6785_44263)">
<rect x="90" y="145" width="340" height="229.7" rx="8.5" fill="white"/>
<path d="M114.222 168.227H112.19C112.132 167.893 112.025 167.598 111.869 167.341C111.713 167.08 111.519 166.859 111.288 166.678C111.056 166.497 110.791 166.361 110.494 166.271C110.201 166.177 109.884 166.129 109.544 166.129C108.939 166.129 108.403 166.282 107.935 166.586C107.468 166.887 107.102 167.328 106.838 167.912C106.573 168.491 106.441 169.199 106.441 170.036C106.441 170.887 106.573 171.604 106.838 172.188C107.106 172.767 107.472 173.205 107.935 173.502C108.403 173.796 108.937 173.942 109.538 173.942C109.871 173.942 110.183 173.899 110.473 173.812C110.766 173.722 111.029 173.589 111.26 173.415C111.496 173.242 111.693 173.028 111.853 172.774C112.016 172.521 112.128 172.231 112.19 171.905L114.222 171.916C114.146 172.445 113.981 172.941 113.727 173.405C113.477 173.868 113.149 174.278 112.744 174.632C112.338 174.984 111.864 175.259 111.32 175.458C110.777 175.654 110.174 175.752 109.511 175.752C108.533 175.752 107.66 175.525 106.892 175.073C106.124 174.62 105.519 173.966 105.077 173.111C104.636 172.256 104.415 171.231 104.415 170.036C104.415 168.837 104.637 167.812 105.083 166.961C105.528 166.106 106.135 165.452 106.903 164.999C107.671 164.547 108.54 164.32 109.511 164.32C110.13 164.32 110.706 164.407 111.239 164.581C111.771 164.755 112.246 165.01 112.662 165.347C113.079 165.68 113.421 166.09 113.689 166.575C113.961 167.057 114.138 167.607 114.222 168.227ZM115.981 175.6V167.254H117.888V168.645H117.975C118.127 168.163 118.388 167.792 118.757 167.531C119.13 167.267 119.556 167.135 120.034 167.135C120.142 167.135 120.264 167.14 120.398 167.151C120.535 167.158 120.65 167.171 120.74 167.189V168.998C120.657 168.969 120.525 168.944 120.343 168.922C120.166 168.897 119.994 168.884 119.827 168.884C119.469 168.884 119.146 168.962 118.86 169.118C118.578 169.27 118.355 169.482 118.192 169.753C118.029 170.025 117.947 170.338 117.947 170.693V175.6H115.981ZM125.398 175.763C124.561 175.763 123.838 175.589 123.23 175.241C122.625 174.89 122.16 174.393 121.834 173.752C121.508 173.108 121.345 172.349 121.345 171.476C121.345 170.617 121.508 169.864 121.834 169.216C122.163 168.564 122.623 168.056 123.214 167.694C123.804 167.328 124.498 167.145 125.295 167.145C125.809 167.145 126.294 167.229 126.751 167.395C127.211 167.558 127.616 167.812 127.968 168.156C128.323 168.5 128.602 168.938 128.804 169.471C129.007 170 129.109 170.63 129.109 171.362V171.965H122.268V170.639H127.223C127.22 170.262 127.138 169.927 126.979 169.634C126.819 169.337 126.597 169.103 126.311 168.933C126.028 168.763 125.698 168.678 125.322 168.678C124.92 168.678 124.566 168.775 124.262 168.971C123.958 169.163 123.721 169.417 123.55 169.732C123.384 170.043 123.299 170.386 123.295 170.759V171.916C123.295 172.401 123.384 172.818 123.561 173.166C123.739 173.51 123.987 173.774 124.306 173.959C124.624 174.14 124.998 174.23 125.425 174.23C125.711 174.23 125.97 174.191 126.202 174.111C126.434 174.028 126.635 173.906 126.805 173.747C126.975 173.587 127.104 173.39 127.191 173.155L129.027 173.361C128.911 173.846 128.69 174.27 128.364 174.632C128.042 174.991 127.629 175.27 127.126 175.469C126.622 175.665 126.046 175.763 125.398 175.763ZM133.174 175.768C132.645 175.768 132.169 175.674 131.745 175.486C131.325 175.294 130.992 175.011 130.745 174.638C130.503 174.265 130.381 173.805 130.381 173.258C130.381 172.787 130.468 172.398 130.642 172.09C130.816 171.782 131.053 171.536 131.354 171.351C131.655 171.166 131.993 171.027 132.37 170.932C132.75 170.835 133.143 170.764 133.549 170.721C134.038 170.67 134.435 170.625 134.739 170.585C135.043 170.541 135.264 170.476 135.402 170.389C135.543 170.299 135.614 170.159 135.614 169.971V169.938C135.614 169.529 135.492 169.212 135.25 168.987C135.007 168.763 134.657 168.65 134.201 168.65C133.719 168.65 133.337 168.756 133.055 168.966C132.776 169.176 132.587 169.424 132.489 169.71L130.653 169.449C130.798 168.942 131.037 168.518 131.37 168.178C131.703 167.834 132.111 167.577 132.593 167.406C133.074 167.232 133.607 167.145 134.19 167.145C134.592 167.145 134.992 167.193 135.391 167.287C135.789 167.381 136.153 167.537 136.483 167.754C136.813 167.968 137.077 168.259 137.276 168.629C137.479 168.998 137.58 169.46 137.58 170.014V175.6H135.69V174.453H135.624C135.505 174.685 135.337 174.902 135.119 175.105C134.905 175.304 134.636 175.466 134.31 175.589C133.987 175.708 133.609 175.768 133.174 175.768ZM133.685 174.323C134.08 174.323 134.422 174.245 134.712 174.089C135.001 173.93 135.224 173.72 135.38 173.459C135.539 173.198 135.619 172.914 135.619 172.606V171.622C135.557 171.673 135.452 171.72 135.304 171.764C135.159 171.807 134.996 171.845 134.815 171.878C134.634 171.91 134.455 171.939 134.277 171.965C134.1 171.99 133.946 172.012 133.815 172.03C133.522 172.07 133.259 172.135 133.027 172.226C132.796 172.316 132.613 172.443 132.479 172.606C132.345 172.765 132.278 172.972 132.278 173.225C132.278 173.587 132.41 173.861 132.674 174.046C132.939 174.23 133.276 174.323 133.685 174.323ZM143.725 167.254V168.775H138.928V167.254H143.725ZM140.112 165.255H142.079V173.089C142.079 173.354 142.119 173.557 142.199 173.698C142.282 173.836 142.391 173.93 142.525 173.981C142.659 174.031 142.807 174.057 142.97 174.057C143.093 174.057 143.206 174.048 143.307 174.029C143.412 174.011 143.492 173.995 143.546 173.981L143.878 175.518C143.773 175.554 143.622 175.594 143.427 175.638C143.235 175.681 142.999 175.706 142.72 175.714C142.228 175.728 141.784 175.654 141.389 175.491C140.994 175.324 140.681 175.067 140.449 174.719C140.221 174.372 140.109 173.937 140.112 173.415V165.255ZM148.975 175.763C148.139 175.763 147.416 175.589 146.807 175.241C146.203 174.89 145.737 174.393 145.411 173.752C145.085 173.108 144.922 172.349 144.922 171.476C144.922 170.617 145.085 169.864 145.411 169.216C145.741 168.564 146.201 168.056 146.791 167.694C147.382 167.328 148.075 167.145 148.872 167.145C149.386 167.145 149.872 167.229 150.328 167.395C150.788 167.558 151.194 167.812 151.545 168.156C151.9 168.5 152.179 168.938 152.382 169.471C152.585 170 152.686 170.63 152.686 171.362V171.965H145.846V170.639H150.801C150.797 170.262 150.716 169.927 150.556 169.634C150.397 169.337 150.174 169.103 149.888 168.933C149.606 168.763 149.276 168.678 148.899 168.678C148.497 168.678 148.144 168.775 147.84 168.971C147.535 169.163 147.298 169.417 147.128 169.732C146.961 170.043 146.876 170.386 146.873 170.759V171.916C146.873 172.401 146.961 172.818 147.139 173.166C147.316 173.51 147.564 173.774 147.883 173.959C148.202 174.14 148.575 174.23 149.002 174.23C149.289 174.23 149.548 174.191 149.779 174.111C150.011 174.028 150.212 173.906 150.383 173.747C150.553 173.587 150.681 173.39 150.768 173.155L152.605 173.361C152.489 173.846 152.268 174.27 151.942 174.632C151.619 174.991 151.207 175.27 150.703 175.469C150.2 175.665 149.624 175.763 148.975 175.763ZM159.368 178.729C159.1 178.729 158.852 178.707 158.623 178.664C158.399 178.624 158.22 178.577 158.085 178.523L158.542 176.991C158.828 177.074 159.083 177.114 159.308 177.11C159.533 177.106 159.73 177.036 159.9 176.898C160.074 176.764 160.221 176.54 160.34 176.224L160.509 175.773L157.482 167.254H159.569L161.492 173.557H161.579L163.508 167.254H165.6L162.258 176.61C162.102 177.052 161.896 177.431 161.639 177.746C161.382 178.064 161.067 178.307 160.693 178.474C160.324 178.644 159.882 178.729 159.368 178.729ZM170.317 175.763C169.502 175.763 168.796 175.583 168.198 175.225C167.6 174.866 167.137 174.364 166.807 173.72C166.481 173.075 166.318 172.322 166.318 171.459C166.318 170.597 166.481 169.842 166.807 169.194C167.137 168.545 167.6 168.042 168.198 167.683C168.796 167.325 169.502 167.145 170.317 167.145C171.132 167.145 171.838 167.325 172.436 167.683C173.034 168.042 173.496 168.545 173.822 169.194C174.151 169.842 174.316 170.597 174.316 171.459C174.316 172.322 174.151 173.075 173.822 173.72C173.496 174.364 173.034 174.866 172.436 175.225C171.838 175.583 171.132 175.763 170.317 175.763ZM170.328 174.187C170.77 174.187 171.139 174.066 171.436 173.823C171.733 173.577 171.954 173.247 172.099 172.834C172.248 172.421 172.322 171.961 172.322 171.454C172.322 170.943 172.248 170.481 172.099 170.069C171.954 169.652 171.733 169.321 171.436 169.074C171.139 168.828 170.77 168.705 170.328 168.705C169.875 168.705 169.498 168.828 169.198 169.074C168.901 169.321 168.678 169.652 168.53 170.069C168.385 170.481 168.312 170.943 168.312 171.454C168.312 171.961 168.385 172.421 168.53 172.834C168.678 173.247 168.901 173.577 169.198 173.823C169.498 174.066 169.875 174.187 170.328 174.187ZM181.304 172.09V167.254H183.271V175.6H181.364V174.116H181.277C181.089 174.584 180.779 174.966 180.348 175.263C179.921 175.56 179.394 175.708 178.767 175.708C178.22 175.708 177.737 175.587 177.316 175.344C176.9 175.098 176.574 174.741 176.338 174.274C176.103 173.803 175.985 173.234 175.985 172.568V167.254H177.952V172.264C177.952 172.792 178.097 173.213 178.387 173.524C178.677 173.836 179.057 173.991 179.528 173.991C179.818 173.991 180.098 173.921 180.37 173.779C180.642 173.638 180.864 173.428 181.038 173.149C181.216 172.867 181.304 172.514 181.304 172.09ZM185.294 175.6V167.254H187.201V168.645H187.288C187.44 168.163 187.701 167.792 188.07 167.531C188.443 167.267 188.869 167.135 189.347 167.135C189.456 167.135 189.577 167.14 189.711 167.151C189.849 167.158 189.963 167.171 190.053 167.189V168.998C189.97 168.969 189.838 168.944 189.657 168.922C189.479 168.897 189.307 168.884 189.141 168.884C188.782 168.884 188.46 168.962 188.173 169.118C187.891 169.27 187.668 169.482 187.505 169.753C187.342 170.025 187.261 170.338 187.261 170.693V175.6H185.294ZM199.382 167.254V168.775H194.449V167.254H199.382ZM195.682 175.6V166.466C195.682 165.905 195.798 165.438 196.03 165.065C196.265 164.691 196.58 164.413 196.975 164.228C197.37 164.043 197.808 163.951 198.29 163.951C198.631 163.951 198.933 163.978 199.197 164.032C199.462 164.087 199.657 164.135 199.784 164.179L199.393 165.7C199.31 165.675 199.205 165.65 199.078 165.624C198.951 165.595 198.81 165.581 198.654 165.581C198.288 165.581 198.029 165.669 197.877 165.847C197.729 166.021 197.654 166.271 197.654 166.597V175.6H195.682ZM200.923 175.6V167.254H202.83V168.645H202.916C203.069 168.163 203.329 167.792 203.699 167.531C204.072 167.267 204.498 167.135 204.976 167.135C205.084 167.135 205.206 167.14 205.34 167.151C205.477 167.158 205.591 167.171 205.682 167.189V168.998C205.599 168.969 205.467 168.944 205.285 168.922C205.108 168.897 204.936 168.884 204.769 168.884C204.411 168.884 204.088 168.962 203.802 169.118C203.52 169.27 203.297 169.482 203.134 169.753C202.971 170.025 202.889 170.338 202.889 170.693V175.6H200.923ZM210.34 175.763C209.503 175.763 208.78 175.589 208.172 175.241C207.567 174.89 207.101 174.393 206.775 173.752C206.449 173.108 206.286 172.349 206.286 171.476C206.286 170.617 206.449 169.864 206.775 169.216C207.105 168.564 207.565 168.056 208.155 167.694C208.746 167.328 209.44 167.145 210.236 167.145C210.751 167.145 211.236 167.229 211.693 167.395C212.153 167.558 212.558 167.812 212.91 168.156C213.265 168.5 213.543 168.938 213.746 169.471C213.949 170 214.051 170.63 214.051 171.362V171.965H207.21V170.639H212.165C212.162 170.262 212.08 169.927 211.921 169.634C211.761 169.337 211.539 169.103 211.252 168.933C210.97 168.763 210.64 168.678 210.264 168.678C209.862 168.678 209.508 168.775 209.204 168.971C208.9 169.163 208.663 169.417 208.492 169.732C208.326 170.043 208.241 170.386 208.237 170.759V171.916C208.237 172.401 208.326 172.818 208.503 173.166C208.681 173.51 208.929 173.774 209.248 173.959C209.566 174.14 209.939 174.23 210.367 174.23C210.653 174.23 210.912 174.191 211.144 174.111C211.376 174.028 211.577 173.906 211.747 173.747C211.917 173.587 212.046 173.39 212.133 173.155L213.969 173.361C213.853 173.846 213.632 174.27 213.306 174.632C212.984 174.991 212.571 175.27 212.067 175.469C211.564 175.665 210.988 175.763 210.34 175.763ZM219.409 175.763C218.572 175.763 217.85 175.589 217.241 175.241C216.636 174.89 216.171 174.393 215.845 173.752C215.519 173.108 215.356 172.349 215.356 171.476C215.356 170.617 215.519 169.864 215.845 169.216C216.175 168.564 216.635 168.056 217.225 167.694C217.815 167.328 218.509 167.145 219.306 167.145C219.82 167.145 220.306 167.229 220.762 167.395C221.222 167.558 221.628 167.812 221.979 168.156C222.334 168.5 222.613 168.938 222.816 169.471C223.019 170 223.12 170.63 223.12 171.362V171.965H216.28V170.639H221.235C221.231 170.262 221.15 169.927 220.99 169.634C220.831 169.337 220.608 169.103 220.322 168.933C220.039 168.763 219.71 168.678 219.333 168.678C218.931 168.678 218.578 168.775 218.274 168.971C217.969 169.163 217.732 169.417 217.562 169.732C217.395 170.043 217.31 170.386 217.306 170.759V171.916C217.306 172.401 217.395 172.818 217.573 173.166C217.75 173.51 217.998 173.774 218.317 173.959C218.636 174.14 219.009 174.23 219.436 174.23C219.722 174.23 219.981 174.191 220.213 174.111C220.445 174.028 220.646 173.906 220.816 173.747C220.987 173.587 221.115 173.39 221.202 173.155L223.038 173.361C222.923 173.846 222.702 174.27 222.376 174.632C222.053 174.991 221.64 175.27 221.137 175.469C220.633 175.665 220.057 175.763 219.409 175.763ZM228.579 178.729V167.254H230.513V168.634H230.627C230.729 168.431 230.872 168.216 231.057 167.988C231.241 167.756 231.491 167.558 231.806 167.395C232.122 167.229 232.524 167.145 233.013 167.145C233.657 167.145 234.239 167.31 234.757 167.64C235.278 167.966 235.691 168.449 235.995 169.091C236.303 169.728 236.457 170.51 236.457 171.438C236.457 172.354 236.307 173.133 236.006 173.774C235.706 174.415 235.296 174.904 234.778 175.241C234.26 175.578 233.674 175.746 233.018 175.746C232.54 175.746 232.143 175.667 231.828 175.507C231.513 175.348 231.259 175.156 231.067 174.931C230.879 174.703 230.732 174.488 230.627 174.285H230.546V178.729H228.579ZM230.508 171.427C230.508 171.967 230.584 172.439 230.736 172.845C230.892 173.251 231.115 173.568 231.404 173.796C231.698 174.02 232.053 174.133 232.469 174.133C232.904 174.133 233.268 174.017 233.561 173.785C233.855 173.549 234.076 173.229 234.224 172.823C234.376 172.414 234.452 171.948 234.452 171.427C234.452 170.909 234.378 170.449 234.23 170.047C234.081 169.645 233.86 169.33 233.567 169.101C233.273 168.873 232.908 168.759 232.469 168.759C232.049 168.759 231.692 168.87 231.399 169.091C231.105 169.312 230.883 169.621 230.731 170.02C230.582 170.418 230.508 170.887 230.508 171.427ZM238.142 175.6V167.254H240.049V168.645H240.136C240.288 168.163 240.548 167.792 240.918 167.531C241.291 167.267 241.717 167.135 242.195 167.135C242.303 167.135 242.425 167.14 242.559 167.151C242.696 167.158 242.811 167.171 242.901 167.189V168.998C242.818 168.969 242.686 168.944 242.504 168.922C242.327 168.897 242.155 168.884 241.988 168.884C241.63 168.884 241.307 168.962 241.021 169.118C240.739 169.27 240.516 169.482 240.353 169.753C240.19 170.025 240.108 170.338 240.108 170.693V175.6H238.142ZM247.504 175.763C246.689 175.763 245.983 175.583 245.385 175.225C244.788 174.866 244.324 174.364 243.994 173.72C243.669 173.075 243.506 172.322 243.506 171.459C243.506 170.597 243.669 169.842 243.994 169.194C244.324 168.545 244.788 168.042 245.385 167.683C245.983 167.325 246.689 167.145 247.504 167.145C248.319 167.145 249.026 167.325 249.623 167.683C250.221 168.042 250.683 168.545 251.009 169.194C251.338 169.842 251.503 170.597 251.503 171.459C251.503 172.322 251.338 173.075 251.009 173.72C250.683 174.364 250.221 174.866 249.623 175.225C249.026 175.583 248.319 175.763 247.504 175.763ZM247.515 174.187C247.957 174.187 248.327 174.066 248.624 173.823C248.921 173.577 249.142 173.247 249.286 172.834C249.435 172.421 249.509 171.961 249.509 171.454C249.509 170.943 249.435 170.481 249.286 170.069C249.142 169.652 248.921 169.321 248.624 169.074C248.327 168.828 247.957 168.705 247.515 168.705C247.062 168.705 246.686 168.828 246.385 169.074C246.088 169.321 245.865 169.652 245.717 170.069C245.572 170.481 245.5 170.943 245.5 171.454C245.5 171.961 245.572 172.421 245.717 172.834C245.865 173.247 246.088 173.577 246.385 173.823C246.686 174.066 247.062 174.187 247.515 174.187ZM257.4 167.254V168.775H252.466V167.254H257.4ZM253.7 175.6V166.466C253.7 165.905 253.816 165.438 254.047 165.065C254.283 164.691 254.598 164.413 254.993 164.228C255.388 164.043 255.826 163.951 256.308 163.951C256.648 163.951 256.951 163.978 257.215 164.032C257.479 164.087 257.675 164.135 257.802 164.179L257.411 165.7C257.327 165.675 257.222 165.65 257.095 165.624C256.969 165.595 256.827 165.581 256.672 165.581C256.306 165.581 256.047 165.669 255.895 165.847C255.746 166.021 255.672 166.271 255.672 166.597V175.6H253.7ZM258.94 175.6V167.254H260.907V175.6H258.94ZM259.929 166.07C259.617 166.07 259.349 165.966 259.125 165.76C258.9 165.55 258.788 165.298 258.788 165.005C258.788 164.708 258.9 164.456 259.125 164.25C259.349 164.039 259.617 163.934 259.929 163.934C260.244 163.934 260.512 164.039 260.733 164.25C260.958 164.456 261.07 164.708 261.07 165.005C261.07 165.298 260.958 165.55 260.733 165.76C260.512 165.966 260.244 166.07 259.929 166.07ZM264.896 164.472V175.6H262.929V164.472H264.896ZM270.613 175.763C269.777 175.763 269.054 175.589 268.445 175.241C267.841 174.89 267.375 174.393 267.049 173.752C266.723 173.108 266.56 172.349 266.56 171.476C266.56 170.617 266.723 169.864 267.049 169.216C267.379 168.564 267.839 168.056 268.429 167.694C269.02 167.328 269.713 167.145 270.51 167.145C271.024 167.145 271.51 167.229 271.966 167.395C272.426 167.558 272.832 167.812 273.183 168.156C273.538 168.5 273.817 168.938 274.02 169.471C274.223 170 274.324 170.63 274.324 171.362V171.965H267.484V170.639H272.439C272.435 170.262 272.354 169.927 272.194 169.634C272.035 169.337 271.812 169.103 271.526 168.933C271.244 168.763 270.914 168.678 270.537 168.678C270.135 168.678 269.782 168.775 269.478 168.971C269.173 169.163 268.936 169.417 268.766 169.732C268.599 170.043 268.514 170.386 268.511 170.759V171.916C268.511 172.401 268.599 172.818 268.777 173.166C268.954 173.51 269.202 173.774 269.521 173.959C269.84 174.14 270.213 174.23 270.64 174.23C270.927 174.23 271.186 174.191 271.417 174.111C271.649 174.028 271.85 173.906 272.021 173.747C272.191 173.587 272.319 173.39 272.406 173.155L274.243 173.361C274.127 173.846 273.906 174.27 273.58 174.632C273.257 174.991 272.845 175.27 272.341 175.469C271.838 175.665 271.262 175.763 270.613 175.763Z" fill="#1A1A1A"/>
<path d="M109.318 191.565C109.273 191.162 109.085 190.849 108.756 190.628C108.426 190.403 108.012 190.291 107.512 190.291C107.154 190.291 106.844 190.348 106.583 190.462C106.321 190.572 106.118 190.726 105.973 190.922C105.831 191.115 105.76 191.335 105.76 191.582C105.76 191.79 105.808 191.969 105.905 192.119C106.004 192.27 106.134 192.396 106.293 192.499C106.455 192.598 106.628 192.682 106.813 192.75C106.997 192.815 107.175 192.869 107.345 192.912L108.198 193.134C108.476 193.202 108.762 193.294 109.054 193.411C109.347 193.527 109.618 193.68 109.868 193.871C110.118 194.061 110.32 194.297 110.473 194.578C110.629 194.859 110.708 195.196 110.708 195.588C110.708 196.082 110.58 196.521 110.324 196.905C110.071 197.288 109.703 197.591 109.22 197.812C108.74 198.034 108.159 198.145 107.477 198.145C106.824 198.145 106.259 198.041 105.781 197.834C105.304 197.626 104.931 197.332 104.661 196.952C104.391 196.568 104.242 196.114 104.213 195.588H105.534C105.56 195.903 105.662 196.166 105.841 196.376C106.023 196.584 106.254 196.739 106.536 196.841C106.82 196.94 107.131 196.99 107.469 196.99C107.841 196.99 108.172 196.932 108.462 196.815C108.754 196.696 108.985 196.531 109.152 196.321C109.32 196.108 109.404 195.859 109.404 195.575C109.404 195.317 109.33 195.105 109.182 194.94C109.037 194.776 108.84 194.639 108.59 194.531C108.343 194.423 108.063 194.328 107.75 194.246L106.719 193.964C106.02 193.774 105.466 193.494 105.057 193.125C104.651 192.756 104.448 192.267 104.448 191.659C104.448 191.156 104.584 190.717 104.857 190.342C105.129 189.967 105.499 189.676 105.965 189.469C106.431 189.259 106.956 189.153 107.541 189.153C108.132 189.153 108.654 189.257 109.105 189.464C109.56 189.672 109.918 189.957 110.179 190.321C110.441 190.682 110.577 191.097 110.588 191.565H109.318ZM115.234 191.455V192.477H111.659V191.455H115.234ZM112.618 189.886H113.892V196.078C113.892 196.325 113.929 196.511 114.003 196.636C114.077 196.759 114.172 196.842 114.288 196.888C114.407 196.93 114.537 196.952 114.676 196.952C114.778 196.952 114.868 196.945 114.944 196.93C115.021 196.916 115.081 196.905 115.123 196.896L115.354 197.949C115.28 197.977 115.175 198.006 115.038 198.034C114.902 198.065 114.731 198.082 114.527 198.085C114.192 198.091 113.879 198.031 113.589 197.906C113.3 197.781 113.065 197.588 112.886 197.327C112.707 197.065 112.618 196.737 112.618 196.342V189.886ZM118.548 198.145C118.134 198.145 117.759 198.068 117.423 197.915C117.088 197.759 116.823 197.533 116.627 197.237C116.433 196.942 116.337 196.58 116.337 196.151C116.337 195.781 116.408 195.477 116.55 195.239C116.692 195 116.884 194.811 117.125 194.672C117.367 194.533 117.637 194.428 117.935 194.357C118.233 194.286 118.537 194.232 118.847 194.195C119.239 194.149 119.557 194.112 119.801 194.084C120.046 194.053 120.223 194.003 120.334 193.935C120.445 193.866 120.5 193.756 120.5 193.602V193.572C120.5 193.2 120.395 192.912 120.185 192.707C119.977 192.503 119.668 192.401 119.256 192.401C118.827 192.401 118.489 192.496 118.242 192.686C117.997 192.874 117.828 193.082 117.735 193.312L116.537 193.04C116.679 192.642 116.887 192.321 117.159 192.077C117.435 191.83 117.752 191.651 118.11 191.54C118.468 191.426 118.844 191.369 119.239 191.369C119.5 191.369 119.777 191.401 120.07 191.463C120.365 191.523 120.641 191.634 120.896 191.795C121.155 191.957 121.367 192.189 121.531 192.49C121.696 192.788 121.779 193.176 121.779 193.653V198H120.534V197.105H120.483C120.401 197.27 120.277 197.432 120.112 197.591C119.948 197.75 119.736 197.882 119.477 197.987C119.219 198.092 118.909 198.145 118.548 198.145ZM118.825 197.122C119.178 197.122 119.479 197.053 119.729 196.913C119.982 196.774 120.173 196.592 120.304 196.368C120.438 196.141 120.504 195.898 120.504 195.639V194.795C120.459 194.841 120.371 194.884 120.24 194.923C120.112 194.96 119.966 194.993 119.801 195.021C119.637 195.047 119.476 195.071 119.32 195.094C119.164 195.114 119.033 195.131 118.928 195.145C118.681 195.176 118.455 195.229 118.25 195.303C118.048 195.376 117.887 195.483 117.764 195.622C117.645 195.759 117.585 195.94 117.585 196.168C117.585 196.483 117.702 196.722 117.935 196.884C118.168 197.043 118.465 197.122 118.825 197.122ZM123.476 198V191.455H124.707V192.494H124.775C124.895 192.142 125.105 191.865 125.406 191.663C125.71 191.459 126.054 191.357 126.437 191.357C126.517 191.357 126.611 191.359 126.719 191.365C126.829 191.371 126.916 191.378 126.979 191.386V192.605C126.927 192.591 126.836 192.575 126.706 192.558C126.575 192.538 126.444 192.528 126.314 192.528C126.013 192.528 125.744 192.592 125.508 192.72C125.275 192.845 125.091 193.02 124.954 193.244C124.818 193.466 124.75 193.719 124.75 194.003V198H123.476ZM131.523 191.455V192.477H127.948V191.455H131.523ZM128.907 189.886H130.181V196.078C130.181 196.325 130.218 196.511 130.292 196.636C130.366 196.759 130.461 196.842 130.577 196.888C130.697 196.93 130.826 196.952 130.965 196.952C131.067 196.952 131.157 196.945 131.233 196.93C131.31 196.916 131.37 196.905 131.412 196.896L131.643 197.949C131.569 197.977 131.464 198.006 131.327 198.034C131.191 198.065 131.02 198.082 130.816 198.085C130.481 198.091 130.168 198.031 129.878 197.906C129.589 197.781 129.354 197.588 129.175 197.327C128.996 197.065 128.907 196.737 128.907 196.342V189.886ZM136.914 200.455C136.724 200.455 136.55 200.439 136.394 200.408C136.238 200.379 136.121 200.348 136.045 200.314L136.351 199.27C136.584 199.332 136.792 199.359 136.974 199.351C137.155 199.342 137.316 199.274 137.455 199.146C137.597 199.018 137.722 198.81 137.83 198.52L137.988 198.085L135.593 191.455H136.956L138.614 196.534H138.682L140.34 191.455H141.708L139.01 198.874C138.885 199.214 138.726 199.503 138.533 199.739C138.34 199.977 138.11 200.156 137.843 200.276C137.576 200.395 137.266 200.455 136.914 200.455ZM145.44 198.132C144.826 198.132 144.291 197.991 143.833 197.71C143.376 197.429 143.021 197.036 142.768 196.53C142.515 196.024 142.389 195.433 142.389 194.757C142.389 194.078 142.515 193.484 142.768 192.976C143.021 192.467 143.376 192.072 143.833 191.791C144.291 191.51 144.826 191.369 145.44 191.369C146.053 191.369 146.589 191.51 147.046 191.791C147.504 192.072 147.859 192.467 148.112 192.976C148.365 193.484 148.491 194.078 148.491 194.757C148.491 195.433 148.365 196.024 148.112 196.53C147.859 197.036 147.504 197.429 147.046 197.71C146.589 197.991 146.053 198.132 145.44 198.132ZM145.444 197.062C145.842 197.062 146.171 196.957 146.433 196.747C146.694 196.537 146.887 196.257 147.012 195.908C147.14 195.558 147.204 195.173 147.204 194.753C147.204 194.335 147.14 193.952 147.012 193.602C146.887 193.25 146.694 192.967 146.433 192.754C146.171 192.541 145.842 192.435 145.444 192.435C145.044 192.435 144.711 192.541 144.447 192.754C144.186 192.967 143.991 193.25 143.863 193.602C143.738 193.952 143.676 194.335 143.676 194.753C143.676 195.173 143.738 195.558 143.863 195.908C143.991 196.257 144.186 196.537 144.447 196.747C144.711 196.957 145.044 197.062 145.444 197.062ZM154.059 195.286V191.455H155.338V198H154.085V196.866H154.017C153.866 197.216 153.625 197.507 153.292 197.74C152.963 197.97 152.552 198.085 152.061 198.085C151.64 198.085 151.268 197.993 150.944 197.808C150.623 197.621 150.371 197.344 150.186 196.977C150.004 196.611 149.913 196.158 149.913 195.618V191.455H151.187V195.464C151.187 195.911 151.311 196.266 151.558 196.53C151.805 196.794 152.126 196.926 152.521 196.926C152.76 196.926 152.997 196.866 153.233 196.747C153.471 196.628 153.669 196.447 153.825 196.206C153.984 195.964 154.062 195.658 154.059 195.286ZM157.05 198V191.455H158.281V192.494H158.35C158.469 192.142 158.679 191.865 158.98 191.663C159.284 191.459 159.628 191.357 160.012 191.357C160.091 191.357 160.185 191.359 160.293 191.365C160.404 191.371 160.49 191.378 160.553 191.386V192.605C160.502 192.591 160.411 192.575 160.28 192.558C160.149 192.538 160.019 192.528 159.888 192.528C159.587 192.528 159.318 192.592 159.083 192.72C158.85 192.845 158.665 193.02 158.529 193.244C158.392 193.466 158.324 193.719 158.324 194.003V198H157.05ZM167.281 198.128C166.753 198.128 166.281 197.993 165.867 197.723C165.455 197.45 165.131 197.062 164.895 196.56C164.662 196.054 164.546 195.447 164.546 194.74C164.546 194.033 164.664 193.428 164.899 192.925C165.138 192.422 165.465 192.037 165.879 191.77C166.294 191.503 166.764 191.369 167.29 191.369C167.696 191.369 168.023 191.438 168.27 191.574C168.52 191.707 168.713 191.864 168.85 192.043C168.989 192.222 169.097 192.379 169.173 192.516H169.25V189.273H170.524V198H169.28V196.982H169.173C169.097 197.121 168.986 197.28 168.841 197.459C168.699 197.638 168.503 197.794 168.253 197.928C168.003 198.061 167.679 198.128 167.281 198.128ZM167.563 197.041C167.929 197.041 168.239 196.945 168.492 196.751C168.747 196.555 168.941 196.284 169.071 195.938C169.205 195.591 169.271 195.187 169.271 194.727C169.271 194.273 169.206 193.875 169.075 193.534C168.945 193.193 168.753 192.928 168.5 192.737C168.247 192.547 167.935 192.452 167.563 192.452C167.179 192.452 166.86 192.551 166.604 192.75C166.348 192.949 166.155 193.22 166.024 193.564C165.896 193.908 165.833 194.295 165.833 194.727C165.833 195.165 165.898 195.558 166.029 195.908C166.159 196.257 166.352 196.534 166.608 196.739C166.867 196.94 167.185 197.041 167.563 197.041ZM172.343 198V191.455H173.574V192.494H173.643C173.762 192.142 173.972 191.865 174.273 191.663C174.577 191.459 174.921 191.357 175.305 191.357C175.384 191.357 175.478 191.359 175.586 191.365C175.697 191.371 175.783 191.378 175.846 191.386V192.605C175.795 192.591 175.704 192.575 175.573 192.558C175.442 192.538 175.312 192.528 175.181 192.528C174.88 192.528 174.611 192.592 174.376 192.72C174.143 192.845 173.958 193.02 173.822 193.244C173.685 193.466 173.617 193.719 173.617 194.003V198H172.343ZM179.535 198.132C178.89 198.132 178.335 197.994 177.869 197.719C177.406 197.44 177.048 197.05 176.795 196.547C176.545 196.041 176.42 195.449 176.42 194.77C176.42 194.099 176.545 193.509 176.795 192.997C177.048 192.486 177.4 192.087 177.852 191.8C178.306 191.513 178.838 191.369 179.445 191.369C179.815 191.369 180.173 191.43 180.519 191.553C180.866 191.675 181.177 191.866 181.453 192.128C181.728 192.389 181.945 192.729 182.105 193.146C182.264 193.561 182.343 194.065 182.343 194.659V195.111H177.14V194.156H181.095C181.095 193.821 181.026 193.524 180.89 193.266C180.754 193.004 180.562 192.798 180.315 192.648C180.07 192.497 179.784 192.422 179.454 192.422C179.096 192.422 178.784 192.51 178.517 192.686C178.252 192.859 178.048 193.087 177.903 193.368C177.761 193.646 177.69 193.949 177.69 194.276V195.021C177.69 195.459 177.767 195.831 177.92 196.138C178.076 196.445 178.294 196.679 178.572 196.841C178.85 197 179.176 197.08 179.548 197.08C179.789 197.08 180.009 197.045 180.208 196.977C180.407 196.906 180.579 196.801 180.724 196.662C180.869 196.523 180.98 196.351 181.056 196.146L182.262 196.364C182.166 196.719 181.992 197.03 181.742 197.297C181.495 197.561 181.184 197.767 180.809 197.915C180.437 198.06 180.012 198.132 179.535 198.132ZM185.662 198.145C185.247 198.145 184.872 198.068 184.537 197.915C184.202 197.759 183.936 197.533 183.74 197.237C183.547 196.942 183.45 196.58 183.45 196.151C183.45 195.781 183.521 195.477 183.663 195.239C183.805 195 183.997 194.811 184.238 194.672C184.48 194.533 184.75 194.428 185.048 194.357C185.346 194.286 185.65 194.232 185.96 194.195C186.352 194.149 186.67 194.112 186.915 194.084C187.159 194.053 187.336 194.003 187.447 193.935C187.558 193.866 187.613 193.756 187.613 193.602V193.572C187.613 193.2 187.508 192.912 187.298 192.707C187.091 192.503 186.781 192.401 186.369 192.401C185.94 192.401 185.602 192.496 185.355 192.686C185.111 192.874 184.942 193.082 184.848 193.312L183.65 193.04C183.792 192.642 184 192.321 184.273 192.077C184.548 191.83 184.865 191.651 185.223 191.54C185.581 191.426 185.957 191.369 186.352 191.369C186.613 191.369 186.89 191.401 187.183 191.463C187.479 191.523 187.754 191.634 188.01 191.795C188.268 191.957 188.48 192.189 188.645 192.49C188.809 192.788 188.892 193.176 188.892 193.653V198H187.648V197.105H187.596C187.514 197.27 187.39 197.432 187.226 197.591C187.061 197.75 186.849 197.882 186.591 197.987C186.332 198.092 186.023 198.145 185.662 198.145ZM185.939 197.122C186.291 197.122 186.592 197.053 186.842 196.913C187.095 196.774 187.287 196.592 187.417 196.368C187.551 196.141 187.618 195.898 187.618 195.639V194.795C187.572 194.841 187.484 194.884 187.354 194.923C187.226 194.96 187.079 194.993 186.915 195.021C186.75 195.047 186.589 195.071 186.433 195.094C186.277 195.114 186.146 195.131 186.041 195.145C185.794 195.176 185.568 195.229 185.363 195.303C185.162 195.376 185 195.483 184.878 195.622C184.758 195.759 184.699 195.94 184.699 196.168C184.699 196.483 184.815 196.722 185.048 196.884C185.281 197.043 185.578 197.122 185.939 197.122ZM190.589 198V191.455H191.812V192.52H191.893C192.029 192.159 192.252 191.878 192.562 191.676C192.872 191.472 193.242 191.369 193.674 191.369C194.112 191.369 194.478 191.472 194.774 191.676C195.072 191.881 195.292 192.162 195.434 192.52H195.502C195.659 192.17 195.907 191.892 196.248 191.685C196.589 191.474 196.995 191.369 197.467 191.369C198.061 191.369 198.545 191.555 198.92 191.928C199.298 192.3 199.487 192.861 199.487 193.611V198H198.213V193.73C198.213 193.287 198.092 192.966 197.85 192.767C197.609 192.568 197.32 192.469 196.985 192.469C196.57 192.469 196.248 192.597 196.018 192.852C195.788 193.105 195.673 193.43 195.673 193.828V198H194.403V193.649C194.403 193.294 194.292 193.009 194.07 192.793C193.849 192.577 193.561 192.469 193.205 192.469C192.964 192.469 192.741 192.533 192.536 192.661C192.335 192.786 192.171 192.96 192.046 193.185C191.924 193.409 191.863 193.669 191.863 193.964V198H190.589ZM204.37 198V191.455H205.602V192.494H205.67C205.789 192.142 205.999 191.865 206.301 191.663C206.605 191.459 206.948 191.357 207.332 191.357C207.411 191.357 207.505 191.359 207.613 191.365C207.724 191.371 207.811 191.378 207.873 191.386V192.605C207.822 192.591 207.731 192.575 207.6 192.558C207.47 192.538 207.339 192.528 207.208 192.528C206.907 192.528 206.639 192.592 206.403 192.72C206.17 192.845 205.985 193.02 205.849 193.244C205.713 193.466 205.644 193.719 205.644 194.003V198H204.37ZM211.562 198.132C210.917 198.132 210.362 197.994 209.896 197.719C209.433 197.44 209.075 197.05 208.822 196.547C208.572 196.041 208.447 195.449 208.447 194.77C208.447 194.099 208.572 193.509 208.822 192.997C209.075 192.486 209.427 192.087 209.879 191.8C210.334 191.513 210.865 191.369 211.473 191.369C211.842 191.369 212.2 191.43 212.547 191.553C212.893 191.675 213.204 191.866 213.48 192.128C213.756 192.389 213.973 192.729 214.132 193.146C214.291 193.561 214.371 194.065 214.371 194.659V195.111H209.167V194.156H213.122C213.122 193.821 213.054 193.524 212.917 193.266C212.781 193.004 212.589 192.798 212.342 192.648C212.098 192.497 211.811 192.422 211.481 192.422C211.123 192.422 210.811 192.51 210.544 192.686C210.28 192.859 210.075 193.087 209.93 193.368C209.788 193.646 209.717 193.949 209.717 194.276V195.021C209.717 195.459 209.794 195.831 209.947 196.138C210.104 196.445 210.321 196.679 210.599 196.841C210.878 197 211.203 197.08 211.575 197.08C211.817 197.08 212.037 197.045 212.236 196.977C212.434 196.906 212.606 196.801 212.751 196.662C212.896 196.523 213.007 196.351 213.084 196.146L214.29 196.364C214.193 196.719 214.02 197.03 213.77 197.297C213.523 197.561 213.211 197.767 212.836 197.915C212.464 198.06 212.04 198.132 211.562 198.132ZM215.784 198V191.455H217.007V192.52H217.088C217.225 192.159 217.448 191.878 217.757 191.676C218.067 191.472 218.438 191.369 218.869 191.369C219.307 191.369 219.673 191.472 219.969 191.676C220.267 191.881 220.487 192.162 220.629 192.52H220.698C220.854 192.17 221.102 191.892 221.443 191.685C221.784 191.474 222.191 191.369 222.662 191.369C223.256 191.369 223.74 191.555 224.115 191.928C224.493 192.3 224.682 192.861 224.682 193.611V198H223.408V193.73C223.408 193.287 223.287 192.966 223.046 192.767C222.804 192.568 222.516 192.469 222.181 192.469C221.766 192.469 221.443 192.597 221.213 192.852C220.983 193.105 220.868 193.43 220.868 193.828V198H219.598V193.649C219.598 193.294 219.487 193.009 219.266 192.793C219.044 192.577 218.756 192.469 218.401 192.469C218.159 192.469 217.936 192.533 217.732 192.661C217.53 192.786 217.367 192.96 217.242 193.185C217.119 193.409 217.058 193.669 217.058 193.964V198H215.784ZM229.147 198.132C228.533 198.132 227.998 197.991 227.54 197.71C227.083 197.429 226.728 197.036 226.475 196.53C226.222 196.024 226.096 195.433 226.096 194.757C226.096 194.078 226.222 193.484 226.475 192.976C226.728 192.467 227.083 192.072 227.54 191.791C227.998 191.51 228.533 191.369 229.147 191.369C229.76 191.369 230.296 191.51 230.753 191.791C231.211 192.072 231.566 192.467 231.819 192.976C232.072 193.484 232.198 194.078 232.198 194.757C232.198 195.433 232.072 196.024 231.819 196.53C231.566 197.036 231.211 197.429 230.753 197.71C230.296 197.991 229.76 198.132 229.147 198.132ZM229.151 197.062C229.549 197.062 229.878 196.957 230.14 196.747C230.401 196.537 230.594 196.257 230.719 195.908C230.847 195.558 230.911 195.173 230.911 194.753C230.911 194.335 230.847 193.952 230.719 193.602C230.594 193.25 230.401 192.967 230.14 192.754C229.878 192.541 229.549 192.435 229.151 192.435C228.751 192.435 228.418 192.541 228.154 192.754C227.893 192.967 227.698 193.25 227.57 193.602C227.445 193.952 227.383 194.335 227.383 194.753C227.383 195.173 227.445 195.558 227.57 195.908C227.698 196.257 227.893 196.537 228.154 196.747C228.418 196.957 228.751 197.062 229.151 197.062ZM236.676 191.455V192.477H233.1V191.455H236.676ZM234.059 189.886H235.333V196.078C235.333 196.325 235.37 196.511 235.444 196.636C235.518 196.759 235.613 196.842 235.73 196.888C235.849 196.93 235.978 196.952 236.117 196.952C236.22 196.952 236.309 196.945 236.386 196.93C236.463 196.916 236.522 196.905 236.565 196.896L236.795 197.949C236.721 197.977 236.616 198.006 236.48 198.034C236.343 198.065 236.173 198.082 235.968 198.085C235.633 198.091 235.32 198.031 235.031 197.906C234.741 197.781 234.507 197.588 234.328 197.327C234.149 197.065 234.059 196.737 234.059 196.342V189.886ZM240.836 198.132C240.191 198.132 239.635 197.994 239.17 197.719C238.706 197.44 238.349 197.05 238.096 196.547C237.846 196.041 237.721 195.449 237.721 194.77C237.721 194.099 237.846 193.509 238.096 192.997C238.349 192.486 238.701 192.087 239.153 191.8C239.607 191.513 240.138 191.369 240.746 191.369C241.116 191.369 241.474 191.43 241.82 191.553C242.167 191.675 242.478 191.866 242.753 192.128C243.029 192.389 243.246 192.729 243.405 193.146C243.564 193.561 243.644 194.065 243.644 194.659V195.111H238.441V194.156H242.395C242.395 193.821 242.327 193.524 242.191 193.266C242.055 193.004 241.863 192.798 241.616 192.648C241.371 192.497 241.084 192.422 240.755 192.422C240.397 192.422 240.084 192.51 239.817 192.686C239.553 192.859 239.349 193.087 239.204 193.368C239.062 193.646 238.991 193.949 238.991 194.276V195.021C238.991 195.459 239.067 195.831 239.221 196.138C239.377 196.445 239.594 196.679 239.873 196.841C240.151 197 240.476 197.08 240.849 197.08C241.09 197.08 241.31 197.045 241.509 196.977C241.708 196.906 241.88 196.801 242.025 196.662C242.17 196.523 242.28 196.351 242.357 196.146L243.563 196.364C243.466 196.719 243.293 197.03 243.043 197.297C242.796 197.561 242.485 197.767 242.11 197.915C241.738 198.06 241.313 198.132 240.836 198.132ZM250.684 198.128C250.155 198.128 249.684 197.993 249.269 197.723C248.857 197.45 248.533 197.062 248.297 196.56C248.064 196.054 247.948 195.447 247.948 194.74C247.948 194.033 248.066 193.428 248.302 192.925C248.54 192.422 248.867 192.037 249.282 191.77C249.697 191.503 250.167 191.369 250.692 191.369C251.099 191.369 251.425 191.438 251.672 191.574C251.922 191.707 252.116 191.864 252.252 192.043C252.391 192.222 252.499 192.379 252.576 192.516H252.653V189.273H253.927V198H252.682V196.982H252.576C252.499 197.121 252.388 197.28 252.243 197.459C252.101 197.638 251.905 197.794 251.655 197.928C251.405 198.061 251.081 198.128 250.684 198.128ZM250.965 197.041C251.331 197.041 251.641 196.945 251.894 196.751C252.15 196.555 252.343 196.284 252.474 195.938C252.607 195.591 252.674 195.187 252.674 194.727C252.674 194.273 252.608 193.875 252.478 193.534C252.347 193.193 252.155 192.928 251.903 192.737C251.65 192.547 251.337 192.452 250.965 192.452C250.581 192.452 250.262 192.551 250.006 192.75C249.751 192.949 249.557 193.22 249.427 193.564C249.299 193.908 249.235 194.295 249.235 194.727C249.235 195.165 249.3 195.558 249.431 195.908C249.562 196.257 249.755 196.534 250.01 196.739C250.269 196.94 250.587 197.041 250.965 197.041ZM258.566 198.132C257.921 198.132 257.366 197.994 256.9 197.719C256.437 197.44 256.079 197.05 255.826 196.547C255.576 196.041 255.451 195.449 255.451 194.77C255.451 194.099 255.576 193.509 255.826 192.997C256.079 192.486 256.431 192.087 256.883 191.8C257.338 191.513 257.869 191.369 258.477 191.369C258.846 191.369 259.204 191.43 259.551 191.553C259.897 191.675 260.208 191.866 260.484 192.128C260.759 192.389 260.977 192.729 261.136 193.146C261.295 193.561 261.374 194.065 261.374 194.659V195.111H256.171V194.156H260.126C260.126 193.821 260.058 193.524 259.921 193.266C259.785 193.004 259.593 192.798 259.346 192.648C259.102 192.497 258.815 192.422 258.485 192.422C258.127 192.422 257.815 192.51 257.548 192.686C257.284 192.859 257.079 193.087 256.934 193.368C256.792 193.646 256.721 193.949 256.721 194.276V195.021C256.721 195.459 256.798 195.831 256.951 196.138C257.107 196.445 257.325 196.679 257.603 196.841C257.882 197 258.207 197.08 258.579 197.08C258.82 197.08 259.041 197.045 259.24 196.977C259.438 196.906 259.61 196.801 259.755 196.662C259.9 196.523 260.011 196.351 260.088 196.146L261.294 196.364C261.197 196.719 261.024 197.03 260.774 197.297C260.526 197.561 260.215 197.767 259.84 197.915C259.468 198.06 259.044 198.132 258.566 198.132ZM268.2 191.455L265.827 198H264.463L262.085 191.455H263.453L265.111 196.491H265.179L266.832 191.455H268.2ZM271.996 198.132C271.351 198.132 270.796 197.994 270.33 197.719C269.867 197.44 269.509 197.05 269.256 196.547C269.006 196.041 268.881 195.449 268.881 194.77C268.881 194.099 269.006 193.509 269.256 192.997C269.509 192.486 269.861 192.087 270.313 191.8C270.767 191.513 271.298 191.369 271.906 191.369C272.276 191.369 272.634 191.43 272.98 191.553C273.327 191.675 273.638 191.866 273.914 192.128C274.189 192.389 274.406 192.729 274.566 193.146C274.725 193.561 274.804 194.065 274.804 194.659V195.111H269.601V194.156H273.556C273.556 193.821 273.487 193.524 273.351 193.266C273.215 193.004 273.023 192.798 272.776 192.648C272.531 192.497 272.244 192.422 271.915 192.422C271.557 192.422 271.244 192.51 270.977 192.686C270.713 192.859 270.509 193.087 270.364 193.368C270.222 193.646 270.151 193.949 270.151 194.276V195.021C270.151 195.459 270.227 195.831 270.381 196.138C270.537 196.445 270.754 196.679 271.033 196.841C271.311 197 271.637 197.08 272.009 197.08C272.25 197.08 272.47 197.045 272.669 196.977C272.868 196.906 273.04 196.801 273.185 196.662C273.33 196.523 273.441 196.351 273.517 196.146L274.723 196.364C274.627 196.719 274.453 197.03 274.203 197.297C273.956 197.561 273.645 197.767 273.27 197.915C272.898 198.06 272.473 198.132 271.996 198.132ZM277.492 189.273V198H276.218V189.273H277.492ZM281.963 198.132C281.35 198.132 280.814 197.991 280.357 197.71C279.899 197.429 279.544 197.036 279.291 196.53C279.039 196.024 278.912 195.433 278.912 194.757C278.912 194.078 279.039 193.484 279.291 192.976C279.544 192.467 279.899 192.072 280.357 191.791C280.814 191.51 281.35 191.369 281.963 191.369C282.577 191.369 283.112 191.51 283.57 191.791C284.027 192.072 284.382 192.467 284.635 192.976C284.888 193.484 285.014 194.078 285.014 194.757C285.014 195.433 284.888 196.024 284.635 196.53C284.382 197.036 284.027 197.429 283.57 197.71C283.112 197.991 282.577 198.132 281.963 198.132ZM281.968 197.062C282.365 197.062 282.695 196.957 282.956 196.747C283.218 196.537 283.411 196.257 283.536 195.908C283.664 195.558 283.727 195.173 283.727 194.753C283.727 194.335 283.664 193.952 283.536 193.602C283.411 193.25 283.218 192.967 282.956 192.754C282.695 192.541 282.365 192.435 281.968 192.435C281.567 192.435 281.235 192.541 280.97 192.754C280.709 192.967 280.514 193.25 280.387 193.602C280.262 193.952 280.199 194.335 280.199 194.753C280.199 195.173 280.262 195.558 280.387 195.908C280.514 196.257 280.709 196.537 280.97 196.747C281.235 196.957 281.567 197.062 281.968 197.062ZM286.437 200.455V191.455H287.681V192.516H287.787C287.861 192.379 287.968 192.222 288.107 192.043C288.246 191.864 288.439 191.707 288.687 191.574C288.934 191.438 289.26 191.369 289.667 191.369C290.195 191.369 290.667 191.503 291.081 191.77C291.496 192.037 291.822 192.422 292.057 192.925C292.296 193.428 292.415 194.033 292.415 194.74C292.415 195.447 292.297 196.054 292.062 196.56C291.826 197.062 291.502 197.45 291.09 197.723C290.678 197.993 290.208 198.128 289.68 198.128C289.282 198.128 288.956 198.061 288.704 197.928C288.454 197.794 288.258 197.638 288.116 197.459C287.974 197.28 287.864 197.121 287.787 196.982H287.711V200.455H286.437ZM287.685 194.727C287.685 195.187 287.752 195.591 287.885 195.938C288.019 196.284 288.212 196.555 288.465 196.751C288.718 196.945 289.028 197.041 289.394 197.041C289.775 197.041 290.093 196.94 290.349 196.739C290.604 196.534 290.797 196.257 290.928 195.908C291.062 195.558 291.128 195.165 291.128 194.727C291.128 194.295 291.063 193.908 290.932 193.564C290.805 193.22 290.611 192.949 290.353 192.75C290.097 192.551 289.778 192.452 289.394 192.452C289.025 192.452 288.712 192.547 288.456 192.737C288.204 192.928 288.012 193.193 287.881 193.534C287.751 193.875 287.685 194.273 287.685 194.727ZM296.664 198.132C296.019 198.132 295.464 197.994 294.998 197.719C294.535 197.44 294.177 197.05 293.924 196.547C293.674 196.041 293.549 195.449 293.549 194.77C293.549 194.099 293.674 193.509 293.924 192.997C294.177 192.486 294.529 192.087 294.981 191.8C295.435 191.513 295.966 191.369 296.574 191.369C296.944 191.369 297.302 191.43 297.648 191.553C297.995 191.675 298.306 191.866 298.581 192.128C298.857 192.389 299.074 192.729 299.233 193.146C299.393 193.561 299.472 194.065 299.472 194.659V195.111H294.269V194.156H298.224C298.224 193.821 298.155 193.524 298.019 193.266C297.883 193.004 297.691 192.798 297.444 192.648C297.199 192.497 296.912 192.422 296.583 192.422C296.225 192.422 295.912 192.51 295.645 192.686C295.381 192.859 295.177 193.087 295.032 193.368C294.89 193.646 294.819 193.949 294.819 194.276V195.021C294.819 195.459 294.895 195.831 295.049 196.138C295.205 196.445 295.422 196.679 295.701 196.841C295.979 197 296.305 197.08 296.677 197.08C296.918 197.08 297.138 197.045 297.337 196.977C297.536 196.906 297.708 196.801 297.853 196.662C297.998 196.523 298.108 196.351 298.185 196.146L299.391 196.364C299.295 196.719 299.121 197.03 298.871 197.297C298.624 197.561 298.313 197.767 297.938 197.915C297.566 198.06 297.141 198.132 296.664 198.132ZM300.886 198V191.455H302.117V192.494H302.186C302.305 192.142 302.515 191.865 302.816 191.663C303.12 191.459 303.464 191.357 303.847 191.357C303.927 191.357 304.021 191.359 304.129 191.365C304.24 191.371 304.326 191.378 304.389 191.386V192.605C304.338 192.591 304.247 192.575 304.116 192.558C303.985 192.538 303.855 192.528 303.724 192.528C303.423 192.528 303.154 192.592 302.919 192.72C302.686 192.845 302.501 193.02 302.365 193.244C302.228 193.466 302.16 193.719 302.16 194.003V198H300.886ZM308.667 191.455H309.941V198.426C309.941 198.864 309.862 199.233 309.703 199.534C309.546 199.835 309.313 200.064 309.004 200.22C308.697 200.376 308.318 200.455 307.866 200.455C307.82 200.455 307.778 200.455 307.738 200.455C307.695 200.455 307.651 200.453 307.606 200.45V199.355C307.646 199.355 307.681 199.355 307.713 199.355C307.741 199.355 307.774 199.355 307.811 199.355C308.112 199.355 308.329 199.274 308.463 199.112C308.599 198.953 308.667 198.722 308.667 198.418V191.455ZM309.298 190.445C309.076 190.445 308.886 190.371 308.727 190.223C308.57 190.072 308.492 189.893 308.492 189.686C308.492 189.476 308.57 189.297 308.727 189.149C308.886 188.999 309.076 188.923 309.298 188.923C309.519 188.923 309.708 188.999 309.865 189.149C310.024 189.297 310.103 189.476 310.103 189.686C310.103 189.893 310.024 190.072 309.865 190.223C309.708 190.371 309.519 190.445 309.298 190.445ZM314.412 198.132C313.799 198.132 313.263 197.991 312.806 197.71C312.349 197.429 311.993 197.036 311.741 196.53C311.488 196.024 311.361 195.433 311.361 194.757C311.361 194.078 311.488 193.484 311.741 192.976C311.993 192.467 312.349 192.072 312.806 191.791C313.263 191.51 313.799 191.369 314.412 191.369C315.026 191.369 315.562 191.51 316.019 191.791C316.476 192.072 316.831 192.467 317.084 192.976C317.337 193.484 317.464 194.078 317.464 194.757C317.464 195.433 317.337 196.024 317.084 196.53C316.831 197.036 316.476 197.429 316.019 197.71C315.562 197.991 315.026 198.132 314.412 198.132ZM314.417 197.062C314.814 197.062 315.144 196.957 315.405 196.747C315.667 196.537 315.86 196.257 315.985 195.908C316.113 195.558 316.177 195.173 316.177 194.753C316.177 194.335 316.113 193.952 315.985 193.602C315.86 193.25 315.667 192.967 315.405 192.754C315.144 192.541 314.814 192.435 314.417 192.435C314.016 192.435 313.684 192.541 313.42 192.754C313.158 192.967 312.964 193.25 312.836 193.602C312.711 193.952 312.648 194.335 312.648 194.753C312.648 195.173 312.711 195.558 312.836 195.908C312.964 196.257 313.158 196.537 313.42 196.747C313.684 196.957 314.016 197.062 314.417 197.062ZM323.032 195.286V191.455H324.311V198H323.058V196.866H322.99C322.839 197.216 322.597 197.507 322.265 197.74C321.936 197.97 321.525 198.085 321.034 198.085C320.613 198.085 320.241 197.993 319.917 197.808C319.596 197.621 319.343 197.344 319.159 196.977C318.977 196.611 318.886 196.158 318.886 195.618V191.455H320.16V195.464C320.16 195.911 320.284 196.266 320.531 196.53C320.778 196.794 321.099 196.926 321.494 196.926C321.732 196.926 321.97 196.866 322.205 196.747C322.444 196.628 322.642 196.447 322.798 196.206C322.957 195.964 323.035 195.658 323.032 195.286ZM326.023 198V191.455H327.254V192.494H327.322C327.442 192.142 327.652 191.865 327.953 191.663C328.257 191.459 328.601 191.357 328.984 191.357C329.064 191.357 329.157 191.359 329.265 191.365C329.376 191.371 329.463 191.378 329.525 191.386V192.605C329.474 192.591 329.383 192.575 329.253 192.558C329.122 192.538 328.991 192.528 328.861 192.528C328.559 192.528 328.291 192.592 328.055 192.72C327.822 192.845 327.638 193.02 327.501 193.244C327.365 193.466 327.297 193.719 327.297 194.003V198H326.023ZM331.902 194.114V198H330.628V191.455H331.851V192.52H331.932C332.083 192.173 332.318 191.895 332.639 191.685C332.963 191.474 333.371 191.369 333.862 191.369C334.308 191.369 334.699 191.463 335.034 191.651C335.369 191.835 335.629 192.111 335.814 192.477C335.999 192.844 336.091 193.297 336.091 193.837V198H334.817V193.99C334.817 193.516 334.693 193.145 334.446 192.878C334.199 192.608 333.86 192.473 333.428 192.473C333.132 192.473 332.869 192.537 332.639 192.665C332.412 192.793 332.232 192.98 332.098 193.227C331.968 193.472 331.902 193.767 331.902 194.114ZM340.621 198.132C339.976 198.132 339.421 197.994 338.955 197.719C338.492 197.44 338.134 197.05 337.881 196.547C337.631 196.041 337.506 195.449 337.506 194.77C337.506 194.099 337.631 193.509 337.881 192.997C338.134 192.486 338.486 192.087 338.938 191.8C339.392 191.513 339.923 191.369 340.531 191.369C340.901 191.369 341.259 191.43 341.605 191.553C341.952 191.675 342.263 191.866 342.539 192.128C342.814 192.389 343.031 192.729 343.191 193.146C343.35 193.561 343.429 194.065 343.429 194.659V195.111H338.226V194.156H342.181C342.181 193.821 342.112 193.524 341.976 193.266C341.84 193.004 341.648 192.798 341.401 192.648C341.156 192.497 340.869 192.422 340.54 192.422C340.182 192.422 339.869 192.51 339.602 192.686C339.338 192.859 339.134 193.087 338.989 193.368C338.847 193.646 338.776 193.949 338.776 194.276V195.021C338.776 195.459 338.852 195.831 339.006 196.138C339.162 196.445 339.379 196.679 339.658 196.841C339.936 197 340.262 197.08 340.634 197.08C340.875 197.08 341.095 197.045 341.294 196.977C341.493 196.906 341.665 196.801 341.81 196.662C341.955 196.523 342.066 196.351 342.142 196.146L343.348 196.364C343.252 196.719 343.078 197.03 342.828 197.297C342.581 197.561 342.27 197.767 341.895 197.915C341.523 198.06 341.098 198.132 340.621 198.132ZM345.461 200.455C345.27 200.455 345.097 200.439 344.941 200.408C344.785 200.379 344.668 200.348 344.591 200.314L344.898 199.27C345.131 199.332 345.339 199.359 345.52 199.351C345.702 199.342 345.863 199.274 346.002 199.146C346.144 199.018 346.269 198.81 346.377 198.52L346.535 198.085L344.14 191.455H345.503L347.161 196.534H347.229L348.887 191.455H350.255L347.557 198.874C347.432 199.214 347.273 199.503 347.08 199.739C346.887 199.977 346.657 200.156 346.39 200.276C346.123 200.395 345.813 200.455 345.461 200.455ZM356.047 198L354.121 191.455H355.438L356.72 196.261H356.784L358.071 191.455H359.388L360.666 196.24H360.73L362.004 191.455H363.321L361.399 198H360.1L358.77 193.274H358.672L357.343 198H356.047ZM364.53 198V191.455H365.805V198H364.53ZM365.174 190.445C364.952 190.445 364.762 190.371 364.603 190.223C364.447 190.072 364.368 189.893 364.368 189.686C364.368 189.476 364.447 189.297 364.603 189.149C364.762 188.999 364.952 188.923 365.174 188.923C365.395 188.923 365.584 188.999 365.741 189.149C365.9 189.297 365.979 189.476 365.979 189.686C365.979 189.893 365.9 190.072 365.741 190.223C365.584 190.371 365.395 190.445 365.174 190.445ZM370.574 191.455V192.477H366.999V191.455H370.574ZM367.958 189.886H369.232V196.078C369.232 196.325 369.269 196.511 369.343 196.636C369.416 196.759 369.512 196.842 369.628 196.888C369.747 196.93 369.877 196.952 370.016 196.952C370.118 196.952 370.208 196.945 370.284 196.93C370.361 196.916 370.421 196.905 370.463 196.896L370.693 197.949C370.619 197.977 370.514 198.006 370.378 198.034C370.242 198.065 370.071 198.082 369.867 198.085C369.531 198.091 369.219 198.031 368.929 197.906C368.639 197.781 368.405 197.588 368.226 197.327C368.047 197.065 367.958 196.737 367.958 196.342V189.886ZM373.398 194.114V198H372.124V189.273H373.381V192.52H373.462C373.616 192.168 373.85 191.888 374.165 191.68C374.481 191.473 374.893 191.369 375.401 191.369C375.85 191.369 376.242 191.462 376.577 191.646C376.915 191.831 377.177 192.107 377.361 192.473C377.549 192.837 377.643 193.291 377.643 193.837V198H376.368V193.99C376.368 193.51 376.245 193.138 375.998 192.874C375.751 192.607 375.407 192.473 374.966 192.473C374.665 192.473 374.395 192.537 374.157 192.665C373.921 192.793 373.735 192.98 373.599 193.227C373.465 193.472 373.398 193.767 373.398 194.114ZM386.665 195.286V191.455H387.943V198H386.691V196.866H386.622C386.472 197.216 386.23 197.507 385.898 197.74C385.568 197.97 385.158 198.085 384.666 198.085C384.246 198.085 383.874 197.993 383.55 197.808C383.229 197.621 382.976 197.344 382.791 196.977C382.61 196.611 382.519 196.158 382.519 195.618V191.455H383.793V195.464C383.793 195.911 383.916 196.266 384.164 196.53C384.411 196.794 384.732 196.926 385.127 196.926C385.365 196.926 385.602 196.866 385.838 196.747C386.077 196.628 386.274 196.447 386.431 196.206C386.59 195.964 386.668 195.658 386.665 195.286ZM394.56 193.053L393.405 193.257C393.357 193.109 393.28 192.969 393.175 192.835C393.073 192.702 392.934 192.592 392.758 192.507C392.581 192.422 392.361 192.379 392.097 192.379C391.736 192.379 391.435 192.46 391.194 192.622C390.952 192.781 390.831 192.987 390.831 193.24C390.831 193.459 390.912 193.635 391.074 193.768C391.236 193.902 391.498 194.011 391.858 194.097L392.898 194.335C393.501 194.474 393.949 194.689 394.245 194.979C394.54 195.268 394.688 195.645 394.688 196.108C394.688 196.5 394.574 196.849 394.347 197.156C394.123 197.46 393.809 197.699 393.405 197.872C393.005 198.045 392.54 198.132 392.012 198.132C391.279 198.132 390.681 197.976 390.218 197.663C389.755 197.348 389.471 196.901 389.366 196.321L390.597 196.134C390.674 196.455 390.831 196.697 391.07 196.862C391.309 197.024 391.62 197.105 392.003 197.105C392.421 197.105 392.755 197.018 393.005 196.845C393.255 196.669 393.38 196.455 393.38 196.202C393.38 195.997 393.303 195.825 393.15 195.686C392.999 195.547 392.768 195.442 392.455 195.371L391.347 195.128C390.736 194.989 390.285 194.767 389.992 194.463C389.702 194.159 389.557 193.774 389.557 193.308C389.557 192.922 389.665 192.584 389.881 192.294C390.097 192.004 390.395 191.778 390.776 191.616C391.157 191.452 391.593 191.369 392.084 191.369C392.792 191.369 393.349 191.523 393.755 191.83C394.161 192.134 394.43 192.541 394.56 193.053ZM396.928 198.081C396.695 198.081 396.495 197.999 396.328 197.834C396.16 197.666 396.076 197.464 396.076 197.229C396.076 196.996 396.16 196.797 396.328 196.632C396.495 196.464 396.695 196.381 396.928 196.381C397.161 196.381 397.362 196.464 397.529 196.632C397.697 196.797 397.781 196.996 397.781 197.229C397.781 197.385 397.741 197.528 397.661 197.659C397.585 197.787 397.482 197.889 397.355 197.966C397.227 198.043 397.085 198.081 396.928 198.081Z" fill="#667085"/>
<rect x="103.6" y="230.199" width="312.8" height="26.35" rx="5.1" fill="#E4E8F1"/>
<rect x="103.6" y="270.148" width="312.8" height="26.35" rx="5.1" fill="#E4E8F1"/>
<rect x="103.6" y="323.699" width="312.8" height="37.4" rx="5.1" fill="#715EF9"/>
<path d="M220.018 336.771H221.692V344.66C221.692 345.374 221.551 345.984 221.268 346.491C220.989 346.998 220.596 347.386 220.089 347.654C219.582 347.918 218.988 348.051 218.307 348.051C217.68 348.051 217.117 347.936 216.617 347.708C216.121 347.48 215.728 347.149 215.438 346.714C215.152 346.276 215.009 345.743 215.009 345.117H216.677C216.677 345.425 216.748 345.691 216.889 345.915C217.034 346.14 217.231 346.316 217.481 346.442C217.735 346.565 218.024 346.627 218.35 346.627C218.705 346.627 219.006 346.553 219.252 346.404C219.502 346.252 219.692 346.029 219.823 345.736C219.953 345.443 220.018 345.084 220.018 344.66V336.771ZM227.75 348.067C226.968 348.067 226.285 347.888 225.702 347.529C225.118 347.17 224.666 346.669 224.343 346.024C224.021 345.379 223.86 344.626 223.86 343.764C223.86 342.898 224.021 342.141 224.343 341.493C224.666 340.844 225.118 340.341 225.702 339.982C226.285 339.624 226.968 339.444 227.75 339.444C228.532 339.444 229.215 339.624 229.798 339.982C230.381 340.341 230.834 340.844 231.157 341.493C231.479 342.141 231.64 342.898 231.64 343.764C231.64 344.626 231.479 345.379 231.157 346.024C230.834 346.669 230.381 347.17 229.798 347.529C229.215 347.888 228.532 348.067 227.75 348.067ZM227.755 346.703C228.262 346.703 228.683 346.569 229.016 346.301C229.349 346.033 229.595 345.676 229.755 345.231C229.918 344.785 229.999 344.294 229.999 343.758C229.999 343.226 229.918 342.737 229.755 342.291C229.595 341.842 229.349 341.482 229.016 341.21C228.683 340.938 228.262 340.803 227.755 340.803C227.245 340.803 226.821 340.938 226.484 341.21C226.151 341.482 225.903 341.842 225.74 342.291C225.58 342.737 225.501 343.226 225.501 343.758C225.501 344.294 225.58 344.785 225.74 345.231C225.903 345.676 226.151 346.033 226.484 346.301C226.821 346.569 227.245 346.703 227.755 346.703ZM233.683 347.898V339.553H235.308V347.898H233.683ZM234.503 338.265C234.221 338.265 233.978 338.171 233.775 337.983C233.576 337.791 233.477 337.563 233.477 337.298C233.477 337.03 233.576 336.802 233.775 336.614C233.978 336.422 234.221 336.326 234.503 336.326C234.786 336.326 235.027 336.422 235.226 336.614C235.429 336.802 235.53 337.03 235.53 337.298C235.53 337.563 235.429 337.791 235.226 337.983C235.027 338.171 234.786 338.265 234.503 338.265ZM239.347 342.943V347.898H237.723V339.553H239.282V340.911H239.385C239.577 340.469 239.878 340.114 240.287 339.846C240.7 339.578 241.22 339.444 241.846 339.444C242.415 339.444 242.913 339.564 243.34 339.803C243.768 340.038 244.099 340.39 244.335 340.857C244.57 341.324 244.688 341.902 244.688 342.59V347.898H243.063V342.786C243.063 342.181 242.906 341.708 242.591 341.368C242.276 341.024 241.843 340.852 241.292 340.852C240.915 340.852 240.58 340.933 240.287 341.096C239.997 341.259 239.767 341.498 239.597 341.813C239.43 342.125 239.347 342.501 239.347 342.943ZM255.346 339.553V340.857H250.63V339.553H255.346ZM251.924 347.898V338.586C251.924 338.064 252.038 337.631 252.266 337.287C252.494 336.94 252.796 336.681 253.173 336.51C253.55 336.337 253.959 336.25 254.401 336.25C254.727 336.25 255.006 336.277 255.238 336.331C255.47 336.382 255.642 336.429 255.754 336.472L255.374 337.787C255.298 337.765 255.2 337.74 255.08 337.711C254.961 337.679 254.816 337.662 254.646 337.662C254.251 337.662 253.968 337.76 253.798 337.956C253.631 338.151 253.548 338.434 253.548 338.803V347.898H251.924ZM260.439 348.067C259.656 348.067 258.974 347.888 258.39 347.529C257.807 347.17 257.354 346.669 257.032 346.024C256.71 345.379 256.549 344.626 256.549 343.764C256.549 342.898 256.71 342.141 257.032 341.493C257.354 340.844 257.807 340.341 258.39 339.982C258.974 339.624 259.656 339.444 260.439 339.444C261.221 339.444 261.904 339.624 262.487 339.982C263.07 340.341 263.523 340.844 263.845 341.493C264.168 342.141 264.329 342.898 264.329 343.764C264.329 344.626 264.168 345.379 263.845 346.024C263.523 346.669 263.07 347.17 262.487 347.529C261.904 347.888 261.221 348.067 260.439 348.067ZM260.444 346.703C260.951 346.703 261.371 346.569 261.705 346.301C262.038 346.033 262.284 345.676 262.444 345.231C262.607 344.785 262.688 344.294 262.688 343.758C262.688 343.226 262.607 342.737 262.444 342.291C262.284 341.842 262.038 341.482 261.705 341.21C261.371 340.938 260.951 340.803 260.444 340.803C259.933 340.803 259.51 340.938 259.173 341.21C258.84 341.482 258.591 341.842 258.428 342.291C258.269 342.737 258.189 343.226 258.189 343.758C258.189 344.294 258.269 344.785 258.428 345.231C258.591 345.676 258.84 346.033 259.173 346.301C259.51 346.569 259.933 346.703 260.444 346.703ZM266.372 347.898V339.553H267.942V340.879H268.029C268.181 340.43 268.449 340.076 268.833 339.819C269.221 339.558 269.659 339.428 270.148 339.428C270.249 339.428 270.369 339.432 270.506 339.439C270.648 339.446 270.758 339.455 270.838 339.466V341.02C270.773 341.002 270.657 340.982 270.49 340.96C270.324 340.935 270.157 340.922 269.99 340.922C269.606 340.922 269.264 341.004 268.963 341.167C268.666 341.326 268.431 341.549 268.257 341.835C268.083 342.117 267.996 342.44 267.996 342.802V347.898H266.372ZM280.724 339.553V340.857H276.008V339.553H280.724ZM277.301 347.898V338.586C277.301 338.064 277.415 337.631 277.643 337.287C277.871 336.94 278.174 336.681 278.55 336.51C278.927 336.337 279.336 336.25 279.778 336.25C280.104 336.25 280.383 336.277 280.615 336.331C280.847 336.382 281.019 336.429 281.131 336.472L280.751 337.787C280.675 337.765 280.577 337.74 280.457 337.711C280.338 337.679 280.193 337.662 280.023 337.662C279.628 337.662 279.345 337.76 279.175 337.956C279.008 338.151 278.925 338.434 278.925 338.803V347.898H277.301ZM282.629 347.898V339.553H284.199V340.879H284.286C284.438 340.43 284.707 340.076 285.09 339.819C285.478 339.558 285.916 339.428 286.405 339.428C286.507 339.428 286.626 339.432 286.764 339.439C286.905 339.446 287.016 339.455 287.095 339.466V341.02C287.03 341.002 286.914 340.982 286.748 340.96C286.581 340.935 286.414 340.922 286.248 340.922C285.864 340.922 285.522 341.004 285.221 341.167C284.924 341.326 284.688 341.549 284.515 341.835C284.341 342.117 284.254 342.44 284.254 342.802V347.898H282.629ZM292.029 348.067C291.206 348.067 290.498 347.891 289.904 347.54C289.314 347.185 288.857 346.687 288.535 346.046C288.216 345.401 288.057 344.646 288.057 343.78C288.057 342.925 288.216 342.172 288.535 341.52C288.857 340.868 289.307 340.359 289.883 339.993C290.462 339.627 291.139 339.444 291.915 339.444C292.385 339.444 292.842 339.522 293.284 339.678C293.726 339.834 294.122 340.078 294.474 340.411C294.825 340.745 295.102 341.178 295.305 341.71C295.508 342.239 295.609 342.882 295.609 343.639V344.215H288.975V342.998H294.017C294.017 342.57 293.93 342.192 293.756 341.862C293.583 341.529 293.338 341.266 293.023 341.074C292.711 340.882 292.346 340.786 291.925 340.786C291.469 340.786 291.071 340.899 290.73 341.123C290.393 341.344 290.132 341.634 289.948 341.993C289.767 342.347 289.676 342.733 289.676 343.15V344.101C289.676 344.658 289.774 345.133 289.969 345.524C290.169 345.915 290.446 346.214 290.801 346.421C291.156 346.623 291.57 346.725 292.045 346.725C292.353 346.725 292.634 346.681 292.887 346.594C293.141 346.504 293.36 346.37 293.545 346.192C293.729 346.015 293.871 345.796 293.968 345.535L295.506 345.812C295.383 346.265 295.162 346.661 294.843 347.002C294.528 347.339 294.131 347.601 293.653 347.79C293.179 347.975 292.637 348.067 292.029 348.067ZM301.238 348.067C300.416 348.067 299.708 347.891 299.114 347.54C298.523 347.185 298.067 346.687 297.744 346.046C297.426 345.401 297.266 344.646 297.266 343.78C297.266 342.925 297.426 342.172 297.744 341.52C298.067 340.868 298.516 340.359 299.092 339.993C299.671 339.627 300.349 339.444 301.124 339.444C301.595 339.444 302.051 339.522 302.493 339.678C302.935 339.834 303.332 340.078 303.683 340.411C304.034 340.745 304.311 341.178 304.514 341.71C304.717 342.239 304.818 342.882 304.818 343.639V344.215H298.184V342.998H303.227C303.227 342.57 303.14 342.192 302.966 341.862C302.792 341.529 302.547 341.266 302.232 341.074C301.921 340.882 301.555 340.786 301.135 340.786C300.678 340.786 300.28 340.899 299.939 341.123C299.603 341.344 299.342 341.634 299.157 341.993C298.976 342.347 298.885 342.733 298.885 343.15V344.101C298.885 344.658 298.983 345.133 299.179 345.524C299.378 345.915 299.655 346.214 300.01 346.421C300.365 346.623 300.78 346.725 301.254 346.725C301.562 346.725 301.843 346.681 302.096 346.594C302.35 346.504 302.569 346.37 302.754 346.192C302.939 346.015 303.08 345.796 303.178 345.535L304.715 345.812C304.592 346.265 304.371 346.661 304.052 347.002C303.737 347.339 303.341 347.601 302.862 347.79C302.388 347.975 301.846 348.067 301.238 348.067Z" fill="white"/>
<g filter="url(#filter1_d_6785_44263)">
<rect x="310.953" y="234.25" width="169" height="38" rx="19" fill="white"/>
<rect x="316.953" y="241.35" width="23.8" height="23.8" rx="11.9" fill="#0FAC98"/>
<path fill-rule="evenodd" clip-rule="evenodd" d="M333.907 248.684L326.807 255.537L324.922 253.524C324.575 253.196 324.03 253.177 323.633 253.454C323.246 253.742 323.137 254.248 323.375 254.654L325.607 258.284C325.825 258.621 326.202 258.829 326.628 258.829C327.035 258.829 327.421 258.621 327.64 258.284C327.997 257.818 334.809 249.696 334.809 249.696C335.702 248.783 334.621 247.98 333.907 248.674V248.684Z" fill="white"/>
<path d="M352.583 243.705C352.532 243.273 352.325 242.938 351.961 242.699C351.598 242.46 351.152 242.341 350.623 242.341C350.237 242.341 349.899 242.403 349.609 242.528C349.322 242.653 349.098 242.825 348.936 243.044C348.777 243.263 348.697 243.511 348.697 243.79C348.697 244.023 348.752 244.223 348.863 244.391C348.977 244.555 349.122 244.693 349.298 244.804C349.474 244.912 349.659 245.001 349.852 245.072C350.045 245.141 350.223 245.196 350.385 245.239L351.271 245.477C351.498 245.537 351.751 245.619 352.029 245.724C352.311 245.83 352.579 245.973 352.835 246.155C353.093 246.334 353.306 246.564 353.474 246.845C353.642 247.126 353.725 247.472 353.725 247.881C353.725 248.352 353.602 248.778 353.355 249.159C353.11 249.54 352.752 249.842 352.281 250.067C351.812 250.291 351.243 250.403 350.572 250.403C349.947 250.403 349.406 250.303 348.949 250.101C348.494 249.899 348.136 249.618 347.875 249.257C347.616 248.896 347.47 248.477 347.436 248H348.527C348.555 248.33 348.666 248.602 348.859 248.818C349.055 249.031 349.302 249.19 349.6 249.295C349.902 249.398 350.225 249.449 350.572 249.449C350.975 249.449 351.338 249.384 351.659 249.253C351.98 249.119 352.234 248.935 352.422 248.699C352.609 248.46 352.703 248.182 352.703 247.864C352.703 247.574 352.622 247.338 352.46 247.156C352.298 246.974 352.085 246.827 351.821 246.713C351.556 246.599 351.271 246.5 350.964 246.415L349.89 246.108C349.208 245.912 348.669 245.632 348.271 245.268C347.873 244.905 347.674 244.429 347.674 243.841C347.674 243.352 347.806 242.926 348.071 242.562C348.338 242.196 348.696 241.912 349.145 241.71C349.596 241.506 350.1 241.403 350.657 241.403C351.22 241.403 351.72 241.504 352.157 241.706C352.595 241.905 352.941 242.178 353.197 242.524C353.456 242.871 353.592 243.264 353.606 243.705H352.583ZM359.452 247.574V243.705H360.457V250.25H359.452V249.142H359.384C359.23 249.474 358.991 249.757 358.668 249.99C358.344 250.22 357.935 250.335 357.44 250.335C357.031 250.335 356.668 250.246 356.349 250.067C356.031 249.885 355.781 249.612 355.599 249.249C355.418 248.882 355.327 248.42 355.327 247.864V243.705H356.332V247.795C356.332 248.273 356.466 248.653 356.733 248.938C357.003 249.222 357.347 249.364 357.764 249.364C358.014 249.364 358.268 249.3 358.527 249.172C358.788 249.044 359.007 248.848 359.183 248.584C359.362 248.32 359.452 247.983 359.452 247.574ZM364.958 250.386C364.345 250.386 363.816 250.241 363.373 249.952C362.93 249.662 362.589 249.263 362.35 248.754C362.112 248.246 361.993 247.665 361.993 247.011C361.993 246.347 362.115 245.76 362.359 245.251C362.606 244.74 362.95 244.341 363.39 244.054C363.833 243.764 364.35 243.619 364.941 243.619C365.402 243.619 365.816 243.705 366.186 243.875C366.555 244.045 366.858 244.284 367.093 244.591C367.329 244.898 367.475 245.256 367.532 245.665H366.527C366.45 245.366 366.279 245.102 366.015 244.872C365.754 244.639 365.402 244.523 364.958 244.523C364.566 244.523 364.223 244.625 363.927 244.83C363.635 245.031 363.406 245.317 363.241 245.686C363.079 246.053 362.998 246.483 362.998 246.977C362.998 247.483 363.078 247.923 363.237 248.298C363.399 248.673 363.626 248.964 363.919 249.172C364.214 249.379 364.561 249.483 364.958 249.483C365.22 249.483 365.457 249.438 365.67 249.347C365.883 249.256 366.064 249.125 366.211 248.955C366.359 248.784 366.464 248.58 366.527 248.341H367.532C367.475 248.727 367.335 249.075 367.11 249.385C366.889 249.692 366.595 249.936 366.228 250.118C365.865 250.297 365.441 250.386 364.958 250.386ZM371.662 250.386C371.048 250.386 370.52 250.241 370.076 249.952C369.633 249.662 369.292 249.263 369.054 248.754C368.815 248.246 368.696 247.665 368.696 247.011C368.696 246.347 368.818 245.76 369.062 245.251C369.309 244.74 369.653 244.341 370.093 244.054C370.537 243.764 371.054 243.619 371.645 243.619C372.105 243.619 372.52 243.705 372.889 243.875C373.258 244.045 373.561 244.284 373.797 244.591C374.032 244.898 374.179 245.256 374.235 245.665H373.23C373.153 245.366 372.983 245.102 372.718 244.872C372.457 244.639 372.105 244.523 371.662 244.523C371.27 244.523 370.926 244.625 370.63 244.83C370.338 245.031 370.109 245.317 369.944 245.686C369.782 246.053 369.701 246.483 369.701 246.977C369.701 247.483 369.781 247.923 369.94 248.298C370.102 248.673 370.329 248.964 370.622 249.172C370.917 249.379 371.264 249.483 371.662 249.483C371.923 249.483 372.16 249.438 372.373 249.347C372.586 249.256 372.767 249.125 372.914 248.955C373.062 248.784 373.167 248.58 373.23 248.341H374.235C374.179 248.727 374.038 249.075 373.814 249.385C373.592 249.692 373.298 249.936 372.931 250.118C372.568 250.297 372.145 250.386 371.662 250.386ZM378.45 250.386C377.819 250.386 377.275 250.247 376.818 249.969C376.363 249.688 376.012 249.295 375.765 248.793C375.521 248.287 375.399 247.699 375.399 247.028C375.399 246.358 375.521 245.767 375.765 245.256C376.012 244.741 376.356 244.341 376.797 244.054C377.24 243.764 377.757 243.619 378.348 243.619C378.689 243.619 379.025 243.676 379.358 243.79C379.69 243.903 379.993 244.088 380.265 244.344C380.538 244.597 380.755 244.932 380.917 245.349C381.079 245.767 381.16 246.281 381.16 246.892V247.318H376.115V246.449H380.137C380.137 246.08 380.064 245.75 379.916 245.46C379.771 245.17 379.564 244.942 379.294 244.774C379.027 244.607 378.711 244.523 378.348 244.523C377.947 244.523 377.6 244.622 377.308 244.821C377.018 245.017 376.795 245.273 376.639 245.588C376.483 245.903 376.404 246.241 376.404 246.602V247.182C376.404 247.676 376.49 248.095 376.66 248.439C376.833 248.78 377.074 249.04 377.38 249.219C377.687 249.395 378.044 249.483 378.45 249.483C378.714 249.483 378.953 249.446 379.166 249.372C379.382 249.295 379.568 249.182 379.724 249.031C379.88 248.878 380.001 248.687 380.086 248.46L381.058 248.733C380.956 249.062 380.784 249.352 380.542 249.602C380.301 249.849 380.002 250.043 379.647 250.182C379.292 250.318 378.893 250.386 378.45 250.386ZM387.326 245.17L386.423 245.426C386.366 245.276 386.282 245.129 386.172 244.987C386.064 244.842 385.916 244.723 385.728 244.629C385.541 244.536 385.301 244.489 385.008 244.489C384.608 244.489 384.274 244.581 384.007 244.766C383.743 244.947 383.61 245.179 383.61 245.46C383.61 245.71 383.701 245.908 383.883 246.053C384.065 246.197 384.349 246.318 384.735 246.415L385.707 246.653C386.292 246.795 386.728 247.013 387.015 247.305C387.302 247.595 387.446 247.969 387.446 248.426C387.446 248.801 387.338 249.136 387.122 249.432C386.909 249.727 386.61 249.96 386.227 250.131C385.843 250.301 385.397 250.386 384.889 250.386C384.221 250.386 383.669 250.241 383.231 249.952C382.794 249.662 382.517 249.239 382.4 248.682L383.355 248.443C383.446 248.795 383.618 249.06 383.87 249.236C384.126 249.412 384.46 249.5 384.872 249.5C385.341 249.5 385.713 249.401 385.988 249.202C386.267 249 386.406 248.759 386.406 248.477C386.406 248.25 386.326 248.06 386.167 247.906C386.008 247.75 385.764 247.634 385.434 247.557L384.343 247.301C383.744 247.159 383.304 246.939 383.022 246.641C382.744 246.339 382.605 245.963 382.605 245.511C382.605 245.142 382.708 244.815 382.916 244.531C383.126 244.247 383.412 244.024 383.772 243.862C384.136 243.7 384.548 243.619 385.008 243.619C385.656 243.619 386.164 243.761 386.534 244.045C386.906 244.33 387.17 244.705 387.326 245.17ZM393.596 245.17L392.692 245.426C392.636 245.276 392.552 245.129 392.441 244.987C392.333 244.842 392.185 244.723 391.998 244.629C391.81 244.536 391.57 244.489 391.278 244.489C390.877 244.489 390.543 244.581 390.276 244.766C390.012 244.947 389.88 245.179 389.88 245.46C389.88 245.71 389.971 245.908 390.153 246.053C390.335 246.197 390.619 246.318 391.005 246.415L391.977 246.653C392.562 246.795 392.998 247.013 393.285 247.305C393.572 247.595 393.715 247.969 393.715 248.426C393.715 248.801 393.607 249.136 393.391 249.432C393.178 249.727 392.88 249.96 392.496 250.131C392.113 250.301 391.667 250.386 391.158 250.386C390.491 250.386 389.938 250.241 389.501 249.952C389.063 249.662 388.786 249.239 388.67 248.682L389.624 248.443C389.715 248.795 389.887 249.06 390.14 249.236C390.396 249.412 390.729 249.5 391.141 249.5C391.61 249.5 391.982 249.401 392.258 249.202C392.536 249 392.675 248.759 392.675 248.477C392.675 248.25 392.596 248.06 392.437 247.906C392.278 247.75 392.033 247.634 391.704 247.557L390.613 247.301C390.013 247.159 389.573 246.939 389.292 246.641C389.013 246.339 388.874 245.963 388.874 245.511C388.874 245.142 388.978 244.815 389.185 244.531C389.396 244.247 389.681 244.024 390.042 243.862C390.406 243.7 390.817 243.619 391.278 243.619C391.925 243.619 392.434 243.761 392.803 244.045C393.175 244.33 393.44 244.705 393.596 245.17ZM398.144 243.705V244.557H394.615V243.705H398.144ZM395.672 250.25V242.801C395.672 242.426 395.76 242.114 395.936 241.864C396.113 241.614 396.341 241.426 396.623 241.301C396.904 241.176 397.201 241.114 397.513 241.114C397.76 241.114 397.962 241.134 398.118 241.173C398.275 241.213 398.391 241.25 398.468 241.284L398.178 242.153C398.127 242.136 398.056 242.115 397.965 242.089C397.877 242.064 397.76 242.051 397.615 242.051C397.283 242.051 397.043 242.135 396.895 242.303C396.75 242.47 396.678 242.716 396.678 243.04V250.25H395.672ZM403.678 247.574V243.705H404.684V250.25H403.678V249.142H403.61C403.457 249.474 403.218 249.757 402.894 249.99C402.57 250.22 402.161 250.335 401.667 250.335C401.258 250.335 400.894 250.246 400.576 250.067C400.258 249.885 400.008 249.612 399.826 249.249C399.644 248.882 399.553 248.42 399.553 247.864V243.705H400.559V247.795C400.559 248.273 400.692 248.653 400.96 248.938C401.229 249.222 401.573 249.364 401.991 249.364C402.241 249.364 402.495 249.3 402.754 249.172C403.015 249.044 403.234 248.848 403.41 248.584C403.589 248.32 403.678 247.983 403.678 247.574ZM407.532 241.523V250.25H406.526V241.523H407.532ZM410.379 241.523V250.25H409.374V241.523H410.379ZM412.869 252.705C412.699 252.705 412.547 252.69 412.413 252.662C412.279 252.636 412.187 252.611 412.136 252.585L412.392 251.699C412.636 251.761 412.852 251.784 413.039 251.767C413.227 251.75 413.393 251.666 413.538 251.516C413.686 251.368 413.821 251.128 413.943 250.795L414.13 250.284L411.71 243.705H412.801L414.608 248.92H414.676L416.483 243.705H417.574L414.795 251.205C414.67 251.543 414.515 251.822 414.331 252.044C414.146 252.268 413.931 252.435 413.687 252.543C413.446 252.651 413.173 252.705 412.869 252.705ZM424.935 250.386C424.321 250.386 423.793 250.241 423.35 249.952C422.907 249.662 422.566 249.263 422.327 248.754C422.088 248.246 421.969 247.665 421.969 247.011C421.969 246.347 422.091 245.76 422.336 245.251C422.583 244.74 422.926 244.341 423.367 244.054C423.81 243.764 424.327 243.619 424.918 243.619C425.378 243.619 425.793 243.705 426.162 243.875C426.532 244.045 426.834 244.284 427.07 244.591C427.306 244.898 427.452 245.256 427.509 245.665H426.503C426.426 245.366 426.256 245.102 425.992 244.872C425.73 244.639 425.378 244.523 424.935 244.523C424.543 244.523 424.199 244.625 423.904 244.83C423.611 245.031 423.382 245.317 423.218 245.686C423.056 246.053 422.975 246.483 422.975 246.977C422.975 247.483 423.054 247.923 423.213 248.298C423.375 248.673 423.603 248.964 423.895 249.172C424.191 249.379 424.537 249.483 424.935 249.483C425.196 249.483 425.434 249.438 425.647 249.347C425.86 249.256 426.04 249.125 426.188 248.955C426.336 248.784 426.441 248.58 426.503 248.341H427.509C427.452 248.727 427.311 249.075 427.087 249.385C426.865 249.692 426.571 249.936 426.205 250.118C425.841 250.297 425.418 250.386 424.935 250.386ZM428.979 250.25V243.705H429.951V244.693H430.019C430.138 244.369 430.354 244.107 430.667 243.905C430.979 243.703 431.331 243.602 431.723 243.602C431.797 243.602 431.89 243.604 432 243.607C432.111 243.609 432.195 243.614 432.252 243.619V244.642C432.218 244.634 432.14 244.621 432.017 244.604C431.898 244.584 431.772 244.574 431.638 244.574C431.32 244.574 431.036 244.641 430.786 244.774C430.539 244.905 430.343 245.087 430.198 245.32C430.056 245.55 429.985 245.812 429.985 246.108V250.25H428.979ZM435.989 250.386C435.358 250.386 434.814 250.247 434.357 249.969C433.902 249.688 433.551 249.295 433.304 248.793C433.06 248.287 432.938 247.699 432.938 247.028C432.938 246.358 433.06 245.767 433.304 245.256C433.551 244.741 433.895 244.341 434.336 244.054C434.779 243.764 435.296 243.619 435.887 243.619C436.228 243.619 436.564 243.676 436.897 243.79C437.229 243.903 437.532 244.088 437.804 244.344C438.077 244.597 438.294 244.932 438.456 245.349C438.618 245.767 438.699 246.281 438.699 246.892V247.318H433.654V246.449H437.676C437.676 246.08 437.603 245.75 437.455 245.46C437.31 245.17 437.103 244.942 436.833 244.774C436.566 244.607 436.25 244.523 435.887 244.523C435.486 244.523 435.14 244.622 434.847 244.821C434.557 245.017 434.334 245.273 434.178 245.588C434.022 245.903 433.944 246.241 433.944 246.602V247.182C433.944 247.676 434.029 248.095 434.199 248.439C434.373 248.78 434.613 249.04 434.919 249.219C435.226 249.395 435.583 249.483 435.989 249.483C436.253 249.483 436.492 249.446 436.705 249.372C436.921 249.295 437.107 249.182 437.263 249.031C437.419 248.878 437.54 248.687 437.625 248.46L438.597 248.733C438.495 249.062 438.323 249.352 438.081 249.602C437.84 249.849 437.542 250.043 437.186 250.182C436.831 250.318 436.432 250.386 435.989 250.386ZM442.155 250.403C441.74 250.403 441.364 250.325 441.026 250.169C440.688 250.01 440.419 249.781 440.221 249.483C440.022 249.182 439.922 248.818 439.922 248.392C439.922 248.017 439.996 247.713 440.144 247.48C440.292 247.244 440.489 247.06 440.736 246.926C440.983 246.793 441.256 246.693 441.554 246.628C441.855 246.56 442.158 246.506 442.462 246.466C442.86 246.415 443.182 246.376 443.429 246.351C443.679 246.322 443.861 246.276 443.975 246.21C444.091 246.145 444.15 246.031 444.15 245.869V245.835C444.15 245.415 444.034 245.088 443.804 244.855C443.577 244.622 443.232 244.506 442.769 244.506C442.289 244.506 441.912 244.611 441.64 244.821C441.367 245.031 441.175 245.256 441.064 245.494L440.11 245.153C440.28 244.756 440.507 244.446 440.792 244.224C441.078 244 441.391 243.844 441.729 243.756C442.07 243.665 442.405 243.619 442.735 243.619C442.945 243.619 443.186 243.645 443.459 243.696C443.735 243.744 444 243.845 444.256 243.999C444.515 244.152 444.729 244.384 444.9 244.693C445.07 245.003 445.155 245.418 445.155 245.938V250.25H444.15V249.364H444.098C444.03 249.506 443.917 249.658 443.757 249.82C443.598 249.982 443.387 250.119 443.123 250.233C442.858 250.347 442.536 250.403 442.155 250.403ZM442.309 249.5C442.706 249.5 443.042 249.422 443.314 249.266C443.59 249.109 443.797 248.908 443.936 248.661C444.078 248.413 444.15 248.153 444.15 247.881V246.96C444.107 247.011 444.013 247.058 443.868 247.101C443.726 247.141 443.561 247.176 443.374 247.207C443.189 247.236 443.009 247.261 442.833 247.284C442.659 247.304 442.519 247.321 442.411 247.335C442.15 247.369 441.905 247.425 441.678 247.501C441.453 247.575 441.272 247.687 441.132 247.838C440.996 247.986 440.928 248.187 440.928 248.443C440.928 248.793 441.057 249.057 441.316 249.236C441.577 249.412 441.908 249.5 442.309 249.5ZM449.837 243.705V244.557H446.445V243.705H449.837ZM447.434 242.136H448.44V248.375C448.44 248.659 448.481 248.872 448.563 249.014C448.648 249.153 448.756 249.247 448.887 249.295C449.021 249.341 449.161 249.364 449.309 249.364C449.42 249.364 449.511 249.358 449.582 249.347C449.653 249.332 449.71 249.321 449.752 249.312L449.957 250.216C449.888 250.241 449.793 250.267 449.671 250.293C449.549 250.321 449.394 250.335 449.207 250.335C448.923 250.335 448.644 250.274 448.371 250.152C448.102 250.03 447.877 249.844 447.698 249.594C447.522 249.344 447.434 249.028 447.434 248.648V242.136ZM454.024 250.386C453.393 250.386 452.849 250.247 452.392 249.969C451.938 249.688 451.587 249.295 451.339 248.793C451.095 248.287 450.973 247.699 450.973 247.028C450.973 246.358 451.095 245.767 451.339 245.256C451.587 244.741 451.93 244.341 452.371 244.054C452.814 243.764 453.331 243.619 453.922 243.619C454.263 243.619 454.599 243.676 454.932 243.79C455.264 243.903 455.567 244.088 455.839 244.344C456.112 244.597 456.33 244.932 456.491 245.349C456.653 245.767 456.734 246.281 456.734 246.892V247.318H451.689V246.449H455.712C455.712 246.08 455.638 245.75 455.49 245.46C455.345 245.17 455.138 244.942 454.868 244.774C454.601 244.607 454.286 244.523 453.922 244.523C453.521 244.523 453.175 244.622 452.882 244.821C452.592 245.017 452.369 245.273 452.213 245.588C452.057 245.903 451.979 246.241 451.979 246.602V247.182C451.979 247.676 452.064 248.095 452.234 248.439C452.408 248.78 452.648 249.04 452.955 249.219C453.261 249.395 453.618 249.483 454.024 249.483C454.288 249.483 454.527 249.446 454.74 249.372C454.956 249.295 455.142 249.182 455.298 249.031C455.455 248.878 455.575 248.687 455.661 248.46L456.632 248.733C456.53 249.062 456.358 249.352 456.116 249.602C455.875 249.849 455.577 250.043 455.222 250.182C454.866 250.318 454.467 250.386 454.024 250.386ZM460.736 250.386C460.19 250.386 459.709 250.249 459.291 249.973C458.874 249.695 458.547 249.303 458.311 248.797C458.075 248.288 457.957 247.688 457.957 246.994C457.957 246.307 458.075 245.71 458.311 245.205C458.547 244.699 458.875 244.308 459.295 244.033C459.716 243.757 460.202 243.619 460.753 243.619C461.179 243.619 461.516 243.69 461.763 243.832C462.013 243.972 462.203 244.131 462.334 244.31C462.467 244.486 462.571 244.631 462.645 244.744H462.73V241.523H463.736V250.25H462.764V249.244H462.645C462.571 249.364 462.466 249.514 462.33 249.696C462.193 249.875 461.999 250.036 461.746 250.178C461.493 250.317 461.156 250.386 460.736 250.386ZM460.872 249.483C461.276 249.483 461.616 249.378 461.895 249.168C462.173 248.955 462.385 248.661 462.53 248.286C462.675 247.908 462.747 247.472 462.747 246.977C462.747 246.489 462.676 246.061 462.534 245.695C462.392 245.325 462.182 245.038 461.903 244.834C461.625 244.626 461.281 244.523 460.872 244.523C460.446 244.523 460.091 244.632 459.807 244.851C459.526 245.067 459.314 245.361 459.172 245.733C459.033 246.102 458.963 246.517 458.963 246.977C458.963 247.443 459.034 247.866 459.176 248.247C459.321 248.625 459.534 248.926 459.815 249.151C460.099 249.372 460.452 249.483 460.872 249.483ZM349.6 265.403C349.186 265.403 348.809 265.325 348.471 265.169C348.133 265.01 347.865 264.781 347.666 264.483C347.467 264.182 347.368 263.818 347.368 263.392C347.368 263.017 347.441 262.713 347.589 262.48C347.737 262.244 347.934 262.06 348.181 261.926C348.429 261.793 348.701 261.693 349 261.628C349.301 261.56 349.603 261.506 349.907 261.466C350.305 261.415 350.627 261.376 350.875 261.351C351.125 261.322 351.306 261.276 351.42 261.21C351.537 261.145 351.595 261.031 351.595 260.869V260.835C351.595 260.415 351.48 260.088 351.25 259.855C351.022 259.622 350.677 259.506 350.214 259.506C349.734 259.506 349.358 259.611 349.085 259.821C348.812 260.031 348.62 260.256 348.51 260.494L347.555 260.153C347.725 259.756 347.953 259.446 348.237 259.224C348.524 259 348.836 258.844 349.174 258.756C349.515 258.665 349.85 258.619 350.18 258.619C350.39 258.619 350.632 258.645 350.904 258.696C351.18 258.744 351.446 258.845 351.701 258.999C351.96 259.152 352.174 259.384 352.345 259.693C352.515 260.003 352.6 260.418 352.6 260.938V265.25H351.595V264.364H351.544C351.475 264.506 351.362 264.658 351.203 264.82C351.044 264.982 350.832 265.119 350.568 265.233C350.304 265.347 349.981 265.403 349.6 265.403ZM349.754 264.5C350.152 264.5 350.487 264.422 350.76 264.266C351.035 264.109 351.243 263.908 351.382 263.661C351.524 263.413 351.595 263.153 351.595 262.881V261.96C351.552 262.011 351.458 262.058 351.314 262.101C351.172 262.141 351.007 262.176 350.819 262.207C350.635 262.236 350.454 262.261 350.278 262.284C350.105 262.304 349.964 262.321 349.856 262.335C349.595 262.369 349.35 262.425 349.123 262.501C348.899 262.575 348.717 262.687 348.578 262.838C348.441 262.986 348.373 263.187 348.373 263.443C348.373 263.793 348.502 264.057 348.761 264.236C349.022 264.412 349.353 264.5 349.754 264.5ZM357.811 267.705V258.705H358.783V259.744H358.902C358.976 259.631 359.078 259.486 359.209 259.31C359.342 259.131 359.533 258.972 359.78 258.832C360.03 258.69 360.368 258.619 360.794 258.619C361.345 258.619 361.831 258.757 362.251 259.033C362.672 259.308 363 259.699 363.236 260.205C363.472 260.71 363.589 261.307 363.589 261.994C363.589 262.688 363.472 263.288 363.236 263.797C363 264.303 362.673 264.695 362.256 264.973C361.838 265.249 361.357 265.386 360.811 265.386C360.391 265.386 360.054 265.317 359.801 265.178C359.548 265.036 359.354 264.875 359.217 264.696C359.081 264.514 358.976 264.364 358.902 264.244H358.817V267.705H357.811ZM358.8 261.977C358.8 262.472 358.872 262.908 359.017 263.286C359.162 263.661 359.374 263.955 359.652 264.168C359.93 264.378 360.271 264.483 360.675 264.483C361.095 264.483 361.446 264.372 361.727 264.151C362.011 263.926 362.224 263.625 362.366 263.247C362.511 262.866 362.584 262.443 362.584 261.977C362.584 261.517 362.513 261.102 362.371 260.733C362.232 260.361 362.02 260.067 361.736 259.851C361.455 259.632 361.101 259.523 360.675 259.523C360.266 259.523 359.922 259.626 359.643 259.834C359.365 260.038 359.155 260.325 359.013 260.695C358.871 261.061 358.8 261.489 358.8 261.977ZM365.124 265.25V258.705H366.095V259.693H366.163C366.283 259.369 366.499 259.107 366.811 258.905C367.124 258.703 367.476 258.602 367.868 258.602C367.942 258.602 368.034 258.604 368.145 258.607C368.256 258.609 368.339 258.614 368.396 258.619V259.642C368.362 259.634 368.284 259.621 368.162 259.604C368.043 259.584 367.916 259.574 367.783 259.574C367.464 259.574 367.18 259.641 366.93 259.774C366.683 259.905 366.487 260.087 366.342 260.32C366.2 260.55 366.129 260.812 366.129 261.108V265.25H365.124ZM372.048 265.386C371.457 265.386 370.939 265.246 370.493 264.964C370.05 264.683 369.703 264.29 369.453 263.784C369.206 263.278 369.082 262.687 369.082 262.011C369.082 261.33 369.206 260.734 369.453 260.226C369.703 259.717 370.05 259.322 370.493 259.041C370.939 258.76 371.457 258.619 372.048 258.619C372.639 258.619 373.156 258.76 373.599 259.041C374.045 259.322 374.392 259.717 374.639 260.226C374.889 260.734 375.014 261.33 375.014 262.011C375.014 262.687 374.889 263.278 374.639 263.784C374.392 264.29 374.045 264.683 373.599 264.964C373.156 265.246 372.639 265.386 372.048 265.386ZM372.048 264.483C372.497 264.483 372.866 264.368 373.156 264.138C373.446 263.908 373.661 263.605 373.8 263.23C373.939 262.855 374.009 262.449 374.009 262.011C374.009 261.574 373.939 261.166 373.8 260.788C373.661 260.411 373.446 260.105 373.156 259.872C372.866 259.639 372.497 259.523 372.048 259.523C371.599 259.523 371.23 259.639 370.94 259.872C370.651 260.105 370.436 260.411 370.297 260.788C370.158 261.166 370.088 261.574 370.088 262.011C370.088 262.449 370.158 262.855 370.297 263.23C370.436 263.605 370.651 263.908 370.94 264.138C371.23 264.368 371.599 264.483 372.048 264.483ZM379.464 258.705V259.557H375.936V258.705H379.464ZM376.993 265.25V257.801C376.993 257.426 377.081 257.114 377.257 256.864C377.433 256.614 377.662 256.426 377.943 256.301C378.224 256.176 378.521 256.114 378.833 256.114C379.081 256.114 379.282 256.134 379.439 256.173C379.595 256.213 379.711 256.25 379.788 256.284L379.498 257.153C379.447 257.136 379.376 257.115 379.285 257.089C379.197 257.064 379.081 257.051 378.936 257.051C378.603 257.051 378.363 257.135 378.216 257.303C378.071 257.47 377.998 257.716 377.998 258.04V265.25H376.993ZM380.874 265.25V258.705H381.879V265.25H380.874ZM381.385 257.614C381.189 257.614 381.02 257.547 380.878 257.413C380.739 257.28 380.669 257.119 380.669 256.932C380.669 256.744 380.739 256.584 380.878 256.45C381.02 256.317 381.189 256.25 381.385 256.25C381.581 256.25 381.749 256.317 381.888 256.45C382.03 256.584 382.101 256.744 382.101 256.932C382.101 257.119 382.03 257.28 381.888 257.413C381.749 257.547 381.581 257.614 381.385 257.614ZM384.727 256.523V265.25H383.721V256.523H384.727ZM389.313 265.386C388.683 265.386 388.138 265.247 387.681 264.969C387.227 264.688 386.876 264.295 386.629 263.793C386.384 263.287 386.262 262.699 386.262 262.028C386.262 261.358 386.384 260.767 386.629 260.256C386.876 259.741 387.219 259.341 387.66 259.054C388.103 258.764 388.62 258.619 389.211 258.619C389.552 258.619 389.888 258.676 390.221 258.79C390.553 258.903 390.856 259.088 391.129 259.344C391.401 259.597 391.619 259.932 391.781 260.349C391.942 260.767 392.023 261.281 392.023 261.892V262.318H386.978V261.449H391.001C391.001 261.08 390.927 260.75 390.779 260.46C390.634 260.17 390.427 259.942 390.157 259.774C389.89 259.607 389.575 259.523 389.211 259.523C388.81 259.523 388.464 259.622 388.171 259.821C387.881 260.017 387.658 260.273 387.502 260.588C387.346 260.903 387.268 261.241 387.268 261.602V262.182C387.268 262.676 387.353 263.095 387.523 263.439C387.697 263.78 387.937 264.04 388.244 264.219C388.55 264.395 388.907 264.483 389.313 264.483C389.577 264.483 389.816 264.446 390.029 264.372C390.245 264.295 390.431 264.182 390.587 264.031C390.744 263.878 390.864 263.687 390.95 263.46L391.921 263.733C391.819 264.062 391.647 264.352 391.406 264.602C391.164 264.849 390.866 265.043 390.511 265.182C390.156 265.318 389.756 265.386 389.313 265.386Z" fill="#667085"/>
<rect x="311.453" y="234.75" width="168" height="37" rx="18.5" stroke="#E4E8F1"/>
</g>
</g>
<g filter="url(#filter2_d_6785_44263)">
<path d="M378.786 368.97L369.831 360.025L378.39 356.783C378.561 356.719 378.706 356.602 378.807 356.451C378.908 356.299 378.96 356.12 378.954 355.938C378.948 355.756 378.886 355.58 378.775 355.435C378.665 355.29 378.512 355.183 378.338 355.13L352.132 347.037C351.98 346.99 351.819 346.985 351.664 347.024C351.51 347.062 351.369 347.142 351.256 347.254C351.144 347.367 351.064 347.508 351.026 347.662C350.987 347.817 350.992 347.979 351.039 348.131L359.131 374.337C359.185 374.511 359.291 374.664 359.436 374.774C359.581 374.885 359.757 374.947 359.939 374.953C360.121 374.959 360.3 374.907 360.452 374.806C360.603 374.705 360.72 374.56 360.784 374.389L364.026 365.83L372.971 374.786C373.052 374.867 373.148 374.932 373.255 374.976C373.361 375.02 373.475 375.042 373.59 375.042C373.705 375.042 373.819 375.02 373.925 374.976C374.031 374.932 374.127 374.867 374.209 374.786L378.787 370.209C378.868 370.127 378.933 370.031 378.977 369.925C379.021 369.818 379.043 369.704 379.043 369.589C379.043 369.474 379.021 369.361 378.977 369.254C378.933 369.148 378.867 369.052 378.786 368.97Z" fill="black"/>
<path d="M369.043 359.856L369.676 359.616L378.235 356.375C378.32 356.342 378.393 356.284 378.443 356.208C378.494 356.132 378.519 356.043 378.517 355.952C378.514 355.861 378.482 355.773 378.427 355.7C378.372 355.628 378.296 355.575 378.209 355.548L369.043 359.856ZM369.043 359.856L369.522 360.335L378.477 369.28L378.786 368.97L378.477 369.28C378.519 369.322 378.551 369.371 378.573 369.422C378.595 369.475 378.606 369.532 378.606 369.589C378.606 369.647 378.595 369.704 378.573 369.757C378.551 369.81 378.518 369.858 378.478 369.899L378.477 369.899L373.899 374.476L373.899 374.476C373.859 374.517 373.81 374.549 373.757 374.571C373.704 374.593 373.647 374.605 373.59 374.605C373.532 374.605 373.475 374.593 373.422 374.571C373.369 374.549 373.321 374.517 373.28 374.476L364.336 365.521L363.857 365.042L363.617 365.675L360.376 374.234C360.376 374.234 360.375 374.234 360.375 374.234C360.343 374.319 360.285 374.392 360.209 374.442C360.133 374.493 360.044 374.518 359.953 374.515C359.862 374.513 359.774 374.481 359.701 374.426C359.629 374.371 359.576 374.295 359.549 374.207L351.457 348.002C351.457 348.002 351.457 348.002 351.457 348.002C351.433 347.926 351.431 347.845 351.45 347.768C351.47 347.69 351.509 347.62 351.566 347.564C351.622 347.507 351.692 347.468 351.77 347.448C351.847 347.429 351.928 347.432 352.004 347.455C352.004 347.455 352.004 347.455 352.004 347.455L378.209 355.548L369.043 359.856Z" stroke="white" stroke-width="0.875"/>
</g>
</g>
<rect x="0.224213" y="0.224213" width="519.552" height="519.552" rx="6.95061" stroke="#18171C" stroke-width="0.448427"/>
<defs>
<filter id="filter0_d_6785_44263" x="20" y="125" width="493.953" height="333.699" filterUnits="userSpaceOnUse" color-interpolation-filters="sRGB">
<feFlood flood-opacity="0" result="BackgroundImageFix"/>
<feColorMatrix in="SourceAlpha" type="matrix" values="0 0 0 0 0 0 0 0 0 0 0 0 0 0 0 0 0 0 127 0" result="hardAlpha"/>
<feMorphology radius="12" operator="erode" in="SourceAlpha" result="effect1_dropShadow_6785_44263"/>
<feOffset dx="-18" dy="32"/>
<feGaussianBlur stdDeviation="32"/>
<feColorMatrix type="matrix" values="0 0 0 0 0.443137 0 0 0 0 0.368627 0 0 0 0 0.976471 0 0 0 0.24 0"/>
<feBlend mode="normal" in2="BackgroundImageFix" result="effect1_dropShadow_6785_44263"/>
<feBlend mode="normal" in="SourceGraphic" in2="effect1_dropShadow_6785_44263" result="shape"/>
</filter>
<filter id="filter1_d_6785_44263" x="258.953" y="214.25" width="273" height="142" filterUnits="userSpaceOnUse" color-interpolation-filters="sRGB">
<feFlood flood-opacity="0" result="BackgroundImageFix"/>
<feColorMatrix in="SourceAlpha" type="matrix" values="0 0 0 0 0 0 0 0 0 0 0 0 0 0 0 0 0 0 127 0" result="hardAlpha"/>
<feMorphology radius="12" operator="erode" in="SourceAlpha" result="effect1_dropShadow_6785_44263"/>
<feOffset dy="32"/>
<feGaussianBlur stdDeviation="32"/>
<feColorMatrix type="matrix" values="0 0 0 0 0.0625882 0 0 0 0 0.0926346 0 0 0 0 0.15702 0 0 0 0.32 0"/>
<feBlend mode="normal" in2="BackgroundImageFix" result="effect1_dropShadow_6785_44263"/>
<feBlend mode="normal" in="SourceGraphic" in2="effect1_dropShadow_6785_44263" result="shape"/>
</filter>
<filter id="filter2_d_6785_44263" x="351" y="346.998" width="28.043" height="29.7949" filterUnits="userSpaceOnUse" color-interpolation-filters="sRGB">
<feFlood flood-opacity="0" result="BackgroundImageFix"/>
<feColorMatrix in="SourceAlpha" type="matrix" values="0 0 0 0 0 0 0 0 0 0 0 0 0 0 0 0 0 0 127 0" result="hardAlpha"/>
<feMorphology radius="10.5" operator="erode" in="SourceAlpha" result="effect1_dropShadow_6785_44263"/>
<feOffset dy="7"/>
<feGaussianBlur stdDeviation="2.625"/>
<feColorMatrix type="matrix" values="0 0 0 0 0.0625882 0 0 0 0 0.0926346 0 0 0 0 0.15702 0 0 0 0.32 0"/>
<feBlend mode="normal" in2="BackgroundImageFix" result="effect1_dropShadow_6785_44263"/>
<feBlend mode="normal" in="SourceGraphic" in2="effect1_dropShadow_6785_44263" result="shape"/>
</filter>
<clipPath id="clip0_6785_44263">
<rect width="520" height="520" rx="7.17483" fill="white"/>
</clipPath>
</defs>
</svg>
