<svg width="40" height="40" viewBox="0 0 40 40" fill="none" xmlns="http://www.w3.org/2000/svg">
<rect width="40" height="40" fill="#0E0E0E" fill-opacity="0.19"/>
<path d="M30.8275 27.8625C30.238 26.4662 29.3825 25.1978 28.3087 24.1281C27.2382 23.0553 25.9701 22.2 24.5743 21.6094C24.5618 21.6031 24.5493 21.6 24.5368 21.5938C26.4837 20.1875 27.7493 17.8969 27.7493 15.3125C27.7493 11.0312 24.2806 7.5625 19.9993 7.5625C15.7181 7.5625 12.2493 11.0312 12.2493 15.3125C12.2493 17.8969 13.515 20.1875 15.4618 21.5969C15.4493 21.6031 15.4368 21.6062 15.4243 21.6125C14.0243 22.2031 12.7681 23.05 11.69 24.1313C10.6172 25.2018 9.76186 26.4699 9.17122 27.8656C8.59098 29.232 8.27804 30.697 8.24935 32.1812C8.24851 32.2146 8.25436 32.2478 8.26655 32.2788C8.27874 32.3099 8.29702 32.3382 8.32032 32.3621C8.34362 32.386 8.37146 32.4049 8.40221 32.4179C8.43295 32.4308 8.46598 32.4375 8.49935 32.4375H10.3743C10.5118 32.4375 10.6212 32.3281 10.6243 32.1938C10.6868 29.7812 11.6556 27.5219 13.3681 25.8094C15.14 24.0375 17.4931 23.0625 19.9993 23.0625C22.5056 23.0625 24.8587 24.0375 26.6306 25.8094C28.3431 27.5219 29.3118 29.7812 29.3743 32.1938C29.3775 32.3313 29.4868 32.4375 29.6243 32.4375H31.4993C31.5327 32.4375 31.5657 32.4308 31.5965 32.4179C31.6272 32.4049 31.6551 32.386 31.6784 32.3621C31.7017 32.3382 31.72 32.3099 31.7321 32.2788C31.7443 32.2478 31.7502 32.2146 31.7493 32.1812C31.7181 30.6875 31.4087 29.2344 30.8275 27.8625ZM19.9993 20.6875C18.565 20.6875 17.215 20.1281 16.1993 19.1125C15.1837 18.0969 14.6243 16.7469 14.6243 15.3125C14.6243 13.8781 15.1837 12.5281 16.1993 11.5125C17.215 10.4969 18.565 9.9375 19.9993 9.9375C21.4337 9.9375 22.7837 10.4969 23.7993 11.5125C24.815 12.5281 25.3743 13.8781 25.3743 15.3125C25.3743 16.7469 24.815 18.0969 23.7993 19.1125C22.7837 20.1281 21.4337 20.6875 19.9993 20.6875Z" fill="white"/>
</svg>
