<svg width="48" height="48" viewBox="0 0 48 48" fill="none" xmlns="http://www.w3.org/2000/svg">
<g clip-path="url(#clip0_1440_4538)">
<rect width="48" height="48" rx="4" fill="#F1F9F6"/>
<path d="M21.8564 27.4012C21.6337 27.4251 21.4078 27.4378 21.1786 27.4378C19.4588 27.4378 17.9039 26.7412 16.7766 25.6143C15.6497 24.487 14.9531 22.9321 14.9531 21.2123C14.9531 19.4924 15.6497 17.9376 16.7766 16.8103C17.9039 15.6834 19.4588 14.9868 21.1786 14.9868C22.6369 14.9868 23.9756 15.4874 25.0369 16.3265C26.0981 17.1656 26.8791 18.3426 27.218 19.6945L27.7636 19.5576C27.3938 18.0824 26.542 16.7995 25.3861 15.8849C24.2302 14.9704 22.7667 14.4238 21.1786 14.4243C19.305 14.4243 17.6063 15.1846 16.3786 16.4123C15.1505 17.6399 14.3902 19.3387 14.3906 21.2123C14.3906 23.0859 15.1509 24.7846 16.3786 26.0123C17.6063 27.2404 19.305 28.0007 21.1786 28.0007C21.428 28.0007 21.6745 27.9871 21.9169 27.9609L21.8564 27.4017V27.4012Z" fill="#90DEC2" stroke="#90DEC2" stroke-width="0.8"/>
<path d="M21.6425 33.2948V29.5171C21.6425 28.6532 21.9955 27.869 22.5659 27.298C23.1369 26.7276 23.9211 26.3751 24.785 26.3746H27.2052C27.8089 26.3746 28.3991 26.5523 28.895 26.8691C29.3914 27.1865 29.7931 27.6412 30.027 28.1957C30.0847 28.3321 30.1381 28.4774 30.1841 28.6246C30.23 28.7732 30.3875 28.8562 30.5361 28.8102C30.6847 28.7643 30.7677 28.6068 30.7217 28.4582C30.6702 28.2918 30.6102 28.1296 30.5455 27.9763C30.2642 27.3107 29.7838 26.7693 29.1978 26.3948C28.6119 26.0202 27.9191 25.8116 27.2052 25.8116H24.785C23.7659 25.8116 22.8383 26.2288 22.1684 26.8996C21.4977 27.5699 21.0805 28.4971 21.0805 29.5162V33.2938C21.0805 33.449 21.2066 33.5751 21.3617 33.5751C21.5169 33.5751 21.643 33.449 21.643 33.2938L21.6425 33.2948ZM25.9948 19.2318V19.513C26.6923 19.513 27.3209 19.7948 27.778 20.2518C28.2345 20.7088 28.5162 21.3379 28.5167 22.0349C28.5167 22.7324 28.235 23.361 27.778 23.818C27.3209 24.2751 26.6919 24.5563 25.9948 24.5568C25.2973 24.5568 24.6688 24.2751 24.2117 23.818C23.7547 23.361 23.4734 22.732 23.473 22.0349C23.473 21.3374 23.7547 20.7088 24.2117 20.2518C24.6688 19.7948 25.2978 19.5135 25.9948 19.513V18.9505C25.1441 18.9505 24.3711 19.296 23.8137 19.8538C23.2559 20.4112 22.91 21.1841 22.9105 22.0349C22.9105 22.8857 23.2559 23.6587 23.8137 24.216C24.3711 24.7738 25.1441 25.1198 25.9948 25.1193C26.8456 25.1193 27.6186 24.7738 28.1759 24.216C28.7338 23.6587 29.0792 22.8857 29.0792 22.0349C29.0792 21.1841 28.7338 20.4112 28.1759 19.8538C27.6186 19.296 26.8456 18.9501 25.9948 18.9505V19.2318ZM19.1253 15.7517L19.9578 16.6213L17.7139 17.4913C17.6895 17.5007 17.6647 17.5148 17.6436 17.5307L16.5842 18.3477C16.5312 18.3884 16.4944 18.4467 16.4805 18.5121C16.4667 18.5776 16.4767 18.6458 16.5087 18.7045L16.8908 19.4099L17.1842 20.0849C17.206 20.1352 17.242 20.178 17.2878 20.208C17.3336 20.2381 17.3872 20.2541 17.442 20.2541H18.7681L20.2705 22.1451L18.3913 24.3655C18.3662 24.3953 18.3475 24.4298 18.3365 24.4671C18.3254 24.5044 18.3222 24.5435 18.327 24.5821L18.4109 25.2538L17.8906 24.8104L17.9314 22.7713C17.9328 22.7062 17.9108 22.642 17.8705 22.5909L16.9737 21.4602L17.2152 20.8743C17.2677 20.7463 17.2194 20.5987 17.1012 20.527L15.042 19.2763L14.75 19.7573L16.6034 20.8832L16.3911 21.3993C16.3522 21.494 16.3672 21.6009 16.4309 21.681L17.3675 22.8618L17.3263 24.9332C17.3244 25.0176 17.3609 25.0982 17.4252 25.153L18.5984 26.1524C18.687 26.2279 18.8122 26.241 18.9144 26.1857C19.0166 26.1304 19.0742 26.0188 19.0597 25.9035L18.9013 24.6355L20.8498 22.333C20.8919 22.2834 20.9154 22.2207 20.9165 22.1557C20.9175 22.0907 20.8959 22.0273 20.8555 21.9763L19.1253 19.7985C19.0989 19.7654 19.0654 19.7386 19.0273 19.7202C18.9892 19.7018 18.9474 19.6922 18.905 19.6921H17.6277L17.4027 19.1751L17.3919 19.153L17.1181 18.6473L17.9558 18.0013L20.4814 17.0221C20.5202 17.007 20.5551 16.9835 20.5837 16.9533C20.6122 16.9231 20.6338 16.8869 20.6467 16.8474C20.6597 16.8078 20.6637 16.7659 20.6586 16.7247C20.6534 16.6834 20.6392 16.6438 20.6169 16.6087L19.5 15.499L19.1253 15.7517ZM20.7734 14.9427L21.6425 16.0724C21.7198 16.1727 21.8553 16.2093 21.972 16.161L23.6666 15.4659L23.4533 14.9455L21.9575 15.5591L21.2197 14.5996L20.7734 14.9427Z" fill="#90DEC2"/>
<path d="M25.9948 19.513V19.2318V18.9505M25.9948 19.513C26.6923 19.513 27.3209 19.7948 27.778 20.2518C28.2345 20.7088 28.5163 21.3379 28.5167 22.0349C28.5167 22.7324 28.235 23.361 27.778 23.818C27.3209 24.2751 26.6919 24.5563 25.9948 24.5568C25.2973 24.5568 24.6688 24.2751 24.2117 23.818C23.7547 23.361 23.4734 22.732 23.473 22.0349C23.473 21.3374 23.7547 20.7088 24.2117 20.2518C24.6688 19.7948 25.2978 19.5135 25.9948 19.513ZM25.9948 19.513V18.9505M25.9948 18.9505C25.1441 18.9505 24.3711 19.296 23.8137 19.8538C23.2559 20.4112 22.91 21.1841 22.9105 22.0349C22.9105 22.8857 23.2559 23.6587 23.8137 24.216C24.3711 24.7738 25.1441 25.1198 25.9948 25.1193C26.8456 25.1193 27.6186 24.7738 28.1759 24.216C28.7338 23.6587 29.0792 22.8857 29.0792 22.0349C29.0792 21.1841 28.7338 20.4112 28.1759 19.8538C27.6186 19.296 26.8456 18.9501 25.9948 18.9505ZM21.6425 33.2948V29.5171C21.6425 28.6532 21.9955 27.869 22.5659 27.298C23.1369 26.7276 23.9211 26.3751 24.785 26.3746H27.2052C27.8089 26.3746 28.3991 26.5523 28.895 26.8691C29.3914 27.1865 29.7931 27.6412 30.027 28.1957C30.0847 28.3321 30.1381 28.4774 30.1841 28.6246C30.23 28.7732 30.3875 28.8562 30.5361 28.8102C30.6847 28.7643 30.7677 28.6068 30.7217 28.4582C30.6702 28.2918 30.6102 28.1296 30.5455 27.9763C30.2642 27.3107 29.7838 26.7693 29.1978 26.3948C28.6119 26.0202 27.9191 25.8116 27.2052 25.8116H24.785C23.7659 25.8116 22.8383 26.2288 22.1684 26.8996C21.4977 27.5699 21.0805 28.4971 21.0805 29.5162V33.2938C21.0805 33.449 21.2066 33.5751 21.3617 33.5751C21.5169 33.5751 21.643 33.449 21.643 33.2938L21.6425 33.2948ZM19.1253 15.7517L19.9578 16.6213L17.7139 17.4913C17.6895 17.5007 17.6647 17.5148 17.6436 17.5307L16.5842 18.3477C16.5312 18.3884 16.4944 18.4467 16.4805 18.5121C16.4667 18.5776 16.4767 18.6458 16.5087 18.7045L16.8908 19.4099L17.1842 20.0849C17.206 20.1352 17.242 20.178 17.2878 20.208C17.3336 20.2381 17.3872 20.2541 17.442 20.2541H18.7681L20.2705 22.1451L18.3913 24.3655C18.3662 24.3953 18.3475 24.4298 18.3365 24.4671C18.3254 24.5044 18.3222 24.5435 18.327 24.5821L18.4109 25.2538L17.8906 24.8104L17.9314 22.7713C17.9328 22.7062 17.9108 22.642 17.8705 22.5909L16.9737 21.4602L17.2152 20.8743C17.2677 20.7463 17.2194 20.5987 17.1012 20.527L15.042 19.2763L14.75 19.7573L16.6034 20.8832L16.3911 21.3993C16.3522 21.494 16.3672 21.6009 16.4309 21.681L17.3675 22.8618L17.3263 24.9332C17.3244 25.0176 17.3609 25.0982 17.4252 25.153L18.5984 26.1524C18.687 26.2279 18.8122 26.241 18.9144 26.1857C19.0166 26.1304 19.0742 26.0188 19.0597 25.9035L18.9013 24.6355L20.8498 22.333C20.8919 22.2834 20.9154 22.2207 20.9165 22.1557C20.9175 22.0907 20.8959 22.0273 20.8555 21.9763L19.1253 19.7985C19.0989 19.7654 19.0654 19.7386 19.0273 19.7202C18.9892 19.7018 18.9474 19.6922 18.905 19.6921H17.6277L17.4027 19.1751L17.3919 19.153L17.1181 18.6473L17.9558 18.0013L20.4814 17.0221C20.5202 17.007 20.5551 16.9835 20.5837 16.9533C20.6122 16.9231 20.6338 16.8869 20.6467 16.8474C20.6597 16.8078 20.6637 16.7659 20.6586 16.7247C20.6534 16.6834 20.6392 16.6438 20.6169 16.6087L19.5 15.499L19.1253 15.7517ZM20.7734 14.9427L21.6425 16.0724C21.7198 16.1727 21.8553 16.2093 21.972 16.161L23.6666 15.4659L23.4533 14.9455L21.9575 15.5591L21.2197 14.5996L20.7734 14.9427Z" stroke="#90DEC2" stroke-width="0.8"/>
<path d="M27.7426 28.6575V28.9387H32.9827L32.1451 33.0136H27.1341L28.0182 28.7142L27.7426 28.6575L27.4669 28.6008L26.5135 33.2381C26.4966 33.3206 26.5177 33.4068 26.5712 33.4725C26.6246 33.5381 26.7048 33.5761 26.7891 33.5761H32.3743C32.5074 33.5761 32.6227 33.4818 32.6499 33.3515L33.6033 28.7142C33.6202 28.6317 33.5991 28.5454 33.5457 28.4798C33.4923 28.4142 33.4121 28.3762 33.3277 28.3762H27.7426C27.6094 28.3762 27.4941 28.4704 27.4669 28.6008L27.7426 28.6575Z" fill="#90DEC2"/>
<path d="M27.7426 28.6575V28.9387H32.9827L32.1451 33.0136H27.1341L28.0182 28.7142L27.7426 28.6575ZM27.7426 28.6575L27.4669 28.6008M27.4669 28.6008L26.5135 33.2381C26.4966 33.3206 26.5177 33.4068 26.5712 33.4725C26.6246 33.5381 26.7048 33.5761 26.7891 33.5761H32.3743C32.5074 33.5761 32.6227 33.4818 32.6499 33.3515L33.6033 28.7142C33.6202 28.6317 33.5991 28.5454 33.5457 28.4798C33.4923 28.4142 33.4121 28.3762 33.3277 28.3762H27.7426C27.6094 28.3762 27.4941 28.4704 27.4669 28.6008Z" stroke="#90DEC2" stroke-width="0.8"/>
<path d="M26.8234 33.0134H24.1797C24.0245 33.0134 23.8984 33.1395 23.8984 33.2947C23.8984 33.4498 24.0245 33.5759 24.1797 33.5759H26.8234C26.9786 33.5759 27.1047 33.4498 27.1047 33.2947C27.1047 33.1395 26.9786 33.0134 26.8234 33.0134ZM30.527 30.8633H30.0498C29.8947 30.8633 29.7686 30.9894 29.7686 31.1445C29.7686 31.2997 29.8947 31.4258 30.0498 31.4258H30.527C30.6822 31.4258 30.8083 31.2997 30.8083 31.1445C30.8083 30.9894 30.6822 30.8633 30.527 30.8633Z" fill="#90DEC2" stroke="#90DEC2" stroke-width="0.8"/>
</g>
<defs>
<clipPath id="clip0_1440_4538">
<rect width="48" height="48" rx="4" fill="white"/>
</clipPath>
</defs>
</svg>
