<svg width="48" height="48" viewBox="0 0 48 48" fill="none" xmlns="http://www.w3.org/2000/svg">
<rect width="48" height="48" rx="4" fill="#F1F9F6"/>
<path d="M24.0467 12C22.1082 12 20.531 13.5771 20.531 15.5156C20.531 17.454 22.1082 19.031 24.0467 19.031C25.985 19.031 27.5621 17.454 27.5621 15.5156C27.5621 13.5771 25.985 12 24.0467 12ZM24.0467 17.625C22.8836 17.625 21.9373 16.6787 21.9373 15.5156C21.9373 14.3525 22.8836 13.4062 24.0467 13.4062C25.2098 13.4062 26.1558 14.3526 26.1558 15.5156C26.1558 16.6787 25.2098 17.625 24.0467 17.625ZM28.9683 24.656C30.5192 24.656 31.7808 23.3943 31.7808 21.8435C31.7808 20.2928 30.5192 19.031 28.9683 19.031C27.4176 19.031 26.1558 20.2928 26.1558 21.8435C26.1558 23.3943 27.4176 24.656 28.9683 24.656ZM28.9683 20.4373C29.7438 20.4373 30.3746 21.0681 30.3746 21.8435C30.3746 22.619 29.7438 23.2498 28.9683 23.2498C28.1931 23.2498 27.5621 22.619 27.5621 21.8435C27.5621 21.0681 28.1931 20.4373 28.9683 20.4373ZM32.6753 27.01L29.1103 28.8746H28.8479C28.9278 28.6488 28.9686 28.411 28.9683 28.1715C28.9683 27.0084 28.0221 26.0623 26.859 26.0623H24.2594L20.9266 23.8403C20.3494 23.4547 19.6707 23.2491 18.9765 23.2498H16.0977C15.8075 22.4315 15.026 21.8435 14.1094 21.8435H12.7031C12.3148 21.8435 12 22.1583 12 22.5467V32.3902C12 32.7786 12.3148 33.0933 12.7031 33.0933H14.1094C14.9093 33.0933 15.6068 32.6457 15.9642 31.9874L20.3284 34.1295C20.8161 34.3723 21.3533 34.4989 21.8981 34.4996H27.5465C28.1989 34.4998 28.8384 34.3182 29.3934 33.9754C35.4863 30.2199 35.1073 30.4577 35.1558 30.4215C36.0882 29.7222 36.2772 28.4013 35.5775 27.4685C34.8923 26.555 33.6025 26.3562 32.6753 27.01ZM14.8125 30.984C14.8125 31.3716 14.497 31.6871 14.1094 31.6871H13.4062V23.2498H14.1094C14.497 23.2498 14.8125 23.5653 14.8125 23.9529V30.984ZM34.3331 29.2802L28.6551 32.7786C28.322 32.9844 27.9382 33.0934 27.5466 33.0933H21.8982C21.5724 33.0933 21.2463 33.0165 20.9548 32.8707C20.9533 32.87 20.9517 32.8692 20.9502 32.8683L16.2187 30.5459V24.656H18.9765C19.3941 24.656 19.7988 24.7785 20.1463 25.0104L23.6567 27.3505C23.7721 27.4274 23.9077 27.4685 24.0465 27.4686H26.859C27.2466 27.4686 27.5621 27.7839 27.5621 28.1715C27.5621 28.5593 27.2466 28.8746 26.859 28.8746H21.2342C20.8458 28.8746 20.531 29.1895 20.531 29.5777C20.531 29.9661 20.8458 30.2808 21.2342 30.2808H29.2831C29.3965 30.2808 29.5083 30.2534 29.6089 30.2008C33.5769 28.1219 33.3828 28.2361 33.4683 28.1718C33.7785 27.9391 34.22 28.0023 34.4525 28.3123C34.6801 28.6159 34.6258 29.0432 34.3331 29.2802Z" fill="#90DEC2"/>
</svg>
