<svg width="48" height="48" viewBox="0 0 48 48" fill="none" xmlns="http://www.w3.org/2000/svg">
<rect width="48" height="48" rx="4" fill="#F1F9F6"/>
<path d="M33.8962 22.1001C32.7569 21.6728 31.2566 21.4375 29.6719 21.4375C27.7901 21.4375 25.895 21.7735 24.6562 22.4277V15.8125C24.6562 15.1916 24.2913 14.3147 22.5525 13.6626C21.4131 13.2353 19.9129 13 18.3281 13C15.3937 13 12 13.872 12 15.8125V32.6875C12 33.3084 12.365 34.1854 14.1037 34.8374C15.2432 35.2647 16.7434 35.5 18.3281 35.5C20.0571 35.5 22.674 35.1723 23.9631 34.0507C25.0903 35.0064 27.391 35.5 29.6719 35.5C32.6301 35.5 36 34.6193 36 32.6875V24.25C36 23.6291 35.635 22.7522 33.8962 22.1001ZM23.25 32.6875C23.25 33.1001 21.5276 34.1031 18.3281 34.1031C15.1424 34.1031 13.4062 33.104 13.4062 32.6875V31.7153C14.7863 32.4421 16.7587 32.6875 18.3281 32.6875C19.8967 32.6875 21.8695 32.4423 23.25 31.7153V32.6875ZM23.25 29.875C23.25 30.2876 21.5276 31.2906 18.3281 31.2906C15.1424 31.2906 13.4062 30.2915 13.4062 29.875V28.9028C14.7863 29.6296 16.7587 29.875 18.3281 29.875C19.8967 29.875 21.8695 29.6298 23.25 28.9028V29.875ZM23.25 27.0625C23.25 27.4751 21.5276 28.4781 18.3281 28.4781C15.1424 28.4781 13.4062 27.479 13.4062 27.0625V26.0903C14.7863 26.8171 16.7587 27.0625 18.3281 27.0625C19.8967 27.0625 21.8695 26.8173 23.25 26.0903V27.0625ZM23.25 24.25C23.25 24.6626 21.5276 25.6656 18.3281 25.6656C15.1424 25.6656 13.4062 24.6665 13.4062 24.25V23.2778C14.7858 24.0044 16.7581 24.25 18.3281 24.25C19.8963 24.25 21.8696 24.0048 23.25 23.2778V24.25ZM23.25 21.4375C23.25 21.8501 21.5276 22.8531 18.3281 22.8531C15.1424 22.8531 13.4062 21.854 13.4062 21.4375V20.4653C14.7863 21.1921 16.7587 21.4375 18.3281 21.4375C19.8967 21.4375 21.8695 21.1923 23.25 20.4653V21.4375ZM23.25 18.625C23.25 19.0376 21.5276 20.0406 18.3281 20.0406C15.1424 20.0406 13.4062 19.0415 13.4062 18.625V17.6528C14.7863 18.3796 16.7587 18.625 18.3281 18.625C19.8967 18.625 21.8695 18.3798 23.25 17.6528V18.625ZM18.3281 17.2281C15.1424 17.2281 13.4062 16.229 13.4062 15.8125C13.4062 15.3999 15.1287 14.3969 18.3281 14.3969C21.5138 14.3969 23.25 15.396 23.25 15.8125C23.25 16.2251 21.5276 17.2281 18.3281 17.2281ZM34.5938 32.6875C34.5938 33.1001 32.8713 34.1031 29.6719 34.1031C26.535 34.1031 24.6562 33.1128 24.6562 32.6875V31.6973C25.895 32.3515 27.7901 32.6875 29.6719 32.6875C31.2405 32.6875 33.2133 32.4423 34.5938 31.7153V32.6875ZM34.5938 29.875C34.5938 30.2876 32.8713 31.2906 29.6719 31.2906C26.535 31.2906 24.6562 30.3003 24.6562 29.875V28.8848C25.895 29.539 27.7901 29.875 29.6719 29.875C31.2405 29.875 33.2133 29.6298 34.5938 28.9028V29.875ZM34.5938 27.0625C34.5938 27.4751 32.8713 28.4781 29.6719 28.4781C26.535 28.4781 24.6562 27.4878 24.6562 27.0625V26.0723C25.895 26.7265 27.7901 27.0625 29.6719 27.0625C31.2405 27.0625 33.2133 26.8173 34.5938 26.0903V27.0625ZM29.6719 25.6656C26.4949 25.6656 24.6562 24.6629 24.6562 24.25C24.6562 23.8542 26.4422 22.8344 29.6719 22.8344C32.8576 22.8344 34.5938 23.8335 34.5938 24.25C34.5938 24.6626 32.8713 25.6656 29.6719 25.6656Z" fill="#90DEC2"/>
</svg>
