<svg xmlns="http://www.w3.org/2000/svg" width="200" height="144" viewBox="0 0 200 144" fill="none">
<circle cx="100" cy="72" r="70" fill="url(#paint0_linear_1299_68558)"/>
<path d="M41.7231 137.996C39.8518 138.066 38.1184 137.275 36.4225 135.579C35.7871 134.944 35.2803 134.304 34.8951 133.654C34.2543 132.566 33.9602 131.448 34.0043 130.277C34.1285 126.899 36.9971 123.459 42.6512 118.302L46.9063 116.806L49.1891 112.548C49.8658 111.965 50.5647 111.363 51.2869 110.74C59.6991 103.497 71.2157 93.5766 85.326 79.4663C85.4619 79.33 85.6233 79.2219 85.8011 79.1481C85.9788 79.0743 86.1694 79.0364 86.3619 79.0364C86.5543 79.0364 86.7449 79.0743 86.9226 79.1481C87.1004 79.2219 87.2618 79.33 87.3977 79.4663L92.5338 84.6024C92.6701 84.7383 92.7782 84.8997 92.852 85.0775C92.9257 85.2552 92.9637 85.4458 92.9637 85.6382C92.9637 85.8307 92.9257 86.0212 92.852 86.199C92.7782 86.3767 92.6701 86.5382 92.5338 86.6741C78.4235 100.784 68.5034 112.301 61.2596 120.713C60.6354 121.437 60.0319 122.137 59.4477 122.815L55.1926 125.092L53.7037 129.343C48.5428 135.002 45.1026 137.87 41.7231 137.996Z" fill="#263238"/>
<path d="M53.707 129.343C48.5461 135.001 45.1059 137.87 41.7264 137.995C39.8551 138.066 38.1217 137.275 36.4258 135.579C35.7904 134.943 35.2836 134.304 34.8984 133.653C35.9867 134.294 37.1025 134.587 38.2738 134.543C43.0758 134.365 48.0006 128.647 57.8104 117.26C65.2309 108.644 75.459 96.7694 90.1231 82.188L92.5371 84.6021C92.6734 84.7379 92.7815 84.8994 92.8553 85.0771C92.929 85.2549 92.967 85.4454 92.967 85.6379C92.967 85.8303 92.929 86.0209 92.8553 86.1986C92.7815 86.3764 92.6734 86.5378 92.5371 86.6737C78.4268 100.784 68.5066 112.301 61.2629 120.713C60.6387 121.436 60.0352 122.137 59.451 122.815L55.1959 125.092L53.707 129.343Z" fill="#263238"/>
<path d="M53.7012 129.343C52.7164 127.969 51.6572 126.684 50.5938 125.51C47.275 121.84 43.9191 119.238 42.6484 118.302C44.5211 116.592 46.7004 114.694 49.1863 112.548C50.3367 113.359 53.2619 115.563 56.3361 118.963C57.3775 120.112 58.434 121.398 59.4449 122.815C57.3031 125.297 55.4082 127.474 53.7012 129.343Z" fill="#685E68"/>
<path d="M59.449 122.815C57.307 125.297 55.4121 127.474 53.7051 129.343C52.7203 127.969 51.6611 126.683 50.5977 125.51C52.3061 123.625 54.2008 121.442 56.34 118.963C57.3816 120.112 58.4381 121.398 59.449 122.815Z" fill="#554E56"/>
<path d="M120.972 87.3145C116.482 87.0177 111.335 86.4308 105.663 85.5675C102.517 91.7823 99.3914 97.3079 96.3643 102.006C96.246 102.19 96.088 102.346 95.9019 102.461C95.7157 102.576 95.5061 102.647 95.2886 102.671C95.0711 102.694 94.851 102.668 94.6447 102.595C94.4384 102.523 94.2511 102.404 94.0965 102.25C93.9131 102.066 93.7819 101.837 93.7166 101.585C93.6946 101.502 91.558 93.3472 89.3662 82.6343C78.652 80.4411 70.4967 78.3046 70.4139 78.2825C70.139 78.2102 69.891 78.0595 69.7 77.8489C69.509 77.6384 69.3833 77.3769 69.3381 77.0962C69.294 76.8154 69.3324 76.5278 69.4486 76.2684C69.5648 76.0091 69.7539 75.789 69.9928 75.635C74.6912 72.6077 80.2168 69.4823 86.4317 66.3364C85.5686 60.6643 84.9815 55.5171 84.6846 51.0272C84.6662 50.7423 84.7312 50.4582 84.8718 50.2098C85.0123 49.9613 85.2223 49.7592 85.476 49.6282C85.7299 49.4978 86.0164 49.4443 86.3003 49.4745C86.5842 49.5047 86.853 49.6172 87.0739 49.7981C90.9395 52.9567 94.9582 56.5032 99.0325 60.3509C109.276 55.7698 117.209 52.8614 117.29 52.8296C117.553 52.7342 117.837 52.7156 118.11 52.776C118.382 52.8365 118.632 52.9734 118.83 53.1708C119.027 53.3684 119.163 53.6181 119.224 53.8906C119.284 54.1631 119.265 54.447 119.17 54.7093C119.138 54.7907 116.22 62.7499 111.626 73.0167C118.054 79.8724 122.16 84.8731 122.201 84.9257C122.382 85.1464 122.495 85.4153 122.525 85.6992C122.555 85.9831 122.502 86.2696 122.371 86.5235C122.24 86.7771 122.038 86.987 121.789 87.1275C121.541 87.268 121.257 87.333 120.972 87.3145Z" fill="#90DEC2"/>
<path d="M130.134 41.8646C129.998 41.7286 129.837 41.6207 129.659 41.547C129.481 41.4734 129.291 41.4355 129.099 41.4355C128.906 41.4355 128.716 41.4734 128.538 41.547C128.36 41.6207 128.199 41.7286 128.063 41.8646L122.629 47.2984C122.493 47.4344 122.385 47.5959 122.311 47.7736C122.238 47.9514 122.2 48.1419 122.2 48.3342C122.2 48.5266 122.238 48.7171 122.311 48.8948C122.385 49.0726 122.493 49.234 122.629 49.3701C122.765 49.5061 122.926 49.614 123.104 49.6876C123.282 49.7612 123.472 49.7991 123.665 49.7991C123.857 49.7991 124.048 49.7612 124.225 49.6876C124.403 49.614 124.565 49.5061 124.701 49.3701L130.134 43.9363C130.27 43.8003 130.378 43.6388 130.452 43.461C130.526 43.2833 130.563 43.0928 130.563 42.9004C130.563 42.7081 130.526 42.5176 130.452 42.3398C130.378 42.1621 130.27 42.0006 130.134 41.8646ZM133.57 95.9861L128.136 90.5523C127.861 90.2776 127.489 90.1233 127.1 90.1233C126.712 90.1233 126.339 90.2776 126.064 90.5523C125.79 90.827 125.635 91.1996 125.635 91.5882C125.635 91.9767 125.79 92.3493 126.064 92.624L131.498 98.0578C131.773 98.3325 132.146 98.4868 132.534 98.4868C132.923 98.4868 133.295 98.3325 133.57 98.0578C133.845 97.7831 133.999 97.4105 133.999 97.0219C133.999 96.6334 133.845 96.2608 133.57 95.9861ZM129.53 71.1767C129.513 70.9851 129.459 70.7986 129.37 70.628C129.281 70.4574 129.16 70.3059 129.012 70.1822C128.865 70.0586 128.695 69.9652 128.511 69.9073C128.328 69.8495 128.135 69.8283 127.943 69.8451L120.288 70.5152C120.01 70.5394 119.745 70.6424 119.524 70.812C119.302 70.9817 119.134 71.2109 119.039 71.4729C118.943 71.7349 118.925 72.0186 118.985 72.2908C119.045 72.563 119.182 72.8124 119.379 73.0095C119.53 73.1611 119.713 73.2777 119.914 73.351C120.115 73.4242 120.33 73.4524 120.543 73.4336L128.198 72.7634C128.39 72.7467 128.577 72.6924 128.747 72.6036C128.918 72.5148 129.069 72.3933 129.193 72.246C129.317 72.0986 129.41 71.9283 129.468 71.7449C129.526 71.5614 129.547 71.3684 129.53 71.1767ZM112.834 100.831L110.418 93.5365C110.357 93.3539 110.261 93.185 110.135 93.0394C110.01 92.8938 109.856 92.7744 109.685 92.6881C109.337 92.5136 108.935 92.4843 108.566 92.6064C108.198 92.7286 107.892 92.9922 107.718 93.3394C107.544 93.6865 107.514 94.0888 107.636 94.4576L110.053 101.753C110.124 101.969 110.245 102.166 110.406 102.327C110.639 102.561 110.945 102.709 111.272 102.748C111.6 102.786 111.931 102.713 112.212 102.54C112.493 102.367 112.707 102.104 112.82 101.794C112.933 101.484 112.938 101.145 112.834 100.831ZM81.4466 43.8628L76.0128 38.4291C75.8768 38.293 75.7153 38.1851 75.5376 38.1115C75.3599 38.0379 75.1694 38 74.977 38C74.7846 38 74.5941 38.0379 74.4164 38.1115C74.2387 38.1851 74.0772 38.293 73.9412 38.4291C73.8051 38.5651 73.6972 38.7266 73.6236 38.9043C73.55 39.082 73.5121 39.2725 73.5121 39.4649C73.5121 39.6573 73.55 39.8478 73.6236 40.0255C73.6972 40.2032 73.8051 40.3647 73.9412 40.5007L79.375 45.9345C79.6497 46.2093 80.0223 46.3636 80.4108 46.3636C80.6032 46.3636 80.7937 46.3257 80.9714 46.2521C81.1491 46.1785 81.3106 46.0706 81.4466 45.9345C81.5827 45.7985 81.6906 45.637 81.7642 45.4593C81.8378 45.2816 81.8757 45.0911 81.8757 44.8987C81.8757 44.7063 81.8378 44.5158 81.7642 44.3381C81.6906 44.1604 81.5827 43.9989 81.4466 43.8628ZM102.154 44.0558C102.173 43.863 102.154 43.6683 102.097 43.4831C102.04 43.2978 101.947 43.1256 101.824 42.9765C101.7 42.8274 101.548 42.7043 101.376 42.6144C101.205 42.5244 101.017 42.4694 100.824 42.4525C100.631 42.4356 100.436 42.4572 100.252 42.516C100.067 42.5748 99.896 42.6696 99.7482 42.795C99.6005 42.9204 99.4791 43.0738 99.3911 43.2464C99.3031 43.419 99.2502 43.6074 99.2355 43.8005L98.5654 51.456C98.5465 51.6692 98.5747 51.884 98.6479 52.0851C98.7212 52.2862 98.8378 52.4688 98.9894 52.6199C99.1866 52.817 99.4359 52.9537 99.7081 53.014C99.9803 53.0743 100.264 53.0557 100.526 52.9602C100.788 52.8648 101.017 52.6966 101.187 52.4754C101.357 52.2541 101.46 51.989 101.484 51.7113L102.154 44.0558ZM78.4625 61.5816L71.1677 59.1652C70.9851 59.1047 70.7924 59.0807 70.6005 59.0947C70.4087 59.1087 70.2214 59.1603 70.0495 59.2467C69.8776 59.333 69.7244 59.4524 69.5986 59.598C69.4729 59.7435 69.377 59.9125 69.3166 60.0951C69.256 60.2777 69.2321 60.4704 69.2461 60.6623C69.26 60.8542 69.3117 61.0415 69.398 61.2134C69.4844 61.3853 69.6037 61.5385 69.7493 61.6643C69.8949 61.7901 70.0638 61.886 70.2464 61.9464L77.5412 64.3629C77.9076 64.476 78.3037 64.4411 78.6446 64.2655C78.9855 64.0899 79.244 63.7877 79.3646 63.4236C79.4851 63.0596 79.4582 62.6628 79.2896 62.3185C79.1209 61.9741 78.824 61.7095 78.4625 61.5816ZM111.626 73.0166L108.311 69.7019L118.83 53.1705C119.027 53.3681 119.163 53.6178 119.223 53.8903C119.284 54.1627 119.265 54.4467 119.169 54.7089C119.138 54.7906 116.219 62.7496 111.626 73.0166Z" fill="#659B88"/>
<path d="M120.971 87.3143C116.481 87.0174 111.334 86.4305 105.662 85.5672C102.516 91.782 99.3906 97.3076 96.3635 102.006C96.2098 102.245 95.9898 102.435 95.7303 102.551C95.4709 102.667 95.1832 102.705 94.9023 102.661L103.062 81.5801L122.37 86.5229C122.239 86.7765 122.037 86.9865 121.789 87.1271C121.54 87.2676 121.256 87.3327 120.971 87.3143Z" fill="#659B88"/>
<defs>
<linearGradient id="paint0_linear_1299_68558" x1="100" y1="2" x2="100" y2="142" gradientUnits="userSpaceOnUse">
<stop stop-color="#F0EFFA"/>
<stop offset="1" stop-color="#F0EFFA" stop-opacity="0"/>
</linearGradient>
</defs>
</svg>