<svg width="1248" height="751" viewBox="0 0 1248 751" fill="none" xmlns="http://www.w3.org/2000/svg">
<path d="M1198.27 707.03C1198.27 707.03 1336.08 401.8 1064.47 401.8C920.96 401.8 980.08 318.05 882.51 221.14C784.94 124.22 443.73 46.79 371.1 233.94C298.48 421.09 477.96 563.19 304.52 538.81C96.12 509.52 13.79 707.03 13.79 707.03H1198.27Z" fill="#F3F3F3"/>
<path d="M321.02 325.52V323.55C320.65 323.6 320.09 323.16 320.24 323.95C320.35 324.49 320.58 325.01 320.76 325.54C320.84 325.54 320.93 325.53 321.02 325.52V325.52ZM320.4 316.64V316.11H320.22V316.64H320.4ZM320.05 322.28H320.58V322.1H320.05V322.28Z" fill="#C41347"/>
<path d="M959.71 707.11H1091.26V709.75H959.71V707.11ZM140.14 707.25H895.12V709.89H140.14V707.25ZM895.12 707.15H959.71V709.79H895.12V707.15Z" fill="#6F6F6E"/>
<path d="M545.9 156.9C538.23 156.9 532.13 163.37 532.14 171.49C532.15 179.54 538.36 186.03 546.01 186C553.59 185.97 559.7 179.48 559.72 171.45C559.73 163.36 553.59 156.89 545.9 156.9V156.9ZM580.56 212.35C586.91 212.32 591.76 207.1 591.72 200.36C591.68 193.75 586.75 188.58 580.49 188.58C574.21 188.58 569.18 193.9 569.2 200.52C569.23 207.18 574.23 212.39 580.56 212.35ZM613.79 235.34C619.32 235.31 623.54 230.77 623.51 224.9C623.48 219.15 619.18 214.64 613.73 214.65C608.26 214.65 603.88 219.28 603.9 225.04C603.92 230.83 608.28 235.37 613.79 235.34V235.34Z" fill="#D9D9D9"/>
<path d="M729.4 389.91C728.904 389.904 728.411 389.997 727.95 390.182C727.489 390.367 727.069 390.641 726.714 390.988C726.36 391.335 726.077 391.749 725.882 392.206C725.688 392.663 725.585 393.154 725.58 393.65C725.572 394.652 725.961 395.616 726.662 396.332C727.363 397.048 728.318 397.457 729.32 397.47C731.4 397.49 733.11 395.82 733.14 393.74C733.15 391.64 731.48 389.93 729.4 389.91Z" fill="#20140F"/>
<path d="M770.76 332.08C769.77 332.84 769.16 334.22 769.68 335.35C770.03 336.13 770.84 336.62 771.66 336.83C772.49 337.04 773.35 337.02 774.2 337.06C776.51 337.15 778.87 337.66 780.78 338.98C781.78 339.67 782.64 340.56 783.69 341.15C784.75 341.73 786.15 341.95 787.14 341.25C788.09 340.58 788.36 339.21 788.03 338.08C787.7 336.96 786.89 336.04 786.01 335.26C782.52 332.15 777.64 330.66 773 331.28C773 331.07 771.73 331.33 770.76 332.08V332.08Z" fill="#323B6E"/>
<path d="M735.35 421.2C735.31 424.28 737.09 427.12 739.31 429.27C742.86 432.73 747.65 434.87 752.6 435.32C757.54 435.76 762.6 434.52 766.83 431.92C768.72 430.75 770.49 429.29 771.62 427.38C772.75 425.46 773.16 423.05 772.35 420.99C770.92 417.37 766.41 416.05 762.52 416.19C758.63 416.34 754.73 417.45 750.91 416.72C747.33 416.03 743.72 413.75 740.31 415.01C737.99 415.85 735.4 418.12 735.35 421.2V421.2Z" fill="white"/>
<path d="M858.18 643.27C869.96 606.91 891.38 575.17 913.13 543.47L913.28 543.57C918.08 548.21 920.36 552.28 922.65 558.56C927.23 571.12 926.85 584.95 925.01 598.19C921.27 625.07 911.85 650.77 902.48 676.23C898.7 686.5 894.93 696.77 891.15 707.05L851.61 707.11H838.56L858.18 643.27V643.27Z" fill="#4F4F4F"/>
<path d="M777.68 390.45C776.678 390.442 775.714 390.831 774.998 391.532C774.282 392.233 773.873 393.188 773.86 394.19C773.851 395.19 774.239 396.153 774.938 396.869C775.636 397.584 776.59 397.995 777.59 398.01C779.68 398.03 781.39 396.36 781.41 394.28C781.44 392.18 779.77 390.47 777.68 390.45Z" fill="#20140F"/>
<path d="M717.53 337.3C717.18 338.42 717.41 339.79 718.35 340.49C719.33 341.21 720.73 341.03 721.8 340.47C722.88 339.9 723.74 339.03 724.76 338.36C726.7 337.09 729.06 336.63 731.38 336.59C732.23 336.57 733.1 336.61 733.93 336.42C734.76 336.23 735.57 335.75 735.94 334.98C736.48 333.87 735.9 332.47 734.93 331.69C733.97 330.92 732.71 330.63 732.72 330.84C728.09 330.12 723.19 331.5 719.63 334.53C718.72 335.29 717.89 336.18 717.53 337.3V337.3Z" fill="#323B6E"/>
<path d="M833.73 424.81C826.25 441.04 818.76 457.33 813.54 474.42C812.84 476.7 812.18 479.12 812.58 481.45L811.89 481.61C803.65 489.55 793.3 495.72 781.95 497.15C770.73 498.55 758.55 494.71 751.51 485.88C751.75 485.68 751.98 485.48 752.2 485.27C754.26 483.26 755.43 480.53 756.38 477.82C757.29 475.23 758.06 472.59 758.68 469.92C747.74 469.08 736.98 465.95 727.42 460.54C718.79 455.65 712.82 447.81 709.44 437.15C703.59 418.66 705.57 391.7 715.09 357.01L722.53 329.92C731.37 335.39 742.79 337.52 753.88 337.93C760.77 338.17 767.65 337.82 774.52 337.51C777.65 337.37 781.05 336.86 784.15 337.11C786.7 337.31 805 340.23 816.81 358.92C817.22 359.55 817.64 360.17 818.04 360.81C825.58 373 828.8 388.34 825 402.17C824.84 402.75 825.08 403.39 825.48 403.83C825.89 404.27 826.46 404.55 827.03 404.74C828.16 405.14 829.42 405.26 830.56 404.89C831.7 404.52 832.7 403.59 832.94 402.41C835.05 399.16 838.4 396.73 842.1 396.14C843.43 395.92 844.8 395.95 846.12 396.19C848.48 396.61 850.71 397.72 852.43 399.38C853.79 400.7 854.84 402.33 855.55 404.09C858.18 410.52 856 418.59 850.47 422.81C845.97 426.25 839.57 426.88 834.38 424.7L833.73 424.81V424.81Z" fill="#F8C7BD"/>
<path d="M721.8 340.46C722.88 339.89 723.74 339.02 724.76 338.35C726.7 337.08 729.06 336.62 731.38 336.58C732.23 336.56 733.1 336.6 733.93 336.41C734.76 336.22 735.57 335.74 735.94 334.97C736.48 333.86 735.9 332.46 734.93 331.68C733.97 330.91 732.71 330.62 732.72 330.83C728.09 330.11 723.19 331.49 719.63 334.52C718.73 335.28 717.9 336.18 717.54 337.29C717.19 338.41 717.42 339.78 718.36 340.48C719.33 341.21 720.73 341.02 721.8 340.46V340.46Z" fill="#3C3C3B"/>
<path d="M729.32 397.46C731.4 397.48 733.11 395.81 733.14 393.73C733.151 392.729 732.763 391.764 732.063 391.049C731.362 390.333 730.406 389.926 729.405 389.915C728.404 389.904 727.439 390.292 726.724 390.992C726.009 391.693 725.601 392.649 725.59 393.65C725.55 395.73 727.23 397.44 729.32 397.46V397.46Z" fill="#F8C7BD"/>
<path d="M752.61 438.18C757.55 438.62 762.61 437.38 766.84 434.78C768.73 433.61 770.5 432.15 771.63 430.24C772.76 428.32 773.17 425.91 772.36 423.85C770.93 420.23 766.42 418.91 762.53 419.05C758.64 419.2 754.74 420.31 750.92 419.58C747.34 418.89 743.73 416.61 740.32 417.87C738 418.72 735.41 421 735.37 424.08C735.33 427.16 737.11 430 739.33 432.15C742.86 435.59 747.66 437.73 752.61 438.18V438.18Z" fill="white"/>
<path d="M771.65 336.83C772.48 337.04 773.34 337.02 774.19 337.06C776.5 337.15 778.86 337.66 780.77 338.98C781.77 339.67 782.63 340.56 783.68 341.15C784.74 341.73 786.14 341.95 787.13 341.25C788.08 340.58 788.35 339.21 788.02 338.08C787.69 336.96 786.88 336.04 786 335.26C782.51 332.15 777.63 330.66 772.99 331.28C773 331.07 771.74 331.33 770.76 332.08C769.77 332.84 769.16 334.22 769.68 335.35C770.03 336.13 770.83 336.62 771.65 336.83V336.83Z" fill="#3C3C3B"/>
<path d="M777.6 398C778.601 398.011 779.566 397.623 780.281 396.923C780.996 396.222 781.404 395.266 781.415 394.265C781.426 393.264 781.038 392.299 780.338 391.584C779.637 390.869 778.681 390.461 777.68 390.45C776.678 390.442 775.714 390.831 774.998 391.532C774.282 392.233 773.873 393.188 773.86 394.19C773.855 394.686 773.948 395.178 774.134 395.637C774.319 396.097 774.594 396.516 774.941 396.87C775.288 397.223 775.702 397.505 776.158 397.699C776.614 397.893 777.104 397.995 777.6 398V398Z" fill="#F8C7BD"/>
<path d="M653.5 599.94C654.45 595.97 655.41 591.99 656.34 588.01C653.17 531.12 624.47 437.88 625.16 379.76C625.85 321.64 635.06 278.47 651.4 222.69C651.71 221.69 651.96 220.7 652.15 219.74C667.27 221.4 682.69 220.34 697.45 216.64C697.56 216.61 697.67 216.59 697.77 216.56C691.77 264.97 692.33 313.74 696.17 362.08C698.19 387.48 701.22 413.16 708.95 437.32C711.05 443.9 713.5 450.35 716.37 456.67C722.27 469.64 730.91 482.67 744.31 487.41C746.7 488.32 749.47 487.52 751.5 485.9C758.54 494.73 770.72 498.57 781.94 497.17C793.29 495.74 803.64 489.57 811.88 481.63L812.57 481.47C812.6 481.65 812.64 481.82 812.68 482C813.29 484.5 815.7 486.74 818.22 486.24L818.48 486.32C849.24 468.84 861.75 449.28 876.46 424.99C891.17 400.7 901.74 374.16 911.58 347.52C925.92 308.66 938.85 269.28 950.31 229.47L950.52 229.53C967.63 234.57 983.23 238.38 1000.89 238.34C1000.99 237.82 1001.1 237.31 1001.24 236.79C1000.86 240.22 993.51 403.28 956.17 475.18C943.81 498.98 928.38 521.22 913.13 543.47C891.38 575.17 869.96 606.91 858.18 643.27V643.35C858.18 643.35 858.16 643.36 858.15 643.36L838.56 707.11L800.26 707.18L627.71 707.41V707.17C636.31 671.42 644.91 635.69 653.5 599.94V599.94Z" fill="#5957D9"/>
<path d="M768.49 468.66V469.09H768.63V468.66H768.49Z" fill="#EE7C78"/>
<path d="M849.45 409.51C849.58 409.51 849.71 409.47 849.82 409.4C850.15 409.19 850.24 408.76 850.03 408.44C849.112 407.014 847.679 405.997 846.03 405.6C844.376 405.218 842.638 405.491 841.18 406.36C841.027 406.458 840.917 406.612 840.876 406.79C840.834 406.967 840.863 407.154 840.957 407.31C841.051 407.466 841.202 407.58 841.378 407.626C841.554 407.673 841.741 407.649 841.9 407.56C843.03 406.88 844.42 406.66 845.71 406.97C847 407.27 848.14 408.09 848.86 409.2C848.99 409.39 849.22 409.51 849.45 409.51V409.51ZM749.28 408.68C749.63 408.68 749.93 408.42 749.97 408.07C749.994 407.887 749.944 407.702 749.831 407.556C749.719 407.41 749.553 407.314 749.37 407.29C747.1 407 744.45 405.56 743.65 403.03C742.74 400.15 744.58 397.2 745.42 396.06C746.24 394.94 747.23 393.91 748.19 392.91C749.07 391.99 749.98 391.04 750.79 390C751.83 388.67 752.76 387.12 753.63 385.25C753.697 385.085 753.698 384.9 753.634 384.734C753.569 384.568 753.444 384.433 753.283 384.356C753.122 384.279 752.938 384.267 752.768 384.322C752.598 384.376 752.456 384.494 752.37 384.65C751.54 386.42 750.66 387.89 749.69 389.13C748.93 390.11 748.04 391.03 747.19 391.93C746.2 392.96 745.18 394.03 744.3 395.22C742.27 397.98 741.55 400.98 742.33 403.44C743.19 406.14 745.95 408.24 749.2 408.66C749.22 408.67 749.25 408.68 749.28 408.68V408.68Z" fill="#BF453F"/>
<path d="M636.85 169.78C636.11 175.15 637.35 181.04 641.24 184.83C642.44 186 643.92 186.89 645.51 187.46C649.07 188.73 653.17 188.39 655.99 185.92L656.01 185.87C653.81 184.76 651.85 183.08 650.48 181.06C647.02 175.93 646.67 169.28 647.72 163.19C648.04 161.36 648.5 159.5 649.18 157.76C646.05 157.19 642.76 158.63 640.6 160.98C638.42 163.37 637.3 166.57 636.85 169.78ZM679.83 183.8C677.71 183.27 675.56 182.63 673.58 181.7L673.52 181.84C673.62 183.78 674.39 185.67 675.63 187.18C676.42 188.15 677.41 188.96 678.52 189.53H678.55C678.69 187.57 679.12 185.63 679.83 183.8Z" fill="#F8C7BD"/>
<path d="M661.1 169.4C660.73 174.09 661.06 179.09 663.67 183.01C664.46 184.21 665.52 185.25 666.72 186.06C669.39 187.87 672.78 188.55 675.63 187.19C674.4 185.68 673.63 183.79 673.52 181.85L673.58 181.71C672 180.97 670.54 180.02 669.29 178.8C666.48 176.04 665.1 171.46 667.08 168.06C667.71 166.96 668.72 166.02 669.96 165.77C671.07 165.54 672.21 165.89 673.29 166.24C674.57 166.65 675.86 167.06 677.14 167.47C678.18 163.63 679.34 159.77 681.52 156.46C683.04 154.16 685.17 152.14 687.63 150.97V150.96L687.57 150.84C683.67 147.49 678.68 144.44 673.67 145.58C670.36 146.33 667.88 148.7 666.07 151.64C664.88 153.56 663.98 155.73 663.32 157.84C662.146 161.597 661.401 165.475 661.1 169.4Z" fill="#F8C7BD"/>
<path d="M649.18 157.76C648.5 159.5 648.04 161.35 647.72 163.19C646.67 169.28 647.02 175.94 650.48 181.06C651.85 183.09 653.81 184.77 656.01 185.87C659.37 187.56 663.3 187.93 666.61 186.21L666.72 186.05C665.51 185.24 664.46 184.19 663.67 183C661.06 179.09 660.73 174.09 661.1 169.39C661.41 165.47 662.16 161.58 663.32 157.83C663.98 155.72 664.88 153.56 666.07 151.63L665.47 151.25C662.37 148.09 656.8 148.66 653.42 151.51C651.46 153.17 650.11 155.36 649.18 157.76Z" fill="#F8C7BD"/>
<path d="M677.14 167.46C675.86 167.05 674.57 166.64 673.29 166.23C672.21 165.88 671.08 165.53 669.96 165.76C668.72 166.01 667.71 166.96 667.08 168.05C665.11 171.45 666.48 176.03 669.29 178.79C670.54 180.01 672.01 180.95 673.58 181.7C675.55 182.63 677.71 183.27 679.83 183.8C679.12 185.64 678.69 187.57 678.54 189.54H678.51C677.395 188.964 676.412 188.164 675.62 187.19C672.77 188.55 669.38 187.88 666.71 186.06L666.6 186.22C663.29 187.94 659.36 187.57 656 185.88L655.98 185.93C653.16 188.4 649.06 188.74 645.5 187.47L645.46 187.6C644.86 190.88 645.11 194.31 646.18 197.47C647.67 201.9 650.69 205.71 651.97 210.2C652.82 213.16 652.85 216.32 652.16 219.75C667.28 221.41 682.7 220.35 697.46 216.65L697.45 216.58C698.99 208.45 703.13 201.09 706.53 193.54C709.93 186 712.65 177.68 711.11 169.54C710.01 163.73 706.74 158.45 702.35 154.5C699.48 151.9 695.88 149.77 692 149.88C690.48 149.92 689 150.31 687.63 150.96V150.97C685.16 152.14 683.04 154.16 681.52 156.46C679.34 159.77 678.18 163.62 677.14 167.46V167.46Z" fill="#F8C7BD"/>
<path d="M647.36 187.62C647.61 187.72 647.86 187.81 648.1 187.91C648.04 187.99 647.99 188.07 647.93 188.14H650.34L650.37 187.93C649.42 187.73 648.48 187.52 647.53 187.32C647.47 187.42 647.41 187.52 647.36 187.62V187.62ZM661.99 187.35C661.95 186.71 661.46 186.99 661.13 186.92C661.17 187.56 661.67 187.29 661.99 187.35ZM676.15 187.03H675.29V187.24H676.15V187.03Z" fill="#EE7C78"/>
<path d="M661.14 186.92C661.04 186.8 660.95 186.68 660.85 186.56C660.8 186.68 660.76 186.8 660.71 186.92H661.14Z" fill="#EE7C78"/>
<path d="M677.17 168.17C677.48 168.17 677.76 167.97 677.84 167.65C678.89 163.79 680.01 160.05 682.13 156.85C683.67 154.53 685.74 152.66 687.96 151.6C688.31 151.43 688.46 151.02 688.29 150.67C688.251 150.587 688.196 150.512 688.128 150.451C688.06 150.389 687.981 150.341 687.894 150.311C687.808 150.28 687.716 150.267 687.624 150.272C687.532 150.277 687.443 150.3 687.36 150.34C684.91 151.51 682.64 153.55 680.97 156.08C678.74 159.46 677.58 163.31 676.5 167.29C676.4 167.66 676.62 168.05 676.99 168.15C677.05 168.16 677.11 168.17 677.17 168.17Z" fill="#575756"/>
<path d="M682.35 204.1C682.49 204.1 682.63 204.06 682.76 203.97C683.07 203.75 683.15 203.31 682.92 203C679.08 197.64 678.14 190.21 680.52 184.06C680.59 183.87 680.58 183.66 680.49 183.49C680.445 183.402 680.381 183.324 680.303 183.262C680.226 183.2 680.136 183.155 680.04 183.13C676.53 182.25 672.57 181 669.82 178.31C667.4 175.94 665.84 171.67 667.72 168.42C668.33 167.36 669.21 166.65 670.14 166.46C671.1 166.27 672.17 166.61 673.12 166.91L688.17 171.73C690.99 172.63 693.91 173.57 696.39 175.22C699.07 177 700.82 179.48 701.2 182.01C701.214 182.101 701.245 182.189 701.293 182.268C701.341 182.347 701.404 182.416 701.478 182.471C701.552 182.525 701.636 182.565 701.726 182.587C701.816 182.609 701.909 182.614 702 182.6C702.091 182.586 702.179 182.555 702.258 182.507C702.337 182.459 702.406 182.396 702.461 182.322C702.515 182.248 702.555 182.164 702.577 182.074C702.599 181.984 702.604 181.891 702.59 181.8C702.15 178.88 700.17 176.05 697.17 174.06C694.53 172.3 691.52 171.34 688.6 170.4L673.55 165.58C672.5 165.24 671.19 164.82 669.87 165.09C668.56 165.36 667.34 166.31 666.52 167.72C664.26 171.62 665.98 176.5 668.85 179.31C671.64 182.04 675.46 183.38 678.96 184.3C676.77 190.72 677.85 198.3 681.8 203.82C681.91 204 682.13 204.1 682.35 204.1V204.1Z" fill="#575756"/>
<path d="M693.16 173.44C693.45 173.44 693.73 173.25 693.82 172.96C694.63 170.54 695.86 168.32 697.48 166.36C697.73 166.06 697.68 165.62 697.39 165.38C697.1 165.14 696.65 165.18 696.41 165.47C694.68 167.556 693.354 169.947 692.5 172.52C692.38 172.89 692.58 173.28 692.94 173.4C693.01 173.43 693.08 173.44 693.16 173.44V173.44ZM678.54 190.24C678.697 190.24 678.849 190.187 678.972 190.09C679.095 189.993 679.182 189.858 679.218 189.706C679.255 189.553 679.24 189.393 679.175 189.251C679.11 189.108 678.999 188.992 678.86 188.92C676.21 187.57 674.41 184.78 674.25 181.81C674.246 181.719 674.223 181.629 674.184 181.546C674.145 181.464 674.09 181.39 674.022 181.328C673.954 181.267 673.875 181.22 673.789 181.189C673.703 181.158 673.611 181.145 673.52 181.15C673.13 181.17 672.84 181.5 672.86 181.88C673.04 185.33 675.15 188.58 678.23 190.16C678.33 190.21 678.44 190.24 678.54 190.24Z" fill="#575756"/>
<path d="M672.38 188.59C673.62 188.59 674.8 188.35 675.82 187.89C676.17 187.73 676.33 187.32 676.17 186.97C676.01 186.62 675.6 186.46 675.25 186.62C671.3 188.41 666.47 185.94 664.27 182.63C662.17 179.47 661.37 175.16 661.82 169.46C662.13 165.6 662.87 161.76 664.02 158.05C664.73 155.76 665.63 153.72 666.69 152.01C666.787 151.852 666.817 151.662 666.774 151.482C666.731 151.302 666.618 151.147 666.46 151.05C666.302 150.953 666.112 150.923 665.932 150.966C665.752 151.009 665.597 151.122 665.5 151.28C664.38 153.09 663.43 155.23 662.68 157.64C661.495 161.451 660.737 165.382 660.42 169.36C659.94 175.38 660.82 179.98 663.1 183.41C665.47 186.96 669.14 188.58 672.38 188.59V188.59Z" fill="#575756"/>
<path d="M661.9 188.06C663.61 188.06 665.33 187.69 666.95 186.85C667.103 186.759 667.215 186.613 667.264 186.442C667.313 186.27 667.295 186.087 667.213 185.929C667.132 185.771 666.993 185.65 666.825 185.59C666.657 185.531 666.473 185.538 666.31 185.61C662.07 187.81 655.04 186.55 651.08 180.68C647.36 175.17 647.59 168.2 648.44 163.32C648.85 160.94 649.46 158.85 650.25 157.09C650.41 156.74 650.25 156.32 649.9 156.17C649.55 156.01 649.13 156.17 648.98 156.52C648.13 158.41 647.5 160.56 647.06 163.08C646.17 168.21 645.94 175.56 649.92 181.46C652.44 185.18 657.15 188.06 661.9 188.06Z" fill="#575756"/>
<path d="M649.64 188.89C652.23 188.89 654.65 188.06 656.48 186.45C656.77 186.2 656.8 185.75 656.54 185.46C656.479 185.391 656.405 185.334 656.322 185.293C656.24 185.253 656.15 185.229 656.058 185.224C655.965 185.218 655.873 185.231 655.786 185.261C655.699 185.291 655.619 185.339 655.55 185.4C653.1 187.55 649.35 188.09 645.77 186.8C645.596 186.738 645.405 186.748 645.238 186.826C645.072 186.905 644.943 187.047 644.88 187.22C644.75 187.58 644.94 187.98 645.3 188.11C646.74 188.64 648.21 188.89 649.64 188.89V188.89Z" fill="#575756"/>
<path d="M968.85 187.56C969.94 189.63 970.74 191.86 971.25 194.14C973.42 194.06 975.55 193.08 977 191.46L977.13 191.39C976.72 190.64 976.36 189.87 976.07 189.07C973.59 188.87 971.13 188.13 968.85 187.56V187.56ZM1001.93 164.11C1001.31 164.36 1000.73 164.7 1000.19 165.1C998.53 166.39 997.46 168.28 996.51 170.16C994.141 174.856 992.248 179.777 990.86 184.85C989.83 188.61 989.2 193 991.59 196.07C991.62 196.11 991.65 196.14 991.68 196.18C994.09 199.17 998.42 199.62 1002.29 199.67C1002.13 199.41 1001.99 199.13 1001.88 198.83C1001.34 197.37 1001.44 195.76 1001.64 194.22C1002.53 187.35 1005.32 180.72 1009.6 175.27C1010.56 174.05 1011.67 172.84 1013.04 172.21L1012.89 171.91C1012.52 168.71 1011.41 165.71 1008.29 164.23C1006.3 163.3 1003.94 163.29 1001.93 164.11V164.11ZM970.63 158.55C965.75 163.08 962.75 167.9 960.6 174.2V174.21C961.73 174.2 962.88 174.32 964.01 174.43L976.82 175.73C977.37 175.79 977.94 175.85 978.51 175.94C979.52 172.14 981.16 168.51 983.34 165.23C984.11 164.08 984.94 162.96 985.91 161.97L985.63 161.69C983.66 158.81 980.44 156.82 976.98 156.33C975.86 156.16 974.68 156.16 973.61 156.54C972.46 156.94 971.52 157.73 970.63 158.55V158.55Z" fill="#F8C7BD"/>
<path d="M980.33 188.77C978.93 189.14 977.5 189.2 976.07 189.08C976.37 189.87 976.72 190.65 977.13 191.4C978.45 193.8 980.33 195.87 982.78 197.03C985.56 198.34 989.13 198.15 991.52 196.32L991.68 196.2C991.65 196.16 991.62 196.13 991.59 196.09C989.21 193.02 989.84 188.62 990.86 184.87C992.25 179.8 994.14 174.87 996.51 170.18C997.46 168.3 998.53 166.41 1000.19 165.12C1000.73 164.71 1001.31 164.38 1001.93 164.13C1000.56 162.04 999.06 159.88 996.79 158.85C994.33 157.72 991.35 158.17 988.99 159.52C987.84 160.18 986.82 161.03 985.9 161.99C984.94 162.99 984.1 164.1 983.33 165.25C981.145 168.532 979.514 172.15 978.5 175.96C981.37 176.39 984.29 177.3 985.56 179.8C987.35 183.32 984.17 187.75 980.33 188.77V188.77Z" fill="#F8C7BD"/>
<path d="M1002.29 199.68C998.42 199.63 994.09 199.18 991.68 196.19L991.52 196.31C989.13 198.14 985.56 198.33 982.78 197.02C980.33 195.87 978.45 193.79 977.13 191.39L977 191.46C975.55 193.07 973.41 194.05 971.25 194.14C970.74 191.86 969.94 189.63 968.85 187.56C971.13 188.14 973.59 188.88 976.07 189.08C977.49 189.2 978.93 189.14 980.33 188.77C984.18 187.75 987.36 183.32 985.57 179.77C984.3 177.27 981.38 176.36 978.51 175.93C977.94 175.85 977.37 175.78 976.82 175.72L964.01 174.42C962.88 174.31 961.73 174.19 960.6 174.2C959.47 174.2 958.34 174.32 957.26 174.67C952.91 176.09 950.53 180.96 950.32 185.53C950.1 190.1 951.54 194.55 952.46 199.03C954.557 209.426 953.842 220.193 950.39 230.22C967.5 235.26 983.1 239.07 1000.76 239.03C1000.86 238.51 1000.97 238 1001.11 237.48V237.47C1002.19 233.04 1004.13 228.84 1006.8 225.14C1009.28 221.72 1012.35 218.77 1014.94 215.44C1022.83 205.3 1025.91 191.59 1023.12 179.05C1022.75 176.89 1021.24 174.65 1019.16 173.17C1017.7 172.13 1015.85 171.46 1014.09 171.84C1013.73 171.92 1013.37 172.04 1013.04 172.19C1011.67 172.82 1010.56 174.04 1009.6 175.25C1005.32 180.7 1002.53 187.33 1001.64 194.2C1001.43 195.74 1001.33 197.35 1001.88 198.81C1001.98 199.13 1002.12 199.42 1002.29 199.68V199.68Z" fill="#F8C7BD"/>
<path d="M997.99 199.95C998.38 199.69 998.87 199.37 999.46 198.98C998.41 198.77 997.49 198.59 996.41 198.37C996.46 198.65 996.42 199.04 996.58 199.18C996.93 199.48 997.39 199.64 997.99 199.95ZM1002.55 199.51C1002.34 199.84 1002.18 200.11 1001.98 200.42C1002.52 200.52 1003.03 200.65 1002.55 199.51ZM1007.57 202.28V202.99L1007.77 203.02C1007.83 202.79 1007.88 202.55 1007.94 202.32C1007.81 202.31 1007.69 202.29 1007.57 202.28V202.28ZM992.63 196.21V196.64H992.77V196.21H992.63Z" fill="#EE7C78"/>
<path d="M970.33 209.99C970.61 209.99 970.88 209.81 970.99 209.53C973.44 202.84 973.12 195.15 970.18 188.66C973.41 189.51 977.04 190.42 980.54 189.49C982.95 188.85 985.18 186.96 986.2 184.67C987 182.9 987 181.06 986.21 179.5C984.58 176.27 980.6 175.45 976.91 175.08L964.1 173.77C963.03 173.66 961.81 173.56 960.62 173.54C960.23 173.54 959.92 173.86 959.92 174.24C959.92 174.62 960.23 174.94 960.62 174.94H960.67C961.79 174.94 962.94 175.06 963.95 175.16L976.76 176.47C980.07 176.81 983.63 177.51 984.95 180.13C985.71 181.64 985.35 183.12 984.91 184.09C984.05 186.01 982.18 187.6 980.16 188.13C976.93 188.99 973.55 188.1 970.28 187.24C969.86 187.13 969.44 187.02 969.03 186.92C968.899 186.886 968.76 186.892 968.632 186.936C968.504 186.981 968.392 187.062 968.31 187.17C968.226 187.276 968.175 187.405 968.162 187.54C968.15 187.675 968.177 187.81 968.24 187.93C971.62 194.35 972.14 202.24 969.65 209.05C969.52 209.41 969.7 209.81 970.07 209.95C970.17 209.97 970.25 209.99 970.33 209.99V209.99Z" fill="#575756"/>
<path d="M978.54 176.69C978.85 176.69 979.13 176.48 979.21 176.17C980.2 172.43 981.8 168.89 983.95 165.66C984.78 164.41 985.58 163.39 986.41 162.52C986.68 162.24 986.67 161.8 986.39 161.53C986.324 161.466 986.246 161.416 986.16 161.382C986.074 161.348 985.983 161.332 985.891 161.334C985.799 161.335 985.708 161.356 985.624 161.393C985.54 161.43 985.464 161.483 985.4 161.55C984.52 162.48 983.66 163.57 982.79 164.88C980.563 168.226 978.901 171.915 977.87 175.8C977.77 176.17 977.99 176.56 978.37 176.65C978.42 176.68 978.48 176.69 978.54 176.69ZM988.32 200.81C990.27 200.81 992.17 200.23 993.64 199.1C993.787 198.987 993.883 198.821 993.908 198.637C993.932 198.453 993.882 198.267 993.77 198.12C993.657 197.973 993.491 197.877 993.307 197.852C993.123 197.828 992.937 197.878 992.79 197.99C990.7 199.6 987.4 199.86 984.78 198.63C982.1 197.37 979.87 194.76 978.49 191.26C978.457 191.174 978.407 191.095 978.343 191.029C978.279 190.963 978.202 190.91 978.117 190.873C978.032 190.837 977.941 190.818 977.849 190.817C977.757 190.817 977.665 190.835 977.58 190.87C977.22 191.01 977.04 191.42 977.19 191.78C978.7 195.61 981.18 198.5 984.19 199.91C985.49 200.51 986.91 200.81 988.32 200.81V200.81Z" fill="#575756"/>
<path d="M1002.58 200.43C1002.76 200.43 1002.94 200.358 1003.07 200.229C1003.2 200.099 1003.28 199.924 1003.28 199.74C1003.28 199.35 1002.97 199.04 1002.59 199.03C998.69 198.99 994.4 198.57 992.18 195.7C989.85 192.7 990.72 188.21 991.58 185.08C992.95 180.07 994.84 175.17 997.18 170.53C998.03 168.84 999.08 166.94 1000.67 165.71C1001.17 165.32 1001.74 165 1002.35 164.76C1002.44 164.727 1002.51 164.676 1002.58 164.613C1002.65 164.549 1002.7 164.472 1002.74 164.388C1002.78 164.303 1002.8 164.212 1002.8 164.12C1002.8 164.028 1002.78 163.936 1002.75 163.85C1002.72 163.764 1002.67 163.685 1002.6 163.619C1002.54 163.552 1002.46 163.499 1002.38 163.462C1002.29 163.424 1002.2 163.404 1002.11 163.402C1002.02 163.4 1001.93 163.417 1001.84 163.45C1001.1 163.74 1000.42 164.12 999.81 164.59C997.99 166 996.85 168.07 995.93 169.89C993.54 174.62 991.63 179.6 990.23 184.7C989.3 188.11 988.37 193.05 991.08 196.54C993.66 199.89 998.33 200.39 1002.58 200.43C1002.57 200.43 1002.57 200.43 1002.58 200.43V200.43Z" fill="#575756"/>
<path d="M1008.21 203.4C1009.5 203.4 1010.78 203.12 1011.89 202.58C1015.03 201.04 1017.47 197.69 1018.75 193.14C1018.85 192.77 1018.64 192.38 1018.27 192.28C1017.9 192.18 1017.51 192.39 1017.41 192.76C1016.73 195.17 1015.03 199.49 1011.28 201.33C1009.56 202.17 1007.36 202.24 1005.53 201.51C1004.09 200.93 1003.03 199.92 1002.56 198.64C1002.07 197.31 1002.17 195.8 1002.36 194.37C1003.25 187.58 1005.95 181.14 1010.18 175.75C1010.96 174.76 1012.02 173.54 1013.3 172.92C1013.65 172.75 1013.79 172.34 1013.63 171.99C1013.55 171.824 1013.41 171.697 1013.23 171.635C1013.06 171.573 1012.87 171.582 1012.7 171.66C1011.16 172.4 1009.96 173.77 1009.09 174.88C1004.7 180.47 1001.9 187.136 1000.98 194.18C1000.77 195.79 1000.66 197.51 1001.25 199.12C1001.86 200.77 1003.19 202.07 1005.01 202.8C1006.01 203.2 1007.11 203.4 1008.21 203.4V203.4ZM971.45 194.88H971.49C973.8 194.74 976.01 193.69 977.55 191.98C977.81 191.69 977.79 191.25 977.5 190.99C977.432 190.928 977.352 190.88 977.265 190.849C977.179 190.818 977.087 190.804 976.995 190.809C976.903 190.813 976.812 190.836 976.729 190.876C976.646 190.916 976.572 190.971 976.51 191.04C975.186 192.483 973.354 193.357 971.4 193.48C971.01 193.5 970.72 193.83 970.74 194.22C970.78 194.59 971.08 194.88 971.45 194.88Z" fill="#575756"/>
<path d="M782.15 509.23C785.06 509.23 787.97 508.98 790.82 508.34C797.5 506.83 803.38 503.31 809.06 499.91L807.98 498.11C802.44 501.43 796.71 504.85 790.36 506.29C783.6 507.82 776.4 506.98 769.61 506L769.31 508.07C773.49 508.68 777.82 509.23 782.15 509.23Z" fill="#323B6E"/>
<path d="M853.34 319.15C853.99 318.39 855.49 317.78 858.81 317.61C858.81 317.61 856.17 315.89 852.62 315.79C851.96 311.04 849.57 302.63 841.64 300.55C841.64 300.55 845.89 302.91 846.41 307.96C837.28 298.2 817.62 291.04 762.98 295.24C690.97 300.77 714.31 348.24 723.58 353.93C732.85 359.62 756.43 344.24 773.78 345.73C791.13 347.22 794.23 373.02 800.09 376.59C805.95 380.15 803.69 373.89 811.68 370.22C819.68 366.55 820.33 380.13 817.96 388.94C815.59 397.76 826.45 409.44 826.45 409.44L837.61 397.24C848.77 385.04 859.61 333.2 854.66 322.12C854.22 321.14 853.78 320.15 853.34 319.15V319.15Z" fill="#323431"/>
<path d="M222.777 233.826L238.277 233.743L238.689 310.893L223.189 310.976L222.777 233.826Z" fill="#E0E0E0"/>
<path d="M88.4484 234.151L128.598 233.936L128.827 276.526L88.6767 276.741L88.4484 234.151Z" fill="#EBEBEB"/>
<path d="M128.409 233.941L168.559 233.726L168.788 276.316L128.638 276.531L128.409 233.941Z" fill="#F5F4F5"/>
<path d="M88.51 245.91C115.19 246.13 141.94 245.97 168.62 245.54C169.17 245.53 169.17 244.69 168.62 244.69C141.94 244.54 115.19 244.67 88.51 245.18C88.04 245.19 88.04 245.91 88.51 245.91Z" fill="#E0E0E0"/>
<path d="M63.4194 276.21L136.369 275.819L136.555 310.529L63.6055 310.92L63.4194 276.21Z" fill="#EBEBEB"/>
<path d="M136.02 275.819L208.97 275.428L209.156 310.138L136.206 310.529L136.02 275.819Z" fill="#F5F4F5"/>
<path d="M63.47 285.86C111.93 286.41 160.56 285.92 209.02 285.14C209.57 285.13 209.57 284.29 209.02 284.29C160.56 284.03 111.92 284.06 63.47 285.13C62.99 285.14 63 285.86 63.47 285.86V285.86ZM36.19 310.92H318.81V323.35H36.19V310.92Z" fill="#E0E0E0"/>
<path d="M82.46 316.89H93.93V359.32H82.46V316.89ZM253.73 316.89H265.2V359.32H253.73V316.89Z" fill="#E0E0E0"/>
<path d="M237.899 205.056L253.399 204.973L253.966 311.083L238.466 311.166L237.899 205.056Z" fill="#EBEBEB"/>
<path d="M253.543 224.849L277.633 224.72L278.094 310.71L254.004 310.839L253.543 224.849Z" fill="#F5F4F5"/>
<path d="M277.47 241.28C277.47 241.51 272.08 241.7 265.42 241.7C258.77 241.7 253.37 241.51 253.37 241.28C253.37 241.05 258.76 240.86 265.42 240.86C272.07 240.87 277.47 241.05 277.47 241.28ZM277.47 237.67C277.47 237.9 272.08 238.09 265.42 238.09C258.77 238.09 253.37 237.9 253.37 237.67C253.37 237.44 258.76 237.25 265.42 237.25C272.07 237.25 277.47 237.44 277.47 237.67ZM277.47 297.77C277.47 298 272.08 298.19 265.42 298.19C258.77 298.19 253.37 298 253.37 297.77C253.37 297.54 258.76 297.35 265.42 297.35C272.07 297.35 277.47 297.54 277.47 297.77ZM277.47 294.16C277.47 294.39 272.08 294.58 265.42 294.58C258.77 294.58 253.37 294.39 253.37 294.16C253.37 293.93 258.76 293.74 265.42 293.74C272.07 293.74 277.47 293.93 277.47 294.16ZM265.81 286.27C265.58 286.27 265.39 277.59 265.39 266.9C265.39 256.2 265.58 247.52 265.81 247.52C266.04 247.52 266.23 256.19 266.23 266.9C266.23 277.6 266.04 286.27 265.81 286.27Z" fill="#E0E0E0"/>
<path d="M277.73 245.83H303.95V310.73H277.73V245.83Z" fill="#EBEBEB"/>
<path d="M245.42 227.54C247.883 227.54 249.88 225.543 249.88 223.08C249.88 220.617 247.883 218.62 245.42 218.62C242.957 218.62 240.96 220.617 240.96 223.08C240.96 225.543 242.957 227.54 245.42 227.54Z" fill="#E0E0E0"/>
<path d="M244.05 235.34H246.8V298.46H244.05V235.34Z" fill="#E0E0E0"/>
<path d="M158.16 706.01H366.72V716.74H158.16V706.01Z" fill="#455A64"/>
<path d="M328.31 597.38C328.32 597.37 328.27 597.26 328.16 597.05C328.02 596.8 327.86 596.49 327.66 596.12C327.2 595.31 326.48 594.13 325.46 592.68C323.4 589.83 320.07 585.73 314.59 582.41C311.86 580.78 308.58 579.37 304.83 578.83C301.11 578.3 296.96 578.58 292.98 580.07C289.02 581.53 285.16 584.3 282.84 588.37C280.51 592.44 279.76 597.21 278.4 601.78C277.71 604.06 276.83 606.26 275.57 608.17C274.3 610.08 272.57 611.58 270.76 612.91C268.95 614.25 267.05 615.45 265.33 616.86C263.642 618.238 262.157 619.847 260.92 621.64C258.5 625.14 257.13 629.01 256.4 632.68C255.66 636.36 255.58 639.88 255.8 643.05C256.25 649.4 257.59 654.38 258.45 657.8C258.9 659.51 259.28 660.83 259.54 661.72C259.8 662.61 259.96 663.08 259.98 663.07C260.01 663.06 259.91 662.58 259.7 661.68C259.47 660.71 259.16 659.39 258.76 657.72C257.99 654.28 256.74 649.29 256.38 643.01C256.21 639.88 256.32 636.42 257.07 632.81C257.81 629.22 259.18 625.45 261.54 622.07C262.72 620.38 264.15 618.83 265.82 617.47C267.5 616.11 269.38 614.92 271.23 613.56C273.07 612.21 274.9 610.64 276.25 608.62C277.58 606.61 278.49 604.33 279.19 602.01C280.57 597.37 281.32 592.66 283.55 588.77C285.75 584.88 289.43 582.2 293.25 580.78C297.1 579.31 301.12 579.02 304.74 579.5C308.37 580 311.6 581.35 314.29 582.91C319.71 586.11 323.07 590.11 325.2 592.87C326.26 594.28 327.01 595.42 327.52 596.2C328.01 596.98 328.28 597.39 328.31 597.38V597.38Z" fill="#E0E0E0"/>
<path d="M268.62 614.11C269.88 612.94 270.49 613.75 272.18 614.06C273.87 614.37 275.4 615.27 276.74 616.34C282.58 621 285.17 629.37 282.97 636.51C277.6 636.8 272.16 633.95 269.36 629.36C266.55 624.77 266.49 618.63 269.2 613.98L268.62 614.11ZM320.25 590.61C320.88 589.01 321.78 589.48 323.44 589.04C325.1 588.59 326.87 588.74 328.54 589.13C335.82 590.82 341.75 597.26 342.84 604.66C338.11 607.24 331.98 607 327.47 604.06C322.96 601.12 320.26 595.61 320.71 590.25L320.25 590.61ZM257.25 645.92C260.67 641.97 265.96 639.7 271.18 639.96C276.4 640.21 281.45 642.98 284.47 647.25C280.66 650.74 275.53 652.77 270.35 652.82C265.18 652.87 260.01 650.49 256.13 647.07L257.25 645.92ZM261.49 622.17C256.24 622.32 250.98 619.97 247.59 615.97C244.2 611.96 242.75 606.39 243.77 601.24C249.26 599.98 255.37 601.95 259.1 606.18C262.83 610.41 264.01 616.72 262.07 622.01L261.49 622.17ZM279.66 594.24C274.76 596.13 269.02 595.66 264.49 593.01C259.96 590.36 256.74 585.58 255.99 580.38C260.75 577.37 267.17 577.19 272.09 579.94C277.01 582.69 280.22 588.24 280.15 593.88L279.66 594.24ZM285.75 585.13C290.65 583.24 296.39 583.71 300.92 586.36C305.45 589.01 308.67 593.79 309.42 598.99C304.66 602 298.24 602.18 293.32 599.43C288.4 596.68 285.19 591.13 285.26 585.49L285.75 585.13ZM293.01 580.22C288.04 578.54 283.92 574.51 282.13 569.57C280.34 564.64 280.93 558.9 283.67 554.43C289.26 555.16 294.3 559.13 296.33 564.39C298.35 569.65 297.27 575.98 293.62 580.26L293.01 580.22ZM311.62 581.11C309.83 576.18 310.41 570.44 313.15 565.97C315.89 561.49 320.73 558.37 325.94 557.72C328.86 562.54 328.9 568.96 326.06 573.82C323.21 578.68 317.6 581.79 311.96 581.61" fill="#E0E0E0"/>
<path d="M236.6 706.9L226.69 644.67L302.67 645.59L295.17 706.09" fill="#263239"/>
<path d="M269.39 633.3C273.47 635.85 278.26 636.25 282 634.37C285.74 632.48 288.36 628.35 288.9 623.47C284.71 621.47 280.14 621.23 276.31 622.83C272.48 624.42 269.44 627.83 267.94 632.2L269.39 633.3ZM304.12 646.7C308.2 649.25 312.99 649.65 316.73 647.77C320.47 645.88 323.09 641.74 323.63 636.87C319.44 634.87 314.87 634.63 311.04 636.23C307.21 637.82 304.17 641.23 302.67 645.6L304.12 646.7ZM284.62 616.78C286.63 621.15 290.4 624.12 294.57 624.61C298.73 625.09 303.2 623.08 306.33 619.3C303.93 615.32 300.24 612.61 296.17 611.84C292.1 611.07 287.69 612.24 284.03 615.06L284.62 616.78ZM297.3 632.28C292.49 632.21 288.18 634.34 285.96 637.89C283.74 641.44 283.63 646.34 285.7 650.79C290.32 650.34 294.36 648.17 296.81 644.83C299.26 641.49 300.1 637 299.13 632.48L297.3 632.28ZM309.54 656.78C307.45 661.11 307.56 665.91 309.84 669.43C312.12 672.95 316.52 675.1 321.42 675.11C322.96 670.73 322.7 666.16 320.7 662.53C318.7 658.9 315.1 657.1 310.6 656.08" fill="#5957D9"/>
<path d="M329.74 659.66C329.67 659.75 328.92 658.56 326.74 657.75C325.67 657.34 324.26 657.08 322.62 657.03C320.98 656.96 319.11 657.19 317.01 657.36C314.93 657.5 312.53 657.64 310.11 656.77C307.66 655.92 305.65 653.79 304.41 651.26C303.11 648.73 302.52 645.8 301.95 642.86C301.36 639.93 300.73 636.85 299.02 634.24C297.34 631.61 294.89 629.64 292.6 627.71C290.29 625.79 288.03 623.84 286.45 621.47C283.3 616.71 282.76 611.32 283.39 607.17C284.02 602.96 285.68 599.83 287.12 597.98C287.86 597.06 288.46 596.37 288.94 595.97C289.39 595.55 289.64 595.34 289.66 595.36C289.68 595.38 289.47 595.63 289.06 596.09C288.62 596.52 288.07 597.24 287.38 598.17C286.05 600.05 284.51 603.15 283.97 607.25C283.43 611.3 284.03 616.51 287.08 621.05C288.6 623.3 290.81 625.18 293.12 627.1C295.41 629.03 297.94 631.02 299.72 633.8C301.53 636.58 302.16 639.78 302.75 642.71C303.31 645.67 303.87 648.5 305.09 650.93C306.26 653.36 308.1 655.33 310.35 656.14C312.58 656.98 314.91 656.9 316.97 656.79C319.04 656.66 320.95 656.47 322.64 656.58C324.32 656.68 325.76 656.99 326.86 657.46C327.96 657.92 328.71 658.5 329.15 658.94C329.38 659.15 329.52 659.35 329.62 659.47C329.7 659.58 329.75 659.65 329.74 659.66V659.66Z" fill="#5957D9"/>
<path d="M329.74 659.66C329.67 659.75 328.92 658.56 326.74 657.75C325.67 657.34 324.26 657.08 322.62 657.03C320.98 656.96 319.11 657.19 317.01 657.36C314.93 657.5 312.53 657.64 310.11 656.77C307.66 655.92 305.65 653.79 304.41 651.26C303.11 648.73 302.52 645.8 301.95 642.86C301.36 639.93 300.73 636.85 299.02 634.24C297.34 631.61 294.89 629.64 292.6 627.71C290.29 625.79 288.03 623.84 286.45 621.47C283.3 616.71 282.76 611.32 283.39 607.17C284.02 602.96 285.68 599.83 287.12 597.98C287.86 597.06 288.46 596.37 288.94 595.97C289.39 595.55 289.64 595.34 289.66 595.36C289.68 595.38 289.47 595.63 289.06 596.09C288.62 596.52 288.07 597.24 287.38 598.17C286.05 600.05 284.51 603.15 283.97 607.25C283.43 611.3 284.03 616.51 287.08 621.05C288.6 623.3 290.81 625.18 293.12 627.1C295.41 629.03 297.94 631.02 299.72 633.8C301.53 636.58 302.16 639.78 302.75 642.71C303.31 645.67 303.87 648.5 305.09 650.93C306.26 653.36 308.1 655.33 310.35 656.14C312.58 656.98 314.91 656.9 316.97 656.79C319.04 656.66 320.95 656.47 322.64 656.58C324.32 656.68 325.76 656.99 326.86 657.46C327.96 657.92 328.71 658.5 329.15 658.94C329.38 659.15 329.52 659.35 329.62 659.47C329.7 659.58 329.75 659.65 329.74 659.66V659.66ZM184.69 666.03C185.01 659.68 181.94 653.27 176.8 649.53C171.66 645.79 164.61 644.85 158.67 647.1C163.05 657.18 173.08 664.58 184 665.8L184.69 666.03ZM179.67 668.68C175.95 672.76 176.19 679.32 178.85 684.16C181.51 688.99 186.08 692.44 190.67 695.51C192.21 690.31 192 684.61 190.08 679.54C188.128 674.43 184.56 670.097 179.92 667.2L179.67 668.68ZM197.67 649.55C198.26 655.49 201.36 661.13 206.06 664.81C210.75 668.49 216.98 670.15 222.88 669.31C221.44 663.34 219.04 657.32 214.43 653.27C209.82 649.22 202.54 647.71 197.43 651.12L197.67 649.55ZM197.55 643.46C196.62 638.02 191.25 634.08 185.76 633.57C180.27 633.06 174.84 635.4 170.44 638.72C173.74 642.5 178.5 644.95 183.49 645.44C188.48 645.93 193.63 644.46 197.6 641.4L197.55 643.46ZM169.25 689.7C164.03 694.15 162.73 702.09 164.89 708.6C167.06 715.11 172.14 720.3 177.84 724.11C180.03 717.66 181.41 710.74 180.25 704.02C179.09 697.3 175.05 690.82 168.81 688.08L169.25 689.7ZM196.71 628.2C199.46 624.15 204.15 621.48 209.04 621.2C213.93 620.91 218.9 623.01 222.1 626.72C219.98 631.47 215 634.8 209.8 634.93C204.6 635.06 199.45 632 197.1 627.36L196.71 628.2ZM203.1 612.53C197.48 614.24 191.15 613.43 186.15 610.36C181.15 607.29 177.55 602.02 176.53 596.23C180.71 595.86 184.95 595.67 189.08 596.41C193.21 597.15 197.27 598.88 200.2 601.89C203.12 604.89 203.96 608.42 203.1 612.53V612.53ZM215.15 608.47C211.27 605.3 208.92 600.35 208.9 595.35C208.88 590.34 211.2 585.38 215.05 582.18C218.821 586.772 221.382 592.234 222.5 598.07C222.92 600.25 223.12 602.54 222.44 604.64C221.76 606.75 220.03 608.64 217.84 608.94" fill="#5957D9"/>
<path d="M184.69 666.03C185.01 659.68 181.94 653.27 176.8 649.53C171.66 645.79 164.61 644.85 158.67 647.1C163.05 657.18 173.08 664.58 184 665.8L184.69 666.03ZM179.67 668.68C175.95 672.76 176.19 679.32 178.85 684.16C181.51 688.99 186.08 692.44 190.67 695.51C192.21 690.31 192 684.61 190.08 679.54C188.128 674.43 184.56 670.097 179.92 667.2L179.67 668.68ZM197.67 649.55C198.26 655.49 201.36 661.13 206.06 664.81C210.75 668.49 216.98 670.15 222.88 669.31C221.44 663.34 219.04 657.32 214.43 653.27C209.82 649.22 202.54 647.71 197.43 651.12L197.67 649.55ZM197.55 643.46C196.62 638.02 191.25 634.08 185.76 633.57C180.27 633.06 174.84 635.4 170.44 638.72C173.74 642.5 178.5 644.95 183.49 645.44C188.48 645.93 193.63 644.46 197.6 641.4L197.55 643.46ZM169.25 689.7C164.03 694.15 162.73 702.09 164.89 708.6C167.06 715.11 172.14 720.3 177.84 724.11C180.03 717.66 181.41 710.74 180.25 704.02C179.09 697.3 175.05 690.82 168.81 688.08L169.25 689.7ZM196.71 628.2C199.46 624.15 204.15 621.48 209.04 621.2C213.93 620.91 218.9 623.01 222.1 626.72C219.98 631.47 215 634.8 209.8 634.93C204.6 635.06 199.45 632 197.1 627.36L196.71 628.2ZM203.1 612.53C197.48 614.24 191.15 613.43 186.15 610.36C181.15 607.29 177.55 602.02 176.53 596.23C180.71 595.86 184.95 595.67 189.08 596.41C193.21 597.15 197.27 598.88 200.2 601.89C203.12 604.89 203.96 608.42 203.1 612.53V612.53ZM215.15 608.47C211.27 605.3 208.92 600.35 208.9 595.35C208.88 590.34 211.2 585.38 215.05 582.18C218.821 586.772 221.382 592.234 222.5 598.07C222.92 600.25 223.12 602.54 222.44 604.64C221.76 606.75 220.03 608.64 217.84 608.94" fill="black"/>
<path d="M236 646.67C235.99 646.67 235.99 646.52 236 646.24C236.02 645.91 236.05 645.5 236.08 644.99C236.15 643.89 236.25 642.27 236.29 640.18C236.3 636.05 236.29 629.82 233.46 622.92C232.01 619.53 229.82 615.98 226.52 613.15C223.28 610.28 218.76 608.37 213.88 608.5C211.47 608.55 208.98 609.1 206.75 610.29C204.5 611.43 202.62 613.32 201.24 615.55C198.49 620.09 197.8 625.8 198.04 631.42C198.24 637.09 199.05 642.68 198.42 648.13C198.1 650.84 197.45 653.47 196.34 655.87C195.25 658.27 193.68 660.43 191.67 662C189.67 663.6 187.34 664.5 185.16 665.33C182.96 666.15 180.85 666.96 179.02 668.11C175.32 670.39 172.64 673.61 170.96 676.89C169.439 679.866 168.64 683.158 168.63 686.5C168.61 689.45 169.18 691.96 169.85 693.92C171.23 697.86 172.84 699.63 172.72 699.7C172.71 699.71 172.61 699.6 172.44 699.37C172.27 699.14 172 698.82 171.71 698.35C170.82 697 170.092 695.55 169.54 694.03C168.82 692.06 168.19 689.51 168.16 686.5C168.13 683.51 168.72 680.03 170.43 676.63C172.11 673.25 174.85 669.91 178.65 667.53C182.41 665.03 187.37 664.41 191.19 661.4C195.02 658.39 197.03 653.26 197.61 648.03C198.22 642.73 197.41 637.17 197.21 631.45C196.97 625.75 197.65 619.88 200.54 615.13C201.98 612.79 203.99 610.8 206.37 609.6C208.72 608.35 211.33 607.79 213.85 607.75C218.92 607.64 223.63 609.67 226.95 612.64C230.33 615.58 232.54 619.23 233.98 622.7C235.41 626.2 236.05 629.59 236.37 632.55C236.67 635.52 236.66 638.1 236.58 640.19C236.49 642.29 236.34 643.91 236.21 645C236.15 645.51 236.09 645.92 236.05 646.25C236.04 646.53 236.01 646.67 236 646.67V646.67Z" fill="#5957D9"/>
<path d="M236 646.67C235.99 646.67 235.99 646.52 236 646.24C236.02 645.91 236.05 645.5 236.08 644.99C236.15 643.89 236.25 642.27 236.29 640.18C236.3 636.05 236.29 629.82 233.46 622.92C232.01 619.53 229.82 615.98 226.52 613.15C223.28 610.28 218.76 608.37 213.88 608.5C211.47 608.55 208.98 609.1 206.75 610.29C204.5 611.43 202.62 613.32 201.24 615.55C198.49 620.09 197.8 625.8 198.04 631.42C198.24 637.09 199.05 642.68 198.42 648.13C198.1 650.84 197.45 653.47 196.34 655.87C195.25 658.27 193.68 660.43 191.67 662C189.67 663.6 187.34 664.5 185.16 665.33C182.96 666.15 180.85 666.96 179.02 668.11C175.32 670.39 172.64 673.61 170.96 676.89C169.439 679.866 168.64 683.158 168.63 686.5C168.61 689.45 169.18 691.96 169.85 693.92C171.23 697.86 172.84 699.63 172.72 699.7C172.71 699.71 172.61 699.6 172.44 699.37C172.27 699.14 172 698.82 171.71 698.35C170.82 697 170.092 695.55 169.54 694.03C168.82 692.06 168.19 689.51 168.16 686.5C168.13 683.51 168.72 680.03 170.43 676.63C172.11 673.25 174.85 669.91 178.65 667.53C182.41 665.03 187.37 664.41 191.19 661.4C195.02 658.39 197.03 653.26 197.61 648.03C198.22 642.73 197.41 637.17 197.21 631.45C196.97 625.75 197.65 619.88 200.54 615.13C201.98 612.79 203.99 610.8 206.37 609.6C208.72 608.35 211.33 607.79 213.85 607.75C218.92 607.64 223.63 609.67 226.95 612.64C230.33 615.58 232.54 619.23 233.98 622.7C235.41 626.2 236.05 629.59 236.37 632.55C236.67 635.52 236.66 638.1 236.58 640.19C236.49 642.29 236.34 643.91 236.21 645C236.15 645.51 236.09 645.92 236.05 646.25C236.04 646.53 236.01 646.67 236 646.67V646.67Z" fill="black"/>
<path d="M346.63 633.09C346.49 633.06 347.68 631.22 347.77 627.52C347.79 625.7 347.47 623.41 346.29 621.09C345.14 618.79 343.03 616.51 340.09 615.1C338.63 614.4 336.97 613.91 335.21 613.78C333.45 613.64 331.6 613.9 329.75 614.42C326.03 615.4 322.34 617.51 317.94 618.39C315.76 618.81 313.38 618.94 311.09 618.22C308.78 617.53 306.81 615.83 305.51 613.77C302.86 609.65 302.11 604.49 298.9 600.7C297.33 598.82 295.17 597.52 292.9 596.78C290.62 596.01 288.2 595.85 285.89 596.07C281.19 596.46 277.1 598.96 274.23 602.14C271.33 605.35 269.53 609.16 268.44 612.85C267.34 616.56 267 620.17 267.15 623.46C267.42 630.05 268.53 635.33 269.12 638.98C269.43 640.75 269.67 642.16 269.85 643.19C269.92 643.63 269.97 643.99 270.01 644.29C270.04 644.54 270.05 644.67 270.04 644.67C270.03 644.67 269.99 644.55 269.93 644.31C269.86 644.02 269.78 643.66 269.69 643.23C269.47 642.21 269.18 640.81 268.81 639.05C268.12 635.41 266.93 630.15 266.57 623.49C266.38 620.16 266.7 616.45 267.79 612.67C268.87 608.9 270.69 604.97 273.67 601.64C275.17 599.99 276.94 598.51 279 597.37C281.06 596.23 283.39 595.52 285.81 595.28C288.23 595.04 290.76 595.2 293.16 596.01C295.56 596.79 297.85 598.16 299.53 600.18C302.92 604.25 303.65 609.45 306.19 613.35C307.42 615.31 309.21 616.85 311.33 617.49C313.44 618.16 315.69 618.06 317.8 617.66C322.04 616.85 325.74 614.76 329.57 613.78C331.47 613.26 333.41 613 335.26 613.16C337.11 613.31 338.84 613.84 340.35 614.59C343.4 616.09 345.55 618.49 346.7 620.89C347.88 623.31 348.15 625.67 348.09 627.53C348.03 629.41 347.61 630.82 347.27 631.74C346.92 632.66 346.63 633.09 346.63 633.09V633.09Z" fill="#5957D9"/>
<path d="M302.19 605.52C306.27 608.07 312 608.3 315.74 606.41C319.48 604.52 322.1 600.39 322.64 595.51C318.45 593.51 313.88 593.27 310.05 594.87C306.22 596.46 303.18 599.87 301.68 604.24L302.19 605.52ZM316.6 618.59C316.55 623.4 319.33 628.41 322.89 630.62C326.45 632.83 331.35 632.92 335.79 630.84C335.32 626.22 333.14 622.19 329.79 619.76C326.44 617.32 321.95 616.49 317.43 617.49L316.6 618.59ZM341.59 615.69C345.92 617.79 351.64 617.41 355.16 615.13C358.68 612.86 360.84 608.46 360.86 603.56C356.48 602.02 351.91 602.27 348.27 604.26C344.64 606.25 341.97 609.96 340.94 614.47L341.59 615.69ZM281.21 596.87C277.57 593.73 275.13 588.21 275.82 584.08C276.52 579.95 279.69 576.22 284.19 574.27C287.34 577.68 288.92 581.98 288.53 586.11C288.14 590.24 285.79 594.15 282.06 596.88" fill="#5957D9"/>
<path d="M183.64 578.98C183.63 578.97 183.68 578.86 183.79 578.65C183.93 578.4 184.09 578.09 184.29 577.72C184.75 576.91 185.47 575.73 186.49 574.29C188.55 571.44 191.88 567.34 197.36 564.01C200.09 562.38 203.37 560.97 207.12 560.43C210.84 559.9 214.99 560.18 218.97 561.67C222.93 563.13 226.79 565.9 229.11 569.97C231.44 574.04 232.19 578.81 233.55 583.38C234.24 585.66 235.12 587.86 236.38 589.77C237.65 591.68 239.38 593.18 241.19 594.51C243 595.85 244.9 597.05 246.62 598.46C248.34 599.87 249.83 601.49 251.03 603.24C253.45 606.74 254.82 610.61 255.55 614.28C256.29 617.96 256.37 621.48 256.15 624.65C255.7 631 254.36 635.98 253.5 639.4C253.05 641.11 252.67 642.43 252.41 643.32C252.15 644.21 251.99 644.68 251.97 644.67C251.94 644.66 252.04 644.18 252.25 643.28C252.48 642.31 252.79 640.99 253.19 639.32C253.96 635.88 255.21 630.89 255.57 624.61C255.74 621.48 255.63 618.02 254.88 614.41C254.13 610.82 252.77 607.05 250.41 603.67C249.204 601.945 247.763 600.397 246.13 599.07C244.45 597.71 242.57 596.52 240.72 595.16C238.88 593.81 237.05 592.24 235.7 590.22C234.37 588.21 233.46 585.93 232.76 583.61C231.38 578.97 230.63 574.26 228.4 570.37C226.2 566.48 222.52 563.81 218.7 562.38C214.85 560.91 210.83 560.62 207.21 561.1C203.58 561.6 200.35 562.95 197.66 564.51C192.24 567.71 188.88 571.71 186.75 574.47C185.939 575.553 185.165 576.664 184.43 577.8C183.93 578.58 183.66 578.99 183.64 578.98V578.98Z" fill="#5957D9"/>
<path d="M243.33 595.71C242.07 594.54 241.46 595.35 239.77 595.66C238.08 595.97 236.55 596.87 235.21 597.94C229.37 602.6 226.78 610.97 228.98 618.11C234.35 618.4 239.79 615.55 242.59 610.96C245.4 606.37 245.46 600.23 242.75 595.58L243.33 595.71ZM191.69 572.21C191.06 570.61 190.16 571.08 188.5 570.64C186.84 570.19 185.07 570.34 183.4 570.73C176.12 572.42 170.19 578.86 169.1 586.26C173.83 588.84 179.96 588.6 184.47 585.66C188.98 582.72 191.68 577.21 191.23 571.85L191.69 572.21ZM254.7 627.52C251.28 623.57 245.99 621.3 240.77 621.56C235.55 621.81 230.5 624.58 227.48 628.85C231.29 632.34 236.42 634.37 241.59 634.42C246.76 634.47 251.93 632.09 255.81 628.67L254.7 627.52ZM250.46 603.77C255.71 603.92 260.97 601.57 264.36 597.57C267.75 593.56 269.2 587.99 268.18 582.84C262.69 581.58 256.58 583.55 252.85 587.78C249.12 592.01 247.94 598.32 249.88 603.61L250.46 603.77ZM232.29 575.84C237.19 577.73 242.93 577.26 247.46 574.61C251.99 571.96 255.21 567.18 255.96 561.98C251.2 558.97 244.78 558.79 239.86 561.54C234.94 564.29 231.73 569.84 231.8 575.48L232.29 575.84ZM226.19 566.73C221.29 564.84 215.55 565.31 211.02 567.96C206.49 570.61 203.27 575.39 202.52 580.59C207.28 583.6 213.7 583.78 218.62 581.03C223.54 578.28 226.75 572.73 226.68 567.09L226.19 566.73ZM218.93 561.82C223.9 560.14 228.02 556.11 229.81 551.17C231.6 546.24 231.01 540.5 228.27 536.03C222.68 536.76 217.64 540.73 215.61 545.99C213.59 551.25 214.67 557.58 218.32 561.86L218.93 561.82ZM200.32 562.71C202.11 557.78 201.53 552.04 198.79 547.57C196.05 543.09 191.21 539.97 186 539.32C183.08 544.14 183.04 550.56 185.88 555.42C188.73 560.28 194.34 563.39 199.98 563.21" fill="#5957D9"/>
<path d="M225.72 699.69L231.53 706.9H303.04L307.91 699.69H225.72Z" fill="#263239"/>
<path d="M306.34 699.63C306.34 699.86 288.77 700.04 267.1 700.04C245.42 700.04 227.85 699.86 227.85 699.63C227.85 699.4 245.42 699.22 267.1 699.22C288.77 699.21 306.34 699.4 306.34 699.63Z" fill="#455A64"/>
<path d="M298.3 672.48C298.32 672.5 298.17 672.7 297.85 673.07C297.54 673.44 297.07 673.98 296.39 674.6C295.06 675.86 292.96 677.55 290.01 679.03C287.06 680.48 283.23 681.72 278.85 681.9C276.67 682 274.35 681.83 272.02 681.33C269.69 680.82 267.37 680 265.06 679.02C260.45 677.06 256.26 674.82 252.18 673.52C248.12 672.18 244.21 671.8 241.06 672.45C237.89 673.04 235.58 674.44 234.24 675.62C232.88 676.81 232.36 677.7 232.29 677.65C232.27 677.63 232.39 677.41 232.65 677C232.92 676.6 233.36 676.03 234.02 675.38C235.34 674.1 237.68 672.56 240.94 671.88C244.19 671.13 248.27 671.47 252.41 672.8C256.59 674.09 260.83 676.32 265.38 678.26C267.66 679.22 269.94 680.03 272.2 680.54C274.46 681.03 276.7 681.22 278.82 681.14C283.09 681.01 286.83 679.86 289.76 678.51C295.63 675.68 298.17 672.3 298.3 672.48V672.48Z" fill="#455A64"/>
<path d="M299.01 666.89C299.03 666.91 298.86 667.1 298.52 667.44C298.18 667.79 297.67 668.29 296.96 668.87C295.55 670.04 293.35 671.61 290.34 672.98C287.33 674.32 283.49 675.48 279.1 675.66C276.91 675.77 274.6 675.62 272.25 675.2C269.9 674.76 267.54 674.05 265.18 673.2C260.46 671.49 256.13 669.52 251.99 668.36C247.87 667.17 243.96 666.81 240.77 667.34C237.57 667.81 235.17 669.02 233.69 670.05C232.21 671.09 231.55 671.89 231.49 671.83C231.47 671.81 231.62 671.61 231.94 671.24C232.26 670.88 232.77 670.37 233.5 669.8C234.96 668.67 237.39 667.34 240.68 666.78C243.95 666.16 248 666.47 252.2 667.64C256.42 668.78 260.8 670.74 265.47 672.43C267.81 673.27 270.13 673.98 272.41 674.41C274.7 674.83 276.94 674.99 279.08 674.9C283.36 674.76 287.13 673.68 290.12 672.44C296.09 669.84 298.89 666.72 299.01 666.89V666.89Z" fill="#455A64"/>
<path d="M214.64 713.93H220.9V731.39H214.64V713.93ZM303.97 713.93H310.23V731.39H303.97V713.93Z" fill="#455A64"/>
<path d="M420.6 709.71L424.78 730.12C425.062 731.489 425.802 732.722 426.878 733.614C427.954 734.507 429.302 735.006 430.7 735.03L717.95 737.66C720.28 737.71 721.98 735.45 721.29 733.22C720.894 731.936 720.1 730.812 719.024 730.008C717.947 729.205 716.643 728.764 715.3 728.75L613.24 727.62L580.03 570.96C578.83 565.3 573.89 561.21 568.11 561.08L398.27 557.26C393.66 557.16 390.15 561.36 391.09 565.88L420.6 709.71V709.71Z" fill="white" stroke="#323431" stroke-miterlimit="10"/>
<path d="M505.097 645.895C510.986 639.682 510.154 629.332 503.239 622.779C496.325 616.225 485.945 615.949 480.057 622.162C474.168 628.376 475 638.725 481.914 645.279C488.829 651.832 499.208 652.108 505.097 645.895Z" fill="#5957D9"/>
<path d="M467.13 173.54C508.932 173.54 542.82 139.652 542.82 97.85C542.82 56.0476 508.932 22.16 467.13 22.16C425.328 22.16 391.44 56.0476 391.44 97.85C391.44 139.652 425.328 173.54 467.13 173.54Z" fill="#D9D9D9"/>
<path d="M467.26 148.75C495.83 148.75 518.99 125.59 518.99 97.02C518.99 68.4503 495.83 45.29 467.26 45.29C438.69 45.29 415.53 68.4503 415.53 97.02C415.53 125.59 438.69 148.75 467.26 148.75Z" fill="#3C3C3B"/>
<path d="M466.57 58.9399H467.77C468.33 59.1299 468.91 59.2799 469.46 59.5099C473.27 61.0599 476.89 62.9699 480.35 65.1799C483.64 67.2799 486.91 69.4099 490.51 70.9799C492.28 71.7499 494.1 72.3499 496.07 72.4399C497.66 72.5099 498.82 73.2799 499.3 74.8299C499.39 75.1199 499.45 75.4199 499.52 75.7199V76.3199C499.47 76.4199 499.38 76.5199 499.38 76.6199C499.22 78.6399 499.14 80.6599 498.91 82.6699C498.63 85.1799 498.24 87.6699 497.88 90.1699C497.38 93.6599 496.52 97.0599 495.49 100.42C493.92 105.56 491.87 110.48 489.06 115.08C487.48 117.66 485.78 120.14 483.76 122.38C481.96 124.38 480 126.23 478.06 128.1C477.2 128.93 476.25 129.69 475.26 130.38C473.4 131.69 471.49 132.91 469.6 134.18C468.37 135 467.07 135.44 465.67 134.72C464.65 134.2 463.69 133.55 462.73 132.93C458.99 130.5 455.47 127.78 452.48 124.45C450.78 122.57 449.07 120.67 447.6 118.62C445.09 115.12 442.98 111.37 441.34 107.36C439.83 103.7 438.58 99.9599 437.67 96.1099C437.17 93.9999 436.71 91.8699 436.34 89.7299C436.01 87.8199 435.81 85.8899 435.57 83.9699C435.44 82.9199 435.33 81.8699 435.26 80.8099C435.14 79.0099 434.96 77.1999 434.99 75.3899C435.02 73.8299 435.97 72.8799 437.5 72.5699C438.1 72.4499 438.73 72.4899 439.33 72.3799C441.49 71.9899 443.53 71.2499 445.44 70.2099C448.01 68.8099 450.51 67.2699 453.04 65.7799C455.1 64.5599 457.08 63.1899 459.21 62.1099C461.6 60.9399 464.11 59.9999 466.57 58.9399V58.9399ZM464.83 99.4899C464.56 99.2399 464.38 99.0699 464.21 98.8999L457.59 92.2799C456.91 91.5999 455.98 91.4599 455.26 92.0699C454.2 92.9699 453.17 93.9199 452.25 94.9499C451.47 95.8199 451.53 96.8499 452.28 97.5999C455.97 101.32 459.67 105.03 463.4 108.71C464.97 110.26 466.85 110 468.08 108.18C468.91 106.94 469.77 105.72 470.61 104.49C473.06 100.87 475.51 97.2399 477.96 93.6199C479.83 90.8499 481.7 88.0699 483.59 85.3099C484.09 84.5799 484.1 83.3799 483.3 82.7999C482.37 82.1299 481.4 81.5099 480.49 80.8099C479.18 79.7999 477.89 80.1099 477.08 81.4499C476.43 82.5099 475.67 83.4999 474.97 84.5399C472.24 88.5899 469.52 92.6499 466.79 96.7099C466.16 97.6299 465.5 98.5299 464.83 99.4899V99.4899Z" fill="#F3F3F3"/>
</svg>
