<svg width="838" height="489" viewBox="0 0 838 489" fill="none" xmlns="http://www.w3.org/2000/svg">
<path d="M242.05 44.98C362.33 38.84 488.45 70.84 469.91 117.23C451.37 163.62 569.02 100.75 615.96 117.48C649.38 129.39 636.02 165.64 652.19 180.25C689.27 213.74 727.18 171.57 774.37 196.87C821.56 222.18 801.94 458.82 782.72 458.79L55.05 457.62L46.34 457.87C46.34 457.87 -7.02998 389.89 41.28 350.2C89.59 310.51 56.42 292.35 50.55 277.01C43.81 259.4 28.08 228.63 96.61 206.06C165.14 183.48 147.45 134.36 145.76 124.19C144.09 114 121.77 51.12 242.05 44.98V44.98Z" fill="#F3F3F3"/>
<path d="M401.67 205.74C404.514 205.74 406.82 203.434 406.82 200.59C406.82 197.746 404.514 195.44 401.67 195.44C398.826 195.44 396.52 197.746 396.52 200.59C396.52 203.434 398.826 205.74 401.67 205.74Z" fill="url(#paint0_linear_4_9988)"/>
<path d="M529.14 90.1H572.98V455.59H529.14V90.1ZM458.92 214.65H502.76V455.59H458.92V214.65ZM596.24 172.51H640.08V455.59H596.24V172.51ZM388.7 173.33H432.54V455.58H388.7V173.33ZM322.49 257.02H366.33V455.59H322.49V257.02Z" fill="white" stroke="#575756" stroke-width="0.5" stroke-miterlimit="10"/>
<path d="M759.28 429.17V451.58C759.28 455.2 718.86 458.14 668.99 458.14C619.12 458.14 578.7 455.2 578.7 451.58V429.17H759.28V429.17Z" fill="#E59F39"/>
<path d="M693.94 457.89V429.17H759.28V451.58C759.28 454.58 731.67 457.1 693.94 457.89ZM690.9 457.95C683.89 458.08 676.55 458.14 668.99 458.14C657.73 458.14 646.96 457.99 637.02 457.72V429.17H690.9V457.95V457.95ZM633.4 457.61C601.23 456.61 578.7 454.28 578.7 451.58V429.17H633.4V457.61Z" fill="#E8AE54"/>
<path d="M668.99 435.49C718.856 435.49 759.28 432.553 759.28 428.93C759.28 425.307 718.856 422.37 668.99 422.37C619.124 422.37 578.7 425.307 578.7 428.93C578.7 432.553 619.124 435.49 668.99 435.49Z" fill="#E59F39"/>
<path d="M594.64 428.93C594.64 431.44 627.93 433.48 668.99 433.48C710.05 433.48 743.34 431.44 743.34 428.93C743.34 426.42 710.05 424.38 668.99 424.38C627.92 424.38 594.64 426.42 594.64 428.93Z" fill="#F7CC7F"/>
<path d="M774.73 404.13V426.54C774.73 430.16 734.31 433.1 684.44 433.1C634.57 433.1 594.15 430.16 594.15 426.54V404.13H774.73V404.13Z" fill="#E59F39"/>
<path d="M709.39 432.86V404.14H774.73V426.55C774.73 429.54 747.12 432.07 709.39 432.86ZM706.34 432.92C699.33 433.05 691.99 433.11 684.43 433.11C673.17 433.11 662.4 432.96 652.46 432.69V404.14H706.34V432.92V432.92ZM648.84 432.58C616.67 431.58 594.14 429.25 594.14 426.55V404.14H648.84V432.58Z" fill="#E8AE54"/>
<path d="M684.44 410.46C734.306 410.46 774.73 407.523 774.73 403.9C774.73 400.277 734.306 397.34 684.44 397.34C634.574 397.34 594.15 400.277 594.15 403.9C594.15 407.523 634.574 410.46 684.44 410.46Z" fill="#E59F39"/>
<path d="M684.44 408.45C725.502 408.45 758.79 406.413 758.79 403.9C758.79 401.387 725.502 399.35 684.44 399.35C643.378 399.35 610.09 401.387 610.09 403.9C610.09 406.413 643.378 408.45 684.44 408.45Z" fill="#F7CC7F"/>
<path d="M764.43 379.79V402.2C764.43 405.82 724.01 408.76 674.14 408.76C624.27 408.76 583.85 405.82 583.85 402.2V379.79H764.43V379.79Z" fill="#E59F39"/>
<path d="M699.09 408.51V379.79H764.43V402.2C764.43 405.19 736.82 407.72 699.09 408.51ZM696.05 408.57C689.04 408.7 681.7 408.76 674.14 408.76C662.88 408.76 652.11 408.61 642.17 408.34V379.79H696.05V408.57V408.57ZM638.55 408.23C606.38 407.23 583.85 404.9 583.85 402.2V379.79H638.55V408.23Z" fill="#E8AE54"/>
<path d="M674.14 386.11C724.006 386.11 764.43 383.173 764.43 379.55C764.43 375.927 724.006 372.99 674.14 372.99C624.274 372.99 583.85 375.927 583.85 379.55C583.85 383.173 624.274 386.11 674.14 386.11Z" fill="#E59F39"/>
<path d="M674.14 384.1C715.202 384.1 748.49 382.063 748.49 379.55C748.49 377.037 715.202 375 674.14 375C633.078 375 599.79 377.037 599.79 379.55C599.79 382.063 633.078 384.1 674.14 384.1Z" fill="#F7CC7F"/>
<path d="M774.73 355.77V378.18C774.73 381.8 734.31 384.74 684.44 384.74C634.57 384.74 594.15 381.8 594.15 378.18V355.77H774.73V355.77Z" fill="#E59F39"/>
<path d="M709.39 384.49V355.77H774.73V378.18C774.73 381.18 747.12 383.71 709.39 384.49ZM706.34 384.55C699.33 384.68 691.99 384.74 684.43 384.74C673.17 384.74 662.4 384.59 652.46 384.32V355.77H706.34V384.55V384.55ZM648.84 384.22C616.67 383.22 594.14 380.89 594.14 378.19V355.78H648.84V384.22Z" fill="#E8AE54"/>
<path d="M684.44 362.09C734.306 362.09 774.73 359.153 774.73 355.53C774.73 351.907 734.306 348.97 684.44 348.97C634.574 348.97 594.15 351.907 594.15 355.53C594.15 359.153 634.574 362.09 684.44 362.09Z" fill="#E59F39"/>
<path d="M684.44 360.08C725.502 360.08 758.79 358.043 758.79 355.53C758.79 353.017 725.502 350.98 684.44 350.98C643.378 350.98 610.09 353.017 610.09 355.53C610.09 358.043 643.378 360.08 684.44 360.08Z" fill="#F7CC7F"/>
<path d="M816.74 328.53L811.32 347.47C810.44 350.53 775.58 343.23 733.46 331.16C691.33 319.09 657.89 306.83 658.77 303.77L664.19 284.83L816.74 328.53Z" fill="#E59F39"/>
<path d="M754.59 336.99L761.54 312.73L816.74 328.54L811.32 347.48C810.59 350 786.65 345.45 754.59 336.99V336.99ZM752 336.3C746.04 334.71 739.83 332.99 733.45 331.16C723.94 328.44 714.87 325.7 706.54 323.07L713.45 298.95L758.97 311.99L752 336.3ZM703.51 322.1C676.58 313.47 658.11 306.05 658.76 303.77L664.18 284.83L710.39 298.07L703.51 322.1Z" fill="#E8AE54"/>
<path d="M664.24 284.63C663.36 287.69 696.8 299.95 738.93 312.02C781.06 324.09 815.92 331.39 816.79 328.33C817.67 325.27 784.23 313.01 742.1 300.94C699.98 288.87 665.12 281.57 664.24 284.63V284.63Z" fill="#E59F39"/>
<path d="M677.71 288.49C677.1 290.61 704.73 300.39 739.42 310.32C774.11 320.26 802.72 326.59 803.33 324.47C803.94 322.35 776.31 312.57 741.62 302.64C706.93 292.7 678.31 286.37 677.71 288.49Z" fill="#F7CC7F"/>
<path d="M767.4 198.21L773.17 217.04C774.1 220.08 740.9 232.97 699 245.82C657.11 258.67 622.39 266.62 621.45 263.57L615.68 244.74L767.4 198.21V198.21Z" fill="#E59F39"/>
<path d="M719.91 239.17L712.51 215.04L767.41 198.2L773.18 217.03C773.95 219.56 751.4 228.79 719.91 239.17V239.17ZM717.37 240.01C711.51 241.92 705.36 243.87 699.01 245.82C689.55 248.72 680.46 251.37 672.04 253.7L664.68 229.71L709.95 215.83L717.37 240.01V240.01ZM668.97 254.54C641.68 261.99 622.16 265.84 621.46 263.57L615.69 244.74L661.64 230.65L668.97 254.54V254.54Z" fill="#E8AE54"/>
<path d="M615.63 244.53C616.56 247.57 651.28 239.63 693.18 226.78C735.07 213.93 768.28 201.05 767.35 198C766.42 194.96 731.7 202.9 689.8 215.75C647.9 228.61 614.7 241.49 615.63 244.53Z" fill="#E59F39"/>
<path d="M629.02 240.43C629.67 242.54 658.16 235.68 692.66 225.09C727.16 214.51 754.6 204.22 753.95 202.11C753.3 200 724.81 206.86 690.31 217.45C655.81 228.03 628.37 238.32 629.02 240.43Z" fill="#F7CC7F"/>
<path d="M649.528 457.956H491.348V400.386H649.528V457.956Z" fill="#44B8B6"/>
<path d="M649.528 416.182H491.348V408.772H649.528V416.182Z" fill="#95C88B"/>
<path d="M649.528 430.644H491.348V423.234H649.528V430.644Z" fill="#95C88B"/>
<path d="M649.528 445.108H491.348V437.698H649.528V445.108Z" fill="#95C88B"/>
<path d="M649.528 457.95H491.348V450.54H649.528V457.95Z" fill="#95C88B"/>
<path d="M583.134 457.956H550.234V400.386H583.134V457.956Z" fill="#F7CC7F"/>
<path d="M671.504 457.956H647.614V400.386H671.504V457.956Z" fill="#44B8B6"/>
<path d="M569.4 445.85C569.31 445.73 569.22 445.61 569.13 445.5C567.81 443.85 566.5 442.19 565.18 440.54L562.02 436.57L559.19 433.02C559.159 432.98 559.141 432.931 559.14 432.88V430.53C559.14 430.46 559.16 430.44 559.23 430.44H561.97C562.5 430.44 563.02 430.39 563.54 430.32C564.23 430.22 564.91 430.04 565.55 429.77C566.31 429.45 566.98 429 567.53 428.38C568.1 427.74 568.48 427 568.62 426.15C568.66 425.92 568.67 425.69 568.68 425.47C568.69 425.37 568.68 425.36 568.58 425.36H558.23C558.25 425.33 558.26 425.31 558.27 425.29C558.81 424.47 559.34 423.65 559.88 422.82C559.92 422.76 559.96 422.73 560.04 422.73H568.34C568.33 422.69 568.32 422.67 568.31 422.64C567.902 421.714 567.164 420.972 566.24 420.56C565.68 420.3 565.09 420.13 564.48 420.04C564.09 419.98 563.69 419.93 563.29 419.9C562.864 419.87 562.437 419.85 562.01 419.84C560.78 419.83 559.55 419.83 558.33 419.83H558.23C558.24 419.8 558.25 419.79 558.26 419.77C558.8 418.93 559.35 418.1 559.89 417.26C559.92 417.22 559.95 417.2 560 417.2H577.62C577.6 417.24 577.59 417.26 577.57 417.28C577.03 418.11 576.49 418.93 575.96 419.76C575.93 419.81 575.89 419.83 575.83 419.83H571.19C571.22 419.87 571.23 419.89 571.25 419.92C571.85 420.65 572.24 421.48 572.41 422.41C572.43 422.5 572.44 422.59 572.45 422.67C572.46 422.72 572.48 422.73 572.52 422.73H577.62C577.6 422.76 577.59 422.79 577.58 422.81C577.04 423.64 576.5 424.47 575.96 425.29C575.93 425.34 575.9 425.35 575.84 425.35H572.68C572.57 425.35 572.57 425.35 572.55 425.46C572.44 426.25 572.2 427.01 571.84 427.72C571.38 428.63 570.74 429.4 569.96 430.06C568.85 431 567.57 431.62 566.18 432.03C565.67 432.18 565.16 432.29 564.64 432.36C564.26 432.41 563.88 432.44 563.5 432.48C563.46 432.48 563.42 432.49 563.36 432.5C563.41 432.56 563.45 432.61 563.49 432.67C564.65 434.12 565.82 435.57 566.98 437.02C568.18 438.51 569.38 440 570.58 441.5L573.88 445.61C573.95 445.69 574.02 445.78 574.09 445.86C572.54 445.85 570.97 445.85 569.4 445.85V445.85Z" fill="white"/>
<path d="M641.34 105.1L603.34 131L617.69 132.05L525.83 277.57L477.01 207.69L404.56 359.06L360.09 298.78L302.66 372.03L306.03 385.32L359.82 317.05L406.83 380.76L479.01 229.95L526.38 297.75L628.07 136.64L637.19 145.99L641.34 105.1Z" fill="#BAC4E5"/>
<path d="M193.06 139.35C191.05 138.68 189.08 137.92 187.17 137C185.01 135.96 182.22 134.75 180.45 134.48C176.73 133.91 170.35 134.29 166.83 138.1C162.44 142.85 154.63 138.96 156.21 163.83C157.99 191.98 173.69 188.89 174.07 188.41C174.45 187.93 188.08 170.4 188.08 170.4C188.08 170.4 192.84 180.79 192.84 180.4C192.84 180.03 217.16 147.44 193.06 139.35V139.35Z" fill="#323431"/>
<path d="M102.2 429.85V453.16C102.2 456.93 144.24 459.98 196.09 459.98C247.94 459.98 289.98 456.93 289.98 453.16V429.85H102.2Z" fill="#E59F39"/>
<path d="M170.15 459.71V429.84H102.2V453.15C102.2 456.27 130.91 458.89 170.15 459.71ZM173.31 459.77C180.6 459.9 188.23 459.97 196.09 459.97C207.8 459.97 219 459.81 229.34 459.53V429.84H173.31V459.77ZM233.1 459.43C266.55 458.39 289.98 455.97 289.98 453.16V429.85H233.1V459.43Z" fill="#E8AE54"/>
<path d="M196.09 436.42C247.944 436.42 289.98 433.367 289.98 429.6C289.98 425.833 247.944 422.78 196.09 422.78C144.236 422.78 102.2 425.833 102.2 429.6C102.2 433.367 144.236 436.42 196.09 436.42Z" fill="#E59F39"/>
<path d="M273.41 429.6C273.41 432.21 238.79 434.33 196.09 434.33C153.39 434.33 118.77 432.21 118.77 429.6C118.77 426.99 153.39 424.87 196.09 424.87C238.79 424.87 273.41 426.99 273.41 429.6Z" fill="#F7CC7F"/>
<path d="M86.14 405.18V428.49C86.14 432.26 128.18 435.31 180.03 435.31C231.88 435.31 273.92 432.26 273.92 428.49V405.18H86.14Z" fill="#E59F39"/>
<path d="M154.08 435.05V405.18H86.14V428.49C86.14 431.6 114.85 434.23 154.08 435.05V435.05ZM157.24 435.11C164.53 435.24 172.16 435.31 180.02 435.31C191.73 435.31 202.93 435.15 213.27 434.87V405.18H157.24V435.11ZM217.04 434.76C250.49 433.72 273.92 431.3 273.92 428.49V405.18H217.04V434.76V434.76Z" fill="#E8AE54"/>
<path d="M180.03 411.75C231.884 411.75 273.92 408.697 273.92 404.93C273.92 401.163 231.884 398.11 180.03 398.11C128.176 398.11 86.14 401.163 86.14 404.93C86.14 408.697 128.176 411.75 180.03 411.75Z" fill="#E59F39"/>
<path d="M257.34 404.93C257.34 407.54 222.72 409.66 180.02 409.66C137.32 409.66 102.7 407.54 102.7 404.93C102.7 402.32 137.32 400.2 180.02 400.2C222.73 400.2 257.34 402.32 257.34 404.93Z" fill="#F7CC7F"/>
<path d="M96.84 379.86V403.17C96.84 406.94 138.88 409.99 190.73 409.99C242.58 409.99 284.62 406.94 284.62 403.17V379.86H96.84Z" fill="#E59F39"/>
<path d="M164.78 409.73V379.86H96.84V403.17C96.84 406.28 125.55 408.91 164.78 409.73ZM167.95 409.79C175.24 409.92 182.87 409.99 190.73 409.99C202.44 409.99 213.64 409.83 223.98 409.55V379.86H167.95V409.79ZM227.74 409.44C261.19 408.4 284.62 405.98 284.62 403.17V379.86H227.74V409.44Z" fill="#E8AE54"/>
<path d="M190.73 386.43C242.584 386.43 284.62 383.377 284.62 379.61C284.62 375.843 242.584 372.79 190.73 372.79C138.876 372.79 96.84 375.843 96.84 379.61C96.84 383.377 138.876 386.43 190.73 386.43Z" fill="#E59F39"/>
<path d="M268.05 379.61C268.05 382.22 233.43 384.34 190.73 384.34C148.03 384.34 113.41 382.22 113.41 379.61C113.41 377 148.03 374.88 190.73 374.88C233.43 374.88 268.05 377 268.05 379.61Z" fill="#F7CC7F"/>
<path d="M86.14 354.89V378.2C86.14 381.97 128.18 385.02 180.03 385.02C231.88 385.02 273.92 381.97 273.92 378.2V354.89H86.14Z" fill="#E59F39"/>
<path d="M154.08 384.75V354.88H86.14V378.19C86.14 381.31 114.85 383.94 154.08 384.75V384.75ZM157.24 384.82C164.53 384.95 172.16 385.02 180.02 385.02C191.73 385.02 202.93 384.86 213.27 384.58V354.89H157.24V384.82ZM217.04 384.47C250.49 383.43 273.92 381.01 273.92 378.2V354.89H217.04V384.47V384.47Z" fill="#E8AE54"/>
<path d="M180.03 361.46C231.884 361.46 273.92 358.407 273.92 354.64C273.92 350.873 231.884 347.82 180.03 347.82C128.176 347.82 86.14 350.873 86.14 354.64C86.14 358.407 128.176 361.46 180.03 361.46Z" fill="#E59F39"/>
<path d="M257.34 354.64C257.34 357.25 222.72 359.37 180.02 359.37C137.32 359.37 102.7 357.25 102.7 354.64C102.7 352.03 137.32 349.91 180.02 349.91C222.73 349.91 257.34 352.03 257.34 354.64Z" fill="#F7CC7F"/>
<path d="M256.58 432.5C256.58 432.5 258.81 444.34 258.81 444.37C258.93 445.91 258.89 449.81 259.22 451.16C260.47 456.22 281.77 443.92 276.19 442.93C275.68 442.84 272.02 439.13 271.18 437.56C269.72 434.83 268.38 429.74 268.38 429.74L256.58 432.5V432.5Z" fill="#F4A392"/>
<path d="M275.14 442.19C275.14 442.19 269.64 443.55 266.84 443.83C264.04 444.11 260.45 439.76 258.44 440.59C256.23 441.49 255.03 455.29 255.03 455.29C255.03 455.29 290.16 456.89 298.47 454.6C301.76 453.68 286.07 446.38 275.14 442.19V442.19Z" fill="#5957D9"/>
<path d="M305.57 431.96C305.57 431.96 307.8 443.8 307.8 443.83C307.92 445.37 307.88 449.27 308.21 450.62C309.46 455.68 330.37 444.19 324.78 443.2C324.27 443.11 321 438.59 320.16 437.02C318.7 434.29 317.36 429.2 317.36 429.2L305.57 431.96Z" fill="#F4A392"/>
<path d="M323.58 442.19C323.58 442.19 318.08 443.55 315.28 443.83C312.48 444.11 308.89 439.76 306.88 440.59C304.67 441.49 303.47 455.29 303.47 455.29C303.47 455.29 338.6 456.89 346.91 454.6C350.21 453.68 334.52 446.38 323.58 442.19V442.19Z" fill="#5957D9"/>
<path d="M183.75 313.41L247.67 298.58C247.67 298.58 276.33 291 283.25 299.9C290.17 308.8 319.55 431.56 319.55 431.56C319.55 431.56 304.39 432.88 303.41 432.22L267.93 369.25C264.559 363.259 262.34 356.689 261.39 349.88L258.87 331.85L232.84 339.43C232.84 339.43 202.86 346.02 190.67 338.44C178.48 330.87 183.75 313.41 183.75 313.41V313.41Z" fill="#323431"/>
<path d="M208.3 203.22C209.31 203.26 212.08 204.18 216.12 211.8C221.29 221.53 228.84 250.92 228.84 250.92L206.3 259.28L203.4 253.14L198.63 205.91C198.64 205.92 208.02 203.21 208.3 203.22V203.22Z" fill="#5957D9"/>
<path d="M178.51 198.98C184.95 198.99 200.9 200.86 208.3 203.22C208.3 203.22 213.74 249.79 203.4 285.18C201.09 293.1 205.31 318.02 205.31 318.02L138.53 317.14C138.53 317.14 146.44 256.9 143.46 247.17C140.48 237.44 140.41 203.53 140.41 203.53C140.41 203.53 140.87 203.46 155.41 200.95C162.2 199.79 171.63 198.97 178.51 198.98V198.98Z" fill="#5957D9"/>
<path d="M139.69 208.71C145.93 206.38 148.99 262.45 149.83 285.52C160.89 286.58 180.16 285.53 184.96 285.17C187.22 285 192.42 283.1 194.67 282.81C196.97 282.51 199.06 282.35 200.19 282.55C200.61 282.62 212.13 287.32 213.12 288.35C214.34 289.63 217.65 292.85 217.09 294.24C216.53 295.63 210.73 290.36 210.73 290.36L207.9 288.78C211.43 292.22 218.16 296.74 217.19 298.39C216.24 300 210.17 295.41 205.85 292.28C209.56 295.62 214.17 301.6 213.11 302.53C212.16 303.37 206.91 296.45 201.31 294.45C199.23 293.71 197.16 295.76 195.53 296C194.33 296.18 192.48 296.57 191.3 296.24L185.67 295.7C183.6 295.89 183.11 295.93 181.02 296.38C178.6 296.89 174.62 297.44 171.53 298.19C153.76 302.52 147.83 304.53 142.39 304.52C125.89 304.5 124.93 214.23 139.69 208.71V208.71Z" fill="#F8C7BD"/>
<path d="M127.84 261.35C126.67 237.71 126.84 208.57 140.14 203.6C145.39 201.64 154.64 213.43 152.97 261.83C145.87 262.41 135.45 262.88 127.84 261.35V261.35Z" fill="#5957D9"/>
<path d="M275.94 246.9L213.02 251.01C211.36 251.12 209.92 252.22 209.39 253.8L193.1 302.32L158.41 304.59C157.44 304.65 156.71 305.49 156.77 306.46C156.83 307.43 157.67 308.16 158.64 308.1L257.36 301.65C258.688 301.562 259.963 301.093 261.031 300.298C262.099 299.503 262.915 298.417 263.38 297.17L280.05 252.44C281.1 249.65 278.91 246.71 275.94 246.9V246.9Z" fill="white" stroke="#575756" stroke-miterlimit="10"/>
<path d="M244.59 276.88C244.46 279.05 242.83 280.71 240.93 280.6C239.03 280.49 237.6 278.65 237.72 276.48C237.85 274.31 239.48 272.65 241.38 272.76C243.28 272.87 244.71 274.72 244.59 276.88Z" fill="#5957D9"/>
<path d="M138.57 315.62L208.22 303.59C208.22 303.59 238.33 299 245.25 307.9C252.17 316.8 272.27 432.11 272.27 432.11C272.27 432.11 257.11 433.43 256.13 432.77C255.36 432.26 237.02 393.82 228.77 376.5C226.152 371.005 224.311 365.172 223.3 359.17L220.65 343.48L211.89 346.5C196.49 351.8 180.08 353.64 163.91 351.63C157.14 350.79 150.83 349.34 146.91 346.91C134.72 339.32 138.57 315.62 138.57 315.62Z" fill="#323431"/>
<path d="M181.14 190.48L182.5 200.54C182.5 200.54 185.54 215.03 181.63 217.82C177.72 220.61 165.01 200.12 165.01 200.12L166.35 174.63L181.14 190.48Z" fill="#F8C7BD"/>
<path d="M165.91 182.9C169.14 191.59 176.82 196.94 182.28 199.01L181.13 190.48L166.34 174.64L165.91 182.9V182.9Z" fill="#EE745A"/>
<path d="M180.33 146.91C188.61 145.58 196.03 152.21 195.83 160.47C195.74 164.06 195.44 168.54 194.7 173.37C192.9 184.98 184.95 195.2 179.7 194.29C174.44 193.38 161.22 183.36 163.55 166.84C164.98 156.64 171.64 148.31 180.33 146.91V146.91Z" fill="#F8C7BD"/>
<path d="M167.19 168.81C166.75 171.36 164.69 173.14 162.61 172.78C160.52 172.42 159.19 170.05 159.63 167.5C160.07 164.95 162.13 163.17 164.21 163.53C166.3 163.9 167.63 166.26 167.19 168.81Z" fill="#F8C7BD"/>
<path d="M164.21 163.53C164.21 163.53 170.56 165.1 172.92 161.03C175.28 156.96 183.71 148.17 194.43 151.81C205.15 155.45 185 142.95 184.14 142.95C183.28 142.95 172.99 142.88 172.99 142.88C172.99 142.88 165.06 149.38 164.77 150.1C164.48 150.81 162.2 158.6 162.2 158.6L164.21 163.53Z" fill="#323431"/>
<path d="M273.72 155.09L274.84 168.73L282.76 159.81L308.39 138.82L286.54 145.7C286.54 145.7 275.78 150.93 275.29 151.62C274.79 152.32 273.72 155.09 273.72 155.09Z" fill="#44B8B6"/>
<path d="M262.11 149.23L308.39 138.82L273.72 155.09L262.11 149.23ZM291.52 165.19L277.25 158.08L308.39 138.82L291.52 165.19Z" fill="#95C88B"/>
<path d="M268.32 162.67C270.46 161.87 272.03 161.69 272.05 161.69L271.95 160.7C271.88 160.71 270.23 160.89 267.98 161.74L268.32 162.67V162.67ZM245.48 243.29C247.319 241.619 248.999 239.781 250.5 237.8L251.3 238.4C249.765 240.429 248.044 242.31 246.16 244.02L245.48 243.29V243.29ZM254.35 231.46C254.84 230.43 255.29 229.36 255.69 228.28C256.14 227.05 256.54 225.77 256.88 224.47L257.85 224.72C257.51 226.05 257.1 227.37 256.63 228.63C256.22 229.74 255.76 230.84 255.26 231.89L254.35 231.46V231.46ZM258.38 209.65L259.38 209.63C259.44 212.34 259.36 214.82 259.13 217.22L258.14 217.13C258.36 214.76 258.44 212.32 258.38 209.65ZM256.96 194.7L257.95 194.56C258.37 197.48 258.67 199.86 258.89 202.06L257.9 202.16C257.67 199.98 257.37 197.61 256.96 194.7ZM255.84 187.19C255.44 184.5 255.32 181.96 255.46 179.62L256.46 179.68C256.32 181.95 256.44 184.42 256.83 187.04L256.84 187.1L255.85 187.24L255.84 187.19ZM257.09 172.13C258.09 169.68 259.55 167.54 261.42 165.77L262.11 166.49C260.334 168.179 258.94 170.228 258.02 172.5L257.09 172.13V172.13Z" fill="#95C88B"/>
<defs>
<linearGradient id="paint0_linear_4_9988" x1="398.139" y1="193.204" x2="405.633" y2="208.894" gradientUnits="userSpaceOnUse">
<stop stop-color="#96AFDB"/>
<stop offset="1" stop-color="#BAC4E5"/>
</linearGradient>
</defs>
</svg>
