<svg width="1248" height="751" viewBox="0 0 1248 751" fill="none" xmlns="http://www.w3.org/2000/svg">
<path d="M49.34 708.43C49.34 708.43 -86.47 361.85 181.19 361.85C322.61 361.85 264.35 266.76 360.5 156.71C456.65 46.6601 792.9 -41.2599 864.47 171.25C936.04 383.76 759.17 545.1 930.08 517.42C1135.46 484.16 1216.59 708.43 1216.59 708.43H49.34V708.43Z" fill="#F2F2F2"/>
<path d="M106.22 622.89C106.22 622.89 122.45 613.8 114.88 601.47C114.88 601.47 108.82 593.9 102.33 591.95C102.33 591.95 105.79 610.35 102.33 610.78C98.87 611.21 99.95 590 99.95 590C99.95 590 82.85 581.78 76.14 582.43C76.14 582.43 86.74 600.39 83.28 599.96C79.82 599.53 67.91 581.35 67.91 581.35C67.91 581.35 50.38 578.1 47.57 588.49C44.76 598.88 49.3 604.07 51.9 604.72C54.5 605.37 71.16 605.15 70.73 607.32C70.3 609.48 59.04 612.95 52.77 611C52.77 611 59.7 628.1 68.78 627.23C77.87 626.36 80.68 620.74 86.31 620.3C91.94 619.87 96.05 621.38 93.24 622.9C90.43 624.41 80.9 623.4 76.36 627.26C71.82 631.12 68.14 633.5 76.58 635.24C85.02 636.97 100.17 635.89 103.2 629.4L106.22 622.89V622.89Z" fill="#84F59A"/>
<path d="M110.55 638.69C106.01 630.25 106.22 622.89 106.22 622.89C101.03 606.44 55.58 591.73 55.58 591.73C113.36 615.1 103.19 629.39 103.19 629.39C104.75 630.3 107.08 634.63 108.7 637.95C108.93 638.52 109.3 639.3 109.84 640.36C110.06 640.84 110.24 641.23 110.36 641.51C113.34 648.95 111.76 661.81 111.76 661.81L113.56 662.29C117.56 649.33 110.55 638.69 110.55 638.69V638.69Z" fill="#29C6BE"/>
<path d="M130.76 598.34C130.76 598.34 109.36 586.36 119.35 570.1C119.35 570.1 127.34 560.12 135.9 557.55C135.9 557.55 131.34 581.8 135.9 582.37C140.46 582.94 139.04 554.98 139.04 554.98C139.04 554.98 161.58 544.14 170.42 545C170.42 545 156.44 568.68 161.01 568.11C165.57 567.54 181.26 543.58 181.26 543.58C181.26 543.58 204.37 539.3 208.08 552.99C211.79 566.68 205.8 573.53 202.37 574.39C198.95 575.25 176.98 574.96 177.55 577.81C178.12 580.66 192.95 585.23 201.23 582.66C201.23 582.66 192.1 605.2 180.12 604.06C168.14 602.92 164.43 595.5 157.01 594.93C149.59 594.36 144.17 596.36 147.88 598.35C151.59 600.35 164.14 599 170.13 604.1C176.12 609.19 180.97 612.33 169.84 614.61C158.71 616.89 138.75 615.47 134.75 606.91L130.76 598.34V598.34Z" fill="#84F59A"/>
<path d="M197.52 557.26C197.52 557.26 137.61 576.66 130.77 598.34C130.77 598.34 131.06 608.04 125.06 619.16C125.06 619.16 115.82 633.19 121.09 650.27L123.47 649.63C123.47 649.63 121.39 632.69 125.31 622.87C125.47 622.51 125.7 621.99 125.99 621.36C126.71 619.96 127.19 618.93 127.49 618.18C129.63 613.8 132.7 608.09 134.76 606.89C134.76 606.9 121.35 588.07 197.52 557.26V557.26Z" fill="#29C6BE"/>
<path d="M114.29 689.42C137.44 689.42 156.2 670.66 156.2 647.51H72.38C72.38 670.66 91.14 689.42 114.29 689.42V689.42Z" fill="#5957D9"/>
<path d="M119.49 690.39C117.79 690.6 116.05 690.71 114.28 690.71C91.13 690.71 72.37 671.95 72.37 648.8H82.78C82.79 670.18 98.8 687.82 119.49 690.39V690.39Z" fill="#444354"/>
<path d="M151.61 686.54H76.97C75.5989 686.54 74.2839 687.085 73.3143 688.054C72.3447 689.024 71.8 690.339 71.8 691.71H156.78C156.78 690.339 156.235 689.024 155.266 688.054C154.296 687.085 152.981 686.54 151.61 686.54V686.54Z" fill="#5957D9"/>
<path d="M156.51 647.51H71.64C71.29 647.51 71 647.8 71 648.15C71 648.5 71.29 648.79 71.64 648.79H156.51C156.86 648.79 157.15 648.5 157.15 648.15C157.15 647.8 156.86 647.51 156.51 647.51Z" fill="#65656F"/>
<path d="M1134.23 641.15C1121.01 632.06 1094.16 638.43 1074.36 645.19C1071.08 640.854 1067.4 636.837 1063.37 633.19C1105.95 606.63 1164.64 550.21 1133.31 545.67C1106.08 541.72 1069.69 592.4 1050.27 623.24C1029.81 610.29 998.52 600.88 950.87 604.53C827.21 613.99 730.06 538.48 658.98 564.34C602.47 584.9 550.63 596.55 500.54 593.01C502.47 558.1 502.49 489.59 473.72 482.67C444.52 475.64 473.62 553.26 489.77 592.01C486.04 591.58 482.31 591.06 478.6 590.45C468.18 571.15 451.05 545.93 432.42 545.18C414.88 544.48 436.67 567.12 458.1 586.28C396.79 574.42 324.48 622.37 323.64 678.52L1088.01 673.53C1088.01 673.53 1086.6 665.34 1080.53 654.58C1110.06 653.83 1148.59 651.02 1134.23 641.15V641.15Z" fill="#84F59A"/>
<path d="M838.71 375.53H737.64L689.54 389.16V674.69H838.71V375.53Z" fill="#B0B0B0"/>
<path d="M689.54 389.16H802.46V674.7H689.54V389.16Z" fill="#C6C6C5"/>
<path d="M611.81 498.75H510.74L462.64 515.53V674.88H575.57L611.81 673.88V498.75Z" fill="#B0B0B0"/>
<path d="M462.64 515.53H575.56V674.88H462.64V515.53Z" fill="#C6C6C5"/>
<path d="M1067.67 215.43H966.6L918.5 232.22V672.87H1067.67V215.43Z" fill="#B0B0B0"/>
<path d="M918.5 232.22H1031.42V672.87H918.5V232.22Z" fill="#C6C6C5"/>
<path d="M740.99 336.01C751.22 329.76 751.85 331.07 758.95 326.8C772.85 318.43 773.57 272.83 807.13 273.82C842.1 274.85 853.17 377.54 796.75 383.85C786.78 384.97 771.44 387.17 754.1 381.09C727.83 371.88 729.17 343.24 740.99 336.01V336.01Z" fill="#5957D9"/>
<path d="M807.05 273.82C774.38 272.94 772.88 316.23 759.94 326.11C757.93 331.31 756.79 334.7 756.79 334.7C756.79 334.7 793.97 344.28 800.88 346.26C807.79 348.23 814.25 350.78 818.4 348.61C831.16 341.94 831.16 285.34 807.05 273.82Z" fill="#5957D9"/>
<path d="M826.36 287.3C839.25 318 831.72 374.71 789.96 377.45C779.95 378.11 764.53 379.6 747.48 372.73C742.3 370.64 738.29 367.82 735.25 364.6C738.23 371.4 744.2 377.63 754.1 381.1C771.44 387.18 786.78 384.98 796.75 383.86C840.69 378.93 843.69 315.58 826.36 287.3Z" fill="#3634B1"/>
<path d="M762.52 317.35C762.52 317.35 759.23 317.84 756.27 318.85C755.49 319.12 753.16 320.33 753.42 320.78C753.68 321.24 755.2 320 755.84 319.82C756.65 319.59 757.31 319.38 757.44 319.48C757.57 319.58 756.38 319.9 755.73 320.3C755.09 320.7 753.25 321.84 753.67 322.32C754.1 322.8 756.11 321.13 756.63 320.94C757.48 320.63 758.38 320.14 758.69 320.26C759.03 320.39 757.47 320.9 756.91 321.31C756.35 321.72 754.33 323.3 754.85 323.71C755.37 324.12 757.05 322.33 757.76 321.93C758.53 321.5 761.13 320.54 761.18 320.84C761.23 321.13 761.15 321.63 760.6 321.97C760.05 322.3 758.63 322.97 758.93 323.35C759.18 323.67 761.17 322.82 761.92 322.34C763.3 321.45 763.84 320.12 763.84 320.12L767.46 320.19L768.13 316.88L762.52 317.35V317.35Z" fill="#DFA169"/>
<path d="M801.33 279.9C802.79 279.53 811.38 262.35 806.3 259.04C803.7 257.35 800.38 264.95 800.38 264.95C800.38 264.95 798 279.81 801.33 279.9V279.9Z" fill="#8F4A17"/>
<path d="M806.29 259.04C811.1 262.17 805.48 279.06 801.59 279.74C801.82 278.69 801.91 277.37 801.96 275.46C801.91 274.41 801.85 273.44 801.8 272.52L801.77 274.07L800.81 274.26C800.81 274.26 800.91 267.02 799.33 262.94C800.15 263.58 804.64 266.72 806.82 263.21C808.25 260.91 806.29 259.04 806.29 259.04Z" fill="#853F17"/>
<path d="M782.21 292.08C779.41 293.44 776.45 307.88 774.48 315.9C774.48 315.9 771.27 316.02 764.11 317.01L764.73 320.22C764.73 320.22 775.15 325.87 781.31 324.01C787.47 322.15 786.49 290 782.21 292.08Z" fill="#DBCAD4"/>
<path d="M773.27 327.92C773.27 327.92 782.02 327.44 790.14 329.58C799.33 332 806.53 336.49 806.53 336.49C811.83 326.81 814.16 300.08 814.09 293.2C807.51 288.64 788.42 287.32 782.21 292.09C782.39 291.72 779.83 297.52 781.47 305.42C783.02 312.83 784.76 320.33 780.32 324.42C777.97 326.34 773.27 327.92 773.27 327.92Z" fill="#FBEFF4"/>
<path d="M812.47 312.68C811.89 309.09 811.08 306.73 811.08 306.73C809.44 311.01 805.65 315.78 793.47 314.46C785.42 313.59 782.77 309.92 781.9 307.53C783.28 314.22 784.32 320.72 780.31 324.41C779.72 324.89 778.98 325.36 778.21 325.78C777.93 326.53 777.66 327.25 777.39 327.9C780.69 327.99 785.51 328.36 790.13 329.58C798.87 331.88 805.88 336.1 805.88 336.1C805.89 336.1 805.89 336.1 805.89 336.11C806.09 336.23 806.24 336.32 806.35 336.38C806.36 336.39 806.36 336.39 806.37 336.39C806.46 336.45 806.53 336.49 806.53 336.49C809.69 330.71 811.59 319.21 812.47 312.68V312.68Z" fill="#EAD9E0"/>
<path d="M740.39 387.95C740.39 387.95 738.78 389.85 735.73 391C732.68 392.14 730.93 391.89 730.98 392.65C731.02 393.41 741.98 393.03 742.08 392.14C742.18 391.25 741.81 389.98 742.16 387.95C742.52 385.92 740.39 387.95 740.39 387.95V387.95ZM768.36 387.95C768.36 387.95 766.75 389.85 763.7 391C760.65 392.14 758.9 391.89 758.95 392.65C758.99 393.41 769.95 393.03 770.05 392.14C770.15 391.25 769.78 389.98 770.13 387.95C770.49 385.92 768.36 387.95 768.36 387.95V387.95Z" fill="#2F313D"/>
<path d="M779.9 328.48C786.56 330.7 806.89 348.25 794.95 347.36C773.48 345.76 747.96 336.13 747.96 336.13C747.96 336.13 749.23 327.14 752.62 324.78C755.47 322.81 773.24 326.26 779.9 328.48V328.48Z" fill="#323431"/>
<path d="M776.87 328.56L771.52 334.04C771.52 334.04 756.8 332.25 756.13 333.37C755.46 334.49 756.29 345.27 755.28 350.11C754.41 354.29 743.37 382.32 741.29 388.33H743.39C743.39 388.33 758.2 356.23 759.26 348.51C759.84 344.31 760.16 343.41 760.04 340.08C760.04 340.08 784.97 347.73 796.94 347.36C799.65 347.28 776.87 328.56 776.87 328.56V328.56Z" fill="#323431"/>
<path d="M806.53 336.48C805.9 338.74 805.05 340.93 803.93 342.43L763.93 336.14C763.93 336.14 762.33 329.12 765.39 326.33C769.04 323.02 795.21 328.98 806.53 336.48V336.48Z" fill="#323431"/>
<path d="M777.91 347.12C777.8 342.92 778.06 343.61 777.19 340.82C777.19 340.82 794.34 350.45 800.76 346.37C804.32 344.11 805.9 338.73 806.53 336.47L796.95 332.13C796.95 332.13 796 336.63 794.18 337.64C792.36 338.65 771.81 332.25 771 333.06C770.19 333.87 773.62 341.84 774.23 347.6C774.84 353.35 769.26 388.32 769.26 388.32H771.49C771.49 388.33 778.12 354.84 777.91 347.12V347.12Z" fill="#323431"/>
<path d="M749.23 339.48C749.23 339.48 781.75 338.11 810.92 349.72C810.92 349.71 760.41 363.38 749.23 339.48Z" fill="#5756B6"/>
<path d="M748.03 335.48C748.03 335.48 741.44 370.6 738.17 388.33H743.39C743.39 388.33 758.2 356.23 759.26 348.51C760.32 340.79 759.24 332.31 759.24 332.31L748.03 335.48V335.48ZM763.93 336.14C763.93 336.14 765.02 370.6 766.27 388.34H771.49C771.49 388.34 778.12 354.85 777.91 347.13C777.7 339.41 774.57 332.32 774.57 332.32C770.59 332.14 767.07 333.51 763.93 336.14ZM786.44 328.24C786.44 328.24 796.9 330.54 806.52 336.48L806.04 338.07C806.04 338.07 796.51 331.28 786.44 328.24Z" fill="#323431"/>
<path d="M803.13 276.13C803.13 276.13 802.24 285.54 803.64 290.12L791.78 289.51C791.78 289.51 792.59 288.01 792.63 282.09C792.7 273.82 803.13 276.13 803.13 276.13Z" fill="#F3BC82"/>
<path d="M790.06 320.2C790.06 320.2 784.77 320.34 781.67 320.92C781.67 320.92 779.7 321.13 778.3 321.87C777.53 322.28 776.16 323.53 776.44 324C776.72 324.47 777.58 323.56 778.86 322.93C779.59 322.57 781.35 322.32 781.42 322.43C781.49 322.54 779.94 323 779.29 323.46C778.75 323.85 777.04 325.8 777.42 326.15C777.92 326.63 778.49 325.68 779.97 324.44C780.5 324.06 782.37 323.52 782.46 323.66C782.55 323.8 781.13 324.36 780.67 324.89C780.21 325.43 779.03 326.97 779.49 327.33C779.95 327.7 780.7 326.5 781.51 325.73C781.95 325.32 783.58 324.58 783.64 324.61C783.7 324.65 783.01 325.15 782.7 325.69C782.39 326.24 781.96 327.59 782.34 327.7C782.72 327.8 782.95 327.17 783.79 326.09C784.05 325.76 785.09 325.02 785.09 325.02C785.09 325.02 788.35 324.91 790.08 322.93C790.08 322.95 790.99 320.51 790.06 320.2V320.2Z" fill="#DFA169"/>
<path d="M790.08 322.95L794.85 324.6L795.43 320.24L790.06 320.2C790.06 320.2 789.01 322.17 790.08 322.95V322.95Z" fill="#DFA169"/>
<path d="M788.4 289.7C788.78 290.7 790.44 293.67 796.68 294.18C803.07 294.7 807.57 291.77 808.8 290.87C802.83 289.09 794.53 288.54 788.4 289.7Z" fill="#F3BC82"/>
<path d="M813.72 293.07C820.63 295.04 821.95 331.08 816.19 332.23C808.64 333.74 796.57 326.51 790.89 323.92L791.2 319.97C791.2 319.97 801.26 319.72 809.52 320.83C809.52 320.83 807.33 291.24 813.72 293.07V293.07Z" fill="#FBEFF4"/>
<path d="M808.8 290.87C807.19 290.39 805.4 290.01 803.53 289.72C802.29 285.01 803.13 276.14 803.13 276.14C803.13 276.14 800.29 275.52 797.56 276.1C795.65 277.92 793.8 280.11 792.62 282.55C792.57 285.93 792.27 287.77 792.04 288.69C793.37 289.9 796.8 292.42 803.04 293.6C806.01 292.77 808.04 291.43 808.8 290.87V290.87Z" fill="#CF7948"/>
<path d="M746.38 322.15L776.82 325.74L773.21 301.38L742.77 297.79L746.38 322.15Z" fill="#8292B2"/>
<path d="M746.261 324.302L746.478 322.475L788.959 327.532L788.741 329.359L746.261 324.302Z" fill="#A3BED4"/>
<path d="M746.36 322.12L776.1 325.66L772.56 301.78L742.82 298.23L746.36 322.12Z" fill="#A3BED4"/>
<path d="M756.65 311.35C756.89 312.52 758.1 313.59 759.34 313.74C760.58 313.89 761.4 313.06 761.16 311.89C760.92 310.72 759.71 309.65 758.47 309.5C757.22 309.35 756.41 310.18 756.65 311.35Z" fill="#8292B2"/>
<path opacity="0.2" d="M776.1 325.66L772.56 301.78L742.82 298.23L776.1 325.66Z" fill="#A3BED4"/>
<path d="M776.619 327.918L776.836 326.091L788.96 327.534L788.743 329.361L776.619 327.918Z" fill="#8292B2"/>
<path d="M767.44 325.441L767.536 324.636L773.116 325.301L773.02 326.106L767.44 325.441Z" fill="#8292B2"/>
<path d="M748.354 323.173L748.45 322.369L753.226 322.938L753.13 323.742L748.354 323.173Z" fill="#8292B2"/>
<path d="M772.32 302.05L742.87 298.54L742.82 298.23L772.56 301.77L776.1 325.66L775.82 325.62L772.32 302.05Z" fill="#B8D3EF"/>
<path d="M785.21 270.69C785.21 270.69 781.52 266.44 781.85 260.87C782.18 255.3 808.29 246.88 804.96 260.3C804.95 260.3 792.81 276.01 785.21 270.69Z" fill="#8F4A17"/>
<path d="M801.97 275.46C801.79 281.63 801.38 281.51 796.42 285.89C795.36 286.83 791.89 287.1 790.93 286.62C789.97 286.15 789.85 285.23 788.46 283.23C786.89 280.97 785.98 278.6 785.78 277.26C785.52 275.48 785.6 274.25 785.45 272.98C785.16 270.54 784.5 268.39 784.36 265.59C784.22 262.83 787.36 260.81 791.53 260.57C801.08 260.05 801.38 264.03 801.97 275.46V275.46Z" fill="#F3BC82"/>
<path d="M795.29 285.86C802.2 280.65 799.93 264.28 796.77 262.14C802.84 262.81 802.23 268.53 802.02 276.74C801.83 281.21 801.26 282.5 796.16 286.34C795.07 287.16 791.72 287.16 790.83 286.63C790.69 286.55 790.58 286.45 790.48 286.34C791.76 286.67 794.36 286.57 795.29 285.86V285.86Z" fill="#DFA169"/>
<path d="M801.82 271.62L801.77 274.08L800.8 274.27C800.8 274.27 800.96 263.18 797.89 260.71C797.89 260.7 802.11 259.91 801.82 271.62Z" fill="#8F4A17"/>
<path d="M800.89 261.78C800.89 261.78 799.94 263.9 795.34 262.38C785.62 259.16 784.34 264.53 784.34 264.53C784.34 264.53 785.28 252.88 800.89 261.78Z" fill="#8F4A17"/>
<path d="M784.77 270.12C783.8 268.79 781.59 265.25 781.85 260.87C781.87 260.54 781.98 260.2 782.17 259.85C783.9 256.95 793.57 261.8 795.85 262.52C790.84 260.95 788.18 261.15 786.6 261.99C784.92 263.06 784.71 264.36 784.77 270.12V270.12Z" fill="#853F17"/>
<path d="M800.59 274.6C800.647 274.922 800.767 275.23 800.943 275.506C801.119 275.782 801.348 276.021 801.617 276.209C801.885 276.396 802.188 276.529 802.507 276.6C802.827 276.67 803.158 276.677 803.48 276.62C803.802 276.563 804.11 276.443 804.386 276.267C804.662 276.091 804.901 275.862 805.089 275.593C805.276 275.325 805.409 275.022 805.48 274.703C805.55 274.383 805.557 274.052 805.5 273.73C805.385 273.079 805.015 272.5 804.473 272.121C803.931 271.743 803.261 271.595 802.61 271.71C801.959 271.825 801.38 272.195 801.001 272.737C800.623 273.279 800.475 273.949 800.59 274.6Z" fill="#DFA169"/>
<path d="M802.7 275.44C803.33 275.29 803.73 274.66 803.58 274.03C803.44 273.41 802.83 273.03 802.22 273.15C802.37 273.04 802.54 272.95 802.74 272.9C803.49 272.73 804.23 273.19 804.4 273.94C804.57 274.69 804.11 275.43 803.36 275.6C803.01 275.68 802.66 275.61 802.36 275.44C802.47 275.46 802.58 275.47 802.7 275.44Z" fill="#CF7948"/>
<path d="M802.27 271.71C801.82 272.29 801.67 273.09 801.77 274.08L800.81 274.27C800.81 274.27 800.91 267.03 799.33 262.95C799.57 263.13 801.29 264.15 802 264.55C802.59 267.41 802.27 268.86 802.27 271.71V271.71Z" fill="#853F17"/>
<path d="M819.43 309.29C820.08 319.04 818.92 329.31 815.85 329.92C808.34 331.42 796.69 325.26 790.98 322.64L790.88 323.91C796.56 326.5 808.63 333.73 816.18 332.22C819.44 331.58 820.43 319.78 819.43 309.29V309.29Z" fill="#DBCAD4"/>
<path d="M954.02 189.9C954.02 189.9 948.39 190.24 948.39 187.65C948.39 184.59 950.85 181.7 949.35 177.52H951.92C953.57 182.4 949.38 186.78 954.33 187.49L954.02 189.9V189.9Z" fill="#A3BED4"/>
<path d="M973.896 188.022V227.112H971.386V188.022H973.896Z" fill="#A3BED4"/>
<path d="M973.892 188.026V227.116H972.972V188.026H973.892Z" fill="#8292B2"/>
<path d="M971.26 198.01L969.27 188.61H976.01L974.01 198.01H971.26Z" fill="#8292B2"/>
<path d="M986.75 229.33H958.53V228.55L969.86 226.66H975.41L986.75 228.55V229.33Z" fill="#A3BED4"/>
<path d="M976.07 226.88H969.2L970.48 218.86H974.8L976.07 226.88Z" fill="#A3BED4"/>
<path d="M970.48 218.86H974.8L976.07 226.88L986.75 228.55H967.93L971.26 227.11L972.16 219.57L970.48 218.86Z" fill="#8292B2"/>
<path d="M990.78 186.36H954.5C954.5 185.419 954.874 184.516 955.54 183.85C956.206 183.184 957.108 182.81 958.05 182.81H987.23C988.171 182.81 989.074 183.184 989.74 183.85C990.406 184.516 990.78 185.419 990.78 186.36V186.36Z" fill="#B9C3E5"/>
<path d="M987.23 182.81H971.97C972.911 182.81 973.814 183.184 974.48 183.85C975.146 184.516 975.52 185.419 975.52 186.36H990.78C990.78 185.419 990.406 184.516 989.74 183.85C989.074 183.184 988.171 182.81 987.23 182.81V182.81Z" fill="#B9C3E5"/>
<path d="M954.56 185.73C954.52 185.93 954.5 186.14 954.5 186.35H990.78C990.78 186.14 990.76 185.93 990.72 185.73H954.56V185.73Z" fill="#B9C3E5"/>
<path d="M953.08 186.21H992.2V191H953.08V186.21Z" fill="#B9C3E5"/>
<path d="M966.92 186.21H992.2V191H966.92V186.21Z" fill="#B9C3E5"/>
<path d="M953.08 186.21H992.2V186.79H953.08V186.21ZM955.07 158.51C955.07 174.49 953.12 180.8 950.7 180.8C948.29 180.8 946.33 174.49 946.33 158.51C946.33 142.53 948.28 122.92 950.7 122.92C953.12 122.91 955.07 142.52 955.07 158.51Z" fill="#B9C3E5"/>
<path d="M958.63 159.62C958.63 175.07 954.37 180.37 952.04 180.37C949.71 180.37 948.36 173.73 948.36 158.28C948.36 142.83 949.71 124.41 952.04 124.41C954.36 124.42 958.63 144.17 958.63 159.62Z" fill="#B9C3E5"/>
<path d="M963.11 127.52C970.15 124.24 979.72 149.28 982.45 150.24C985.18 151.2 989.81 152.62 1005.01 153.98L1004.67 157.88C995.02 159.6 980.05 158.66 977.67 158.66C975.3 158.66 955.09 131.25 963.11 127.52V127.52Z" fill="#EBEBEB"/>
<path d="M1006.51 154.59L1002.34 154.1L1002.06 157.64L1006.82 157.25L1006.51 154.59Z" fill="#F3B3A4"/>
<path d="M1015.32 212.33C1015.32 212.33 1017.54 216.72 1018.52 217.99L1016.48 218.73L1012.78 214.03L1015.32 212.33V212.33Z" fill="#DFA169"/>
<path d="M1022.94 216.4C1023.17 216.76 1017.71 220.42 1017.34 220.14C1017.14 219.98 1016.48 218.73 1016.48 218.73L1018.27 217.6C1018.27 217.6 1022.72 216.04 1022.94 216.4V216.4Z" fill="#DFA169"/>
<path d="M1017.34 221.44L1017.09 221.15C1017.68 220.66 1018.39 220.09 1019.68 219.01C1019.68 219.01 1019.36 216.7 1020.35 216.23C1021.97 215.45 1023.83 214.96 1023.9 215.36C1023.98 215.88 1017.34 221.44 1017.34 221.44V221.44Z" fill="#E24761"/>
<path d="M1021.94 215.09C1022.12 215.68 1021.98 215.97 1021.71 216.04C1021.44 216.11 1021.16 215.97 1020.98 215.37C1020.8 214.78 1020.79 213.97 1021.06 213.89C1021.32 213.82 1021.76 214.5 1021.94 215.09ZM1020.21 216.62C1020.78 216.87 1021.07 216.77 1021.19 216.51C1021.3 216.26 1021.19 215.96 1020.62 215.71C1020.05 215.46 1019.25 215.35 1019.14 215.6C1019.03 215.85 1019.65 216.36 1020.21 216.62V216.62Z" fill="#E24761"/>
<path d="M1021.53 216.65C1021.6 216.73 1021.59 216.84 1021.51 216.91C1021.43 216.98 1021.32 216.97 1021.25 216.89C1021.18 216.81 1021.19 216.7 1021.27 216.63C1021.34 216.57 1021.46 216.58 1021.53 216.65ZM1022.37 215.78C1022.44 215.86 1022.43 215.97 1022.35 216.04C1022.27 216.11 1022.16 216.1 1022.09 216.02C1022.02 215.94 1022.03 215.83 1022.11 215.76C1022.19 215.69 1022.3 215.71 1022.37 215.78Z" fill="#6D3A45"/>
<path d="M1013.4 214.82L1014.37 216.06C1014.37 216.06 1014.71 214.77 1016.5 214.6L1015.73 213.15L1013.4 214.82Z" fill="#D18552"/>
<path d="M998.44 168.48C1002.1 171.83 1005.16 191.89 1016.2 212.82L1011.98 215.83C1011.98 215.83 999.2 199.43 995.53 188.39C993.55 182.42 992.08 173.51 992.08 173.51L998.44 168.48V168.48Z" fill="#5957D9"/>
<path d="M997.88 221.58C997.88 221.58 997.42 226.48 997.58 228.07L995.45 227.61L994.82 221.66L997.88 221.58Z" fill="#DFA169"/>
<path d="M1002.16 229.08C1002.16 229.5 995.43 229.26 995.43 229.26L995.45 227.61H997.57C997.57 227.61 1002.16 228.66 1002.16 229.08Z" fill="#DFA169"/>
<path d="M994.77 229.25V228.86C995.54 228.89 996.45 228.92 998.13 228.97C998.13 228.97 999.42 227.03 1000.47 227.33C1002.2 227.82 1003.92 228.68 1003.7 229.03C1003.43 229.47 994.77 229.25 994.77 229.25V229.25Z" fill="#E24761"/>
<path d="M1002.42 227.53C1002.16 228.09 1001.87 228.21 1001.62 228.1C1001.37 227.99 1001.26 227.68 1001.52 227.12C1001.78 226.56 1002.31 225.95 1002.56 226.06C1002.81 226.17 1002.68 226.96 1002.42 227.53ZM1000.12 227.53C1000.38 228.09 1000.67 228.21 1000.92 228.1C1001.17 227.99 1001.28 227.68 1001.02 227.12C1000.76 226.56 1000.23 225.95 999.98 226.06C999.73 226.17 999.86 226.96 1000.12 227.53Z" fill="#E24761"/>
<path d="M1001.08 228.43C1001.08 228.53 1001 228.61 1000.9 228.61C1000.8 228.61 1000.72 228.53 1000.72 228.43C1000.72 228.33 1000.8 228.25 1000.9 228.25C1001 228.25 1001.08 228.32 1001.08 228.43ZM1002.28 228.33C1002.28 228.43 1002.2 228.51 1002.1 228.51C1002 228.51 1001.92 228.43 1001.92 228.33C1001.92 228.23 1002 228.15 1002.1 228.15C1002.2 228.15 1002.28 228.23 1002.28 228.33Z" fill="#6D3A45"/>
<path d="M995 223.26L995.18 224.99C995.18 224.99 996.32 224.15 997.62 224.99L997.74 223.26H995Z" fill="#D18552"/>
<path d="M1002.71 179.69C1002.93 182.78 998.64 198.71 997.9 223.27H993.53C993.53 223.27 990.45 201.2 991.11 195.02C991.77 188.84 994.19 179.81 994.19 179.81C994.19 179.81 1002.49 176.6 1002.71 179.69V179.69Z" fill="#5957D9"/>
<path d="M956.78 166.42C956.78 166.42 954.69 171.47 955.68 176.65C956.86 182.81 962.51 182.81 962.51 182.81H986.49C986.49 182.81 1002.72 184.37 1002.72 179.06C1002.58 173.79 982.54 172.79 976.44 169.62C973.51 169.16 956.78 166.42 956.78 166.42V166.42Z" fill="#4C4ADC"/>
<path d="M986.75 96.3201C988.15 98.2901 989.32 102.26 982.76 112.13C978.95 117.86 977.86 125.22 973.07 127.34C970.61 128.03 966.43 130.54 962.33 128.04C950.06 120.55 958.72 91.2001 964.14 95.3901C963.09 88.5901 984.08 92.5601 986.75 96.3201V96.3201Z" fill="#3C3C3B"/>
<path d="M972.81 121.32L976.45 99.61C976.45 99.61 977.95 100.08 979.01 99.63C979.83 99.28 984.26 94.62 986.71 96.27C986.72 96.29 986.74 96.3 986.75 96.32C988.15 98.29 989.32 102.26 982.76 112.13C978.95 117.86 977.86 125.22 973.07 127.34C972.24 127.57 971.23 127.96 970.09 128.3L972.81 121.32V121.32Z" fill="#3C3C3B"/>
<path d="M956.81 166.42C956.81 166.42 951.1 181.42 962.68 182.81H972.82C977.71 182.81 992.65 173.93 995.2 174.14C997.83 173.23 998.88 171.77 998.92 170.34C999.02 166.91 995.84 166.39 985.35 166.69C980.34 166.83 975.78 167.21 975.78 167.21L956.81 166.42V166.42Z" fill="#5957D9"/>
<path d="M981.03 122.52C981.03 122.52 980.38 123.57 973.16 121.67L973.12 119.07L981.03 122.52V122.52Z" fill="#F3B3A4"/>
<path d="M956.81 166.42C956.81 166.42 959.43 158.42 960.49 153.44C961.02 150.94 957.51 130.39 963.82 126.69C970.45 124.33 980.25 137.57 980.74 142.28C981.21 146.87 973.96 152.25 973.82 153.96C973.05 163.47 975.77 167.23 975.77 167.23C975.77 167.23 958.06 171.99 956.81 166.42V166.42Z" fill="#EBEBEB"/>
<path d="M977.84 136.04C975.91 136.22 967.66 126.59 963.81 126.68C967.62 125.81 971 127.98 973.56 130.62C973.56 130.62 976.64 134.04 977.84 136.04Z" fill="#F3B3A4"/>
<path d="M966.46 117.21C966.46 117.21 966.59 120.95 963.82 126.69L973.02 130.68C973.02 130.68 972.09 125.06 974.06 119.27L970.57 116.94L966.46 117.21V117.21Z" fill="#F3B3A4"/>
<path d="M980.86 98.2101C980.86 98.2101 984.47 100.61 983.67 106.1C982.98 110.83 982.49 112.24 985.47 113.48C985.47 113.48 985.19 114.6 983.62 115.31C983.62 115.31 982.49 116.62 982.14 118.43C981.79 120.23 981.53 122.15 981.04 122.53C980.22 123.16 972.28 120.99 970.41 117.21C969.54 115.46 969.33 113.2 969.33 113.2C969.33 113.2 970.27 93.1601 980.86 98.2101V98.2101Z" fill="#F3B3A4"/>
<path d="M983.79 104.34C983.79 104.34 983.63 101.44 982.11 99.82C980.59 98.2 980.06 101.9 975.65 99.35C970.13 96.17 979.92 94.2 982.89 97.56C985.85 100.93 983.79 104.34 983.79 104.34Z" fill="#3C3C3B"/>
<path d="M966.38 111.22C966.37 112.45 967.37 113.45 968.6 113.46C969.83 113.46 970.83 112.47 970.84 111.24C970.84 110.01 969.85 109.01 968.62 109C968.327 108.997 968.036 109.053 967.764 109.163C967.493 109.274 967.246 109.437 967.037 109.643C966.829 109.849 966.664 110.095 966.551 110.366C966.438 110.636 966.38 110.927 966.38 111.22V111.22Z" fill="#F3B3A4"/>
<path d="M969.61 109.18C969.88 110.61 972.11 110.77 972.71 108.41C973.3 106.1 973.55 99.95 976.45 99.62L969.49 95.6L969.61 109.18ZM969.29 113.39C972.79 120.22 970.24 129.13 969.1 129.23C968.31 129.3 967.18 127.74 965.24 127.49C965.24 127.49 963.48 126.83 962.33 128.03C960.54 122.07 969.29 113.39 969.29 113.39Z" fill="#3C3C3B"/>
<path d="M976.43 99.76L976.45 99.62C976.45 99.62 977.95 100.09 979.01 99.64C979.43 99.46 980.82 98.13 982.4 97.11C982.57 97.25 982.74 97.4 982.88 97.56C985.85 100.93 983.79 104.34 983.79 104.34C983.79 104.34 983.63 101.44 982.11 99.82C980.68 98.3 980.13 101.46 976.43 99.76Z" fill="#3C3C3B"/>
<path d="M997.28 180.63C997.09 180.4 995.85 180.24 994.24 180.14C993.55 182.64 991.72 189.56 991.13 194.62C990.41 200.89 993.78 223.27 993.78 223.27H995.65C995.25 219.96 993.13 201.85 993.78 195.94C994.51 189.43 997.88 181.35 997.28 180.63Z" fill="#5957D9"/>
<path d="M975.77 167.22C975.77 167.22 973.05 163.47 973.82 153.95C973.95 152.34 980.42 147.45 980.74 143.05C980.72 143.08 973.8 154.98 960.49 153.44C959.43 158.42 956.81 166.42 956.81 166.42C958.06 171.99 975.77 167.22 975.77 167.22Z" fill="#EBEBEB"/>
<path d="M978.53 147.88C974.54 139.83 968.49 126.29 963.4 128.66C957.02 131.63 967.83 151 973.72 158.8C973.65 157.38 973.67 155.77 973.82 153.94C973.9 152.93 976.53 150.58 978.53 147.88V147.88Z" fill="#EBEBEB"/>
<path d="M963.11 127.52C970.15 124.24 979.32 150.49 982.05 151.46C984.78 152.42 989.81 152.62 1005.01 153.98L1004.67 157.88C995.02 159.6 980.05 158.66 977.67 158.66C975.3 158.66 955.09 131.25 963.11 127.52V127.52Z" fill="#EBEBEB"/>
<path d="M978.23 156.63C976.2 156.18 960.48 136.51 961.81 128.69C957.95 135.09 975.47 158.65 977.68 158.65C980.06 158.65 995.03 159.59 1004.68 157.87L1004.79 156.6C995.13 158.25 981.07 157.26 978.23 156.63V156.63Z" fill="#EBEBEB"/>
<path d="M1016.14 156.62L1016.46 157.68L1015.44 157.25L1008.32 148.97L1008.78 148.56L1016.14 156.62Z" fill="#3D3C51"/>
<path d="M1008.62 148.56C1008.77 148.73 1008.82 148.91 1008.75 148.98C1008.67 149.05 1008.49 148.97 1008.35 148.8C1008.2 148.63 1008.15 148.45 1008.22 148.38C1008.29 148.32 1008.47 148.4 1008.62 148.56ZM1016.58 157.76L1016.52 157.82L1016.28 157.6L1016.39 157.5L1016.58 157.76Z" fill="#3D3C51"/>
<path d="M1006.51 154.59C1009.5 153.64 1012.31 153.04 1014.42 154.03C1014.71 154.16 1016.24 154.81 1016.1 155.44C1015.99 155.92 1014.67 155.21 1014.1 155.01C1013.32 154.74 1012.33 154.56 1012.29 154.66C1012.22 154.81 1015.74 155.64 1015.42 156.35C1015.03 157.23 1012.15 155.35 1012.02 155.64C1011.89 155.93 1014.8 156.63 1014.47 157.19C1014.17 157.7 1011.7 156.51 1011.54 156.66C1011.38 156.81 1013.41 157.22 1013.01 157.68C1012.8 157.93 1012.49 158.02 1011 157.74C1011 157.74 1008.71 158.04 1006.82 157.25C1005.53 156.1 1006.51 154.59 1006.51 154.59V154.59Z" fill="#F3B3A4"/>
<path d="M1002.72 157.88H1032.04V158.7H1002.72V157.88Z" fill="#33323D"/>
<path d="M1025.65 157.63H1028.91V158.02H1025.65V157.63ZM1020.4 157.63H1023.66V158.02H1020.4V157.63Z" fill="#33323D"/>
<path d="M1047.33 158.01H1043.81C1042.86 151.91 1040.6 147.51 1036.98 144.09H1039.83C1042.81 147.03 1044.93 152.34 1047.33 158.01Z" fill="#2E2D38"/>
<path d="M1048.39 158.68H1034.21V157.88L1048.39 157.15V158.68ZM1045.19 122.64L1042.44 116.69L1037.59 150.45H1042.24L1045.19 122.64Z" fill="#2E2D38"/>
<path d="M1041.72 101.1C1041.32 101.2 1040.28 114.34 1038.87 127.34C1037.46 140.34 1035.68 153.2 1036.1 153.38C1036.94 153.74 1039.32 153.98 1042.37 127.36C1045.23 102.34 1042.53 100.9 1041.72 101.1Z" fill="#454551"/>
<path d="M981.93 160.85H984.32V230.59H981.93V160.85ZM1047.14 160.85H1049.53V230.59H1047.14V160.85Z" fill="white" stroke="#585856" stroke-width="0.25" stroke-miterlimit="10"/>
<path d="M981.93 161.06H1049.52V168.01H981.93V161.06Z" fill="white" stroke="#585856" stroke-width="0.25" stroke-miterlimit="10"/>
<path d="M978.2 158.66H1053.26V163.22H978.2V158.66Z" fill="white" stroke="#585856" stroke-width="0.25" stroke-miterlimit="10"/>
<path d="M388.11 568.69H287.03L238.94 578.89V675.72H351.86L388.11 674.69V568.69Z" fill="#B0B0B0"/>
<path d="M238.94 578.89H351.86V675.72H238.94V578.89Z" fill="#C6C6C5"/>
<path d="M360.81 520.4C345.27 537.21 329.13 554.11 313.8 568.69C320.42 549.06 327.46 530.08 335.05 511.94H331.84C325.27 531.76 317.45 552.73 308.57 574.65H311.75L311.76 574.67C330.09 555.07 347.24 537.38 362.11 523.2L360.81 520.4V520.4Z" fill="white" stroke="#585856" stroke-width="0.25" stroke-miterlimit="10"/>
<path d="M354.28 574.64H351.08L312.61 449.16H315.81L354.28 574.64Z" fill="white" stroke="#585856" stroke-width="0.25" stroke-miterlimit="10"/>
<path d="M272.47 451.75C272.47 451.75 292.57 458.77 315.77 451.75C315.77 451.75 307.89 508.04 329.57 526.06C329.35 527.53 302.6 539.74 287.18 526.06C287.19 526.06 274.61 508.24 272.47 451.75V451.75Z" fill="#29C6BE"/>
<path d="M314.38 475.11C314.37 471.79 314.46 468.67 314.59 465.84C294.76 468.4 281.14 467.42 273.3 466.17C273.56 469.47 273.85 472.61 274.17 475.59C278.58 476.19 284.21 476.64 291.1 476.64C297.68 476.64 305.43 476.22 314.38 475.11V475.11ZM316.01 496.75C315.52 493.73 315.15 490.67 314.9 487.64C297.09 490.39 284.21 490.16 276.01 489.32C276.57 492.72 277.16 495.85 277.77 498.71C280.69 498.94 284.03 499.09 287.79 499.09C295.42 499.09 304.81 498.48 316.01 496.75ZM318.59 507.87C301.74 511.77 289.34 512.51 281.32 512.33C282.6 516.35 283.81 519.37 284.8 521.54C293.68 521.45 306.08 520.29 322.09 516.46C320.69 513.82 319.54 510.92 318.59 507.87V507.87Z" fill="#84F59A"/>
<path d="M287.19 526.06C287.19 526.06 291.54 535.68 317.19 535.68C358.87 535.68 360.95 521.67 360.95 521.67H316.25C306.13 532.75 294.81 532.74 287.19 526.06Z" fill="#218C9B"/>
<path d="M317.1 520.4C301.84 536.69 285.66 553.52 269.94 568.78C276.1 549.59 283.11 530.64 291.06 511.94H287.85C281.38 532.71 273.67 553.62 264.86 574.65H268.04L268.05 574.67C284.3 557.28 301.65 539.28 318.4 523.2L317.1 520.4V520.4Z" fill="white" stroke="#585856" stroke-width="0.25" stroke-miterlimit="10"/>
<path d="M310.2 574.64H307L268.53 449.16H271.73L310.2 574.64Z" fill="white" stroke="#585856" stroke-width="0.25" stroke-miterlimit="10"/>
<path d="M312 469.7C310.65 469.33 302.99 453.24 307.77 450.26C310.21 448.74 313.16 455.85 313.16 455.85C313.16 455.85 315.09 469.67 312 469.7V469.7Z" fill="#323431"/>
<path d="M307.77 450.25C303.26 453.06 308.16 468.83 311.76 469.54C311.56 468.56 311.51 467.33 311.49 465.56C311.56 464.59 311.62 463.69 311.69 462.84V464.28L312.58 464.47C312.58 464.47 312.61 457.75 314.15 453.99C313.38 454.57 309.16 457.4 307.2 454.11C305.92 451.95 307.77 450.25 307.77 450.25V450.25Z" fill="#323431"/>
<path d="M348.49 506.18C348.49 506.18 351.58 506.19 354.43 506.73C355.18 506.87 357.48 507.67 357.3 508.13C357.12 508.58 355.56 507.65 354.95 507.57C354.18 507.47 353.54 507.36 353.43 507.47C353.32 507.58 354.46 507.71 355.11 508C355.75 508.28 357.59 509.08 357.27 509.58C356.94 510.08 354.87 508.81 354.37 508.71C353.55 508.54 352.65 508.21 352.39 508.36C352.1 508.53 353.6 508.79 354.17 509.09C354.74 509.39 356.81 510.57 356.38 511.02C355.96 511.47 354.18 510.04 353.47 509.77C352.7 509.48 350.19 508.94 350.18 509.22C350.17 509.49 350.32 509.95 350.87 510.18C351.42 510.41 352.81 510.84 352.59 511.22C352.4 511.55 350.46 511.04 349.71 510.69C348.32 510.05 347.65 508.91 347.65 508.91L344.33 509.46L343.27 506.51L348.49 506.18Z" fill="#F5C4AD"/>
<path d="M328.74 481.08C331.33 482.34 334.18 498.45 336.01 505.89C336.01 505.89 341.51 506.24 348.21 506.19L347.64 508.9C347.64 508.9 334.79 513.76 329.07 512.03C323.37 510.31 324.77 479.15 328.74 481.08Z" fill="#F5C4AD"/>
<path d="M337.03 514.33C337.03 514.33 328.92 513.88 321.38 515.87C312.86 518.12 306.17 522.28 306.17 522.28C301.26 513.3 299.09 488.5 299.16 482.11C305.26 477.88 322.98 476.65 328.74 481.08C328.57 480.73 330.95 486.12 329.43 493.45C328 500.33 326.38 507.29 330.5 511.08C332.67 512.87 337.03 514.33 337.03 514.33V514.33Z" fill="#FBEFF4"/>
<path d="M300.66 500.2C301.2 496.87 301.95 494.68 301.95 494.68C303.48 498.65 306.99 503.08 318.29 501.85C325.76 501.04 328.21 497.64 329.02 495.42C327.74 501.63 326.77 507.65 330.5 511.09C331.05 511.54 331.73 511.97 332.45 512.36C332.71 513.06 332.96 513.72 333.21 514.32C330.15 514.41 325.68 514.75 321.39 515.88C313.28 518.02 306.78 521.93 306.78 521.93C306.78 521.93 306.77 521.93 306.77 521.94C306.58 522.05 306.44 522.13 306.35 522.19C306.34 522.19 306.34 522.2 306.33 522.2C306.24 522.25 306.18 522.29 306.18 522.29C303.25 516.92 301.48 506.25 300.66 500.2V500.2Z" fill="#EAD9E0"/>
<path d="M367.54 570.03C367.54 570.03 369.03 571.8 371.86 572.86C374.69 573.92 376.31 573.68 376.27 574.39C376.23 575.1 366.06 574.74 365.97 573.92C365.88 573.1 366.22 571.92 365.89 570.03C365.56 568.15 367.54 570.03 367.54 570.03ZM341.59 570.03C341.59 570.03 343.08 571.8 345.91 572.86C348.74 573.92 350.36 573.68 350.32 574.39C350.28 575.1 340.11 574.74 340.02 573.92C339.93 573.1 340.23 571.92 339.91 570.03C339.57 568.15 341.59 570.03 341.59 570.03ZM330.88 514.86C324.7 516.92 305.84 533.21 316.91 532.38C336.83 530.89 360.51 521.96 360.51 521.96C360.51 521.96 359.44 513.92 356.52 512.13C353.79 510.45 337.06 512.8 330.88 514.86Z" fill="#F5C4AD"/>
<path d="M346.62 526.49C348.35 525.99 349.97 525.5 351.44 525.03C351.38 523.95 351.3 522.73 351.19 521.29C350.5 512.47 355.19 512.58 355.19 512.58C352.71 511.5 347.18 512.7 347.18 512.7L346.62 526.49V526.49Z" fill="#F1AD92"/>
<path d="M330.88 514.86C324.7 516.92 305.84 533.21 316.91 532.38C336.83 530.89 347.36 521.67 347.36 521.67C347.36 521.67 348.55 515.32 352.78 513.19C357.01 511.05 358.69 515.08 358.69 515.08C358.75 513.39 357.01 512.16 355.58 511.7C352.52 510.73 337.06 512.8 330.88 514.86V514.86Z" fill="#5957D9"/>
<path d="M306.17 522.28C306.75 524.37 307.54 526.41 308.58 527.8L345.69 521.96C345.69 521.96 347.17 515.44 344.34 512.86C340.96 509.79 316.68 515.32 306.17 522.28V522.28Z" fill="#F5C4AD"/>
<path d="M329.09 524.57L336.56 523.4C336.58 520.84 336.24 514.34 342.64 512.9C337.44 511 329.21 517.09 329.21 517.09L329.09 524.57V524.57Z" fill="#F1AD92"/>
<path d="M306.17 522.28C306.75 524.37 307.54 526.41 308.58 527.8L333.02 522.59C333.02 522.59 333.52 516.97 338.97 513.87C344.29 510.84 345.81 515.63 345.81 515.63C347.22 506.1 315.39 516.48 306.17 522.28V522.28Z" fill="#5957D9"/>
<path opacity="0.4" d="M358.96 525.19C358.74 523.44 358.58 522.21 358.51 521.67H347.78C347.6 524.23 347.44 527.99 347.65 531.85C353.86 529.77 357.18 527.22 358.96 525.19ZM332.9 521.67C332.04 524.92 330.83 530.12 330.47 535.12C335.21 534.69 339.22 534.05 342.61 533.26C343.19 527.52 343.66 523.03 343.8 521.67H332.9Z" fill="#3A98B5"/>
<path opacity="0.4" d="M354.7 521.67C353.38 524.78 346.41 534.76 311.23 534.76C307.96 534.76 305.04 534.6 302.43 534.33C306.32 535.14 311.16 535.68 317.19 535.68C358.87 535.68 360.95 521.67 360.95 521.67H354.7V521.67Z" fill="#3A98B5"/>
<path d="M345.83 521.23C345.83 521.23 340.81 568.69 341.58 570.39H339.93C338.36 560.9 332.43 545.48 332.34 538.4C332.23 529.57 335.82 518.41 335.82 518.41C339.52 518.25 342.92 518.79 345.83 521.23V521.23Z" fill="#F5C4AD"/>
<path d="M324.81 514.63C324.81 514.63 315.11 516.76 306.18 522.28L306.63 523.76C306.63 523.76 315.47 517.46 324.81 514.63Z" fill="#5957D9"/>
<path d="M310.39 466.17C310.39 466.17 311.05 474.92 309.67 479.14L320.68 478.79C320.68 478.79 319.95 477.39 320.02 471.89C320.12 464.21 310.39 466.17 310.39 466.17V466.17Z" fill="#F3BC82"/>
<path d="M323.82 479.02C324.34 481.37 325.3 487.04 317.66 487.5C309.02 488.02 306 480.59 304.88 479.73C310.44 478.2 318.15 477.83 323.82 479.02V479.02Z" fill="#F5C4AD"/>
<path d="M304.87 479.73C306.37 479.31 308.04 478.99 309.78 478.75C311.01 474.41 310.4 466.16 310.4 466.16C310.4 466.16 313.05 465.64 315.57 466.22C317.31 467.94 318.99 470 320.04 472.29C320.02 475.42 320.27 477.14 320.46 477.99C319.2 479.09 313.91 482.79 308.1 483.77C306.28 481.6 304.87 479.73 304.87 479.73V479.73Z" fill="#F1AD92"/>
<path d="M327.12 461.44C327.12 461.44 330.62 457.57 330.42 452.39C330.21 447.22 306.14 438.94 308.99 451.44C308.99 451.45 319.98 466.24 327.12 461.44Z" fill="#323431"/>
<path d="M311.49 465.56C311.55 471.28 311.93 471.18 316.45 475.34C317.42 476.23 320.63 476.54 321.53 476.12C322.43 475.7 322.56 474.85 323.88 473.02C325.38 470.95 326.26 468.77 326.47 467.53C326.75 465.88 326.69 464.74 326.85 463.57C327.17 461.31 327.81 459.33 327.99 456.73C328.17 454.17 325.29 452.24 321.43 451.95C312.59 451.28 312.24 454.97 311.49 465.56V465.56Z" fill="#F5C4AD"/>
<path d="M317.49 475.33C311.17 470.37 313.57 455.23 316.54 453.3C310.9 453.81 311.36 459.13 311.41 466.75C311.51 470.9 312.02 472.1 316.67 475.76C317.67 476.54 320.77 476.6 321.61 476.13C321.74 476.06 321.84 475.96 321.94 475.86C320.75 476.14 318.35 476.01 317.49 475.33Z" fill="#F1AD92"/>
<path d="M311.69 462V464.28L312.58 464.47C312.58 464.47 312.63 454.18 315.53 451.94C315.53 451.95 311.63 451.14 311.69 462Z" fill="#323431"/>
<path d="M312.74 452.89C312.74 452.89 313.58 454.87 317.88 453.54C326.96 450.73 328.05 455.73 328.05 455.73C328.05 455.73 327.37 444.91 312.74 452.89Z" fill="#323431"/>
<path d="M312.78 464.79C312.53 466.04 311.32 466.86 310.06 466.61C308.8 466.36 307.99 465.14 308.24 463.89C308.49 462.64 309.7 461.82 310.96 462.07C312.22 462.32 313.03 463.54 312.78 464.79Z" fill="#F1AD92"/>
<path d="M311.27 462.08C311.67 462.63 311.8 463.37 311.69 464.28L312.58 464.47C312.58 464.47 312.61 457.75 314.15 453.99C313.93 454.16 312.31 455.07 311.64 455.43C311.05 458.09 311.32 459.43 311.27 462.08V462.08ZM309.31 450.41C309.31 450.41 308.12 448.7 308.68 447.21C309.24 445.72 310.71 445.12 310.71 445.12C310.71 445.12 306.98 446.16 307.3 447.81C307.63 449.94 309.31 450.41 309.31 450.41V450.41Z" fill="#323431"/>
<path d="M360.45 521.35C360.45 521.35 364.51 553.94 367.53 570.39H365.88C362.48 560.29 351.56 544.81 350.27 537.7C348.74 529.3 350.05 518.41 350.05 518.41L360.45 521.35V521.35ZM299.51 482C293.1 483.83 292.07 518.81 297.41 519.88C304.41 521.28 317.04 511.29 325.17 505.93L324.66 503.25C324.66 503.25 319.52 503.35 303.6 509.3C303.59 509.31 305.43 480.31 299.51 482Z" fill="#F5C4AD"/>
<path d="M297.04 517.74C295.77 517.49 294.9 515.39 294.38 512.34C294.89 516.55 295.89 519.57 297.41 519.87C304.41 521.27 317.04 511.28 325.17 505.92L325.11 505.62C317.1 509.84 303.96 519.12 297.04 517.74V517.74Z" fill="#F1AD92"/>
<path d="M324.65 503.25C324.65 503.25 329.56 503.31 332.44 503.8C332.44 503.8 334.27 503.96 335.58 504.64C336.3 505.01 337.59 506.15 337.33 506.59C337.07 507.03 336.27 506.2 335.07 505.63C334.39 505.31 332.75 505.1 332.69 505.2C332.63 505.31 334.07 505.71 334.68 506.13C335.19 506.49 336.8 508.27 336.45 508.6C335.99 509.05 335.45 508.18 334.06 507.05C333.56 506.7 331.82 506.23 331.74 506.36C331.66 506.5 332.98 506.99 333.41 507.48C333.84 507.97 334.96 509.38 334.54 509.73C334.12 510.08 333.4 508.97 332.64 508.28C332.23 507.9 330.71 507.24 330.65 507.27C330.59 507.3 331.24 507.76 331.53 508.26C331.82 508.76 332.25 510.02 331.89 510.12C331.54 510.22 331.32 509.63 330.52 508.65C330.27 508.35 329.3 507.67 329.3 507.67C329.3 507.67 326.27 507.61 324.65 505.8C324.67 505.81 323.8 503.55 324.65 503.25V503.25ZM334.86 539.99C334.86 539.99 334.32 528.95 337.04 518.2C337.04 518.2 336.03 518.2 335.82 518.21C335.82 518.21 332.24 529.56 332.35 538.4C332.44 545.49 338.37 560.91 339.94 570.39H340.82C339.89 561.86 335.16 546.4 334.86 539.99V539.99Z" fill="#F1AD92"/>
<path d="M340.83 573.73C340.56 573.11 340.81 570.39 340.81 570.39C340.77 570.06 340.72 569.71 340.68 569.36C340.2 569.09 339.73 569.05 339.9 570.03C340.23 571.92 339.92 573.09 340.01 573.92C340.1 574.74 350.27 575.1 350.31 574.39C348.24 574.88 341.1 574.35 340.83 573.73V573.73ZM366.76 570.39C363.44 558.46 354.05 543.62 352.68 537.43C351.31 531.25 351.88 530.1 351.19 521.29C351.11 520.33 351.11 519.49 351.15 518.72L350.04 518.08C350.04 518.08 348.74 529.3 350.27 537.7C351.56 544.81 362.48 560.29 365.88 570.39H366.76V570.39Z" fill="#F1AD92"/>
<path d="M365.97 573.92C366.06 574.74 376.23 575.1 376.27 574.39C376.27 574.35 376.25 574.32 376.24 574.28C372.96 574.48 367.33 574.29 366.99 573.49C366.61 572.58 366.76 570.38 366.76 570.38C366.66 570.01 366.53 569.63 366.42 569.25C366.04 569.11 365.75 569.2 365.89 570.02C366.22 571.92 365.87 573.1 365.97 573.92V573.92Z" fill="#F1AD92"/>
<mask id="mask0_4_10067" style="mask-type:alpha" maskUnits="userSpaceOnUse" x="324" y="511" width="22" height="14">
<path d="M340.21 511.77C336.24 511.77 331.77 512.71 327.89 513.74C327.76 513.78 327.62 513.81 327.49 513.85C326.64 514.08 325.78 514.32 324.93 514.57C324.89 514.59 324.85 514.61 324.82 514.63C324.6 517.36 324.84 521.21 325.82 524.13L333.04 522.59C333.04 522.59 333.54 516.97 338.99 513.87C344.31 510.84 345.83 515.63 345.83 515.63C346.26 512.59 343.26 511.81 340.21 511.77Z" fill="url(#paint0_linear_4_10067)"/>
</mask>
<g mask="url(#mask0_4_10067)">
<path d="M340.21 511.77C336.24 511.77 331.77 512.71 327.89 513.74C327.76 513.78 327.62 513.81 327.49 513.85C326.64 514.08 325.78 514.32 324.93 514.57C324.89 514.59 324.85 514.61 324.82 514.63C324.6 517.36 324.84 521.21 325.82 524.13L333.04 522.59C333.04 522.59 333.54 516.97 338.99 513.87C344.31 510.84 345.83 515.63 345.83 515.63C346.26 512.59 343.26 511.81 340.21 511.77Z" fill="#5957D9"/>
<path d="M321.713 510.929L361.396 510.199L361.427 511.908L321.744 512.638L321.713 510.929Z" fill="#A3BED4"/>
<path d="M321.709 510.928L333.038 510.72L333.069 512.429L321.741 512.638L321.709 510.928Z" fill="#8292B2"/>
</g>
<defs>
<linearGradient id="paint0_linear_4_10067" x1="335.295" y1="511.832" x2="335.295" y2="522.368" gradientUnits="userSpaceOnUse">
<stop stop-color="white"/>
<stop offset="0.093" stop-color="#E3E3E3"/>
<stop offset="0.431" stop-color="#838383"/>
<stop offset="0.705" stop-color="#3D3D3D"/>
<stop offset="0.901" stop-color="#111111"/>
<stop offset="1"/>
</linearGradient>
</defs>
</svg>
