<svg width="185" height="142" viewBox="0 0 185 142" fill="none" xmlns="http://www.w3.org/2000/svg">
<path d="M160.59 133.14C166.26 120.79 171.37 107.73 173.61 93.58C175.85 79.43 174.98 63.97 169.31 51.61C163.65 39.25 152.67 30.76 141.86 32.77C132.63 34.49 123.89 43.29 114.86 40.25C105.53 37.11 101.06 23.08 93.2 15.72C79.32 2.72998 57.55 12.21 48.92 30.14C43.12 42.19 41.8 58.19 33.63 67.51C27.45 74.56 18.28 76.48 13.19 84.92C8.86001 92.09 8.68001 102.64 11.58 110.98C14.48 119.31 20.59 128.45 26.67 132.83L160.59 133.14Z" fill="#F3F3F3"/>
<path d="M89.18 85.36H86.8C86.62 85.36 86.47 85.18 86.47 84.95V84.58C86.47 84.35 86.62 84.17 86.8 84.17H89.18C89.36 84.17 89.51 84.35 89.51 84.58V84.95C89.51 85.18 89.36 85.36 89.18 85.36ZM86.8 84.34C86.69 84.34 86.6 84.45 86.6 84.59V84.96C86.6 85.1 86.69 85.21 86.8 85.21H89.18C89.29 85.21 89.38 85.1 89.38 84.96V84.59C89.38 84.45 89.29 84.34 89.18 84.34H86.8Z" fill="#E95770"/>
<path d="M89.18 88.25H86.8C86.62 88.25 86.47 88.07 86.47 87.84V87.47C86.47 87.24 86.62 87.06 86.8 87.06H89.18C89.36 87.06 89.51 87.24 89.51 87.47V87.84C89.51 88.07 89.36 88.25 89.18 88.25ZM86.8 87.23C86.69 87.23 86.6 87.34 86.6 87.48V87.85C86.6 87.99 86.69 88.1 86.8 88.1H89.18C89.29 88.1 89.38 87.99 89.38 87.85V87.48C89.38 87.34 89.29 87.23 89.18 87.23H86.8Z" fill="#E95770"/>
<path d="M113.51 72.7H110.75V72.86H113.51V72.7Z" fill="#DAB3A6"/>
<path d="M109 72.7H98.71V72.86H109V72.7Z" fill="#DAB3A6"/>
<path d="M113.52 74.87H106.8V75.03H113.52V74.87Z" fill="#DAB3A6"/>
<path d="M105.86 74.87H103.3V75.03H105.86V74.87Z" fill="#DAB3A6"/>
<path d="M102.28 74.87H98.71V75.03H102.28V74.87Z" fill="#DAB3A6"/>
<path d="M113.52 77.04H108.41V77.2H113.52V77.04Z" fill="#DAB3A6"/>
<path d="M106.35 77.04H98.71V77.2H106.35V77.04Z" fill="#DAB3A6"/>
<path d="M113.15 82.31H108.66V82.47H113.15V82.31Z" fill="#DAB3A6"/>
<path d="M106.8 82.31H100.06V82.47H106.8V82.31Z" fill="#DAB3A6"/>
<path d="M113.15 85.2H105.29V85.36H113.15V85.2Z" fill="#DAB3A6"/>
<path d="M104.2 85.2H95.39V85.36H104.2V85.2Z" fill="#DAB3A6"/>
<path d="M113.15 88.09H110.75V88.25H113.15V88.09Z" fill="#DAB3A6"/>
<path d="M109 88.09H102.73V88.25H109V88.09Z" fill="#DAB3A6"/>
<path d="M138.9 111.28H102.33C98.68 111.28 95.72 108.32 95.72 104.67V78.03C95.72 74.38 98.68 71.42 102.33 71.42H138.9C142.55 71.42 145.51 74.38 145.51 78.03V104.67C145.52 108.32 142.55 111.28 138.9 111.28Z" fill="white" stroke="#6F6F6E" stroke-miterlimit="10"/>
<path d="M90.13 111.32C90.16 112.47 90.93 113.39 91.86 113.39H149.38C150.31 113.39 151.08 112.46 151.11 111.32H90.13Z" fill="#F3F3F3"/>
<path d="M144.35 111.2H96.88V111.36H144.35V111.2Z" fill="#8B5990"/>
<path d="M99.23 74.41C99.346 74.41 99.44 74.2936 99.44 74.15C99.44 74.0064 99.346 73.89 99.23 73.89C99.114 73.89 99.02 74.0064 99.02 74.15C99.02 74.2936 99.114 74.41 99.23 74.41Z" fill="#F8B23E"/>
<path d="M115.444 94.9462H124.224V79.6662H115.444V94.9462Z" fill="#F6B6A9"/>
<path d="M143.48 99.91C143.02 98.36 142.73 97.38 142.69 97.26C141.72 94.77 139.66 93.16 137.42 93.16C134.2 93.16 131.58 96.4 131.58 100.38C131.58 100.9 131.62 101.41 131.71 101.91L131.66 101.93L131.95 102.93L133.69 109.12H140.42C142.11 109.12 143.48 107.75 143.48 106.06V99.91V99.91Z" fill="#2D2BD0"/>
<path d="M110.4 99.65C110.4 96.07 107.78 93.16 104.56 93.16C102.33 93.16 100.26 94.61 99.29 96.85C99.23 97 98.62 98.84 97.74 101.53V107.5H108.28L110.02 101.93L110.31 101.03L110.26 101.02C110.36 100.58 110.4 100.12 110.4 99.65Z" fill="#E51B4D"/>
<path d="M141.21 108.71H99.82C99.06 108.71 98.43 108.11 98.4 107.34L98.12 99.33C98.12 99.33 97.4 93.42 103.54 91.37L103.82 91.29L115.4 88.51C117.61 91.01 121.96 90.93 124.21 88.51L135.84 91.29L136.12 91.37C142.26 93.42 141.54 99.33 141.54 99.33L141.21 108.71Z" fill="#5957D9"/>
<path d="M137.1 109.13L136.96 109.11L137.86 99.13L137.99 99.15L137.1 109.13Z" fill="#F7E4DC"/>
<path d="M104.88 109.13L103.99 99.15L104.12 99.13L105.02 109.11L104.88 109.13Z" fill="#F7E4DC"/>
<path d="M120.9 92.48C118.58 92.48 116.35 91.47 114.73 89.66L114.82 89.54C116.55 91.47 118.98 92.48 121.47 92.3C123.63 92.15 125.55 91.1 126.73 89.44L126.83 89.55C125.63 91.24 123.67 92.3 121.48 92.46C121.28 92.47 121.09 92.48 120.9 92.48Z" fill="#F7E4DC"/>
<path d="M121 106.63C122.276 106.63 123.31 105.35 123.31 103.77C123.31 102.19 122.276 100.91 121 100.91C119.724 100.91 118.69 102.19 118.69 103.77C118.69 105.35 119.724 106.63 121 106.63Z" fill="#BAC4E5"/>
<path d="M121.35 102.68H119.81C119.68 102.68 119.58 102.83 119.58 103.02V104.53C119.58 104.71 119.68 104.87 119.81 104.87H121.35C121.48 104.87 121.58 104.72 121.58 104.53V103.02C121.58 102.83 121.48 102.68 121.35 102.68Z" fill="white"/>
<path d="M122.17 103.01L121.88 103.36C121.85 103.4 121.83 103.46 121.83 103.52V104.01C121.83 104.07 121.85 104.13 121.88 104.17L122.17 104.52C122.28 104.66 122.48 104.56 122.48 104.36V103.16C122.48 102.97 122.29 102.87 122.17 103.01Z" fill="white"/>
<path d="M112.61 106.63C113.886 106.63 114.92 105.35 114.92 103.77C114.92 102.19 113.886 100.91 112.61 100.91C111.334 100.91 110.3 102.19 110.3 103.77C110.3 105.35 111.334 106.63 112.61 106.63Z" fill="#BAC4E5"/>
<path d="M113.48 103.85H113.3C113.3 104.32 112.99 104.71 112.6 104.71C112.22 104.71 111.9 104.32 111.9 103.85H111.72C111.72 104.41 112.07 104.87 112.51 104.92V105.22H112.15V105.44H113.05V105.22H112.69V104.92C113.14 104.87 113.48 104.41 113.48 103.85Z" fill="white"/>
<path d="M112.61 104.51C112.3 104.51 112.05 104.26 112.05 103.95V102.47C112.05 102.16 112.3 101.91 112.61 101.91C112.92 101.91 113.17 102.16 113.17 102.47V103.95C113.17 104.26 112.92 104.51 112.61 104.51Z" fill="white"/>
<path d="M129.39 106.63C130.666 106.63 131.7 105.35 131.7 103.77C131.7 102.19 130.666 100.91 129.39 100.91C128.114 100.91 127.08 102.19 127.08 103.77C127.08 105.35 128.114 106.63 129.39 106.63Z" fill="#2927DD"/>
<path d="M128.98 102.21L129.07 103.27L128.74 103.41C128.88 103.95 129.17 104.33 129.61 104.58L129.77 104.17L130.63 104.36C130.63 104.36 130.6 105.2 130.12 105.34C129.48 105.45 128.94 104.93 128.67 104.5C128.39 104.07 127.95 103.14 128.21 102.58C128.43 102.2 128.98 102.21 128.98 102.21Z" fill="white"/>
<path d="M79.12 83.1C79.12 83.1 78.33 83.38 78.31 84.17C78.29 84.96 78.94 85.31 79.28 85.46C79.61 85.61 80 83.28 79.12 83.1Z" fill="#F6B6A9"/>
<path d="M87.64 86.02C87.64 86.02 86.89 83.44 87.54 82.36C88.19 81.29 88.82 81.47 89.01 81.69L89.2 83.28C89.2 83.28 89.83 84.68 89.85 84.89C89.87 85.09 90.36 88.55 90.36 88.55C90.36 88.55 90.62 95.21 90.69 96C90.76 96.79 90.69 104.58 90.69 104.58L83.99 106.43L84.88 99.48C84.88 99.48 82.13 96.78 81.89 94.74L79.24 93.78C78.45 93.46 78.36 92.14 79.24 91.73C78 91.75 78.08 89.9 79.13 89.38C77.98 89.24 77.92 87.27 79.33 86.78L87.64 86.02Z" fill="#F6B6A9"/>
<path d="M87.05 93.69H79.6L78.84 79.04H87.81L87.05 93.69Z" fill="white" stroke="#6F6F6E" stroke-width="0.5" stroke-miterlimit="10"/>
<path d="M87.42 88.85L87.75 82.4H78.9L79.23 88.85H87.42Z" stroke="#6F6F6E" stroke-width="0.25" stroke-miterlimit="10"/>
<path d="M78.74 77.86L78.56 79.04H88.09L87.91 77.86H78.74Z" fill="white" stroke="#6F6F6E" stroke-width="0.25" stroke-miterlimit="10"/>
<path d="M86.99 76.45H86.54H81.22H79.64L79.39 78.08H81.21H86.54H87.23L86.99 76.45Z" fill="white" stroke="#6F6F6E" stroke-width="0.25" stroke-miterlimit="10"/>
<path d="M84.45 88C83.39 88 82.53 86.93 82.53 85.63C82.53 84.32 83.39 83.26 84.45 83.26C85.51 83.26 86.37 84.33 86.37 85.63C86.36 86.93 85.5 88 84.45 88ZM84.45 83.41C83.46 83.41 82.66 84.4 82.66 85.62C82.66 86.84 83.46 87.83 84.45 87.83C85.43 87.83 86.24 86.84 86.24 85.62C86.23 84.4 85.43 83.41 84.45 83.41Z" fill="white"/>
<path d="M88.99 86.05C89.31 86.03 89.63 85.98 89.95 85.92C89.9 85.38 89.86 84.95 89.85 84.89C89.83 84.69 89.2 83.28 89.2 83.28L89.01 81.69C88.82 81.47 88.19 81.29 87.54 82.36C86.92 83.37 87.56 85.73 87.63 85.99C88.07 86.13 88.54 86.08 88.99 86.05Z" fill="#F6B6A9"/>
<path d="M88.29 86.27C87.9 86.27 87.61 86.13 87.6 86.12L87.67 85.92C87.67 85.92 88 86.08 88.4 86.05L88.41 86.27C88.37 86.26 88.33 86.27 88.29 86.27Z" fill="#E98B73"/>
<path d="M88.11 91.11L87.42 90.05L87.56 89.91L88.24 90.97L88.11 91.11Z" fill="#E98B73"/>
<path d="M88.72 84C88.39 84 88.24 83.36 88.14 82.8C88.02 82.13 88.94 81.61 88.98 81.59L89.05 81.79C88.82 81.92 88.24 82.34 88.31 82.75C88.47 83.66 88.64 83.78 88.73 83.78C88.87 83.77 89.05 83.44 89.13 83.24L89.29 83.33C89.27 83.4 89.04 83.98 88.74 84C88.73 84 88.72 84 88.72 84Z" fill="#E98B73"/>
<path d="M86.75 96.45C85.76 95.83 86.05 94.12 86.06 94.05L86.23 94.1C86.23 94.12 85.96 95.71 86.83 96.26L86.75 96.45Z" fill="#E98B73"/>
<path d="M81.95 94.8L81.82 94.66C81.83 94.64 82.1 94.25 82.44 94.14L82.48 94.35C82.2 94.45 81.95 94.8 81.95 94.8Z" fill="#E98B73"/>
<path d="M82.25 95.79L82.09 95.69C82.11 95.64 82.57 94.58 83.2 94.23L83.27 94.43C82.7 94.75 82.25 95.78 82.25 95.79Z" fill="#E98B73"/>
<path d="M79.14 89.48L79.11 89.26L79.36 89.22L79.38 89.44L79.14 89.48Z" fill="#E98B73"/>
<path d="M79.26 91.83L79.21 91.62L79.47 91.54L79.51 91.75L79.26 91.83Z" fill="#E98B73"/>
<path d="M65.83 67.95L66.33 85.31C61.89 88.98 53.72 89.09 49.45 85.31L50.83 66.48L65.83 67.95Z" fill="#F6B6A9"/>
<path d="M69.22 65.67C69.18 65.67 69.14 65.67 69.11 65.67C67.7 65.56 66.66 63.49 66.78 61.04C66.9 58.59 68.14 56.69 69.55 56.8C70.24 56.85 70.86 57.37 71.3 58.25C71.73 59.12 71.94 60.25 71.88 61.43C71.77 63.81 70.58 65.67 69.22 65.67ZM66.95 61.05C66.84 63.38 67.81 65.35 69.12 65.45C70.43 65.55 71.59 63.74 71.71 61.41C71.77 60.28 71.57 59.19 71.15 58.36C70.74 57.54 70.17 57.06 69.54 57.01C68.23 56.92 67.07 58.73 66.95 61.05Z" fill="white"/>
<path d="M51.89 49.35L70.87 51.63C70.87 51.63 69.81 65.04 69.21 71.34C68.61 77.64 65.51 78.24 65.51 78.24C61.67 80.08 51.34 78.78 50.45 71.2L51.89 49.35Z" fill="#F6B6A9"/>
<path d="M63.54 64.09C63.03 62.54 63.06 61.24 63.62 60.61C63.97 60.22 64.48 60.18 64.99 60.51L64.91 60.7C64.46 60.41 64.04 60.43 63.74 60.77C63.35 61.21 63.14 62.28 63.7 64L63.54 64.09Z" fill="#E98B73"/>
<path d="M64.56 64.51L64.4 64.41C64.58 63.95 64.61 63.57 64.47 63.28C64.18 62.68 63.29 62.63 63.28 62.63L63.29 62.41C63.33 62.41 64.29 62.47 64.63 63.17C64.8 63.53 64.78 63.98 64.56 64.51Z" fill="#E98B73"/>
<path d="M51.28 49.04C50.75 44.54 52.85 42.55 55.24 42.53C55.24 42.53 68.24 40.71 69.9 40.99C72.36 41.4 74.08 44.2 73.75 47.24C73.55 49.07 72.66 50.56 71.44 51.38C71.12 51.63 70.89 51.73 70.89 51.73C70.62 51.84 70.34 51.92 70.07 51.97C70.02 51.98 69.96 51.99 69.9 52C69.88 52 69.85 52.01 69.83 52.01C69.82 52.01 69.82 52.01 69.81 52.01C69.47 52.06 69.14 52.08 68.79 52.08L67.47 64.13C67.31 65.55 67.2 66.69 65.96 66.48L65.94 62.37C66 61.57 66 60.26 65.46 59.71C64.76 58.98 63.36 59.14 62.87 60.11C61.76 62.14 63.47 66.34 63.47 66.34C63.47 66.34 61.53 71.34 59.53 72.87C56.42 74.69 51.97 74.17 50.45 71.51C49.57 61.48 47.73 51.93 51.28 49.04Z" fill="#263239"/>
<path d="M71.9 61.28L65.96 60.78L65.97 60.56L71.91 61.06L71.9 61.28Z" fill="white"/>
<path d="M68.8 52.16C68.77 52.16 66.14 52.09 63.56 51.77L63.57 51.61C66.15 51.93 68.77 52 68.8 52V52.16Z" fill="#8B5990"/>
<path d="M67.86 50.76C67.5 50.76 67.12 50.74 66.72 50.69L66.73 50.53C68.83 50.79 70.39 50.36 71.37 49.25C72.4 48.1 72.4 46.59 72.4 46.58H72.53C72.53 46.64 72.52 48.17 71.45 49.37C70.65 50.29 69.43 50.76 67.86 50.76Z" fill="#8B5990"/>
<path d="M67.53 63.72C67.51 64.39 67.71 65.36 68.45 65.47C69.07 65.6 69.33 64.99 69.78 65.19C70.52 69.55 69.61 78.3 66.07 78.01L65.97 66.48L67.53 63.72Z" fill="#263239"/>
<path d="M90.55 103.7L90.74 98.97L81.06 98.49L81 103.05L90.55 103.7Z" fill="white"/>
<path d="M90.67 129.76L90.87 103.14L79.92 101.76L77.73 129.76H90.67Z" fill="#263239"/>
<path d="M81.64 129.76L83.28 100.73C83.28 100.73 83.98 91.37 77.33 89.03L66.33 85.31C59.36 85.46 51.62 85.11 48.99 85.31L38.37 89.85C35.59 91.15 34.09 93.44 33.53 96.93V105.92L35.02 129.75H81.64V129.76Z" fill="#592B5B"/>
<path d="M81.64 129.76L83.28 100.73C83.28 100.73 83.98 91.37 77.33 89.03L66.33 85.31C59.36 85.46 51.62 85.11 48.99 85.31L38.37 89.85C35.59 91.15 34.09 93.44 33.53 96.93V105.92L35.02 129.75H81.64V129.76Z" fill="#263239"/>
<path d="M49.7 80.72H66.38L67.35 85.64H48.02L49.7 80.72Z" fill="white"/>
<path d="M67.43 103.43L74.92 129.76H90.29C88.68 121.69 83.69 96.65 83.6 96.24C83.52 95.88 83.43 95.54 83.32 95.19V95.17C82.41 92.36 80.45 90.08 77.82 89.17C73.27 87.59 68.43 90.69 67.02 96.08C66.35 98.63 66.55 101.23 67.43 103.43Z" fill="#263239"/>
<path d="M76.02 129.48L67.93 105.44C66.96 101.01 67.2 97.34 68.63 94.52C70.61 90.63 74.23 89.76 74.27 89.76L74.29 89.92C74.25 89.93 70.69 90.78 68.74 94.61C67.33 97.39 67.09 101.01 68.05 105.39L76.14 129.42L76.02 129.48Z" fill="#8B5990"/>
<path d="M89.12 124.23L83.66 96.85L83.78 96.81L89.25 124.19L89.12 124.23Z" fill="#8B5990"/>
<path d="M75.4 129.76L71.91 101.88C71.91 99.29 70.2 97.17 68.1 97.17H34.44C34.13 97.17 33.83 97.22 33.54 97.31V125.08L33.55 129.76H75.4Z" fill="#5957D9"/>
<path d="M71.13 129.57C70.63 126.03 70.21 122.43 69.81 118.95C69.09 112.76 68.35 106.36 67.11 99.97C66.8 98.46 65.61 97.44 63.92 97.25L63.93 97.09C65.68 97.28 66.92 98.35 67.24 99.93C68.48 106.33 69.22 112.74 69.94 118.93C70.34 122.41 70.76 126.01 71.26 129.54L71.13 129.57Z" fill="#833A5D"/>
<path d="M157.98 129.25H31.98V130.36H157.98V129.25Z" fill="#575756"/>
<path d="M140.03 109.12H101.2C99.29 109.12 97.75 107.57 97.75 105.67V77.03C97.75 75.12 99.3 73.58 101.2 73.58H140.03C141.94 73.58 143.48 75.13 143.48 77.03V105.66C143.48 107.57 141.94 109.12 140.03 109.12Z" stroke="#6F6F6E" stroke-miterlimit="10"/>
<path d="M120.62 72.96C120.37 72.96 120.17 72.71 120.17 72.41C120.17 72.11 120.37 71.86 120.62 71.86C120.87 71.86 121.07 72.11 121.07 72.41C121.06 72.71 120.86 72.96 120.62 72.96ZM120.62 72.02C120.45 72.02 120.31 72.19 120.31 72.41C120.31 72.62 120.45 72.8 120.62 72.8C120.79 72.8 120.93 72.63 120.93 72.41C120.93 72.19 120.79 72.02 120.62 72.02Z" fill="#8B5990"/>
<path d="M124.22 86.83C118.18 89.68 115.44 87.2 115.44 87.2V80H124.22V86.83Z" fill="#F08C80"/>
<path d="M119.31 85.8L119.69 85.82C123.87 86.4 127.58 83.56 128.07 78.26L128.58 72.72C129.06 67.42 126.04 62.6 121.87 62.02L121.49 61.97C117.31 61.39 113.5 65.25 113.02 70.55L112.51 76.09C112.02 81.39 115.14 85.21 119.31 85.8Z" fill="#263239"/>
<path d="M114.55 72.05C114.55 72.05 114.21 71.74 113.47 71.99L113.38 69.18C113.24 67.89 113.72 67.13 114.16 66.98C114.16 66.98 113.65 66.68 113.2 64.95C112.76 63.22 114.08 58.65 114.08 58.65C119.66 60.37 125.3 62.08 127.24 64.5C128.69 65.8 128.95 67.28 129.03 69.07C129.75 69.33 130.28 70.32 130.07 71.26L129.27 74.36C127.81 74 127 75.05 126.77 78.05C125.54 77.88 126.11 74.5 126.11 74.5L126.58 69.43L115.04 67.82L114.55 72.05Z" fill="#263239"/>
<path d="M116.81 76.13C116.68 77.6 115.75 78.69 114.72 78.54C112.79 79.38 111.37 71.86 114.19 72.07C115.22 72.21 116.94 74.65 116.81 76.13Z" fill="#ED968A"/>
<path d="M118.19 87.57C121.86 88.08 126.09 84.92 126.5 80.38L127.2 72.69C127.49 69.52 125.63 66.63 123.06 66.27L119.6 65.79C116.73 65.39 114.49 63.97 114.17 67.52L113.17 78.52C112.75 83.05 114.88 87.11 118.19 87.57Z" fill="#F6B6A9"/>
<path d="M122.87 76.05C122.84 76.36 123.02 76.64 123.27 76.68C123.52 76.72 123.75 76.49 123.78 76.18C123.81 75.87 123.63 75.59 123.38 75.55C123.13 75.52 122.9 75.74 122.87 76.05Z" fill="#263239"/>
<path d="M116.3 75.13C116.27 75.44 116.45 75.72 116.7 75.76C116.95 75.8 117.18 75.57 117.21 75.26C117.24 74.95 117.06 74.67 116.81 74.63C116.56 74.6 116.33 74.82 116.3 75.13Z" fill="#263239"/>
<path d="M122.41 74.28C122.38 74.57 124.51 74.87 124.54 74.58C124.57 74.29 124.11 73.98 123.52 73.9C122.93 73.81 122.43 73.99 122.41 74.28Z" fill="#263239"/>
<path d="M115.86 73.36C115.83 73.65 117.95 73.95 117.98 73.66C118.01 73.37 117.55 73.07 116.97 72.98C116.38 72.9 115.89 73.07 115.86 73.36Z" fill="#263239"/>
<path d="M119.93 78.87L119.91 78.65C120.12 78.63 120.27 78.3 120.27 78.3L120.28 78.28L120.3 78.26C120.48 78.12 120.89 77.98 121.16 78.47L121.01 78.59C120.79 78.2 120.48 78.38 120.4 78.43C120.37 78.52 120.2 78.84 119.93 78.87Z" fill="#E98B73"/>
<path d="M119.57 78.81C119.31 78.71 119.2 78.35 119.17 78.25C119.1 78.17 118.83 77.92 118.55 78.24L118.43 78.08C118.78 77.68 119.16 77.93 119.31 78.12L119.33 78.14L119.34 78.17C119.34 78.17 119.43 78.53 119.63 78.62L119.57 78.81Z" fill="#E98B73"/>
<path d="M119.38 83.9L119.2 83.88L119.29 82.87L119.47 82.9L119.38 83.9Z" fill="#E98B73"/>
<path d="M121.21 79.9999C121.05 80.9699 120.31 81.6499 119.5 81.5399C118.69 81.4299 118.09 80.5599 118.11 79.5699L121.21 79.9999Z" fill="white"/>
<path d="M125.04 77.28C124.91 78.75 125.75 80.08 126.94 80.25C128.96 81.64 132.02 74.75 128.79 74.11C127.59 73.94 125.17 75.8 125.04 77.28Z" fill="#F6B6A9"/>
<path d="M127.51 78.83C127.49 78.83 127.47 78.83 127.44 78.83L127.45 78.61C128.69 78.67 129.2 76.88 129.24 76.22C129.26 75.93 129.16 75.67 128.97 75.51C128.73 75.31 128.39 75.31 128.05 75.52L127.97 75.32C128.36 75.08 128.77 75.08 129.07 75.33C129.31 75.53 129.44 75.87 129.41 76.24C129.36 76.94 128.83 78.83 127.51 78.83Z" fill="#E98B73"/>
<path d="M128.68 78C128.66 77.97 128.29 77.39 127.64 77.71L127.57 77.51C128.34 77.12 128.81 77.86 128.81 77.87L128.68 78Z" fill="#E98B73"/>
<path d="M124.35 72.08C122.89 71.88 121.54 73 121.11 74.67C120.59 74.06 119.85 73.96 119.17 74.41C119.05 72.66 117.95 71.19 116.48 70.98C115.67 70.87 114.88 71.15 114.24 71.78C113.6 72.41 113.2 73.3 113.11 74.3C113.02 75.3 113.25 76.28 113.75 77.07C114.26 77.86 114.98 78.35 115.79 78.46C115.91 78.48 116.02 78.48 116.14 78.48C116.83 78.48 117.49 78.2 118.03 77.66C118.67 77.03 119.07 76.14 119.16 75.14C119.18 74.95 119.18 74.77 119.17 74.59C119.84 74.11 120.56 74.21 121.06 74.85C121.02 75.03 120.99 75.21 120.97 75.39C120.78 77.45 121.99 79.32 123.65 79.55C123.77 79.57 123.88 79.57 123.99 79.57C125.52 79.57 126.84 78.15 127.01 76.23C127.22 74.18 126.01 72.31 124.35 72.08ZM119.03 75.12C118.94 76.08 118.56 76.93 117.95 77.53C117.34 78.13 116.58 78.4 115.81 78.29C115.04 78.18 114.35 77.71 113.86 76.96C113.38 76.21 113.16 75.27 113.24 74.31C113.33 73.35 113.71 72.5 114.32 71.9C114.84 71.39 115.47 71.12 116.13 71.12C116.24 71.12 116.35 71.13 116.46 71.14C118.06 71.36 119.21 73.15 119.03 75.12ZM126.9 76.22C126.72 78.19 125.28 79.62 123.68 79.39C122.09 79.17 120.93 77.38 121.11 75.41C121.29 73.44 122.73 72.02 124.33 72.24C125.93 72.46 127.08 74.25 126.9 76.22Z" fill="white"/>
<path d="M118.16 63.83C117.55 63.83 116.97 63.9 116.44 64.01C115.16 63.51 114.14 61.9 114.14 61.9C113.27 64.93 113.66 66.14 114.34 66.57C114.97 67.28 116.45 67.77 118.16 67.77C120.45 67.77 122.31 66.89 122.31 65.8C122.31 64.71 120.46 63.83 118.16 63.83Z" fill="#263239"/>
</svg>
