<svg width="185" height="142" viewBox="0 0 185 142" fill="none" xmlns="http://www.w3.org/2000/svg">
<path d="M162.91 135.09C168.77 122.05 174.05 108.26 176.36 93.32C178.67 78.38 177.77 62.05 171.92 49C166.07 35.95 154.73 26.99 143.56 29.11C134.03 30.92 124.99 40.22 115.67 37.01C106.03 33.69 101.41 18.88 93.29 11.11C78.96 -2.60002 56.46 7.40998 47.55 26.34C41.56 39.06 40.2 55.96 31.75 65.79C25.36 73.23 15.9 75.26 10.64 84.17C6.16999 91.74 5.97999 102.88 8.96999 111.68C11.96 120.48 18.28 130.13 24.56 134.75L162.91 135.09Z" fill="#F3F3F3"/>
<path d="M27.11 100.56L27.06 100.54L25.67 99.81C25.29 99.62 25.04 99.28 24.98 98.89C24.97 98.83 24.97 98.77 24.97 98.72V95.56C24.97 95.14 25.15 94.67 25.44 94.27L25.46 94.28L27.11 95.13C26.86 95.53 26.69 96.08 26.67 96.94V99.84C26.67 99.95 26.7 100.05 26.73 100.13C26.82 100.39 27.04 100.52 27.11 100.56Z" fill="#ED7280"/>
<path opacity="0.9" d="M27.11 100.56C27.12 100.57 27.13 100.57 27.13 100.57L27.11 100.56Z" fill="#263239"/>
<path d="M104.9 128.64C104.66 128.61 104.66 129.29 104.74 129.58C104.82 129.87 105.78 130.87 107.54 131.26C109.3 131.65 112.77 131.31 113.82 131.3C114.87 131.29 116.66 131.81 117.7 131.98C118.74 132.15 120.63 131.87 121.27 131.34C121.52 131.13 121.55 130.82 121.55 130.54C121.55 129.89 121.49 129.76 121.41 129.76L104.9 128.64Z" fill="#37474F"/>
<path d="M121.18 127.48C121.21 127.61 121.23 127.74 121.25 127.87C121.35 128.51 121.47 129.56 121.35 130.21C121.12 130.69 120.52 130.93 120.05 131.05C118.8 131.37 117.85 131.28 116.49 130.99C115.67 130.82 114.79 130.63 113.8 130.65C112.72 130.68 110.21 130.91 109.13 130.78C108.21 130.67 107.31 130.54 106.47 130.17C105.76 129.86 105.32 129.45 104.9 128.76C104.89 127.5 105.36 126.92 106.12 126.55C106.92 126.15 108.16 126.08 109.06 126C110.29 125.89 111.47 125.83 112.38 125.8C113 125.78 113.6 125.75 114.16 125.49C114.43 125.37 114.63 125.24 114.76 125C114.92 124.71 114.93 124.27 115.22 124.25C115.22 124.25 119.99 124.21 120.42 124.26C120.92 124.32 120.94 125.93 120.99 126.24C121.03 126.49 121.03 126.75 121.09 126.99C121.11 127.16 121.14 127.32 121.18 127.48Z" fill="#455A64"/>
<path d="M111.07 125.71C111 125.67 110.93 125.64 110.85 125.63C110.44 125.56 110.11 125.93 109.92 126.22C109.8 126.4 109.74 126.59 109.68 126.79C109.6 127.03 109.56 127.29 109.64 127.54C109.66 127.6 109.71 127.68 109.78 127.66C109.84 127.65 109.86 127.57 109.87 127.52C109.92 127.17 110.04 126.83 110.22 126.52C110.3 126.38 110.36 126.26 110.49 126.16C110.61 126.06 110.8 125.91 110.95 125.87C111.01 125.85 111.23 125.85 111.23 125.85C111.22 125.83 111.16 125.77 111.14 125.75C111.11 125.74 111.09 125.72 111.07 125.71Z" fill="#FBFBFB"/>
<path d="M112.78 125.65C112.59 125.63 112.38 125.67 112.22 125.78C112.03 125.91 111.91 126.09 111.83 126.28C111.66 126.65 111.57 127.21 111.8 127.58C111.87 127.7 111.99 127.64 112.03 127.54C112.08 127.42 112.07 127.26 112.09 127.14C112.14 126.85 112.18 126.61 112.31 126.34C112.36 126.23 112.44 126.13 112.52 126.04C112.57 125.98 112.68 125.87 112.76 125.83C112.8 125.81 112.83 125.8 112.87 125.79L113 125.78C113 125.73 112.92 125.69 112.87 125.68C112.84 125.66 112.81 125.65 112.78 125.65Z" fill="#FBFBFB"/>
<path d="M114.22 125.27C114.08 125.31 113.95 125.38 113.86 125.48C113.77 125.58 113.66 125.73 113.62 125.85C113.53 126.12 113.5 126.37 113.49 126.66C113.48 126.86 113.51 127.07 113.62 127.25C113.66 127.32 113.75 127.39 113.83 127.36C113.92 127.33 113.91 127.2 113.92 127.13C113.94 127 113.93 126.85 113.94 126.72C113.96 126.22 114.07 125.91 114.35 125.48C114.44 125.35 114.51 125.28 114.51 125.28C114.5 125.24 114.45 125.24 114.41 125.24C114.35 125.24 114.28 125.25 114.22 125.27Z" fill="#FBFBFB"/>
<path d="M121.24 120.23C121.24 120.23 120.72 123.58 120.55 124.53C120.45 125.07 119.84 125.55 118.06 125.52C116.81 125.5 115.36 125.15 115.2 124.56L115 119.48L121.24 120.23Z" fill="#F8BBA7"/>
<path d="M141.99 117C141.38 116.08 140.27 113.43 139.52 110.81L133.85 113.15C133.85 113.15 137.47 119.14 137.88 119.69C138.54 120.61 141.99 117 141.99 117Z" fill="#F8BBA7"/>
<path d="M143.73 118.81C143.72 118.76 143.71 118.7 143.7 118.65C143.58 118.18 143.17 117.84 142.75 117.56C142.33 117.28 142.22 117.08 141.91 116.7C141.77 116.53 141.61 116.26 141.39 116.19C141.25 116.14 140.8 116.18 140.65 116.2C139.94 116.32 139.26 116.6 138.67 117C138.4 117.19 138.09 117.42 137.62 117.97C137.41 118.22 137.23 118.52 137.22 118.86C137.22 119.05 137.31 119.24 137.69 119.92C137.91 120.32 138.19 121.04 138.21 121.49C138.25 122.2 138.2 122.44 138.17 123.15C138.15 124.15 138.01 124.14 138.01 124.14C138.01 124.14 136.2 123.74 134.91 124.36C133.74 124.92 134.07 125.92 134.07 125.92C134.07 125.92 135.44 126.83 137.1 127.17C137.11 127.19 137.11 127.2 137.11 127.22C137.11 127.22 137.85 128.01 138.88 127.69C138.95 127.66 139.02 127.64 139.08 127.61C140.21 127.1 143.01 125.76 142.98 125.59C142.95 125.44 142.99 125.24 143 125.08C143.03 124.69 143.06 124.29 143.09 123.9C143.12 123.54 143.09 123.12 143.19 122.77C143.28 122.46 143.33 122.16 143.38 121.84C143.48 121.05 143.59 120.26 143.69 119.47C143.72 119.26 143.75 119.03 143.73 118.81Z" fill="#455A64"/>
<path d="M144.25 119.09C144.75 119.29 144.55 120.58 144.17 121.82C143.79 123.05 143.59 123.48 143.7 124.52C143.81 125.56 143.88 126.03 143.41 126.39C142.94 126.75 139.24 128.17 139.24 128.17C139.24 128.17 140.03 126.6 140.25 124.31C140.47 122.02 140.7 120.54 141.9 119.55C143.09 118.55 144.25 119.09 144.25 119.09Z" fill="black"/>
<path d="M134.07 125.94C134.07 125.94 136.09 127.05 137.69 127.29C139.29 127.53 139.4 126.96 139.66 125.18C139.92 123.41 140.11 120.95 140.92 119.9C141.73 118.85 143.02 118.42 143.51 118.55C143.61 118.51 144.09 118.87 144.24 119.08C144.24 119.08 143.14 118.9 142.09 119.78C141.04 120.65 140.75 122.58 140.62 124.34C140.48 126.1 140.3 128.13 138.78 128.28C137.27 128.43 135.25 127.81 134.3 126.99C133.75 126.53 134.07 125.94 134.07 125.94Z" fill="#37474F"/>
<path d="M138.16 123.51C138.16 123.51 137.95 123.62 137.92 123.83C137.89 124.03 137.95 124.5 138.42 124.78C138.62 124.9 138.79 124.86 138.49 124.48C138.18 124.08 138.16 123.51 138.16 123.51Z" fill="#FBFBFB"/>
<path d="M138.19 122.27C138.19 122.27 138.06 122.37 138.04 122.53C138.02 122.69 138.31 123.37 138.65 123.53C139 123.69 138.82 123.32 138.67 123.14C138.52 122.97 138.19 122.27 138.19 122.27Z" fill="#FBFBFB"/>
<path d="M138.09 120.88C138.09 120.88 137.99 121.04 138.05 121.26C138.09 121.4 138.68 121.79 138.91 121.79C139.14 121.78 139.23 121.67 138.92 121.53C138.68 121.42 138.17 121.07 138.09 120.88Z" fill="#FBFBFB"/>
<path d="M135.79 116.52C135.79 116.52 127.06 102.39 126.77 101.22C126.47 100.05 125.12 94.12 125.12 94.12L123.21 103.65C123.42 104.68 123.72 106.25 123.69 107.44C123.65 109.02 123.3 110.82 122.6 113.96C121.5 118.89 120.95 122.38 120.95 122.38C120.55 122.62 119.52 123.15 117.8 122.95C116.45 122.79 115.03 121.99 115.03 121.99C115.03 121.99 114.76 114.32 114.68 111.27C114.6 108.21 114.63 103.53 114.57 101.52C114.46 97.88 114.58 98.41 114.71 92.46C114.84 86.29 115.52 76.85 115.52 76.85L133.2 76.15C133.2 76.15 135.24 78.76 135.23 85.41C135.22 90.6 135.31 99.37 135.31 99.37C137.02 102.01 137.27 102.81 138.13 105.84C138.83 108.3 139.82 111.28 140.32 113.48C138.73 113.42 136.4 115.36 135.79 116.52Z" fill="#A56BAA"/>
<path d="M135.79 116.52C135.79 116.52 127.06 102.39 126.77 101.22C126.47 100.05 125.12 94.12 125.12 94.12L123.21 103.65C123.42 104.68 123.72 106.25 123.69 107.44C123.65 109.02 123.3 110.82 122.6 113.96C121.5 118.89 120.95 122.38 120.95 122.38C120.55 122.62 119.52 123.15 117.8 122.95C116.45 122.79 115.03 121.99 115.03 121.99C115.03 121.99 114.76 114.32 114.68 111.27C114.6 108.21 114.63 103.53 114.57 101.52C114.46 97.88 114.58 98.41 114.71 92.46C114.84 86.29 115.52 76.85 115.52 76.85L133.2 76.15C133.2 76.15 135.24 78.76 135.23 85.41C135.22 90.6 135.31 99.37 135.31 99.37C137.02 102.01 137.27 102.81 138.13 105.84C138.83 108.3 139.82 111.28 140.32 113.48C138.73 113.42 136.4 115.36 135.79 116.52Z" fill="#5957D9"/>
<path opacity="0.2" d="M125.1 94.17L126.37 87.34C126.37 87.34 128.91 87.22 132.02 85.02C132.02 85.02 131.56 87.04 127.2 88.34L125.98 94.95L126.62 100.59C126.62 100.57 125.12 94.3 125.1 94.17Z" fill="black"/>
<path d="M114.88 108.28C116.04 108.87 119.95 109.27 121.31 108.49L120.86 111.06C120.86 111.06 120.04 111.55 118.05 111.44C115.85 111.31 115 110.77 115 110.77L114.88 108.28Z" fill="black"/>
<path d="M134.58 114.55L135.79 116.52C135.79 116.52 136.93 114.96 138.43 114.27C139.8 113.64 140.52 113.83 140.52 113.83L139.77 111.41C139.77 111.41 138.07 111.47 136.82 112.2C134.81 113.36 134.58 114.55 134.58 114.55Z" fill="black"/>
<path d="M122.64 52.78L123.17 57.22L129.73 56.56L129.13 51.77L122.64 52.78Z" fill="#F8BBA7"/>
<path d="M118.88 45.31C118.46 45.94 117.16 47.86 117.15 48.19L118.53 48.73L118.88 45.31Z" fill="#F1997A"/>
<path d="M121.86 40.54C119.81 40.59 118.7 42.03 118.69 45.95C118.69 46.1 118.48 46.37 118.38 46.97C117.95 49.54 118.75 51.83 119.31 52.4C120.61 53.1 121.95 53.26 123.82 52.88C125.24 52.6 128.84 51.76 130.43 49.8C132.3 47.49 132.94 44.28 131.15 42.88C128.63 40.9 122.99 40.51 121.86 40.54Z" fill="#F8BBA7"/>
<path d="M120.02 49.66C120 49.67 119.97 49.67 119.95 49.69C119.94 49.7 119.93 49.72 119.91 49.73C119.88 49.76 119.85 49.79 119.82 49.81C119.75 49.87 119.68 49.91 119.6 49.95C119.45 50.03 119.3 50.06 119.14 50.1C119.13 50.1 119.12 50.11 119.11 50.12C119.11 50.13 119.1 50.15 119.11 50.16C119.13 50.19 119.19 50.19 119.23 50.18C119.27 50.18 119.32 50.17 119.36 50.16C119.46 50.14 119.55 50.11 119.64 50.07C119.72 50.03 119.8 49.98 119.87 49.93C119.91 49.9 119.94 49.87 119.97 49.84C119.98 49.83 120 49.81 120.01 49.79C120.04 49.76 120.04 49.73 120.04 49.69C120.07 49.7 120.05 49.66 120.02 49.66Z" fill="#B26668"/>
<path d="M119.31 52.39C119.62 52.7 121.52 53.29 122.69 53.22L122.62 52.45C122.63 52.45 120.97 52.65 119.31 52.39Z" fill="#F1997A"/>
<path d="M121.58 43.39C121.58 43.39 121.51 43.91 121.81 44.32C122.11 44.73 122.46 44.99 122.94 45.13C122.61 45.63 122.42 46.21 122.38 46.79C122.37 46.97 122.37 47.17 122.48 47.32C122.66 47.6 123 47.58 123.17 47.34C123.37 47.05 123.52 46.74 123.79 46.49C124.11 46.2 124.53 45.98 124.98 45.96C126.69 45.87 126.58 47.92 125.85 48.71C124.66 50.01 123.79 49.12 123.79 49.12C123.79 49.12 123.11 51.17 124.7 52.13C124.7 52.13 127.3 52.78 129.15 52.01C130.38 50.44 131.82 49.45 132.61 48.13C134.48 45.01 133.9 42.43 132.3 41.8C132.15 40.5 130.87 39.64 129.62 39.18C127.91 38.55 126.19 38.99 124.41 38.91C123.5 38.87 122.6 38.64 121.81 38.24C121.46 38.06 121.02 37.85 120.68 38.04C120.54 38.12 120.45 38.24 120.39 38.37C120.15 38.83 120.18 39.4 120.45 39.84C120 39.52 119.16 39.62 118.67 39.94C117.97 40.4 117.83 40.97 118.03 41.78C118.16 42.3 119.18 43.92 121.58 43.39Z" fill="#263239"/>
<path d="M132.2 42.13L133.87 41.35C133.63 40.94 133.06 40.78 132.6 41C132.14 41.21 131.96 41.72 132.2 42.13Z" fill="#263239"/>
<path d="M130.84 54.29C133.52 54.5 135.03 54.95 136.62 57.96C138.12 60.81 140.81 64.61 141.61 66.69C142 67.7 142.68 68.6 140.61 70.46C137.78 73 134.22 74.8 134.22 74.8L131.94 70.76L135.19 67.8L133.62 65.1L130.84 54.29Z" fill="#F8BBA7"/>
<path d="M135.19 67.79C135.56 68.3 136.39 69 137.22 69.24C136.29 69.47 135.22 68.59 134.89 68.07L135.19 67.79Z" fill="#F1997A"/>
<path d="M131.02 54.24C132.21 54.27 133.83 54.28 135.24 55.69C136.65 57.1 140.23 63.85 140.23 63.85C140.23 63.85 139.48 64.99 137.19 65.88C134.9 66.77 133.8 66.42 133.8 66.42L130.33 59.89L131.02 54.24Z" fill="#5957D9"/>
<path opacity="0.2" d="M131.02 54.24C132.21 54.27 133.83 54.28 135.24 55.69C136.65 57.1 140.23 63.85 140.23 63.85C140.23 63.85 139.48 64.99 137.19 65.88C134.9 66.77 133.8 66.42 133.8 66.42L130.33 59.89L131.02 54.24Z" fill="#5957D9"/>
<path d="M133.18 54.76C134.92 55.57 135.62 58.47 135.57 60.86C135.54 62.37 135.08 66.29 134.69 69.75C134.57 70.84 134.83 74.07 134.93 75.71C135.03 77.35 135.15 80.18 135.15 80.18C135.15 80.18 133.5 82.24 127.22 82.59C119.62 83.02 114.86 80.69 114.86 80.69C114.86 80.69 115.07 74.14 115.38 69.51C115.72 64.47 115.47 59.6 116.63 57.82C117 57.12 117.26 56.31 118.56 55.97C119.59 55.7 121.96 55.12 122.9 54.97C124.46 55.29 128.49 55.21 129.46 54.42L129.44 54.22C131.17 54.15 132.11 54.26 133.18 54.76Z" fill="#37474F"/>
<path d="M109.8 74.68C109.8 74.68 103.26 78.78 102.7 78.88C102.23 78.97 101.87 78.73 101.49 78.57C101.05 78.39 100.56 78.32 100.06 78.3C99.73 78.29 99.39 78.33 99.07 78.3C98.77 78.27 98.54 78.1 98.25 78.06C97.93 78.02 97.84 78.35 97.87 78.62C97.91 78.98 98.2 79.27 98.48 79.41C98.61 79.48 98.74 79.55 98.87 79.62C98.99 79.68 99.13 79.72 99.24 79.81C99.29 79.85 99.35 79.92 99.35 79.99C99.36 80.16 99.08 80.3 98.95 80.36C98.12 80.73 97.21 80.94 96.39 80.95C96.03 80.95 95.7 80.89 95.33 80.92C95.01 80.95 94.63 81.02 94.3 81.16C94.13 81.23 93.78 81.41 93.67 81.59C93.45 81.95 94.07 82.06 94.24 82.13C94.46 82.22 94.6 82.3 94.73 82.5C94.9 82.76 95.03 82.82 95.34 82.89C95.6 82.94 95.94 82.94 96.12 83.13C96.18 83.19 96.23 83.28 96.29 83.36C96.44 83.57 96.79 83.69 97.06 83.71C97.4 83.74 97.54 83.83 97.76 84.06C98.18 84.51 99.04 84.33 99.65 84.17C100.36 83.98 101.05 83.67 101.73 83.31C102.1 83.12 102.47 82.96 102.84 82.76C103.17 82.58 103.48 82.37 103.81 82.22C104.6 81.85 109.73 79.86 112.04 78.54C113.18 77.89 113.68 77.98 114.58 76.1C116.2 72.72 116.42 72.46 117.27 70.4C118.44 67.58 119.03 65.99 118.48 64.63C117.21 61.48 115.28 62.61 115.28 62.61C114.69 63.42 114.44 63.9 113.09 66.97C111.66 70.23 109.8 74.68 109.8 74.68Z" fill="#F8BBA7"/>
<path d="M116.5 56.94C115.19 58.2 114.82 59.32 113.84 61.44C112.86 63.56 111.22 67.21 111.22 67.21C111.22 67.21 111.14 69.44 114.14 70.64C116.03 71.4 117.05 70.87 117.05 70.87C117.05 70.87 121.05 63.52 121.2 61.79C121.35 60.05 119.64 55.45 116.5 56.94Z" fill="#5957D9"/>
<path opacity="0.2" d="M116.5 56.94C115.19 58.2 114.82 59.32 113.84 61.44C112.86 63.56 111.22 67.21 111.22 67.21C111.22 67.21 111.14 69.44 114.14 70.64C116.03 71.4 117.05 70.87 117.05 70.87C117.05 70.87 121.05 63.52 121.2 61.79C121.35 60.05 119.64 55.45 116.5 56.94Z" fill="#5957D9"/>
<path d="M90.76 80.4C90.76 80.36 90.75 80.33 90.74 80.3C90.74 80.29 90.74 80.29 90.74 80.28C90.74 80.24 90.72 80.21 90.71 80.18C90.69 80.13 90.67 80.08 90.64 80.04C90.63 80.02 90.62 80 90.6 79.98C90.59 79.97 90.58 79.95 90.56 79.94C90.54 79.91 90.51 79.89 90.48 79.87C90.48 79.87 90.48 79.87 90.47 79.86C90.44 79.84 90.4 79.82 90.37 79.81C90.15 79.72 89.87 79.74 89.55 79.9L28.18 111.51C27.51 111.86 26.96 112.46 26.96 113.99V116.56C26.96 117.14 27.66 117.5 28.21 117.21L89.54 85.6C90.21 85.25 90.76 84.41 90.76 83.71V80.53C90.77 80.49 90.76 80.44 90.76 80.4Z" fill="#5957D9"/>
<path opacity="0.5" d="M90.36 79.81C90.14 79.71 89.86 79.74 89.54 79.9L28.17 111.5C28.05 111.56 27.94 111.63 27.83 111.71C27.76 111.76 27.69 111.82 27.63 111.89C27.53 111.98 27.44 112.09 27.36 112.21L25.83 111.42C25.91 111.31 26 111.2 26.09 111.11C26.12 111.08 26.16 111.05 26.19 111.02C26.22 110.99 26.26 110.96 26.29 110.93C26.32 110.9 26.36 110.87 26.39 110.85C26.46 110.8 26.53 110.75 26.61 110.71L87.99 79.1C88.34 78.92 88.65 78.91 88.87 79.04C89.09 79.17 90.1 79.69 90.36 79.81Z" fill="#A56BAA"/>
<path opacity="0.15" d="M90.36 79.81C90.14 79.71 89.86 79.74 89.54 79.9L28.17 111.5C28.05 111.56 27.94 111.63 27.83 111.71C27.76 111.76 27.69 111.82 27.63 111.89C27.53 111.98 27.44 112.09 27.36 112.21L25.83 111.42C25.91 111.31 26 111.2 26.09 111.11C26.12 111.08 26.16 111.05 26.19 111.02C26.22 110.99 26.26 110.96 26.29 110.93C26.32 110.9 26.36 110.87 26.39 110.85C26.46 110.8 26.53 110.75 26.61 110.71L87.99 79.1C88.34 78.92 88.65 78.91 88.87 79.04C89.09 79.17 90.1 79.69 90.36 79.81Z" fill="#E9505B"/>
<path d="M58.86 100.69C60.02 100.09 60.97 98.63 60.97 97.42C60.97 96.22 60.03 95.73 58.86 96.33C57.7 96.93 56.75 98.39 56.75 99.6C56.75 100.8 57.69 101.29 58.86 100.69Z" fill="#A56BAA"/>
<path opacity="0.45" d="M58.86 100.69C60.02 100.09 60.97 98.63 60.97 97.42C60.97 96.22 60.03 95.73 58.86 96.33C57.7 96.93 56.75 98.39 56.75 99.6C56.75 100.8 57.69 101.29 58.86 100.69Z" fill="white"/>
<path fillRule="evenodd" clip-rule="evenodd" d="M57.66 99.91C57.73 99.85 58.06 99.56 58.12 99.5C58.18 99.44 58.22 99.39 58.21 99.3C58.2 99.2 58.2 98.95 58.2 98.87C58.2 98.79 58.22 98.74 58.29 98.68C58.36 98.62 58.55 98.4 58.87 98.24C59.12 98.11 59.35 98.09 59.42 98.09C59.49 98.09 59.49 98.15 59.48 98.21C59.48 98.27 59.48 98.34 59.48 98.41C59.48 98.43 59.48 98.44 59.48 98.46C59.48 98.49 59.49 98.52 59.5 98.56C59.51 98.62 59.54 98.63 59.58 98.63C59.61 98.63 59.91 98.68 60.03 98.7C60.15 98.72 60.18 98.64 60.2 98.59C60.23 98.54 60.26 98.49 60.29 98.44C60.32 98.39 60.36 98.29 60.37 98.17C60.37 98.05 60.4 97.74 60.19 97.52C60.14 97.47 60.09 97.44 60.03 97.41C59.84 97.34 59.62 97.39 59.58 97.4C59.53 97.41 58.8 97.48 58.15 98.13C57.51 98.78 57.56 98.84 57.48 99C57.4 99.16 57.3 99.59 57.36 99.75C57.42 99.92 57.5 100.01 57.53 100.01C57.55 100.01 57.6 99.97 57.66 99.91Z" fill="white"/>
<path d="M63.46 97.66C64.27 97.24 64.93 96.22 64.94 95.37C64.94 94.53 64.28 94.19 63.46 94.61C62.65 95.03 61.98 96.05 61.98 96.9C61.99 97.74 62.65 98.08 63.46 97.66Z" fill="#A56BAA"/>
<g opacity="0.45">
<path opacity="0.45" d="M63.46 97.66C64.27 97.24 64.93 96.22 64.94 95.37C64.94 94.53 64.28 94.19 63.46 94.61C62.65 95.03 61.98 96.05 61.98 96.9C61.99 97.74 62.65 98.08 63.46 97.66Z" fill="white"/>
</g>
<path d="M63.5801 96.77L62.7601 97.19C62.7101 97.21 62.6801 97.19 62.6801 97.13V95.97C62.6801 95.92 62.7201 95.85 62.7601 95.83L63.5801 95.41C63.6301 95.39 63.6601 95.41 63.6601 95.47V96.63C63.6601 96.68 63.6201 96.75 63.5801 96.77Z" fill="white"/>
<path d="M64.1601 96.33L63.87 96.27C63.83 96.26 63.8 96.21 63.8 96.15V95.8C63.8 95.74 63.83 95.66 63.87 95.61L64.1601 95.25C64.2001 95.2 64.2301 95.21 64.2301 95.27V96.24C64.2301 96.3 64.2001 96.34 64.1601 96.33Z" fill="white"/>
<path d="M54.26 102.42C55.07 102 55.73 100.98 55.74 100.13C55.74 99.29 55.08 98.95 54.26 99.37C53.45 99.79 52.78 100.81 52.79 101.66C52.78 102.5 53.44 102.84 54.26 102.42Z" fill="#A56BAA"/>
<path opacity="0.45" d="M54.26 102.42C55.07 102 55.73 100.98 55.74 100.13C55.74 99.29 55.08 98.95 54.26 99.37C53.45 99.79 52.78 100.81 52.79 101.66C52.78 102.5 53.44 102.84 54.26 102.42Z" fill="white"/>
<path d="M54.2801 101.12C54.4001 101.06 54.5001 100.9 54.5001 100.78C54.5001 100.65 54.4001 100.6 54.2801 100.67C54.1601 100.73 54.0601 100.89 54.0601 101.01C54.0601 101.13 54.1501 101.18 54.2801 101.12Z" fill="white"/>
<path d="M55 100.75C55.12 100.69 55.22 100.53 55.22 100.41C55.22 100.28 55.12 100.23 55 100.3C54.88 100.36 54.78 100.52 54.78 100.64C54.78 100.76 54.88 100.81 55 100.75Z" fill="white"/>
<path d="M53.5501 101.49C53.6701 101.43 53.7701 101.27 53.7701 101.15C53.7701 101.02 53.6701 100.97 53.5501 101.04C53.4301 101.1 53.3301 101.26 53.3301 101.38C53.3301 101.5 53.4301 101.56 53.5501 101.49Z" fill="white"/>
<g opacity="0.2">
<path opacity="0.2" d="M58.67 65.8L88.05 50.61C88.26 50.5 88.43 50.59 88.43 50.8V74.11C88.43 74.32 88.26 74.59 88.05 74.69L58.67 89.89C58.46 90 58.29 89.91 58.29 89.7V66.39C58.3 66.17 58.46 65.91 58.67 65.8Z" fill="black"/>
</g>
<path d="M61.1 67.63C61.12 67.6 61.13 67.57 61.15 67.54C61.13 67.56 61.11 67.59 61.1 67.63Z" fill="white" stroke="#6F6F6E" stroke-width="0.5" stroke-miterlimit="10"/>
<path opacity="0.5" d="M90.76 52.42C90.73 52.32 90.65 52.26 90.55 52.26C90.49 52.26 90.43 52.28 90.36 52.31L61.45 67.25C61.33 67.31 61.23 67.41 61.15 67.53L59.61 66.73C59.69 66.62 59.79 66.52 59.9 66.46L88.8 51.53C89.03 51.41 89.41 51.41 89.65 51.53L90.36 51.88C90.55 51.98 90.72 52.2 90.76 52.42Z" fill="white" stroke="#6F6F6E" stroke-width="0.5" stroke-miterlimit="10"/>
<g opacity="0.9">
<path opacity="0.9" d="M61.45 91.32C61.23 91.44 60.82 91.44 60.6 91.32L59.89 90.95C59.66 90.83 59.47 90.54 59.47 90.3V67.12C59.47 66.99 59.52 66.86 59.6 66.73L61.15 67.53C61.07 67.65 61.03 67.78 61.03 67.9V91.09C61.03 91.32 61.2 91.45 61.45 91.32Z" fill="white" stroke="#6F6F6E" stroke-width="0.5" stroke-miterlimit="10"/>
</g>
<g opacity="0.85">
<path opacity="0.85" d="M90.54 52.32C90.48 52.32 90.42 52.34 90.35 52.37L61.45 67.31C61.22 67.43 61.03 67.72 61.03 67.96V91.15C61.03 91.32 61.13 91.42 61.26 91.42C61.32 91.42 61.38 91.4 61.45 91.37L90.36 76.43C90.59 76.31 90.78 76.02 90.78 75.78V52.59C90.78 52.42 90.68 52.32 90.54 52.32Z" fill="white" stroke="#6F6F6E" stroke-width="0.5" stroke-miterlimit="10"/>
</g>
<path d="M61.0499 90.07L90.7799 74.71V53.66L61.0499 69.02V90.07Z" fill="white" stroke="#6F6F6E" stroke-width="0.5" stroke-miterlimit="10"/>
<path d="M90.54 52.43C90.58 52.43 90.59 52.51 90.59 52.53V75.72C90.59 75.9 90.44 76.14 90.26 76.23L61.36 91.17C61.31 91.2 61.28 91.2 61.27 91.2C61.23 91.2 61.22 91.12 61.22 91.1V67.91C61.22 67.73 61.37 67.49 61.55 67.4L90.46 52.46C90.5 52.43 90.53 52.43 90.54 52.43ZM90.54 52.26C90.48 52.26 90.42 52.28 90.35 52.31L61.45 67.25C61.22 67.37 61.03 67.66 61.03 67.9V91.1C61.03 91.27 61.13 91.37 61.26 91.37C61.32 91.37 61.38 91.35 61.45 91.32L90.36 76.38C90.59 76.26 90.78 75.97 90.78 75.73V52.53C90.78 52.36 90.68 52.26 90.54 52.26Z" fill="white" stroke="#6F6F6E" stroke-width="0.5" stroke-miterlimit="10"/>
<path d="M89.01 54.07C89.13 54.01 89.23 53.85 89.23 53.72C89.23 53.59 89.13 53.54 89.01 53.6C88.89 53.66 88.79 53.82 88.79 53.95C88.79 54.08 88.89 54.13 89.01 54.07Z" fill="#FBFBFB"/>
<path d="M89.75 53.69C89.87 53.63 89.97 53.47 89.97 53.34C89.97 53.21 89.87 53.16 89.75 53.22C89.63 53.28 89.53 53.44 89.53 53.57C89.52 53.7 89.62 53.75 89.75 53.69Z" fill="#FBFBFB"/>
<path d="M88.28 54.45C88.4 54.39 88.5 54.23 88.5 54.1C88.5 53.97 88.4 53.92 88.28 53.98C88.16 54.04 88.06 54.2 88.06 54.33C88.05 54.46 88.15 54.51 88.28 54.45Z" fill="#FBFBFB"/>
<path d="M62.82 68.93C63.23 68.72 63.56 68.89 63.56 69.31C63.56 69.73 63.23 70.25 62.82 70.46C62.41 70.67 62.08 70.5 62.08 70.08C62.08 69.66 62.41 69.14 62.82 68.93Z" fill="#455A64"/>
<path d="M62.81 69.76C62.94 69.69 63.05 69.52 63.05 69.39C63.05 69.25 62.94 69.2 62.81 69.27C62.68 69.34 62.57 69.51 62.57 69.64C62.57 69.77 62.68 69.83 62.81 69.76ZM62.89 69.79L62.75 69.86C62.53 69.97 62.35 70.25 62.35 70.47V70.53C62.39 70.54 62.43 70.55 62.48 70.55C62.58 70.55 62.69 70.52 62.81 70.46C62.99 70.37 63.15 70.22 63.28 70.04V70C63.29 69.77 63.11 69.68 62.89 69.79Z" fill="#A56BAA"/>
<path opacity="0.45" d="M62.81 69.76C62.94 69.69 63.05 69.52 63.05 69.39C63.05 69.25 62.94 69.2 62.81 69.27C62.68 69.34 62.57 69.51 62.57 69.64C62.57 69.77 62.68 69.83 62.81 69.76ZM62.89 69.79L62.75 69.86C62.53 69.97 62.35 70.25 62.35 70.47V70.53C62.39 70.54 62.43 70.55 62.48 70.55C62.58 70.55 62.69 70.52 62.81 70.46C62.99 70.37 63.15 70.22 63.28 70.04V70C63.29 69.77 63.11 69.68 62.89 69.79Z" fill="white"/>
<path d="M64.25 69.48L66.43 68.35C66.57 68.28 66.68 68.1 66.68 67.96V67.89C66.68 67.75 66.57 67.69 66.43 67.76L64.25 68.89C64.11 68.96 64 69.13 64 69.27V69.34C64 69.49 64.11 69.55 64.25 69.48Z" fill="#455A64"/>
<path d="M80.6401 79.09C80.6601 79.35 80.6401 79.65 80.5901 79.97L71.1901 84.83C69.9001 83.92 69.9901 82.6 69.9901 82.6C69.9901 82.6 68.5101 82.88 67.5601 81.3C66.6001 79.72 67.3901 78.01 69.6201 76.12C71.8201 74.26 72.2501 72.28 72.0001 70.33L80.8801 71.26C81.0501 73.59 82.2401 75.32 82.4901 77.22C82.6001 78.2 82.1001 79.45 80.6401 79.09Z" fill="#37474F"/>
<path d="M84.04 78.19L81.48 79.52L80.25 76.31C82.35 76.36 82.74 77.01 84.01 78.17L84.04 78.19Z" fill="#C9866A"/>
<path d="M83.0201 78.72L81.4801 79.52L72.2901 84.27C72.2201 83.14 72.1001 82.01 72.0501 81.1C71.8501 77.9 72.3301 77.21 72.8501 76.97C72.8501 76.97 73.3401 76.91 73.7701 76.85C74.8601 76.69 78.5601 76.28 78.5601 76.28L80.2501 76.3C80.2501 76.3 81.6001 77.16 82.8901 78.57C82.9301 78.62 82.9801 78.67 83.0201 78.72Z" fill="#A56BAA"/>
<path d="M83.0201 78.72L81.4801 79.52L72.2901 84.27C72.2201 83.14 72.1001 82.01 72.0501 81.1C71.8501 77.9 72.3301 77.21 72.8501 76.97C72.8501 76.97 73.3401 76.91 73.7701 76.85C74.8601 76.69 78.5601 76.28 78.5601 76.28L80.2501 76.3C80.2501 76.3 81.6001 77.16 82.8901 78.57C82.9301 78.62 82.9801 78.67 83.0201 78.72Z" fill="#BAC4E5"/>
<path d="M73.39 66.93C71.87 67.13 71.68 69.57 72.15 70.93C73.05 73.55 74.92 73.81 75.08 74.94C75.96 74.4 76.84 73.85 77.72 73.31C78.4 72.89 79.09 72.46 79.77 72.04C80.67 71.48 82.05 71.28 82.28 70.01C82.36 69.57 82.21 69.01 81.71 68.74C82.09 68.48 82.26 67.9 82.17 67.28C81.98 66.07 80.63 65.25 79.53 64.86C78.4 64.46 77.18 64.45 76.05 64.72C74.87 65 73.66 65.7 73.39 66.93Z" fill="#37474F"/>
<path d="M75.22 75.98L74.88 73.54C74.88 73.54 74.21 73.96 73.5 73.31C72.69 72.57 72.55 71.75 72.92 71.21C73.33 70.61 74.36 70.81 74.85 71.51C75.52 71.65 75.72 70.73 75.15 69.81C75.15 69.81 76.44 69.02 76.08 67.67C77.27 68.33 79.94 68.59 80.48 67.43C80.89 67.95 81.44 68.56 81.65 71.44C81.84 74.07 81.36 74.7 80.64 75.04C80.21 75.24 79.67 75.3 78.83 75.25L78.92 75.93C78.96 76.27 79.04 76.28 79.35 76.29C79.59 76.3 79.81 76.3 79.81 76.3C79.81 76.3 81.05 77.56 78.89 77.89C75.66 78.38 73.78 76.85 73.78 76.85C73.78 76.85 73.97 76.83 74.52 76.74C75.07 76.65 75.21 76.44 75.22 75.98Z" fill="#C9866A"/>
<path d="M77.82 72.81L79.02 73.15C78.95 73.48 78.62 73.67 78.28 73.57C77.95 73.48 77.74 73.14 77.82 72.81Z" fill="#B06152"/>
<path d="M77.91 73.07C78.24 73.06 78.54 73.27 78.63 73.57C78.52 73.6 78.41 73.61 78.29 73.57C78.05 73.5 77.88 73.31 77.83 73.08C77.85 73.08 77.88 73.08 77.91 73.07Z" fill="#F4A6A7"/>
<path d="M81.01 69.92L80.11 69.57C80.19 69.33 80.46 69.22 80.7 69.31C80.95 69.4 81.09 69.68 81.01 69.92Z" fill="#37474F"/>
<path d="M76.84 70.11L77.65 69.65C77.51 69.42 77.22 69.34 77 69.47C76.78 69.6 76.71 69.89 76.84 70.11Z" fill="#37474F"/>
<path d="M78.89 70.09L79.2 72.5L80.44 71.96L78.89 70.09Z" fill="#B06152"/>
<path d="M80.02 70.5C80.02 70.71 80.2 70.89 80.41 70.91C80.63 70.93 80.81 70.77 80.81 70.56C80.81 70.35 80.63 70.17 80.42 70.15C80.2 70.13 80.02 70.29 80.02 70.5Z" fill="#263239"/>
<path d="M77.1599 70.63C77.1599 70.84 77.3399 71.02 77.5499 71.04C77.7699 71.06 77.9499 70.9 77.9499 70.69C77.9499 70.48 77.7699 70.3 77.5599 70.28C77.3399 70.26 77.1599 70.42 77.1599 70.63Z" fill="#263239"/>
<path d="M78.8199 75.25C77.2999 75.14 75.8299 74.69 75.4399 74.04C75.4399 74.04 75.4899 74.76 76.1199 75.1C77.0099 75.57 78.8799 75.77 78.8799 75.77L78.8199 75.25Z" fill="#B06152"/>
<path d="M73.51 81.59L72.29 84.26L66.76 87.12C66.7 86.82 66.73 86.55 66.82 86.2C67.14 84.93 68.73 81.6 69.72 79.33C70.57 77.38 71.41 77.05 73.13 76.93C74.78 78.44 73.51 81.59 73.51 81.59Z" fill="#C9866A"/>
<g opacity="0.2">
<path opacity="0.2" d="M58.67 36.92L88.05 21.73C88.26 21.62 88.43 21.71 88.43 21.92V45.23C88.43 45.44 88.26 45.71 88.05 45.81L58.67 61C58.46 61.11 58.29 61.02 58.29 60.81V37.5C58.3 37.28 58.46 37.02 58.67 36.92Z" fill="white" stroke="#6F6F6E" stroke-width="0.5" stroke-miterlimit="10"/>
</g>
<path d="M61.1 38.74C61.12 38.71 61.13 38.68 61.15 38.65C61.13 38.68 61.11 38.71 61.1 38.74Z" fill="white" stroke="#6F6F6E" stroke-width="0.5" stroke-miterlimit="10"/>
<path opacity="0.5" d="M90.76 23.53C90.73 23.43 90.65 23.37 90.55 23.37C90.49 23.37 90.43 23.39 90.36 23.42L61.45 38.37C61.33 38.43 61.23 38.53 61.15 38.65L59.61 37.85C59.69 37.74 59.79 37.64 59.9 37.58L88.8 22.64C89.03 22.52 89.41 22.52 89.65 22.64L90.35 23C90.55 23.1 90.72 23.32 90.76 23.53Z" fill="white" stroke="#6F6F6E" stroke-width="0.5" stroke-miterlimit="10"/>
<g opacity="0.9">
<path opacity="0.9" d="M61.45 62.43C61.23 62.55 60.82 62.55 60.6 62.43L59.89 62.06C59.66 61.94 59.47 61.65 59.47 61.41V38.24C59.47 38.11 59.52 37.98 59.6 37.85L61.15 38.65C61.07 38.77 61.03 38.9 61.03 39.02V62.21C61.03 62.44 61.2 62.56 61.45 62.43Z" fill="white" stroke="#6F6F6E" stroke-width="0.5" stroke-miterlimit="10"/>
</g>
<g opacity="0.85">
<path opacity="0.85" d="M90.54 23.44C90.48 23.44 90.42 23.46 90.35 23.49L61.45 38.43C61.22 38.55 61.03 38.84 61.03 39.08V62.27C61.03 62.44 61.13 62.54 61.26 62.54C61.32 62.54 61.38 62.52 61.45 62.49L90.36 47.55C90.59 47.43 90.78 47.14 90.78 46.9V23.71C90.78 23.54 90.68 23.44 90.54 23.44Z" fill="white" stroke="#6F6F6E" stroke-width="0.5" stroke-miterlimit="10"/>
</g>
<path d="M61.0499 61.19L90.7799 45.82V24.77L61.0499 40.14V61.19Z" fill="white" stroke="#6F6F6E" stroke-width="0.5" stroke-miterlimit="10"/>
<path d="M90.54 23.54C90.58 23.54 90.59 23.62 90.59 23.64V46.83C90.59 47.01 90.44 47.25 90.26 47.34L61.36 62.29C61.31 62.32 61.28 62.32 61.27 62.32C61.23 62.32 61.22 62.24 61.22 62.22V39.02C61.22 38.84 61.37 38.6 61.55 38.51L90.46 23.57C90.5 23.55 90.53 23.54 90.54 23.54ZM90.54 23.38C90.48 23.38 90.42 23.4 90.35 23.43L61.45 38.37C61.22 38.49 61.03 38.78 61.03 39.02V62.21C61.03 62.38 61.13 62.48 61.26 62.48C61.32 62.48 61.38 62.46 61.45 62.43L90.36 47.49C90.59 47.37 90.78 47.08 90.78 46.84V23.65C90.78 23.47 90.68 23.38 90.54 23.38Z" fill="white" stroke="#6F6F6E" stroke-width="0.5" stroke-miterlimit="10"/>
<path d="M89.01 25.18C89.13 25.12 89.23 24.96 89.23 24.83C89.23 24.7 89.13 24.65 89.01 24.71C88.89 24.77 88.79 24.93 88.79 25.06C88.79 25.2 88.89 25.25 89.01 25.18Z" fill="white" stroke="#6F6F6E" stroke-width="0.5" stroke-miterlimit="10"/>
<path d="M89.75 24.81C89.87 24.75 89.97 24.59 89.97 24.46C89.97 24.33 89.87 24.28 89.75 24.34C89.63 24.4 89.53 24.56 89.53 24.69C89.52 24.82 89.62 24.87 89.75 24.81Z" fill="white" stroke="#6F6F6E" stroke-width="0.5" stroke-miterlimit="10"/>
<path d="M88.28 25.56C88.4 25.5 88.5 25.34 88.5 25.21C88.5 25.08 88.4 25.03 88.28 25.09C88.16 25.15 88.06 25.31 88.06 25.44C88.05 25.57 88.15 25.63 88.28 25.56Z" fill="white" stroke="#6F6F6E" stroke-width="0.5" stroke-miterlimit="10"/>
<path d="M62.82 40.05C63.23 39.84 63.56 40.01 63.56 40.43C63.56 40.85 63.23 41.37 62.82 41.58C62.41 41.79 62.08 41.62 62.08 41.2C62.08 40.78 62.41 40.26 62.82 40.05Z" fill="white" stroke="#6F6F6E" stroke-width="0.5" stroke-miterlimit="10"/>
<path d="M62.81 40.88C62.94 40.81 63.05 40.64 63.05 40.51C63.05 40.37 62.94 40.32 62.81 40.39C62.68 40.46 62.57 40.63 62.57 40.76C62.57 40.89 62.68 40.94 62.81 40.88ZM62.89 40.91L62.75 40.98C62.53 41.09 62.35 41.37 62.35 41.59V41.65C62.39 41.66 62.43 41.67 62.48 41.67C62.58 41.67 62.69 41.64 62.81 41.58C62.99 41.49 63.15 41.34 63.28 41.16V41.11C63.29 40.89 63.11 40.79 62.89 40.91Z" fill="white" stroke="#6F6F6E" stroke-width="0.5" stroke-miterlimit="10"/>
<path opacity="0.45" d="M62.81 40.88C62.94 40.81 63.05 40.64 63.05 40.51C63.05 40.37 62.94 40.32 62.81 40.39C62.68 40.46 62.57 40.63 62.57 40.76C62.57 40.89 62.68 40.94 62.81 40.88ZM62.89 40.91L62.75 40.98C62.53 41.09 62.35 41.37 62.35 41.59V41.65C62.39 41.66 62.43 41.67 62.48 41.67C62.58 41.67 62.69 41.64 62.81 41.58C62.99 41.49 63.15 41.34 63.28 41.16V41.11C63.29 40.89 63.11 40.79 62.89 40.91Z" fill="white"/>
<path d="M64.29 40.57L66.47 39.44C66.61 39.37 66.72 39.19 66.72 39.05V38.98C66.72 38.84 66.61 38.78 66.47 38.85L64.29 39.98C64.15 40.05 64.04 40.23 64.04 40.37V40.44C64.04 40.58 64.16 40.64 64.29 40.57Z" fill="#455A64"/>
<path d="M83 49.84L78.55 52.14L78.33 51.8L79.14 47.09C80.05 47.18 80.87 47.33 81.56 47.98C82.06 48.45 82.49 49.03 83 49.84Z" fill="#455A64"/>
<path d="M81.69 50.52L78.55 52.14L69.94 56.59C69.83 55.31 69.71 54.08 69.62 53.1C69.41 51 69.47 49.22 70.07 48.73C70.07 48.73 72.61 47.51 74.46 47.23C76.84 46.86 78.42 46.97 79.16 47.09C79.42 47.13 80.86 47.59 81.69 50.52Z" fill="#E9505B"/>
<path d="M79.48 40.52C79.79 40.28 80.05 40 80.17 39.57C80.3 39.1 80.33 38.73 80.26 38.24C80.24 38.13 80.16 37.88 80.1 37.79C79.98 37.62 79.76 37.58 79.56 37.55C79.43 37.54 79.3 37.52 79.18 37.51C79.39 37.27 79.61 37.02 79.7 36.71C79.77 36.48 79.76 36.23 79.69 35.99C79.67 35.93 79.64 35.86 79.59 35.82C79.48 35.71 79.3 35.74 79.16 35.78C78.01 36.12 76.86 36.06 76.46 36.05C75.74 36.03 75.37 35.95 74.37 35.89C73.37 35.83 71.64 36.31 71.47 38.12C70.16 38.36 70.14 40.44 70.59 41.3C71.41 42.89 72.16 43.93 72.6 45.08C72.67 45.03 76.92 42.44 77.89 41.71C78.25 41.44 78.61 41.17 78.98 40.9C79.14 40.77 79.32 40.65 79.48 40.52Z" fill="#263239"/>
<path d="M71.21 43.93C72.04 44.48 72.52 43.92 72.52 43.92L72.78 47.82C74.57 49.84 78.92 49.42 76.88 47.38L76.85 46.45C76.85 46.45 77.52 46.47 78.06 46.37C78.3 46.33 78.56 46.22 78.75 46.1C79.18 45.82 79.47 45.45 79.62 44.83C79.8 44.09 79.86 43.11 79.79 42.03C79.71 40.9 79.49 39.44 79.05 38.69C78.31 38.11 76.21 38.09 74.49 38.61C74.49 39.03 74.56 39.4 74.24 39.88C74.08 40.11 73.82 40.29 73.6 40.4C73.61 41.22 73.59 41.45 73.46 41.81C73.39 42.02 73.24 42.34 72.79 42.19C72.58 42.12 72.4 41.69 72.17 41.4C71.86 41.02 70.95 40.85 70.58 41.71C70.21 42.58 70.64 43.55 71.21 43.93Z" fill="#F4A6A7"/>
<path d="M76.8499 46.44C75.9599 46.37 74.3499 46.08 73.8599 45.57C73.3699 45.06 72.9299 43.86 72.9299 43.86C72.9299 43.86 73.1999 45.21 73.5899 45.79C73.9799 46.37 74.7599 46.59 75.3299 46.75C75.8999 46.9 76.8699 46.96 76.8699 46.96L76.8499 46.44Z" fill="#F28F8F"/>
<path d="M75.85 40.68L75.03 41.05C74.92 40.82 75.01 40.55 75.24 40.44C75.46 40.34 75.73 40.45 75.85 40.68Z" fill="#263239"/>
<path d="M78.3 40.58L79.15 40.98C79.25 40.75 79.14 40.48 78.91 40.37C78.67 40.26 78.4 40.35 78.3 40.58Z" fill="#263239"/>
<path d="M75.7799 43.63L77.3599 44.17C77.2099 44.59 76.7299 44.81 76.2999 44.66C75.8599 44.51 75.6299 44.05 75.7799 43.63Z" fill="#B26668"/>
<path d="M75.85 43.94C76.29 43.93 76.67 44.27 76.71 44.69C76.58 44.71 76.44 44.7 76.3 44.66C75.98 44.55 75.76 44.27 75.74 43.96C75.77 43.95 75.81 43.94 75.85 43.94Z" fill="#F28F8F"/>
<path d="M76.84 40.75L77.31 43.42L78.7 42.81L76.84 40.75Z" fill="#F28F8F"/>
<path d="M75.4 41.67C75.41 41.87 75.59 42.03 75.8 42.03C76.01 42.03 76.17 41.86 76.16 41.66C76.15 41.46 75.97 41.3 75.76 41.3C75.55 41.3 75.39 41.47 75.4 41.67Z" fill="#263239"/>
<path d="M78.2 41.53C78.21 41.73 78.39 41.89 78.6 41.89C78.81 41.89 78.97 41.72 78.96 41.52C78.95 41.32 78.77 41.16 78.56 41.16C78.35 41.17 78.19 41.33 78.2 41.53Z" fill="#263239"/>
<path d="M72.38 55.34L69.94 56.6L67.34 57.94C67.29 56.93 67.24 55.78 67.24 55.1C67.23 52.67 67.11 52.22 67.54 51.12C67.97 50.02 69.12 49.17 70.06 48.73C70.06 48.73 72.1 50.11 72.22 52.32C72.29 53.43 72.34 54.46 72.38 55.34Z" fill="#455A64"/>
<path d="M24.59 83.41L53.97 68.22C54.18 68.11 54.35 68.2 54.35 68.41V91.72C54.35 91.93 54.18 92.2 53.97 92.3L24.59 107.5C24.38 107.61 24.21 107.52 24.21 107.31V84C24.22 83.78 24.39 83.52 24.59 83.41Z" fill="white" stroke="#6F6F6E" stroke-width="0.5" stroke-miterlimit="10"/>
<path d="M27.02 85.24C27.04 85.21 27.05 85.18 27.07 85.15C27.05 85.18 27.04 85.21 27.02 85.24Z" fill="white" stroke="#6F6F6E" stroke-width="0.5" stroke-miterlimit="10"/>
<path opacity="0.5" d="M56.68 70.03C56.65 69.93 56.57 69.87 56.47 69.87C56.41 69.87 56.35 69.89 56.28 69.92L27.37 84.86C27.25 84.92 27.15 85.02 27.07 85.14L25.53 84.34C25.61 84.23 25.71 84.13 25.82 84.07L54.73 69.13C54.96 69.01 55.34 69.01 55.58 69.13L56.29 69.48C56.47 69.59 56.64 69.82 56.68 70.03Z" fill="white" stroke="#6F6F6E" stroke-width="0.5" stroke-miterlimit="10"/>
<g opacity="0.9">
<path opacity="0.9" d="M27.37 108.93C27.15 109.05 26.74 109.05 26.52 108.93L25.81 108.56C25.58 108.44 25.39 108.15 25.39 107.91V84.74C25.39 84.61 25.44 84.48 25.52 84.35L27.07 85.15C26.99 85.27 26.95 85.4 26.95 85.52V108.71C26.95 108.93 27.12 109.06 27.37 108.93Z" fill="white" stroke="#6F6F6E" stroke-width="0.5" stroke-miterlimit="10"/>
</g>
<g opacity="0.85">
<path opacity="0.85" d="M56.47 69.93C56.41 69.93 56.3499 69.95 56.2799 69.98L27.37 84.93C27.14 85.05 26.95 85.34 26.95 85.58V108.77C26.95 108.94 27.05 109.04 27.18 109.04C27.24 109.04 27.3 109.02 27.37 108.99L56.2799 94.05C56.5099 93.93 56.7 93.64 56.7 93.4V70.2C56.7 70.03 56.6 69.93 56.47 69.93Z" fill="white" stroke="#6F6F6E" stroke-miterlimit="10"/>
</g>
<path d="M26.97 107.69L56.7 92.32V71.27L26.97 86.64V107.69Z" fill="white" stroke="#6F6F6E" stroke-width="0.5" stroke-miterlimit="10"/>
<path d="M56.47 70.04C56.51 70.04 56.52 70.12 56.52 70.14V93.33C56.52 93.51 56.3699 93.75 56.1899 93.84L27.28 108.78C27.23 108.81 27.2 108.81 27.19 108.81C27.15 108.81 27.1399 108.73 27.1399 108.71V85.52C27.1399 85.34 27.2899 85.1 27.4699 85.01L56.38 70.07C56.42 70.04 56.45 70.04 56.47 70.04ZM56.47 69.87C56.41 69.87 56.3499 69.89 56.2799 69.92L27.37 84.87C27.14 84.99 26.95 85.28 26.95 85.52V108.71C26.95 108.88 27.05 108.98 27.18 108.98C27.24 108.98 27.3 108.96 27.37 108.93L56.2799 93.99C56.5099 93.87 56.7 93.58 56.7 93.34V70.14C56.7 69.97 56.6 69.87 56.47 69.87Z" fill="white" stroke="#6F6F6E" stroke-width="0.25" stroke-miterlimit="10"/>
<path d="M54.93 71.68C55.05 71.62 55.15 71.46 55.15 71.33C55.15 71.2 55.05 71.15 54.93 71.21C54.81 71.27 54.71 71.43 54.71 71.56C54.71 71.69 54.81 71.74 54.93 71.68Z" fill="#FBFBFB"/>
<path d="M55.6699 71.3C55.7899 71.24 55.8899 71.08 55.8899 70.95C55.8899 70.82 55.7899 70.77 55.6699 70.83C55.5499 70.89 55.4499 71.05 55.4499 71.18C55.4399 71.31 55.5399 71.37 55.6699 71.3Z" fill="#FBFBFB"/>
<path d="M54.1999 72.06C54.3199 72 54.4199 71.84 54.4199 71.71C54.4199 71.58 54.3199 71.53 54.1999 71.59C54.0799 71.65 53.9799 71.81 53.9799 71.94C53.9699 72.07 54.0699 72.12 54.1999 72.06Z" fill="#FBFBFB"/>
<path d="M28.74 86.54C29.15 86.33 29.48 86.5 29.48 86.92C29.48 87.34 29.15 87.86 28.74 88.07C28.33 88.29 28 88.12 28 87.69C28 87.27 28.33 86.75 28.74 86.54Z" fill="#455A64"/>
<path d="M28.74 87.37C28.87 87.3 28.98 87.13 28.98 87C28.98 86.86 28.87 86.81 28.74 86.88C28.61 86.95 28.5 87.12 28.5 87.25C28.5 87.39 28.6 87.44 28.74 87.37ZM28.81 87.4L28.67 87.47C28.45 87.58 28.27 87.86 28.27 88.08V88.14C28.31 88.15 28.35 88.16 28.4 88.16C28.5 88.16 28.61 88.13 28.73 88.07C28.91 87.98 29.07 87.83 29.2 87.65V87.6C29.21 87.38 29.03 87.29 28.81 87.4Z" fill="#A56BAA"/>
<path opacity="0.45" d="M28.74 87.37C28.87 87.3 28.98 87.13 28.98 87C28.98 86.86 28.87 86.81 28.74 86.88C28.61 86.95 28.5 87.12 28.5 87.25C28.5 87.39 28.6 87.44 28.74 87.37ZM28.81 87.4L28.67 87.47C28.45 87.58 28.27 87.86 28.27 88.08V88.14C28.31 88.15 28.35 88.16 28.4 88.16C28.5 88.16 28.61 88.13 28.73 88.07C28.91 87.98 29.07 87.83 29.2 87.65V87.6C29.21 87.38 29.03 87.29 28.81 87.4Z" fill="white"/>
<path d="M30.15 87.09L32.33 85.96C32.47 85.89 32.58 85.71 32.58 85.57V85.5C32.58 85.36 32.47 85.3 32.33 85.37L30.15 86.5C30.01 86.57 29.9 86.75 29.9 86.89V86.96C29.9 87.1 30.02 87.16 30.15 87.09Z" fill="#455A64"/>
<path d="M50.15 95.71L46.09 97.81L45.02 92.66C46.34 92.65 47.23 92.77 47.88 93.13C48.95 93.71 49.4 94.57 50.15 95.71Z" fill="#263239"/>
<path d="M48.15 96.74L35.44 103.31C35.21 101.92 34.99 100.94 34.71 99.77C34.29 97.99 34.2 95.39 35.09 95C36.24 94.5 36.9 94.16 37.48 93.95C37.48 93.95 39.09 92.6 41.75 92.63C42.8 92.64 43.85 92.62 45.02 92.66C46.32 92.71 47.51 94.04 48.13 96.62C48.13 96.65 48.14 96.7 48.15 96.74Z" fill="#37474F"/>
<path d="M37.82 83.69C36.68 85.01 37.05 86.66 37.57 88.21C38.17 89.98 37.9 90.77 38.98 91.21C38.46 85.64 40.74 92.16 45.15 87.83C45.95 87.05 45.88 84.62 44.81 83.53C43.29 81.98 40.06 81.2 37.82 83.69Z" fill="#263239"/>
<path d="M37.38 89.96C38.04 90.37 38.59 89.74 38.59 89.74L38.92 93.43C38.92 93.43 38.93 93.9001 40.06 94.4801C40.81 94.8701 42.37 95.09 43.26 95.93C43.63 95.32 43.93 94.2 43.1 93.24L43.03 92.24C43.03 92.24 43.46 92.29 43.92 92.17C44.53 92.01 45.32 91.4501 45.54 90.6201C45.88 89.2801 45.71 87.26 45.09 84.64C44.17 83.96 41.22 83.8201 39.38 84.9401C39.53 86.4801 39.11 87.16 39.13 87.71C39.02 87.93 38.89 88.06 38.8 88.14C38.52 88.38 38.25 87.74 38 87.49C37.74 87.24 36.93 86.89 36.56 87.7C36.19 88.54 36.81 89.61 37.38 89.96Z" fill="#B26668"/>
<path d="M41.47 86.31L40.71 86.77C40.57 86.55 40.62 86.27 40.84 86.15C41.05 86.02 41.33 86.09 41.47 86.31Z" fill="#263239"/>
<path d="M44.93 86.3L44.01 86.05C44.06 85.81 44.3 85.68 44.55 85.75C44.8 85.81 44.97 86.06 44.93 86.3Z" fill="#263239"/>
<path d="M41.15 87.35C41.16 87.55 41.34 87.71 41.55 87.71C41.76 87.71 41.92 87.54 41.9 87.34C41.89 87.14 41.71 86.98 41.5 86.98C41.29 86.99 41.13 87.15 41.15 87.35Z" fill="#263239"/>
<path d="M44.0799 87.17C44.0899 87.37 44.2699 87.53 44.4799 87.53C44.6899 87.53 44.8499 87.36 44.8299 87.16C44.8199 86.96 44.6399 86.8 44.4299 86.8C44.2199 86.8 44.0599 86.97 44.0799 87.17Z" fill="#263239"/>
<path d="M42.39 86.3101L42.94 88.5501L44.09 88.1101C43.86 87.4901 42.93 86.5601 42.39 86.3101Z" fill="#9B4B4E"/>
<path d="M39.15 87.47C39.23 88.99 39.96 89.28 40.56 89.44C41.52 89.69 41.96 88.92 43.07 88.85C43.71 88.81 43.87 88.92 44.47 89.26C44.56 89.31 44.81 89.43 44.92 89.45C45.15 89.49 45.49 89.52 45.59 89.22C45.71 88.83 45.7 88.03 45.6 87.37L45.56 87.01C45.56 87.01 45.89 88.61 45.77 89.85C45.69 90.63 45.4 91.36 44.98 91.73C44.39 92.24 43.34 92.53 41.71 92.24C40.1 91.96 39.43 91.46 39.19 90.92C38.41 89.16 38.58 88.31 38.34 87.98C38.1 87.64 39.15 87.47 39.15 87.47Z" fill="#263239"/>
<path d="M43.49 89.29C44.25 89.35 44.64 89.64 44.67 90.11C44.7 90.58 44.58 91.17 44.14 91.34C43.7 91.52 43.73 91.06 43.78 90.81C43.84 90.56 43.68 90.62 43.44 90.62C43.19 90.63 43.09 90.59 43.19 90.84C43.28 91.09 43.42 91.44 42.91 91.4C42.4 91.36 42.01 90.89 41.89 90.29C41.77 89.7 42.34 89.2 43.49 89.29Z" fill="#B26668"/>
<path d="M42.46 89.6801H43.75C43.73 90.0001 43.47 90.2601 43.11 90.2601C42.76 90.2501 42.44 90.0001 42.46 89.6801Z" fill="#9B4B4E"/>
<path d="M42.48 89.84C42.55 90.08 42.82 90.2601 43.11 90.2601C43.24 90.2601 43.37 90.2201 43.46 90.1601C43.21 89.9401 42.86 89.82 42.48 89.84Z" fill="#F28F8F"/>
<path d="M43.2701 95.93C42.7801 95.66 41.4901 95.14 41.3801 95.44C41.3101 95.66 41.1001 96.45 40.7301 96.43C40.2501 96.41 38.9301 95.97 38.0601 95C37.5001 94.38 37.4601 93.95 37.4601 93.95C37.4601 93.95 37.8901 93.12 38.1601 92.74C38.4201 92.36 38.5001 92.12 38.7901 92.09L38.8701 92.87C38.8701 92.87 39.1601 93.38 39.7601 93.76C40.6501 94.33 42.3901 94.94 43.2701 95.93Z" fill="#263239"/>
<path d="M43.2701 95.93C43.5401 95.68 43.98 94.64 44.21 94.68C44.69 94.76 45.02 95.09 45.01 94.85C45.01 94.61 44.6501 94.11 44.2201 93.42C43.8901 92.89 43.36 92.45 43.05 92.41L43.12 93.48C43.12 93.48 43.3 93.81 43.37 94.4C43.45 95.03 43.4501 95.49 43.2701 95.93Z" fill="#263239"/>
<path d="M36.57 100.35C36.49 100.7 36.32 101.75 36.14 102.94L30.53 105.84C30.58 105.31 30.68 104.63 30.81 103.67C31.23 100.55 31.65 98.57 32.17 97.42C32.7 96.27 33.68 95.57 35.09 94.99C36.63 96.72 36.8 99.37 36.57 100.35Z" fill="#263239"/>
<path d="M54.03 92.77C53.99 93.18 53.98 93.44 53.98 93.72L50.86 95.34C50.89 94.74 50.93 94.2 50.97 93.87C51.11 92.74 50.43 92.42 50.05 91.74C49.67 91.06 49.75 90.49 49.48 89.78C49.22 89.07 48.93 88.73 49.43 88.71C49.94 88.68 50.42 89.53 50.56 89.69C50.63 89.77 50.7 90 50.8 90.11C50.9 90.22 51.02 90.2 51.18 89.8C51.5 88.99 50.95 87.39 50.99 86.53C51 86.26 51.28 85.69 51.54 85.81C51.7 85.89 52.06 86.83 52.06 86.83C52.37 86.91 53.1 87.24 53.52 87.73C53.97 88.25 54.16 88.51 54.24 89.39C54.31 90.12 54.33 90.61 54.22 91.81C54.2 92.06 54.06 92.55 54.03 92.77Z" fill="#B26668"/>
<path d="M51.64 90.42C52.22 91.07 52.42 92.16 52.26 92.95C52.69 92.29 52.74 90.87 51.64 90.42Z" fill="#9B4B4E"/>
<g opacity="0.2">
<path opacity="0.2" d="M24.59 54.53L53.97 39.34C54.18 39.23 54.35 39.32 54.35 39.53V62.84C54.35 63.05 54.18 63.32 53.97 63.42L24.59 78.61C24.38 78.72 24.21 78.63 24.21 78.42V55.11C24.22 54.9 24.39 54.64 24.59 54.53Z" fill="white" stroke="#6F6F6E" stroke-width="0.5" stroke-miterlimit="10"/>
</g>
<path d="M27.02 56.3499C27.04 56.3199 27.05 56.2899 27.07 56.2599C27.05 56.2899 27.04 56.3199 27.02 56.3499Z" fill="white" stroke="#6F6F6E" stroke-width="0.5" stroke-miterlimit="10"/>
<path opacity="0.5" d="M56.68 41.14C56.65 41.04 56.57 40.98 56.47 40.98C56.41 40.98 56.35 41 56.28 41.03L27.37 55.98C27.25 56.04 27.15 56.14 27.07 56.26L25.53 55.46C25.61 55.35 25.71 55.25 25.82 55.19L54.73 40.25C54.96 40.13 55.34 40.13 55.58 40.25L56.29 40.6C56.47 40.71 56.64 40.93 56.68 41.14Z" fill="white" stroke="#6F6F6E" stroke-width="0.5" stroke-miterlimit="10"/>
<g opacity="0.9">
<path opacity="0.9" d="M27.37 80.05C27.15 80.17 26.74 80.17 26.52 80.05L25.81 79.68C25.58 79.56 25.39 79.27 25.39 79.03V55.85C25.39 55.72 25.44 55.59 25.52 55.46L27.07 56.26C26.99 56.38 26.95 56.51 26.95 56.63V79.82C26.95 80.05 27.12 80.18 27.37 80.05Z" fill="white" stroke="#6F6F6E" stroke-width="0.5" stroke-miterlimit="10"/>
</g>
<g opacity="0.85">
<path opacity="0.85" d="M56.4701 41.05C56.4101 41.05 56.3501 41.07 56.2801 41.1L27.3701 56.04C27.1401 56.16 26.9501 56.45 26.9501 56.69V79.88C26.9501 80.05 27.0501 80.15 27.1801 80.15C27.2401 80.15 27.3001 80.13 27.3701 80.1L56.2801 65.16C56.5101 65.04 56.7001 64.75 56.7001 64.51V41.32C56.7001 41.15 56.6001 41.05 56.4701 41.05Z" fill="white" stroke="#6F6F6E" stroke-width="0.5" stroke-miterlimit="10"/>
</g>
<path d="M26.97 78.8L56.7 63.43V42.38L26.97 57.75V78.8Z" fill="white" stroke="#6F6F6E" stroke-width="0.5" stroke-miterlimit="10"/>
<path d="M56.4701 41.16C56.5101 41.16 56.5201 41.24 56.5201 41.26V64.45C56.5201 64.63 56.3701 64.87 56.1901 64.96L27.2801 79.9C27.2301 79.93 27.2001 79.93 27.1901 79.93C27.1501 79.93 27.1401 79.85 27.1401 79.83V56.63C27.1401 56.45 27.2901 56.21 27.4701 56.12L56.3801 41.18C56.4201 41.16 56.4501 41.16 56.4701 41.16ZM56.4701 40.99C56.4101 40.99 56.3501 41.01 56.2801 41.04L27.3701 55.98C27.1401 56.1 26.9501 56.39 26.9501 56.63V79.82C26.9501 79.99 27.0501 80.09 27.1801 80.09C27.2401 80.09 27.3001 80.07 27.3701 80.04L56.2801 65.1C56.5101 64.98 56.7001 64.69 56.7001 64.45V41.26C56.7001 41.09 56.6001 40.99 56.4701 40.99Z" fill="white" stroke="#6F6F6E" stroke-width="0.5" stroke-miterlimit="10"/>
<path d="M54.93 42.8C55.05 42.74 55.15 42.58 55.15 42.45C55.15 42.32 55.05 42.27 54.93 42.33C54.81 42.39 54.71 42.55 54.71 42.68C54.71 42.81 54.81 42.86 54.93 42.8Z" fill="white" stroke="#6F6F6E" stroke-width="0.5" stroke-miterlimit="10"/>
<path d="M55.6699 42.42C55.7899 42.36 55.8899 42.2 55.8899 42.07C55.8899 41.94 55.7899 41.89 55.6699 41.95C55.5499 42.01 55.4499 42.17 55.4499 42.3C55.4399 42.43 55.5399 42.48 55.6699 42.42Z" fill="white" stroke="#6F6F6E" stroke-width="0.5" stroke-miterlimit="10"/>
<path d="M54.1999 43.17C54.3199 43.11 54.4199 42.95 54.4199 42.82C54.4199 42.69 54.3199 42.64 54.1999 42.7C54.0799 42.76 53.9799 42.92 53.9799 43.05C53.9699 43.19 54.0699 43.24 54.1999 43.17Z" fill="white" stroke="#6F6F6E" stroke-width="0.5" stroke-miterlimit="10"/>
<path d="M28.74 57.66C29.15 57.45 29.48 57.62 29.48 58.04C29.48 58.46 29.15 58.98 28.74 59.19C28.33 59.4 28 59.23 28 58.81C28 58.38 28.33 57.87 28.74 57.66Z" fill="white" stroke="#6F6F6E" stroke-width="0.5" stroke-miterlimit="10"/>
<path d="M28.74 58.49C28.87 58.42 28.98 58.25 28.98 58.12C28.98 57.99 28.87 57.93 28.74 58C28.61 58.07 28.5 58.24 28.5 58.37C28.5 58.5 28.6 58.56 28.74 58.49ZM28.81 58.52L28.67 58.59C28.45 58.7 28.27 58.98 28.27 59.2V59.26C28.31 59.27 28.35 59.28 28.4 59.28C28.5 59.28 28.61 59.25 28.73 59.19C28.91 59.1 29.07 58.95 29.2 58.77V58.72C29.21 58.5 29.03 58.41 28.81 58.52Z" fill="white" stroke="#6F6F6E" stroke-width="0.5" stroke-miterlimit="10"/>
<path opacity="0.45" d="M28.74 58.49C28.87 58.42 28.98 58.25 28.98 58.12C28.98 57.99 28.87 57.93 28.74 58C28.61 58.07 28.5 58.24 28.5 58.37C28.5 58.5 28.6 58.56 28.74 58.49ZM28.81 58.52L28.67 58.59C28.45 58.7 28.27 58.98 28.27 59.2V59.26C28.31 59.27 28.35 59.28 28.4 59.28C28.5 59.28 28.61 59.25 28.73 59.19C28.91 59.1 29.07 58.95 29.2 58.77V58.72C29.21 58.5 29.03 58.41 28.81 58.52Z" fill="white" stroke="#6F6F6E" stroke-width="0.5" stroke-miterlimit="10"/>
<path d="M30.25 58.15L32.43 57.02C32.57 56.95 32.68 56.77 32.68 56.63V56.56C32.68 56.42 32.57 56.36 32.43 56.43L30.25 57.56C30.11 57.63 30 57.81 30 57.95V58.02C30 58.17 30.11 58.22 30.25 58.15Z" fill="white" stroke="#6F6F6E" stroke-width="0.5" stroke-miterlimit="10"/>
<path d="M48.85 67.49L45.39 69.28L43.71 64.88C45.18 64.84 45.96 64.89 46.98 65.78C47.38 66.12 48.38 67.08 48.85 67.49Z" fill="#F1997A"/>
<path d="M47.2201 68.34L36.12 74.08C35.96 73.39 35.8 72.81 35.8 72.81C35.8 72.81 37.05 72.48 37.26 70.48C37.53 67.91 36.3 66.69 36.3 66.69C36.3 66.69 37.19 66.22 38.35 65.82C39.51 65.42 40.16 65.21 42.35 64.92L43.73 64.88C43.73 64.88 45.24 65.88 46.37 67.01C46.57 67.22 47.1601 67.92 47.2201 68.34Z" fill="#95C88B"/>
<path d="M45.55 64.14C45.85 62.1 43.19 62.29 42.42 60.98L44.44 59.57C45.69 58.81 45.44 57.15 45.02 56.3C44.09 54.4 41.85 53.8 40.5 53.81C37.94 53.82 36.77 54.53 36.65 55.81C35.7 55.79 34.38 56.78 34.52 59.54C34.55 60.09 34.62 60.76 34.34 61.24C34.09 61.66 33.72 62.07 33.56 62.54C33.3 63.33 33.62 64.46 34.65 64.57C34.56 64.36 34.43 64.09 34.6 63.89C34.72 64.86 36.5 65.41 37.29 65.15C37.07 65.03 36.9 64.92 36.82 64.68C38.16 65.3 39.27 65.01 40.57 64.5C40.8 64.41 40.96 64.37 41.73 64.55C42.2 64.66 42.76 64.71 43.62 64.24C44.15 63.94 44.99 63.51 45.55 64.14Z" fill="#37474F"/>
<path d="M37.62 62.16C37.17 62.25 36.72 62.04 36.42 61.75C35.76 61.11 35.65 60.44 35.91 59.99C36.12 59.62 36.69 59.38 37.11 59.61C37.57 59.87 37.59 60.08 37.78 60.38C37.97 60.68 38.6 60.64 38.67 59.43C38.73 58.3 38.84 57.27 39.38 56.75C40.18 55.98 41.19 56.29 41.56 56.73C41.87 56.2 42.47 55.98 43.07 56.27C43.66 56.55 44.04 57.17 44.38 59.3C44.74 61.47 44.37 63.02 43.88 63.4C43.51 63.69 43.01 63.75 42.17 63.81L42.24 65.25C42.24 65.25 43.58 66.19 43.71 68.06C42.24 67.77 39.55 66.93 38.29 65.92L38.07 61.81C38.08 61.81 38.05 62.07 37.62 62.16Z" fill="#F8BBA7"/>
<path d="M40.95 59.56C40.9 59.76 40.7 59.87 40.5 59.82C40.3 59.76 40.18 59.56 40.23 59.36C40.28 59.16 40.48 59.05 40.68 59.1C40.88 59.16 41 59.37 40.95 59.56Z" fill="#263239"/>
<path d="M40.55 59.09C40.32 59.1 40.2 59.41 39.97 59.29C40.02 59.45 40.28 59.54 40.44 59.46C40.53 59.41 40.55 59.09 40.55 59.09Z" fill="#263239"/>
<path d="M43.78 58.49L42.96 58.12C43.05 57.9 43.3 57.81 43.53 57.91C43.76 58.01 43.87 58.27 43.78 58.49Z" fill="#263239"/>
<path d="M42.92 59.41C43.01 59.6 43.23 59.7 43.42 59.63C43.61 59.56 43.69 59.34 43.6 59.15C43.51 58.96 43.29 58.86 43.1 58.93C42.92 59 42.83 59.22 42.92 59.41Z" fill="#263239"/>
<path d="M43.24 58.91C43.47 58.9 43.65 59.19 43.86 59.06C43.84 59.22 43.6 59.34 43.43 59.27C43.31 59.22 43.24 58.91 43.24 58.91Z" fill="#263239"/>
<path d="M40.5599 58.28L39.7899 58.78C39.6299 58.57 39.6699 58.29 39.8799 58.15C40.0899 58.01 40.3999 58.07 40.5599 58.28Z" fill="#263239"/>
<path d="M40.7999 61.37L42.0599 61.68C41.9999 62.02 41.6299 62.22 41.2299 62.11C40.8899 62.01 40.7399 61.71 40.7999 61.37Z" fill="#B26668"/>
<path d="M41.5899 62.13C41.5199 61.8 41.1999 61.56 40.8499 61.59C40.8299 61.59 40.8099 61.6 40.7899 61.6C40.8199 61.84 40.9699 62.04 41.2399 62.12C41.3599 62.15 41.4799 62.15 41.5899 62.13Z" fill="#F1997A"/>
<path d="M41.6499 58.77L42.0499 60.91L43.2199 60.44L41.6499 58.77Z" fill="#F1997A"/>
<path d="M42.1799 63.81C41.3899 63.78 40.5599 63.71 39.7399 63.43C39.4499 63.33 39.0299 62.86 38.6699 62.33C38.6699 62.33 38.9899 63.39 39.6299 63.73C40.5999 64.25 42.1999 64.3 42.1999 64.3L42.1799 63.81Z" fill="#F1997A"/>
<path d="M38.41 62.23C38.47 62.64 38.26 63.02 37.91 63.2C37.8 63.26 37.67 63.3 37.53 63.31C36.96 63.36 36.44 62.95 36.37 62.41C36.34 62.19 36.38 61.98 36.48 61.8C36.51 61.83 36.54 61.86 36.58 61.88C36.64 61.93 36.71 61.97 36.77 62C36.71 62.12 36.68 62.25 36.7 62.38C36.75 62.75 37.11 63.02 37.49 62.99C37.64 62.97 37.77 62.92 37.88 62.82C38.03 62.68 38.12 62.48 38.09 62.26C38.04 61.89 37.68 61.62 37.31 61.65C37.21 61.66 37.13 61.59 37.12 61.5C37.11 61.41 37.17 61.33 37.26 61.32C37.81 61.28 38.33 61.69 38.41 62.23Z" fill="#95C88B"/>
<path opacity="0.2" d="M38.41 62.23C38.47 62.64 38.26 63.02 37.91 63.2C37.8 63.26 37.67 63.3 37.53 63.31C36.96 63.36 36.44 62.95 36.37 62.41C36.34 62.19 36.38 61.98 36.48 61.8C36.51 61.83 36.54 61.86 36.58 61.88C36.64 61.93 36.71 61.97 36.77 62C36.71 62.12 36.68 62.25 36.7 62.38C36.75 62.75 37.11 63.02 37.49 62.99C37.64 62.97 37.77 62.92 37.88 62.82C38.03 62.68 38.12 62.48 38.09 62.26C38.04 61.89 37.68 61.62 37.31 61.65C37.21 61.66 37.13 61.59 37.12 61.5C37.11 61.41 37.17 61.33 37.26 61.32C37.81 61.28 38.33 61.69 38.41 62.23Z" fill="#95C88B"/>
<path d="M37.97 73.12L33.96 75.19C33.97 74.48 33.95 73.14 33.9 71.99C33.74 68.25 34.37 67.76 36.29 66.69C38.29 68.34 38.01 71.47 38.01 71.47C38.03 71.8 38 72.49 37.97 73.12Z" fill="#F8BBA7"/>
<path d="M54.15 59.6C54.09 59.81 53.82 60.5 53.7 61.16C53.62 61.57 53.62 62.1 53.59 62.39C53.52 62.99 53.44 63.41 53.04 63.93C52.75 64.31 52.86 64.88 52.89 65.41L50.24 66.78C50.26 66.23 50.31 65.75 50.32 65.31C50.33 64.48 50.4 63.95 49.86 63.19C49.7 62.98 49.41 62.62 49.21 62.3C48.82 61.68 48.6 61.21 48.32 60.85C48.12 60.59 48.34 60.31 48.91 60.52C49.25 60.65 49.52 61.01 49.8 61.33C50.11 61.66 50.22 61.49 50.25 61.12C50.29 60.75 50.43 58.95 50.51 58.38C50.56 58.06 50.59 57.83 50.73 57.77C50.86 57.71 51.29 57.75 51.27 58.5C51.25 59.31 51.08 60.5 51.15 60.5C51.21 60.5 51.3 59.72 51.45 58.91C51.6 58.16 51.64 57.83 51.74 57.61C51.83 57.41 52.26 57.25 52.35 57.86C52.39 58.15 52.35 58.36 52.19 59.46C52.08 60.22 52.1 60.47 52.1 60.47C52.17 60.51 52.3 59.91 52.59 59.21C52.85 58.57 52.98 58.24 53.14 58.03C53.22 57.92 53.52 58.06 53.55 58.36C53.57 58.51 53.48 58.8 53.37 59.15C53.22 59.63 53.21 59.71 53.11 60.07C53.04 60.32 52.95 60.65 53 60.67C53.05 60.69 53.3 59.81 53.75 59.19C54 58.88 54.25 59.27 54.15 59.6Z" fill="#F8BBA7"/>
<path d="M50.5 61.79C51.09 61.99 51.87 62.85 52.02 63.56C52.19 62.68 51.4 61.8 50.5 61.79Z" fill="#F1997A"/>
<path d="M158.16 131.61H25.11V132.72H158.16V131.61Z" fill="#575756"/>
</svg>
