<svg width="230" height="200" viewBox="0 0 230 200" fill="none" xmlns="http://www.w3.org/2000/svg">
<g filter="url(#filter0_ddd_3779_3513)">
<g clip-path="url(#clip0_3779_3513)">
<path d="M115 116C153.66 116 185 109.197 185 100.805C185 92.413 153.66 85.6099 115 85.6099C76.3401 85.6099 45 92.413 45 100.805C45 109.197 76.3401 116 115 116Z" fill="#F5F5F5"/>
<path d="M165.312 56.8694L143.118 31.9017C142.053 30.1998 140.498 29.1709 138.859 29.1709H91.1409C89.5025 29.1709 87.9472 30.1998 86.8819 31.8995L64.6875 56.8716V76.927H165.312V56.8694Z" stroke="#D9D9D9"/>
<path d="M136.028 63.753C136.028 60.269 138.203 57.3928 140.9 57.3906H165.312V96.7612C165.312 101.37 162.425 105.147 158.859 105.147H71.1406C67.575 105.147 64.6875 101.367 64.6875 96.7612V57.3906H89.1C91.7972 57.3906 93.9716 60.2625 93.9716 63.7465V63.7943C93.9716 67.2783 96.17 70.0916 98.865 70.0916H131.135C133.83 70.0916 136.028 67.2523 136.028 63.7682V63.753Z" fill="#FAFAFA" stroke="#D9D9D9"/>
</g>
<path d="M59.9902 144H58.6504L53.2021 135.605H53.1475C53.1611 135.829 53.1771 136.084 53.1953 136.371C53.2135 136.654 53.2272 136.957 53.2363 137.28C53.25 137.599 53.2568 137.925 53.2568 138.258V144H52.1768V134.006H53.5098L58.9375 142.373H58.9854C58.9762 142.214 58.9648 141.988 58.9512 141.696C58.9375 141.4 58.9238 141.083 58.9102 140.746C58.901 140.404 58.8965 140.088 58.8965 139.796V134.006H59.9902V144ZM69.0068 140.24C69.0068 140.855 68.9271 141.405 68.7676 141.888C68.6081 142.371 68.3779 142.779 68.0771 143.111C67.7764 143.444 67.4118 143.699 66.9834 143.877C66.5596 144.05 66.0788 144.137 65.541 144.137C65.0397 144.137 64.5794 144.05 64.1602 143.877C63.7454 143.699 63.3854 143.444 63.0801 143.111C62.7793 142.779 62.5446 142.371 62.376 141.888C62.2119 141.405 62.1299 140.855 62.1299 140.24C62.1299 139.42 62.2689 138.723 62.5469 138.148C62.8249 137.57 63.2214 137.13 63.7363 136.829C64.2559 136.524 64.8734 136.371 65.5889 136.371C66.2725 136.371 66.8695 136.524 67.3799 136.829C67.8949 137.134 68.2936 137.576 68.5762 138.155C68.8633 138.729 69.0068 139.424 69.0068 140.24ZM63.3057 140.24C63.3057 140.842 63.3854 141.364 63.5449 141.806C63.7044 142.248 63.9505 142.59 64.2832 142.831C64.6159 143.073 65.0443 143.193 65.5684 143.193C66.0879 143.193 66.514 143.073 66.8467 142.831C67.1839 142.59 67.4323 142.248 67.5918 141.806C67.7513 141.364 67.8311 140.842 67.8311 140.24C67.8311 139.643 67.7513 139.128 67.5918 138.695C67.4323 138.258 67.1862 137.921 66.8535 137.684C66.5208 137.447 66.0902 137.328 65.5615 137.328C64.7822 137.328 64.2103 137.586 63.8457 138.101C63.4857 138.616 63.3057 139.329 63.3057 140.24ZM79.4521 141.949C79.4521 142.428 79.3314 142.831 79.0898 143.159C78.8529 143.483 78.5111 143.727 78.0645 143.891C77.6224 144.055 77.0938 144.137 76.4785 144.137C75.9544 144.137 75.501 144.096 75.1182 144.014C74.7354 143.932 74.4004 143.815 74.1133 143.665V142.619C74.4186 142.77 74.7832 142.906 75.207 143.029C75.6309 143.152 76.0638 143.214 76.5059 143.214C77.153 143.214 77.6224 143.109 77.9141 142.899C78.2057 142.69 78.3516 142.405 78.3516 142.045C78.3516 141.84 78.2923 141.66 78.1738 141.505C78.0599 141.345 77.8662 141.193 77.5928 141.047C77.3193 140.896 76.9411 140.732 76.458 140.555C75.9795 140.372 75.5648 140.192 75.2139 140.015C74.8675 139.832 74.5986 139.611 74.4072 139.352C74.2204 139.092 74.127 138.755 74.127 138.34C74.127 137.706 74.3822 137.221 74.8926 136.884C75.4076 136.542 76.082 136.371 76.916 136.371C77.3672 136.371 77.7887 136.417 78.1807 136.508C78.5771 136.594 78.9463 136.713 79.2881 136.863L78.9053 137.772C78.5954 137.64 78.265 137.529 77.9141 137.438C77.5632 137.346 77.2054 137.301 76.8408 137.301C76.3167 137.301 75.9134 137.387 75.6309 137.561C75.3529 137.734 75.2139 137.971 75.2139 138.271C75.2139 138.504 75.2777 138.695 75.4053 138.846C75.5374 138.996 75.7471 139.137 76.0342 139.27C76.3213 139.402 76.6995 139.557 77.1689 139.734C77.6383 139.908 78.0439 140.088 78.3857 140.274C78.7275 140.457 78.9896 140.68 79.1719 140.944C79.3587 141.204 79.4521 141.539 79.4521 141.949ZM83.6973 143.207C83.8841 143.207 84.0755 143.191 84.2715 143.159C84.4674 143.127 84.627 143.089 84.75 143.043V143.925C84.6178 143.984 84.4333 144.034 84.1963 144.075C83.9639 144.116 83.736 144.137 83.5127 144.137C83.1162 144.137 82.7562 144.068 82.4326 143.932C82.109 143.79 81.8493 143.553 81.6533 143.221C81.4619 142.888 81.3662 142.428 81.3662 141.84V137.396H80.2998V136.843L81.373 136.398L81.8242 134.771H82.5078V136.508H84.7021V137.396H82.5078V141.806C82.5078 142.275 82.6149 142.626 82.8291 142.858C83.0479 143.091 83.3372 143.207 83.6973 143.207ZM89.0703 136.385C89.9635 136.385 90.6266 136.585 91.0596 136.986C91.4925 137.387 91.709 138.028 91.709 138.907V144H90.8818L90.6631 142.893H90.6084C90.3988 143.166 90.18 143.396 89.9521 143.583C89.7243 143.765 89.46 143.904 89.1592 144C88.863 144.091 88.4984 144.137 88.0654 144.137C87.6097 144.137 87.2041 144.057 86.8486 143.897C86.4977 143.738 86.2197 143.496 86.0146 143.173C85.8141 142.849 85.7139 142.439 85.7139 141.942C85.7139 141.195 86.0101 140.621 86.6025 140.22C87.195 139.819 88.0973 139.6 89.3096 139.563L90.6016 139.509V139.051C90.6016 138.404 90.4626 137.95 90.1846 137.69C89.9066 137.431 89.5146 137.301 89.0088 137.301C88.6169 137.301 88.2432 137.358 87.8877 137.472C87.5322 137.586 87.195 137.72 86.876 137.875L86.5273 137.014C86.8646 136.84 87.252 136.692 87.6895 136.569C88.127 136.446 88.5872 136.385 89.0703 136.385ZM90.5879 140.309L89.4463 140.356C88.512 140.393 87.8535 140.546 87.4707 140.814C87.0879 141.083 86.8965 141.464 86.8965 141.956C86.8965 142.384 87.0264 142.701 87.2861 142.906C87.5459 143.111 87.89 143.214 88.3184 143.214C88.9837 143.214 89.5283 143.029 89.9521 142.66C90.376 142.291 90.5879 141.737 90.5879 140.999V140.309ZM96.4668 143.207C96.6536 143.207 96.8451 143.191 97.041 143.159C97.237 143.127 97.3965 143.089 97.5195 143.043V143.925C97.3874 143.984 97.2028 144.034 96.9658 144.075C96.7334 144.116 96.5055 144.137 96.2822 144.137C95.8857 144.137 95.5257 144.068 95.2021 143.932C94.8786 143.79 94.6188 143.553 94.4229 143.221C94.2314 142.888 94.1357 142.428 94.1357 141.84V137.396H93.0693V136.843L94.1426 136.398L94.5938 134.771H95.2773V136.508H97.4717V137.396H95.2773V141.806C95.2773 142.275 95.3844 142.626 95.5986 142.858C95.8174 143.091 96.1068 143.207 96.4668 143.207ZM100.172 136.508V144H99.0371V136.508H100.172ZM99.6182 133.705C99.805 133.705 99.9645 133.767 100.097 133.89C100.233 134.008 100.302 134.195 100.302 134.45C100.302 134.701 100.233 134.888 100.097 135.011C99.9645 135.134 99.805 135.195 99.6182 135.195C99.4222 135.195 99.2581 135.134 99.126 135.011C98.9984 134.888 98.9346 134.701 98.9346 134.45C98.9346 134.195 98.9984 134.008 99.126 133.89C99.2581 133.767 99.4222 133.705 99.6182 133.705ZM107.425 141.949C107.425 142.428 107.304 142.831 107.062 143.159C106.826 143.483 106.484 143.727 106.037 143.891C105.595 144.055 105.066 144.137 104.451 144.137C103.927 144.137 103.474 144.096 103.091 144.014C102.708 143.932 102.373 143.815 102.086 143.665V142.619C102.391 142.77 102.756 142.906 103.18 143.029C103.604 143.152 104.036 143.214 104.479 143.214C105.126 143.214 105.595 143.109 105.887 142.899C106.178 142.69 106.324 142.405 106.324 142.045C106.324 141.84 106.265 141.66 106.146 141.505C106.033 141.345 105.839 141.193 105.565 141.047C105.292 140.896 104.914 140.732 104.431 140.555C103.952 140.372 103.537 140.192 103.187 140.015C102.84 139.832 102.571 139.611 102.38 139.352C102.193 139.092 102.1 138.755 102.1 138.34C102.1 137.706 102.355 137.221 102.865 136.884C103.38 136.542 104.055 136.371 104.889 136.371C105.34 136.371 105.761 136.417 106.153 136.508C106.55 136.594 106.919 136.713 107.261 136.863L106.878 137.772C106.568 137.64 106.238 137.529 105.887 137.438C105.536 137.346 105.178 137.301 104.813 137.301C104.289 137.301 103.886 137.387 103.604 137.561C103.326 137.734 103.187 137.971 103.187 138.271C103.187 138.504 103.25 138.695 103.378 138.846C103.51 138.996 103.72 139.137 104.007 139.27C104.294 139.402 104.672 139.557 105.142 139.734C105.611 139.908 106.017 140.088 106.358 140.274C106.7 140.457 106.962 140.68 107.145 140.944C107.331 141.204 107.425 141.539 107.425 141.949ZM111.67 143.207C111.857 143.207 112.048 143.191 112.244 143.159C112.44 143.127 112.6 143.089 112.723 143.043V143.925C112.59 143.984 112.406 144.034 112.169 144.075C111.937 144.116 111.709 144.137 111.485 144.137C111.089 144.137 110.729 144.068 110.405 143.932C110.082 143.79 109.822 143.553 109.626 143.221C109.435 142.888 109.339 142.428 109.339 141.84V137.396H108.272V136.843L109.346 136.398L109.797 134.771H110.48V136.508H112.675V137.396H110.48V141.806C110.48 142.275 110.588 142.626 110.802 142.858C111.021 143.091 111.31 143.207 111.67 143.207ZM115.375 136.508V144H114.24V136.508H115.375ZM114.821 133.705C115.008 133.705 115.168 133.767 115.3 133.89C115.437 134.008 115.505 134.195 115.505 134.45C115.505 134.701 115.437 134.888 115.3 135.011C115.168 135.134 115.008 135.195 114.821 135.195C114.625 135.195 114.461 135.134 114.329 135.011C114.201 134.888 114.138 134.701 114.138 134.45C114.138 134.195 114.201 134.008 114.329 133.89C114.461 133.767 114.625 133.705 114.821 133.705ZM120.782 144.137C120.108 144.137 119.513 143.998 118.998 143.72C118.483 143.442 118.082 143.018 117.795 142.448C117.508 141.879 117.364 141.161 117.364 140.295C117.364 139.388 117.515 138.647 117.815 138.073C118.121 137.494 118.54 137.066 119.073 136.788C119.606 136.51 120.213 136.371 120.892 136.371C121.265 136.371 121.625 136.41 121.972 136.487C122.323 136.56 122.61 136.654 122.833 136.768L122.491 137.718C122.263 137.627 121.999 137.545 121.698 137.472C121.402 137.399 121.124 137.362 120.864 137.362C120.345 137.362 119.912 137.474 119.565 137.697C119.224 137.921 118.966 138.249 118.793 138.682C118.624 139.115 118.54 139.648 118.54 140.281C118.54 140.887 118.622 141.405 118.786 141.833C118.955 142.261 119.203 142.59 119.531 142.817C119.864 143.041 120.279 143.152 120.775 143.152C121.172 143.152 121.53 143.111 121.849 143.029C122.168 142.943 122.457 142.842 122.717 142.729V143.74C122.466 143.868 122.186 143.966 121.876 144.034C121.571 144.103 121.206 144.137 120.782 144.137ZM129.341 141.949C129.341 142.428 129.22 142.831 128.979 143.159C128.742 143.483 128.4 143.727 127.953 143.891C127.511 144.055 126.982 144.137 126.367 144.137C125.843 144.137 125.39 144.096 125.007 144.014C124.624 143.932 124.289 143.815 124.002 143.665V142.619C124.307 142.77 124.672 142.906 125.096 143.029C125.52 143.152 125.952 143.214 126.395 143.214C127.042 143.214 127.511 143.109 127.803 142.899C128.094 142.69 128.24 142.405 128.24 142.045C128.24 141.84 128.181 141.66 128.062 141.505C127.949 141.345 127.755 141.193 127.481 141.047C127.208 140.896 126.83 140.732 126.347 140.555C125.868 140.372 125.453 140.192 125.103 140.015C124.756 139.832 124.487 139.611 124.296 139.352C124.109 139.092 124.016 138.755 124.016 138.34C124.016 137.706 124.271 137.221 124.781 136.884C125.296 136.542 125.971 136.371 126.805 136.371C127.256 136.371 127.677 136.417 128.069 136.508C128.466 136.594 128.835 136.713 129.177 136.863L128.794 137.772C128.484 137.64 128.154 137.529 127.803 137.438C127.452 137.346 127.094 137.301 126.729 137.301C126.205 137.301 125.802 137.387 125.52 137.561C125.242 137.734 125.103 137.971 125.103 138.271C125.103 138.504 125.166 138.695 125.294 138.846C125.426 138.996 125.636 139.137 125.923 139.27C126.21 139.402 126.588 139.557 127.058 139.734C127.527 139.908 127.933 140.088 128.274 140.274C128.616 140.457 128.878 140.68 129.061 140.944C129.247 141.204 129.341 141.539 129.341 141.949ZM137.223 143.207C137.41 143.207 137.601 143.191 137.797 143.159C137.993 143.127 138.152 143.089 138.275 143.043V143.925C138.143 143.984 137.959 144.034 137.722 144.075C137.489 144.116 137.261 144.137 137.038 144.137C136.642 144.137 136.282 144.068 135.958 143.932C135.634 143.79 135.375 143.553 135.179 143.221C134.987 142.888 134.892 142.428 134.892 141.84V137.396H133.825V136.843L134.898 136.398L135.35 134.771H136.033V136.508H138.228V137.396H136.033V141.806C136.033 142.275 136.14 142.626 136.354 142.858C136.573 143.091 136.863 143.207 137.223 143.207ZM146.253 140.24C146.253 140.855 146.173 141.405 146.014 141.888C145.854 142.371 145.624 142.779 145.323 143.111C145.022 143.444 144.658 143.699 144.229 143.877C143.806 144.05 143.325 144.137 142.787 144.137C142.286 144.137 141.826 144.05 141.406 143.877C140.992 143.699 140.632 143.444 140.326 143.111C140.025 142.779 139.791 142.371 139.622 141.888C139.458 141.405 139.376 140.855 139.376 140.24C139.376 139.42 139.515 138.723 139.793 138.148C140.071 137.57 140.467 137.13 140.982 136.829C141.502 136.524 142.119 136.371 142.835 136.371C143.519 136.371 144.116 136.524 144.626 136.829C145.141 137.134 145.54 137.576 145.822 138.155C146.109 138.729 146.253 139.424 146.253 140.24ZM140.552 140.24C140.552 140.842 140.632 141.364 140.791 141.806C140.951 142.248 141.197 142.59 141.529 142.831C141.862 143.073 142.29 143.193 142.814 143.193C143.334 143.193 143.76 143.073 144.093 142.831C144.43 142.59 144.678 142.248 144.838 141.806C144.997 141.364 145.077 140.842 145.077 140.24C145.077 139.643 144.997 139.128 144.838 138.695C144.678 138.258 144.432 137.921 144.1 137.684C143.767 137.447 143.336 137.328 142.808 137.328C142.028 137.328 141.456 137.586 141.092 138.101C140.732 138.616 140.552 139.329 140.552 140.24ZM156.698 141.949C156.698 142.428 156.577 142.831 156.336 143.159C156.099 143.483 155.757 143.727 155.311 143.891C154.868 144.055 154.34 144.137 153.725 144.137C153.201 144.137 152.747 144.096 152.364 144.014C151.981 143.932 151.646 143.815 151.359 143.665V142.619C151.665 142.77 152.029 142.906 152.453 143.029C152.877 143.152 153.31 143.214 153.752 143.214C154.399 143.214 154.868 143.109 155.16 142.899C155.452 142.69 155.598 142.405 155.598 142.045C155.598 141.84 155.538 141.66 155.42 141.505C155.306 141.345 155.112 141.193 154.839 141.047C154.565 140.896 154.187 140.732 153.704 140.555C153.226 140.372 152.811 140.192 152.46 140.015C152.114 139.832 151.845 139.611 151.653 139.352C151.466 139.092 151.373 138.755 151.373 138.34C151.373 137.706 151.628 137.221 152.139 136.884C152.654 136.542 153.328 136.371 154.162 136.371C154.613 136.371 155.035 136.417 155.427 136.508C155.823 136.594 156.192 136.713 156.534 136.863L156.151 137.772C155.841 137.64 155.511 137.529 155.16 137.438C154.809 137.346 154.451 137.301 154.087 137.301C153.563 137.301 153.16 137.387 152.877 137.561C152.599 137.734 152.46 137.971 152.46 138.271C152.46 138.504 152.524 138.695 152.651 138.846C152.784 138.996 152.993 139.137 153.28 139.27C153.567 139.402 153.946 139.557 154.415 139.734C154.884 139.908 155.29 140.088 155.632 140.274C155.974 140.457 156.236 140.68 156.418 140.944C156.605 141.204 156.698 141.539 156.698 141.949ZM159.658 133.363V136.542C159.658 136.724 159.654 136.909 159.645 137.096C159.635 137.278 159.619 137.447 159.597 137.602H159.672C159.827 137.337 160.023 137.116 160.26 136.938C160.501 136.756 160.775 136.619 161.08 136.528C161.385 136.433 161.709 136.385 162.051 136.385C162.652 136.385 163.154 136.48 163.555 136.672C163.96 136.863 164.263 137.16 164.464 137.561C164.669 137.962 164.771 138.481 164.771 139.119V144H163.65V139.194C163.65 138.57 163.507 138.103 163.22 137.793C162.937 137.483 162.502 137.328 161.914 137.328C161.358 137.328 160.914 137.435 160.581 137.649C160.253 137.859 160.016 138.169 159.87 138.579C159.729 138.989 159.658 139.491 159.658 140.083V144H158.523V133.363H159.658ZM173.569 140.24C173.569 140.855 173.49 141.405 173.33 141.888C173.171 142.371 172.94 142.779 172.64 143.111C172.339 143.444 171.974 143.699 171.546 143.877C171.122 144.05 170.641 144.137 170.104 144.137C169.602 144.137 169.142 144.05 168.723 143.877C168.308 143.699 167.948 143.444 167.643 143.111C167.342 142.779 167.107 142.371 166.938 141.888C166.774 141.405 166.692 140.855 166.692 140.24C166.692 139.42 166.831 138.723 167.109 138.148C167.387 137.57 167.784 137.13 168.299 136.829C168.818 136.524 169.436 136.371 170.151 136.371C170.835 136.371 171.432 136.524 171.942 136.829C172.457 137.134 172.856 137.576 173.139 138.155C173.426 138.729 173.569 139.424 173.569 140.24ZM167.868 140.24C167.868 140.842 167.948 141.364 168.107 141.806C168.267 142.248 168.513 142.59 168.846 142.831C169.178 143.073 169.607 143.193 170.131 143.193C170.65 143.193 171.076 143.073 171.409 142.831C171.746 142.59 171.995 142.248 172.154 141.806C172.314 141.364 172.394 140.842 172.394 140.24C172.394 139.643 172.314 139.128 172.154 138.695C171.995 138.258 171.749 137.921 171.416 137.684C171.083 137.447 170.653 137.328 170.124 137.328C169.345 137.328 168.773 137.586 168.408 138.101C168.048 138.616 167.868 139.329 167.868 140.24ZM181.629 143.986L180.296 139.625C180.237 139.438 180.18 139.256 180.125 139.078C180.075 138.896 180.027 138.723 179.981 138.559C179.94 138.39 179.902 138.235 179.865 138.094C179.833 137.948 179.806 137.823 179.783 137.718H179.735C179.717 137.823 179.692 137.948 179.66 138.094C179.628 138.235 179.59 138.39 179.544 138.559C179.503 138.727 179.457 138.905 179.407 139.092C179.357 139.274 179.3 139.459 179.236 139.646L177.842 143.986H176.563L174.499 136.494H175.675L176.755 140.63C176.828 140.903 176.896 141.174 176.96 141.443C177.028 141.708 177.085 141.958 177.131 142.195C177.181 142.428 177.217 142.631 177.24 142.804H177.295C177.322 142.69 177.352 142.553 177.384 142.394C177.42 142.234 177.459 142.065 177.5 141.888C177.546 141.705 177.593 141.525 177.644 141.348C177.694 141.165 177.744 140.994 177.794 140.835L179.175 136.494H180.398L181.731 140.828C181.8 141.047 181.866 141.275 181.93 141.512C181.998 141.749 182.06 141.979 182.114 142.202C182.169 142.421 182.208 142.617 182.23 142.79H182.285C182.303 142.635 182.338 142.444 182.388 142.216C182.438 141.988 182.495 141.737 182.559 141.464C182.627 141.19 182.698 140.912 182.771 140.63L183.864 136.494H185.02L182.948 143.986H181.629Z" fill="#0E0E0E" fill-opacity="0.7"/>
</g>
<defs>
<filter id="filter0_ddd_3779_3513" x="0" y="-16" width="230" height="238" filterUnits="userSpaceOnUse" color-interpolation-filters="sRGB">
<feFlood flood-opacity="0" result="BackgroundImageFix"/>
<feColorMatrix in="SourceAlpha" type="matrix" values="0 0 0 0 0 0 0 0 0 0 0 0 0 0 0 0 0 0 127 0" result="hardAlpha"/>
<feMorphology radius="4" operator="erode" in="SourceAlpha" result="effect1_dropShadow_3779_3513"/>
<feOffset dy="3"/>
<feGaussianBlur stdDeviation="3"/>
<feColorMatrix type="matrix" values="0 0 0 0 0 0 0 0 0 0 0 0 0 0 0 0 0 0 0.12 0"/>
<feBlend mode="normal" in2="BackgroundImageFix" result="effect1_dropShadow_3779_3513"/>
<feColorMatrix in="SourceAlpha" type="matrix" values="0 0 0 0 0 0 0 0 0 0 0 0 0 0 0 0 0 0 127 0" result="hardAlpha"/>
<feOffset dy="6"/>
<feGaussianBlur stdDeviation="8"/>
<feColorMatrix type="matrix" values="0 0 0 0 0 0 0 0 0 0 0 0 0 0 0 0 0 0 0.08 0"/>
<feBlend mode="normal" in2="effect1_dropShadow_3779_3513" result="effect2_dropShadow_3779_3513"/>
<feColorMatrix in="SourceAlpha" type="matrix" values="0 0 0 0 0 0 0 0 0 0 0 0 0 0 0 0 0 0 127 0" result="hardAlpha"/>
<feMorphology radius="8" operator="dilate" in="SourceAlpha" result="effect3_dropShadow_3779_3513"/>
<feOffset dy="9"/>
<feGaussianBlur stdDeviation="14"/>
<feColorMatrix type="matrix" values="0 0 0 0 0 0 0 0 0 0 0 0 0 0 0 0 0 0 0.05 0"/>
<feBlend mode="normal" in2="effect2_dropShadow_3779_3513" result="effect3_dropShadow_3779_3513"/>
<feBlend mode="normal" in="SourceGraphic" in2="effect3_dropShadow_3779_3513" result="shape"/>
</filter>
<clipPath id="clip0_3779_3513">
<rect width="140" height="89" fill="white" transform="translate(45 27)"/>
</clipPath>
</defs>
</svg>
