<svg width="185" height="142" viewBox="0 0 185 142" fill="none" xmlns="http://www.w3.org/2000/svg">
<path d="M164.37 131.39C170.25 119.66 175.54 107.26 177.87 93.82C180.19 80.38 179.29 65.7 173.42 53.96C167.55 42.22 156.17 34.16 144.97 36.07C135.41 37.7 126.34 46.06 116.98 43.17C107.31 40.19 102.67 26.86 94.53 19.87C80.15 7.54001 57.58 16.54 48.64 33.57C42.63 45.01 41.26 60.21 32.79 69.06C26.38 75.75 16.89 77.58 11.61 85.59C7.13002 92.4 6.94002 102.42 9.94002 110.33C12.94 118.25 19.28 126.92 25.58 131.08L164.37 131.39Z" fill="#F3F3F3"/>
<path d="M136.25 119.82C136.25 119.81 136.25 119.79 136.25 119.78H30.62C30.62 119.79 30.62 119.81 30.62 119.82C30.62 121.25 30.86 122.58 31.28 123.69H135.59C136.01 122.58 136.25 121.25 136.25 119.82Z" fill="white" stroke="#6F6F6E" stroke-miterlimit="10"/>
<path d="M31.28 123.69C32.01 125.64 33.28 126.93 34.73 126.93H132.14C133.58 126.93 134.86 125.64 135.59 123.69H31.28Z" fill="white" stroke="#6F6F6E" stroke-miterlimit="10"/>
<path d="M126.32 58.95V113.92L129.62 116.04C130.43 114.88 130.92 113.39 130.92 111.75V61.17C130.92 57.51 128.47 54.55 125.44 54.55H41.4201C39.7801 54.55 38.3201 55.42 37.3101 56.79L40.6801 58.96H126.32V58.95Z" fill="white" stroke="#6F6F6E" stroke-miterlimit="10"/>
<path d="M126.32 113.92V113.97H40.5399V58.95H40.6799L37.3099 56.78C36.4599 57.95 35.9399 59.48 35.9399 61.17V111.75C35.9399 115.41 38.3899 118.37 41.4199 118.37H125.45C127.12 118.37 128.62 117.46 129.63 116.03L126.32 113.92Z" fill="white" stroke="#6F6F6E" stroke-miterlimit="10"/>
<path d="M126.31 58.98H40.5601V113.93H126.31V58.98Z" fill="#E5E7EA"/>
<path d="M81.9 56.73C81.9 57.65 82.58 58.4 83.43 58.4C84.27 58.4 84.96 57.65 84.96 56.73C84.96 55.81 84.28 55.06 83.43 55.06C82.59 55.06 81.9 55.81 81.9 56.73Z" fill="#BDBABA"/>
<path d="M107.27 100.72L109.82 101.91C109.82 101.91 112.16 99.83 115.02 100.28C117.37 100.65 118.69 101.91 119.5 104.14L126.24 108.24L126.3 113.94L93.14 112.75L84.85 105.47L89.88 99.83L107.27 100.72Z" fill="#A1AED1"/>
<path d="M84.82 96.97C85.03 97.57 85.25 98.17 85.49 98.78C85.56 98.78 85.62 98.77 85.69 98.77C85.76 98.77 85.84 98.77 85.91 98.77C86 98.77 86.1 98.78 86.19 98.78C86.22 98.78 86.25 98.79 86.28 98.79C86.34 98.8 86.4 98.8 86.47 98.81C86.51 98.81 86.54 98.82 86.58 98.83C86.63 98.84 86.69 98.85 86.74 98.86C86.78 98.87 86.82 98.88 86.86 98.88C86.91 98.89 86.96 98.9 87.01 98.91C87.05 98.92 87.09 98.93 87.13 98.94C87.18 98.95 87.23 98.97 87.28 98.98C87.32 98.99 87.36 99.01 87.4 99.02C87.45 99.04 87.49 99.05 87.54 99.07C87.58 99.08 87.62 99.1 87.66 99.12C87.71 99.14 87.75 99.16 87.79 99.17C87.83 99.19 87.87 99.2 87.91 99.22C87.95 99.24 88 99.26 88.04 99.28C88.08 99.3 88.12 99.32 88.16 99.34C88.2 99.36 88.24 99.38 88.29 99.41C88.33 99.43 88.37 99.45 88.4 99.48C88.44 99.5 88.48 99.53 88.52 99.55C88.56 99.57 88.59 99.6 88.63 99.62C88.67 99.65 88.71 99.67 88.75 99.7C88.79 99.72 88.82 99.75 88.85 99.78C88.89 99.81 88.93 99.84 88.96 99.87C88.99 99.9 89.03 99.92 89.06 99.95C89.1 99.98 89.13 100.01 89.17 100.05C89.2 100.08 89.23 100.1 89.26 100.13C89.3 100.16 89.33 100.2 89.37 100.23C89.4 100.26 89.43 100.29 89.46 100.32C89.5 100.36 89.53 100.4 89.57 100.43C89.6 100.46 89.62 100.49 89.65 100.52C89.69 100.56 89.72 100.6 89.76 100.65C89.78 100.67 89.8 100.69 89.82 100.72C89.82 100.73 89.83 100.73 89.83 100.74C89.86 100.77 89.88 100.81 89.91 100.84C89.94 100.88 89.97 100.91 89.99 100.95C90.02 100.98 90.04 101.02 90.06 101.05C90.09 101.09 90.11 101.13 90.14 101.16C90.16 101.19 90.19 101.23 90.21 101.27C90.24 101.31 90.26 101.35 90.29 101.39C90.31 101.43 90.33 101.46 90.35 101.5C90.37 101.54 90.4 101.58 90.42 101.62C90.44 101.66 90.46 101.69 90.48 101.73C90.5 101.77 90.52 101.82 90.55 101.86C90.56 101.88 90.57 101.9 90.58 101.92H109.8C109.8 101.92 109.82 101 109.28 100.17C109.26 100.14 109.23 100.12 109.22 100.1C109.2 100.08 109.19 100.07 109.17 100.05C109.12 100 109.08 99.95 109.03 99.91C109.02 99.9 109.02 99.9 109.01 99.89C108.95 99.84 108.9 99.78 108.84 99.73C108.83 99.72 108.82 99.71 108.8 99.7C108.75 99.66 108.71 99.62 108.66 99.59C108.64 99.57 108.62 99.56 108.6 99.54C108.56 99.51 108.52 99.48 108.48 99.46C108.46 99.44 108.43 99.43 108.4 99.41C108.36 99.39 108.33 99.36 108.29 99.34C108.26 99.32 108.23 99.31 108.21 99.29C108.17 99.27 108.14 99.25 108.1 99.23C108.07 99.21 108.04 99.2 108.01 99.19C107.97 99.17 107.94 99.15 107.9 99.14C107.87 99.13 107.84 99.11 107.81 99.1C107.77 99.08 107.74 99.07 107.7 99.06C107.67 99.05 107.64 99.04 107.61 99.02C107.57 99.01 107.54 98.99 107.5 98.98C107.47 98.97 107.44 98.96 107.4 98.95C107.36 98.94 107.32 98.93 107.28 98.92C107.24 98.91 107.2 98.9 107.16 98.89C107.13 98.88 107.1 98.88 107.06 98.87C107.03 98.86 107 98.86 106.97 98.85C106.93 98.84 106.88 98.84 106.84 98.83C106.81 98.83 106.78 98.82 106.76 98.82C106.7 98.81 106.65 98.81 106.59 98.81C106.57 98.81 106.56 98.81 106.54 98.81C106.47 98.81 106.4 98.81 106.32 98.81C106.24 98.81 106.16 98.82 106.08 98.82C105.67 98.86 105.26 98.97 104.87 99.15C104.74 99.21 104.62 99.28 104.5 99.35C104.63 98.81 104.6 98.23 104.38 97.67C104.35 97.59 104.32 97.52 104.28 97.45C104.27 97.43 104.26 97.41 104.25 97.39C104.22 97.34 104.2 97.29 104.17 97.25C104.16 97.23 104.14 97.2 104.13 97.18C104.1 97.14 104.07 97.09 104.04 97.05C104.02 97.03 104.01 97.01 103.99 96.99C103.95 96.94 103.91 96.89 103.87 96.85C103.86 96.84 103.85 96.83 103.85 96.82C103.8 96.77 103.75 96.72 103.69 96.67C103.67 96.66 103.66 96.64 103.64 96.63C103.6 96.6 103.56 96.57 103.52 96.54C103.5 96.52 103.48 96.51 103.46 96.5C103.42 96.47 103.38 96.45 103.34 96.42C103.32 96.41 103.3 96.39 103.28 96.38C103.23 96.35 103.17 96.32 103.12 96.3C103.11 96.3 103.1 96.29 103.09 96.29C103.03 96.26 102.96 96.24 102.89 96.22C102.87 96.21 102.85 96.21 102.83 96.2C102.78 96.19 102.74 96.17 102.69 96.16C102.67 96.15 102.64 96.15 102.62 96.15C102.57 96.14 102.52 96.13 102.48 96.13C102.46 96.13 102.44 96.12 102.41 96.12C102.34 96.11 102.28 96.11 102.21 96.11H102.2C102.13 96.11 102.06 96.12 101.99 96.12C101.97 96.12 101.95 96.13 101.93 96.13C101.88 96.14 101.83 96.15 101.78 96.16C101.76 96.17 101.73 96.17 101.71 96.18C101.66 96.19 101.61 96.21 101.56 96.22C101.54 96.23 101.52 96.23 101.49 96.24C101.42 96.26 101.35 96.29 101.28 96.32C101.27 96.32 101.27 96.33 101.26 96.33C101.21 96.35 101.16 96.38 101.11 96.41C101.09 96.42 101.08 96.43 101.06 96.44C101.02 96.46 100.99 96.49 100.95 96.51C100.93 96.52 100.92 96.53 100.9 96.54C100.86 96.57 100.82 96.6 100.79 96.63C100.78 96.64 100.77 96.65 100.76 96.66C100.71 96.7 100.67 96.74 100.63 96.78C100.62 96.79 100.61 96.8 100.6 96.82C100.57 96.85 100.54 96.89 100.51 96.92C100.5 96.94 100.48 96.95 100.47 96.97C100.44 97 100.41 97.04 100.39 97.07C100.38 97.08 100.37 97.1 100.36 97.11C100.32 97.16 100.29 97.21 100.26 97.26C100.26 97.27 100.25 97.27 100.25 97.28C100.22 97.33 100.19 97.38 100.17 97.42C100.16 97.44 100.15 97.45 100.15 97.47C100.13 97.51 100.11 97.55 100.09 97.6C100.08 97.62 100.08 97.63 100.07 97.65C100.05 97.71 100.02 97.76 100.01 97.82C99.99 97.88 99.97 97.94 99.96 98C99.96 98.02 99.95 98.03 99.95 98.05C99.94 98.1 99.93 98.14 99.92 98.19C99.91 98.22 99.91 98.25 99.9 98.28C98.81 97.34 97.3 97.06 95.94 97.7C95.67 97.83 95.43 97.98 95.2 98.16L94.74 98.09C94.68 97.86 94.6 97.63 94.51 97.4C94.48 97.32 94.44 97.23 94.4 97.15C94.39 97.12 94.38 97.1 94.36 97.07C94.33 97.01 94.31 96.96 94.28 96.9C94.27 96.87 94.25 96.84 94.24 96.82C94.21 96.77 94.18 96.72 94.16 96.66C94.15 96.63 94.13 96.61 94.12 96.58C94.09 96.52 94.06 96.47 94.02 96.42C94.01 96.4 94 96.38 93.98 96.36C93.93 96.29 93.89 96.21 93.84 96.14C93.84 96.13 93.83 96.13 93.83 96.12C93.78 96.06 93.74 95.99 93.69 95.93C93.67 95.91 93.66 95.89 93.64 95.87C93.61 95.83 93.58 95.79 93.54 95.75C93.46 95.65 93.38 95.56 93.29 95.47C93.27 95.45 93.26 95.44 93.24 95.42C93.16 95.34 93.08 95.26 93 95.19C92.98 95.17 92.97 95.16 92.95 95.14C92.86 95.06 92.77 94.98 92.67 94.91C92.65 94.89 92.63 94.88 92.6 94.86C92.51 94.79 92.41 94.72 92.31 94.66C92.3 94.66 92.3 94.65 92.29 94.65C92.19 94.58 92.08 94.52 91.98 94.47C91.96 94.46 91.93 94.44 91.91 94.43C91.8 94.37 91.7 94.32 91.59 94.27C91.57 94.26 91.56 94.26 91.54 94.25C91.44 94.21 91.34 94.17 91.24 94.13C91.22 94.12 91.2 94.11 91.17 94.11C91.06 94.07 90.95 94.04 90.83 94.01C90.81 94 90.78 94 90.76 93.99C90.65 93.96 90.54 93.94 90.43 93.92C90.42 93.92 90.41 93.91 90.39 93.91C90.27 93.89 90.15 93.88 90.04 93.86C90.01 93.86 89.99 93.86 89.96 93.85C89.84 93.84 89.72 93.83 89.6 93.83C89.59 93.83 89.58 93.83 89.57 93.83C89.46 93.83 89.34 93.83 89.22 93.84C89.2 93.84 89.17 93.84 89.15 93.85C89.03 93.86 88.91 93.87 88.79 93.89C88.77 93.89 88.75 93.9 88.73 93.9C88.62 93.92 88.51 93.94 88.4 93.97C88.38 93.97 88.36 93.98 88.35 93.98C88.23 94.01 88.11 94.05 87.99 94.09C87.96 94.1 87.94 94.11 87.91 94.12C87.79 94.16 87.67 94.21 87.55 94.26C86.47 92.17 85.51 80.55 84.98 76.75L82.04 77.24C82.12 77.91 82.75 91.11 84.82 96.97Z" fill="#A1AED1"/>
<path d="M90.56 101.85C90.54 101.81 90.52 101.76 90.49 101.72C90.47 101.68 90.45 101.65 90.43 101.61C90.41 101.57 90.38 101.53 90.36 101.49C90.34 101.45 90.32 101.42 90.3 101.38C90.28 101.34 90.25 101.3 90.22 101.26C90.2 101.22 90.17 101.19 90.15 101.15C90.12 101.11 90.1 101.07 90.07 101.04C90.05 101.01 90.02 100.97 90 100.94C89.97 100.9 89.94 100.87 89.92 100.83C89.89 100.8 89.87 100.76 89.84 100.73C89.82 100.7 89.79 100.67 89.77 100.65C89.73 100.61 89.7 100.56 89.66 100.52C89.63 100.49 89.61 100.46 89.58 100.43C89.54 100.39 89.51 100.35 89.47 100.32C89.44 100.29 89.41 100.26 89.38 100.23C89.34 100.2 89.31 100.16 89.27 100.13C89.24 100.1 89.21 100.07 89.18 100.05C89.14 100.02 89.11 99.99 89.07 99.95C89.04 99.92 89 99.9 88.97 99.87C88.93 99.84 88.89 99.81 88.86 99.78C88.83 99.75 88.79 99.73 88.76 99.7C88.72 99.67 88.68 99.65 88.64 99.62C88.6 99.6 88.57 99.57 88.53 99.55C88.49 99.52 88.45 99.5 88.41 99.48C88.37 99.46 88.34 99.44 88.3 99.41C88.26 99.39 88.22 99.36 88.17 99.34C88.13 99.32 88.09 99.3 88.05 99.28C88.01 99.26 87.96 99.24 87.92 99.22C87.88 99.2 87.84 99.18 87.8 99.17C87.76 99.15 87.71 99.13 87.67 99.12C87.63 99.1 87.59 99.09 87.55 99.07C87.5 99.05 87.46 99.04 87.41 99.02C87.37 99.01 87.33 98.99 87.29 98.98C87.24 98.97 87.19 98.95 87.14 98.94C87.1 98.93 87.06 98.92 87.02 98.91C86.97 98.9 86.92 98.89 86.87 98.88C86.83 98.87 86.79 98.86 86.75 98.86C86.7 98.85 86.64 98.84 86.59 98.83C86.55 98.82 86.52 98.82 86.48 98.81C86.42 98.8 86.36 98.8 86.29 98.79C86.26 98.79 86.23 98.78 86.2 98.78C86.11 98.77 86.01 98.77 85.92 98.77C85.85 98.77 85.77 98.77 85.7 98.77C85.63 98.77 85.57 98.78 85.5 98.78C85.26 98.17 85.04 97.57 84.83 96.97C82.77 91.11 82.73 77.45 82.65 76.77L85.3 76.67L80.13 76.86C80.13 76.86 78.84 90 77.36 94.47C77.07 95.36 76.74 96.25 76.38 97.1C74.92 95.69 72.68 95.67 71.2 97.13C70.85 97.48 70.57 97.88 70.36 98.31C68.98 97.6 67.29 97.81 66.08 99C66.02 99.06 65.97 99.12 65.91 99.18C65.81 98.87 65.65 98.58 65.44 98.32C64.56 97.25 63.05 97.17 62.08 98.13C61.57 98.63 61.31 99.33 61.3 100.02C59.95 99.38 58.32 99.62 57.15 100.77C56.81 101.11 56.54 101.49 56.33 101.91H90.6C90.58 101.89 90.57 101.87 90.56 101.85Z" fill="#BAC4E5"/>
<path d="M72.83 98.66C72.78 98.64 72.73 98.62 72.68 98.6C72.63 98.59 72.58 98.57 72.53 98.56L72.46 98.55L72.39 98.54C72.34 98.53 72.29 98.54 72.24 98.54C72.19 98.54 72.14 98.55 72.09 98.56C72.04 98.57 71.99 98.58 71.95 98.6C71.9 98.62 71.86 98.63 71.81 98.65C71.77 98.67 71.72 98.69 71.68 98.72C71.64 98.74 71.6 98.77 71.56 98.8C71.52 98.83 71.49 98.86 71.45 98.9C71.42 98.93 71.38 98.97 71.35 99.01C71.34 99.03 71.32 99.05 71.31 99.07L71.27 99.13C71.24 99.17 71.22 99.22 71.2 99.26L71.19 99.28C71.19 99.28 71.19 99.29 71.19 99.27V99.28L71.17 99.32C71.16 99.34 71.15 99.37 71.14 99.39C71.13 99.43 71.11 99.48 71.1 99.52C71.09 99.57 71.08 99.62 71.07 99.66L71.02 99.95L70.79 99.77C70.74 99.73 70.7 99.69 70.65 99.66L70.58 99.61L70.54 99.59L70.53 99.58C70.52 99.58 70.54 99.59 70.54 99.58H70.53L70.51 99.57L70.42 99.52L70.38 99.5L70.34 99.49C70.29 99.47 70.24 99.45 70.18 99.43L70.1 99.41C70.07 99.4 70.04 99.4 70.02 99.39C69.99 99.39 69.96 99.38 69.94 99.38L69.86 99.37C69.8 99.36 69.75 99.37 69.69 99.37C69.63 99.37 69.58 99.38 69.52 99.39C69.46 99.4 69.41 99.41 69.35 99.43C69.3 99.45 69.24 99.46 69.19 99.49C69.14 99.51 69.08 99.53 69.03 99.56L68.95 99.6C68.93 99.62 68.9 99.63 68.88 99.65C68.83 99.68 68.78 99.72 68.74 99.76C68.69 99.79 68.65 99.84 68.61 99.88C68.57 99.92 68.53 99.97 68.49 100.02C68.45 100.07 68.42 100.12 68.38 100.17L68.28 100.3L68.15 100.23C68.11 100.21 68.08 100.18 68.04 100.17C68 100.15 67.96 100.13 67.92 100.12C67.88 100.11 67.84 100.09 67.8 100.08C67.76 100.07 67.72 100.06 67.68 100.05C67.64 100.05 67.6 100.04 67.55 100.04C67.51 100.04 67.46 100.04 67.42 100.04C67.38 100.05 67.33 100.05 67.29 100.06C67.25 100.07 67.21 100.08 67.16 100.09C67.12 100.11 67.08 100.12 67.04 100.14C67 100.16 66.96 100.18 66.92 100.2C66.9 100.21 66.88 100.23 66.86 100.24L66.82 100.25L66.81 100.24L66.82 100.25V100.26L66.81 100.27L66.7 100.37C66.66 100.4 66.64 100.44 66.6 100.47C66.58 100.49 66.57 100.5 66.55 100.52L66.51 100.58C66.48 100.62 66.45 100.66 66.43 100.71L66.36 100.85C66.37 100.8 66.38 100.75 66.4 100.7C66.41 100.65 66.43 100.6 66.45 100.55L66.48 100.48C66.49 100.46 66.51 100.43 66.52 100.41C66.55 100.37 66.57 100.31 66.61 100.27L66.71 100.15L66.72 100.14L66.73 100.13L66.72 100.12V100.11L66.76 100.09C66.78 100.07 66.8 100.06 66.82 100.04C66.86 100.01 66.9 99.97 66.95 99.95C66.99 99.92 67.04 99.9 67.09 99.87C67.14 99.85 67.19 99.83 67.24 99.81C67.29 99.79 67.34 99.78 67.39 99.76C67.44 99.75 67.49 99.74 67.55 99.74C67.6 99.73 67.66 99.74 67.71 99.73C67.76 99.73 67.82 99.74 67.87 99.75C67.92 99.76 67.97 99.77 68.03 99.78C68.08 99.8 68.13 99.81 68.18 99.83C68.23 99.85 68.28 99.88 68.33 99.9L68.11 99.96C68.15 99.9 68.19 99.83 68.23 99.77C68.27 99.71 68.32 99.65 68.37 99.6C68.42 99.55 68.47 99.49 68.52 99.44C68.57 99.39 68.63 99.34 68.69 99.3C68.72 99.28 68.75 99.26 68.78 99.24L68.87 99.19C68.93 99.15 69 99.12 69.06 99.09C69.13 99.06 69.19 99.04 69.26 99.02C69.33 99 69.4 98.99 69.47 98.97C69.54 98.96 69.61 98.95 69.68 98.95C69.75 98.95 69.82 98.95 69.89 98.96L70 98.97C70.04 98.97 70.07 98.98 70.1 98.99C70.13 99 70.17 99 70.2 99.01L70.3 99.04C70.37 99.06 70.44 99.09 70.5 99.12L70.55 99.14L70.59 99.16L70.67 99.21L70.69 99.22L70.71 99.23L70.72 99.24L70.76 99.27L70.85 99.33C70.91 99.37 70.96 99.43 71.01 99.47L70.73 99.58C70.74 99.52 70.76 99.46 70.78 99.4C70.8 99.34 70.82 99.28 70.85 99.22C70.86 99.19 70.88 99.17 70.89 99.14L70.91 99.1L70.92 99.07L70.93 99.05C70.96 99 70.99 98.94 71.03 98.9L71.09 98.83C71.11 98.81 71.13 98.79 71.15 98.76C71.19 98.72 71.24 98.68 71.28 98.64C71.32 98.6 71.38 98.57 71.42 98.54C71.47 98.51 71.52 98.48 71.57 98.46C71.62 98.44 71.67 98.42 71.73 98.4C71.76 98.39 71.78 98.38 71.81 98.38L71.89 98.37C71.94 98.36 72 98.36 72.05 98.36C72.1 98.36 72.16 98.36 72.21 98.37C72.26 98.38 72.32 98.39 72.37 98.4L72.45 98.42L72.52 98.45C72.57 98.47 72.62 98.5 72.66 98.52C72.75 98.59 72.79 98.63 72.83 98.66Z" fill="#6F6F6E"/>
<path d="M85.4 101.23L85.34 101.1C85.32 101.06 85.29 101.02 85.27 100.98C85.24 100.94 85.22 100.9 85.19 100.86C85.16 100.82 85.13 100.79 85.1 100.75C85.07 100.72 85.04 100.69 85 100.65C84.97 100.62 84.93 100.59 84.9 100.56L84.79 100.49L84.68 100.43L84.56 100.38L84.44 100.34C84.4 100.33 84.36 100.32 84.32 100.32C84.28 100.32 84.24 100.31 84.2 100.31C84.16 100.31 84.12 100.31 84.08 100.31C84.04 100.32 84 100.32 83.96 100.32L83.84 100.35L83.72 100.39L83.61 100.43L83.56 100.3L83.5 100.17C83.48 100.13 83.46 100.09 83.43 100.04C83.38 99.96 83.33 99.88 83.28 99.81L83.26 99.78V99.77V99.76C83.26 99.76 83.25 99.76 83.26 99.77L83.25 99.76L83.24 99.75L83.19 99.69C83.16 99.65 83.12 99.61 83.09 99.59L83 99.52L82.89 99.44C82.86 99.41 82.82 99.39 82.78 99.37C82.74 99.35 82.71 99.32 82.67 99.3C82.63 99.28 82.59 99.26 82.55 99.24L82.43 99.19C82.39 99.17 82.35 99.17 82.3 99.16C82.26 99.15 82.22 99.14 82.17 99.13C82.08 99.11 82 99.11 81.91 99.11C81.82 99.11 81.74 99.12 81.65 99.13L81.59 99.14L81.53 99.16C81.49 99.17 81.45 99.18 81.4 99.2L81.28 99.24C81.24 99.26 81.2 99.28 81.16 99.3C81.12 99.32 81.08 99.34 81.05 99.37C81.01 99.4 80.97 99.41 80.94 99.44L80.83 99.52L80.82 99.53L80.81 99.54L80.78 99.57L80.73 99.62C80.7 99.65 80.67 99.68 80.64 99.72C80.61 99.76 80.58 99.79 80.55 99.83C80.52 99.87 80.49 99.9 80.47 99.94C80.44 99.98 80.42 100.02 80.4 100.06C80.35 100.14 80.31 100.23 80.28 100.32L80.18 100.57L80.04 100.36L80.03 100.35L80.04 100.34L80.05 100.33C80.06 100.34 80.05 100.33 80.05 100.34H80.04L80.01 100.32L79.96 100.27C79.95 100.25 79.93 100.24 79.92 100.22L79.88 100.18C79.85 100.15 79.82 100.12 79.79 100.09C79.76 100.06 79.72 100.04 79.69 100.01C79.66 99.98 79.62 99.97 79.58 99.94C79.54 99.92 79.5 99.9 79.46 99.89C79.42 99.87 79.38 99.86 79.34 99.85C79.3 99.84 79.26 99.83 79.22 99.82C79.18 99.81 79.14 99.81 79.09 99.8C79.05 99.8 79 99.8 78.96 99.8L78.83 99.81L78.7 99.83L78.57 99.87L78.45 99.92L78.33 99.98L78.21 100.06L78.31 99.96L78.42 99.87C78.46 99.84 78.5 99.82 78.54 99.79C78.58 99.77 78.63 99.75 78.67 99.73C78.71 99.71 78.76 99.7 78.81 99.68L78.95 99.65C79 99.64 79.04 99.64 79.09 99.63C79.14 99.63 79.19 99.63 79.23 99.63C79.28 99.63 79.33 99.64 79.37 99.65C79.42 99.66 79.47 99.67 79.51 99.68C79.56 99.7 79.6 99.71 79.65 99.73C79.69 99.75 79.74 99.77 79.79 99.79C79.83 99.82 79.88 99.84 79.92 99.87C79.96 99.9 80 99.93 80.04 99.97L80.1 100.02C80.12 100.04 80.14 100.06 80.15 100.07L80.2 100.12L80.22 100.15L80.23 100.16L80.24 100.17L80.25 100.19L80.01 100.23C80.04 100.12 80.08 100.02 80.13 99.92C80.15 99.87 80.18 99.82 80.21 99.77C80.24 99.72 80.27 99.68 80.3 99.63C80.33 99.58 80.36 99.54 80.4 99.5C80.43 99.46 80.47 99.41 80.51 99.37L80.56 99.31L80.58 99.28L80.59 99.27H80.6H80.61L80.73 99.17C80.77 99.13 80.82 99.11 80.86 99.08C80.9 99.05 80.95 99.02 81 99C81.05 98.98 81.09 98.95 81.14 98.93L81.29 98.87C81.34 98.85 81.39 98.84 81.44 98.83L81.52 98.81L81.6 98.8C81.7 98.78 81.81 98.78 81.91 98.77C82.01 98.78 82.12 98.78 82.22 98.8C82.27 98.81 82.32 98.82 82.37 98.83C82.42 98.84 82.47 98.86 82.52 98.87L82.67 98.93C82.72 98.95 82.76 98.98 82.81 99C82.86 99.02 82.9 99.05 82.95 99.08C82.99 99.11 83.04 99.14 83.08 99.17L83.2 99.27L83.32 99.39C83.36 99.43 83.39 99.47 83.42 99.51L83.47 99.57L83.48 99.58L83.49 99.59L83.5 99.6L83.52 99.63C83.58 99.72 83.64 99.82 83.68 99.92C83.7 99.97 83.72 100.02 83.75 100.07L83.8 100.23L83.63 100.14L83.77 100.1C83.82 100.09 83.87 100.09 83.92 100.08C83.97 100.08 84.02 100.08 84.07 100.08C84.12 100.08 84.17 100.09 84.22 100.09C84.27 100.1 84.32 100.11 84.36 100.12C84.41 100.13 84.45 100.15 84.5 100.16C84.55 100.18 84.59 100.2 84.63 100.22C84.67 100.24 84.71 100.27 84.76 100.29L84.88 100.38C84.92 100.41 84.95 100.44 84.99 100.48C85.02 100.52 85.06 100.55 85.09 100.59C85.12 100.63 85.15 100.67 85.18 100.71C85.21 100.75 85.23 100.79 85.26 100.84C85.28 100.88 85.3 100.93 85.32 100.97C85.34 101.02 85.35 101.06 85.37 101.11L85.4 101.23Z" fill="#6F6F6E"/>
<path d="M58.62 101.61L56.32 101.91C56.32 101.91 48.55 96.79 40.54 105.06V113.97H126.32C126.32 113.97 124.26 107.7 117.33 107.7C110.4 107.7 109.86 110.08 109.86 110.08C109.86 110.08 107.28 102.36 100.35 105.77C100.35 105.77 97.63 99.24 90.57 101.85C90.56 101.85 61.34 99.83 58.62 101.61Z" fill="#BAC4E5"/>
<path d="M58.15 105.25C58.08 105.23 58.02 105.2 57.95 105.18C57.88 105.17 57.82 105.15 57.75 105.14L57.65 105.13H57.55C57.48 105.12 57.42 105.14 57.35 105.14C57.28 105.14 57.22 105.16 57.15 105.17C57.09 105.19 57.02 105.2 56.96 105.23C56.9 105.25 56.84 105.28 56.78 105.31C56.72 105.34 56.66 105.37 56.61 105.41C56.55 105.44 56.5 105.49 56.45 105.53C56.4 105.58 56.35 105.62 56.31 105.67C56.27 105.72 56.22 105.77 56.18 105.82C56.16 105.85 56.14 105.87 56.12 105.9L56.07 105.99C56.03 106.04 56.01 106.11 55.98 106.17L55.97 106.19C55.97 106.19 55.97 106.2 55.97 106.18V106.19V106.2L55.95 106.25C55.94 106.28 55.92 106.32 55.91 106.35C55.89 106.41 55.88 106.47 55.86 106.54C55.84 106.6 55.84 106.67 55.83 106.74L55.77 107.13L55.45 106.9C55.38 106.85 55.32 106.8 55.25 106.76L55.15 106.7L55.1 106.67L55.09 106.66C55.08 106.65 55.1 106.67 55.1 106.67H55.09L55.06 106.66L54.94 106.6L54.88 106.57L54.83 106.55C54.76 106.53 54.69 106.5 54.62 106.48L54.51 106.45C54.47 106.44 54.43 106.44 54.4 106.43C54.36 106.43 54.32 106.42 54.29 106.41H54.17C54.09 106.4 54.02 106.41 53.94 106.42C53.86 106.42 53.79 106.44 53.71 106.45C53.63 106.47 53.56 106.49 53.48 106.51C53.41 106.54 53.33 106.56 53.26 106.6C53.19 106.63 53.12 106.66 53.05 106.71L52.95 106.77C52.92 106.79 52.89 106.82 52.85 106.84C52.78 106.88 52.72 106.94 52.66 106.99C52.6 107.04 52.55 107.1 52.49 107.16C52.43 107.22 52.39 107.29 52.33 107.35C52.28 107.42 52.24 107.49 52.19 107.56L52.06 107.75L51.89 107.66C51.84 107.63 51.79 107.6 51.74 107.58C51.69 107.55 51.63 107.53 51.58 107.51C51.52 107.49 51.47 107.47 51.41 107.47C51.35 107.46 51.3 107.45 51.24 107.44C51.18 107.44 51.12 107.43 51.07 107.44C51.01 107.44 50.95 107.45 50.9 107.45C50.84 107.46 50.78 107.47 50.73 107.48C50.67 107.49 50.62 107.51 50.56 107.53C50.51 107.55 50.45 107.58 50.4 107.61C50.34 107.64 50.29 107.67 50.24 107.7C50.21 107.72 50.19 107.74 50.16 107.75L50.11 107.77L50.1 107.76C50.1 107.76 50.09 107.77 50.1 107.75L50.11 107.76V107.77L50.09 107.79L49.94 107.93C49.89 107.98 49.86 108.03 49.82 108.08C49.8 108.11 49.78 108.13 49.76 108.16L49.71 108.25C49.68 108.31 49.63 108.36 49.61 108.43L49.52 108.62C49.53 108.55 49.55 108.48 49.56 108.41C49.57 108.34 49.6 108.27 49.63 108.21L49.67 108.11C49.68 108.08 49.7 108.05 49.72 108.01C49.76 107.95 49.79 107.88 49.83 107.82L49.96 107.66L49.98 107.64L49.99 107.63L49.98 107.62V107.6L50.03 107.57C50.06 107.54 50.09 107.52 50.11 107.5C50.16 107.45 50.22 107.41 50.28 107.37C50.34 107.33 50.4 107.29 50.46 107.26C50.52 107.23 50.59 107.19 50.65 107.17C50.72 107.14 50.78 107.12 50.85 107.1C50.92 107.08 50.99 107.06 51.06 107.06C51.13 107.05 51.2 107.05 51.27 107.04C51.34 107.04 51.41 107.04 51.49 107.05C51.56 107.06 51.63 107.07 51.7 107.09C51.77 107.11 51.84 107.13 51.91 107.15C51.98 107.17 52.05 107.21 52.11 107.24L51.81 107.34C51.86 107.25 51.91 107.16 51.96 107.08C52.02 107 52.07 106.91 52.14 106.83C52.21 106.75 52.27 106.67 52.34 106.61C52.41 106.54 52.48 106.47 52.56 106.41C52.6 106.38 52.64 106.35 52.68 106.32L52.8 106.24C52.88 106.18 52.97 106.14 53.06 106.1C53.15 106.05 53.24 106.03 53.33 105.99C53.42 105.96 53.52 105.94 53.61 105.91C53.71 105.9 53.8 105.87 53.9 105.87C54 105.87 54.09 105.86 54.19 105.86L54.33 105.87C54.38 105.87 54.43 105.88 54.47 105.89C54.52 105.9 54.57 105.9 54.61 105.92L54.75 105.96C54.84 105.98 54.94 106.02 55.03 106.06L55.1 106.09L55.16 106.12L55.28 106.18L55.31 106.2L55.34 106.21L55.36 106.22L55.42 106.26L55.54 106.34C55.62 106.4 55.69 106.47 55.77 106.53L55.39 106.7C55.41 106.61 55.42 106.53 55.44 106.45C55.46 106.37 55.49 106.28 55.52 106.2C55.54 106.15 55.55 106.13 55.57 106.09L55.59 106.04L55.61 106.01L55.63 105.98C55.67 105.91 55.71 105.83 55.76 105.77L55.83 105.67C55.86 105.64 55.88 105.61 55.91 105.58C55.96 105.52 56.02 105.46 56.08 105.41C56.14 105.36 56.21 105.31 56.27 105.27C56.34 105.23 56.4 105.19 56.47 105.16C56.54 105.13 56.61 105.09 56.68 105.07C56.72 105.06 56.75 105.04 56.79 105.04L56.9 105.02C56.97 105 57.05 105 57.12 104.99C57.19 104.99 57.27 104.99 57.34 105C57.41 105.01 57.49 105.02 57.56 105.04L57.67 105.07L57.77 105.11C57.84 105.13 57.9 105.17 57.97 105.2C58.03 105.17 58.09 105.21 58.15 105.25Z" fill="#6F6F6E"/>
<path d="M80.6801 110.81L80.5801 110.59C80.5401 110.52 80.5001 110.45 80.4601 110.38C80.4201 110.31 80.3701 110.25 80.3301 110.19C80.2801 110.13 80.2301 110.07 80.1801 110.01C80.1301 109.95 80.0701 109.9 80.0201 109.85C79.9601 109.8 79.9001 109.75 79.8501 109.71L79.6701 109.59L79.4801 109.49L79.2801 109.41L79.0801 109.35C79.0101 109.34 78.9401 109.32 78.8701 109.31C78.8001 109.3 78.7301 109.3 78.6601 109.29C78.5901 109.29 78.5201 109.29 78.4501 109.29C78.3801 109.3 78.3101 109.3 78.2501 109.31L78.0501 109.35L77.8501 109.42L77.6601 109.48L77.5701 109.27L77.4701 109.05C77.4301 108.98 77.4001 108.91 77.3601 108.84C77.2801 108.7 77.2001 108.57 77.1001 108.45L77.0701 108.4V108.39V108.38C77.0701 108.38 77.0501 108.37 77.0701 108.4L77.0601 108.39L77.0401 108.37L76.9601 108.28C76.9001 108.22 76.8501 108.15 76.7901 108.1L76.6301 107.95L76.4501 107.81C76.3901 107.76 76.3301 107.73 76.2601 107.69C76.2001 107.65 76.1301 107.61 76.0701 107.58C76.0001 107.55 75.9401 107.51 75.8701 107.48L75.6601 107.4C75.5901 107.37 75.5201 107.36 75.4501 107.34C75.3801 107.32 75.3101 107.31 75.2401 107.3C75.1001 107.27 74.9501 107.27 74.8101 107.26C74.6601 107.27 74.5201 107.27 74.3801 107.3L74.2701 107.32L74.1601 107.35C74.0901 107.37 74.0201 107.38 73.9501 107.41L73.7401 107.49C73.6701 107.52 73.6101 107.55 73.5401 107.59C73.4701 107.62 73.4101 107.66 73.3501 107.7C73.2901 107.74 73.2201 107.77 73.1601 107.82L72.9801 107.96L72.9701 107.97C72.9601 107.98 72.9801 107.96 72.9801 107.96L72.9701 107.97L72.9501 107.99L72.9001 108.03L72.8101 108.11C72.7601 108.16 72.7101 108.21 72.6601 108.27C72.6101 108.33 72.5601 108.39 72.5101 108.45C72.4601 108.51 72.4201 108.57 72.3801 108.64C72.3401 108.7 72.3001 108.77 72.2601 108.84C72.1801 108.98 72.1201 109.12 72.0501 109.27L71.8801 109.69L71.6501 109.34L71.6301 109.32L71.6401 109.3L71.6501 109.28C71.6701 109.3 71.6501 109.29 71.6601 109.29H71.6401L71.6001 109.25L71.5201 109.16C71.4901 109.12 71.4701 109.1 71.4501 109.08L71.3801 109.01C71.3401 108.96 71.2701 108.91 71.2201 108.87C71.1701 108.82 71.1101 108.78 71.0501 108.74C70.9901 108.7 70.9301 108.67 70.8701 108.63C70.8101 108.59 70.7401 108.57 70.6801 108.54C70.6101 108.51 70.5401 108.49 70.4801 108.47C70.4101 108.45 70.3401 108.44 70.2701 108.42C70.2001 108.41 70.1301 108.4 70.0601 108.39C69.9901 108.39 69.9201 108.39 69.8401 108.38L69.6201 108.4L69.4001 108.44L69.1801 108.5L68.9701 108.59L68.7601 108.7L68.5601 108.83L68.7301 108.66L68.9201 108.51C68.9901 108.47 69.0601 108.43 69.1201 108.38C69.1901 108.34 69.2601 108.31 69.3401 108.27C69.4101 108.24 69.4901 108.21 69.5701 108.19L69.8101 108.14C69.8901 108.13 69.9701 108.12 70.0501 108.11C70.1301 108.11 70.2101 108.11 70.2901 108.11C70.3701 108.12 70.4501 108.12 70.5301 108.14C70.6101 108.16 70.6901 108.17 70.7701 108.2C70.8501 108.23 70.9301 108.25 71.0101 108.28C71.0901 108.32 71.1701 108.34 71.2401 108.39C71.3101 108.43 71.3901 108.47 71.4601 108.52C71.5301 108.57 71.6001 108.62 71.6701 108.68L71.7701 108.77C71.8001 108.8 71.8401 108.83 71.8601 108.86L71.9401 108.95L71.9801 108.99L71.9901 109L72.0001 109.01V109.02L72.0201 109.05L71.6201 109.12C71.6801 108.94 71.7401 108.77 71.8201 108.6C71.8601 108.52 71.9001 108.43 71.9501 108.35C71.9901 108.27 72.0501 108.19 72.1001 108.12C72.1501 108.04 72.2101 107.97 72.2601 107.9C72.3201 107.83 72.3801 107.76 72.4501 107.69L72.5301 107.59L72.5701 107.54L72.5901 107.52L72.6001 107.51H72.6201L72.6401 107.5L72.8501 107.33C72.9201 107.27 73.0001 107.23 73.0701 107.17C73.1401 107.12 73.2201 107.07 73.3001 107.03C73.3801 106.99 73.4601 106.95 73.5401 106.91L73.7901 106.81C73.8701 106.78 73.9601 106.76 74.0401 106.74L74.1701 106.71L74.3001 106.69C74.4701 106.66 74.6501 106.65 74.8201 106.64C75.0001 106.65 75.1701 106.65 75.3401 106.69C75.4301 106.7 75.5101 106.72 75.6001 106.74C75.6801 106.76 75.7701 106.78 75.8501 106.82L76.1001 106.92C76.1801 106.96 76.2601 107 76.3401 107.04C76.4201 107.08 76.5001 107.13 76.5701 107.18C76.6401 107.23 76.7201 107.28 76.7901 107.34L77.0001 107.51L77.2001 107.71C77.2701 107.78 77.3201 107.84 77.3701 107.91L77.4501 108.01L77.4701 108.03L77.4801 108.04L77.4901 108.05V108.06L77.5301 108.12C77.6301 108.27 77.7301 108.43 77.8101 108.6C77.8501 108.69 77.8901 108.77 77.9201 108.86L78.0101 109.12L77.7301 108.97L77.9701 108.91C78.0501 108.9 78.1301 108.89 78.2201 108.88C78.3001 108.87 78.3801 108.87 78.4701 108.87C78.5501 108.87 78.6301 108.88 78.7101 108.89C78.7901 108.9 78.8701 108.92 78.9501 108.94C79.0301 108.96 79.1101 108.99 79.1801 109.01C79.2601 109.04 79.3301 109.07 79.4001 109.11C79.4701 109.15 79.5401 109.19 79.6101 109.23L79.8101 109.38C79.8701 109.44 79.9301 109.49 79.9901 109.54C80.0501 109.6 80.1001 109.66 80.1601 109.72C80.2101 109.79 80.2601 109.85 80.3101 109.92C80.3501 109.99 80.4001 110.06 80.4401 110.13C80.4801 110.21 80.5101 110.28 80.5501 110.36C80.5801 110.44 80.6101 110.52 80.6301 110.6L80.6801 110.81Z" fill="#6F6F6E"/>
<path d="M103.29 110.86L103.19 110.64C103.15 110.57 103.11 110.5 103.07 110.43C103.03 110.36 102.98 110.3 102.94 110.24C102.89 110.18 102.84 110.12 102.79 110.06C102.74 110 102.68 109.95 102.63 109.9C102.57 109.85 102.52 109.8 102.46 109.76L102.28 109.64L102.09 109.54L101.89 109.46L101.69 109.4C101.62 109.39 101.55 109.37 101.48 109.36C101.41 109.35 101.34 109.35 101.27 109.34C101.2 109.34 101.13 109.34 101.06 109.34C100.99 109.35 100.92 109.35 100.86 109.36L100.66 109.4L100.46 109.47L100.27 109.53L100.18 109.32L100.08 109.1C100.04 109.03 100.01 108.96 99.97 108.89C99.89 108.75 99.81 108.62 99.71 108.5L99.68 108.45V108.44V108.43C99.68 108.43 99.67 108.42 99.68 108.44L99.67 108.43L99.65 108.41L99.57 108.32C99.51 108.26 99.46 108.19 99.4 108.14L99.24 107.99L99.06 107.85C99 107.8 98.94 107.77 98.87 107.73C98.81 107.69 98.74 107.65 98.68 107.62C98.61 107.59 98.55 107.55 98.48 107.52L98.27 107.44C98.2 107.41 98.13 107.4 98.06 107.38C97.99 107.36 97.92 107.35 97.85 107.34C97.71 107.31 97.56 107.31 97.42 107.3C97.27 107.31 97.13 107.31 96.99 107.34L96.88 107.36L96.77 107.39C96.7 107.41 96.63 107.42 96.56 107.45L96.35 107.53C96.28 107.56 96.22 107.59 96.15 107.63C96.08 107.66 96.02 107.7 95.96 107.74C95.9 107.78 95.83 107.81 95.77 107.86L95.59 108H95.58C95.57 108.01 95.59 107.99 95.59 107.99L95.58 108L95.56 108.02L95.51 108.06L95.42 108.14C95.37 108.19 95.32 108.24 95.27 108.3C95.22 108.36 95.17 108.42 95.12 108.48C95.07 108.54 95.03 108.6 94.99 108.67C94.95 108.73 94.91 108.8 94.87 108.87C94.79 109.01 94.73 109.15 94.66 109.3L94.49 109.72L94.26 109.37L94.24 109.35L94.25 109.33L94.26 109.31C94.28 109.33 94.26 109.32 94.27 109.32H94.25L94.21 109.28L94.13 109.19C94.1 109.15 94.08 109.13 94.06 109.11L93.99 109.04C93.95 108.99 93.88 108.94 93.83 108.9C93.78 108.85 93.72 108.81 93.66 108.77C93.6 108.73 93.54 108.7 93.48 108.66C93.42 108.62 93.35 108.6 93.29 108.57C93.22 108.54 93.15 108.52 93.09 108.5C93.02 108.48 92.95 108.47 92.88 108.45C92.81 108.44 92.74 108.43 92.67 108.42C92.6 108.42 92.53 108.42 92.45 108.41L92.23 108.43L92.01 108.47L91.79 108.53L91.58 108.62L91.37 108.73L91.17 108.86L91.34 108.69L91.53 108.54C91.6 108.5 91.67 108.46 91.73 108.41C91.8 108.37 91.87 108.34 91.95 108.3C92.02 108.27 92.1 108.24 92.18 108.22L92.42 108.17C92.5 108.16 92.58 108.15 92.66 108.14C92.74 108.14 92.82 108.14 92.9 108.14C92.98 108.15 93.06 108.15 93.14 108.17C93.22 108.19 93.3 108.2 93.38 108.23C93.46 108.26 93.54 108.28 93.62 108.31C93.7 108.35 93.78 108.37 93.85 108.42C93.92 108.46 94 108.5 94.07 108.55C94.14 108.6 94.21 108.65 94.28 108.71L94.38 108.8C94.41 108.83 94.45 108.86 94.47 108.89L94.55 108.98L94.59 109.02L94.6 109.03L94.61 109.04V109.05L94.63 109.08L94.23 109.15C94.29 108.97 94.35 108.8 94.43 108.63C94.47 108.55 94.51 108.46 94.56 108.38C94.6 108.3 94.66 108.22 94.71 108.15C94.76 108.07 94.82 108 94.87 107.93C94.93 107.86 94.99 107.79 95.06 107.72L95.14 107.62L95.18 107.57L95.2 107.55L95.21 107.54H95.23L95.25 107.53L95.46 107.36C95.53 107.3 95.61 107.26 95.68 107.2C95.75 107.15 95.83 107.1 95.91 107.06C95.99 107.02 96.07 106.98 96.15 106.94L96.4 106.84C96.48 106.81 96.57 106.79 96.65 106.77L96.78 106.74L96.91 106.72C97.08 106.69 97.26 106.68 97.43 106.67C97.61 106.68 97.78 106.68 97.95 106.72C98.04 106.73 98.12 106.75 98.21 106.77C98.29 106.79 98.38 106.81 98.46 106.85L98.71 106.95C98.79 106.99 98.87 107.03 98.95 107.07C99.03 107.11 99.11 107.16 99.18 107.21C99.25 107.26 99.33 107.31 99.4 107.37L99.61 107.54L99.81 107.74C99.88 107.81 99.93 107.87 99.98 107.94L100.06 108.04L100.08 108.06L100.09 108.07L100.1 108.08V108.09L100.14 108.15C100.24 108.3 100.34 108.46 100.42 108.63C100.46 108.72 100.5 108.8 100.53 108.89L100.62 109.15L100.34 109L100.58 108.94C100.66 108.93 100.74 108.92 100.83 108.91C100.91 108.91 100.99 108.9 101.08 108.9C101.16 108.9 101.24 108.91 101.32 108.92C101.4 108.93 101.48 108.95 101.56 108.97C101.64 108.99 101.72 109.02 101.79 109.04C101.87 109.07 101.94 109.1 102.01 109.14C102.08 109.18 102.15 109.22 102.22 109.26L102.42 109.41C102.48 109.47 102.54 109.52 102.6 109.57C102.66 109.63 102.71 109.69 102.77 109.75C102.82 109.82 102.87 109.88 102.92 109.95C102.96 110.02 103.01 110.09 103.05 110.16C103.09 110.24 103.12 110.31 103.16 110.39C103.19 110.47 103.22 110.55 103.24 110.63L103.29 110.86Z" fill="#6F6F6E"/>
<path d="M88.24 71.46C88.24 75.57 82.91 81.12 82.91 81.12C82.91 81.12 77.58 75.58 77.58 71.46C77.58 67.34 79.97 66.21 82.91 66.21C85.86 66.22 88.24 67.35 88.24 71.46Z" fill="#44B8B6"/>
<path d="M86.59 70.65C86.59 73.49 82.91 77.31 82.91 77.31C82.91 77.31 79.23 73.49 79.23 70.65C79.23 67.81 80.88 67.03 82.91 67.03C84.94 67.03 86.59 67.81 86.59 70.65Z" fill="#95C88B"/>
<path d="M85.04 69.29C85.04 70.94 82.91 73.15 82.91 73.15C82.91 73.15 80.78 70.93 80.78 69.29C80.78 67.65 81.74 67.19 82.91 67.19C84.09 67.19 85.04 67.64 85.04 69.29Z" fill="#44B8B6"/>
<path d="M78.56 56.74C78.56 56.74 71.21 60.95 71.21 70.08C71.21 70.08 71.67 71.08 72.4 69.88C73.13 68.68 73.78 65.37 78.46 65.37L78.56 56.74Z" fill="#5957D9"/>
<path d="M87.22 56.74C87.22 56.74 94.57 60.95 94.57 70.08C94.57 70.08 94.11 71.08 93.38 69.88C92.65 68.68 92 65.37 87.32 65.37L87.22 56.74Z" fill="#5957D9"/>
<path d="M91.05 47.86C91.05 44.12 90.47 40.6 89.61 37.52H82.89V40.64C85.37 40.64 87.39 42.84 87.39 45.56C87.39 48.28 85.38 50.48 82.89 50.48V66.28H87.29C89.55 62.4 91.05 55.6 91.05 47.86Z" fill="white"/>
<path d="M78.39 45.57C78.39 42.85 80.4 40.65 82.89 40.65V37.53H76.17C75.31 40.61 74.73 44.13 74.73 47.87C74.73 55.61 76.23 62.41 78.49 66.29H82.89V50.49C80.41 50.49 78.39 48.29 78.39 45.57Z" fill="white"/>
<path d="M78.56 66.3C78.45 66.3 78.35 66.4 78.35 66.52V67.57C78.35 67.69 78.44 67.79 78.56 67.79H82.89V66.29H78.56V66.3Z" fill="#BAC4E5"/>
<path d="M87.22 66.3H82.89V67.8H87.22C87.33 67.8 87.43 67.7 87.43 67.58V66.53C87.43 66.4 87.33 66.3 87.22 66.3Z" fill="#BAC4E5"/>
<path d="M85.97 45.57C85.97 47.43 84.59 48.94 82.89 48.94V50.49C85.37 50.49 87.39 48.29 87.39 45.57C87.39 42.85 85.38 40.65 82.89 40.65V42.2C84.59 42.2 85.97 43.71 85.97 45.57Z" fill="#CCAE2F"/>
<path d="M78.39 45.57C78.39 48.29 80.4 50.49 82.89 50.49V48.94C81.19 48.94 79.81 47.43 79.81 45.57C79.81 43.71 81.19 42.2 82.89 42.2V40.65C80.41 40.65 78.39 42.85 78.39 45.57Z" fill="#E5C536"/>
<path d="M85.97 45.57C85.97 43.71 84.59 42.2 82.89 42.2V48.94C84.59 48.94 85.97 47.43 85.97 45.57Z" fill="#84CBCE"/>
<path d="M79.8101 45.57C79.8101 47.43 81.1901 48.94 82.8901 48.94V42.2C81.1901 42.2 79.8101 43.71 79.8101 45.57Z" fill="#A4D7DF"/>
<path d="M82.89 26V37.53H89.61C87.69 30.66 84.36 26 82.89 26Z" fill="#5957D9"/>
<path d="M82.89 26C81.42 26 78.09 30.67 76.17 37.53H82.89V26Z" fill="#5957D9"/>
<path d="M83.17 59.24C83.15 59.23 83.12 59.23 83.1 59.23V59.23H82.89V70.49H83.12H83.13C83.26 70.49 83.36 70.38 83.36 70.23V69.89L83.37 69.4L84.02 60.34C84.02 59.42 83.32 59.27 83.17 59.24Z" fill="#5957D9"/>
<path d="M82.66 59.22C82.63 59.22 82.61 59.22 82.58 59.23C82.54 59.24 82.49 59.26 82.45 59.29C82.19 59.38 81.76 59.62 81.76 60.35L82.41 69.42L82.42 69.88V70.22C82.42 70.33 82.48 70.42 82.57 70.46C82.6 70.48 82.64 70.49 82.68 70.49H82.69H82.9V59.22H82.66Z" fill="#5957D9"/>
<path d="M162.46 127.7H29.41V128.81H162.46V127.7Z" fill="#575756"/>
</svg>
