<svg width="343" height="200" viewBox="0 0 343 200" fill="none" xmlns="http://www.w3.org/2000/svg">
<g clip-path="url(#clip0_0_7842)">
<g opacity="0.25">
<path d="M183.402 92.8189L183.306 92.4738L183.402 92.8189C195.571 89.4322 207.165 86.3135 216.041 84.0166C220.479 82.8681 224.236 81.9254 227.046 81.2576C229.872 80.5858 231.703 80.2011 232.318 80.1539C235.533 79.9072 237.459 80.3162 238.656 81.6404C239.877 82.9921 240.432 85.3882 240.599 89.4006C240.668 91.0453 240.393 95.3075 239.848 101.536C239.305 107.751 238.496 115.897 237.504 125.287C235.519 144.066 232.803 167.817 230.014 191.048C227.224 214.279 224.362 236.988 222.087 253.682C220.949 262.03 219.959 268.871 219.198 273.522C218.817 275.848 218.494 277.62 218.241 278.756C218.167 279.086 218.1 279.357 218.041 279.569C216.022 276.05 206.375 259.969 195.607 242.181C173.325 205.379 168.892 195.57 168.956 183.662L168.598 183.66L168.956 183.662C168.981 178.842 169.718 173.403 170.856 168.648C171.998 163.878 173.531 159.855 175.116 157.827C175.341 157.539 175.523 157.284 175.656 157.066C175.785 156.854 175.887 156.649 175.925 156.465C175.944 156.371 175.953 156.255 175.918 156.137C175.88 156.008 175.795 155.901 175.675 155.834C175.567 155.774 175.451 155.759 175.355 155.758C175.256 155.757 175.152 155.773 175.049 155.796C174.648 155.888 174.059 156.151 173.303 156.555C172.536 156.966 171.565 157.538 170.389 158.271L170.578 158.575L170.389 158.271C160.516 164.429 146.188 167.672 135.015 166.285C132.348 165.953 127.155 164.534 120.917 162.501C114.69 160.471 107.452 157.839 100.707 155.094C87.1992 149.599 68.9507 142.246 60.1546 138.753C55.7609 137.008 51.7602 135.316 48.8547 133.996C47.4011 133.336 46.2264 132.77 45.415 132.34C45.0493 132.146 44.7639 131.982 44.562 131.852C44.69 131.799 44.8483 131.736 45.0375 131.666C45.6612 131.433 46.5888 131.118 47.791 130.731C50.1939 129.958 53.6768 128.9 57.9812 127.634C66.5892 125.102 78.4744 121.739 91.5584 118.157C117.73 110.993 159.059 99.5908 183.402 92.8189Z" stroke="#62C3B4" stroke-width="0.71639"/>
<path fill-rule="evenodd" clip-rule="evenodd" d="M258.223 50.029C255.175 50.2716 229.314 57.0352 200.757 65.0629C172.199 73.0875 123.712 86.6003 93.0081 95.0919C62.3044 103.584 37.2218 111.031 37.2695 111.644C37.3156 112.255 45.7812 116.086 56.08 120.155C66.3788 124.225 87.7464 132.793 103.563 139.196C119.378 145.6 137.51 151.47 143.853 152.242C157.045 153.846 173.949 149.97 185.621 142.663C191.132 139.214 192.692 138.853 190.613 141.513C186.764 146.435 183.309 160.719 183.218 172.102C183.102 186.218 188.35 197.823 214.33 240.897C227.779 263.198 239.716 283.188 240.858 285.319C242.923 289.173 268.962 76.9562 268.352 61.2517C267.986 51.8507 265.8 49.426 258.223 50.029Z" fill="url(#paint0_linear_0_7842)"/>
</g>
<path d="M191.708 83.8099C187.557 86.3571 182.725 87.684 177.803 87.6283C176.246 87.5364 174.686 87.5197 173.128 87.5782C171.559 87.6404 170.056 88.2023 168.855 89.1757C168.265 89.6717 167.844 90.3275 167.648 91.0573C167.451 91.7871 167.488 92.557 167.753 93.2663C168.632 95.2006 171.475 95.9671 171.907 98.0375C172.22 99.5276 171.066 100.946 169.763 101.813C168.46 102.68 166.942 103.246 165.848 104.349C165.187 105.009 164.721 105.827 164.496 106.717C164.271 107.608 164.295 108.54 164.567 109.418C164.839 110.297 165.348 111.09 166.042 111.717C166.737 112.345 167.592 112.783 168.52 112.989C169.629 113.239 170.991 113.246 171.594 114.178C171.914 114.885 171.972 115.677 171.758 116.42C171.466 118.017 171.686 119.661 172.391 121.134C172.754 121.863 173.319 122.481 174.025 122.92C174.73 123.359 175.548 123.601 176.388 123.62C177.043 123.62 177.683 123.405 178.338 123.419C178.665 123.4 178.99 123.476 179.271 123.639C179.551 123.801 179.774 124.042 179.909 124.329C179.978 124.758 179.958 125.197 179.85 125.619C179.611 127.732 181.8 129.387 183.921 129.989C188.157 131.206 192.854 130.032 196.457 127.524C200.06 125.017 202.524 121.306 204.199 117.366C205.873 113.426 206.774 109.242 207.667 105.072" fill="#263238"/>
<path d="M239.02 189.181C238.546 188.052 237.833 187.03 236.928 186.179C231.323 180.448 222.83 177.69 214.664 178.141C206.498 178.593 198.674 182.01 192.332 186.96C188.945 189.603 184.375 194.697 183.184 198.737C188.156 199.891 195.585 198.286 200.305 196.316C205.024 194.346 209.639 191.968 214.723 191.466C220.619 190.886 226.41 192.899 232.216 194.038C233.377 194.31 234.576 194.402 235.767 194.31C236.362 194.259 236.939 194.087 237.46 193.805C237.981 193.524 238.434 193.139 238.789 192.677C239.102 192.149 239.285 191.56 239.325 190.954C239.365 190.349 239.261 189.742 239.02 189.181Z" fill="#659B88"/>
<g opacity="0.3">
<path d="M239.02 189.181C238.546 188.052 237.833 187.03 236.928 186.179C231.323 180.448 222.83 177.69 214.664 178.141C206.498 178.593 198.674 182.01 192.332 186.96C188.945 189.603 184.375 194.697 183.184 198.737C188.156 199.891 195.585 198.286 200.305 196.316C205.024 194.346 209.639 191.968 214.723 191.466C220.619 190.886 226.41 192.899 232.216 194.038C233.377 194.31 234.576 194.402 235.767 194.31C236.362 194.259 236.939 194.087 237.46 193.805C237.981 193.524 238.434 193.139 238.789 192.677C239.102 192.149 239.285 191.56 239.325 190.954C239.365 190.349 239.261 189.742 239.02 189.181Z" fill="black"/>
</g>
<path d="M228.749 182.329C228.168 182.329 209.075 181.921 198.765 188.476L190.576 192.903L190.792 200.855C190.792 200.855 189.043 203.664 189.43 205.347C189.817 207.031 189.378 214.144 189.378 214.144C189.378 214.144 186.319 214.331 185.931 219.388C185.931 219.388 181.688 221.072 179.827 224.066C177.966 227.061 158.895 260.753 157.734 266.183C156.573 271.613 155.784 281.156 160.064 284.337C164.344 287.517 173.924 286.393 173.924 286.393C173.924 286.393 175.287 290.326 183.654 290.512C192.021 290.698 204.846 281.342 204.846 281.342L243.361 256.075L234.22 237.298L220.769 245.214L235.158 229.117C235.158 229.117 241.776 218.264 239.825 206.844C238.389 198.369 228.749 182.329 228.749 182.329Z" fill="#263238"/>
<path d="M232.045 188.145H231.591H230.296C229.164 188.145 227.541 188.145 225.531 188.145C223.522 188.145 221.125 188.238 218.49 188.511C215.629 188.774 212.808 189.341 210.078 190.201C204.264 192.093 199.589 195.094 196.262 197.236L192.347 199.844L191.282 200.56C191.164 200.651 191.034 200.726 190.895 200.782C190.895 200.782 190.999 200.675 191.23 200.496L192.257 199.736C193.158 199.077 194.49 198.139 196.106 197.021C199.403 194.822 204.078 191.763 209.951 189.857C212.709 188.987 215.561 188.422 218.452 188.174C220.805 187.964 223.168 187.871 225.531 187.894C227.541 187.894 229.172 187.966 230.296 188.023L231.591 188.095C231.744 188.092 231.896 188.109 232.045 188.145Z" fill="#455A64"/>
<path d="M192.749 193.995C192.444 194.29 192.235 194.663 192.146 195.07C192.108 195.279 192.125 195.494 192.195 195.696C192.265 195.897 192.387 196.079 192.548 196.223C192.745 196.398 192.988 196.518 193.25 196.571C193.512 196.624 193.784 196.608 194.037 196.524C194.28 196.417 194.488 196.248 194.64 196.037C194.792 195.825 194.882 195.578 194.9 195.321C194.915 195.108 194.875 194.895 194.782 194.701C194.69 194.507 194.549 194.339 194.372 194.21C194.016 193.972 193.593 193.842 193.158 193.838C193.158 193.838 193.27 193.745 193.523 193.73C193.88 193.71 194.234 193.806 194.528 194.003C194.762 194.143 194.954 194.339 195.085 194.573C195.216 194.807 195.28 195.07 195.273 195.335C195.279 195.67 195.179 195.999 194.986 196.278C194.793 196.556 194.517 196.772 194.193 196.896C193.87 197.019 193.515 197.045 193.176 196.97C192.837 196.895 192.529 196.722 192.295 196.474C192.104 196.289 191.964 196.061 191.889 195.811C191.813 195.56 191.805 195.296 191.863 195.041C191.941 194.705 192.129 194.401 192.399 194.175C192.608 194.003 192.742 193.974 192.749 193.995Z" fill="#455A64"/>
<path d="M199.604 194.958C199.567 194.994 199.299 194.801 198.919 194.428C198.365 193.963 197.978 193.342 197.811 192.653C197.644 191.963 197.706 191.241 197.989 190.588C198.16 190.087 198.316 189.8 198.361 189.814C198.406 189.829 198.361 190.151 198.257 190.653C198.1 191.279 198.077 191.93 198.19 192.565C198.383 193.183 198.702 193.758 199.128 194.256C199.44 194.664 199.641 194.922 199.604 194.958Z" fill="#455A64"/>
<path d="M201.218 194.007C201.218 194.043 200.92 193.886 200.57 193.535C200.121 193.06 199.788 192.495 199.595 191.88C199.296 191.026 199.283 190.104 199.558 189.243C199.692 189.243 199.558 190.433 199.968 191.772C200.289 192.563 200.709 193.314 201.218 194.007Z" fill="#455A64"/>
<path d="M221.834 188.149C221.774 188.149 221.752 187.812 221.7 187.282C221.643 186.607 221.485 185.943 221.231 185.312C220.952 184.692 220.558 184.127 220.07 183.643C219.697 183.256 219.459 183.012 219.496 182.969C219.534 182.926 219.831 183.098 220.241 183.449C220.817 183.914 221.271 184.503 221.566 185.168C221.842 185.838 221.974 186.555 221.953 187.275C221.986 187.571 221.945 187.87 221.834 188.149Z" fill="#455A64"/>
<path d="M224.334 188.144C224.274 188.144 224.267 187.808 224.274 187.285C224.317 186.621 224.259 185.955 224.103 185.308C223.854 184.686 223.529 184.094 223.135 183.545C222.845 183.101 222.689 182.829 222.733 182.779C222.778 182.729 223.016 182.986 223.359 183.395C223.838 183.929 224.215 184.54 224.475 185.2C224.654 185.889 224.677 186.608 224.542 187.306C224.468 187.793 224.386 188.144 224.334 188.144Z" fill="#455A64"/>
<path d="M191.409 269.515C191.488 269.223 191.606 268.941 191.758 268.677C192.019 268.14 192.421 267.359 192.949 266.363C194.006 264.365 195.562 261.492 197.513 257.953C201.413 250.875 206.862 241.125 212.929 230.386L217.395 222.542C218.753 220.113 219.805 217.537 220.529 214.869C221.759 210.334 222.012 205.604 221.273 200.971C220.786 197.85 219.862 194.806 218.527 191.923C218.058 190.899 217.648 190.125 217.365 189.602L217.038 189.007C217 188.941 216.967 188.871 216.941 188.8C216.992 188.86 217.037 188.924 217.075 188.993L217.432 189.566C217.738 190.075 218.177 190.841 218.668 191.859C222.146 199.084 222.906 207.249 220.819 214.955C220.096 217.655 219.039 220.263 217.671 222.721C216.241 225.25 214.76 227.872 213.249 230.558L197.743 258.075L193.069 266.428L191.811 268.706L191.498 269.308C191.474 269.379 191.445 269.449 191.409 269.515Z" fill="#455A64"/>
<path d="M194.171 220.687C194.998 219.799 195.636 218.762 196.047 217.636C196.461 216.41 196.657 215.127 196.627 213.839C196.569 212.253 196.364 210.676 196.017 209.125C195.655 207.561 195.38 205.981 195.191 204.389C195.072 203.077 195.099 201.756 195.272 200.449C195.38 199.567 195.6 198.701 195.928 197.87C196.015 197.646 196.12 197.428 196.24 197.218C196.33 197.075 196.374 197.003 196.389 197.003C196.404 197.003 196.263 197.333 196.069 197.92C195.801 198.755 195.624 199.615 195.54 200.485C195.414 201.772 195.414 203.067 195.54 204.354C195.682 205.786 196.054 207.384 196.389 209.053C196.743 210.627 196.94 212.229 196.977 213.839C196.992 215.162 196.76 216.477 196.292 217.721C195.98 218.565 195.511 219.346 194.908 220.028C194.741 220.209 194.562 220.379 194.372 220.537C194.253 220.644 194.178 220.695 194.171 220.687Z" fill="#455A64"/>
<path d="M236.451 196.955C236.451 197.006 235.543 196.755 234.091 196.425C232.2 196 230.28 195.706 228.345 195.544C226.408 195.398 224.464 195.375 222.524 195.473C221.717 195.545 220.907 195.574 220.097 195.558C220.302 195.481 220.518 195.432 220.737 195.415C221.154 195.351 221.757 195.272 222.501 195.207C224.454 195.034 226.419 195.022 228.375 195.172C230.33 195.33 232.267 195.663 234.158 196.167C234.903 196.368 235.461 196.547 235.848 196.698C236.062 196.752 236.266 196.839 236.451 196.955Z" fill="#455A64"/>
<path d="M221.275 200.183C220.955 200.311 220.624 200.41 220.285 200.477C219.645 200.642 218.707 200.842 217.531 201.043C214.472 201.557 211.359 201.706 208.263 201.487C206.469 201.315 204.675 201.129 203.276 200.283C202.616 199.887 202.079 199.328 201.72 198.664C201.423 198.067 201.334 197.394 201.467 196.744C201.618 195.845 201.896 194.97 202.293 194.144C202.419 193.831 202.597 193.541 202.822 193.284C202.822 193.284 202.673 193.607 202.434 194.194C202.099 195.027 201.864 195.895 201.735 196.78C201.64 197.37 201.739 197.974 202.018 198.507C202.37 199.105 202.884 199.6 203.506 199.939C204.809 200.713 206.558 200.899 208.337 201.064C211.408 201.279 214.493 201.166 217.538 200.727C218.707 200.57 219.652 200.405 220.3 200.283C220.621 200.222 220.947 200.188 221.275 200.183Z" fill="#455A64"/>
<path d="M219.374 71.7771C215.816 64.3553 207.01 65.8167 202.797 67.7868C198.562 69.7107 195.237 73.1001 193.484 77.279C192.249 80.1446 191.251 83.4113 188.765 85.1593C187.622 85.8126 186.441 86.4034 185.229 86.9288C184.607 87.2194 184.06 87.6416 183.631 88.1638C183.202 88.6861 182.901 89.2949 182.75 89.9448C182.378 92.4164 184.983 94.1286 187.127 95.1243C185.839 95.9697 185.504 97.8825 185.959 99.4227C186.508 100.895 187.376 102.237 188.504 103.363C192.302 107.398 196.646 110.923 201.42 113.844C205.484 116.279 208.119 116.566 212.481 114.818C214.253 114.102 215.905 112.941 217.796 112.733C219.992 112.497 222.091 113.579 224.265 114.016C226.438 114.453 229.178 113.851 229.885 111.652C230.06 110.775 230.16 109.886 230.183 108.994C230.294 108.113 230.748 107.153 231.575 106.952C232.245 106.787 232.915 107.181 233.57 107.389C235.14 107.89 237.508 119.109 239.011 118.429C239.011 118.429 241.2 99.4155 236.986 88.29C235.639 84.708 232.766 77.1716 230.473 74.2272C227.317 70.1867 219.754 71.0822 219.374 71.7986" fill="#263238"/>
<path d="M214.865 73.0078C209.26 71.1237 201.697 75.2644 199.977 80.7305C198.064 86.7983 195.987 94.2846 195.622 99.0558C194.878 108.648 201.972 111.492 201.972 111.492L199.091 126.486L223.381 118.928L231.859 83.596L232.648 80.6302L214.865 73.0078Z" fill="#FFBE9D"/>
<path d="M199.978 88.1265C200.06 88.3343 201.214 88.0334 202.479 88.5134C203.745 88.9933 204.43 89.9461 204.623 89.8602C204.817 89.7742 204.683 89.502 204.392 89.065C203.994 88.4903 203.418 88.0496 202.747 87.8041C202.09 87.5471 201.364 87.5018 200.678 87.6752C200.179 87.8543 199.978 88.0334 199.978 88.1265Z" fill="#263238"/>
<path d="M212.549 91.3071C212.698 91.4718 213.702 90.8557 215.057 90.9489C216.412 91.042 217.365 91.7584 217.529 91.6079C217.692 91.4575 217.469 91.2426 217.052 90.8916C216.491 90.4651 215.808 90.215 215.094 90.1752C214.386 90.1263 213.68 90.2943 213.077 90.6551C212.631 90.9489 212.482 91.2283 212.549 91.3071Z" fill="#263238"/>
<path d="M206.908 96.6741C206.261 96.3042 205.568 96.0153 204.846 95.8145C204.518 95.6999 204.213 95.5637 204.213 95.3273C204.264 94.9851 204.426 94.6669 204.675 94.4175L206.275 92.1609C208.508 88.9443 210.243 86.265 210.109 86.179C209.975 86.093 208.039 88.6291 205.784 91.8457C205.24 92.648 204.719 93.4002 204.221 94.131C203.908 94.4741 203.734 94.9139 203.729 95.3703C203.752 95.4956 203.803 95.6146 203.879 95.7187C203.955 95.8227 204.054 95.9093 204.168 95.9721C204.347 96.059 204.534 96.1286 204.727 96.1798C205.429 96.4333 206.162 96.5994 206.908 96.6741Z" fill="#263238"/>
<path d="M201.979 111.493C206.591 112.61 211.433 112.494 215.981 111.156C215.981 111.156 211.269 116.93 201.525 113.836L201.979 111.493Z" fill="#EB996E"/>
<path d="M206.186 100.966C206.059 100.807 206.245 101.16 206.186 100.966V100.966Z" fill="#EB996E"/>
<path d="M210.511 100.335C210.365 100.04 210.158 99.7769 209.901 99.5624C209.645 99.3479 209.346 99.1866 209.022 99.0884C208.584 98.9372 208.113 98.8953 207.654 98.9668C207.194 99.0382 206.761 99.2205 206.394 99.4967C206.244 99.7025 206.146 99.9388 206.106 100.187C206.066 100.436 206.086 100.69 206.164 100.929C206.633 101.51 206.677 101.997 207.332 102.362C207.804 102.512 208.304 102.561 208.798 102.507C209.291 102.452 209.766 102.296 210.191 102.047C210.42 101.828 210.574 101.546 210.631 101.239C210.688 100.933 210.646 100.617 210.511 100.335Z" fill="#EB996E"/>
<path d="M210.599 98.4401C210.383 98.3828 210.041 99.7654 208.574 100.467C207.108 101.17 205.597 100.675 205.545 100.869C205.545 100.947 205.82 101.213 206.468 101.377C207.306 101.58 208.192 101.491 208.969 101.127C209.717 100.774 210.294 100.155 210.577 99.4001C210.778 98.8341 210.696 98.4544 210.599 98.4401Z" fill="#263238"/>
<path d="M215.288 84.5563C215.214 84.9217 216.323 85.2727 217.447 86.0894C218.571 86.9061 219.338 87.7442 219.68 87.5222C219.829 87.4219 219.822 87.0422 219.598 86.5335C219.297 85.9017 218.827 85.358 218.236 84.9575C217.662 84.5489 216.982 84.3009 216.271 84.2411C215.683 84.2697 215.326 84.3844 215.288 84.5563Z" fill="#263238"/>
<path d="M200.797 83.2161C201.087 83.4884 202.107 83.08 203.358 82.9511C204.608 82.8221 205.702 82.9511 205.918 82.6072C206.008 82.4424 205.814 82.163 205.315 81.8908C204.646 81.6019 203.906 81.5001 203.179 81.5971C202.453 81.6703 201.763 81.9412 201.191 82.3779C200.774 82.7648 200.663 83.08 200.797 83.2161Z" fill="#263238"/>
<path d="M234.016 80.608C233.598 79.8908 232.943 79.3285 232.155 79.0105C227.323 76.4582 222.319 74.2182 217.178 72.3051L215.064 73.4584C214.787 75.4402 215.127 77.4567 216.041 79.2523C216.955 81.048 218.403 82.542 220.2 83.5452C221.644 84.3189 223.52 85.0497 223.706 86.6329C223.892 88.2161 222.113 89.391 221.108 90.7235C220.494 91.5553 220.15 92.5439 220.119 93.5641C220.089 94.5842 220.373 95.5902 220.937 96.4546C221.585 97.4218 222.567 98.1525 223.17 99.1483C223.544 99.824 223.756 100.572 223.791 101.336C223.825 102.101 223.682 102.864 223.371 103.568C222.768 105.001 221.763 106.885 220.394 107.68C222.243 108.08 224.175 107.915 225.922 107.208C227.669 106.5 229.143 105.285 230.138 103.733C231.269 101.885 231.359 99.6426 231.508 97.5006C231.849 92.6282 232.654 87.7963 233.912 83.0653C234.229 82.28 234.266 81.4156 234.016 80.608Z" fill="#263238"/>
<path d="M217.515 72.5302C216.213 74.1882 214.648 75.6387 212.877 76.8285C211.046 77.9246 208.709 78.4404 206.706 77.6667C207.205 77.1366 207.711 76.6064 208.195 76.0691C204.632 78.4175 200.598 80.0231 196.352 80.783C199.017 77.6667 201.763 74.4859 205.403 72.4728C209.044 70.4598 213.815 69.8437 217.366 71.9857" fill="#263238"/>
<path d="M234.51 90.6444L223.166 99.1265C224.469 100.495 223.962 103.976 222.682 105.359C221.402 106.742 219.705 107.924 219.206 109.715C218.655 111.671 219.734 113.698 219.764 115.725C219.809 118.591 217.806 121.055 216.258 123.505C214.71 125.955 213.593 129.236 215.32 131.579C217.263 134.215 221.662 133.836 224.32 131.866C226.977 129.896 228.496 126.851 230.468 124.243C232.441 121.636 235.523 119.637 238.865 119.945C239.902 109.983 238.407 99.9274 234.51 90.6444Z" fill="#263238"/>
<path d="M236.408 114.299C236.341 114.177 237.011 113.712 238.157 112.823C239.775 111.621 241.218 110.213 242.445 108.639C243.255 107.567 243.899 106.387 244.358 105.136C244.887 103.733 245.115 102.242 245.028 100.752C244.909 99.1282 244.375 97.558 243.472 96.1814C242.464 94.6736 241.186 93.3493 239.698 92.2699C236.646 89.9846 232.999 88.688 229.813 87.3197C226.847 86.2172 224.048 84.7379 221.49 82.921C219.745 81.6674 218.3 80.0671 217.255 78.2286C216.562 76.9033 216.451 76.0795 216.555 76.0795C216.659 76.0795 217.054 76.7457 217.895 77.8776C219.111 79.4508 220.602 80.8083 222.302 81.8894C224.872 83.4609 227.622 84.7421 230.497 85.7078C232.12 86.331 233.855 86.9758 235.626 87.7638C237.504 88.577 239.28 89.5937 240.919 90.7942C242.589 92.0145 244.014 93.5171 245.125 95.2286C246.166 96.8721 246.758 98.7428 246.844 100.666C246.894 102.383 246.569 104.092 245.891 105.681C245.319 107.043 244.531 108.312 243.554 109.442C242.163 111.038 240.49 112.384 238.611 113.418C237.264 114.149 236.452 114.399 236.408 114.299Z" fill="#263238"/>
<path d="M236.621 88.5658C236.281 88.4979 235.949 88.3946 235.631 88.2578C235.006 88.0357 234.143 87.699 233.004 87.2548C230.099 86.1469 227.37 84.6518 224.897 82.8132C222.414 80.9354 220.545 78.4083 219.515 75.5347C219.216 74.6658 219.038 73.7623 218.987 72.8482C218.973 72.6096 218.973 72.3704 218.987 72.1318C218.975 72.0462 218.975 71.9595 218.987 71.8739C219.101 73.09 219.351 74.2909 219.731 75.4559C220.827 78.2364 222.684 80.6797 225.106 82.5267C227.558 84.3383 230.236 85.8473 233.078 87.0184L235.654 88.1217C235.99 88.2406 236.314 88.3893 236.621 88.5658Z" fill="#455A64"/>
<path d="M236.981 99.4118C236.937 99.4118 237.167 98.982 237.286 98.1796C237.419 97.032 237.21 95.8718 236.683 94.834C235.914 93.2894 234.726 91.9729 233.244 91.0228C231.614 89.8838 229.589 88.9811 227.565 87.8134C225.651 86.7184 223.936 85.3293 222.488 83.7013C221.302 82.3728 220.301 80.9014 219.51 79.3242C218.983 78.2656 218.567 77.1593 218.267 76.0216C218.148 75.6204 218.103 75.3052 218.059 75.0903C218.024 74.9838 218.009 74.8723 218.014 74.7607C218.169 75.1617 218.301 75.5706 218.409 75.9858C218.763 77.0947 219.214 78.173 219.756 79.2095C220.557 80.7571 221.557 82.2013 222.734 83.5079C224.167 85.0986 225.856 86.4579 227.736 87.534C229.731 88.6802 231.77 89.6044 233.423 90.7793C234.942 91.7744 236.147 93.1524 236.907 94.7624C237.427 95.8473 237.601 97.0568 237.405 98.2369C237.348 98.5528 237.251 98.8608 237.115 99.1539C237.048 99.3115 236.996 99.419 236.981 99.4118Z" fill="#455A64"/>
<path d="M174.251 92.1494C174.251 92.1494 174.251 92.1064 174.318 92.0348C174.392 91.9246 174.474 91.8192 174.563 91.7196C174.905 91.3264 175.338 91.017 175.829 90.8169C176.618 90.5507 177.449 90.4127 178.285 90.4086C179.245 90.3584 180.347 90.2868 181.561 90.2868C182.873 90.3093 184.183 90.1915 185.469 89.9358C186.919 89.577 188.262 88.8975 189.391 87.9514C190.636 86.8883 191.714 85.6577 192.592 84.2978C193.527 82.8235 194.379 81.3026 195.146 79.7415C195.928 78.1695 196.824 76.6519 197.825 75.1996C198.772 73.8348 199.961 72.6416 201.339 71.6749C203.713 70.0819 206.522 69.1996 209.416 69.1389C211.35 69.0741 213.278 69.4012 215.073 70.0989L215.907 70.4499L216.48 70.7651C216.644 70.8457 216.801 70.9392 216.949 71.0445C216.775 70.9895 216.608 70.9174 216.45 70.8296L215.854 70.5502L215.021 70.235C213.231 69.6008 211.328 69.3182 209.423 69.404C206.597 69.5027 203.861 70.3886 201.547 71.9543C200.209 72.9035 199.055 74.0724 198.138 75.4073C197.156 76.8395 196.278 78.3356 195.51 79.8848C194.735 81.4586 193.873 82.9914 192.927 84.4769C192.025 85.8622 190.917 87.1125 189.637 88.1878C188.462 89.1623 187.064 89.8568 185.558 90.2152C184.247 90.4652 182.911 90.571 181.575 90.5304C180.362 90.5304 179.275 90.5304 178.308 90.5949C177.492 90.5796 176.68 90.6933 175.903 90.9316C175.422 91.1068 174.989 91.3863 174.638 91.7482C174.517 91.8894 174.388 92.0234 174.251 92.1494Z" fill="#455A64"/>
<path d="M169.696 82.4846C165.23 71.6313 159.275 60.9929 158.456 52.9048L149.561 53.2487C149.747 56.3793 150.915 82.4345 157.22 92.7362C163.525 103.038 184.577 127.123 184.577 127.123L191.983 108.791C191.983 108.791 174.17 93.3451 169.696 82.4846Z" fill="#FFBE9D"/>
<path d="M154.868 36.0575H150.974C150.974 36.0575 151.354 38.264 153.118 38.3858C154.883 38.5076 154.54 38.1207 154.54 38.1207L154.146 38.4717L151.719 38.9302C151.719 38.9302 151.838 40.7499 153.438 41.0364L155.798 38.9302L154.868 36.0575Z" fill="#FFBE9D"/>
<path d="M165.527 35.7278C165.169 38.5504 165.132 38.3785 165.132 38.3785L161.574 41.201L160.666 37.046C160.607 36.7706 160.456 36.5216 160.235 36.3377C160.014 36.1537 159.737 36.0451 159.445 36.0287L157.83 35.9284C157.83 35.9284 158.455 33.7792 156.423 33.9583C156.423 33.9583 155.306 33.6646 154.406 37.2609C153.423 41.1939 149.195 50.4353 149.56 53.523L158.582 53.874C158.485 51.0084 160.941 47.9495 162.155 46.6313C162.521 46.2388 162.777 45.763 162.899 45.2487C163.066 44.5421 163.414 43.887 163.911 43.3431C165.028 42.1538 167.373 40.0118 167.373 40.0118V33.4712C167.373 33.4712 165.869 33.0055 165.527 35.7278ZM158.291 42.0464L156.438 42.8559L156.75 41.0363L158.291 40.893V42.0464Z" fill="#FFBE9D"/>
<path d="M156.341 43.0488C156.34 42.7909 156.37 42.5336 156.43 42.2823C156.52 41.788 156.646 41.0859 156.817 40.2119L157.443 37.1601C157.59 36.5735 157.692 35.9773 157.748 35.3763C157.748 34.796 157.525 34.1298 156.877 34.0939C156.229 34.0581 155.753 34.4808 155.44 34.9894C155.291 35.2536 155.172 35.5322 155.083 35.8204L154.793 36.6729L153.825 39.6388C153.535 40.4842 153.267 41.1576 153.081 41.6161C152.996 41.8706 152.873 42.112 152.716 42.3324C152.759 42.0856 152.834 41.845 152.939 41.6161C153.095 41.1432 153.326 40.4627 153.579 39.6173C153.832 38.772 154.138 37.726 154.465 36.6228C154.562 36.3362 154.651 36.0497 154.748 35.756C154.839 35.4422 154.966 35.1394 155.128 34.8533C155.308 34.551 155.545 34.2838 155.827 34.0653C155.985 33.9461 156.165 33.8587 156.358 33.8082C156.551 33.7578 156.753 33.7453 156.951 33.7716C157.151 33.8026 157.342 33.8681 157.517 33.965C157.685 34.078 157.823 34.2278 157.919 34.402C158.081 34.7227 158.158 35.0772 158.142 35.4336C158.081 36.0548 157.969 36.6704 157.807 37.2747L157.063 40.3194C156.862 41.1791 156.691 41.8811 156.557 42.3611C156.516 42.5984 156.444 42.8295 156.341 43.0488Z" fill="#EB996E"/>
<path d="M158.187 42.069C158.097 41.3705 158.059 40.6666 158.075 39.9628C158.075 39.6763 158.031 39.404 158.008 39.1533C158.02 38.9646 157.959 38.7784 157.837 38.6303C157.584 38.4512 157.279 38.4512 157.294 38.3868C157.309 38.3223 157.361 38.3366 157.48 38.3223C157.66 38.298 157.842 38.3307 158.001 38.4154C158.112 38.5017 158.202 38.6108 158.264 38.7348C158.326 38.8587 158.358 38.9943 158.358 39.1318C158.414 39.4084 158.449 39.6885 158.463 39.97C158.566 40.6808 158.471 41.4054 158.187 42.069Z" fill="#EB996E"/>
<path d="M162.609 40.4714C162.609 40.4714 162.363 40.7866 161.864 41.1878C161.234 41.7252 160.533 42.1804 159.78 42.5418C158.995 42.8695 158.156 43.0611 157.301 43.1077C156.954 43.1728 156.598 43.1728 156.251 43.1077C156.573 42.9758 156.915 42.8959 157.264 42.8713C158.073 42.7538 158.864 42.5372 159.616 42.2266C160.357 41.8814 161.064 41.4738 161.73 41.0087C162.236 40.6362 162.571 40.4284 162.609 40.4714Z" fill="#EB996E"/>
<path d="M233.347 121.842C233.347 121.842 243.366 121.556 249.366 119.836C255.366 118.117 278.397 112.844 278.397 112.844L315.356 106.913L316.101 116.111C316.101 116.111 281.762 125.775 275.092 127.975C268.422 130.174 237.94 140.239 232.178 138.964L228.605 131.893L233.347 121.842Z" fill="#FFBE9D"/>
<path d="M333.126 96.0929C332.523 95.9639 329.531 97.2749 329.531 97.2749C329.816 96.9421 329.977 96.5268 329.988 96.0956C329.998 95.6644 329.859 95.2422 329.59 94.8965L325.481 96.8379C324.395 97.8979 323.25 98.9 322.05 99.8396C320.16 101.515 318.417 103.339 316.839 105.291L314.383 107.491L315.909 116.195C316.983 116.281 318.065 116.144 319.08 115.794C320.353 115.228 322.214 112.928 322.214 112.928L325.72 112.642C326.128 112.613 326.517 112.465 326.836 112.219C327.152 111.922 327.395 111.561 327.546 111.161C327.697 110.762 327.752 110.335 327.707 109.912C329.94 108.694 328.638 107.147 328.638 107.147C329.343 107.063 329.988 106.722 330.439 106.194C330.63 105.908 330.722 105.571 330.702 105.231C330.682 104.891 330.551 104.566 330.327 104.303C329.911 103.586 326.695 103.808 326.695 103.808L326.524 102.899C326.524 102.899 331.437 99.1447 332.538 98.328C333.64 97.5113 333.692 96.2146 333.126 96.0929Z" fill="#FFBE9D"/>
<path d="M329.59 97.1661C329.237 97.8451 328.728 98.4379 328.101 98.8998C327.464 99.4239 326.865 99.9887 326.307 100.59C325.688 101.364 325.24 102.252 324.99 103.198C324.731 104.189 324.362 105.15 323.888 106.064C323.482 106.795 322.982 107.473 322.399 108.084C322.006 108.491 321.575 108.862 321.111 109.194C320.95 109.326 320.766 109.43 320.568 109.502C320.523 109.452 321.268 108.958 322.198 107.905C322.735 107.291 323.197 106.621 323.575 105.906C324.02 105.015 324.374 104.084 324.632 103.127C324.894 102.133 325.373 101.204 326.039 100.404C326.622 99.7997 327.254 99.2415 327.93 98.735C328.516 98.2448 329.07 97.7209 329.59 97.1661Z" fill="#EB996E"/>
<path d="M327.783 109.887C327.283 110.213 326.73 110.455 326.145 110.603C325.514 110.808 324.859 110.938 324.195 110.99C323.801 111.019 323.406 111.019 323.012 110.99C322.562 110.96 322.128 110.817 321.754 110.575C321.559 110.441 321.401 110.265 321.292 110.061C321.183 109.856 321.127 109.63 321.128 109.4C321.211 108.988 321.443 108.617 321.783 108.354C322.055 108.104 322.388 107.924 322.751 107.831C323.079 107.745 323.376 107.681 323.652 107.63C324.235 107.461 324.845 107.393 325.453 107.43C325.453 107.473 324.783 107.602 323.711 107.881L322.848 108.125C322.537 108.216 322.256 108.381 322.029 108.605C321.77 108.817 321.587 109.103 321.508 109.421C321.509 109.59 321.554 109.756 321.637 109.904C321.72 110.053 321.839 110.18 321.984 110.274C322.657 110.611 323.42 110.745 324.173 110.661C324.812 110.625 325.446 110.524 326.064 110.36C327.128 110.095 327.761 109.83 327.783 109.887Z" fill="#EB996E"/>
<path d="M328.757 107.145C328.368 107.354 327.936 107.479 327.491 107.51C327.017 107.588 326.536 107.622 326.054 107.61C325.739 107.632 325.422 107.587 325.126 107.478C324.83 107.369 324.563 107.199 324.342 106.98C324.154 106.722 324.047 106.417 324.033 106.102C324.02 105.787 324.102 105.475 324.268 105.203C324.519 104.777 324.901 104.437 325.362 104.229C325.752 104.011 326.192 103.89 326.643 103.878C326.643 103.935 326.174 104.079 325.496 104.458C325.111 104.671 324.796 104.984 324.588 105.361C324.463 105.573 324.401 105.815 324.41 106.059C324.42 106.304 324.499 106.54 324.64 106.744C324.829 106.92 325.053 107.057 325.299 107.147C325.545 107.237 325.807 107.277 326.069 107.267C326.533 107.296 326.998 107.296 327.461 107.267C327.889 107.195 328.322 107.154 328.757 107.145Z" fill="#EB996E"/>
<path d="M326.329 112.522C326.004 112.678 325.655 112.782 325.295 112.83C324.447 113.057 323.569 113.158 322.689 113.131C322.54 113.137 322.391 113.112 322.253 113.056C322.115 113 321.992 112.916 321.893 112.808C321.732 112.603 321.65 112.349 321.662 112.092C321.679 111.882 321.744 111.678 321.852 111.495C321.96 111.311 322.108 111.153 322.287 111.032C322.942 110.652 323.419 110.889 323.389 110.917C323.053 110.951 322.731 111.065 322.451 111.247C322.321 111.353 322.215 111.485 322.141 111.633C322.067 111.781 322.025 111.942 322.019 112.106C322.016 112.284 322.073 112.458 322.183 112.601C322.25 112.669 322.333 112.721 322.425 112.753C322.516 112.786 322.615 112.797 322.712 112.787C323.56 112.805 324.407 112.743 325.243 112.601C325.596 112.508 325.965 112.481 326.329 112.522Z" fill="#EB996E"/>
<path d="M216.353 152.378C216.139 152.537 215.904 152.667 215.653 152.765C214.994 153.061 214.309 153.301 213.606 153.481C211.266 154.139 208.797 154.257 206.401 153.825C204.007 153.391 201.757 152.408 199.842 150.96C199.267 150.527 198.732 150.048 198.242 149.527C198.052 149.342 197.887 149.135 197.751 148.911C197.81 148.861 198.54 149.713 199.984 150.759C201.903 152.12 204.112 153.053 206.453 153.489C208.794 153.912 211.202 153.836 213.509 153.266C215.289 152.829 216.308 152.328 216.353 152.378Z" fill="#FF725E"/>
<path d="M199.435 125.886C199.435 125.886 222.987 118.636 223.866 118.407C224.744 118.178 245.52 119.962 245.52 119.962C245.52 119.962 244.642 133.208 249.852 137.499L234.57 142.8L229.754 155.559C229.754 155.559 227.067 160.76 229.203 165.639C233.245 174.873 240.257 189.444 239.223 191.114C239.111 191.285 238.478 186.099 228.511 183.348C225.489 182.524 220.002 182.51 215.037 183.477C193.673 187.618 185.426 197.088 183.029 198.743C183.029 198.743 187.428 165.524 185.351 160.337C183.274 155.151 181.071 151.741 182.783 147.149C184.495 142.557 187.063 135.135 187.063 135.135L178.644 125.965L190.406 107.145L201.169 115.742L199.435 125.886Z" fill="#90DEC2"/>
<path d="M207.264 156.664C206.995 156.697 206.722 156.697 206.453 156.664C205.714 156.635 204.979 156.544 204.257 156.392C201.852 155.889 199.634 154.767 197.84 153.147C196.052 151.515 194.793 149.42 194.215 147.115C194.043 146.409 193.944 145.689 193.917 144.965C193.894 144.707 193.909 144.446 193.962 144.192C194.079 145.141 194.253 146.084 194.483 147.014C195.121 149.238 196.374 151.253 198.108 152.846C199.861 154.418 202 155.536 204.324 156.098C206.11 156.628 207.264 156.628 207.264 156.664Z" fill="#263238"/>
<path d="M185.149 128.578C186.066 129.705 186.634 131.059 186.787 132.483C187.066 133.89 186.932 135.343 186.399 136.681C186.545 135.304 186.545 133.917 186.399 132.54C186.123 131.182 185.704 129.855 185.149 128.578Z" fill="#263238"/>
<path d="M235.135 132.505C235.135 132.562 234.651 132.885 233.936 133.551C233.011 134.413 232.266 135.436 231.74 136.567C231.218 137.696 230.935 138.914 230.906 140.149C230.906 141.102 231.003 141.689 230.906 141.703C230.695 141.211 230.591 140.682 230.601 140.149C230.546 138.861 230.801 137.579 231.346 136.402C231.885 135.224 232.691 134.176 233.705 133.336C234.119 132.969 234.605 132.686 235.135 132.505Z" fill="#263238"/>
<g opacity="0.3">
<path d="M203.766 156.172C201.494 155.738 199.428 154.613 197.871 152.962C196.814 151.985 195.949 150.832 195.317 149.56C194.781 151.809 198.034 155.799 201.205 157.268C202.813 157.989 204.573 158.34 206.345 158.292C208.118 158.245 209.855 157.801 211.418 156.996C208.845 156.969 206.282 156.693 203.766 156.172Z" fill="black"/>
</g>
<path d="M232.612 172.631C232.612 172.674 231.994 172.223 230.773 171.693C229.036 170.971 227.165 170.596 225.272 170.59C222.458 170.573 219.67 171.117 217.084 172.187C213.947 173.547 210.956 175.198 208.151 177.116C202.982 180.565 197.469 183.509 191.693 185.906C189.46 186.816 187.643 187.468 186.371 187.89C185.738 188.113 185.239 188.263 184.882 188.363C184.714 188.426 184.539 188.472 184.361 188.499C184.519 188.413 184.686 188.343 184.859 188.292L186.304 187.754C187.562 187.289 189.37 186.608 191.566 185.663C197.3 183.209 202.783 180.244 207.943 176.808C210.767 174.872 213.787 173.216 216.958 171.865C219.591 170.796 222.429 170.271 225.287 170.325C227.211 170.355 229.106 170.778 230.848 171.564C231.479 171.848 232.072 172.207 232.612 172.631Z" fill="white"/>
<path d="M228.353 160.754C227.906 160.372 227.434 160.018 226.939 159.694C225.55 158.875 223.972 158.397 222.346 158.304C219.93 158.194 217.521 158.62 215.304 159.551C212.578 160.69 209.917 161.967 207.332 163.376C204.722 164.772 202.03 166.02 199.27 167.116C196.997 167.993 194.623 168.603 192.198 168.935C190.565 169.155 188.91 169.181 187.27 169.014C186.825 168.967 186.383 168.898 185.945 168.807C185.79 168.785 185.638 168.747 185.491 168.692C185.491 168.656 186.132 168.778 187.285 168.871C188.913 168.978 190.548 168.913 192.161 168.678C194.553 168.309 196.893 167.68 199.136 166.801C201.873 165.697 204.547 164.454 207.146 163.075C209.746 161.662 212.425 160.387 215.17 159.257C217.441 158.327 219.905 157.92 222.368 158.068C224.03 158.185 225.633 158.713 227.021 159.601C227.531 159.908 227.982 160.299 228.353 160.754Z" fill="white"/>
<path d="M196.912 151.728C196.912 151.728 196.755 151.879 196.435 152.101C196.241 152.239 196.037 152.364 195.825 152.473C195.554 152.633 195.273 152.776 194.984 152.903C194.232 153.243 193.446 153.51 192.639 153.698C191.648 153.925 190.635 154.05 189.617 154.071C188.596 154.069 187.578 153.966 186.579 153.763C185.767 153.601 184.974 153.361 184.212 153.047C183.919 152.928 183.633 152.795 183.356 152.645C183.14 152.543 182.934 152.423 182.738 152.287C182.411 152.079 182.24 151.95 182.255 151.929C182.269 151.907 182.999 152.323 184.317 152.803C185.073 153.077 185.853 153.291 186.646 153.441C187.629 153.613 188.626 153.697 189.624 153.691C190.613 153.669 191.598 153.557 192.564 153.355C193.356 153.182 194.131 152.942 194.879 152.638C196.152 152.144 196.867 151.671 196.912 151.728Z" fill="white"/>
<path d="M231.904 149.929C231.819 150.022 231.721 150.104 231.614 150.173C231.318 150.387 231.005 150.576 230.676 150.739C229.463 151.346 228.137 151.713 226.775 151.821C224.761 151.974 222.734 151.794 220.783 151.291C218.55 150.775 216.235 149.937 213.741 149.256C209.465 148.112 204.988 147.834 200.595 148.439C199.262 148.622 197.942 148.882 196.642 149.22C195.727 149.457 195.22 149.607 195.213 149.578C195.206 149.55 195.325 149.514 195.563 149.428C195.801 149.342 196.143 149.213 196.605 149.084C197.895 148.69 199.214 148.389 200.55 148.181C204.983 147.49 209.52 147.734 213.845 148.898C216.361 149.614 218.684 150.431 220.865 150.954C222.779 151.467 224.769 151.67 226.753 151.556C228.088 151.472 229.395 151.152 230.609 150.61C231.465 150.216 231.882 149.894 231.904 149.929Z" fill="white"/>
<path d="M231.287 139.175C231.131 139.215 230.971 139.239 230.81 139.247C230.498 139.247 230.066 139.333 229.433 139.376C227.741 139.415 226.048 139.298 224.379 139.024C222.265 138.695 219.793 138.093 217.069 137.384C214.148 136.551 211.16 135.952 208.136 135.593C207.342 135.53 206.544 135.506 205.747 135.521C205.352 135.521 204.965 135.521 204.578 135.557L203.439 135.686C201.989 135.884 200.565 136.228 199.189 136.711C196.539 137.613 194.224 138.652 192.192 139.311C190.601 139.873 188.938 140.225 187.249 140.357C186.791 140.397 186.33 140.397 185.872 140.357C185.709 140.361 185.547 140.347 185.388 140.314C185.549 140.302 185.711 140.302 185.872 140.314C186.327 140.316 186.782 140.29 187.234 140.235C188.901 140.049 190.536 139.662 192.102 139.082C194.105 138.401 196.397 137.341 199.07 136.41C200.464 135.91 201.908 135.553 203.38 135.342L204.548 135.206C204.943 135.206 205.337 135.206 205.739 135.206C206.549 135.191 207.359 135.215 208.166 135.278C211.217 135.639 214.23 136.25 217.173 137.105C219.89 137.821 222.339 138.466 224.438 138.824C226.088 139.119 227.762 139.273 229.441 139.282L230.81 139.232C230.966 139.195 231.126 139.176 231.287 139.175Z" fill="white"/>
<path d="M238.686 119.956C238.753 119.992 237.994 121.038 237.279 122.936C236.343 125.413 236.087 128.081 236.535 130.681C237.021 133.272 238.178 135.704 239.899 137.751C241.224 139.32 242.289 140.08 242.237 140.137C241.968 139.993 241.719 139.82 241.492 139.621C240.843 139.105 240.243 138.534 239.698 137.916C237.877 135.874 236.654 133.401 236.155 130.752C235.694 128.1 235.987 125.377 237.004 122.872C237.312 122.125 237.688 121.406 238.128 120.723C238.282 120.447 238.469 120.19 238.686 119.956Z" fill="white"/>
<path d="M199.419 122.238C199.211 122.321 198.989 122.37 198.764 122.381C198.155 122.479 197.541 122.543 196.925 122.575C196.004 122.632 195.079 122.562 194.178 122.367C193.044 122.119 192.01 121.559 191.201 120.755C190.337 119.938 189.712 119.05 189.02 118.312C188.447 117.654 187.768 117.088 187.01 116.636C186.298 116.242 185.5 116.017 184.68 115.977C184.897 115.903 185.129 115.878 185.357 115.905C185.985 115.939 186.596 116.111 187.144 116.406C187.956 116.841 188.682 117.411 189.288 118.09C189.98 118.806 190.642 119.709 191.469 120.49C192.224 121.24 193.179 121.776 194.23 122.037C195.098 122.238 195.988 122.33 196.88 122.31C198.488 122.238 199.419 122.145 199.419 122.238Z" fill="white"/>
<path d="M312.401 45.9045L321.064 40.4522L312.401 34.9999L312.401 45.9045Z" fill="#D0EEE4"/>
<path d="M99.6938 45.9045L108.356 40.4522L99.6938 34.9999L99.6938 45.9045Z" fill="#C2BCEB"/>
<path d="M252.64 31.0886L256.972 28.3624L252.64 25.6363L252.64 31.0886Z" fill="#D0EEE4"/>
<path d="M310.289 71.091L317.026 72.1403V66.8938L310.289 65.8445V71.091Z" fill="#C2BCEB"/>
<path d="M62.0165 75.4586L67.7914 76.333V71.961L62.0165 71.0865V75.4586Z" fill="#C2BCEB"/>
<path d="M113.505 185.706L118.318 186.581V182.209L113.505 181.334V185.706Z" fill="#D0EEE4"/>
<path d="M45.6045 35.593L51.3794 36.4674V32.0954L45.6045 31.2209V35.593Z" fill="#D0EEE4"/>
<ellipse cx="2.40621" cy="2.62323" rx="2.40621" ry="2.62323" transform="matrix(1 0 0 -1 288.15 31.2137)" fill="#C2BCEB"/>
<rect width="3.84993" height="4.19717" transform="matrix(1 0 0 -1 94.2573 193.927)" fill="#C2BCEB"/>
<ellipse cx="1.92497" cy="2.09859" rx="1.92497" ry="2.09859" transform="matrix(1 0 0 -1 49.9854 187.629)" fill="#D0EEE4"/>
<path d="M95.655 65.8425C95.3342 64.2686 95.1738 60.4212 97.58 59.5468C99.0237 59.0221 105.28 58.4975 106.242 53.7757" stroke="#7A73FF" stroke-width="0.541009"/>
<path d="M33.6248 74.7607C33.6248 74.7607 33.6248 70.5636 31.6999 70.0389C29.7749 69.5143 28.0879 69.927 26.4062 68.9896C24.9864 68.1982 24 66.891 24 65.8418" stroke="#7A73FF" stroke-width="0.541009"/>
</g>
<defs>
<linearGradient id="paint0_linear_0_7842" x1="265.05" y1="51.0279" x2="139.022" y2="198.603" gradientUnits="userSpaceOnUse">
<stop stop-color="#3BBA8C"/>
<stop offset="1" stop-color="#C8EEEE"/>
</linearGradient>
<clipPath id="clip0_0_7842">
<rect width="343" height="199.091" fill="white"/>
</clipPath>
</defs>
</svg>
