<svg width="1200" height="800" viewBox="0 0 1200 800" fill="none" xmlns="http://www.w3.org/2000/svg">
<path d="M185.43 735.18C105.11 659.81 -4.67001 581.98 38.38 464.42C66.69 387.1 136.11 365.54 193.82 317.86C222.3 294.33 204.39 260.08 203.86 226.08C202.65 139.02 315.39 71.47 419.03 72.88C531.29 74.41 579.89 171.67 674.06 176.89C711.04 177.38 744.15 158.68 776.87 143.82C873.81 99.8 1027.64 127.87 1035.41 234.33C1037.42 291.82 961.49 384.32 1037.56 414.56C1098.19 438.66 1159.44 447.54 1170.36 533.73C1184.66 646.55 1109.06 708.47 1010.54 737.5L185.43 735.18V735.18Z" fill="#F2F2F2"/>
<path d="M594.39 703.75C583.37 718.64 555.8 712.06 556.69 732.19C597.84 731.93 615.77 732.3 615.77 732.3C615.72 727.68 614.59 710.37 613.64 706.07L594.39 703.75ZM665.57 703.75C676.59 718.64 704.16 712.06 703.27 732.19C662.11 731.93 644.19 732.3 644.19 732.3C644.25 727.68 645.37 710.37 646.32 706.07L665.57 703.75Z" fill="black"/>
<path d="M569.88 297.57C569.88 297.57 536.44 315.95 515.11 332.95L503.57 368.36C525.83 365.68 580.96 341.24 580.96 341.24L569.88 297.57Z" fill="#5957D9"/>
<path d="M496.95 259.33C497.98 264.74 497.94 270.47 504.3 273.9C504.3 273.9 501.81 291.32 501.3 305.75C501.3 305.75 518.87 288.9 518.87 288.89C518.45 283.02 518.66 272 520.08 265.87C520.45 264.28 520.9 262.7 521.29 261.1C522.32 257.23 523.8 253.32 521.85 248.37C514.31 229.25 517.9 223.5 516.72 222.49C514.76 221.4 509.63 224.66 511.57 233.89C513.45 242.83 512.43 247.05 512.43 247.05C512.43 247.05 505.65 245.12 502.99 247.35C501.77 248.36 495.74 253.01 496.95 259.33V259.33Z" fill="#F6B49E"/>
<path d="M499.28 277.07L521.43 280.42L532.22 343.65L503.57 368.35C497.37 355.97 492.03 304.62 499.28 277.07V277.07Z" fill="#5957D9"/>
<path d="M671.75 433.91C643.46 437.39 614.8 437.5 585.78 434.1L579.21 577.7C579.21 577.7 582.88 672.7 587.83 706.03L618.98 705.96C616.95 667.19 622.86 577.6 622.86 577.6L629.07 495.68L635.31 577.57C635.31 577.57 641.44 667.14 639.58 705.91L672.04 705.84C676.85 672.48 678.9 577.47 678.9 577.47L671.75 433.91Z" fill="#3C3C3B"/>
<path d="M682.02 298.07C682.02 298.07 701.1 337.07 712.68 361.93L702.1 396.4C683.37 383.92 652.83 332.13 652.83 332.13L682.02 298.07V298.07Z" fill="#5957D9"/>
<path d="M644.28 288.73L605.52 290.47L601.61 328.88L605.83 438.51L646.71 437.99L657.4 315.27L644.28 288.73Z" fill="#F4F4F4"/>
<path d="M601.75 229.56C607.15 223.28 611.41 229.37 619.1 221.59C626.8 213.81 632.98 208.21 639.56 216.42C646.15 224.63 649.54 225.78 654.34 225.31C659.13 224.84 659.11 244.82 659.11 244.82C659.11 244.82 677.98 240.04 675.45 226.09C672.64 210.63 665.7 215.05 661.81 202.52C657.93 189.99 642.93 182.92 636.06 185.93C628.82 189.1 625.03 192.59 614.49 190C603.95 187.41 594.87 190.55 594.89 204.39C594.91 218.23 578.84 214.1 583.98 231.38C585.98 238.08 591.57 244.25 594.16 243.72C597.65 243 598.27 233.61 601.75 229.56Z" fill="#1E2144"/>
<path d="M608.01 433.44H646.08V444.94H608.01V433.44Z" fill="#3C3C3B"/>
<path d="M611.86 298.39L625.35 309.2L639.04 298.39L640.85 271.99H610.05L611.86 298.39Z" fill="#F6B49E"/>
<path d="M569.79 297.64L570.49 469.31C583.69 480.28 609.56 483.28 609.56 483.28L604.86 293.03L569.79 297.64ZM682.07 297.64L681.37 469.31C668.17 480.28 642.3 483.28 642.3 483.28L647 293.03L682.07 297.64Z" fill="#5957D9"/>
<path d="M585.91 315.61L608.19 412.98L604.81 291.31L585.91 315.61ZM667.12 308.87L644.28 414.09L647 293.03L667.12 308.87Z" fill="#5957D9"/>
<path d="M628.46 203.12C588.71 202.17 597.78 256.41 600.68 264.93C602.26 269.58 612.35 287.4 628.57 287.65C644.79 287.4 654.66 269.58 656.24 264.93C659.14 256.4 669.59 203.75 628.46 203.12V203.12Z" fill="#F6B49E"/>
<path d="M628.89 319.3L635.69 411.77L625.49 423.96L615.3 411.77L622.25 319.54L628.89 319.3Z" fill="#E51B4D"/>
<path d="M632.62 309.36L625.83 307.56L618.9 309.67L622.24 319.71L628.91 319.59L632.62 309.36Z" fill="#ED7069"/>
<path d="M625.49 307.58C625.49 307.58 621 314.24 613.03 318.01L599.66 297.46L605.51 290.47L625.49 307.58ZM625.49 307.58C625.49 307.58 631.99 315.26 638.31 317.56L650.42 295.38L644.72 288.73L625.49 307.58V307.58Z" fill="white"/>
<path d="M762.35 354.94L757.05 334.36L705.32 357.27L702.1 396.4C715.75 395.07 743.27 375.89 762.35 354.94V354.94Z" fill="#5957D9"/>
<path d="M642.21 269.54C642.74 268.65 642.26 267.37 641.44 267.46C639.34 267.71 635.88 268.02 632.59 267.88C629.3 267.74 625.88 267.12 623.81 266.69C623 266.52 622.41 267.76 622.86 268.69C624.25 271.54 627.2 275.91 632.24 276.13C637.28 276.36 640.58 272.26 642.21 269.54V269.54Z" fill="white"/>
<path d="M597.02 239.33C601.51 240.85 602.78 208.3 620.25 220.09C632.55 228.39 655.21 230.47 650.62 219.21C654.29 221.97 658.46 226.32 658.46 226.32L651.98 204.61C651.98 204.61 618.65 194 606.81 204.75C594.98 215.49 597.02 239.33 597.02 239.33V239.33Z" fill="#1E2144"/>
<path d="M605.31 243.01C607.95 248.26 606.41 254.42 601.87 256.77C597.33 259.11 591.5 256.76 588.86 251.51C586.22 246.26 587.76 240.1 592.3 237.75C596.85 235.4 602.67 237.76 605.31 243.01Z" fill="#F6B49E"/>
<path d="M598.43 254.02C598.31 254.02 598.2 254 598.08 253.97C597.45 253.77 597.09 253.1 597.28 252.46C598.25 249.24 598.16 246.81 597.03 245.43C595.51 243.57 592.44 243.88 592.4 243.88C591.74 243.95 591.15 243.47 591.08 242.81C591.01 242.15 591.48 241.55 592.13 241.47C592.31 241.45 596.5 241 598.85 243.87C600.55 245.94 600.79 249.06 599.55 253.16C599.42 253.69 598.95 254.02 598.43 254.02Z" fill="#EF9D89"/>
<path d="M798.38 321.56L795.61 332.78L791.72 348.51L788.77 360.45L765.5 357.69L765.34 345.39L765.15 329.17L765 317.61L798.38 321.56Z" fill="white" stroke="#9C9C9C" stroke-miterlimit="10"/>
<path d="M761.66 317.21L801.72 321.96L801.55 317.63L762.81 313.04L761.66 317.21Z" fill="#5957D9"/>
<path d="M798.49 317.27L765.87 313.4L767.01 309.35L798.31 313.05L798.49 317.27ZM788.77 360.45L787.74 364.64L765.55 362.01L765.5 357.7L788.77 360.45Z" fill="white" stroke="#9C9C9C" stroke-miterlimit="10"/>
<path d="M795.61 332.78L791.72 348.51L765.34 345.39L765.15 329.17L795.61 332.78Z" fill="#5957D9"/>
<path d="M787.78 346.32C788.03 346.14 788.3 346.02 788.58 345.93L788.49 345.81C786.71 343.31 786.7 340.23 788.47 338.94C788.76 338.73 789.08 338.58 789.42 338.49C788.87 336.61 789.23 334.77 790.49 333.85C790.99 333.48 791.58 333.31 792.22 333.29C791.55 331.45 791.95 329.46 793.36 328.43C795.13 327.14 797.8 327.82 799.32 329.95C800.84 332.08 800.64 334.86 798.86 336.16C798.41 336.49 797.91 336.69 797.37 336.77C798.67 339.11 798.53 341.74 796.93 342.91C796.64 343.12 796.32 343.27 795.98 343.36C796.53 345.24 796.17 347.08 794.91 348C794.44 348.34 793.9 348.52 793.32 348.56C793.98 350.17 793.67 351.95 792.43 352.86C790.93 353.95 788.68 353.38 787.39 351.57C786.11 349.76 786.29 347.42 787.78 346.32V346.32Z" fill="#F6B49E"/>
<path d="M765.53 338.52C767.25 337.83 769.43 335.67 770.57 331.67C771.71 327.68 780.96 325.09 777.63 322.94C774.3 320.79 764.12 322.59 760.25 331.57C758.07 333.81 757.04 334.36 757.04 334.36L761.77 352.87L765.44 352.05L765.53 338.52V338.52Z" fill="#F6B49E"/>
<path d="M967.58 14.23C967.69 14.45 966.1 15.47 964.12 16.67C962.14 17.87 960.51 18.81 960.36 18.61C960.22 18.42 961.65 17.13 963.66 15.91C965.68 14.69 967.47 14.02 967.58 14.23V14.23ZM975.54 36.26C975.54 36.5 972.92 36.7 969.7 36.7C966.47 36.7 963.86 36.5 963.86 36.26C963.86 36.02 966.47 35.82 969.7 35.82C972.93 35.82 975.54 36.01 975.54 36.26ZM894.54 35.48C894.54 35.72 892.07 35.92 889.02 35.92C885.97 35.92 883.5 35.72 883.5 35.48C883.5 35.24 885.97 35.04 889.02 35.04C892.07 35.04 894.54 35.23 894.54 35.48ZM900.27 51.88C900.43 52.06 898.59 53.8 896.17 55.75C893.75 57.7 891.66 59.13 891.52 58.93C891.38 58.73 893.21 57 895.62 55.06C898.03 53.12 900.11 51.69 900.27 51.88ZM967.76 60.4C967.59 60.57 965.82 59.08 963.81 57.08C961.8 55.07 960.31 53.31 960.49 53.13C960.67 52.95 962.43 54.45 964.44 56.45C966.44 58.46 967.93 60.23 967.76 60.4ZM899.73 19.77C899.56 19.94 897.99 18.66 896.24 16.9C894.48 15.14 893.2 13.58 893.37 13.41C893.54 13.24 895.11 14.52 896.86 16.28C898.62 18.04 899.9 19.6 899.73 19.77V19.77Z" fill="#FCFCFC"/>
<path d="M1038.88 712.326H1027.15V571.816H1038.88V712.326Z" fill="#465B64"/>
<path d="M950.04 578.17H1117.77C1117.77 568.11 1109.62 559.96 1099.56 559.96H968.25C958.19 559.97 950.04 568.12 950.04 578.17Z" fill="#465B64"/>
<path d="M1021.63 578.53C1021.63 578.77 1026.24 578.96 1031.92 578.96C1037.6 578.96 1042.21 578.77 1042.21 578.53C1042.21 578.29 1037.6 578.1 1031.92 578.1C1026.24 578.1 1021.63 578.29 1021.63 578.53V578.53Z" fill="#263339"/>
<path d="M981.72 725.05H983.38C983.38 697.53 1005.77 675.15 1033.28 675.15C1060.8 675.15 1083.18 697.54 1083.18 725.05H1084.84C1084.84 696.62 1061.71 673.49 1033.28 673.49C1004.85 673.49 981.72 696.62 981.72 725.05V725.05Z" fill="#465B64"/>
<path d="M1076.28 727.61C1076.28 731.88 1079.74 735.34 1084.01 735.34C1088.28 735.34 1091.74 731.88 1091.74 727.61C1091.74 723.34 1088.28 719.88 1084.01 719.88C1079.74 719.88 1076.28 723.34 1076.28 727.61Z" fill="#263339"/>
<path d="M974.44 726.55C974.44 730.82 977.9 734.28 982.17 734.28C986.44 734.28 989.9 730.82 989.9 726.55C989.9 722.28 986.44 718.82 982.17 718.82C977.9 718.82 974.44 722.28 974.44 726.55ZM982.22 712.32C982.22 712.56 1004.66 712.75 1032.33 712.75C1060.01 712.75 1082.44 712.56 1082.44 712.32C1082.44 712.08 1060.01 711.89 1032.33 711.89C1004.66 711.89 982.22 712.08 982.22 712.32V712.32ZM1122.7 432.71V536.15C1122.7 549.72 1111.7 560.71 1098.14 560.71H1018.44L1029.27 432.71C1029.27 426.66 1034.17 421.76 1040.22 421.76H1111.76C1117.8 421.76 1122.7 426.66 1122.7 432.71V432.71Z" fill="#465B64"/>
<path d="M1094.53 559.97C1094.52 559.96 1094.58 559.86 1094.71 559.67C1094.87 559.44 1095.06 559.16 1095.29 558.82C1095.82 558.09 1096.57 556.99 1097.48 555.54C1099.28 552.63 1101.67 548.24 1103.42 542.37C1104.3 539.44 1105.02 536.16 1105.39 532.59C1105.81 529.02 1105.71 525.17 1105.7 521.1L1105.67 494.66C1105.72 475.93 1105.76 458.98 1105.79 446.62C1105.85 440.53 1105.89 435.58 1105.92 432.06C1105.95 430.4 1105.98 429.08 1106 428.1C1106.03 427.2 1106.06 426.72 1106.08 426.72C1106.11 426.72 1106.14 427.2 1106.16 428.1C1106.18 429.08 1106.21 430.4 1106.24 432.06C1106.27 435.58 1106.32 440.53 1106.37 446.62C1106.4 458.98 1106.44 475.93 1106.49 494.66L1106.46 521.1C1106.44 525.15 1106.52 529.05 1106.06 532.66C1105.67 536.012 1104.97 539.32 1103.96 542.54C1102.51 547.204 1100.42 551.641 1097.73 555.72C1096.77 557.15 1095.97 558.23 1095.4 558.93C1094.87 559.63 1094.55 559.98 1094.53 559.97Z" fill="#263339"/>
<path d="M1051.13 560.02C1051.13 559.96 1052.03 559.91 1053.66 559.88C1055.44 559.86 1057.76 559.83 1060.57 559.8C1066.4 559.77 1074.46 559.78 1083.36 559.84C1087.81 559.88 1092.06 559.89 1095.9 559.99C1099.75 560.06 1103.28 560.27 1106.13 561.11C1108.99 561.9 1111.05 563.26 1112.28 564.33C1112.91 564.86 1113.34 565.33 1113.62 565.67C1113.9 566 1114.04 566.18 1114.02 566.2C1113.95 566.27 1113.37 565.56 1112.08 564.59C1110.81 563.61 1108.78 562.38 1105.98 561.68C1103.19 560.94 1099.74 560.79 1095.89 560.76C1092.02 560.73 1087.79 560.71 1083.34 560.68C1074.45 560.62 1066.4 560.51 1060.57 560.4C1057.77 560.33 1055.44 560.26 1053.67 560.22C1052.03 560.14 1051.13 560.08 1051.13 560.02V560.02Z" fill="#263339"/>
<path d="M977.74 323.21C975.39 330.44 973.01 337.84 973.18 345.44C973.26 348.96 973.83 352.73 972.1 355.79C970.9 357.92 968.77 359.33 967.1 361.11C962.95 365.51 961.81 372.49 964.33 377.99C965.21 379.91 966.53 381.68 968.34 382.77C970.42 384.02 972.94 384.27 975.36 384.41C983.44 384.88 991.56 384.51 999.56 383.32C1003.38 382.75 1007.52 381.79 1009.89 378.73C1012 375.99 1012.16 372.26 1012.03 368.8C1011.55 355.68 1008.28 342.68 1002.52 330.88" fill="#585856"/>
<path d="M1031.96 315.37C1035.67 314.2 1040.01 317.62 1039.73 321.5C1039.45 325.38 1034.66 328.15 1031.16 326.46C1035.05 325.79 1038.78 328.73 1040.59 332.24C1042.4 335.75 1042.82 339.78 1043.74 343.62C1044.66 347.46 1046.34 351.43 1049.71 353.48C1052.93 355.43 1057.46 355.51 1059.55 358.64C1061.71 361.9 1059.81 366.34 1060.72 370.14C1061.62 373.92 1065.08 376.42 1068.15 378.81C1071.22 381.2 1074.37 384.35 1074.21 388.23C1074.08 391.34 1071.71 394.02 1068.91 395.38C1066.1 396.74 1062.91 397.01 1059.8 397.14C1044.45 397.82 1028.98 395.83 1014.3 391.28C1011.97 390.56 1009.54 389.69 1008.01 387.79C1005.68 384.9 1006.23 380.72 1006.91 377.07C1009.05 365.49 1011.19 353.87 1014.98 342.73C1018.77 331.59 1024.29 320.86 1032.44 312.36" fill="#585856"/>
<path d="M1054.93 426.96H1073.04L1066.61 394.69C1061.87 368.28 1024.84 366.46 1024.84 366.46L995.78 365.99C995.78 365.99 974.24 363.09 960.94 378.08C958.21 381.16 955.36 384.35 952.54 387.48L921.02 420.45L917.67 379.08L890.67 383.31L894.44 435.27C895.26 443.64 900.69 451.14 908.71 453.68C914.55 455.54 920.49 453.91 926.41 450.95C942.13 443.11 971.61 418.17 973.87 416.25C972.51 419.05 969.8 425.36 969.8 431.36C969.8 439.96 978.63 446.4 978.63 446.4L981.38 472.59L972.26 514.87L1067.15 511.07C1065.3 495.74 1060.41 482.62 1053.16 471.2L1054.93 426.96ZM973.95 416.14C973.88 416.07 973.77 415.85 973.64 415.5L974.66 414.78C974.65 414.78 974.37 415.28 973.95 416.14Z" fill="#ECEBEB"/>
<path d="M1012.47 500.22C1007.17 503.72 1000.73 507.82 997.11 509.54C990.38 512.74 990.07 512.15 989.8 511.31C989.1 509.05 1001.42 505.23 998.25 504.53C995.09 503.83 983.77 510.93 983.14 508.54C982.31 505.42 995.29 501.66 996.36 501.26C997.4 500.87 996.85 499.31 995.9 499.72C994.54 500.31 980.07 506.17 979.23 503.12C978.76 501.43 981.92 500.95 981.92 500.95C981.92 500.95 995.89 496.46 995.44 495.03C994.99 493.58 986.69 495.94 983.95 496.94C981.25 497.92 979.65 497.05 980.18 495.5C980.54 494.45 988.85 491.21 991.58 490.29C994.31 489.37 1001.85 486.98 997.1 485.17C992.35 483.36 989.36 480.22 989.14 478.82C988.92 477.43 990.81 476.66 991.92 477.77C992.82 478.67 994.78 479.72 996.29 480.45C997.53 481.05 998.86 481.46 1000.23 481.62C1001.41 481.76 1002.47 481.85 1003.41 481.91L1013.5 482.67L1018.59 496.02L1012.47 500.22V500.22Z" fill="#F8BD9E"/>
<path d="M1056.67 378.48C1056.67 378.48 1064.91 384.23 1068.61 396.35C1070.85 403.68 1077.28 428.49 1082 446.96C1085.09 459.02 1078.32 471.4 1066.5 475.31L1013.09 504.16L1004.37 481.59L1051.23 450.79L1039.9 408.85C1038.04 402.47 1037.23 395.98 1039.57 389.75C1041.97 383.37 1046.82 377.29 1056.67 378.48V378.48Z" fill="#ECEBEB"/>
<path d="M892.46 384.82L889.22 374.44C887.71 367.02 893.58 365.82 894.56 364.72C897.61 361.31 899.8 360.49 899.8 360.49L899.33 357.5C899.33 357.5 897.55 349.86 897.64 347.76C897.71 345.98 900.91 345.86 901.37 347.58C902.43 351.5 904.27 358.15 905.26 360.59C906.56 363.81 909.45 372.24 912.48 367.01C915.51 361.77 915.2 358.71 915.72 357.09C916.27 355.37 920.07 355.06 919.33 358.61C919.02 360.1 918.83 362.73 917.9 366.3C917.48 367.89 916.61 369.85 916.16 371.43C915.64 373.27 915.41 380.16 915.13 381.51L892.46 384.82V384.82Z" fill="#F8BD9E"/>
<path d="M894.16 366.72C894.29 366.71 894.44 367.92 894.97 369.78C895.24 370.71 895.61 371.8 896.15 372.95C896.41 373.53 896.75 374.19 896.82 375.02C896.89 375.81 896.58 376.86 895.6 377.26C894.63 377.62 893.76 377.2 893.13 376.77C892.49 376.3 892.03 375.75 891.65 375.18C890.9 374.03 890.56 372.84 890.36 371.86C890.01 369.89 890.06 368.67 890.16 368.65C890.3 368.63 890.48 369.85 890.97 371.71C891.23 372.63 891.62 373.71 892.32 374.72C892.67 375.21 893.11 375.7 893.63 376.06C894.13 376.41 894.8 376.64 895.27 376.44C895.75 376.27 895.99 375.65 895.96 375.07C895.93 374.48 895.66 373.88 895.41 373.28C894.9 372.06 894.57 370.91 894.37 369.93C893.98 367.97 894.05 366.73 894.16 366.72V366.72Z" fill="#ED9B6E"/>
<path d="M898.81 363.28C898.93 363.24 899.51 364.75 900.35 367.21C900.79 368.54 901.27 370 901.79 371.55C902.04 372.38 902.36 373.19 902.58 374.18C902.68 374.67 902.71 375.25 902.5 375.82C902.3 376.39 901.86 376.85 901.34 377.13C900.31 377.72 899.01 377.54 898.14 376.96C897.25 376.4 896.65 375.56 896.27 374.75C895.53 373.08 895.27 371.58 894.89 370.33C894.22 367.82 893.86 366.24 893.97 366.21C894.09 366.17 894.66 367.68 895.48 370.15C895.93 371.36 896.29 372.92 896.99 374.39C897.35 375.11 897.87 375.79 898.58 376.23C899.28 376.67 900.17 376.77 900.9 376.36C901.65 375.97 901.88 375.19 901.71 374.34C901.54 373.5 901.22 372.61 901 371.79L899.74 367.39C899.07 364.89 898.7 363.32 898.81 363.28V363.28Z" fill="#ED9B6E"/>
<path d="M916.92 430.11C916.7 430.02 917.45 427.73 918.6 425C919.75 422.27 920.87 420.14 921.09 420.24C921.31 420.33 920.56 422.62 919.41 425.35C918.26 428.07 917.14 430.2 916.92 430.11Z" fill="#263339"/>
<path d="M959.4 423.85C959.37 423.97 957.55 423.54 954.64 422.75C953.1 422.31 951.39 421.83 949.54 421.31C947.63 420.73 945.51 420.03 943.45 418.86C941.4 417.7 939.69 416.11 938.6 414.35C937.48 412.59 937.16 410.64 937.17 409.13C937.16 407.61 937.17 406.41 937.05 405.59C936.94 404.77 936.79 404.33 936.86 404.3C936.91 404.28 937.17 404.69 937.39 405.52C937.62 406.35 937.7 407.61 937.79 409.09C937.86 410.58 938.22 412.29 939.29 413.91C940.33 415.52 941.94 416.99 943.89 418.09C945.84 419.2 947.9 419.92 949.78 420.53C951.6 421.12 953.29 421.66 954.82 422.15C957.69 423.1 959.44 423.74 959.4 423.85V423.85ZM1038.75 489.55C1038.6 489.54 1038.78 488.02 1038.32 485.68C1037.88 483.33 1036.64 480.22 1034.58 477.18C1033.57 475.65 1032.5 474.25 1031.53 472.97C1030.54 471.7 1029.72 470.5 1028.85 469.74C1027.99 468.97 1027.06 468.69 1026.42 468.65C1025.77 468.61 1025.42 468.76 1025.39 468.69C1025.37 468.65 1025.69 468.38 1026.42 468.31C1027.13 468.23 1028.24 468.46 1029.25 469.26C1030.28 470.05 1031.15 471.24 1032.17 472.47C1033.18 473.72 1034.28 475.13 1035.32 476.7C1037.43 479.81 1038.65 483.12 1038.94 485.58C1039.26 488.05 1038.84 489.57 1038.75 489.55V489.55ZM1067.78 397.48C1067.77 397.51 1067.32 397.38 1066.46 397.1C1065.53 396.8 1064.29 396.41 1062.73 395.91C1059.5 394.97 1054.73 393.39 1048.7 393.45C1045.7 393.5 1042.42 394.14 1039.24 395.68C1036.05 397.2 1032.99 399.47 1029.91 402.04C1026.82 404.58 1023.72 407.5 1020 409.91C1016.31 412.29 1011.99 414.3 1007.2 414.53C1004.82 414.64 1002.43 414.14 1000.33 413.16C998.21 412.19 996.41 410.71 994.89 409.09C991.84 405.84 989.69 402.16 987.26 399C982.54 392.52 975.72 389.12 969.88 387.87C963.97 386.58 958.98 387.24 955.73 388.08C952.46 388.96 950.8 389.89 950.75 389.78C950.75 389.78 952.36 388.74 955.64 387.75C958.9 386.8 963.96 386.02 970.01 387.26C973.01 387.88 976.23 389 979.36 390.84C982.48 392.66 985.49 395.24 987.91 398.51C990.39 401.71 992.56 405.36 995.52 408.5C998.38 411.69 1002.61 413.89 1007.17 413.65C1011.71 413.44 1015.92 411.51 1019.54 409.19C1023.18 406.85 1026.27 403.96 1029.4 401.42C1032.51 398.86 1035.64 396.56 1038.93 395.03C1042.21 393.47 1045.63 392.85 1048.69 392.84C1054.87 392.87 1059.63 394.56 1062.84 395.6C1064.45 396.15 1065.69 396.62 1066.52 396.95C1067.36 397.27 1067.79 397.45 1067.78 397.48V397.48ZM1046.7 441.84C1046.66 441.94 1045.65 441.34 1043.65 441.14C1041.64 440.95 1038.72 441.53 1035.42 443.04C1032.11 444.49 1028.32 446.78 1023.64 448.21C1018.59 449.821 1013.32 450.588 1008.02 450.48C1002.39 450.38 997.07 449.25 992.51 447.54C987.93 445.85 984.12 443.61 981.13 441.47C978.15 439.3 976.01 437.23 974.61 435.73C974.069 435.158 973.552 434.564 973.06 433.95C972.72 433.53 972.56 433.3 972.58 433.28C972.64 433.23 973.39 434.08 974.85 435.49C976.909 437.493 979.13 439.322 981.49 440.96C984.48 443.01 988.27 445.16 992.79 446.78C997.29 448.42 1002.51 449.5 1008.04 449.6C1013.57 449.71 1018.83 448.86 1023.4 447.44C1028.01 446.08 1031.77 443.89 1035.18 442.47C1038.56 441.01 1041.62 440.49 1043.7 440.8C1045.75 441.12 1046.7 441.84 1046.7 441.84V441.84ZM1078.77 434.7C1078.82 434.72 1078.7 435.19 1078.35 435.98C1078 436.77 1077.41 437.89 1076.47 439.13C1074.65 441.59 1071.15 444.6 1066.41 445.59C1061.71 446.62 1057.38 445.86 1054.39 445.29C1051.38 444.66 1049.57 444.11 1049.59 444.01C1049.62 443.88 1051.48 444.21 1054.49 444.68C1057.48 445.09 1061.73 445.71 1066.21 444.73C1070.71 443.79 1074.08 441.03 1075.98 438.74C1077.92 436.42 1078.62 434.63 1078.77 434.7V434.7Z" fill="#9B9A9A"/>
<path d="M1039.06 405.25C1039.08 405.25 1039.16 405.52 1039.3 406.07C1039.45 406.67 1039.64 407.46 1039.88 408.47C1040.41 410.64 1041.16 413.7 1042.11 417.58C1044.06 425.42 1046.92 436.61 1050.51 450L1050.58 450.26L1050.36 450.41C1038.91 458.31 1025.35 467.66 1010.87 477.65C1008.79 479.082 1006.7 480.515 1004.62 481.95L1004.78 481.42C1007.89 489.23 1010.87 496.73 1013.66 503.72L1013.09 503.5C1029.47 495.41 1043.27 488.03 1052.97 482.69C1057.77 480.03 1061.6 477.9 1064.29 476.41C1065.57 475.7 1066.57 475.15 1067.31 474.74C1068 474.37 1068.36 474.18 1068.37 474.2C1068.38 474.22 1068.04 474.45 1067.38 474.86C1066.66 475.3 1065.68 475.89 1064.43 476.65C1061.84 478.19 1058.04 480.41 1053.22 483.14C1043.58 488.6 1029.83 496.09 1013.46 504.24L1013.06 504.44L1012.89 504.02C1010.09 497.04 1007.09 489.55 1003.97 481.74L1003.84 481.41L1004.13 481.21C1006.19 479.79 1008.28 478.36 1010.38 476.91C1024.89 466.96 1038.46 457.64 1049.94 449.77L1049.79 450.18C1046.27 436.76 1043.51 425.54 1041.69 417.67C1040.77 413.73 1040.11 410.63 1039.67 408.51C1039.47 407.49 1039.32 406.69 1039.2 406.08C1039.08 405.54 1039.04 405.25 1039.06 405.25V405.25Z" fill="#263339"/>
<path d="M1063.03 454C1062.87 454.18 1060.47 452.2 1056.86 451.11C1055.07 450.55 1053.39 450.27 1052.17 450.21C1050.95 450.13 1050.18 450.22 1050.15 450.08C1050.12 449.98 1050.88 449.67 1052.17 449.58C1053.46 449.48 1055.25 449.67 1057.13 450.26C1060.93 451.42 1063.24 453.84 1063.03 454V454Z" fill="#263339"/>
<path d="M865.16 636.71L872.17 622.15L899.52 635.11L889.48 656.51L887.73 655.81C879.98 652.65 848.57 639.2 844.25 635.28C839.44 630.93 865.16 636.71 865.16 636.71Z" fill="#EA505B"/>
<g opacity="0.5">
<path opacity="0.5" d="M879.68 651.61C881.15 649.51 883.43 647.99 885.93 647.43C888.43 646.87 891.04 647.19 893.27 648.47L889.65 656.12L879.68 651.61Z" fill="white"/>
</g>
<g opacity="0.4">
<path opacity="0.4" d="M852.4 634.29C852.4 634.29 843.14 632.78 843.52 634.6C843.9 636.42 875.14 651.21 889.49 656.52L889.74 655.89L853.16 638.96C853.15 638.96 853.96 635.11 852.4 634.29Z" fill="white"/>
</g>
<path d="M890.17 656.08C890.16 656.09 889.99 656.03 889.68 655.91L888.29 655.35C886.91 654.77 885.22 654.05 883.22 653.21C878.95 651.37 873.08 648.76 866.67 645.73C860.25 642.7 854.51 639.83 850.37 637.7C848.45 636.69 846.82 635.84 845.5 635.14C845.01 634.87 844.58 634.64 844.19 634.42C843.89 634.25 843.74 634.16 843.74 634.15C843.75 634.14 843.91 634.21 844.22 634.36C844.62 634.56 845.07 634.77 845.56 635.02C846.9 635.69 848.54 636.51 850.49 637.48C854.65 639.55 860.41 642.38 866.83 645.41C873.24 648.44 879.09 651.09 883.33 652.99C885.31 653.88 886.99 654.63 888.36 655.24C888.87 655.47 889.31 655.67 889.72 655.86C890.02 655.98 890.18 656.06 890.17 656.08V656.08Z" fill="#263339"/>
<path d="M946.58 724.85L946.25 708.69L976.51 707.88L977.24 731.51L975.37 731.68C967.03 732.37 932.93 734.59 927.31 733.05C921.03 731.33 946.58 724.85 946.58 724.85V724.85Z" fill="#EA505B"/>
<g opacity="0.5">
<path opacity="0.5" d="M966.26 731.57C966.62 729.03 967.97 726.64 969.95 725.01C971.93 723.38 974.4 722.48 976.96 722.62L977.19 731.08L966.26 731.57V731.57Z" fill="white"/>
</g>
<g opacity="0.4">
<path opacity="0.4" d="M934.11 728.46C934.11 728.46 925.17 731.3 926.33 732.76C927.49 734.21 962.04 733.26 977.24 731.51L977.17 730.84L936.89 732.29C936.89 732.29 935.87 728.49 934.11 728.46Z" fill="white"/>
</g>
<path d="M977.65 730.8C977.65 730.81 977.47 730.84 977.13 730.87C976.68 730.91 976.19 730.95 975.64 731C974.15 731.11 972.31 731.24 970.15 731.39C958.058 732.141 945.945 732.484 933.83 732.42C931.66 732.39 929.82 732.36 928.32 732.34C927.76 732.32 927.27 732.31 926.82 732.29C926.48 732.28 926.3 732.26 926.3 732.25C926.3 732.24 926.48 732.23 926.82 732.22C927.27 732.21 927.76 732.21 928.32 732.2C929.82 732.19 931.65 732.18 933.82 732.16C938.47 732.13 944.89 732.04 951.98 731.84C959.07 731.64 965.48 731.36 970.12 731.13C972.29 731.02 974.12 730.93 975.62 730.86C976.18 730.84 976.67 730.82 977.12 730.8C977.47 730.79 977.65 730.79 977.65 730.8V730.8ZM970.38 427.87C970.26 427.83 970.73 426.17 971.52 423.51C971.92 422.18 972.41 420.59 973.02 418.85C973.33 417.98 973.66 417.07 974.05 416.13C974.26 415.62 974.53 415.19 974.66 414.78C974.79 414.36 974.85 413.88 974.83 413.39C974.8 412.41 974.55 411.4 974.38 410.41C974.2 409.44 974.02 408.49 973.85 407.58C973.55 405.86 973.27 404.25 973.01 402.77C972.56 400.03 972.34 398.32 972.47 398.29C972.6 398.27 973.04 399.93 973.66 402.64C973.98 404.11 974.32 405.7 974.7 407.41C974.89 408.32 975.08 409.26 975.28 410.23C975.46 411.21 975.73 412.22 975.77 413.36C975.78 413.93 975.73 414.51 975.55 415.07C975.36 415.63 975.07 416.07 974.9 416.49C974.51 417.4 974.16 418.29 973.84 419.15C973.24 420.79 972.68 422.32 972.16 423.72C971.19 426.33 970.5 427.92 970.38 427.87V427.87Z" fill="#263339"/>
<g opacity="0.3">
<path opacity="0.3" d="M1037.45 400.51C1038.63 418.51 1040.44 438.73 1040.79 456.76C1043.56 455.51 1050.14 450.75 1050.14 450.08C1050.15 450.09 1041.55 419.91 1037.45 400.51V400.51Z" fill="#000100"/>
</g>
<path d="M1067.44 506.83C1067.44 506.83 943.36 480.84 931.34 486.53C919.33 492.22 863.93 629.16 863.93 629.16L901.3 642.89L952.03 529.27C952.03 529.27 1043.42 563.73 1058.59 560.58C1073.77 557.42 1067.44 506.83 1067.44 506.83V506.83Z" fill="#5957D9"/>
<path d="M1011.99 514.13C1010.09 514.76 938.32 544.27 933.26 553.75C928.2 563.23 940.63 720.72 940.63 720.72H981.45L978.92 580.75L1058.59 560.56L1011.99 514.13V514.13Z" fill="#5957D9"/>
<path d="M1059.01 560.89C1059 560.92 1058.6 560.87 1057.83 560.75C1056.97 560.6 1055.86 560.4 1054.49 560.16C1051.59 559.63 1047.41 558.8 1042.26 557.71C1031.96 555.53 1017.77 552.25 1002.32 547.81C994.6 545.57 987.3 543.24 980.71 540.98C974.15 538.64 968.26 536.46 963.41 534.38C960.97 533.39 958.79 532.41 956.89 531.55C954.98 530.7 953.34 529.94 952.03 529.27C950.78 528.64 949.78 528.14 949 527.74C948.31 527.38 947.96 527.18 947.97 527.15C947.98 527.12 948.37 527.27 949.08 527.57C949.88 527.92 950.91 528.37 952.18 528.94C953.51 529.56 955.17 530.27 957.1 531.07C959.02 531.89 961.21 532.82 963.66 533.77C968.53 535.76 974.42 537.88 980.99 540.16C988.137 542.565 995.336 544.815 1002.58 546.91C1018.01 551.33 1032.15 554.72 1042.41 557.06C1047.46 558.2 1051.59 559.13 1054.57 559.8C1055.93 560.11 1057.02 560.37 1057.87 560.56C1058.62 560.75 1059.01 560.86 1059.01 560.89V560.89ZM933.27 589.93C933.21 589.94 933.07 589.1 932.89 587.57C932.71 585.86 932.48 583.7 932.21 581.11C931.95 578.32 931.65 575.08 931.32 571.52C931.03 567.93 930.52 563.88 931.3 559.64C932.06 555.37 934.55 551.83 937.26 549.38C939.99 546.88 942.93 545.29 945.43 544.13C947.94 542.98 950.04 542.24 951.49 541.74C952.94 541.25 953.76 541.01 953.78 541.07C953.85 541.24 950.62 542.36 945.71 544.72C943.28 545.94 940.44 547.56 937.85 550.01C935.26 552.43 932.94 555.77 932.22 559.82C931.47 563.85 931.93 567.84 932.18 571.45C932.44 575.02 932.67 578.26 932.87 581.05C933.02 583.64 933.15 585.82 933.26 587.53C933.33 589.08 933.34 589.93 933.27 589.93V589.93Z" fill="#465B64"/>
<path d="M969.08 576.41C969.18 576.17 971.43 576.93 974.1 578.11C976.77 579.28 978.85 580.43 978.74 580.66C978.64 580.9 976.39 580.14 973.72 578.96C971.06 577.79 968.98 576.64 969.08 576.41Z" fill="#263339"/>
<path d="M972.68 572.1C972.93 571.99 974.06 574.26 975.93 576.71C977.78 579.18 979.65 580.88 979.48 581.1C979.34 581.3 977.12 579.86 975.19 577.28C973.24 574.71 972.45 572.18 972.68 572.1Z" fill="#263339"/>
<path d="M988.35 578.56C988.38 578.58 988.23 578.9 987.72 579.2C987.22 579.52 986.37 579.74 985.35 579.76C984.34 579.81 983.14 579.65 981.96 579.85C980.74 580.01 979.93 580.98 979.93 582.45C979.88 588.43 979.69 593.36 979.42 593.34C979.17 593.33 978.94 588.48 978.99 582.39C979.03 581.61 979.19 580.73 979.76 580.07C980.3 579.4 981.12 579.09 981.81 578.99C983.23 578.82 984.38 579.06 985.35 579.09C987.33 579.3 988.26 578.46 988.35 578.56V578.56Z" fill="#263339"/>
<path d="M980.74 290.36C974.54 292.36 967.33 296.49 970.91 315.9C972.48 324.44 974.48 333.15 980.2 339.67C981.07 340.66 982.21 341.69 983.52 341.5C984.45 341.37 985.18 340.64 985.81 339.95C992.32 332.86 997.86 324.48 999.62 315.02C1001.38 305.55 998.74 294.88 991.29 288.79" fill="#585856"/>
<path d="M992.64 374.67C992.44 365.74 992.05 356.15 992.05 356.15C992.05 356.15 978.46 354.44 977.88 340.57C977.29 326.7 977.15 302.41 977.15 302.41L1003.68 282.76L1022.32 308.4L1022.78 374.22C1022.84 382.59 1016.07 389.4 1007.71 389.4C999.52 389.39 992.83 382.86 992.64 374.67V374.67Z" fill="#F8BD9E"/>
<path d="M992.06 356.15C992.06 356.15 1001.15 356.41 1010.05 350.26C1010.05 350.26 1005.82 360.36 992.29 359.55L992.06 356.15V356.15Z" fill="#ED9B6E"/>
<path d="M1010 312.35C1012.47 312.29 1014.87 311.55 1016.75 309.94C1017.98 313.21 1017.95 316.84 1019.08 320.15C1020.2 323.46 1021.31 355.35 1024.77 354.83C1027.94 354.35 1031.73 322.35 1032.54 319.25C1034.78 310.67 1031.97 301.21 1026.27 294.43C1019.5 286.37 1008.21 279.5 997.71 280.25C993.05 280.58 988.36 281.94 984.7 284.83C984.7 284.83 979.04 289.2 979.51 294.77C980.17 302.54 991.49 307.54 999.28 307.3L1000.39 308.38C1002.97 310.87 1006.41 312.44 1010 312.35V312.35Z" fill="#585856"/>
<path d="M977.08 309.81C979.06 308.3 980.29 305.99 980.95 303.6C981.6 301.2 981.73 298.7 981.85 296.22C981.89 295.5 981.78 294.58 981.09 294.39C980.42 294.21 979.86 294.9 979.53 295.51C977.11 300.07 976.23 305.44 977.08 310.53C977.23 310.39 976.62 310.92 976.76 310.78" fill="#585856"/>
<path d="M111.39 386.58H189.21V543.53H111.39V386.58Z" fill="#465B64"/>
<path d="M115.01 543.17C108.3 543.17 102.87 537.73 102.87 531.03V398.73C102.87 392.02 108.31 386.59 115.01 386.59C121.72 386.59 127.15 392.03 127.15 398.73V531.03C127.15 537.73 121.71 543.17 115.01 543.17Z" fill="#465B64"/>
<path d="M121.35 392.9C121.37 392.9 121.39 393.03 121.42 393.29C121.45 393.6 121.49 393.98 121.54 394.44C121.63 395.53 121.75 397 121.9 398.86C122.18 402.78 122.58 408.33 123.07 415.14C123.98 428.96 125.22 447.92 126.59 468.87C127.89 489.87 129.12 508.85 129.8 522.64C130.06 529.55 129.22 535.2 127.78 538.82C127.11 540.64 126.34 541.95 125.81 542.81C125.54 543.19 125.32 543.5 125.14 543.76C124.99 543.97 124.9 544.07 124.89 544.06C124.77 543.99 126.21 542.33 127.46 538.7C128.78 535.1 129.51 529.52 129.18 522.66L125.72 468.93C124.45 447.98 123.3 429.01 122.46 415.18C122.09 408.36 121.79 402.81 121.57 398.88C121.49 397.01 121.42 395.53 121.37 394.45C121.36 393.99 121.35 393.61 121.34 393.3C121.33 393.03 121.33 392.9 121.35 392.9V392.9Z" fill="#263339"/>
<path d="M182.24 563.02H194.78V713.32H182.24V563.02ZM276.09 563.02H96.67C96.67 552.26 105.39 543.55 116.14 543.55H256.61C267.37 543.55 276.09 552.26 276.09 563.02V563.02Z" fill="#465B64"/>
<path d="M199.51 563.41C199.51 563.67 194.58 563.87 188.5 563.87C182.42 563.87 177.49 563.66 177.49 563.41C177.49 563.16 182.42 562.95 188.5 562.95C194.59 562.94 199.51 563.15 199.51 563.41Z" fill="#263339"/>
<path d="M243.38 726.94H241.61C241.61 697.51 217.67 673.56 188.23 673.56C158.8 673.56 134.85 697.51 134.85 726.94H133.08C133.08 696.53 157.82 671.79 188.23 671.79C218.64 671.78 243.38 696.52 243.38 726.94Z" fill="#465B64"/>
<path d="M133.96 734.2C138.527 734.2 142.23 730.497 142.23 725.93C142.23 721.363 138.527 717.66 133.96 717.66C129.393 717.66 125.69 721.363 125.69 725.93C125.69 730.497 129.393 734.2 133.96 734.2Z" fill="#263339"/>
<path d="M251.12 726.31C251.12 730.88 247.42 734.58 242.85 734.58C238.28 734.58 234.58 730.88 234.58 726.31C234.58 721.74 238.28 718.04 242.85 718.04C247.41 718.04 251.12 721.75 251.12 726.31ZM242.85 713.32C242.85 713.58 218.85 713.78 189.25 713.78C159.64 713.78 135.65 713.57 135.65 713.32C135.65 713.07 159.64 712.86 189.25 712.86C218.85 712.86 242.85 713.06 242.85 713.32Z" fill="#465B64"/>
<path d="M169.14 543.21C169.14 543.27 168.17 543.34 166.43 543.4C164.53 543.45 162.04 543.52 159.04 543.59C152.8 543.72 144.19 543.83 134.68 543.89C129.93 543.92 125.4 543.95 121.26 543.98C117.14 544.01 113.44 544.17 110.46 544.96C107.47 545.71 105.29 547.02 103.93 548.07C102.55 549.11 101.93 549.87 101.85 549.79C101.83 549.77 101.97 549.58 102.28 549.23C102.57 548.87 103.04 548.37 103.71 547.8C105.03 546.65 107.23 545.2 110.29 544.35C113.34 543.46 117.12 543.23 121.24 543.16C125.35 543.05 129.9 543.05 134.66 543C144.18 542.93 152.8 542.92 159.04 542.96C162.04 543 164.52 543.03 166.43 543.05C168.17 543.1 169.14 543.15 169.14 543.21V543.21Z" fill="#263339"/>
<path d="M163.85 379.07C173.19 379.07 180.94 372.97 181.07 344.59C181.1 338.88 180.91 333.94 180.91 333.94C180.91 333.94 194.39 332.71 195.37 319.65C196.36 306.59 195.61 276.26 195.61 276.26C180.57 268.82 162.93 270.1 148.97 279.34L146.9 280.71L147.54 344.93C147.63 353.95 154.65 379.07 163.85 379.07V379.07Z" fill="#B78775"/>
<path d="M180.94 333.76C180.94 333.76 172.46 333.92 163.85 327.86C163.85 327.86 167.37 337.52 180.76 337.15L180.94 333.76V333.76Z" fill="#AB6651"/>
<path d="M174.42 311.64C174.75 311.62 174.75 313.76 176.62 315.28C178.49 316.8 180.82 316.56 180.83 316.86C180.86 316.99 180.31 317.28 179.33 317.3C178.054 317.317 176.81 316.893 175.81 316.1C174.67 315.17 174.18 313.93 174.1 313.05C174.03 312.16 174.27 311.63 174.42 311.64V311.64Z" fill="#263339"/>
<path d="M196.03 273.74C195.83 271.71 195.06 269.75 194 268.04C194.82 266.13 194.67 263.77 193.3 262.18C191.38 259.94 187.58 259.82 185.4 261.76C185.36 261.75 185.33 261.73 185.29 261.72C185.94 260.57 185.44 258.87 184.34 258.01C183.06 257.02 181.33 256.89 179.72 256.92C176.72 256.97 169.63 259.35 164.19 261.38C163.84 261.44 163.49 261.5 163.15 261.57C158.92 262.42 154.02 264.13 150.74 266.93C146.65 270.42 144.36 275.47 142.97 280.67C141.58 285.86 141.56 291.32 142.62 300.14C144.25 298.69 149.98 295.07 150.84 297.07C151.33 298.21 151.17 299.51 151.28 300.74C151.39 301.97 151.96 303.36 153.15 303.68C154.12 303.94 155.16 303.38 155.73 302.55C156.3 301.72 156.47 300.69 156.55 299.7C156.88 295.63 155.86 291.51 156.51 287.48C157.15 283.51 159.46 279.83 162.76 277.53C166.07 275.23 170.32 274.35 174.26 275.14C176.7 275.63 179.06 276.73 181.55 276.63C185.13 276.49 188.78 273.92 192.01 275.47C192.65 275.78 193.29 276.07 193.9 276.43C195.12 277.15 195.72 277.85 196.02 277.21C196.24 276.74 196.14 274.87 196.03 273.74V273.74Z" fill="#3C3C3B"/>
<path d="M150.35 295.17C150.1 295.08 141.91 294.03 142.68 303.52C143.45 313 152.97 309.1 152.97 308.83C152.96 308.55 150.35 295.17 150.35 295.17Z" fill="#B78775"/>
<path d="M149.73 305.73C149.68 305.7 149.57 305.86 149.3 306.01C149.03 306.16 148.56 306.28 148.04 306.13C146.99 305.84 146 304.32 145.81 302.61C145.71 301.75 145.83 300.91 146.09 300.21C146.33 299.49 146.75 298.97 147.25 298.84C147.75 298.68 148.14 298.96 148.28 299.21C148.43 299.47 148.39 299.66 148.44 299.67C148.47 299.69 148.63 299.49 148.53 299.11C148.47 298.93 148.34 298.71 148.1 298.55C147.85 298.38 147.5 298.32 147.15 298.38C146.41 298.49 145.79 299.21 145.51 299.99C145.19 300.77 145.03 301.71 145.14 302.68C145.36 304.59 146.5 306.3 147.93 306.58C148.62 306.7 149.18 306.46 149.45 306.21C149.73 305.96 149.76 305.74 149.73 305.73V305.73Z" fill="#AB6651"/>
<path d="M240.48 694.76L247.87 684.41L219.43 664.5L207.66 680.48L209.29 681.88C216.59 688.04 246.84 712.71 253.07 715.04C260.02 717.63 240.48 694.76 240.48 694.76V694.76Z" fill="#5957D9"/>
<g opacity="0.5">
<path opacity="0.5" d="M249.72 706.33C249.72 706.33 256.18 714.85 254.16 715.41C252.13 715.96 220.65 692.16 207.66 680.47L208.16 679.9L244.66 707.97C244.65 707.97 248.07 705.19 249.72 706.33Z" fill="#5957D9"/>
</g>
<path d="M207.74 679.56C207.73 679.57 207.88 679.71 208.18 679.97C208.57 680.3 209 680.67 209.48 681.08C210.8 682.17 212.42 683.5 214.33 685.08C218.45 688.43 224.2 692.98 230.66 697.87C237.12 702.76 243.07 707.06 247.41 710.12C249.45 711.53 251.17 712.73 252.58 713.7C253.11 714.05 253.57 714.37 254 714.65C254.33 714.86 254.5 714.97 254.51 714.96C254.52 714.95 254.36 714.82 254.05 714.58C253.64 714.28 253.18 713.94 252.67 713.57C251.29 712.57 249.59 711.34 247.58 709.88C243.28 706.76 237.37 702.43 230.91 697.54C224.45 692.65 218.68 688.14 214.51 684.85C212.57 683.31 210.92 682.01 209.58 680.95L208.23 679.9C207.92 679.67 207.75 679.55 207.74 679.56V679.56Z" fill="#263339"/>
<g opacity="0.3">
<path opacity="0.3" d="M214.71 670.91L243.45 690.72L244.28 689.61L216.34 668.6L214.71 670.91Z" fill="#000100"/>
</g>
<path d="M378.49 727.55L375.83 715.42L342.79 722.97L346.65 741.96L348.73 741.7C357.97 740.45 395.64 734.69 401.41 731.71C407.85 728.38 378.49 727.55 378.49 727.55V727.55Z" fill="#5957D9"/>
<g opacity="0.5">
<path opacity="0.5" d="M392.93 728.44C392.93 728.44 403.34 729.34 402.41 731.17C401.48 733 363.63 740.22 346.66 741.97L346.57 741.23L390.79 733.18C390.79 733.18 391.01 728.88 392.93 728.44V728.44Z" fill="#5957D9"/>
</g>
<path d="M346.04 741.31C346.04 741.32 346.24 741.31 346.62 741.26C347.12 741.2 347.66 741.12 348.28 741.04C349.93 740.8 351.96 740.5 354.35 740.14C359.47 739.35 366.54 738.16 374.31 736.69C382.08 735.21 389.09 733.72 394.15 732.58C396.51 732.03 398.5 731.56 400.13 731.19C400.73 731.04 401.26 730.91 401.75 730.78C402.12 730.68 402.31 730.63 402.31 730.61C402.31 730.6 402.11 730.63 401.73 730.7C401.24 730.8 400.7 730.91 400.09 731.03C398.46 731.37 396.45 731.8 394.08 732.3C389.01 733.37 382 734.81 374.23 736.29C366.46 737.76 359.41 738.99 354.3 739.86C351.91 740.26 349.89 740.6 348.25 740.88C347.64 740.99 347.1 741.08 346.61 741.17C346.24 741.25 346.04 741.29 346.04 741.31V741.31ZM362.19 735.45C362.2 735.55 364.42 735.49 367.12 735C369.82 734.51 371.93 733.79 371.9 733.69C371.87 733.58 369.73 734.12 367.05 734.6C364.38 735.09 362.18 735.33 362.19 735.45V735.45ZM355.69 736.68C355.62 736.78 355.95 737.1 356.27 737.54C356.59 737.98 356.79 738.39 356.9 738.36C357.01 738.34 356.97 737.81 356.61 737.3C356.24 736.79 355.75 736.58 355.69 736.68V736.68ZM352.68 734.16C352.62 734.25 352.89 734.55 353.3 734.82C353.71 735.1 354.09 735.24 354.16 735.15C354.22 735.06 353.95 734.76 353.54 734.49C353.12 734.22 352.74 734.07 352.68 734.16ZM346.29 733.29C346.27 733.4 346.49 733.53 346.79 733.58C347.08 733.63 347.34 733.59 347.36 733.48C347.38 733.37 347.16 733.24 346.86 733.19C346.57 733.14 346.32 733.18 346.29 733.29Z" fill="#263339"/>
<g opacity="0.3">
<path opacity="0.3" d="M344.34 730.6L377.51 722.76L377.25 721.43L343.74 727.9L344.34 730.6Z" fill="#000100"/>
</g>
<path d="M292.48 433.29C292.48 432.68 298.16 427.3 299.09 426.99C300.02 426.68 316.6 419.77 316.91 420.54C317.22 421.31 319.21 425.09 315.83 426.89L313.22 427.76L322.74 428.53C322.74 428.53 333.34 436.36 333.19 438.05C333.04 439.74 331.65 440.82 330.73 440.05C329.81 439.28 333.19 445.43 333.19 445.43C333.19 445.43 333.19 448.04 331.81 447.58C330.43 447.12 328.28 444.66 328.28 444.66C328.28 444.66 330.28 447.89 329.66 448.5C329.05 449.11 325.97 449.27 325.67 448.5C325.36 447.73 324.9 446.35 324.9 446.35L323.06 446.5V449.02L294.95 449.88L292.48 433.29V433.29Z" fill="#AB6651"/>
<path d="M183.52 355.72L192.1 365.88L226.44 425.97L293.39 432.59L294.87 451.97L217.74 459.25L174.68 381.33L183.52 355.72Z" fill="#5957D9"/>
<path d="M190.3 385.03L183.66 359.96L183.52 351.8L146.25 334.88L139.09 343.78L139.95 344.23C137.02 347.31 115.32 370.76 116.61 388.04C117.78 403.62 150.6 501.81 150.6 501.81L225.39 479.95L190.3 385.03V385.03Z" fill="#5957D9"/>
<path d="M182.84 360.29L180.74 370.56L186.21 380.84V388.44L225.39 479.95L236.98 483.85L238.94 476C238.94 476 206.32 420.32 200.68 404.63C195.04 388.93 186.7 366.37 186.7 366.37L182.84 360.29V360.29Z" fill="#D8D8D8"/>
<path d="M123.36 406.41C123.36 407.38 190.91 472.66 190.91 472.66L282.17 454.8L279.25 435.31L216.93 437C210.12 437.27 204.7 435 200.54 429.6C187.17 412.24 158.2 374.6 157.45 373.61C156.48 372.31 123.36 406.41 123.36 406.41V406.41Z" fill="#5957D9"/>
<path d="M279.24 435.31C279.24 435.31 279.33 435.71 279.46 436.54C279.6 437.4 279.8 438.63 280.06 440.24C280.58 443.57 281.35 448.44 282.34 454.77L282.37 454.95L282.19 454.98C266.3 458.05 240.91 462.96 209.34 469.06L203.34 470.21C201.31 470.61 199.18 470.85 197.05 470.77C192.78 470.64 188.44 469.38 184.63 467.05C182.73 465.89 180.96 464.46 179.41 462.8C177.87 461.13 176.44 459.42 174.93 457.7C171.94 454.26 168.9 450.77 165.81 447.22C153.47 433.02 140.37 417.96 126.81 402.35L126.76 402.29L126.74 402.23C126.65 402.01 126.56 401.76 126.47 401.52C125.16 398.17 124.3 394.6 124.28 391.01C124.22 387.43 125.04 383.8 126.88 380.74C128.69 377.64 131.44 375.28 134.39 373.46C137.39 371.7 140.73 370.51 144.15 370.23C147.57 369.88 151.06 370.51 154.1 372C157.15 373.48 159.68 375.74 161.86 378.16C164.04 380.6 165.91 383.22 167.74 385.81C169.58 388.38 171.4 390.93 173.2 393.44C180.46 403.44 187.65 412.73 194.6 421.24C196.35 423.36 198.07 425.44 199.76 427.48C201.49 429.48 203.06 431.6 204.94 433.23C206.82 434.88 209.22 435.66 211.6 435.95C214 436.24 216.38 436.18 218.73 436.14C237.44 435.85 252.59 435.62 263.1 435.46C268.29 435.4 272.33 435.34 275.11 435.31C276.45 435.3 277.48 435.29 278.22 435.29C278.9 435.3 279.24 435.31 279.24 435.31C279.24 435.31 278.86 435.34 278.14 435.36C277.4 435.38 276.35 435.41 274.98 435.45C272.19 435.52 268.13 435.62 262.91 435.76C252.44 436 237.35 436.34 218.71 436.76C216.39 436.81 213.97 436.88 211.5 436.59C209.05 436.31 206.47 435.49 204.48 433.74C202.49 432.03 200.94 429.92 199.19 427.93C197.49 425.89 195.77 423.81 194.01 421.69C187.03 413.18 179.81 403.9 172.52 393.9C170.72 391.39 168.89 388.84 167.04 386.27C165.21 383.69 163.36 381.09 161.22 378.7C159.08 376.33 156.63 374.15 153.71 372.74C150.763 371.314 147.478 370.733 144.22 371.06C137.7 371.69 131.19 375.38 127.63 381.16C125.88 384.07 125.09 387.53 125.15 390.98C125.17 394.44 126 397.9 127.28 401.18C127.37 401.42 127.46 401.65 127.55 401.87L127.48 401.75C141.03 417.36 154.12 432.43 166.46 446.64C169.54 450.19 172.58 453.69 175.56 457.13C177.06 458.84 178.52 460.59 180.01 462.21C181.51 463.82 183.22 465.2 185.06 466.33C188.74 468.6 192.94 469.82 197.08 469.97C199.16 470.05 201.2 469.83 203.21 469.44C205.23 469.06 207.23 468.68 209.21 468.3C240.81 462.36 266.23 457.58 282.13 454.58L281.98 454.79C281.08 448.49 280.39 443.64 279.91 440.33C279.68 438.7 279.51 437.45 279.39 436.58C279.28 435.76 279.24 435.31 279.24 435.31V435.31Z" fill="#465B64"/>
<path d="M183.52 351.79C183.61 351.81 183.26 353.46 182.93 356.38C182.54 359.29 182.37 363.49 181.33 368.46L181.22 368.97L180.76 368.7C176.82 366.43 172.27 363.81 167.43 361.03C159.74 356.57 152.81 352.49 147.82 349.5C145.44 348.05 143.46 346.85 141.93 345.92C140.55 345.06 139.8 344.56 139.83 344.5C139.86 344.45 140.67 344.85 142.1 345.62C143.67 346.49 145.7 347.61 148.13 348.96C153.21 351.81 160.19 355.81 167.87 360.27L181.15 368.04L180.58 368.29C181.68 363.45 181.96 359.22 182.49 356.32C182.73 354.86 182.96 353.72 183.16 352.96C183.34 352.18 183.48 351.78 183.52 351.79V351.79Z" fill="#465B64"/>
<path d="M318.38 435.35L302.1 430.9L288.58 437.66H280.9L279.67 438.16L281.86 452.74L283.8 453.02C283.8 453.02 285.98 454.56 290.28 455.48C294.58 456.4 300.88 453.64 300.88 453.64L309.48 448.88L315.63 447.13L320.24 449.8C320.24 449.8 320.7 451.64 320.7 452.26C320.7 452.87 322.39 453.64 323.31 453.64C324.23 453.64 324.54 451.49 324.54 451.49L323.46 446.89L325.61 448.88H330.99V445.5L318.38 435.35V435.35Z" fill="#B78775"/>
<path d="M282.16 542.3L211.99 667.24L249.49 692.68L311.51 582.59L301.06 542.3H282.16Z" fill="#3C3C3B"/>
<path d="M150.6 501.81C150.6 501.81 142.55 535.75 164.41 542.66C186.27 549.56 299.99 553.16 299.99 553.16L342.26 727.73L378.44 722.59L347.24 535.5C346.118 529.107 343.059 523.213 338.477 518.616C333.894 514.019 328.01 510.941 321.62 509.8C287.9 503.77 226.8 492.71 225.97 491.46C224.82 489.73 220.22 479.95 220.22 479.95L150.6 501.81V501.81Z" fill="#3C3C3B"/>
<path d="M313.58 606.51C313.55 606.52 313.43 606.21 313.22 605.61C313 605.01 312.71 604.12 312.38 602.96C311.71 600.64 310.88 597.25 309.99 593.04C309.12 588.79 308.09 583.78 306.96 578.23C305.73 572.7 304.48 566.51 301.7 560.64C300.27 557.79 298.37 555.04 295.48 554.12C292.62 553.13 289.65 552.66 286.86 552.23C281.24 551.45 276.13 551.08 271.84 550.82C267.55 550.56 264.07 550.42 261.67 550.33C260.55 550.28 259.63 550.25 258.9 550.22C258.27 550.19 257.93 550.16 257.93 550.13C257.93 550.1 258.26 550.07 258.9 550.05C259.53 550.02 260.47 550 261.67 550C264.08 549.99 267.57 550.03 271.87 550.21C276.17 550.4 281.3 550.7 286.97 551.44C289.8 551.85 292.77 552.29 295.78 553.32C296.52 553.64 297.28 553.93 297.97 554.42C298.65 554.9 299.26 555.47 299.8 556.09C300.89 557.34 301.74 558.77 302.49 560.26C305.35 566.3 306.56 572.52 307.76 578.07C308.89 583.65 309.78 588.7 310.61 592.92C311.42 597.14 312.15 600.54 312.72 602.88C313.26 605.22 313.66 606.49 313.58 606.51V606.51Z" fill="#465B64"/>
<path d="M974.66 461.1L274.97 458.59L274.92 472L316.46 472.15L315.52 733.34L330.19 733.4L331.12 472.2L909.27 474.28L908.33 735.47L923 735.52L923.93 474.33L974.61 474.51L974.66 461.1Z" fill="#465B64"/>
<path d="M774.49 385.49L799.54 458.7H912.98L912.14 454.93L866.27 453.51L845.14 385.45L774.49 385.49Z" fill="white" stroke="#9C9C9C" stroke-miterlimit="10"/>
<path d="M824.75 419.87C825.5 422.87 824.21 425.81 821.88 426.43C819.55 427.05 817.05 425.13 816.3 422.13C815.55 419.13 816.84 416.19 819.17 415.57C821.51 414.95 824.01 416.87 824.75 419.87Z" fill="#E41D4D"/>
<path d="M459.87 384.06L434.81 457.27H321.37L322.21 453.5L368.08 452.08L389.21 384.02L459.87 384.06Z" fill="white" stroke="#9C9C9C" stroke-miterlimit="10"/>
<path d="M409.6 418.44C408.85 421.44 410.14 424.38 412.47 425C414.8 425.62 417.3 423.7 418.05 420.7C418.8 417.7 417.51 414.76 415.18 414.14C412.85 413.52 410.35 415.45 409.6 418.44Z" fill="#5957D9"/>
<path d="M519.606 433.891C520.838 426.319 515.699 419.182 508.127 417.95C500.556 416.718 493.419 421.857 492.187 429.429C490.955 437.001 496.094 444.137 503.666 445.37C511.237 446.602 518.374 441.462 519.606 433.891Z" fill="#465B64"/>
<path d="M460.55 426.17H551.25V459.32H460.55V426.17Z" fill="#E0DFDF"/>
<path d="M495.42 435.31C495.42 435.55 488.79 435.75 480.62 435.75C472.45 435.75 465.82 435.55 465.82 435.31C465.82 435.07 472.44 434.87 480.62 434.87C488.79 434.87 495.42 435.07 495.42 435.31ZM495.42 440.07C495.42 440.31 488.79 440.51 480.62 440.51C472.45 440.51 465.82 440.31 465.82 440.07C465.82 439.83 472.44 439.63 480.62 439.63C488.79 439.63 495.42 439.83 495.42 440.07ZM495.42 444.83C495.42 445.07 488.79 445.27 480.62 445.27C472.45 445.27 465.82 445.07 465.82 444.83C465.82 444.59 472.44 444.39 480.62 444.39C488.79 444.39 495.42 444.59 495.42 444.83ZM495.42 449.59C495.42 449.83 488.79 450.03 480.62 450.03C472.45 450.03 465.82 449.83 465.82 449.59C465.82 449.35 472.44 449.15 480.62 449.15C488.79 449.15 495.42 449.35 495.42 449.59ZM511.97 458.54C511.73 458.54 511.53 451.41 511.53 442.62C511.53 433.82 511.73 426.69 511.97 426.69C512.21 426.69 512.41 433.82 512.41 442.62C512.41 451.41 512.21 458.54 511.97 458.54V458.54Z" fill="#263339"/>
<path d="M1015.99 443.53C1008.44 443.53 1002.3 437.39 1002.3 429.84C1002.3 422.29 1008.44 416.15 1015.99 416.15C1023.54 416.15 1029.68 422.29 1029.68 429.84C1029.68 437.39 1023.54 443.53 1015.99 443.53ZM1015.99 419.92C1010.52 419.92 1006.07 424.37 1006.07 429.84C1006.07 435.31 1010.52 439.76 1015.99 439.76C1021.46 439.76 1025.91 435.31 1025.91 429.84C1025.91 424.37 1021.46 419.92 1015.99 419.92V419.92Z" fill="#9B9A9A"/>
<path d="M1102.55 741.66H111.8C108.57 741.66 105.95 739.8 105.95 737.5C105.95 735.21 108.57 733.34 111.8 733.34H1102.55C1105.78 733.34 1108.4 735.2 1108.4 737.5C1108.4 739.8 1105.78 741.66 1102.55 741.66Z" fill="#191830"/>
<path d="M464.55 243.14C464.55 245.61 464.13 247.99 463.35 250.26C459.44 261.64 446.37 270 430.85 270C415.33 270 402.27 261.64 398.36 250.26C397.58 247.99 397.16 245.61 397.16 243.14H464.55ZM501.41 128.02C501.41 88.59 469.87 56.61 430.95 56.56C392.57 56.5 361 87.83 360.31 126.7C360.01 143.7 365.57 159.38 375.09 171.79C387.13 187.5 393.81 206.74 393.81 226.62V226.97H467.9V226.62C467.9 206.71 474.63 187.47 486.67 171.72C495.91 159.65 501.41 144.48 501.41 128.02V128.02Z" fill="#C6C6C5"/>
<path d="M441.53 218.89C441.33 218.89 441.13 218.86 440.94 218.79C440.485 218.627 440.113 218.29 439.905 217.854C439.697 217.417 439.67 216.916 439.83 216.46C439.91 216.22 448.23 191.94 454.28 167.22C465 123.4 459.48 116.28 456.61 115.25C448.18 112.23 441.46 116.7 437.31 120.98C436.041 122.3 434.875 123.714 433.82 125.21C435.62 128.37 437.25 131.85 438.61 135.53C442.35 145.64 443.34 155.08 441.27 160.79C439.67 165.19 436.27 167.43 431.7 167.08C427.39 166.75 424.23 164.22 422.57 159.76C420.67 154.65 420.92 147.13 423.24 139.13C424.71 134.08 426.91 129.22 429.57 125.04C427.08 121.05 424.2 117.62 421.07 115.31C416.43 111.88 412.07 111.73 408.11 114.87C399.94 121.34 399.63 140.8 407.21 171.14C413.05 194.53 421.63 216.16 421.71 216.37C422.08 217.31 421.64 218.37 420.71 218.75C419.79 219.13 418.73 218.68 418.36 217.74C418.27 217.52 409.62 195.7 403.71 172.07C395.63 139.74 396.36 119.53 405.88 111.99C411.11 107.85 417.26 107.98 423.19 112.36C426.16 114.55 429.1 117.84 431.76 121.87C432.71 120.63 433.7 119.47 434.72 118.41C441.62 111.28 449.82 108.93 457.8 111.79C462.77 113.57 464.81 120.34 464.03 132.49C463.46 141.45 461.35 153.43 457.76 168.11C451.67 192.99 443.31 217.41 443.22 217.66C442.97 218.42 442.28 218.89 441.53 218.89V218.89ZM431.63 128.63C429.528 132.264 427.873 136.139 426.7 140.17C424.62 147.31 424.34 154.15 425.94 158.47C427.1 161.59 429.07 163.21 431.96 163.43C434.95 163.66 436.83 162.42 437.88 159.53C440.27 152.95 437.37 139.51 431.63 128.63Z" fill="white"/>
<path d="M461.82 245.47H399.9C392.65 245.47 386.77 239.52 386.77 232.17V231.27C386.77 223.93 392.65 217.97 399.9 217.97H461.82C469.07 217.97 474.95 223.92 474.95 231.27V232.17C474.95 239.52 469.07 245.47 461.82 245.47Z" fill="#C6C6C5"/>
<path d="M550.72 130.95H527.65C524.37 130.95 521.7 128.25 521.7 124.93C521.7 121.6 524.36 118.91 527.65 118.91H550.72C554 118.91 556.67 121.61 556.67 124.93C556.67 128.26 554.01 130.95 550.72 130.95ZM334.06 130.95H310.99C307.71 130.95 305.04 128.25 305.04 124.93C305.04 121.6 307.7 118.91 310.99 118.91H334.06C337.34 118.91 340.01 121.61 340.01 124.93C340 128.26 337.34 130.95 334.06 130.95ZM348.72 81.5199L330.36 67.37C327.75 65.36 327.24 61.58 329.23 58.93C329.697 58.3019 330.285 57.7731 330.958 57.3745C331.632 56.9759 332.379 56.7155 333.154 56.6085C333.929 56.5014 334.718 56.5499 335.475 56.751C336.231 56.9522 336.94 57.3019 337.56 57.78L355.92 71.93C358.53 73.94 359.04 77.72 357.05 80.37C356.583 80.998 355.995 81.5268 355.322 81.9254C354.648 82.324 353.902 82.5844 353.126 82.6914C352.351 82.7985 351.562 82.75 350.805 82.5489C350.049 82.3478 349.34 81.998 348.72 81.5199V81.5199ZM511.82 81.5199L530.18 67.37C532.79 65.36 533.3 61.58 531.31 58.93C530.843 58.3019 530.255 57.7731 529.582 57.3745C528.908 56.9759 528.162 56.7155 527.386 56.6085C526.611 56.5014 525.822 56.5499 525.065 56.751C524.309 56.9522 523.6 57.3019 522.98 57.78L504.62 71.93C502.01 73.94 501.5 77.72 503.49 80.37C503.957 80.9983 504.545 81.5272 505.218 81.926C505.892 82.3247 506.638 82.5852 507.414 82.6923C508.189 82.7993 508.978 82.7508 509.735 82.5495C510.491 82.3482 511.2 81.9982 511.82 81.5199V81.5199ZM348.72 175.81L330.36 189.96C327.75 191.97 327.24 195.75 329.23 198.4C329.697 199.028 330.285 199.557 330.958 199.955C331.632 200.354 332.379 200.614 333.154 200.721C333.929 200.828 334.718 200.78 335.475 200.579C336.231 200.378 336.94 200.028 337.56 199.55L355.92 185.4C358.53 183.39 359.04 179.61 357.05 176.96C356.583 176.332 355.995 175.803 355.322 175.405C354.648 175.006 353.902 174.746 353.126 174.638C352.351 174.531 351.562 174.58 350.805 174.781C350.049 174.982 349.34 175.332 348.72 175.81V175.81ZM511.82 175.81L530.18 189.96C532.79 191.97 533.3 195.75 531.31 198.4C530.843 199.028 530.255 199.557 529.582 199.955C528.908 200.354 528.162 200.614 527.386 200.721C526.611 200.828 525.822 200.78 525.065 200.579C524.309 200.378 523.6 200.028 522.98 199.55L504.62 185.4C502.01 183.39 501.5 179.61 503.49 176.96C503.957 176.332 504.545 175.803 505.218 175.404C505.892 175.005 506.638 174.745 507.414 174.638C508.189 174.531 508.978 174.579 509.735 174.78C510.491 174.982 511.2 175.332 511.82 175.81V175.81Z" fill="#B0B0B0"/>
</svg>
