<svg width="829" height="638" viewBox="0 0 829 638" fill="none" xmlns="http://www.w3.org/2000/svg">
<path d="M735.03 602.81C761.53 545.15 785.38 484.16 795.84 418.08C806.3 352.01 802.23 279.81 775.78 222.11C749.34 164.4 698.07 124.76 647.61 134.16C604.54 142.19 563.69 183.28 521.53 169.08C477.98 154.41 457.08 88.89 420.37 54.55C355.57 -6.09002 253.9 38.18 213.61 121.9C186.54 178.14 180.37 252.87 142.21 296.38C113.35 329.28 70.56 338.26 46.78 377.66C26.58 411.12 25.72 460.41 39.25 499.32C52.78 538.24 81.31 580.89 109.72 601.35L735.03 602.81Z" fill="#F3F3F3"/>
<path d="M621.05 578.43H177.18V583.63H621.05V578.43Z" fill="#575756"/>
<path opacity="0.59" d="M378.52 578.5L166.72 533.15L314.84 487.91L526.65 533.26L378.52 578.5Z" fill="url(#paint0_linear_5_10866)"/>
<path d="M287.09 563.15L263.5 555.08C261.09 554.26 259.39 551.53 259.24 547.78L282.83 555.85C282.98 559.6 284.68 562.33 287.09 563.15Z" fill="#424242"/>
<path d="M282.83 555.85L259.24 547.78C259.23 547.59 259.23 547.4 259.23 547.21L282.82 555.28C282.82 555.47 282.82 555.66 282.83 555.85Z" fill="#454545"/>
<path d="M292.11 143.51L268.52 135.44L439.54 81L463.13 89.07L292.11 143.51Z" fill="#4B4B4B"/>
<path d="M284.11 555.18L260.52 547.11L260.91 148.13L284.5 156.2L284.11 555.18Z" fill="#4B4B4B"/>
<path d="M284.5 156.2L260.91 148.13C260.91 147.84 260.92 147.55 260.94 147.26L284.53 155.33C284.51 155.62 284.5 155.91 284.5 156.2Z" fill="#454545"/>
<path d="M284.53 155.34L260.94 147.27C260.96 146.88 261 146.5 261.06 146.11L284.65 154.18C284.59 154.56 284.55 154.95 284.53 155.34Z" fill="#484748"/>
<path d="M284.65 154.18L261.06 146.11C261.11 145.76 261.17 145.4 261.25 145.06L284.84 153.13C284.76 153.47 284.7 153.82 284.65 154.18Z" fill="#4B4A4A"/>
<path d="M284.83 153.12L261.24 145.05C261.31 144.71 261.39 144.38 261.48 144.05L285.07 152.12C284.99 152.45 284.9 152.79 284.83 153.12Z" stroke="#4E4D4D" stroke-miterlimit="10"/>
<path d="M285.08 152.12L261.49 144.05C261.58 143.72 261.68 143.39 261.8 143.07L285.39 151.14C285.27 151.47 285.17 151.79 285.08 152.12Z" fill="#505050"/>
<path d="M285.38 151.15L261.79 143.08C261.91 142.75 262.03 142.42 262.17 142.09L285.76 150.16C285.63 150.48 285.5 150.81 285.38 151.15Z" fill="#535252"/>
<path d="M285.77 150.16L262.18 142.09C262.33 141.74 262.49 141.4 262.66 141.07L286.25 149.14C286.07 149.47 285.91 149.81 285.77 150.16Z" stroke="#565656" stroke-miterlimit="10"/>
<path d="M286.24 149.14L262.65 141.07C262.85 140.68 263.06 140.31 263.28 139.95L286.87 148.02C286.65 148.38 286.44 148.75 286.24 149.14Z" fill="#585858"/>
<path d="M286.88 147.79L263.29 139.72C263.59 139.24 263.92 138.78 264.26 138.35L287.85 146.42C287.5 146.85 287.18 147.31 286.88 147.79Z" fill="#5C5B5B"/>
<path d="M287.96 146.46L264.37 138.39C265.32 137.21 266.42 136.27 267.61 135.67L291.2 143.74C290.01 144.34 288.91 145.28 287.96 146.46Z" fill="#5E5F5F"/>
<path d="M291.09 143.93L267.5 135.86C267.83 135.69 268.18 135.55 268.52 135.44L292.11 143.51C291.76 143.62 291.42 143.76 291.09 143.93Z" fill="#5C5B5B"/>
<path d="M463.13 89.07C467.31 87.74 470.72 91.27 470.72 96.92L470.32 495.9C470.31 501.55 466.89 507.26 462.71 508.59L291.7 563.03C287.52 564.36 284.11 560.83 284.11 555.18L284.51 156.2C284.52 150.55 287.94 144.84 292.12 143.51L463.13 89.07Z" fill="white" stroke="#4B4B4B" stroke-width="0.75" stroke-miterlimit="10"/>
<path d="M434.7 485.39L338.75 514.17C319.35 519.99 299.84 505.47 299.84 485.22V184.14C299.84 170.79 308.6 159.02 321.38 155.19L417.33 126.41C436.73 120.59 456.24 135.11 456.24 155.36V456.44C456.25 469.79 447.49 481.56 434.7 485.39Z" fill="#ECECEC"/>
<path d="M432.65 274.49L319.44 310.98V288.64L432.65 252.14V274.49Z" fill="white"/>
<path d="M354.63 373.5V386.13C354.63 389.26 357.68 391.49 360.67 390.53L406.05 375.9C407.96 375.28 409.25 373.51 409.25 371.5V358.87C409.25 355.74 406.2 353.51 403.21 354.47L357.83 369.1C355.92 369.72 354.63 371.5 354.63 373.5Z" fill="#5957D9"/>
<path d="M432.65 312.47L319.44 348.97V326.62L432.65 290.13V312.47Z" fill="white"/>
<path d="M388.35 215.38C391.49 212.33 393.57 208.03 393.57 203.8C393.57 197.09 388.35 193.07 381.94 194.84C375.53 196.61 370.31 203.51 370.31 210.22C370.31 214.45 372.39 217.61 375.53 218.92C368.42 223.62 363.33 232.16 363.33 240.54L366.43 239.68C366.43 230.73 373.39 221.54 381.94 219.18C390.49 216.82 397.45 222.18 397.45 231.13L400.55 230.27C400.55 221.89 395.46 216.16 388.35 215.38ZM381.94 215.93C377.24 217.23 373.41 214.28 373.41 209.36C373.41 204.44 377.24 199.38 381.94 198.08C386.64 196.78 390.47 199.73 390.47 204.65C390.47 209.58 386.64 214.64 381.94 215.93Z" fill="#5957D9"/>
<path d="M381.94 244.93C366.27 249.25 353.51 239.43 353.51 223.04C353.51 206.65 366.26 189.79 381.94 185.47C397.61 181.15 410.37 190.97 410.37 207.36C410.36 223.75 397.61 240.61 381.94 244.93ZM381.94 189.12C368.2 192.91 357.01 207.69 357.01 222.07C357.01 236.45 368.19 245.06 381.94 241.27C395.69 237.48 406.87 222.7 406.87 208.32C406.86 193.94 395.68 185.33 381.94 189.12Z" fill="#5957D9"/>
<path d="M335.94 298.75C338.514 298.75 340.6 296.664 340.6 294.09C340.6 291.516 338.514 289.43 335.94 289.43C333.366 289.43 331.28 291.516 331.28 294.09C331.28 296.664 333.366 298.75 335.94 298.75Z" fill="#5957D9"/>
<path d="M351.34 293.6C353.914 293.6 356 291.514 356 288.94C356 286.366 353.914 284.28 351.34 284.28C348.766 284.28 346.68 286.366 346.68 288.94C346.68 291.514 348.766 293.6 351.34 293.6Z" fill="#5957D9"/>
<path d="M366.73 289.31C369.304 289.31 371.39 287.224 371.39 284.65C371.39 282.076 369.304 279.99 366.73 279.99C364.156 279.99 362.07 282.076 362.07 284.65C362.07 287.224 364.156 289.31 366.73 289.31Z" fill="#5957D9"/>
<path d="M382.12 284.16C384.694 284.16 386.78 282.074 386.78 279.5C386.78 276.926 384.694 274.84 382.12 274.84C379.546 274.84 377.46 276.926 377.46 279.5C377.46 282.074 379.546 284.16 382.12 284.16Z" fill="#5957D9"/>
<path d="M396.03 280.06C398.604 280.06 400.69 277.974 400.69 275.4C400.69 272.826 398.604 270.74 396.03 270.74C393.456 270.74 391.37 272.826 391.37 275.4C391.37 277.974 393.456 280.06 396.03 280.06Z" fill="#5957D9"/>
<path d="M411.42 274.91C413.994 274.91 416.08 272.824 416.08 270.25C416.08 267.676 413.994 265.59 411.42 265.59C408.846 265.59 406.76 267.676 406.76 270.25C406.76 272.824 408.846 274.91 411.42 274.91Z" fill="#5957D9"/>
<path d="M338.24 336.3C340.814 336.3 342.9 334.214 342.9 331.64C342.9 329.066 340.814 326.98 338.24 326.98C335.666 326.98 333.58 329.066 333.58 331.64C333.58 334.214 335.666 336.3 338.24 336.3Z" fill="#5957D9"/>
<path d="M353.63 331.15C356.204 331.15 358.29 329.064 358.29 326.49C358.29 323.916 356.204 321.83 353.63 321.83C351.056 321.83 348.97 323.916 348.97 326.49C348.97 329.064 351.056 331.15 353.63 331.15Z" fill="#5957D9"/>
<path d="M369.03 326.86C371.604 326.86 373.69 324.774 373.69 322.2C373.69 319.626 371.604 317.54 369.03 317.54C366.456 317.54 364.37 319.626 364.37 322.2C364.37 324.774 366.456 326.86 369.03 326.86Z" fill="#5957D9"/>
<path d="M384.42 321.71C386.994 321.71 389.08 319.624 389.08 317.05C389.08 314.476 386.994 312.39 384.42 312.39C381.846 312.39 379.76 314.476 379.76 317.05C379.76 319.624 381.846 321.71 384.42 321.71Z" fill="#5957D9"/>
<path d="M398.32 317.62C400.894 317.62 402.98 315.534 402.98 312.96C402.98 310.386 400.894 308.3 398.32 308.3C395.746 308.3 393.66 310.386 393.66 312.96C393.66 315.534 395.746 317.62 398.32 317.62Z" fill="#5957D9"/>
<path d="M413.72 312.46C416.294 312.46 418.38 310.374 418.38 307.8C418.38 305.226 416.294 303.14 413.72 303.14C411.146 303.14 409.06 305.226 409.06 307.8C409.06 310.374 411.146 312.46 413.72 312.46Z" fill="#5957D9"/>
<path d="M369.321 380.347C368.867 380.487 368.408 380.549 367.944 380.533C367.486 380.516 367.107 380.423 366.806 380.254L366.905 379.679C367.195 379.831 367.545 379.921 367.954 379.947C368.362 379.968 368.761 379.918 369.151 379.797C369.698 379.629 370.077 379.403 370.289 379.121C370.5 378.833 370.556 378.529 370.457 378.209C370.381 377.964 370.245 377.793 370.049 377.694C369.858 377.594 369.644 377.539 369.405 377.53C369.165 377.515 368.838 377.52 368.426 377.546C367.93 377.571 367.529 377.574 367.223 377.554C366.916 377.528 366.629 377.435 366.363 377.275C366.102 377.113 365.914 376.843 365.797 376.465C365.701 376.157 365.696 375.852 365.782 375.552C365.866 375.246 366.053 374.965 366.343 374.709C366.634 374.454 367.03 374.249 367.53 374.094C367.879 373.986 368.235 373.931 368.597 373.927C368.963 373.916 369.294 373.957 369.591 374.05L369.532 374.632C369.224 374.543 368.912 374.502 368.596 374.51C368.278 374.513 367.979 374.558 367.7 374.644C367.165 374.809 366.793 375.039 366.584 375.333C366.38 375.619 366.328 375.925 366.428 376.251C366.504 376.495 366.638 376.67 366.83 376.777C367.026 376.875 367.248 376.931 367.494 376.944C367.744 376.95 368.073 376.941 368.48 376.917C368.962 376.889 369.357 376.888 369.664 376.914C369.976 376.933 370.262 377.023 370.522 377.185C370.781 377.34 370.968 377.605 371.083 377.977C371.178 378.285 371.181 378.593 371.092 378.901C371.006 379.202 370.815 379.481 370.519 379.738C370.22 379.99 369.821 380.193 369.321 380.347ZM371.1 373.048L371.746 372.849L373.635 378.957L372.989 379.156L371.1 373.048ZM378.98 373.96L379.6 373.768L380.32 376.098C380.113 376.436 379.835 376.732 379.486 376.987C379.138 377.241 378.748 377.434 378.318 377.567C377.707 377.756 377.116 377.792 376.544 377.676C375.973 377.559 375.475 377.308 375.05 376.923C374.623 376.533 374.319 376.043 374.137 375.456C373.955 374.868 373.931 374.296 374.064 373.738C374.196 373.175 374.465 372.684 374.871 372.266C375.277 371.847 375.788 371.543 376.405 371.352C376.87 371.208 377.321 371.152 377.758 371.183C378.193 371.208 378.589 371.324 378.946 371.532L378.672 372.066C378.041 371.739 377.354 371.69 376.609 371.92C376.115 372.073 375.701 372.322 375.368 372.667C375.039 373.004 374.821 373.403 374.715 373.863C374.607 374.317 374.626 374.782 374.774 375.259C374.921 375.736 375.168 376.132 375.514 376.445C375.859 376.759 376.264 376.966 376.728 377.064C377.192 377.163 377.671 377.136 378.166 376.983C378.794 376.789 379.278 376.468 379.617 376.019L378.98 373.96ZM385.588 368.572L387.477 374.68L386.945 374.845L381.485 371.102L383.018 376.058L382.372 376.257L380.483 370.149L381.015 369.985L386.484 373.725L384.951 368.769L385.588 368.572ZM394.232 372.65C393.441 372.895 392.754 372.859 392.171 372.541C391.589 372.224 391.163 371.632 390.895 370.766L389.813 367.267L390.459 367.067L391.533 370.54C391.753 371.25 392.076 371.73 392.504 371.98C392.932 372.23 393.449 372.261 394.054 372.075C394.664 371.886 395.076 371.567 395.288 371.12C395.5 370.672 395.496 370.093 395.277 369.383L394.202 365.91L394.831 365.716L395.913 369.215C396.181 370.082 396.164 370.811 395.863 371.401C395.567 371.989 395.023 372.406 394.232 372.65ZM399.063 364.409C399.843 364.168 400.511 364.165 401.068 364.401C401.626 364.637 402.005 365.08 402.207 365.732C402.408 366.383 402.345 366.963 402.018 367.472C401.69 367.975 401.135 368.347 400.356 368.588L398.715 369.095L399.312 371.023L398.666 371.223L396.777 365.115L399.063 364.409ZM400.163 368.026C400.768 367.839 401.19 367.566 401.429 367.205C401.666 366.839 401.71 366.414 401.561 365.931C401.408 365.437 401.131 365.108 400.73 364.945C400.327 364.776 399.823 364.785 399.218 364.972L397.595 365.474L398.54 368.528L400.163 368.026Z" fill="#E9E8E4"/>
<path d="M438.39 495.86L334.32 526.23C313.28 532.37 292.11 517.05 292.11 495.68V178.05C292.11 163.97 301.61 151.55 315.48 147.5L419.55 117.13C440.59 110.99 461.76 126.31 461.76 147.68V465.31C461.76 479.4 452.26 491.81 438.39 495.86Z" stroke="#6F6F6E" stroke-width="0.25" stroke-miterlimit="10"/>
<path d="M526.64 563.54V553.86L543.98 553.74L544.12 568.36L543.05 568.44C538.27 568.75 518.7 569.2 515.5 568.21C511.93 567.11 526.64 563.54 526.64 563.54Z" fill="#5957D9"/>
<path d="M515.09 567.31C515.09 567.47 521.58 567.61 529.58 567.61C537.58 567.61 544.07 567.48 544.07 567.31C544.07 567.15 537.58 567.02 529.58 567.02C521.58 567.01 515.09 567.14 515.09 567.31Z" fill="#263239"/>
<path d="M526.34 565.52C526.48 565.44 526.36 564.93 525.99 564.43C525.62 563.92 525.17 563.66 525.05 563.77C524.93 563.89 525.17 564.31 525.51 564.78C525.85 565.24 526.19 565.59 526.34 565.52Z" fill="#263239"/>
<path d="M525.23 566.15C525.38 566.09 525.3 565.52 524.96 564.92C524.62 564.31 524.17 563.95 524.04 564.05C523.91 564.15 524.13 564.65 524.44 565.21C524.77 565.77 525.08 566.21 525.23 566.15Z" fill="#263239"/>
<path d="M538.85 567.26C538.92 567.31 539.18 567.05 539.55 566.63C539.93 566.21 540.42 565.61 541.07 565.11C541.71 564.61 542.42 564.36 542.95 564.29C543.48 564.22 543.82 564.3 543.85 564.22C543.88 564.16 543.56 563.92 542.93 563.88C542.31 563.84 541.44 564.07 540.71 564.65C539.98 565.22 539.51 565.9 539.21 566.4C538.91 566.88 538.78 567.22 538.85 567.26Z" fill="#263239"/>
<path d="M526.28 563.7C526.19 563.84 526.49 564.17 526.99 564.35C527.48 564.53 527.93 564.47 527.95 564.31C527.98 564.15 527.62 563.96 527.19 563.8C526.76 563.64 526.37 563.56 526.28 563.7Z" fill="#263239"/>
<path d="M526.56 562.76C526.54 562.92 527.01 563.06 527.59 563.07C528.18 563.08 528.64 562.95 528.63 562.79C528.62 562.63 528.16 562.49 527.6 562.48C527.04 562.47 526.57 562.6 526.56 562.76Z" fill="#263239"/>
<path d="M502.76 573.17V563.49L520.1 563.37L520.24 577.84L519.17 577.92C514.39 578.23 494.82 578.83 491.62 577.84C488.04 576.74 502.76 573.17 502.76 573.17Z" fill="#5957D9"/>
<path d="M491.2 576.96C491.2 577.12 497.69 577.25 505.69 577.25C513.69 577.25 520.18 577.12 520.18 576.96C520.18 576.8 513.69 576.66 505.69 576.66C497.69 576.66 491.2 576.8 491.2 576.96Z" fill="#263239"/>
<path d="M502.45 575.15C502.59 575.07 502.47 574.56 502.1 574.06C501.73 573.55 501.28 573.29 501.16 573.4C501.04 573.52 501.28 573.94 501.62 574.41C501.97 574.87 502.3 575.22 502.45 575.15Z" fill="#263239"/>
<path d="M501.34 575.78C501.49 575.72 501.41 575.15 501.07 574.55C500.73 573.94 500.28 573.58 500.15 573.68C500.02 573.78 500.24 574.28 500.55 574.84C500.88 575.4 501.19 575.84 501.34 575.78Z" fill="#263239"/>
<path d="M514.96 576.89C515.03 576.94 515.29 576.68 515.66 576.26C516.04 575.84 516.53 575.24 517.18 574.74C517.82 574.24 518.53 573.99 519.06 573.92C519.59 573.85 519.93 573.93 519.96 573.85C519.99 573.79 519.67 573.55 519.04 573.51C518.42 573.47 517.55 573.7 516.82 574.28C516.09 574.85 515.62 575.53 515.32 576.03C515.03 576.51 514.89 576.85 514.96 576.89Z" fill="#263239"/>
<path d="M502.4 573.33C502.32 573.47 502.61 573.8 503.11 573.98C503.6 574.16 504.05 574.1 504.07 573.94C504.1 573.78 503.74 573.59 503.31 573.43C502.87 573.27 502.48 573.19 502.4 573.33Z" fill="#263239"/>
<path d="M502.67 572.39C502.65 572.55 503.12 572.69 503.7 572.7C504.29 572.71 504.75 572.58 504.74 572.42C504.73 572.26 504.27 572.12 503.71 572.11C503.15 572.1 502.68 572.23 502.67 572.39Z" fill="#263239"/>
<path d="M417.47 316.51C417.93 316.04 419.06 316.26 419.06 316.26C419.06 316.26 418.86 314.94 419.07 314.3C419.28 313.66 420.72 313.78 420.72 313.78C420.72 313.78 420.81 313.16 420.68 312.17C420.65 311.92 420.79 311.74 421.02 311.6C421.7 311.19 423.18 311.21 423.18 311.21C424.07 310.59 420.48 305.64 419.16 304.06C417.85 302.5 418.07 301.25 419.25 301.25C420.06 301.25 424.24 306 425.52 307.6C426.8 309.19 430.22 313.63 430.33 310.09C430.45 306.55 431.89 303.87 432.79 303.42C433.69 302.96 434.66 304.03 434.16 305.02C433.76 305.81 433.5 307.35 433.36 308.5C433.24 309.45 433.28 310.42 433.49 311.36C434.09 314.01 434.73 315.73 435.03 316.47L435.12 316.42C435.12 316.42 460.15 340.1 461.95 341.79C463.57 343.31 496.09 339.99 502.61 339.31C504.39 339.11 507.03 338.76 509.31 338.86C512.14 338.98 512.64 339.38 515.47 339.42C524.13 339.53 531.35 340.37 536.72 341.26C543.21 342.34 548.54 346.9 550.55 353.09C557.13 373.34 572 421.27 574.65 448.2C576.74 452.07 579.07 456.6 580.02 459.14C581.86 464.09 581.42 464.26 580.79 464.37C579.12 464.67 577.22 455.79 576.5 457.93C575.79 460.08 580.11 468.53 578.36 468.78C576.07 469.1 574.25 459.76 574.03 458.98C573.82 458.22 572.67 458.48 572.9 459.17C573.23 460.17 576.46 470.72 574.21 471.06C572.97 471.25 572.83 469.01 572.83 469.01C572.83 469.01 570.55 458.92 569.49 459.11C568.42 459.31 569.56 465.28 570.08 467.27C570.6 469.23 569.87 470.28 568.79 469.78C568.06 469.44 566.3 463.4 565.82 461.42C565.34 459.44 564.14 454 562.52 457.16C560.9 460.32 558.45 462.15 557.44 462.19C556.43 462.23 556 460.85 556.88 460.17C557.59 459.62 558.47 458.34 559.1 457.35C559.62 456.53 559.99 455.64 560.2 454.7C561.01 451.08 561 448.98 561 448.98L561.19 447.82C558.62 435.27 551.22 398.45 540.59 374.93L536.21 383.82L534.31 390.4L546 418.84L496.22 418.19L503.64 389.98L494.62 360.56C484.86 360.77 459.8 361.13 455.59 359.28C450.34 356.97 423.17 323.17 423.17 323.17C421.33 321.73 419.47 320.18 418.09 318.82C418.09 318.81 416.47 317.52 417.47 316.51Z" fill="#F8BC9E"/>
<path d="M546.42 397.9C545 393.04 537.68 368.99 537.68 368.99C537.68 368.99 534.09 388.6 535.03 390.96C536.12 393.68 538.12 396.79 538.12 396.79C546.42 409.44 545.33 415.76 545.33 415.76L495.17 414.23C495.05 407.21 499.2 390.9 500.07 388.31C500.94 385.71 498.06 377.18 498.06 377.18C498.06 377.18 492.39 371.42 492.61 368.46C493.05 362.49 493.6 360.56 493.6 360.56L463.08 361.68L464.04 340.97L507.92 336.58C509.44 340.9 523.25 338.78 523.25 338.78C538.17 339.27 539.07 342.01 545.29 346.83C551.51 351.65 561.75 393.01 561.75 393.01L546.42 397.9Z" fill="#5957D9"/>
<path d="M516.75 393.01C516.75 393.09 517.76 393.15 519.39 393.14C521.02 393.13 523.28 393.03 525.76 392.78C528.24 392.53 530.47 392.18 532.07 391.86C533.67 391.55 534.65 391.28 534.63 391.2C534.61 391.12 533.61 391.24 532 391.45C530.39 391.66 528.16 391.94 525.69 392.19C523.22 392.44 520.99 392.6 519.36 392.72C517.75 392.84 516.75 392.92 516.75 393.01Z" fill="#263239"/>
<path d="M513.32 388.74C513.3 388.81 514.33 389.21 516.06 389.67C517.78 390.14 520.21 390.65 522.92 390.98C525.63 391.3 528.11 391.37 529.89 391.31C531.68 391.26 532.77 391.12 532.77 391.04C532.77 390.95 531.66 390.94 529.89 390.89C528.12 390.83 525.67 390.7 522.98 390.39C520.3 390.07 517.89 389.62 516.15 389.26C514.41 388.91 513.34 388.66 513.32 388.74Z" fill="#263239"/>
<path d="M496.44 369.71C496.36 369.73 496.49 370.7 496.78 372.27C497.07 373.83 497.53 375.98 498.11 378.34C498.69 380.7 499.28 382.82 499.74 384.34C500.21 385.86 500.54 386.79 500.62 386.77C500.7 386.75 500.5 385.78 500.14 384.23C499.71 382.46 499.22 380.44 498.68 378.2C498.13 375.97 497.62 373.94 497.19 372.18C496.8 370.64 496.52 369.7 496.44 369.71Z" fill="#263239"/>
<path d="M545.89 395.02C545.93 395.18 549.39 394.37 553.62 393.22C557.85 392.07 561.24 391.01 561.19 390.85C561.15 390.69 557.69 391.5 553.46 392.65C549.24 393.8 545.85 394.86 545.89 395.02Z" fill="#263239"/>
<path d="M493.04 360.29C493.04 360.32 493.5 360.37 494.34 360.28C495.17 360.19 496.38 360 497.79 359.46C499.2 358.93 500.8 358.05 502.29 356.72C503.78 355.39 505.12 353.57 505.97 351.42C506.84 349.27 507.12 347.04 506.98 345.04C506.85 343.05 506.32 341.25 505.43 339.99C504.55 338.71 503.38 338.1 502.57 337.88C502.16 337.77 501.83 337.74 501.6 337.75C501.38 337.76 501.26 337.78 501.26 337.8C501.26 337.86 501.73 337.83 502.49 338.1C503.24 338.37 504.3 339 505.08 340.22C506.62 342.64 507.05 347.06 505.41 351.19C504.59 353.26 503.33 355.01 501.91 356.31C500.49 357.61 498.97 358.51 497.62 359.07C494.91 360.2 493.02 360.17 493.04 360.29Z" fill="#263239"/>
<path d="M508.17 337.84C508.05 335.32 507.78 332.46 507.78 332.46C507.78 332.46 501.54 331.77 501.16 325.32C500.78 318.87 501.16 304 501.16 304L512.53 298.21L525.04 308.08L523.14 340.32L511.63 341.05C509.82 341.18 508.26 339.73 508.17 337.84Z" fill="#F8BC9E"/>
<path d="M507.05 320.23C507.03 320.23 507.03 320.35 507.15 320.51C507.27 320.66 507.52 320.83 507.87 320.83C508.59 320.8 509.29 319.99 509.55 319.02C509.68 318.52 509.68 318.02 509.58 317.59C509.5 317.16 509.26 316.73 508.9 316.62C508.73 316.56 508.55 316.56 508.42 316.63C508.29 316.7 508.21 316.8 508.16 316.89C508.08 317.08 508.14 317.2 508.16 317.19C508.19 317.19 508.18 317.08 508.27 316.96C508.36 316.84 508.57 316.72 508.81 316.85C509.05 316.96 509.21 317.26 509.28 317.66C509.35 318.05 509.34 318.5 509.23 318.94C509 319.82 508.4 320.53 507.86 320.6C507.59 320.63 507.37 320.53 507.25 320.43C507.11 320.31 507.07 320.22 507.05 320.23Z" fill="#EC9A6E"/>
<path d="M497.28 300.53C498.15 297.56 501.3 296.09 504.18 295.27C508.55 294.03 513.29 293.48 517.57 295.06C521.84 296.63 526.98 299.4 526.98 304.12C529.5 303.91 530.94 306.12 531.95 308.86C532.54 310.48 532.93 312.28 533.02 314.06L533.06 314.05C533.38 320.23 535.11 328.75 539.11 333.32C541.32 335.84 544.51 337.59 545.8 340.73C546.92 343.46 546.34 346.69 547.4 349.45C548.34 351.88 550.41 353.61 551.89 355.73C555.12 360.34 555.35 366.86 552.97 372.01C550.59 377.16 545.88 380.93 540.66 382.65C535.43 384.38 529.74 384.19 524.42 382.8C520.49 381.78 516.67 380.08 513.54 377.41C510.41 374.73 508.01 371.02 507.29 366.86C506.49 362.24 507.79 357.55 508.74 352.96C511.75 338.44 510.89 337.68 507.09 324.22C507 323.98 506.95 323.74 506.89 323.49C506.84 323.31 506.79 323.14 506.74 322.96H506.75C506.64 322.43 506.57 321.9 506.57 321.35C507.67 321.78 509 321.5 509.84 320.64C510.68 319.79 511 318.41 510.61 317.25C510.17 315.92 508.95 315.03 507.69 314.5C506.44 313.97 505.09 313.71 503.85 313.13C501.24 311.89 499.43 309.31 498.19 306.6C497.34 304.7 496.7 302.53 497.28 300.53Z" fill="#263239"/>
<path d="M506.6 320.5C506.56 320.48 506.34 320.9 506 321.62C505.66 322.33 505.21 323.34 504.71 324.5L504.62 324.72L504.86 324.74C505.24 324.77 505.62 324.81 506.01 324.84C506.8 324.89 507.46 324.99 508.22 324.98C508.34 324.96 508.48 324.85 508.51 324.72C508.55 324.6 508.54 324.5 508.53 324.41C508.5 324.23 508.46 324.1 508.42 323.95L508.22 323.15C507.97 322.17 507.79 321.57 507.74 321.58C507.69 321.59 507.78 322.21 507.97 323.2L508.13 324.01C508.19 324.28 508.29 324.69 508.14 324.66C507.58 324.64 506.77 324.54 506.03 324.49C505.64 324.46 505.26 324.43 504.88 324.4L505.02 324.64C505.5 323.48 505.91 322.45 506.19 321.71C506.49 320.97 506.64 320.52 506.6 320.5Z" fill="#E9505B"/>
<path d="M544.01 417.38C553.12 419.76 544.84 479.06 544.84 479.06L547.2 504.39C547.28 505.3 547.3 506.21 547.25 507.11L544.43 558.19C544.43 558.19 530.76 560.7 525.38 552.08V482.54L523.31 470.14L521.24 500.46C521.24 500.46 522.48 528.68 522.9 546.74C523.31 564.8 520.83 565.27 520.83 570.36C520.83 571.62 500.54 571.63 502.2 560.53C503.86 549.42 500.96 500.89 500.96 500.89C500.96 500.89 497.65 478.7 495.99 460.48C494.33 442.26 495.58 408.49 495.58 408.49L546.1 417.22" fill="#11394C"/>
<path d="M510.06 561.49C511.72 550.38 508.82 501.85 508.82 501.85C508.82 501.85 505.51 479.66 503.85 461.44C502.3 444.37 503.29 413.63 503.42 409.84L495.57 408.48C495.57 408.48 494.33 442.26 495.98 460.47C497.64 478.69 500.95 500.88 500.95 500.88C500.95 500.88 503.85 549.41 502.19 560.52C500.91 569.13 512.82 571.06 518.23 570.9C513.56 569.61 509.26 566.85 510.06 561.49Z" fill="#0F3444"/>
<defs>
<linearGradient id="paint0_linear_5_10866" x1="366.662" y1="503.97" x2="245.486" y2="681.279" gradientUnits="userSpaceOnUse">
<stop stop-color="#5957D9"/>
<stop offset="0.0625" stop-color="#5957D9"/>
<stop offset="0.130208" stop-color="#5957D9"/>
<stop offset="0.1502" stop-color="#5957D9"/>
<stop offset="0.1503" stop-color="#E51B4D"/>
<stop offset="0.1643" stop-color="#5957D9"/>
<stop offset="0.1644" stop-color="#774ABB" stop-opacity="0.999999"/>
<stop offset="0.1645" stop-color="#5957D9" stop-opacity="0.999999"/>
<stop offset="0.1646" stop-color="#5957D9" stop-opacity="0.999985"/>
<stop offset="0.1647" stop-color="#5957D9" stop-opacity="0.999964"/>
<stop offset="0.1648" stop-color="#5957D9" stop-opacity="0.999913"/>
<stop offset="0.1649" stop-color="#5957D9" stop-opacity="0.999787"/>
<stop offset="0.165" stop-color="#5957D9" stop-opacity="0.999474"/>
<stop offset="0.1651" stop-color="#5957D9" stop-opacity="0.998691"/>
<stop offset="0.1652" stop-color="#5957D9" stop-opacity="0.9737"/>
<stop offset="0.1653" stop-color="#5957D9" stop-opacity="0.971113"/>
<stop offset="0.1654" stop-color="#5957D9" stop-opacity="0.968765"/>
<stop offset="0.2185" stop-color="#5957D9" stop-opacity="0.8797"/>
<stop offset="0.2748" stop-color="#5957D9" stop-opacity="0.7803"/>
<stop offset="0.3333" stop-color="#5957D9" stop-opacity="0.6771"/>
<stop offset="0.3945" stop-color="#5957D9" stop-opacity="0.5691"/>
<stop offset="0.4594" stop-color="#5957D9" stop-opacity="0.4547"/>
<stop offset="0.5296" stop-color="#F4ECF2" stop-opacity="0.3309"/>
<stop offset="0.609" stop-color="#F5F5FA" stop-opacity="0.1909"/>
<stop offset="0.7172" stop-color="#F5F8FC" stop-opacity="0"/>
</linearGradient>
</defs>
</svg>
