<svg width="274" height="183" viewBox="0 0 274 183" fill="none" xmlns="http://www.w3.org/2000/svg">
<g clip-path="url(#clip0_1256_25206)">
<g opacity="0.9">
<path d="M33.5916 112.639C14.7076 64.0922 76.0891 36.0166 111.495 41.3841C125.557 43.5169 131.223 47.9298 145.115 42.7151C155.215 38.8967 160.355 27.1418 171.512 24.5453C195.975 18.8505 221.791 41.4059 227.666 62.0467C233.765 83.462 227.858 105.619 208.689 113.398C194.66 119.087 180.352 111.789 172.148 115.301C155.281 122.518 156.026 133.951 146.063 146.132C109.49 190.833 50.744 156.741 33.5916 112.639Z" fill="#7A73FF"/>
</g>
<path d="M33.5916 112.639C14.7076 64.0922 76.0891 36.0166 111.495 41.3841C125.557 43.5169 131.223 47.9298 145.115 42.7151C155.215 38.8967 160.355 27.1418 171.512 24.5453C195.975 18.8505 221.791 41.4059 227.666 62.0467C233.765 83.462 227.858 105.619 208.689 113.398C194.66 119.087 180.352 111.789 172.148 115.301C155.281 122.518 156.026 133.951 146.063 146.132C109.49 190.833 50.744 156.741 33.5916 112.639Z" fill="white"/>
<path d="M212.52 122.907H60.5709C60.0874 122.905 59.6241 122.714 59.2822 122.373C58.9403 122.033 58.7475 121.572 58.7461 121.09C58.7475 120.609 58.9403 120.148 59.2822 119.808C59.6241 119.467 60.0874 119.275 60.5709 119.274H212.52C213.004 119.275 213.467 119.467 213.809 119.808C214.151 120.148 214.344 120.609 214.345 121.09C214.344 121.572 214.151 122.033 213.809 122.373C213.467 122.714 213.004 122.905 212.52 122.907Z" fill="#94D1BB"/>
<path opacity="0.3" d="M212.528 122.907H176.958C176.474 122.905 176.011 122.714 175.669 122.373C175.327 122.033 175.134 121.572 175.133 121.09C175.134 120.609 175.327 120.148 175.669 119.808C176.011 119.467 176.474 119.275 176.958 119.274H212.528C213.012 119.275 213.475 119.467 213.817 119.808C214.159 120.148 214.352 120.609 214.353 121.09C214.352 121.572 214.159 122.033 213.817 122.373C213.475 122.714 213.012 122.905 212.528 122.907Z" fill="#2A7652"/>
<path d="M208.666 127.464H91.8047V140.124H208.666V127.464Z" fill="#263238"/>
<path opacity="0.1" d="M208.666 127.464H91.8047V140.124H208.666V127.464Z" fill="white"/>
<path d="M206.963 203.316H210.459L210.317 122.913H205.473L206.963 203.316Z" fill="#263238"/>
<path opacity="0.1" d="M206.963 203.316H210.459L210.317 122.913H205.473L206.963 203.316Z" fill="white"/>
<path d="M174.748 203.316H171.246L179.159 122.913H184.004L174.748 203.316Z" fill="#263238"/>
<path opacity="0.2" d="M174.748 203.316H171.246L179.159 122.913H184.004L174.748 203.316Z" fill="white"/>
<path d="M90.5804 203.316H94.0766L93.9342 122.913H89.0898L90.5804 203.316Z" fill="#263238"/>
<path opacity="0.1" d="M90.5804 203.316H94.0766L93.9342 122.913H89.0898L90.5804 203.316Z" fill="white"/>
<path d="M58.365 203.316H54.8633L62.7764 122.913H67.6207L58.365 203.316Z" fill="#263238"/>
<path opacity="0.2" d="M58.365 203.316H54.8633L62.7764 122.913H67.6207L58.365 203.316Z" fill="white"/>
<path d="M156.783 119.277H148.716L145.488 103.578H153.555L156.783 119.277Z" fill="#263238"/>
<path d="M167.488 116.042H132.493C132.221 116.045 131.951 115.992 131.7 115.886C131.45 115.78 131.224 115.623 131.038 115.426C130.852 115.228 130.708 114.994 130.617 114.739C130.526 114.484 130.489 114.212 130.509 113.942L131.846 91.8887C131.887 91.3237 132.14 90.7945 132.554 90.4057C132.968 90.0169 133.513 89.7967 134.082 89.7886H169.083C169.355 89.7865 169.624 89.8403 169.874 89.9467C170.124 90.0532 170.349 90.2099 170.536 90.4071C170.722 90.6043 170.865 90.8377 170.957 91.0927C171.048 91.3477 171.085 91.6187 171.067 91.8887L169.729 113.942C169.687 114.508 169.433 115.037 169.019 115.426C168.604 115.814 168.058 116.034 167.488 116.042Z" fill="#263238"/>
<path d="M166.933 116.042H131.938C131.666 116.045 131.396 115.992 131.146 115.886C130.895 115.78 130.67 115.623 130.483 115.426C130.297 115.228 130.154 114.994 130.063 114.739C129.971 114.484 129.935 114.212 129.954 113.942L131.292 91.8887C131.333 91.3237 131.585 90.7945 131.999 90.4057C132.413 90.0169 132.958 89.7967 133.527 89.7886H168.528C168.8 89.7865 169.069 89.8403 169.32 89.9467C169.57 90.0532 169.795 90.2099 169.981 90.4071C170.167 90.6043 170.311 90.8377 170.402 91.0927C170.493 91.3477 170.531 91.6187 170.512 91.8887L169.175 113.942C169.132 114.508 168.879 115.037 168.464 115.426C168.049 115.814 167.503 116.034 166.933 116.042Z" fill="#3C464C"/>
<path d="M131.937 114.954C131.815 114.955 131.694 114.931 131.582 114.884C131.47 114.837 131.369 114.768 131.284 114.681C131.202 114.591 131.139 114.485 131.098 114.37C131.058 114.254 131.041 114.132 131.049 114.01L132.386 91.9568C132.406 91.6657 132.535 91.3926 132.747 91.1909C132.958 90.9892 133.238 90.8733 133.531 90.8658H168.532C168.654 90.8639 168.776 90.8875 168.888 90.935C169.001 90.9826 169.102 91.0531 169.186 91.1419C169.269 91.2308 169.333 91.3361 169.374 91.4511C169.414 91.5661 169.43 91.6881 169.42 91.8095L168.083 113.863C168.063 114.155 167.935 114.428 167.723 114.63C167.511 114.832 167.231 114.948 166.937 114.954H131.937Z" fill="white"/>
<path opacity="0.2" d="M147.309 89.7886L149.583 97.5398L156.334 89.7886H147.309Z" fill="black"/>
<path d="M92.9144 70.9604C92.9692 71.3804 93.2322 71.6968 93.5117 71.675C93.7912 71.6531 93.9665 71.2931 93.9117 70.8731C93.8569 70.4531 93.5939 70.1367 93.3199 70.1585C93.0459 70.1804 92.865 70.5513 92.9144 70.9604Z" fill="#263238"/>
<path d="M93.375 71.5938C93.8684 72.6826 94.5061 73.7008 95.2711 74.6211C94.6683 75.2266 93.5668 74.9812 93.5668 74.9812L93.375 71.5938Z" fill="#A02724"/>
<path d="M91.5147 69.366C91.4731 69.3737 91.4303 69.3737 91.3887 69.366C91.3279 69.3395 91.2797 69.2907 91.2542 69.2297C91.2287 69.1688 91.2278 69.1003 91.2517 69.0387C91.3941 68.6754 91.6232 68.352 91.9191 68.0963C92.2151 67.8407 92.569 67.6606 92.9505 67.5714C92.9825 67.5659 93.0153 67.5668 93.047 67.574C93.0787 67.5812 93.1087 67.5946 93.1351 67.6133C93.1616 67.6321 93.1841 67.6559 93.2013 67.6833C93.2185 67.7108 93.2301 67.7413 93.2354 67.7732C93.2466 67.8383 93.2316 67.9051 93.1937 67.9592C93.1557 68.0133 93.0979 68.0504 93.0327 68.0623C92.7339 68.1342 92.4576 68.2784 92.2282 68.482C91.9988 68.6856 91.8234 68.9424 91.7175 69.2296C91.6973 69.267 91.6683 69.299 91.633 69.3227C91.5977 69.3465 91.5571 69.3613 91.5147 69.366Z" fill="#263238"/>
<path d="M80.4999 77.5667L83.7879 80.0758L88.2761 83.496C88.03 84.0099 87.8814 84.5647 87.8376 85.1324C87.6787 86.387 87.5198 87.3143 90.3201 88.0834C90.6175 88.1541 90.8883 88.3083 91.1001 88.5279C91.3119 88.7474 91.4558 89.0229 91.5147 89.3216C91.6243 90.0635 91.1695 90.958 88.5829 91.3999C86.0776 91.7725 83.5183 91.3387 81.2781 90.1617C80.1821 89.6162 80.1821 88.9616 80.6424 87.8543C82.0234 84.7069 81.3548 80.6922 80.4999 77.5667Z" fill="#B55B52"/>
<path d="M76.7266 88.8342C77.358 87.6249 77.8788 86.3616 78.2829 85.0595C78.2829 85.0595 86.6125 84.6068 89.3634 85.425C92.1144 86.2432 93.8242 89.7888 93.8242 89.7888L76.7266 88.8342Z" fill="#90DEC2"/>
<path d="M80.2064 95.0055C80.0036 95.6164 79.7789 96.3637 79.5652 97.051L78.946 99.1784C78.5624 100.597 78.1897 102.02 77.8993 103.439C77.5901 104.825 77.3541 106.227 77.1924 107.639C77.0234 108.935 76.983 110.245 77.0718 111.55C77.1041 112.102 77.1885 112.65 77.3239 113.186C77.3568 113.295 77.3842 113.415 77.4225 113.519L77.5321 113.813C77.5062 113.761 77.4769 113.71 77.4445 113.661C77.3885 113.581 77.3281 113.505 77.2636 113.432C77.193 113.347 77.112 113.272 77.0225 113.208C76.9129 113.132 76.8965 113.142 76.9184 113.17C77.0789 113.285 77.2516 113.382 77.4335 113.459C77.6801 113.568 77.9815 113.677 78.2829 113.781C78.9021 113.988 79.5871 114.179 80.2941 114.364C83.1217 115.073 86.207 115.624 89.2155 116.263L89.1168 120.043C87.5098 120.256 85.893 120.389 84.2725 120.441C82.6282 120.5 80.9819 120.473 79.3405 120.359C78.4713 120.301 77.606 120.196 76.7485 120.043C76.2991 119.961 75.8333 119.868 75.3401 119.732C74.7729 119.586 74.2221 119.383 73.6961 119.126C73.3068 118.94 72.9393 118.711 72.6001 118.445C72.36 118.254 72.1381 118.043 71.9371 117.812C71.8114 117.664 71.6943 117.509 71.5863 117.348C71.5315 117.255 71.4713 117.163 71.4219 117.07L71.3507 116.939L70.9726 116.17C70.8575 115.914 70.7643 115.663 70.6657 115.406C70.3199 114.451 70.0703 113.465 69.9204 112.461C69.3724 108.67 69.8053 105.288 70.3753 101.998C70.6821 100.362 71.0438 98.7256 71.4713 97.171C71.6905 96.3801 71.9206 95.5891 72.1672 94.8091C72.4138 94.0291 72.6769 93.2763 72.9947 92.4199L80.2064 95.0055Z" fill="#B55B52"/>
<path d="M75.1423 88.1589C80.3209 86.7953 83.3952 91.0172 81.6416 97.9775C79.888 104.938 79.3016 105.2 79.3016 105.2L68.6211 103.427C69.9363 96.6083 69.8322 89.5499 75.1423 88.1589Z" fill="#94D1BB"/>
<path d="M91.869 114.746L91.0634 114.676C88.7728 114.676 88.3782 115.297 86.9699 116.601L86.4219 119.47C90.1209 121.352 92.1046 119.285 92.1101 119.285H95.5351L94.3295 116.557C94.1191 116.064 93.78 115.636 93.3473 115.318C92.9146 115 92.4042 114.802 91.869 114.746Z" fill="#B55B52"/>
<path d="M79.0915 72.1339C80.0231 77.1032 80.3135 80.0596 83.1741 82.2797C87.4704 85.6126 93.3888 82.4433 93.9697 77.2722C94.4903 72.6193 92.8737 65.2718 87.7115 63.9681C86.5603 63.6851 85.3559 63.6954 84.2097 63.998C83.0635 64.3006 82.0123 64.8858 81.1533 65.6995C80.2943 66.5133 79.6551 67.5294 79.2947 68.6539C78.9344 69.7785 78.8645 70.9753 79.0915 72.1339Z" fill="#B55B52"/>
<path d="M88.9773 73.8644C92.5393 73.5808 91.4981 69.8443 90.3966 69.0643C92.068 68.4315 93.2188 65.7914 91.6132 63.9804C92.5558 61.5313 89.8596 58.5802 85.1304 59.0221C81.678 59.3385 81.2944 61.1549 81.2944 61.1549C81.2944 61.1549 77.157 60.724 75.4362 64.1223C73.9676 67.0351 75.7486 68.5897 75.7486 68.5897C75.7486 68.5897 72.6579 69.4843 73.5128 73.499C74.4224 77.83 77.7652 76.8264 77.7652 76.8264C77.7652 76.8264 77.0145 80.7974 81.5355 80.852C85.4427 80.9011 85.492 77.9882 85.492 77.9882C85.492 77.9882 90.5556 77.5191 88.9773 73.8644Z" fill="#263238"/>
<path d="M86.3254 74.1416C86.7248 75.2075 87.5053 76.0893 88.5174 76.618C89.8216 77.2835 90.819 75.9034 90.5888 74.4852C90.3806 73.2143 89.2682 71.5833 87.8927 71.5069C86.5172 71.4305 85.8377 72.8215 86.3254 74.1416Z" fill="#B55B52"/>
<path d="M100.328 129.879C100.328 129.879 137.148 133.152 138.102 143.696C140.02 165.149 142.963 185.833 142.963 185.833L135.471 188.561C135.471 188.561 126.303 164.996 126.424 148.196C115.804 145.212 87.8777 149.592 83.3128 141.437C79.2796 134.237 82.8196 129.066 82.8196 129.066L100.328 129.879Z" fill="#263238"/>
<path d="M134.911 190.27L144.238 187.134L143.833 182.906L133.316 186.277L134.911 190.27Z" fill="#C9F4E0"/>
<path d="M88.0968 129.291C88.0968 129.291 127.772 135.329 127.142 144.422C126.007 160.786 120.495 192.767 120.495 192.767L112.68 192.877C112.68 192.877 110.833 160.072 113.776 148.115C104.016 148.115 76.4846 147.777 72.7308 142.786C68.577 137.271 72.8459 128.603 72.8459 128.603L88.0968 129.291Z" fill="#263238"/>
<path d="M95.0874 87.6172C91.8925 86.9953 77.4856 87.1753 77.4856 87.1753C76.0455 87.1361 74.643 87.636 73.5553 88.5763C72.4676 89.5166 71.7738 90.8289 71.611 92.2537C71.1069 96.6775 73.9291 106.561 74.0277 111.602C74.1483 117.793 72.9591 120.302 72.8386 128.637L100.332 129.891C100.332 113.129 99.5974 99.2521 98.9343 92.5973C98.6987 90.2573 98.2822 88.2335 95.0874 87.6172Z" fill="#90DEC2"/>
<path opacity="0.3" d="M95.0874 87.6172C91.8925 86.9953 77.4856 87.1753 77.4856 87.1753C76.0455 87.1361 74.643 87.636 73.5553 88.5763C72.4676 89.5166 71.7738 90.8289 71.611 92.2537C71.1069 96.6775 73.9291 106.561 74.0277 111.602C74.1483 117.793 72.9591 120.302 72.8386 128.637L100.332 129.891C100.332 113.129 99.5974 99.2521 98.9343 92.5973C98.6987 90.2573 98.2822 88.2335 95.0874 87.6172Z" fill="#90DEC2"/>
<path d="M98.8427 92.8894C99.7031 95.835 100.569 98.8624 101.462 101.819C102.355 104.775 103.271 107.748 104.301 110.546C104.553 111.261 104.849 111.926 105.09 112.614L105.512 113.579L105.567 113.699V113.759V113.792V113.754C105.472 113.585 105.354 113.431 105.216 113.296C105.03 113.116 104.958 113.099 104.942 113.099C105.064 113.209 105.205 113.296 105.358 113.356C105.627 113.484 105.903 113.596 106.186 113.688C106.805 113.901 107.501 114.092 108.208 114.283C111.074 115.008 114.203 115.565 117.25 116.214L117.151 119.994C115.516 120.214 113.869 120.347 112.219 120.392C110.549 120.456 108.877 120.425 107.211 120.299C106.325 120.236 105.443 120.124 104.569 119.961C104.109 119.874 103.632 119.765 103.117 119.618C102.506 119.447 101.918 119.206 101.364 118.898C100.922 118.645 100.517 118.335 100.158 117.976C99.8841 117.695 99.6483 117.379 99.4565 117.038L99.2702 116.694L98.6509 115.527C98.2892 114.763 97.8947 113.994 97.5549 113.236C96.8809 111.703 96.289 110.186 95.6972 108.665C95.1054 107.143 94.6012 105.621 94.0916 104.093C93.0778 101.022 92.1626 97.9841 91.3516 94.8204L98.8427 92.8894Z" fill="#B55B52"/>
<path d="M91.0359 89.8504C94.7952 86.032 99.6012 88.1158 101.667 95.0106C103.733 101.905 103.36 102.407 103.36 102.407L93.2608 106.307C90.877 99.7398 87.189 93.7396 91.0359 89.8504Z" fill="#94D1BB"/>
<path d="M119.938 114.746L119.132 114.675C116.842 114.675 116.452 115.297 115.044 116.601L114.496 119.47C118.195 121.352 120.179 119.285 120.179 119.285H123.609L122.398 116.557C122.189 116.064 121.85 115.635 121.417 115.316C120.984 114.998 120.473 114.801 119.938 114.746Z" fill="#B55B52"/>
<path d="M74.0415 150.113H109.157C109.929 150.113 110.555 149.491 110.555 148.722V146.475C110.555 145.707 109.929 145.084 109.157 145.084H74.0415C73.2697 145.084 72.6441 145.707 72.6441 146.475V148.722C72.6441 149.491 73.2697 150.113 74.0415 150.113Z" fill="#74B69E"/>
<path d="M74.2048 206.112H72.6484L74.4404 150.113H76.594L74.2048 206.112Z" fill="#8AD3B8"/>
<path opacity="0.4" d="M74.2048 206.112H72.6484L74.4404 150.113H76.594L74.2048 206.112Z" fill="white"/>
<path d="M88.5166 206.112H90.0729L88.2864 150.113H86.1328L88.5166 206.112Z" fill="#90DEC2"/>
<path opacity="0.4" d="M88.5166 206.112H90.0729L88.2864 150.113H86.1328L88.5166 206.112Z" fill="#9FC1B5"/>
<path d="M94.6813 206.112H93.125L94.917 150.113H97.0706L94.6813 206.112Z" fill="#90DEC2"/>
<path opacity="0.4" d="M94.6813 206.112H93.125L94.917 150.113H97.0706L94.6813 206.112Z" fill="#9FC1B5"/>
<path d="M108.993 206.112H110.549L108.763 150.113H106.609L108.993 206.112Z" fill="#90DEC2"/>
<path opacity="0.4" d="M108.993 206.112H110.549L108.763 150.113H106.609L108.993 206.112Z" fill="#9FC1B5"/>
<g opacity="0.3">
<path d="M74.4361 150.113H76.5897L76.4856 152.491H74.3594L74.4361 150.113Z" fill="#A4ECD2"/>
<path d="M88.3577 152.491H86.2314L86.1328 150.113H88.281L88.3577 152.491Z" fill="#A4ECD2"/>
<path d="M97.0686 150.113L96.97 152.491H94.8438L94.9205 150.113H97.0686Z" fill="#A4ECD2"/>
<path d="M108.848 152.491H106.716L106.617 150.113H108.771L108.848 152.491Z" fill="#A4ECD2"/>
</g>
<path d="M213.17 81.6562H125.397C124.715 81.6632 124.039 81.5294 123.412 81.2632C122.784 80.9969 122.219 80.6041 121.752 80.1094C121.285 79.6147 120.926 79.029 120.698 78.3892C120.47 77.7494 120.378 77.0695 120.427 76.3924L123.775 21.0976C123.881 19.6809 124.515 18.3548 125.554 17.3805C126.592 16.4062 127.96 15.8544 129.387 15.8338H217.138C217.82 15.8267 218.496 15.9605 219.123 16.2268C219.751 16.493 220.316 16.8859 220.783 17.3806C221.25 17.8752 221.609 18.461 221.837 19.1008C222.065 19.7405 222.158 20.4205 222.108 21.0976L218.755 76.4142C218.646 77.8228 218.013 79.1405 216.981 80.1098C215.948 81.0791 214.59 81.6305 213.17 81.6562Z" fill="#90DEC2"/>
<path d="M137.148 69.9705L145.242 97.5333L169.256 69.9705H137.148Z" fill="#A3D9C5"/>
<path opacity="0.25" d="M208.891 59.3936H159.703C159.32 59.3976 158.941 59.3226 158.589 59.1734C158.237 59.0242 157.92 58.804 157.658 58.5267C157.396 58.2494 157.194 57.921 157.066 57.5623C156.938 57.2036 156.886 56.8223 156.913 56.4426L158.793 25.4487C158.852 24.6545 159.207 23.911 159.79 23.3647C160.372 22.8185 161.138 22.5092 161.938 22.4977H211.127C211.511 22.4895 211.892 22.5617 212.246 22.7094C212.599 22.8572 212.918 23.0773 213.181 23.3555C213.444 23.6337 213.645 23.9638 213.772 24.3244C213.899 24.685 213.948 25.068 213.916 25.4487L212.037 56.4426C211.978 57.2368 211.622 57.9803 211.04 58.5266C210.458 59.0728 209.691 59.3821 208.891 59.3936Z" fill="white"/>
<path opacity="0.25" d="M182.579 72.7687H133.385C133.003 72.772 132.624 72.6964 132.273 72.5469C131.922 72.3973 131.605 72.177 131.344 71.8998C131.082 71.6226 130.881 71.2945 130.753 70.9362C130.625 70.5778 130.574 70.197 130.601 69.8177L132.48 38.8238C132.539 38.0305 132.894 37.2878 133.475 36.7417C134.056 36.1956 134.821 35.8857 135.62 35.8728H184.814C185.198 35.8654 185.578 35.9381 185.931 36.0863C186.285 36.2344 186.603 36.4546 186.865 36.7327C187.127 37.0109 187.328 37.3407 187.454 37.7009C187.581 38.0611 187.63 38.4436 187.598 38.8238L185.719 69.8177C185.66 70.611 185.305 71.3538 184.724 71.8999C184.143 72.446 183.378 72.7559 182.579 72.7687Z" fill="white"/>
<g opacity="0.5">
<path d="M132.736 20.6396C132.726 21.0584 132.559 21.4585 132.268 21.7612C131.977 22.064 131.583 22.2476 131.163 22.276C130.963 22.2662 130.768 22.2147 130.59 22.1248C130.411 22.0349 130.254 21.9087 130.128 21.7544C130.002 21.6001 129.91 21.4211 129.858 21.229C129.806 21.0369 129.795 20.8361 129.826 20.6396C129.838 20.2215 130.006 19.8228 130.296 19.5206C130.587 19.2184 130.98 19.034 131.399 19.0032C131.598 19.013 131.793 19.0645 131.972 19.1544C132.15 19.2443 132.307 19.3705 132.434 19.5248C132.56 19.6791 132.652 19.8581 132.704 20.0502C132.756 20.2423 132.767 20.4431 132.736 20.6396Z" fill="white"/>
<path d="M138.101 20.6396C138.089 21.0581 137.922 21.4574 137.631 21.7599C137.341 22.0624 136.947 22.2464 136.528 22.276C136.328 22.2669 136.132 22.2159 135.953 22.1264C135.774 22.0369 135.616 21.9108 135.489 21.7563C135.363 21.6019 135.27 21.4227 135.218 21.2302C135.165 21.0378 135.154 20.8366 135.185 20.6396C135.198 20.2215 135.365 19.8228 135.656 19.5206C135.946 19.2184 136.339 19.034 136.758 19.0032C136.958 19.0131 137.153 19.0646 137.332 19.1544C137.51 19.2443 137.668 19.3703 137.794 19.5246C137.921 19.6788 138.014 19.8577 138.066 20.0498C138.119 20.2418 138.131 20.4428 138.101 20.6396Z" fill="white"/>
<path d="M143.513 20.6396C143.503 21.0584 143.336 21.4585 143.045 21.7612C142.754 22.064 142.36 22.2476 141.94 22.276C141.741 22.2662 141.545 22.2147 141.367 22.1248C141.189 22.0349 141.031 21.9087 140.905 21.7544C140.779 21.6001 140.687 21.4211 140.635 21.229C140.583 21.0369 140.572 20.8361 140.603 20.6396C140.616 20.2215 140.783 19.8228 141.074 19.5206C141.364 19.2184 141.757 19.034 142.176 19.0032C142.376 19.013 142.571 19.0645 142.749 19.1544C142.927 19.2443 143.085 19.3705 143.211 19.5248C143.337 19.6791 143.429 19.8581 143.481 20.0502C143.533 20.2423 143.544 20.4431 143.513 20.6396Z" fill="white"/>
</g>
<path opacity="0.3" d="M212.496 81.1401H124.745C124.044 81.1456 123.35 81.0068 122.706 80.7325C122.062 80.4581 121.482 80.0542 121.003 79.546C120.523 79.0379 120.154 78.4364 119.919 77.7795C119.684 77.1227 119.588 76.4245 119.638 75.729L122.991 20.4342C123.097 18.9828 123.745 17.6234 124.808 16.6247C125.872 15.6259 127.272 15.0602 128.734 15.0395H216.464C217.164 15.034 217.858 15.1728 218.502 15.4471C219.146 15.7214 219.726 16.1254 220.206 16.6335C220.685 17.1417 221.054 17.7431 221.289 18.4C221.524 19.0569 221.62 19.755 221.571 20.4506L218.223 75.7453C218.116 77.1936 217.47 78.5499 216.41 79.548C215.351 80.5462 213.955 81.114 212.496 81.1401ZM128.734 15.3177C127.34 15.3346 126.003 15.8721 124.988 16.8237C123.973 17.7754 123.354 19.0717 123.254 20.456L119.901 75.7508C119.852 76.4095 119.941 77.0711 120.163 77.6938C120.384 78.3164 120.733 78.8864 121.188 79.3679C121.642 79.8493 122.192 80.2317 122.802 80.4907C123.413 80.7497 124.07 80.8799 124.734 80.8728H212.496C213.89 80.8546 215.226 80.3167 216.241 79.3653C217.255 78.4139 217.875 77.1183 217.976 75.7344L221.324 20.4397C221.371 19.779 221.28 19.1157 221.056 18.492C220.833 17.8682 220.481 17.2975 220.024 16.816C219.567 16.3345 219.015 15.9527 218.402 15.6948C217.789 15.4369 217.129 15.3084 216.464 15.3177H128.734Z" fill="#263238"/>
<path d="M164.976 48.8084C164.604 49.5939 164.264 50.2648 163.88 50.9903C163.497 51.7158 163.113 52.3703 162.718 53.0522C161.913 54.4104 161.074 55.7795 160.176 57.056C159.723 57.7105 159.259 58.3596 158.784 59.0033C158.285 59.6361 157.814 60.2797 157.282 60.8961C156.245 62.1736 155.127 63.3834 153.934 64.5181C153.633 64.8126 153.304 65.0635 152.986 65.3744C152.671 65.6689 152.338 65.944 151.989 66.1981L150.936 66.9891L150.613 67.2127C150.47 67.303 150.322 67.3849 150.169 67.4582C149.868 67.6019 149.552 67.7117 149.227 67.7854C148.583 67.935 147.915 67.9402 147.269 67.8006C146.624 67.6609 146.018 67.38 145.495 66.9781C145.235 66.7745 144.998 66.5441 144.788 66.2908L144.64 66.0945L144.569 65.9963L144.541 65.9526L144.443 65.7781L144.048 65.069C143.928 64.8399 143.845 64.6217 143.747 64.398C143.401 63.575 143.119 62.7271 142.903 61.8616C142.521 60.2844 142.254 58.6821 142.103 57.0669C141.942 55.4939 141.873 53.913 141.894 52.3321C141.906 51.8836 142.078 51.454 142.38 51.1207C142.682 50.7874 143.093 50.5724 143.54 50.5145C143.987 50.4566 144.44 50.5595 144.818 50.8048C145.195 51.0501 145.472 51.4215 145.599 51.8521V51.9176C146.325 54.6977 147.224 57.4303 148.29 60.0997C148.534 60.6645 148.817 61.2113 149.139 61.7361C149.21 61.8452 149.281 61.9761 149.353 62.0689L149.561 62.3198L149.61 62.3852L149.583 62.3416L149.523 62.2598C149.437 62.148 149.337 62.0472 149.227 61.9598C149.008 61.7842 148.754 61.6576 148.481 61.5888C148.209 61.5314 147.927 61.5314 147.654 61.5888C147.512 61.6186 147.374 61.6644 147.243 61.7252C147.172 61.7252 147.111 61.7961 147.046 61.8289C146.98 61.8616 146.881 61.9434 146.952 61.8834L147.637 61.2179C147.868 61.0106 148.092 60.7597 148.317 60.5197C148.542 60.2797 148.772 60.0452 148.991 59.7888C150.798 57.6319 152.443 55.3457 153.912 52.9485C154.663 51.7321 155.403 50.4939 156.104 49.2393L157.162 47.352L158.165 45.5083L158.219 45.4101C158.695 44.5627 159.481 43.9309 160.414 43.6468C161.346 43.3627 162.353 43.4481 163.223 43.8853C164.094 44.3225 164.761 45.0776 165.086 45.993C165.411 46.9083 165.367 47.9131 164.965 48.7975L164.976 48.8084Z" fill="#263238"/>
<path d="M142.415 52.0998L139.746 50.578L142.618 47.6597C143.459 48.2804 144.239 48.98 144.947 49.7488C145.113 49.9248 145.236 50.1371 145.306 50.3688C145.375 50.6005 145.389 50.8452 145.346 51.0832C145.304 51.3212 145.206 51.546 145.06 51.7396C144.915 51.9332 144.726 52.0902 144.508 52.198C144.177 52.3508 143.814 52.4217 143.449 52.4046C143.085 52.3875 142.73 52.283 142.415 52.0998Z" fill="#FFC3BD"/>
<path d="M139.129 47.4577L140.581 46.4268C140.77 46.2902 141.005 46.233 141.236 46.2677C141.467 46.3024 141.674 46.4262 141.814 46.6122L142.609 47.665L139.737 50.5833L138.833 48.5323C138.751 48.3466 138.736 48.1384 138.789 47.9427C138.843 47.7471 138.963 47.5758 139.129 47.4577Z" fill="#FFC3BD"/>
<path d="M159.236 46.3778C159.454 45.6651 159.865 45.0258 160.424 44.5302C160.982 44.0346 161.668 43.7019 162.404 43.5687C163.468 43.3347 164.546 43.1707 165.632 43.0777C168.9 42.9508 172.173 43.009 175.435 43.2523C177.145 43.3668 178.893 43.6068 180.285 43.8359H180.334C181.072 43.9576 181.73 44.3654 182.166 44.9697C182.601 45.574 182.778 46.3256 182.658 47.0597C181.973 50.998 179.962 57.8492 179.743 64.3131C179.452 72.8006 179.584 77.6881 179.436 79.7336L157.488 79.3136C155.959 58.5692 157.861 51.0744 159.236 46.3778Z" fill="white"/>
<path d="M180.917 43.5176H180.846C179.377 43.2776 177.558 43.0212 175.733 42.9012L174.757 42.8467C173.798 46.7959 168.083 53.4398 166.351 63.5093C165.683 55.0926 165.167 46.2941 166.148 42.863C164.597 42.91 163.05 43.0393 161.512 43.2503C160.699 43.4334 159.949 43.8277 159.339 44.393C158.729 44.9583 158.28 45.6745 158.038 46.4686C156.69 50.4179 154.114 59.2655 155.698 81.019H180.089C180.248 78.8371 179.678 74.2551 180.561 67.2021C181.41 60.3728 182.632 51.0779 183.35 46.9268C183.479 46.1539 183.295 45.3618 182.839 44.7231C182.384 44.0844 181.692 43.6511 180.917 43.5176Z" fill="#263238"/>
<path opacity="0.2" d="M165.823 79.8738C165.786 79.8753 165.75 79.8625 165.722 79.8381C165.695 79.8137 165.678 79.7795 165.675 79.7429C165.16 73.6063 166.124 64.7969 166.135 64.7041C166.137 64.6855 166.143 64.6674 166.152 64.6509C166.161 64.6345 166.173 64.62 166.188 64.6083C166.203 64.5967 166.22 64.588 166.238 64.5829C166.256 64.5779 166.275 64.5764 166.294 64.5787C166.332 64.5828 166.367 64.6017 166.392 64.6312C166.417 64.6607 166.429 64.6987 166.426 64.7369C166.426 64.8242 165.45 73.6117 165.965 79.7156C165.967 79.7347 165.966 79.754 165.96 79.7724C165.955 79.7908 165.946 79.808 165.933 79.8227C165.921 79.8375 165.906 79.8497 165.889 79.8585C165.872 79.8672 165.853 79.8725 165.834 79.8738H165.823Z" fill="white"/>
<path opacity="0.3" d="M180.058 52.1473C179.154 56.2275 179.636 61.8786 180.606 67.0333C181.324 61.2459 182.305 53.7347 183.023 49.0872C182.02 48.4217 180.776 48.8909 180.058 52.1473Z" fill="black"/>
<path d="M166.096 43.0358C168.94 42.414 169.434 40.6684 169.231 38.7375C169.181 38.255 169.102 37.776 168.995 37.3029L172.546 34.4119L175.16 32.2954C174.448 35.4264 173.664 41.1376 175.812 43.2704C175.812 43.2704 174.059 46.1341 169.182 45.785C165.061 45.4904 166.096 43.0358 166.096 43.0358Z" fill="#FFC3BD"/>
<path d="M170.414 45.0703L169.625 45.8122L172.146 46.7558L171.817 45.8012L170.414 45.0703Z" fill="#E0E0E0"/>
<path d="M172.347 48.0815C172.347 48.0815 171.355 45.5887 170.418 45.0596C172.261 44.6221 173.949 43.6923 175.301 42.3704L176.797 42.9649C176.797 42.9649 177.268 45.8559 172.347 48.0815Z" fill="#F5F5F5"/>
<path d="M169.033 44.8699L169.625 45.8081L166.973 46.0372L167.504 45.2026L169.033 44.8699Z" fill="#E0E0E0"/>
<path d="M165.642 47.3763C166.614 46.3458 167.763 45.4961 169.034 44.8671C167.593 44.4417 167.505 42.467 167.505 42.467L166.108 42.7343C166.108 42.7343 163.543 45.2162 165.642 47.3763Z" fill="#F5F5F5"/>
<path opacity="0.2" d="M168.992 37.3148C169.099 37.7898 169.177 38.2707 169.228 38.7548C170.554 38.5148 172.33 37.1184 172.516 35.782C172.579 35.3339 172.592 34.8801 172.554 34.4292L168.992 37.3148Z" fill="black"/>
<path d="M164.685 23.0321C163.413 24.5867 163.534 30.2105 166.225 30.276C168.915 30.3414 166.997 20.1956 164.685 23.0321Z" fill="#263238"/>
<path d="M176.268 27.1324C176 31.3926 176.055 33.8963 173.896 36.1C170.651 39.411 165.391 37.5073 164.377 33.269C163.473 29.4507 164.065 23.1286 168.246 21.3995C169.159 21.0105 170.157 20.8628 171.145 20.9705C172.132 21.0781 173.074 21.4376 173.881 22.0141C174.688 22.5907 175.332 23.3647 175.75 24.2613C176.168 25.158 176.347 26.1469 176.268 27.1324Z" fill="#FFC3BD"/>
<path d="M174.167 23.5867C171.476 26.2432 174.972 28.1905 173.619 29.6197C176.156 30.9397 175.224 31.9107 175.224 31.9107C174.961 32.6369 174.961 33.4317 175.224 34.158C178.085 33.4271 183.395 23.9685 177.597 22.5176C174.128 24.0558 174.167 23.5867 174.167 23.5867Z" fill="#263238"/>
<path d="M175.27 25.4911C172.722 25.8838 169.516 24.6728 167.527 23.6473C165.537 22.6219 165.247 24.5583 165.981 25.1474C164.704 25.191 163.088 24.1874 163.488 21.9455C163.855 19.8999 166.546 17.9635 170.376 19.6927C173.089 20.9145 176.432 19.3054 177.736 20.7181C179.04 22.1309 176.969 25.2238 175.27 25.4911Z" fill="#263238"/>
<path d="M177.008 22.7216C178.718 22.498 178.789 21.4234 178.312 19.5415C180.159 22.1543 179.408 22.9562 178.312 23.5889C177.09 23.1798 177.008 22.7216 177.008 22.7216Z" fill="#263238"/>
<path d="M177.418 30.3888C177.039 31.2222 176.378 31.8961 175.55 32.2926C174.492 32.7671 173.955 31.7962 174.24 30.6561C174.497 29.6252 175.336 28.1415 176.432 28.1524C177.528 28.1633 177.895 29.3361 177.418 30.3888Z" fill="#FFC3BD"/>
<path d="M169.581 28.3998C169.581 28.7434 169.395 29.0271 169.17 29.0325C168.946 29.038 168.781 28.7543 168.781 28.3998C168.781 28.0452 168.968 27.7725 169.192 27.7725C169.417 27.7725 169.581 28.0507 169.581 28.3998Z" fill="#263238"/>
<path d="M165.662 28.4497C165.662 28.7988 165.476 29.077 165.245 29.0825C165.015 29.0879 164.834 28.8043 164.84 28.4552C164.845 28.1061 165.021 27.8279 165.251 27.8279C165.481 27.8279 165.662 28.1061 165.662 28.4497Z" fill="#263238"/>
<path d="M167.144 28.5598C166.734 29.6222 166.181 30.6242 165.5 31.5381C165.736 31.7032 166.005 31.8154 166.289 31.8672C166.573 31.919 166.864 31.9091 167.144 31.8381V28.5598Z" fill="#ED847E"/>
<path d="M168.524 32.7701C168.922 32.7258 169.306 32.5996 169.652 32.3996C169.998 32.1996 170.299 31.9301 170.535 31.6083C170.55 31.5859 170.555 31.5586 170.549 31.5325C170.543 31.5064 170.527 31.4837 170.505 31.4692C170.482 31.4547 170.455 31.4498 170.429 31.4554C170.403 31.461 170.38 31.4768 170.365 31.4992C170.101 31.8422 169.761 32.1193 169.371 32.3087C168.981 32.498 168.552 32.5944 168.118 32.5901C168.105 32.5901 168.092 32.5928 168.079 32.5981C168.067 32.6034 168.056 32.6111 168.047 32.6208C168.037 32.6305 168.03 32.642 168.026 32.6545C168.021 32.6671 168.019 32.6804 168.02 32.6938C168.02 32.7071 168.022 32.7204 168.028 32.7327C168.033 32.7449 168.041 32.756 168.05 32.7652C168.06 32.7744 168.072 32.7815 168.084 32.7861C168.097 32.7907 168.11 32.7927 168.124 32.792C168.266 32.7702 168.398 32.7701 168.524 32.7701Z" fill="#263238"/>
<path d="M171.491 27.0384C171.526 27.0365 171.559 27.0231 171.585 27.0003C171.607 26.9847 171.625 26.9648 171.639 26.9418C171.653 26.9188 171.662 26.8933 171.665 26.8667C171.669 26.8401 171.667 26.8131 171.66 26.7873C171.653 26.7615 171.64 26.7374 171.623 26.7166C171.435 26.4583 171.188 26.2484 170.902 26.1042C170.616 25.96 170.3 25.8857 169.979 25.8875C169.953 25.8895 169.927 25.8968 169.903 25.909C169.88 25.9212 169.859 25.9379 169.842 25.9583C169.825 25.9787 169.813 26.0022 169.805 26.0275C169.797 26.0529 169.795 26.0794 169.798 26.1057C169.804 26.1602 169.83 26.2104 169.872 26.246C169.914 26.2816 169.968 26.2997 170.023 26.2966C170.277 26.2942 170.529 26.3536 170.755 26.4695C170.981 26.5855 171.176 26.7545 171.322 26.9621C171.342 26.9874 171.368 27.0075 171.397 27.0208C171.427 27.0341 171.459 27.0402 171.491 27.0384Z" fill="#263238"/>
<path d="M164.079 27.2011C164.111 27.1967 164.142 27.1844 164.169 27.1654C164.196 27.1464 164.218 27.1212 164.232 27.092C164.337 26.856 164.496 26.6479 164.697 26.4849C164.898 26.3218 165.135 26.2084 165.389 26.1538C165.416 26.1513 165.442 26.1432 165.465 26.13C165.489 26.1168 165.509 26.0987 165.525 26.0771C165.541 26.0555 165.552 26.0307 165.558 26.0045C165.564 25.9782 165.564 25.951 165.559 25.9247C165.549 25.8722 165.52 25.8251 165.478 25.7928C165.435 25.7605 165.382 25.7452 165.328 25.7502C165.009 25.8129 164.709 25.9506 164.454 26.1517C164.198 26.3528 163.995 26.6116 163.86 26.9066C163.837 26.9552 163.834 27.0108 163.851 27.0617C163.868 27.1126 163.905 27.1547 163.953 27.1793C163.992 27.1975 164.036 27.205 164.079 27.2011Z" fill="#263238"/>
<path d="M183.994 45.972C184.663 47.3739 185.222 48.6994 185.77 50.0631C186.318 51.4267 186.806 52.8177 187.293 54.2087C188.25 57.0436 189.023 59.937 189.606 62.8708C189.732 63.629 189.874 64.3709 189.968 65.1509L190.039 65.7291L190.077 66.0182V66.1655V66.3673C190.132 66.9315 190.132 67.4996 190.077 68.0637C189.95 69.2982 189.523 70.4833 188.833 71.5166C188.186 72.4629 187.337 73.2547 186.345 73.8348C185.519 74.3177 184.631 74.6848 183.704 74.9258C182.879 75.1506 182.035 75.3003 181.183 75.3731C179.576 75.5244 177.956 75.4602 176.366 75.1822C175.935 75.1101 175.542 74.8912 175.255 74.5627C174.969 74.2342 174.805 73.8167 174.794 73.3816C174.782 72.9465 174.923 72.521 175.192 72.1777C175.46 71.8345 175.841 71.595 176.268 71.5002L176.465 71.4566C177.013 71.3311 177.731 71.1784 178.344 71.0147C178.958 70.8511 179.583 70.6602 180.164 70.4693C181.178 70.146 182.118 69.627 182.931 68.9419C183.146 68.7436 183.31 68.4966 183.408 68.2219C183.447 68.0293 183.447 67.8309 183.408 67.6383C183.389 67.4913 183.362 67.3455 183.326 67.2019L183.128 66.3127C183.002 65.6909 182.822 65.0472 182.657 64.4145C182.317 63.1326 181.934 61.8508 181.495 60.5634C181.057 59.2761 180.608 57.9943 180.131 56.7124C179.654 55.4305 179.15 54.1487 178.64 52.8941C178.131 51.6395 177.594 50.3194 177.084 49.1248V49.0703C176.674 48.1603 176.644 47.1256 177.001 46.1936C177.358 45.2617 178.071 44.509 178.986 44.101C179.9 43.693 180.939 43.6633 181.876 44.0182C182.812 44.3732 183.568 45.0838 183.978 45.9938L183.994 45.972Z" fill="#263238"/>
<path d="M174.639 73.0788L172.223 74.2352L176.398 75.7135C176.398 75.7135 179.182 74.8298 177.834 73.2916L177.083 73.057C175.878 72.6643 175.286 72.7079 174.639 73.0788Z" fill="#FFC3BD"/>
<path d="M172.548 77.1656L174.384 77.5147C174.647 77.5627 174.917 77.5281 175.159 77.4156C175.401 77.3032 175.601 77.1185 175.732 76.8874L176.401 75.6928L172.225 74.231L171.677 75.371C171.592 75.5434 171.547 75.7328 171.547 75.9249C171.546 76.117 171.59 76.3067 171.674 76.4796C171.758 76.6525 171.88 76.8042 172.032 76.923C172.183 77.0419 172.36 77.1249 172.548 77.1656Z" fill="#FFC3BD"/>
</g>
<defs>
<clipPath id="clip0_1256_25206">
<rect width="274" height="212.129" fill="white"/>
</clipPath>
</defs>
</svg>
