<svg width="22" height="22" viewBox="0 0 22 22" fill="none" xmlns="http://www.w3.org/2000/svg">
<path d="M11 0.5C5.21007 0.5 0.5 5.21007 0.5 11C0.5 16.7899 5.21007 21.5 11 21.5C16.7899 21.5 21.5 16.7899 21.5 11C21.5 5.21007 16.7899 0.5 11 0.5ZM16.3218 8.7749L10.6342 14.4623C10.4636 14.6329 10.2396 14.7188 10.0156 14.7188C9.79164 14.7188 9.56766 14.6329 9.39703 14.4623L6.55333 11.6186C6.21111 11.2765 6.21111 10.7235 6.55333 10.3814C6.89539 10.0392 7.4483 10.0392 7.79053 10.3814L10.0156 12.6065L15.0846 7.5377C15.4266 7.19548 15.9796 7.19548 16.3218 7.5377C16.6638 7.87977 16.6638 8.43268 16.3218 8.7749Z" fill="#6FCF97"/>
</svg>
