<svg width="689" height="421" viewBox="0 0 689 421" fill="none" xmlns="http://www.w3.org/2000/svg">
<path d="M173.65 203.66C151.74 203.66 133.91 221.49 133.91 243.4V312.96H213.4V243.4C213.4 221.49 195.57 203.66 173.65 203.66V203.66Z" fill="#BAC4E5"/>
<path d="M213.4 287.87V312.96H133.91V281.99C133.91 281.99 137.88 280.03 145.16 279.49C145.22 279.48 145.3 279.48 145.4 279.47C148.39 279.26 151.93 279.29 155.97 279.8C159.68 280.26 163.8 281.12 168.32 282.55C194.67 292.99 211.5 288.43 213.25 287.91C213.35 287.89 213.4 287.87 213.4 287.87V287.87Z" fill="#95C88B"/>
<path d="M75.53 269.47H89.11L89.34 253.87H75.3L75.53 269.47Z" fill="#44B8B6"/>
<path d="M74.6599 253.24L74.9099 270.11H89.7299L89.9799 253.24H74.6599ZM89.1099 269.47H75.5299L75.2999 253.87H89.3399L89.1099 269.47Z" fill="white"/>
<path d="M600.82 244.9L590.74 245.51C590.74 245.51 589.6 235.35 590.08 231.93C590.56 228.51 592.78 227.14 594.7 228.12C596.62 229.12 600.82 231.34 600.82 244.9Z" fill="#7A73FF"/>
<path d="M601.56 245.39L592.33 244.49C592.33 244.49 590.72 238.25 591.71 234.13C591.71 234.13 589.6 239.68 591.48 246.01L601.56 245.39Z" fill="#D83648"/>
<path d="M657.15 381.57C680.09 345.87 661.73 308.1 670.79 267.19C679.84 226.28 676.32 181.58 653.43 145.84C630.54 110.11 586.16 85.56 542.48 91.38C505.19 96.35 469.83 121.79 433.34 113C395.64 103.92 377.55 63.35 345.77 42.08C289.68 4.53003 201.66 31.94 166.79 83.78C143.36 118.61 138.02 164.88 104.98 191.82C79.99 212.19 42.95 217.75 22.37 242.15C4.88996 262.87 4.13996 293.39 15.85 317.48C27.56 341.58 52.26 367.99 76.86 380.66L657.15 381.57V381.57Z" fill="#F3F3F3"/>
<path d="M301.97 181.83C305.01 182.88 308.24 183.4 311.51 183.55L310.27 177.59L301.6 174.56C301.6 174.56 302.25 177.96 301.97 181.83Z" fill="#ED737D"/>
<path opacity="0.15" d="M296.24 193.45C296.38 194.02 294.53 194.95 292.11 195.54C289.69 196.13 287.62 196.15 287.48 195.59C287.34 195.02 289.19 194.09 291.61 193.5C294.03 192.9 296.1 192.88 296.24 193.45Z" fill="#FBFDFB"/>
<path d="M302.17 241.92L300.38 243.14C300.38 243.14 298.72 251.91 305.28 257.29C305.28 257.29 306.41 257.41 308.17 257.47C303.85 254.02 301.07 247.67 302.17 241.92V241.92Z" fill="#414042"/>
<path d="M408.62 153.68H423.06V175.31H408.62V153.68Z" fill="#323431"/>
<path d="M455.84 233.98C447.85 296.57 404.17 317.27 347.49 308.45C322.15 304.51 306.6 287.44 290.84 267.85C271.35 243.62 246.16 236.65 250.58 202.04C253.81 176.7 270.36 154.63 290.83 147.3C323.19 135.71 333.94 99.44 367.67 104.69C393.27 108.67 389.95 141.86 409.81 156.68C455.08 190.47 460.22 199.66 455.84 233.98V233.98Z" stroke="white" stroke-width="1.093" stroke-miterlimit="10"/>
<path d="M459.38 208.77C465.94 271.56 427.66 299.62 370.79 306.87C345.37 310.11 326.42 297.93 306.7 283.36C282.3 265.34 256.34 265.61 252.71 230.89C250.05 205.47 261.02 179.5 279.16 166.71C307.83 146.49 309.94 108.39 343.79 104.08C369.47 100.81 373.84 133.84 396.45 142.66C447.97 162.75 455.78 174.34 459.38 208.77V208.77Z" stroke="white" stroke-width="1.093" stroke-miterlimit="10"/>
<path d="M457.4 223.15C454.61 286.28 412.82 311.29 355.64 308.21C330.08 306.83 313.19 291.41 295.88 273.48C274.47 251.31 248.81 246.9 250.36 211.99C251.49 186.43 266.15 162.78 285.93 153.43C317.2 138.64 324.91 101.43 358.94 103.26C384.76 104.65 384.2 138.03 405.2 150.8C453.06 179.9 458.93 188.53 457.4 223.15Z" stroke="white" stroke-width="1.093" stroke-miterlimit="10"/>
<path opacity="0.2" d="M275.65 290.58C276.71 288.62 341.04 278.15 351 280.33C360.96 282.51 386.16 292.54 386.09 294.94C386.03 297.34 310.49 308.32 307.19 307.41C303.89 306.51 274.59 292.54 275.65 290.58V290.58Z" fill="#1D1B3A"/>
<path d="M308.64 304.21C307.82 304.21 307.1 303.62 306.96 302.78L300.31 262.64L287.41 292.84C287.04 293.71 286.04 294.11 285.17 293.74C284.964 293.652 284.776 293.525 284.619 293.365C284.462 293.205 284.339 293.015 284.255 292.807C284.171 292.599 284.13 292.376 284.132 292.152C284.135 291.928 284.182 291.706 284.27 291.5L299.47 255.93C299.77 255.23 300.48 254.82 301.24 254.91C301.99 255 302.59 255.58 302.72 256.32L310.32 302.23C310.47 303.16 309.85 304.04 308.92 304.19C308.83 304.21 308.74 304.21 308.64 304.21V304.21ZM378.2 295.39C377.49 295.39 376.83 294.95 376.59 294.24L364.16 258.3H357.93L350.74 286.47C350.51 287.38 349.58 287.93 348.67 287.7C348.233 287.588 347.858 287.307 347.627 286.919C347.397 286.531 347.329 286.068 347.44 285.63L354.96 256.18C355.15 255.43 355.83 254.9 356.61 254.9H365.38C366.11 254.9 366.75 255.36 366.99 256.05L379.81 293.14C380.12 294.03 379.65 295 378.76 295.31C378.57 295.37 378.38 295.39 378.2 295.39V295.39Z" fill="white" stroke="#6F6F6E" stroke-miterlimit="10"/>
<path d="M304.69 267.32C334.18 272.71 374.62 255.23 373.7 252.57C372.79 249.91 350.59 259.52 343.3 243.31C336 227.11 347.25 181.81 302.86 187.58C258.48 193.36 275.2 261.93 304.69 267.32Z" fill="white" stroke="#6F6F6E" stroke-miterlimit="10"/>
<path d="M313.45 157.84C313.45 157.84 314.42 185.88 317.23 187.28C320.04 188.68 327.65 189.13 332.21 185.17C332.21 185.17 329.45 183.02 329.03 176.2C328.61 169.38 327.54 158.25 327.54 158.25L313.45 157.84Z" fill="#1D1B3A"/>
<path d="M336.42 200.14L324.42 189.96L319.72 189.35L317.27 177.58L308.6 174.55C308.6 174.55 311.23 188.31 303.65 192L293.06 205.41C296.93 207.97 300.34 211.19 303.42 214.66C303.44 214.68 303.45 214.71 303.46 214.73L327.33 209L342.89 232.11L347.72 231.51L336.42 200.14V200.14Z" fill="#F6BCBE"/>
<path d="M330.08 213.11L333.72 218.51C333.72 218.51 336.43 216.72 336.39 211.71C336.34 206.7 338.67 206.36 338.67 206.36L336.7 200.88C332.83 203.91 331.14 208.41 330.08 213.11V213.11Z" fill="#ED737D"/>
<path d="M305.11 160.76C301.94 171.03 309.21 181.63 319.96 181.81H320.37C322.55 181.81 326.09 174.52 326.52 168.23C327.22 158.2 324.64 151.27 316.61 151.27C309.76 151.27 306.58 156 305.11 160.76Z" fill="#F6BCBE"/>
<path d="M316.62 151.27C309.76 151.27 306.58 156 305.11 160.76C302.77 168.35 306.13 176.1 312.37 179.72C310.37 175.91 310.8 170.97 310.94 167.68C316.06 167.27 320.38 166.54 324.54 162.32C324.54 162.32 325.63 163.34 326.59 163.67C326.25 156.17 323.36 151.27 316.62 151.27Z" fill="#ED737D"/>
<path d="M315.06 168.46C314.51 168.46 314.07 169.02 314.07 169.71C314.07 170.4 314.51 170.96 315.06 170.96C315.61 170.96 316.05 170.4 316.05 169.71C316.05 169.02 315.61 168.46 315.06 168.46ZM323.55 168.46C323 168.46 322.56 169.02 322.56 169.71C322.56 170.4 323 170.96 323.55 170.96C324.1 170.96 324.54 170.4 324.54 169.71C324.54 169.02 324.09 168.46 323.55 168.46Z" fill="#1D1B3A"/>
<path d="M314.28 169.22C313.73 169.16 313.46 168.71 313.26 168.84C313.05 168.98 313.85 169.86 314.28 169.93C314.71 170.01 314.28 169.22 314.28 169.22ZM324.28 169.22C324.83 169.16 325.1 168.71 325.3 168.84C325.51 168.98 324.71 169.86 324.28 169.93C323.85 170.01 324.28 169.22 324.28 169.22Z" fill="#1D1B3A"/>
<path d="M319.64 174.27C319.5 174.25 319.36 174.2 319.23 174.14C319.211 174.131 319.195 174.119 319.181 174.103C319.167 174.088 319.157 174.07 319.15 174.05C319.144 174.03 319.141 174.01 319.143 173.989C319.144 173.968 319.15 173.948 319.16 173.93C319.2 173.85 319.29 173.82 319.37 173.86C319.79 174.06 320.23 173.98 320.47 173.8C320.58 173.72 320.77 173.54 320.73 173.25C320.7 173.02 320.48 172.62 320.24 172.19C319.79 171.38 319.29 170.46 319.53 169.82C319.545 169.782 319.574 169.75 319.611 169.734C319.649 169.717 319.692 169.715 319.73 169.73C319.768 169.745 319.8 169.774 319.816 169.811C319.833 169.849 319.835 169.892 319.82 169.93C319.63 170.44 320.12 171.33 320.51 172.04C320.77 172.52 321 172.93 321.03 173.22C321.07 173.55 320.93 173.85 320.64 174.06C320.37 174.25 320 174.33 319.64 174.27V174.27Z" fill="#E95052"/>
<path d="M316.42 166.21C316.386 166.102 316.31 166.012 316.21 165.96C314.96 165.31 313.54 165.45 311.99 166.4C311.79 166.52 311.73 166.78 311.85 166.98C311.93 167.12 312.08 167.19 312.24 167.18C312.3 167.17 312.37 167.15 312.42 167.12C313.71 166.33 314.82 166.19 315.81 166.7C315.91 166.75 316.02 166.76 316.13 166.73C316.24 166.7 316.33 166.62 316.38 166.52C316.45 166.43 316.46 166.31 316.42 166.21ZM322.05 166.1C322.09 165.99 322.17 165.91 322.27 165.86C323.55 165.26 324.96 165.48 326.46 166.49C326.545 166.555 326.602 166.65 326.62 166.756C326.637 166.861 326.613 166.97 326.553 167.058C326.492 167.147 326.4 167.209 326.296 167.231C326.191 167.254 326.082 167.236 325.99 167.18C324.73 166.33 323.63 166.14 322.62 166.61C322.52 166.66 322.41 166.66 322.3 166.62C322.194 166.581 322.108 166.502 322.06 166.4C322.021 166.304 322.018 166.198 322.05 166.1Z" fill="#1D1B3A"/>
<path d="M319.58 177.36C318.34 177.36 317.07 177.07 316.15 176.48C316.07 176.43 316.04 176.32 316.1 176.24C316.15 176.16 316.26 176.13 316.34 176.19C318.1 177.31 321.33 177.27 322.73 176.12C322.81 176.06 322.92 176.07 322.98 176.14C323.04 176.22 323.03 176.33 322.96 176.39C322.16 177.03 320.89 177.36 319.58 177.36Z" fill="#E95052"/>
<path d="M320.49 173.3C320.49 173.5 320.22 173.66 319.89 173.66C319.56 173.66 319.29 173.5 319.29 173.3C319.29 173.1 319.56 172.94 319.89 172.94C320.22 172.94 320.49 173.1 320.49 173.3Z" fill="white"/>
<path d="M321.15 178C321.15 178.27 320.66 178.49 320.06 178.49C319.46 178.49 318.97 178.27 318.97 178C318.97 177.73 321.15 177.73 321.15 178V178Z" fill="#ED737D"/>
<path d="M313.45 190.1C313.45 190.1 309.89 178.9 309.53 166.42C309.53 166.42 318.17 167.98 324.46 160.09C324.46 160.09 325.11 161.65 326.64 162.49C326.64 162.49 330.75 156.48 321.85 150.68C317.7 147.98 306.35 147.04 300.85 156.31C293.48 168.72 298.67 190.57 313.45 190.1V190.1Z" fill="#1D1B3A"/>
<path d="M296.58 239.93C296.58 239.93 305.26 234.11 300.04 216.83C300.04 216.83 294.25 217.76 285.85 211.79C285.85 211.79 288.64 196.67 291.82 194.61C295 192.56 303.65 190.69 303.65 190.69C303.65 190.69 312.07 202.16 318.52 200.48C324.97 198.8 324.31 189.16 324.31 189.16C324.31 189.16 331.7 190.11 333.06 191.21C336.91 194.33 337.94 200.58 341.12 202.26C341.12 202.26 337.14 206.18 333.06 207.49C333.06 207.49 334.71 216.18 330.66 219.44C330.66 219.44 326.99 226.85 334.7 238.67C334.7 238.68 319.44 248.28 296.58 239.93V239.93Z" fill="#7A73FF"/>
<path opacity="0.15" d="M333.21 192.79C333.11 193.36 331.39 193.53 329.38 193.16C327.37 192.79 325.82 192.03 325.93 191.46C326.03 190.89 327.75 190.72 329.76 191.09C331.77 191.46 333.32 192.22 333.21 192.79Z" fill="#FBFDFB"/>
<g opacity="0.2">
<path opacity="0.2" d="M300.03 216.83C305.25 234.1 296.57 239.93 296.57 239.93C319.44 248.28 334.7 238.68 334.7 238.68C326.98 226.86 330.66 219.45 330.66 219.45C331.26 219 331.49 218.56 331.92 218C328.59 218.92 313.82 221.78 307.19 218.13C300.56 214.48 302.09 203.34 302.09 203.34L299.94 213.78C293.75 214.68 286.35 209.28 286.35 209.28C286.02 210.79 285.84 211.79 285.84 211.79C294.25 217.76 300.03 216.83 300.03 216.83ZM333.06 207.49C334.61 206.99 336.14 206.12 337.45 205.23C333.78 206.14 332.68 201.67 332.35 199.15L333.06 207.49V207.49Z" fill="#1D1B3A"/>
</g>
<path d="M326.22 227.94C324.38 228.25 296.8 230.01 296.8 230.01L298.46 216.87C296.38 216.76 292.38 216.04 287.27 212.75C287.27 212.75 287.66 235.63 289.11 237.28C290.57 238.93 331.15 231.67 331.15 231.67C331.15 231.67 328.06 227.63 326.22 227.94Z" fill="#F6BCBE"/>
<path d="M292.41 233.44C291.25 232.28 291.06 222.99 290.54 217.36C293.55 218.06 295.85 218.43 298.25 218.51L298.46 216.87C296.38 216.76 292.38 216.04 287.27 212.75C287.27 212.75 287.66 235.63 289.11 237.28C290.57 238.93 331.15 231.67 331.15 231.67C331.15 231.67 330.83 231.25 330.33 230.69C317.76 233.22 293.58 234.59 292.41 233.44V233.44Z" fill="#ED737D"/>
<path d="M303.65 230.94C303.65 230.94 302.08 236.28 296.58 239.93C289.59 244.56 288.64 258.09 305.18 260.68C313.38 261.96 327.84 261.5 336.12 258.22C352.14 251.87 364.55 239.93 364.55 239.93L363.19 226.6C363.19 226.6 339.35 232.49 323.98 232.8C308.6 233.1 303.65 230.94 303.65 230.94V230.94Z" fill="#474797"/>
<path d="M303.65 230.94C303.65 230.94 302.08 236.28 296.58 239.93C289.59 244.56 288.64 258.09 305.18 260.68C313.38 261.96 327.84 261.5 336.12 258.22C352.14 251.87 364.55 239.93 364.55 239.93L363.19 226.6C363.19 226.6 339.35 232.49 323.98 232.8C308.6 233.1 303.65 230.94 303.65 230.94V230.94Z" fill="#3FAB44"/>
<path d="M303.65 230.94C303.65 230.94 302.08 236.28 296.58 239.93C289.59 244.56 288.64 258.09 305.18 260.68C313.38 261.96 327.84 261.5 336.12 258.22C352.14 251.87 364.55 239.93 364.55 239.93L363.19 226.6C363.19 226.6 339.35 232.49 323.98 232.8C308.6 233.1 303.65 230.94 303.65 230.94V230.94Z" fill="#252626"/>
<path d="M285.84 257.51C285.84 255.73 288.98 256.27 293.87 254.96C293.87 254.96 295.95 259.52 311.35 259.52C321.1 259.52 334.71 250.91 334.71 250.91C348.28 250.2 370.15 245.25 371.18 247.69C372.21 250.13 360.81 260 346.28 260.81C320.38 262.25 314.44 270.32 312 270.32C306.88 270.3 285.84 259.29 285.84 257.51V257.51Z" fill="white" stroke="#6F6F6E" stroke-miterlimit="10"/>
<path d="M311.41 234.8L359.29 228.84C359.58 228.8 359.83 228.63 359.97 228.37L373.02 206.03C373.33 205.44 371.23 204.31 370.56 204.31L343.73 206.15C343.41 206.15 343.11 206.32 342.95 206.6L332.02 229.95C331.88 230.19 331.64 230.36 331.36 230.4L311.18 233.04C310.68 233.11 310.33 233.57 310.42 234.07C310.5 234.54 310.94 234.86 311.41 234.8V234.8Z" fill="#263239"/>
<path d="M313.14 235.82L361.02 229.86C361.31 229.82 361.56 229.65 361.7 229.39L373.08 206.62C373.151 206.484 373.185 206.333 373.18 206.18C373.175 206.027 373.131 205.878 373.051 205.747C372.972 205.617 372.86 205.509 372.727 205.434C372.593 205.359 372.443 205.32 372.29 205.32L345.46 207.16C345.14 207.16 344.84 207.33 344.68 207.61L333.75 230.96C333.61 231.2 333.37 231.37 333.09 231.41L312.91 234.05C312.41 234.12 312.06 234.58 312.15 235.08C312.23 235.55 312.67 235.88 313.14 235.82V235.82Z" fill="white" stroke="#6F6F6E" stroke-miterlimit="10"/>
<path d="M356.73 220.53C356.19 221.8 354.86 222.46 353.75 221.99C352.64 221.52 352.18 220.11 352.72 218.84C353.26 217.57 354.59 216.91 355.7 217.38C356.81 217.84 357.27 219.25 356.73 220.53Z" fill="#BAC4E5"/>
<path d="M303.65 230.94C303.65 230.94 305.15 223.26 312.66 222.69C320.17 222.12 332.06 240.11 351 243.24C351 243.24 351.43 248.31 345.85 251.86C345.84 251.87 302.15 245.34 303.65 230.94V230.94Z" fill="#414042"/>
<path d="M346.28 251.14C346.28 251.14 353.47 253.87 356.72 251.87C359.96 249.87 362.5 244.76 359.54 242.24C356.58 239.72 356.58 245.5 349.81 244.09L346.28 251.14Z" fill="#7A73FF"/>
<path d="M334.7 246.13C334.7 246.13 338.15 249.88 336.8 254.69C336.8 254.69 376.58 246.58 377.18 232.03C377.53 223.46 365.38 221.31 350.16 235.18C342.95 241.74 334.7 246.13 334.7 246.13V246.13Z" fill="#414042"/>
<path d="M335.79 247.68L329.04 249.22C329.04 249.22 329.36 253.81 329.59 253.73C329.83 253.65 337.01 253.73 337.01 253.73C337.01 253.73 337.5 250.71 335.79 247.68V247.68Z" fill="#F6BCBE"/>
<path d="M332.04 254.68C332.04 254.68 332.99 250.72 330.93 247.68C330.93 247.68 325.87 249.38 322.15 247.68C318.43 245.98 314.72 239.66 309.34 241.79L307.36 243.13C307.36 243.13 305.7 251.91 312.26 257.28C312.28 257.29 325.32 258.64 332.04 254.68V254.68Z" fill="#7A73FF"/>
<path opacity="0.15" d="M329.57 206.12C331.28 206.68 331.8 212.26 330.58 213.06C329.36 213.86 312.67 217.53 309.21 214.93C305.75 212.34 306.16 208.06 307.8 207.27C309.44 206.48 316.23 209.07 320.06 208.93C323.89 208.8 327.2 205.35 329.57 206.12V206.12Z" fill="#FBFDFB"/>
<path d="M339.97 93.83H391.62V162.01H339.97V93.83Z" fill="#BAC4E5"/>
<path d="M342.76 96.87H388.84V158.88H342.76V96.87Z" fill="white"/>
<path d="M348.61 103.61H382.99V152.13H348.61V103.61Z" fill="#BAC4E5"/>
<path d="M419.22 252.98C419.22 252.98 410.19 251.5 407.08 246.91C403.96 242.32 408.07 240.19 408.07 240.19C408.07 240.19 401.44 236.84 400.95 233.07C400.46 229.3 403.97 227.66 403.97 227.66C403.97 227.66 393.97 222.8 400.33 213.82C400.33 213.82 409.22 211.16 411.02 219.36C411.02 219.36 414.63 216.41 418.24 219.52C421.85 222.64 419.33 232.43 419.33 232.43C419.33 232.43 421.8 229.37 424.97 231.32C428.91 233.78 427.42 246.26 419.22 252.98V252.98Z" fill="#95C88B"/>
<path d="M400.74 214.28C400.74 214.28 418.34 233.16 419.22 252.98C420.1 272.81 415.18 282.62 415.18 282.62" stroke="#44B8B6" stroke-miterlimit="10"/>
<path d="M400.74 222.19L407.49 222.9L408.04 215.64" stroke="#44B8B6" stroke-miterlimit="10"/>
<path d="M406.78 244.73L418.77 248.63L424.89 233.19M402.01 224.63L409.28 225.61L409.71 218.26L402.01 224.63ZM404.39 235.64L415.57 237.35L418.95 224.2L404.39 235.64Z" stroke="#44B8B6" stroke-miterlimit="10"/>
<path d="M407.06 242.56L418.23 245.87L423.19 232.01" stroke="#44B8B6" stroke-miterlimit="10"/>
<path d="M423.61 256.85C423.61 256.85 432.51 237.08 444.63 228.97C444.63 228.97 447.87 234.87 445.23 238.58C442.58 242.29 440.31 241.91 440.31 241.91C440.31 241.91 444.86 246.12 442.39 251.49C439.92 256.86 433.42 254.12 433.42 254.12C433.42 254.12 434.37 256.35 432.93 257.7C431.48 259.06 427.93 260.05 423.61 256.85V256.85Z" fill="#95C88B"/>
<path d="M426.53 251.02L441.83 249.33M444.12 229.28C444.12 229.28 433.93 234.79 423.61 256.85C418.53 267.7 418.53 288.01 418.53 288.01L444.12 229.28ZM434.94 238.33L444.68 237.35L434.94 238.33ZM433.21 240.32L442.42 239.81L433.21 240.32Z" stroke="#44B8B6" stroke-miterlimit="10"/>
<path d="M411.83 257.45C411.83 257.45 400.36 239.05 387.28 232.63C387.28 232.63 384.85 238.91 387.97 242.23C391.09 245.55 393.29 244.88 393.29 244.88C393.29 244.88 389.34 249.66 392.51 254.65C395.68 259.64 401.75 256.06 401.75 256.06C401.75 256.06 401.11 258.4 402.72 259.54C404.33 260.69 407.98 261.19 411.83 257.45V257.45Z" fill="#95C88B"/>
<path d="M404.12 257.24L411.35 256.67M387.28 232.63C387.28 232.63 401.2 240.15 411.83 257.45C417.39 266.49 419.02 287.3 419.02 287.3L387.28 232.63ZM390.07 240.87L397.27 240.02L390.07 240.87ZM393.25 249.55L405.57 248.81L393.25 249.55ZM394.08 253.17L408.21 252.07L394.08 253.17Z" stroke="#44B8B6" stroke-miterlimit="10"/>
<path opacity="0.2" d="M418.66 297.99C429.59 297.99 438.45 296.624 438.45 294.94C438.45 293.256 429.59 291.89 418.66 291.89C407.73 291.89 398.87 293.256 398.87 294.94C398.87 296.624 407.73 297.99 418.66 297.99Z" fill="#1D1B3A"/>
<path d="M419.93 294.02H417.05C409.43 294.02 403.25 287.84 403.25 280.22V264.79H433.74V280.22C433.74 287.84 427.56 294.02 419.93 294.02Z" fill="#7A73FF"/>
<path opacity="0.2" d="M322.97 157.67C322.34 158.8 319.43 158.38 316.48 156.73C313.52 155.08 311.64 152.83 312.26 151.7C312.89 150.57 315.8 150.99 318.75 152.64C321.71 154.29 323.6 156.54 322.97 157.67Z" fill="#FBFDFB"/>
<path d="M118.83 325.46V334.83L226.97 325.46C226.97 325.46 118.83 324.12 118.83 325.46ZM156.94 359.7C156.94 359.7 146.71 363.11 134.09 363.11C121.47 363.11 111.24 359.7 111.24 359.7C111.24 359.7 121.47 356.29 134.09 356.29C146.71 356.29 156.94 359.7 156.94 359.7Z" fill="#E6E7E7"/>
<path d="M153.57 359.44L150.17 359.27H141.1C139.46 359.27 138.44 356.66 141.79 356.08C145.14 355.5 150.02 357.03 150.02 357.03C150.02 357.03 154.29 355.74 153.57 359.44Z" fill="#A3B3DC"/>
<path d="M146.71 342.64C146.71 342.64 149.84 338.92 151.12 339.14C152.4 339.36 150.43 344.39 149.48 345.26C148.53 346.13 146.71 342.64 146.71 342.64Z" fill="#BAC4E5"/>
<path d="M147.84 342.46C147.84 342.46 149.51 340.48 150.19 340.6C150.87 340.72 149.82 343.39 149.32 343.86C148.81 344.32 147.84 342.46 147.84 342.46Z" fill="#A3B3DC"/>
<path d="M144.13 341.32V353.09C148.15 353.09 147.89 350.64 149.03 349.68C150.18 348.72 151.29 346.52 149.41 343.99C149.198 343.712 148.964 343.451 148.71 343.21C146.8 341.43 144.13 341.32 144.13 341.32ZM141.54 342.64C141.54 342.64 138.41 338.92 137.13 339.14C135.85 339.36 137.82 344.39 138.77 345.26C139.72 346.13 141.54 342.64 141.54 342.64Z" fill="#BAC4E5"/>
<path d="M140.41 342.46C140.41 342.46 138.74 340.48 138.06 340.6C137.38 340.72 138.43 343.39 138.93 343.86C139.44 344.32 140.41 342.46 140.41 342.46Z" fill="#A3B3DC"/>
<path d="M139.22 349.68C140.37 350.64 140.1 353.09 144.13 353.09V341.32C144.13 341.32 142.72 341.38 141.21 342.1C140.38 342.49 139.51 343.09 138.84 343.99C136.96 346.51 138.07 348.72 139.22 349.68Z" fill="#BAC4E5"/>
<path d="M120.56 360.21H137.56C141.64 360.21 145.87 360.74 147.84 358.27C148.9 356.94 148.82 354.46 148.52 352.44C148.43 351.85 148.33 351.3 148.23 350.83C148.03 349.9 147.84 349.28 147.84 349.28C147.84 349.28 147.32 347.87 140.41 349.43C138.29 349.91 136.57 349.33 134.93 348.49C131.24 346.6 128 343.41 121.67 348.12C120.12 349.28 118.98 350.39 118.18 351.44C114.24 356.56 118.22 360.21 120.56 360.21V360.21Z" fill="#BAC4E5"/>
<path d="M151.09 360.43L147.69 360.26H138.62C136.98 360.26 135.96 357.65 139.31 357.07C142.66 356.49 147.54 358.02 147.54 358.02C147.54 358.02 151.81 356.73 151.09 360.43ZM116.69 354.3C116.69 354.3 114.09 360.89 120.75 360.89C127.4 360.89 132.39 361.72 132.62 359.92C132.85 358.12 129.89 356.25 126.34 357.24C122.79 358.23 116.23 359.56 116.69 354.3V354.3Z" fill="#A3B3DC"/>
<path d="M146.61 346.72C146.61 347.31 146.85 347.78 147.15 347.78C147.45 347.78 147.69 347.31 147.69 346.72C147.69 346.13 147.45 345.66 147.15 345.66C146.85 345.66 146.61 346.13 146.61 346.72ZM140.49 346.72C140.49 347.31 140.73 347.78 141.03 347.78C141.33 347.78 141.57 347.31 141.57 346.72C141.57 346.13 141.33 345.66 141.03 345.66C140.73 345.66 140.49 346.13 140.49 346.72Z" fill="#414042"/>
<path d="M144.08 348.81C145.56 348.03 147.07 349.64 146.18 350.61C145.29 351.58 144.08 350.45 144.08 350.45C144.08 350.45 142.87 351.58 141.98 350.61C141.09 349.64 142.6 348.03 144.08 348.81Z" fill="white"/>
<path d="M142.96 348.36C143.31 347.88 144.06 348 144.06 348C144.06 348 144.82 347.88 145.16 348.36C145.51 348.84 144.37 349.5 144.06 349.5C143.75 349.5 142.61 348.84 142.96 348.36Z" fill="#414042"/>
<path d="M148.09 357.89C148.09 357.89 140.48 354.4 137.56 357.69C137.56 357.69 138.68 355.98 141.58 355.94C144.48 355.9 148.33 357.37 148.33 357.37L148.09 357.89ZM140.66 351.76C140.99 352.34 141.91 353.46 144.13 353.73C146.32 353.99 147.84 353 148.52 352.43C148.43 351.84 148.33 351.29 148.23 350.82C148.21 350.89 147.47 353.31 144.12 353.08C141.82 352.93 140.97 352.21 140.66 351.76V351.76Z" fill="#A3B3DC"/>
<path d="M140.49 351.4C140.49 351.4 140.51 351.55 140.66 351.76C140.54 351.55 140.49 351.4 140.49 351.4Z" fill="#CAB7A9"/>
<path d="M118.18 351.43C118.91 354.32 122.81 355.08 124.41 354.3C126.19 353.42 128.07 351.49 132.1 353.09C136.13 354.7 139.34 352.22 137.1 351.4C134.86 350.59 134.94 348.48 134.94 348.48C131.25 346.59 128.01 343.4 121.68 348.11C120.12 349.27 118.98 350.38 118.18 351.43V351.43ZM141.21 342.1C141.18 344.02 143.06 345.88 144.07 345.4L144.13 345.37C145.19 344.81 145.43 343.36 146.93 343.94C148.46 344.52 148.72 343.22 148.72 343.22C146.8 341.44 144.13 341.33 144.13 341.33C144.13 341.33 142.71 341.38 141.21 342.1V342.1Z" fill="#A3B3DC"/>
<path d="M108.72 352.9C108.72 352.9 102.82 354.87 95.5499 354.87C88.2799 354.87 82.3799 352.9 82.3799 352.9C82.3799 352.9 88.2799 350.93 95.5499 350.93C102.82 350.93 108.72 352.9 108.72 352.9ZM265.73 352.9C265.73 352.9 258.55 355.3 249.69 355.3C240.83 355.3 233.65 352.9 233.65 352.9C233.65 352.9 240.83 350.5 249.69 350.5C258.55 350.5 265.73 352.9 265.73 352.9Z" fill="#E6E7E7"/>
<path d="M164.61 234.5H128.98C130.85 228.92 133.56 224.28 136.97 220.62C140.95 222.95 141.7 227.46 141.7 227.46C141.7 227.46 142.51 225.98 144.25 226.17C146.29 226.42 146.73 229.06 146.73 229.06C146.73 229.06 148.53 226.34 152.53 226.6C156.53 226.85 157.69 232.71 157.69 232.71C157.69 232.71 161.22 231.49 164.61 234.5Z" fill="white"/>
<path d="M173.65 197.07C148.1 197.07 127.32 217.85 127.32 243.4V319.55H219.98V243.4C219.98 217.85 199.2 197.07 173.65 197.07V197.07ZM213.4 312.96H133.91V243.4C133.91 221.49 151.74 203.66 173.65 203.66C195.56 203.66 213.39 221.49 213.39 243.4V312.96H213.4Z" fill="white" stroke="#6F6F6E" stroke-miterlimit="10"/>
<path d="M179.25 348.2C179.25 348.2 178.48 351.83 178.33 352.44C178.19 353.05 177.49 357.82 178.33 358.5C179.17 359.18 185.15 359.18 185.45 358.5C185.75 357.82 183.69 351.83 183.48 351.08C183.27 350.33 183.56 349.64 183.56 349.34C183.56 349.04 179.25 348.2 179.25 348.2V348.2Z" fill="#F5B8AD"/>
<path d="M189.31 269.83L186.4 277.56L185.72 279.37L184.92 281.5L184.49 282.65C184.45 282.86 184.42 283.08 184.38 283.3C183.47 289.5 184.79 300.65 184.79 300.65C181.69 303.66 173.64 303.79 173.64 303.79C173.64 303.79 165.89 303.91 162.79 300.9C162.79 300.9 163.84 289.52 162.91 283.31C162.88 283.09 162.84 282.87 162.8 282.66L162.37 281.51L161.57 279.38L160.89 277.57L157.99 269.84C157.99 269.84 165.82 262.44 173.65 261.5C181.48 262.43 189.31 269.83 189.31 269.83V269.83Z" fill="#7A73FF"/>
<path d="M179.31 263.32C179.31 263.32 177.89 267.11 173.49 267.28C169.08 267.45 167.39 263.77 167.39 263.77L167.86 261.48L168.67 257.52L173.15 258.06L177.58 257.18L177.91 258.34L179.31 263.32V263.32Z" fill="#F5B8AD"/>
<path opacity="0.5" d="M177.9 258.35C177.6 259.23 175.49 264.21 167.85 261.48L168.66 257.52L173.14 258.06L177.57 257.18L177.9 258.35V258.35Z" fill="#E17F88"/>
<path d="M196.95 291.16C195.96 282.84 189.2 269.91 189.2 269.91L187.53 272.51L184.62 278.19C184.62 278.19 188.46 285.4 190.96 289.7C187.9 291.75 177.77 301.81 177.77 301.81L180.16 303.78C188.36 299.72 194.76 295.27 196.16 293.59C196.56 293.18 196.85 292.41 196.95 291.16V291.16Z" fill="#F5B8AD"/>
<path opacity="0.6" d="M194.46 281.89L188.01 284.4L188.71 285.66L194.46 281.89Z" fill="#E17F88"/>
<path d="M189.3 269.83L195.49 281.49L186.67 284.93L183.57 278.85C183.56 278.84 185.39 267.69 189.3 269.83" fill="#7A73FF"/>
<path d="M157.18 289.7C159.68 285.4 163.04 278.19 163.04 278.19L160.13 272.51L158.34 269.71C158.34 269.71 151.7 282.84 150.71 291.16C150.55 292.38 151.1 293.18 151.49 293.6C152.89 295.27 159.29 299.72 167.49 303.79L169.88 301.82C169.89 301.81 160.24 291.75 157.18 289.7V289.7Z" fill="#F5B8AD"/>
<path opacity="0.6" d="M159.61 284.53L153.09 281.99L152.66 283.26L159.61 284.53" fill="#E17F88"/>
<path d="M157.99 269.83L151.8 281.49L160.62 284.93L163.72 278.85C163.73 278.84 161.91 267.69 157.99 269.83" fill="#7A73FF"/>
<path d="M186.4 277.56L185.72 279.37H161.58L160.9 277.56H186.4ZM184.93 281.49L184.5 282.64C184.46 282.85 184.43 283.07 184.39 283.29H162.93C162.9 283.07 162.86 282.85 162.82 282.64L162.39 281.49H184.93V281.49Z" fill="white"/>
<path d="M183.56 300.13C183.56 300.13 153.32 297.03 148 298.87C148.06 302.38 144.89 304.48 146.96 306.53C155.96 315.47 184.1 312.85 184.1 312.85L183.56 300.13V300.13Z" fill="#353435"/>
<path d="M184.55 299.02C185.96 299.93 189.93 302.65 190.94 307.85L174.12 312.14L184.55 299.02Z" fill="#353435"/>
<path d="M187.37 306.31C187.37 306.31 155.6 298.48 151.24 298.47C146.41 297.97 141.82 303.26 148.08 307.38C154.97 311.98 186.33 312.05 186.33 312.05C186.33 312.05 185.35 308.34 187.37 306.31V306.31Z" fill="#414042"/>
<path d="M189.28 286.06H156.66C156.27 286.06 155.97 286.4 156 286.78L157.59 303.19C157.62 303.53 157.91 303.78 158.25 303.78H187.68C188.02 303.78 188.3 303.52 188.34 303.19L189.93 286.78C189.939 286.689 189.929 286.597 189.901 286.51C189.872 286.424 189.826 286.344 189.765 286.276C189.704 286.208 189.629 286.154 189.545 286.117C189.462 286.079 189.372 286.06 189.28 286.06V286.06Z" fill="white" stroke="#6F6F6E" stroke-miterlimit="10"/>
<path d="M174.13 294.24C173.84 293.75 173.94 293.23 174.23 292.81C173.86 292.59 173.43 292.45 172.97 292.45C171.61 292.45 170.5 293.56 170.5 294.92C170.5 296.28 171.61 297.39 172.97 297.39C173.603 297.388 174.211 297.143 174.669 296.706C175.127 296.269 175.399 295.672 175.43 295.04C174.9 294.95 174.4 294.7 174.13 294.24Z" fill="white" stroke="#6F6F6E" stroke-miterlimit="10"/>
<path d="M82.5099 244.91H104.56L104.94 219.57H82.1299L82.5099 244.91Z" fill="#7A73FF"/>
<path d="M81.0901 218.54L81.5001 245.93H105.57L105.98 218.54H81.0901V218.54ZM104.56 244.91H82.5101L82.1301 219.57H104.94L104.56 244.91V244.91Z" fill="white"/>
<path d="M96.9701 279.6H119.02L119.4 254.26H96.5901L96.9701 279.6Z" fill="#44B8B6"/>
<path d="M95.55 253.24L95.96 280.63H120.03L120.44 253.24H95.55ZM119.02 279.6H96.97L96.59 254.26H119.4L119.02 279.6V279.6Z" fill="white"/>
<path d="M255.87 346.7L257.82 352.4H241.55L243.5 346.7L243.49 346.69C243.28 346.44 236.5 338.36 236.5 325.38C236.5 312.21 244.47 306.51 244.47 306.51C244.47 306.51 244.47 306.49 244.48 306.47C244.57 305.83 245.57 298.49 240.89 293.83H258.46C253.79 298.5 254.78 305.84 254.87 306.47C254.88 306.49 254.88 306.51 254.88 306.51C254.88 306.51 262.85 312.21 262.85 325.38C262.86 338.36 256.08 346.44 255.87 346.7V346.7Z" fill="#7A73FF"/>
<path d="M262.86 325.38C262.868 329.408 262.206 333.409 260.9 337.22C258.88 343.11 256.01 346.54 255.87 346.7H243.5C243.3 346.47 237.6 339.67 236.64 328.55C236.51 327.034 236.476 325.511 236.54 323.99C236.74 319.48 237.87 315.92 239.23 313.22V313.21C241.54 308.62 244.47 306.52 244.47 306.52C244.47 306.52 244.47 306.5 244.48 306.48H254.88C254.89 306.5 254.89 306.52 254.89 306.52C254.89 306.52 262.4 311.88 262.85 324.24C262.85 324.61 262.86 324.99 262.86 325.38V325.38Z" fill="#7A73FF"/>
<path d="M262.86 325.38C262.86 326.46 262.81 327.51 262.72 328.52L258.82 326.22L254.72 331.61L249.78 327L244.74 331.43L240.77 326.03L236.63 328.54C236.496 327.024 236.459 325.501 236.52 323.98L236.61 324.16L241.75 321.03L245.34 325.9L249.86 321.93L254.24 326.03L257.84 321.29L262.82 324.22C262.86 324.61 262.86 324.99 262.86 325.38V325.38Z" fill="#E6E7E7"/>
<path d="M260.9 337.21C258.88 343.1 256.01 346.53 255.87 346.69H243.5C243.3 346.46 237.6 339.66 236.64 328.54C236.51 327.024 236.476 325.501 236.54 323.98C236.74 319.47 237.87 315.91 239.23 313.21C239.22 313.72 239.13 333.62 260.9 337.21V337.21Z" fill="#E6E7E7"/>
<path d="M92.9299 339.53C92.9299 339.53 87.4099 332.61 87.5199 326.66C87.6299 320.71 88.7099 318.65 85.4599 315.95C82.2099 313.25 83.0799 301.24 83.0799 301.24C83.0799 301.24 83.1899 308.49 86.6499 311.41C90.1099 314.33 93.0299 318.77 91.5199 325.15C90.0099 331.53 94.1199 339.54 94.1199 339.54H92.9299V339.53Z" fill="url(#paint0_linear_11_11138)"/>
<path d="M98.74 339.53C98.74 339.53 104.26 332.61 104.15 326.66C104.04 320.71 102.96 318.65 106.21 315.95C109.46 313.25 108.59 301.24 108.59 301.24C108.59 301.24 108.48 308.49 105.02 311.41C101.56 314.33 98.64 318.77 100.15 325.15C101.66 331.53 97.55 339.54 97.55 339.54H98.74V339.53Z" fill="url(#paint1_linear_11_11138)"/>
<path d="M95.81 338.99C95.81 338.99 101.11 326.12 98.08 319.73C95.05 313.35 94.4 308.48 95.81 303.07C97.22 297.66 89.21 286.84 89.21 286.84C89.21 286.84 93 297.87 91.81 303.5C90.62 309.13 91.45 317.35 94.12 321.13C96.79 324.92 94.63 338.98 94.63 338.98H95.81V338.99Z" fill="url(#paint2_linear_11_11138)"/>
<path d="M105.02 336.59C105.02 336.59 104.82 337.78 104.41 339.72C104.14 340.98 103.78 342.56 103.34 344.33C103.03 345.54 102.69 346.85 102.29 348.2C101.82 349.83 101.28 351.53 100.68 353.23H90.9799C89.8699 350.13 88.9899 347.01 88.3099 344.33C87.8699 342.56 87.5099 340.98 87.2399 339.72C87.1199 339.17 87.0299 338.69 86.9499 338.28C86.9399 338.26 86.9399 338.25 86.9399 338.25C86.7299 337.2 86.6299 336.6 86.6299 336.6H105.02V336.59Z" fill="#263239"/>
<path d="M87.25 339.72C87.52 340.98 87.87 342.56 88.32 344.33H103.34C103.79 342.56 104.14 340.98 104.41 339.72H87.25Z" fill="white"/>
<path d="M102.29 348.2C101.82 349.83 101.28 351.53 100.68 353.23H90.98C89.87 350.13 88.99 347.01 88.31 344.33C87.87 342.56 87.51 340.98 87.24 339.72C87.12 339.17 87.03 338.69 86.95 338.28C87.13 338.87 89.92 348.36 102.29 348.2Z" fill="#E6E7E7"/>
<path d="M402.17 145.71H429.25V181.45H402.17V145.71Z" fill="#BAC4E5"/>
<path d="M404.8 148.91H426.62V178.54H404.8V148.91Z" fill="white"/>
<path d="M642.22 327.27C642.22 327.27 600.27 335.56 548.52 335.56C496.77 335.56 454.82 327.27 454.82 327.27C454.82 327.27 496.77 318.98 548.52 318.98C600.27 318.98 642.22 327.27 642.22 327.27Z" fill="#E6E7E7"/>
<path d="M523.36 327.6C523.36 327.6 527.65 326.25 526.52 321.51C525.39 316.77 521.63 311.5 526.71 308.56C531.79 305.62 531.79 310.59 528.71 312.4C525.62 314.21 526.9 317.88 528.18 321.5C529.46 325.13 527.95 327.69 523.36 328.97V327.6V327.6ZM504.64 313.94L502.97 315.41C502.97 315.41 504.39 322.91 504.39 326.38V329.62C504.39 329.62 502.13 329.65 502.13 331.51H505.08C506.23 331.51 507.36 331.16 507.58 330C507.8 328.85 507.64 320.29 507.64 320.29L504.64 313.94V313.94Z" fill="#A2AFD6"/>
<path d="M520.19 333.4H515.04C514.83 331.58 516.58 331.04 516.87 330.97C516.46 331.04 513.15 331.56 511.57 330.28C509.88 328.92 510.68 324.93 504.45 320.46C500.25 317.45 500.6 313.04 501.28 310.48C501.61 309.25 502.01 308.44 502.01 308.44L511.16 308.73C511.36 309.05 511.57 309.35 511.8 309.64C516.39 315.69 524.3 316.35 525.57 325.49C526.51 331.01 522.9 333.4 520.19 333.4V333.4Z" fill="#BAC4E5"/>
<path d="M511.79 309.65C507.57 313.04 501.28 310.49 501.28 310.49C501.61 309.26 502.01 308.45 502.01 308.45L511.16 308.74C511.36 309.06 511.57 309.36 511.79 309.65ZM505.08 319.4L504.92 320.46C504.92 320.46 509.37 324.32 509.37 327.98V331.4C509.37 331.4 506.99 331.43 506.99 333.4H510.11C511.33 333.4 512.52 333.03 512.75 331.81C512.99 330.59 514.55 322.39 514.55 322.39L505.08 319.4V319.4Z" fill="#A2AFD6"/>
<path d="M512.92 330.92L514.28 323.76L513.6 331.05L512.92 330.92ZM516.92 330.96C517.27 330.81 517.64 330.7 518.02 330.61C518.4 330.52 518.78 330.46 519.16 330.42L519.07 330.68C518.24 329.96 517.53 329.13 516.93 328.21C516.35 327.28 515.87 326.26 515.72 325.14C515.7 325 515.68 324.86 515.67 324.72L515.66 324.3C515.65 324.02 515.69 323.73 515.75 323.45C515.87 322.89 516.2 322.33 516.7 322.01C517.19 321.68 517.78 321.58 518.32 321.58C518.87 321.59 519.41 321.69 519.92 321.87C519.39 321.78 518.85 321.76 518.33 321.81C517.81 321.87 517.3 322.02 516.92 322.32C516.53 322.62 516.31 323.07 516.22 323.55C516.18 323.79 516.15 324.04 516.17 324.3L516.19 324.68C516.2 324.81 516.22 324.93 516.24 325.06C516.39 326.08 516.82 327.04 517.35 327.94C517.89 328.84 518.54 329.69 519.26 330.45L519.5 330.71L519.16 330.72C518.78 330.73 518.41 330.74 518.03 330.79C517.67 330.82 517.29 330.88 516.92 330.96V330.96ZM504.18 299.83C504.18 299.83 502.15 295.8 501.03 296C499.91 296.2 499.47 299.96 501.03 302.06L504.18 299.83Z" fill="#A2AFD6"/>
<path d="M503.33 300.05C503.33 300.05 502.13 297.67 501.47 297.79C500.81 297.91 500.55 300.13 501.47 301.38L503.33 300.05Z" fill="#BAC4E5"/>
<path d="M509.49 299.83C509.49 299.83 511.52 295.8 512.64 296C513.76 296.2 514.2 299.96 512.64 302.06L509.49 299.83Z" fill="#A2AFD6"/>
<path d="M510.34 300.05C510.34 300.05 511.54 297.67 512.2 297.79C512.86 297.91 513.12 300.13 512.2 301.38L510.34 300.05V300.05Z" fill="#BAC4E5"/>
<path d="M513.96 308.15C513.78 308.33 513.59 308.49 513.4 308.64L513.38 308.66C510.49 310.96 506.73 310.7 506.73 310.7C506.73 310.7 502.97 310.96 500.08 308.66L500.06 308.64C499.87 308.49 499.68 308.33 499.5 308.15C496.56 305.3 501.71 298.87 506.73 298.87C511.74 298.87 516.89 305.31 513.96 308.15V308.15Z" fill="#A2AFD6"/>
<path d="M513.38 308.66C510.49 310.96 506.73 310.7 506.73 310.7C506.73 310.7 502.97 310.96 500.08 308.66C500.22 307.62 500.88 306.58 502.28 306.26C504.68 305.72 506.73 304.03 506.73 303.03C506.73 304.04 508.77 305.72 511.18 306.26C512.57 306.57 513.24 307.61 513.38 308.66Z" fill="#BAC4E5"/>
<path d="M503.7 304.21C503.7 304.87 503.43 305.4 503.09 305.4C502.75 305.4 502.48 304.87 502.48 304.21C502.48 303.55 502.75 303.02 503.09 303.02C503.43 303.03 503.7 303.56 503.7 304.21ZM510.55 304.21C510.55 304.87 510.28 305.4 509.94 305.4C509.6 305.4 509.33 304.87 509.33 304.21C509.33 303.55 509.6 303.02 509.94 303.02C510.28 303.02 510.55 303.56 510.55 304.21Z" fill="#414042"/>
<path d="M506.53 306.55C504.87 305.68 503.19 307.48 504.18 308.57C505.17 309.65 506.53 308.39 506.53 308.39C506.53 308.39 507.88 309.65 508.88 308.57C509.88 307.48 508.19 305.67 506.53 306.55Z" fill="white"/>
<path d="M507.79 306.05C507.4 305.51 506.55 305.64 506.55 305.64C506.55 305.64 505.7 305.5 505.31 306.05C504.92 306.59 506.19 307.32 506.55 307.32C506.9 307.32 508.17 306.59 507.79 306.05Z" fill="#414042"/>
<path d="M541.74 328.07L521.82 264.78H517.82L539.1 328.07H541.74ZM478.27 328.07L498.19 264.78H502.19L480.91 328.07H478.27Z" fill="white" stroke="#6F6F6E" stroke-miterlimit="10"/>
<path d="M564.95 272.59H595.74C597.88 272.59 599.61 274.32 599.61 276.46V282.41H561.08V276.46C561.08 274.32 562.81 272.59 564.95 272.59Z" fill="white" stroke="#6F6F6E" stroke-miterlimit="10"/>
<path d="M582.54 314.674H579.35V280.564H582.54V314.674Z" fill="white" stroke="#6F6F6E" stroke-miterlimit="10"/>
<path d="M580.34 314.67L595.59 316.79C595.59 316.79 595.75 314.88 592.14 314.06C588.52 313.24 580.34 311.19 580.34 311.19V314.67Z" fill="white" stroke="#6F6F6E" stroke-miterlimit="10"/>
<path d="M591.34 317.26C591.34 318.29 592.18 319.13 593.21 319.13C594.24 319.13 595.08 318.29 595.08 317.26C595.08 316.23 594.24 315.39 593.21 315.39C592.17 315.39 591.34 316.23 591.34 317.26Z" fill="white" stroke="#6F6F6E" stroke-miterlimit="10"/>
<path d="M592.59 317.26C592.59 317.6 592.87 317.88 593.21 317.88C593.55 317.88 593.83 317.6 593.83 317.26C593.83 316.92 593.55 316.64 593.21 316.64C592.87 316.64 592.59 316.92 592.59 317.26Z" fill="white" stroke="#6F6F6E" stroke-miterlimit="10"/>
<path d="M580.95 314.67L565.7 316.79C565.7 316.79 565.54 314.88 569.15 314.06C572.77 313.24 580.95 311.19 580.95 311.19V314.67Z" fill="white" stroke="#6F6F6E" stroke-miterlimit="10"/>
<path d="M569.95 317.26C569.95 318.29 569.11 319.13 568.08 319.13C567.05 319.13 566.21 318.29 566.21 317.26C566.21 316.23 567.05 315.39 568.08 315.39C569.11 315.39 569.95 316.23 569.95 317.26Z" fill="white" stroke="#6F6F6E" stroke-miterlimit="10"/>
<path d="M568.7 317.26C568.7 317.6 568.42 317.88 568.08 317.88C567.74 317.88 567.46 317.6 567.46 317.26C567.46 316.92 567.74 316.64 568.08 316.64C568.42 316.64 568.7 316.92 568.7 317.26Z" fill="white" stroke="#6F6F6E" stroke-miterlimit="10"/>
<path d="M552.39 310.01C552.39 310.01 553.12 313.39 553.15 314.13C553.18 314.87 550.2 319.42 549.17 321.02C548.13 322.63 545.95 323.44 545.84 324.32C545.73 325.19 547.01 325.85 549.6 324.89C552.19 323.94 553.28 321.08 555.22 320.18C557.16 319.28 560.81 318.14 560.7 316.69C560.59 315.25 557.92 312.49 557.92 312.49L557.1 309.15L552.39 310.01V310.01Z" fill="#F5B8AD"/>
<path d="M565.49 317.66C565.49 317.66 564.51 320.94 564.52 321.66C564.53 322.38 565.28 326.77 564.5 327.51C563.72 328.24 559.71 329.15 558.39 328.54C557.07 327.94 555.47 326.26 556 325.44C556.53 324.61 559.51 320.97 559.93 320.27C560.35 319.57 561.01 316.23 561.01 316.23L565.49 317.66V317.66Z" fill="#F5B8AD"/>
<path d="M595.71 273.49C593.96 280.47 574.18 292 574.18 292L567.06 320.11L559.46 317.49C559.46 317.49 563.01 289.73 564 287.44C564.61 284.92 575.5 275.13 576.52 274.21L576.59 274.15L576.51 274.2L555.5 286.25L559.06 310.28L551.75 313.24C551.75 313.24 542.55 284.71 542.86 281.93C543.18 279.15 574.63 260.47 574.63 260.47L578.28 261.02L593.36 263.27C593.37 263.26 596.36 270.95 595.71 273.49Z" fill="#59595B"/>
<path d="M555.15 286.17L558.7 310.2L552.03 285.51L572.96 273.02L571.35 269.23L576.15 274.12L555.15 286.17Z" fill="#CFD1D3"/>
<path d="M595.72 273.49C593.97 280.47 574.19 292 574.19 292L567.07 320.11L572.08 290.87L590.93 273.31C590.93 273.31 577.55 272.96 571.33 266.31C569.16 263.98 572.73 262.27 578.29 261.02L593.37 263.27C593.38 263.26 596.36 270.95 595.72 273.49V273.49Z" fill="#CFD1D3"/>
<path d="M572.89 235.28C572.93 233.29 570.3 224 565.15 233.42C563.28 237.69 562.19 254.68 562.19 254.68C556.53 253.1 548.93 250.87 546.42 250.05C545.85 249.19 545.09 248.11 544.7 247.73C544.02 247.06 542.76 245.58 542.42 245.25C542.07 244.92 538.86 245.37 538.51 245.7C538.17 246.02 537.05 246.57 538.5 246.72C539.97 246.6 541.24 246.44 541.24 246.44L542.7 248.04C542.7 248.04 540.8 247.29 540.32 247.25C539.84 247.21 536.82 248.44 536.64 248.86C536.46 249.28 537.26 249.82 537.96 249.5C537.96 249.5 537.32 249.88 537.32 250.18C537.32 250.48 537.61 250.66 538.59 250.36C538.59 250.36 538.22 250.87 538.4 251.16C538.86 251.7 540.78 250.76 540.98 250.8C541.18 250.84 541.87 253.35 544.46 253.45H544.73C552.21 257.78 562.94 262.57 565.86 261.66C569.3 259.8 572.3 241.41 572.89 235.28V235.28Z" fill="#F5B8AD"/>
<path d="M563.34 244.9L573.42 245.51C573.42 245.51 574.56 235.35 574.08 231.93C573.6 228.51 571.38 227.14 569.46 228.12C567.54 229.12 563.34 231.34 563.34 244.9Z" fill="#7A73FF"/>
<path d="M566.15 231.03C566.15 231.03 566.51 238.77 569.31 245.26C569.5 246.05 570.19 248.06 570.37 248.92C570.74 250.72 571.07 252.63 571.36 254.43C571.41 254.74 571.45 255.04 571.5 255.33C571.59 255.96 571.37 257.67 571.38 257.72C571.44 258.14 568.77 264.1 568.78 264.16C573.94 271 595.33 269.25 595.82 268.66C595.82 268.66 593.3 255.22 594.72 247.78C594.71 247.76 594.5 228.87 594.71 228.12C594.72 228.09 594.72 228.07 594.72 228.07C594.72 228.07 590.56 225.2 585.29 223.36C584.81 223.19 584.32 223.03 583.83 222.89C583.32 222.74 582.81 222.6 582.29 222.48C580.61 222.08 578.89 221.84 577.2 221.86C575.34 222.43 573.66 223.4 572.19 224.52C571.97 224.68 571.76 224.85 571.55 225.03C571.13 225.37 570.73 225.72 570.35 226.08C567.35 228.89 566.15 231.03 566.15 231.03V231.03Z" fill="#7A73FF"/>
<path d="M571.54 225.11C571.54 225.11 572.28 231.22 576.9 230.61C581.53 230 584.05 223.47 584.05 223.47L583.16 221.16L581.97 217.4L580.52 212.82L577.04 218.54L572.27 218.41L572.13 219.68L571.82 222.52L571.54 225.11V225.11Z" fill="#F5B8AD"/>
<path opacity="0.5" d="M571.84 224.07C572.56 224.03 576.86 223.61 582.43 218.73L580.92 213.95L577.28 219.92L572.3 219.78L572.16 221.1L571.84 224.07Z" fill="#E17F88"/>
<path d="M571.68 201.77C571.68 201.77 577.54 200.05 580.94 207.06C580.94 207.06 582.98 211.6 581.23 216.14C581.23 216.14 577.31 222.21 572.53 224.07C569.17 225.25 565.42 219.33 565.19 213.16C564.96 207.32 567.82 202.42 571.68 201.77V201.77Z" fill="#F5B8AD"/>
<path d="M580.72 213.76L580.82 216.52C583.19 217.27 585.01 214.9 585.29 213C585.43 212.04 585.17 211.21 584.4 210.95C582.76 210.41 581.61 212.03 581.07 213.03C580.84 213.45 580.72 213.76 580.72 213.76V213.76Z" fill="#F5B8AD"/>
<path opacity="0.5" d="M581.07 213.03L581.35 212.97C581.35 212.97 581.98 212.08 583.42 212.01C584.85 211.93 585.3 213 585.3 213C585.44 212.04 585.18 211.21 584.41 210.95C582.77 210.42 581.61 212.04 581.07 213.03Z" fill="#E17F88"/>
<path d="M583.76 212.6C582.13 212.64 581.25 214.14 581.21 214.21C581.17 214.28 581.2 214.36 581.26 214.4C581.28 214.41 581.31 214.42 581.33 214.42C581.38 214.42 581.42 214.39 581.44 214.35C581.45 214.34 581.77 213.78 582.38 213.35C582.96 213.7 582.7 214.66 582.7 214.67C582.68 214.74 582.72 214.82 582.79 214.84C582.8 214.84 582.82 214.85 582.83 214.85C582.89 214.85 582.94 214.81 582.96 214.75C582.97 214.7 583.24 213.69 582.63 213.2C582.94 213.03 583.3 212.9 583.72 212.88H583.76C583.83 212.89 583.9 212.82 583.89 212.74C583.89 212.66 583.83 212.6 583.76 212.6V212.6ZM575.88 215.14C575.9 215.27 576.24 215.32 576.64 215.25C577.03 215.18 577.33 215.02 577.31 214.89C577.29 214.76 576.95 214.71 576.55 214.78C576.16 214.85 575.86 215.01 575.88 215.14ZM575.84 215.93C575.85 215.8 576.19 215.73 576.59 215.77C576.99 215.81 577.3 215.95 577.29 216.08C577.28 216.21 576.94 216.28 576.54 216.24C576.14 216.2 575.83 216.06 575.84 215.93ZM566.26 216.29C566.24 216.16 565.9 216.11 565.5 216.18C565.11 216.25 564.81 216.41 564.83 216.54C564.85 216.67 565.19 216.72 565.59 216.65C565.99 216.58 566.29 216.42 566.26 216.29ZM566.3 215.5C566.29 215.63 565.95 215.7 565.55 215.66C565.15 215.62 564.84 215.48 564.85 215.35C564.86 215.22 565.2 215.15 565.6 215.19C566 215.23 566.31 215.37 566.3 215.5Z" fill="#E17F88"/>
<path d="M572.33 213.4C572.42 212.88 572.91 212.37 573.53 212.35C574.15 212.33 574.67 212.8 574.79 213.32C574.614 213.138 574.412 212.982 574.19 212.86C573.98 212.76 573.76 212.69 573.54 212.71C573.09 212.72 572.68 213 572.33 213.4V213.4ZM566.24 213.68C566.26 213.43 566.36 213.2 566.53 213C566.69 212.8 566.96 212.65 567.25 212.64C567.54 212.63 567.81 212.76 567.99 212.95C568.17 213.14 568.29 213.37 568.32 213.61C568.15 213.43 567.99 213.27 567.81 213.16C567.63 213.05 567.45 212.98 567.26 212.99C566.89 213.01 566.55 213.31 566.24 213.68V213.68Z" fill="#121D31"/>
<path d="M570.48 217.17H570.43C570.22 217.16 569.74 217 569.64 215.77C569.48 213.76 569.76 212.63 569.78 212.58C569.789 212.544 569.813 212.514 569.844 212.495C569.876 212.476 569.914 212.471 569.95 212.48C570.02 212.5 570.07 212.57 570.05 212.65C570.05 212.66 569.77 213.79 569.92 215.75C569.99 216.58 570.24 216.89 570.45 216.9C570.76 216.92 571.22 216.36 571.38 215.45C571.39 215.38 571.46 215.33 571.54 215.34C571.61 215.35 571.66 215.42 571.65 215.5C571.47 216.46 570.99 217.15 570.48 217.17V217.17Z" fill="#E17F88"/>
<path d="M571.06 219.26C572.86 218.93 573.69 217.35 573.72 217.29C573.75 217.23 573.73 217.16 573.67 217.13C573.656 217.123 573.641 217.118 573.626 217.116C573.61 217.115 573.594 217.117 573.579 217.121C573.565 217.126 573.551 217.134 573.539 217.144C573.527 217.154 573.517 217.166 573.51 217.18C573.5 217.2 572.7 218.72 571.02 219.03C569.35 219.34 568.3 218.16 568.29 218.15C568.25 218.1 568.17 218.1 568.12 218.14C568.07 218.18 568.06 218.26 568.11 218.31C568.16 218.36 569.26 219.59 571.06 219.26V219.26Z" fill="#E17F88"/>
<path d="M565.73 212.09C565.88 212.08 566.02 211.98 566.06 211.83C566.07 211.81 566.29 211.1 566.91 210.77C567.3 210.56 567.77 210.55 568.32 210.72C568.51 210.78 568.72 210.67 568.78 210.48C568.84 210.29 568.73 210.08 568.54 210.02C567.79 209.79 567.13 209.82 566.56 210.12C565.67 210.6 565.37 211.57 565.36 211.61C565.3 211.8 565.41 212 565.61 212.06C565.66 212.08 565.69 212.09 565.73 212.09V212.09Z" fill="#603914"/>
<path d="M575.99 211.85C576.03 211.85 576.08 211.84 576.12 211.82C576.33 211.74 576.44 211.5 576.36 211.29C576.34 211.24 575.93 210.18 574.89 209.72C574.23 209.43 573.48 209.45 572.66 209.77C572.56 209.81 572.479 209.888 572.436 209.988C572.393 210.087 572.391 210.199 572.43 210.3C572.51 210.51 572.75 210.61 572.96 210.53C573.57 210.29 574.1 210.27 574.56 210.47C575.28 210.79 575.6 211.57 575.6 211.58C575.65 211.75 575.81 211.85 575.99 211.85V211.85Z" fill="#603914"/>
<path d="M559.31 206.24C559.31 206.24 567.09 198.18 576.64 197.67C578.7 197.55 579.71 198.76 580.19 199.73V199.67C580.29 198.82 580.56 198.15 580.8 198.18C581.04 198.21 581.15 198.92 581.05 199.77C581.02 200.03 580.97 200.27 580.91 200.49C581.15 200.26 581.46 200.01 581.82 199.76C582.71 199.13 583.54 198.77 583.67 198.95C583.8 199.13 583.17 199.78 582.28 200.41C582.06 200.56 581.85 200.7 581.65 200.82C582.01 200.89 582.42 201.08 582.84 201.49C583.98 202.6 584.01 209.62 583.8 210.86C582.21 210.88 581.37 212.5 581.22 212.84C581.11 213.96 580.86 215.27 580.38 216.59C580.38 216.59 579.72 213.35 579.77 210.36C578.9 210.2 576.85 209.57 576 207.06C576 207.06 569.11 210.3 562.3 208.89C562.52 208.54 563.85 207.84 564.81 207.47C562.45 207.34 560.22 207.14 559.31 206.24V206.24Z" fill="#603914"/>
<path d="M598.39 233.04C597.87 231.12 592.7 222.96 590.44 233.46C589.86 238.09 593.66 254.68 593.66 254.68C587.78 254.78 579.86 254.8 577.22 254.73C576.43 254.07 575.4 253.24 574.91 252.99C574.07 252.55 572.44 251.48 572.01 251.26C571.58 251.04 568.63 252.39 568.39 252.8C568.15 253.21 567.23 254.05 568.67 253.78C570.05 253.25 571.22 252.73 571.22 252.73L573.08 253.85C573.08 253.85 571.04 253.67 570.57 253.77C570.1 253.87 567.55 255.91 567.5 256.37C567.45 256.82 568.37 257.11 568.95 256.61C568.95 256.61 568.44 257.16 568.53 257.45C568.62 257.74 568.95 257.83 569.8 257.26C569.8 257.26 569.59 257.86 569.84 258.08C570.43 258.46 572.01 257.02 572.21 257C572.41 256.98 573.79 259.19 576.3 258.55C576.39 258.53 576.47 258.5 576.56 258.47C584.96 260.49 596.62 262.03 599.15 260.33C601.93 257.57 599.57 239.09 598.39 233.04Z" fill="#F5B8AD"/>
<path d="M561.06 260.45L561.04 262.29C561.04 262.29 551.7 263.16 551.3 263.2C550.9 263.24 524.6 263.11 523.16 262.23C522.8 262.01 522.14 259.8 521.55 258.09C519.68 252.7 517.44 242.87 518.08 242.11C519.13 241.26 539.71 240.62 545.69 241.48C546.52 241.6 546.35 241.45 546.52 241.6C547.64 242.5 550.95 259.87 551.44 260.27C551.89 260.62 561.06 260.45 561.06 260.45Z" fill="white" stroke="#6F6F6E" stroke-miterlimit="10"/>
<path d="M533.14 250.9C532.84 250.33 532.99 249.86 533.32 249.46C533.01 249.26 532.66 249.16 532.32 249.21C531.24 249.36 530.56 250.86 530.79 252.56C531.03 254.26 532.1 255.51 533.18 255.36C534.26 255.21 534.94 253.71 534.71 252.01C534.7 251.96 534.69 251.92 534.69 251.87C534.04 251.79 533.45 251.5 533.14 250.9V250.9Z" fill="#7A73FF"/>
<path d="M626.01 330.07L606.09 266.78H602.09L623.37 330.07H626.01ZM562.54 330.07L582.46 266.78H586.46L565.19 330.07H562.54Z" fill="white" stroke="#6F6F6E" stroke-miterlimit="10"/>
<path d="M493.53 262.46H610.87C612.15 262.46 613.19 263.5 613.19 264.78C613.19 266.06 612.15 267.1 610.87 267.1H493.53C492.25 267.1 491.21 266.06 491.21 264.78C491.21 263.5 492.25 262.46 493.53 262.46Z" fill="white" stroke="#6F6F6E" stroke-miterlimit="10"/>
<path d="M516.01 211.32L515.75 211.54C515.454 211.796 515.212 212.108 515.037 212.457C514.862 212.807 514.758 213.188 514.73 213.578C514.702 213.968 514.751 214.36 514.875 214.731C514.998 215.102 515.194 215.445 515.45 215.74L518.4 219.14C518.656 219.436 518.968 219.678 519.317 219.853C519.667 220.028 520.048 220.132 520.438 220.16C520.828 220.188 521.22 220.139 521.591 220.015C521.962 219.892 522.305 219.696 522.6 219.44L522.86 219.22C523.156 218.964 523.398 218.652 523.573 218.303C523.748 217.953 523.852 217.572 523.88 217.182C523.908 216.792 523.859 216.4 523.735 216.029C523.612 215.658 523.416 215.315 523.16 215.02L520.21 211.62C519.69 211.027 518.958 210.664 518.172 210.607C517.385 210.551 516.609 210.807 516.01 211.32V211.32Z" fill="white" stroke="#6F6F6E" stroke-miterlimit="10"/>
<path d="M521.84 218.67L521.65 218.83C520.74 219.62 520.64 221.01 521.43 221.93L523.6 224.44C524.39 225.35 525.78 225.45 526.7 224.66L526.89 224.5C527.8 223.71 527.9 222.32 527.11 221.4L524.94 218.89C524.556 218.453 524.016 218.184 523.435 218.143C522.855 218.102 522.282 218.291 521.84 218.67Z" fill="white" stroke="#6F6F6E" stroke-miterlimit="10"/>
<path d="M521.35 211.93L519.14 213.84L517.84 214.96L515.63 216.87L518.08 229.84L525.3 223.59L526.6 222.46L533.83 216.21L521.35 211.93Z" fill="white" stroke="#6F6F6E" stroke-miterlimit="10"/>
<path d="M506.58 259.94L494.69 230.16L516.32 212.98L517.45 214.4L496.88 230.74L508.27 259.27L506.58 259.94Z" fill="white" stroke="#6F6F6E" stroke-miterlimit="10"/>
<path d="M498.46 230.61C498.46 231.321 498.178 232.002 497.675 232.505C497.172 233.008 496.491 233.29 495.78 233.29C495.069 233.29 494.388 233.008 493.885 232.505C493.382 232.002 493.1 231.321 493.1 230.61C493.1 229.899 493.382 229.218 493.885 228.715C494.388 228.212 495.069 227.93 495.78 227.93C496.491 227.93 497.172 228.212 497.675 228.715C498.178 229.218 498.46 229.899 498.46 230.61V230.61Z" fill="white" stroke="#6F6F6E" stroke-miterlimit="10"/>
<path d="M495.78 231.87C496.476 231.87 497.04 231.306 497.04 230.61C497.04 229.914 496.476 229.35 495.78 229.35C495.084 229.35 494.52 229.914 494.52 230.61C494.52 231.306 495.084 231.87 495.78 231.87Z" fill="white" stroke="#6F6F6E" stroke-miterlimit="10"/>
<path d="M495.78 258.52H518.3V262.46H495.78V258.52Z" fill="white" stroke="#6F6F6E" stroke-miterlimit="10"/>
<path d="M509.659 174.019C512.424 167.309 509.226 159.629 502.517 156.864C495.807 154.099 488.126 157.296 485.362 164.006C482.597 170.716 485.794 178.396 492.504 181.161C499.214 183.926 506.894 180.729 509.659 174.019Z" fill="white" stroke="#6F6F6E" stroke-miterlimit="10"/>
<path d="M482.64 169.01C482.64 177.21 489.29 183.86 497.49 183.86C505.69 183.86 512.34 177.21 512.34 169.01C512.34 160.81 505.69 154.16 497.49 154.16C489.29 154.16 482.64 160.81 482.64 169.01ZM484.36 169.01C484.36 161.77 490.25 155.87 497.5 155.87C504.74 155.87 510.64 161.76 510.64 169.01C510.64 176.25 504.75 182.15 497.5 182.15C490.25 182.15 484.36 176.25 484.36 169.01Z" fill="white" stroke="#6F6F6E" stroke-miterlimit="10"/>
<path d="M497.49 158C497.85 158 498.15 157.7 498.15 157.34V155.95C498.15 155.59 497.85 155.29 497.49 155.29C497.13 155.29 496.83 155.59 496.83 155.95V157.34C496.83 157.7 497.13 158 497.49 158ZM497.49 183.25C497.85 183.25 498.15 182.95 498.15 182.59V181.2C498.15 180.84 497.85 180.54 497.49 180.54C497.13 180.54 496.83 180.84 496.83 181.2V182.59C496.83 182.95 497.13 183.25 497.49 183.25ZM486.23 169.26C486.23 168.9 485.93 168.6 485.57 168.6H484.18C483.82 168.6 483.52 168.9 483.52 169.26C483.52 169.62 483.82 169.92 484.18 169.92H485.57C485.93 169.93 486.23 169.63 486.23 169.26ZM511.47 169.26C511.47 168.9 511.17 168.6 510.81 168.6H509.42C509.06 168.6 508.76 168.9 508.76 169.26C508.76 169.62 509.06 169.92 509.42 169.92H510.81C511.18 169.93 511.47 169.63 511.47 169.26Z" fill="white" stroke="#6F6F6E" stroke-miterlimit="10"/>
<path d="M497.49 169.44C497.57 169.44 497.65 169.42 497.72 169.37L503.18 165.8C503.38 165.67 503.43 165.4 503.3 165.21C503.17 165.01 502.9 164.96 502.71 165.09L497.91 168.23V159.48C497.91 159.24 497.72 159.05 497.48 159.05C497.24 159.05 497.05 159.24 497.05 159.48V169.02C497.05 169.18 497.14 169.32 497.27 169.4C497.35 169.42 497.42 169.44 497.49 169.44V169.44Z" fill="white" stroke="#6F6F6E" stroke-miterlimit="10"/>
<path d="M497.49 167.3C498.43 167.3 499.2 168.07 499.2 169.01C499.2 169.95 498.43 170.72 497.49 170.72C496.55 170.72 495.78 169.95 495.78 169.01C495.78 168.07 496.55 167.3 497.49 167.3Z" fill="white" stroke="#6F6F6E" stroke-miterlimit="10"/>
<path d="M664.96 344.14L453.17 332.51C453.17 332.51 449.36 317.03 452.78 300.45C453.28 298.02 453.94 295.57 454.79 293.13C457.58 285.1 462.45 277.31 470.63 271.39C498.22 251.45 476.55 221.91 471.53 204.06C455.63 161.24 504.98 106.37 589.74 139.93C674.5 173.49 622.8 237.21 628.11 271.47C630.65 287.89 640.35 295.6 649.21 303.8C651.89 306.28 654.5 308.81 656.81 311.65C662.8 318.99 666.8 328.34 664.96 344.14V344.14Z" stroke="#F5F5F5" stroke-miterlimit="10"/>
<path d="M666.63 336.95L459.47 339.86C459.47 339.86 454.81 324.67 457.12 307.9C457.46 305.44 457.95 302.95 458.63 300.46C460.85 292.25 465.12 284.15 472.74 277.68C498.41 255.89 475.47 227.9 469.48 210.43C451.35 168.8 496.08 110.65 580.77 138.34C665.45 166.03 618.97 233.14 626.26 266.97C629.75 283.18 639.67 290.21 648.82 297.79C651.59 300.08 654.29 302.43 656.71 305.1C662.99 312 667.46 321.06 666.63 336.95V336.95Z" stroke="white" stroke-width="1.093" stroke-miterlimit="10"/>
<path d="M663.49 344.47L451.77 332.02C451.77 332.02 448.12 316.53 451.7 299.97C452.22 297.54 452.91 295.09 453.78 292.66C456.65 284.64 461.6 276.87 469.85 270.99C497.64 251.16 476.27 221.55 471.43 203.68C455.96 160.81 505.87 106.14 590.31 140.03C674.75 173.92 622.39 237.41 627.36 271.68C629.74 288.1 639.36 295.85 648.14 304.09C650.8 306.58 653.39 309.12 655.67 311.96C661.59 319.32 665.49 328.68 663.49 344.47V344.47ZM279.75 331.93C279.53 334.04 279.2 336.07 278.78 337.99C278.77 338.04 278.76 338.1 278.74 338.15C275.91 350.79 269.38 358.9 269.38 358.9L93.3999 376.94C93.3999 376.94 88.0699 369.88 81.2399 358.39L81.1499 358.24C80.0423 356.379 78.9556 354.505 77.8899 352.62C63.1799 326.48 44.7599 283.69 55.1099 246.63C71.4099 200.53 98.3499 224.05 139.4 167.86C180.44 111.67 251.31 155.22 242.31 192.68C233.3 230.13 237.58 254.74 266.39 290.78C278.46 305.88 280.94 320.29 279.75 331.93V331.93Z" stroke="white" stroke-width="1.093" stroke-miterlimit="10"/>
<path d="M275.67 330.15C275.45 332.26 275.12 334.29 274.7 336.21C274.69 336.26 274.68 336.32 274.66 336.37C271.83 349.01 265.3 357.12 265.3 357.12L89.3201 375.17C89.3201 375.17 83.9901 368.11 77.1601 356.62L77.0701 356.47C75.9625 354.609 74.8757 352.735 73.8101 350.85C59.1001 324.71 40.6801 281.92 51.0301 244.86C67.3301 198.76 94.2701 222.28 135.32 166.09C176.36 109.9 247.23 153.45 238.23 190.91C229.22 228.36 233.5 252.97 262.31 289.01C274.38 304.11 276.86 318.51 275.67 330.15Z" stroke="white" stroke-width="1.093" stroke-miterlimit="10"/>
<path d="M177.18 234.23C177.18 234.23 167.58 248.15 186.37 251.02C186.37 251.02 188.44 259.89 198.41 256.39C198.41 256.39 205.48 266.66 213.02 255.58C213.02 255.58 224.16 260.25 226.03 251.78C226.03 251.78 237.42 252.65 237.98 241.56C238.09 239.46 237.9 237.72 237.55 236.28C235.99 230.06 231.11 229.25 231.11 229.25C231.11 229.25 239.04 221.68 229.41 217.2C229.41 217.2 238.03 199.46 218.1 200.07C218.1 200.07 216.74 186.5 205.5 185.79C194.27 185.07 191.54 197.63 191.54 197.63C191.54 197.63 185.65 194.81 184.28 199.33C184.08 199.97 183.98 200.75 184 201.71C184 201.71 179.34 199.33 175.08 206.37C170.81 213.42 177.46 221.93 177.46 221.93C177.46 221.93 169.58 227.67 177.18 234.23V234.23Z" fill="#44B8B6"/>
<path d="M187.41 218.74C187.41 218.74 177.81 232.66 196.6 235.53C196.6 235.53 198.67 244.39 208.64 240.89C208.64 240.89 215.71 251.16 223.25 240.09C223.25 240.09 234.39 244.76 236.26 236.28C236.26 236.28 236.75 236.32 237.54 236.28C235.98 230.06 231.1 229.25 231.1 229.25C231.1 229.25 239.03 221.68 229.4 217.2C229.4 217.2 238.02 199.46 218.09 200.07C218.09 200.07 216.73 186.5 205.49 185.79C194.26 185.07 191.53 197.63 191.53 197.63C191.53 197.63 185.64 194.81 184.27 199.33C185.25 203.34 187.68 206.44 187.68 206.44C187.68 206.44 179.81 212.18 187.41 218.74Z" fill="#36ACA6"/>
<path d="M204.36 242.91C205.65 246.03 206.18 249.45 206.55 252.81C206.89 256.19 206.93 259.6 206.8 262.99C206.72 266.38 206.41 269.77 206.01 273.14L205.33 278.21C205.11 279.92 204.86 281.63 204.74 283.35C204.13 290.22 202.82 297.25 203.58 304.13C203.92 307.56 204.28 324.66 204.28 324.66L208.78 324.25L209.06 324.18C209.06 324.18 207.73 310.59 207.39 303.82C207.22 300.44 207.03 297.06 206.95 293.67C206.91 291.98 206.83 290.28 206.87 288.59L206.9 286.05L207.02 283.51C207.07 281.81 207.24 280.13 207.39 278.44L207.86 273.32C208.12 269.89 208.3 266.44 208.24 262.99C208.18 259.55 207.95 256.1 207.42 252.69C206.85 249.3 206.14 245.9 204.64 242.76L204.36 242.91V242.91Z" fill="url(#paint3_linear_11_11138)"/>
<path d="M220.38 248.03C219.624 249.754 218.817 251.454 217.96 253.13C217.11 254.8 216.18 256.41 215.17 257.97C214.16 259.52 212.7 262.11 207.05 264.61H206.9L206.87 265.35C206.74 266.12 206.58 266.89 206.44 267.66L206.26 269.41L206.62 269.19C204.95 268.4 203.3 267.77 201.87 266.55C200.43 265.337 199.147 263.95 198.05 262.42C196.98 260.89 196.01 259.25 195.37 257.45C194.97 256.58 194.76 255.65 194.48 254.73C194.22 253.8 194.09 252.85 193.86 251.89L193.73 251.9C193.73 252.39 193.75 252.88 193.76 253.37C193.79 253.86 193.75 254.36 193.86 254.85C194.03 255.82 194.13 256.82 194.44 257.77C194.94 259.7 195.82 261.54 196.94 263.21C198.04 264.9 199.47 266.36 201.07 267.58C202.67 268.8 204.38 269.83 206.32 270.49L206.9 270.68L206.95 270.1L207.14 267.76C207.21 266.98 207.27 266.2 207.35 265.42L207.18 265.62C209.03 265.04 210.7 264.04 212.2 262.84C212.96 262.25 213.67 261.59 214.33 260.88C214.99 260.18 215.61 259.43 216.15 258.63C217.24 257.04 218.11 255.31 218.85 253.55C219.58 251.78 220.16 249.96 220.51 248.08L220.38 248.03V248.03Z" fill="url(#paint4_linear_11_11138)"/>
<path d="M179.17 252.62C179.17 252.62 180.4 249.49 182.43 250.18C184.46 250.87 182.36 256.06 179.25 255.04L179.17 252.62V252.62Z" fill="#E9A099"/>
<path d="M181.84 251.62C180.4 251.64 179.62 252.96 179.59 253.01C179.56 253.07 179.58 253.14 179.63 253.17C179.65 253.18 179.67 253.19 179.69 253.19C179.73 253.19 179.77 253.17 179.79 253.13C179.79 253.12 180.09 252.63 180.62 252.26C181.12 252.57 180.89 253.41 180.89 253.42C180.87 253.48 180.91 253.55 180.97 253.57C180.98 253.57 180.99 253.58 181.01 253.57C181.06 253.57 181.11 253.53 181.12 253.48C181.13 253.44 181.37 252.55 180.84 252.12C181.11 251.97 181.43 251.86 181.8 251.85H181.84C181.9 251.86 181.96 251.8 181.96 251.73C181.96 251.67 181.91 251.62 181.84 251.62V251.62Z" fill="#D57180"/>
<path d="M166.64 252.99L166.71 255.42C164.68 256.22 162.94 254.25 162.58 252.6C162.4 251.77 162.58 251.03 163.24 250.75C164.64 250.18 165.75 251.53 166.29 252.37C166.52 252.73 166.64 252.99 166.64 252.99V252.99Z" fill="#E9A099"/>
<path d="M163.91 252.15C165.34 252.09 166.2 253.35 166.24 253.41C166.28 253.47 166.26 253.54 166.21 253.58C166.19 253.59 166.17 253.6 166.15 253.6C166.11 253.6 166.07 253.58 166.05 253.55C166.04 253.54 165.72 253.07 165.17 252.73C164.69 253.07 164.96 253.9 164.97 253.91C164.99 253.97 164.96 254.04 164.9 254.06C164.89 254.06 164.88 254.07 164.86 254.07C164.834 254.07 164.809 254.062 164.788 254.048C164.766 254.034 164.75 254.014 164.74 253.99C164.73 253.95 164.43 253.08 164.94 252.61C164.66 252.48 164.34 252.39 163.97 252.4H163.93C163.87 252.41 163.81 252.35 163.8 252.29C163.8 252.21 163.85 252.16 163.91 252.15V252.15Z" fill="#D57180"/>
<path d="M179.76 251.15C179.93 256.79 176.98 261.46 173.17 261.57C169.36 261.68 166.14 257.2 165.98 251.56C165.81 245.92 168.76 241.25 172.57 241.14C176.37 241.03 179.59 245.51 179.76 251.15Z" fill="#F5B8AD"/>
<path d="M174.63 252.53C174.67 252.29 174.78 252.04 174.98 251.86C175.178 251.665 175.441 251.551 175.718 251.54C175.996 251.529 176.267 251.622 176.48 251.8C176.69 251.97 176.82 252.2 176.88 252.44C176.51 252.11 176.13 251.9 175.74 251.92C175.33 251.93 174.96 252.17 174.63 252.53ZM168.64 252.82C168.66 252.6 168.74 252.37 168.92 252.18C169.09 251.99 169.37 251.85 169.68 251.84C169.99 251.83 170.28 251.95 170.46 252.13C170.65 252.3 170.76 252.52 170.79 252.75C170.42 252.44 170.06 252.2 169.69 252.22C169.32 252.22 168.97 252.48 168.64 252.82Z" fill="#121D31"/>
<path d="M168.49 253.99C168.48 254.11 168.18 254.17 167.83 254.13C167.48 254.09 167.21 253.97 167.22 253.85C167.23 253.73 167.53 253.67 167.88 253.71C168.23 253.75 168.5 253.87 168.49 253.99ZM168.57 254.67C168.55 254.56 168.25 254.51 167.91 254.57C167.56 254.63 167.3 254.77 167.32 254.89C167.34 255 167.64 255.05 167.98 254.99C168.32 254.93 168.59 254.79 168.57 254.67Z" fill="#D57180"/>
<path d="M177.41 254.41C177.42 254.29 177.72 254.23 178.07 254.27C178.42 254.31 178.69 254.43 178.68 254.55C178.67 254.67 178.37 254.73 178.02 254.69C177.67 254.65 177.4 254.53 177.41 254.41ZM177.33 253.72C177.35 253.83 177.65 253.88 177.99 253.82C178.34 253.76 178.6 253.62 178.58 253.5C178.56 253.39 178.26 253.34 177.92 253.4C177.57 253.47 177.31 253.61 177.33 253.72Z" fill="#D57180"/>
<path d="M173.05 255.46H173.01C172.83 255.45 172.4 255.31 172.32 254.23C172.19 252.46 172.45 251.47 172.46 251.43C172.465 251.415 172.472 251.401 172.482 251.389C172.492 251.376 172.505 251.366 172.518 251.359C172.532 251.351 172.548 251.347 172.563 251.345C172.579 251.344 172.595 251.345 172.61 251.35C172.625 251.355 172.639 251.362 172.651 251.372C172.664 251.382 172.674 251.394 172.681 251.408C172.689 251.422 172.693 251.438 172.695 251.453C172.696 251.469 172.695 251.485 172.69 251.5C172.69 251.51 172.43 252.5 172.55 254.22C172.6 254.95 172.82 255.22 173.01 255.23C173.29 255.25 173.69 254.76 173.84 253.96C173.847 253.929 173.865 253.902 173.891 253.884C173.917 253.865 173.948 253.857 173.98 253.86C174.04 253.87 174.09 253.94 174.08 254C173.93 254.84 173.5 255.44 173.05 255.46V255.46ZM173.17 257.4C171.35 257.45 170.21 256.09 170.16 256.03C170.141 256.004 170.133 255.973 170.136 255.941C170.14 255.909 170.156 255.88 170.18 255.86C170.23 255.82 170.31 255.83 170.35 255.88C170.36 255.89 171.46 257.21 173.17 257.16C174.87 257.11 175.64 255.75 175.65 255.73C175.68 255.67 175.76 255.65 175.81 255.68C175.87 255.71 175.89 255.79 175.86 255.84C175.82 255.91 175 257.34 173.17 257.4V257.4Z" fill="#D57180"/>
<path d="M176.32 249.98C175.92 249.87 175.48 249.94 175.01 250.2C174.85 250.29 174.64 250.23 174.55 250.07C174.507 249.992 174.497 249.899 174.521 249.813C174.546 249.728 174.603 249.654 174.68 249.61C175.32 249.25 175.94 249.16 176.52 249.33C177.43 249.6 177.93 250.84 177.76 250.93C177.73 250.95 176.95 250.16 176.32 249.98ZM167.63 251.63C167.45 251.58 167.7 250.26 168.54 249.82C169.07 249.54 169.7 249.51 170.4 249.74C170.58 249.8 170.68 249.99 170.62 250.17C170.606 250.213 170.585 250.252 170.555 250.287C170.526 250.321 170.491 250.349 170.451 250.37C170.411 250.39 170.367 250.402 170.323 250.406C170.278 250.409 170.233 250.404 170.19 250.39C169.67 250.22 169.23 250.24 168.86 250.43C168.27 250.72 167.66 251.64 167.63 251.63V251.63Z" fill="#414042"/>
<path d="M171.96 252.23C171.96 252.23 172.84 251.39 173.77 252.15M171.96 252.56C171.942 252.882 171.86 253.198 171.719 253.488C171.578 253.778 171.381 254.038 171.139 254.251C170.897 254.465 170.616 254.629 170.31 254.734C170.005 254.838 169.682 254.881 169.36 254.86C169.038 254.842 168.723 254.76 168.432 254.619C168.142 254.478 167.882 254.281 167.669 254.039C167.455 253.797 167.291 253.516 167.187 253.21C167.082 252.905 167.039 252.582 167.06 252.26C167.079 251.938 167.161 251.623 167.302 251.332C167.442 251.042 167.639 250.782 167.881 250.569C168.123 250.355 168.404 250.191 168.71 250.086C169.015 249.982 169.338 249.939 169.66 249.96C171.01 250.04 172.05 251.2 171.96 252.56ZM178.68 252.21C178.662 252.532 178.58 252.848 178.439 253.138C178.298 253.428 178.101 253.688 177.859 253.902C177.617 254.115 177.336 254.279 177.03 254.384C176.725 254.488 176.402 254.531 176.08 254.51C175.758 254.492 175.443 254.41 175.152 254.269C174.862 254.128 174.602 253.931 174.389 253.689C174.175 253.447 174.011 253.166 173.907 252.86C173.802 252.555 173.759 252.232 173.78 251.91C173.799 251.588 173.881 251.273 174.022 250.982C174.162 250.692 174.359 250.432 174.601 250.219C174.843 250.005 175.124 249.841 175.43 249.736C175.735 249.632 176.058 249.589 176.38 249.61C176.703 249.628 177.018 249.709 177.309 249.85C177.599 249.991 177.859 250.188 178.073 250.43C178.287 250.671 178.451 250.953 178.555 251.259C178.659 251.565 178.702 251.888 178.68 252.21Z" stroke="white" stroke-width="0.75" stroke-miterlimit="10"/>
<path d="M164.33 250.61C164.33 250.61 163 247.14 163.16 246.11C163.32 245.09 164.62 241.31 168.01 239.78C168.49 238.94 169.74 244.78 169.74 244.78C169.74 244.78 169.05 246.43 167.01 247.09C167.01 247.09 168.11 249 166.08 252.52C166.08 252.52 165.66 251.12 164.33 250.61Z" fill="#754C29"/>
<path d="M178.68 246.64C178.68 246.64 176.97 246.39 175.95 244.33C175.95 244.33 174.23 244.37 173.08 246.64C171.77 249.02 166.89 250.09 163.81 248.06C163.81 248.06 164.36 247.7 164.91 244.88C165.45 241.26 167.8 239.02 172.53 238.02C177.26 237.02 177.97 240.67 177.97 240.67C177.97 240.67 179.98 240.4 180.91 241C181.84 241.6 182.41 244.49 182.48 245.81C182.55 247.14 181.37 250.16 181.37 250.16C181.37 250.16 180.03 250.92 179.73 252.28C179.71 252.28 177.71 249.19 178.68 246.64V246.64Z" fill="#754C29"/>
<path d="M179.91 242.94C177.83 239.44 173.95 239.02 173.06 238.96V238.95H172.86V238.96C171.97 239.01 168.09 239.44 166.01 242.94C163.65 246.91 164.76 251.63 164.76 251.63L165.81 251.33C165.81 251.33 165.33 248.45 165.82 246.11C166.3 243.79 168.21 239.76 172.95 239.7C177.69 239.75 179.6 243.78 180.08 246.11C180.56 248.45 180.09 251.33 180.09 251.33L181.14 251.63C181.16 251.63 182.27 246.91 179.91 242.94V242.94Z" fill="#414042"/>
<path d="M180.2 249.44L178.89 256.57C178.89 256.57 182.35 257.24 183.13 255.86C183.92 254.48 184.23 251.72 183.69 250.98C183.22 249.72 180.2 249.44 180.2 249.44ZM165.74 249.44L167.05 256.57C167.05 256.57 163.59 257.24 162.81 255.86C162.02 254.48 161.71 251.72 162.25 250.98C162.72 249.72 165.74 249.44 165.74 249.44Z" fill="#414042"/>
<path d="M166.26 255.67C166.26 255.67 168.11 258.36 171.38 258.31C171.38 258.31 172.14 257.64 172.65 258.03C173.16 258.42 172.72 259.25 171.5 258.89C171.5 258.89 167.7 259.16 165.6 255.95L166.26 255.67V255.67Z" fill="#414042"/>
<path d="M118.83 312.65H226.97V325.46H118.83V312.65Z" fill="white" stroke="#6F6F6E" stroke-miterlimit="10"/>
<path d="M178.34 350.03C178.34 350.03 180.4 317.37 181.7 313.21C182.67 308.45 189.09 305.66 191.15 312.87C193.47 320.82 184.72 350.18 184.72 350.18C184.72 350.18 180.88 348.72 178.34 350.03V350.03Z" fill="#59595B"/>
<path d="M184.05 311.08C184.05 311.08 187.66 311 188.47 311.31C189.28 311.61 196.12 315.63 197.28 315.63C198.44 315.63 199.3 315.04 199.55 314.63C199.8 314.23 199.39 310.14 198.73 309.53C198.07 308.92 192.05 306.34 190.88 306.09C189.71 305.84 189.14 306.89 187.08 306.65C185.02 306.42 184.49 306.64 184.49 306.64L184.05 311.08Z" fill="#F5B8AD"/>
<defs>
<linearGradient id="paint0_linear_11_11138" x1="82.9779" y1="320.383" x2="94.1169" y2="320.383" gradientUnits="userSpaceOnUse">
<stop stop-color="#BAC4E5"/>
<stop offset="1" stop-color="#625AA3"/>
</linearGradient>
<linearGradient id="paint1_linear_11_11138" x1="97.547" y1="320.383" x2="108.686" y2="320.383" gradientUnits="userSpaceOnUse">
<stop stop-color="#BAC4E5"/>
<stop offset="1" stop-color="#625AA3"/>
</linearGradient>
<linearGradient id="paint2_linear_11_11138" x1="89.214" y1="312.919" x2="99.019" y2="312.919" gradientUnits="userSpaceOnUse">
<stop stop-color="#BAC4E5"/>
<stop offset="1" stop-color="#625AA3"/>
</linearGradient>
<linearGradient id="paint3_linear_11_11138" x1="203.342" y1="283.715" x2="209.047" y2="283.715" gradientUnits="userSpaceOnUse">
<stop stop-color="#BAC4E5"/>
<stop offset="1" stop-color="#625AA3"/>
</linearGradient>
<linearGradient id="paint4_linear_11_11138" x1="193.735" y1="259.355" x2="220.509" y2="259.355" gradientUnits="userSpaceOnUse">
<stop stop-color="#BAC4E5"/>
<stop offset="1" stop-color="#625AA3"/>
</linearGradient>
</defs>
</svg>
