<svg width="1200" height="657" viewBox="0 0 1200 657" fill="none" xmlns="http://www.w3.org/2000/svg">
<path d="M134.36 430.29C147.83 496.17 178.52 556.99 212.62 614.49L1017.39 613.03C1053.96 592.62 1090.67 550.09 1108.09 511.28C1125.5 472.48 1124.38 423.33 1098.39 389.96C1067.79 350.68 1055.81 242.41 994.07 236.08C928.88 229.4 918.52 191.02 883.69 134.93C831.84 51.45 700.98 7.31999 617.58 67.78C570.34 102.03 543.45 167.36 487.39 181.98C433.14 196.15 380.56 155.17 325.13 147.17C260.19 137.8 194.2 177.32 160.17 234.88C126.14 292.42 120.91 364.41 134.36 430.29V430.29Z" fill="#F3F3F3"/>
<path d="M755.1 399.82H994.08V414.92H755.1V399.82ZM764.76 421.02C767.66 438.32 782.7 451.51 800.83 451.51H948.34C966.47 451.51 981.5 438.32 984.41 421.02H764.76Z" fill="white" stroke="#6C6C6C" stroke-width="2" stroke-miterlimit="10"/>
<path d="M984.93 414.92H764.25C764.25 417 764.43 419.03 764.77 421.02H984.42C984.75 419.03 984.93 417 984.93 414.92ZM216.67 399.82H455.65V414.92H216.67V399.82ZM226.33 421.02C229.23 438.32 244.27 451.51 262.4 451.51H409.91C428.04 451.51 443.07 438.32 445.98 421.02H226.33Z" fill="white" stroke="#6C6C6C" stroke-width="2" stroke-miterlimit="10"/>
<path d="M446.5 414.92H225.81C225.81 417 225.99 419.03 226.33 421.02H445.98C446.31 419.03 446.5 417 446.5 414.92Z" fill="white" stroke="#6C6C6C" stroke-width="2" stroke-miterlimit="10"/>
<path d="M336.15 457.45H606.11V474.79H336.15V457.45Z" fill="#6C6C6C" stroke="white" stroke-width="2" stroke-miterlimit="10"/>
<path d="M336.15 481.99C326.36 481.99 318.43 474.05 318.43 464.27V451.5H353.88V464.26C353.88 474.06 345.94 481.99 336.15 481.99V481.99Z" fill="#6C6C6C" stroke="white" stroke-width="2" stroke-miterlimit="10"/>
<path d="M336.15 474.79C340.938 474.79 344.82 470.908 344.82 466.12C344.82 461.332 340.938 457.45 336.15 457.45C331.362 457.45 327.48 461.332 327.48 466.12C327.48 470.908 331.362 474.79 336.15 474.79Z" fill="#6C6C6C" stroke="white" stroke-width="2" stroke-miterlimit="10"/>
<path d="M876.08 474.8L606.12 474.8V457.46L876.08 457.46V474.8Z" fill="#6C6C6C" stroke="white" stroke-width="2" stroke-miterlimit="10"/>
<path d="M869.72 481.99H882.44C888.72 481.99 893.81 476.9 893.81 470.62V451.5H858.36V470.62C858.35 476.9 863.44 481.99 869.72 481.99Z" fill="#6C6C6C" stroke="white" stroke-width="2" stroke-miterlimit="10"/>
<path d="M876.07 474.79C880.858 474.79 884.74 470.908 884.74 466.12C884.74 461.332 880.858 457.45 876.07 457.45C871.282 457.45 867.4 461.332 867.4 466.12C867.4 470.908 871.282 474.79 876.07 474.79Z" fill="#6C6C6C" stroke="white" stroke-width="2" stroke-miterlimit="10"/>
<path d="M759.93 596.81H452.3V557.91C452.3 551.28 457.67 545.91 464.3 545.91H747.93C754.56 545.91 759.93 551.28 759.93 557.91V596.81V596.81ZM632.85 523.83H579.39V464.76C579.39 450 591.36 438.03 606.12 438.03C620.88 438.03 632.85 450 632.85 464.76V523.83Z" fill="white" stroke="#323431" stroke-miterlimit="10"/>
<path d="M606.11 483.68C615.863 483.68 623.77 475.773 623.77 466.02C623.77 456.267 615.863 448.36 606.11 448.36C596.357 448.36 588.45 456.267 588.45 466.02C588.45 475.773 596.357 483.68 606.11 483.68Z" fill="white" stroke="#323431" stroke-miterlimit="10"/>
<path d="M616.86 467.829C617.859 461.898 613.862 456.28 607.931 455.281C602 454.281 596.382 458.278 595.383 464.209C594.383 470.14 598.381 475.758 604.311 476.758C610.242 477.757 615.86 473.76 616.86 467.829Z" fill="white" stroke="#323431" stroke-miterlimit="10"/>
<path d="M632.85 501.96L579.38 518.19V525.39H632.85V501.96Z" fill="white" stroke="#323431" stroke-miterlimit="10"/>
<path d="M588.45 510.01C586.75 510.01 585.38 508.64 585.38 506.94V495.54C585.38 493.84 586.75 492.47 588.45 492.47C590.15 492.47 591.52 493.84 591.52 495.54V506.94C591.52 508.64 590.15 510.01 588.45 510.01ZM588.45 489.97C586.75 489.97 585.38 488.6 585.38 486.9V484.27C585.38 482.57 586.75 481.2 588.45 481.2C590.15 481.2 591.52 482.57 591.52 484.27V486.9C591.52 488.6 590.15 489.97 588.45 489.97Z" fill="#323431"/>
<path d="M148.74 214.72H258.11M252.73 240.48H154.9C153.59 240.48 152.54 239.42 152.54 238.12V169.85C152.54 168.54 153.6 167.49 154.9 167.49H252.74C254.05 167.49 255.1 168.55 255.1 169.85V238.12C255.1 238.431 255.039 238.738 254.919 239.025C254.8 239.312 254.625 239.573 254.405 239.792C254.185 240.012 253.924 240.185 253.636 240.303C253.349 240.421 253.041 240.481 252.73 240.48V240.48ZM148.74 191.88H258.11H148.74Z" stroke="#BAC4E5" stroke-miterlimit="10"/>
<path d="M169.61 187.51C173.04 187.51 175.82 184.73 175.82 181.3C175.82 177.87 173.04 175.09 169.61 175.09C166.18 175.09 163.4 177.87 163.4 181.3C163.4 184.73 166.18 187.51 169.61 187.51Z" fill="#7A73FF"/>
<path d="M175.663 204.621C176.425 201.277 174.332 197.949 170.988 197.187C167.644 196.425 164.315 198.518 163.553 201.862C162.791 205.206 164.884 208.534 168.228 209.296C171.572 210.058 174.901 207.965 175.663 204.621Z" fill="#7A73FF"/>
<path d="M169.61 232.22C173.04 232.22 175.82 229.44 175.82 226.01C175.82 222.58 173.04 219.8 169.61 219.8C166.18 219.8 163.4 222.58 163.4 226.01C163.4 229.44 166.18 232.22 169.61 232.22Z" fill="#7A73FF"/>
<path d="M179.57 228.12H235.05M179.57 178.62H235.05H179.57ZM179.57 200.79H235.05H179.57ZM179.57 205.13H208.97H179.57ZM179.57 223.78H191.69H179.57Z" stroke="#44B8B6" stroke-miterlimit="10"/>
<path d="M167.12 226.66L168.88 227.86L172.1 224.15M167.12 181.96L168.88 183.16L172.1 179.45L167.12 181.96ZM167.12 203.84L168.88 205.04L172.1 201.34L167.12 203.84Z" stroke="white" stroke-width="1.2199" stroke-miterlimit="10" stroke-linecap="round" stroke-linejoin="round"/>
<path d="M430.78 195.03C442.118 195.03 451.31 185.838 451.31 174.5C451.31 163.162 442.118 153.97 430.78 153.97C419.442 153.97 410.25 163.162 410.25 174.5C410.25 185.838 419.442 195.03 430.78 195.03Z" stroke="#BAC4E5" stroke-miterlimit="10"/>
<path d="M430.78 165.72V174.5H444.65" stroke="#BAC4E5" stroke-miterlimit="10"/>
<path d="M442.07 232.88H466.46C469.72 232.88 472.35 230.24 472.35 226.99C472.35 223.73 469.71 221.1 466.46 221.1H442.07C438.81 221.1 436.18 223.74 436.18 226.99C436.18 230.24 438.81 232.88 442.07 232.88Z" fill="#323431"/>
<path d="M459.44 227C459.439 227.207 459.479 227.412 459.558 227.603C459.636 227.794 459.752 227.968 459.898 228.115C460.044 228.262 460.217 228.378 460.408 228.458C460.598 228.538 460.803 228.579 461.01 228.58C461.217 228.581 461.422 228.541 461.613 228.462C461.804 228.383 461.978 228.268 462.125 228.122C462.272 227.976 462.388 227.803 462.468 227.612C462.548 227.422 462.589 227.217 462.59 227.01C462.591 226.592 462.427 226.191 462.132 225.895C461.838 225.599 461.438 225.431 461.02 225.43C460.602 225.429 460.201 225.593 459.905 225.888C459.608 226.182 459.441 226.582 459.44 227V227ZM452.69 226.98C452.689 227.187 452.729 227.392 452.808 227.583C452.886 227.774 453.002 227.948 453.148 228.095C453.294 228.242 453.467 228.358 453.658 228.438C453.848 228.518 454.053 228.559 454.26 228.56C454.467 228.561 454.672 228.521 454.863 228.442C455.054 228.363 455.228 228.248 455.375 228.102C455.522 227.956 455.638 227.783 455.718 227.592C455.798 227.402 455.839 227.197 455.84 226.99C455.841 226.572 455.677 226.171 455.382 225.875C455.088 225.579 454.688 225.411 454.27 225.41C453.852 225.409 453.451 225.573 453.155 225.868C452.858 226.162 452.691 226.562 452.69 226.98V226.98ZM445.94 226.96C445.939 227.167 445.979 227.372 446.058 227.563C446.136 227.754 446.252 227.928 446.398 228.075C446.544 228.222 446.717 228.338 446.908 228.418C447.098 228.498 447.303 228.539 447.51 228.54C447.717 228.541 447.922 228.501 448.113 228.422C448.304 228.344 448.478 228.228 448.625 228.082C448.772 227.936 448.888 227.763 448.968 227.572C449.048 227.382 449.089 227.177 449.09 226.97C449.091 226.552 448.927 226.151 448.632 225.855C448.338 225.559 447.938 225.391 447.52 225.39C447.102 225.389 446.701 225.553 446.405 225.848C446.108 226.142 445.941 226.542 445.94 226.96V226.96Z" fill="#D9D9D9"/>
<path d="M375.21 332.98H405.96C423.24 332.98 435.33 321.84 438.19 304.8L445.82 259.51" stroke="#BAC4E5" stroke-width="5" stroke-miterlimit="10"/>
<path d="M375.56 399.65L389.36 335.71C390.145 332.147 392.124 328.958 394.968 326.672C397.812 324.387 401.351 323.14 405 323.14C412.63 323.14 419.2 328.52 420.7 336L433.22 399.65" stroke="#BAC4E5" stroke-width="5" stroke-miterlimit="10"/>
<path d="M313.83 390.47L320.95 367.84L332.29 367.24L325.18 391.52L314.25 391.59L313.83 390.47Z" fill="#F7BA99"/>
<path d="M326.76 386.83C326.76 386.83 317.39 390.69 312.98 384.61L293.68 396.34L329.66 396.11L326.76 386.83V386.83Z" fill="black"/>
<path d="M293.696 396.344L329.676 396.112L329.697 399.422L293.717 399.654L293.696 396.344Z" fill="white"/>
<path d="M313.22 389.74C313.117 389.697 313.027 389.628 312.96 389.54C311.49 387.61 310.01 386.66 309.99 386.65C309.922 386.608 309.863 386.552 309.816 386.487C309.77 386.421 309.738 386.347 309.721 386.268C309.704 386.19 309.703 386.109 309.719 386.03C309.734 385.951 309.765 385.876 309.81 385.81C310 385.53 310.4 385.46 310.69 385.64C310.76 385.68 312.36 386.71 313.98 388.83C314.19 389.1 314.12 389.48 313.84 389.68C313.66 389.8 313.42 389.82 313.22 389.74V389.74ZM310.12 391.29C310.017 391.247 309.927 391.178 309.86 391.09C308.39 389.16 306.91 388.21 306.89 388.2C306.822 388.158 306.763 388.102 306.716 388.037C306.67 387.971 306.638 387.897 306.621 387.818C306.604 387.74 306.603 387.659 306.619 387.58C306.634 387.501 306.665 387.426 306.71 387.36C306.9 387.08 307.3 387.01 307.59 387.19C307.66 387.23 309.26 388.26 310.88 390.38C311.09 390.65 311.02 391.03 310.74 391.23C310.56 391.35 310.32 391.37 310.12 391.29V391.29ZM307.03 392.84C306.927 392.797 306.837 392.728 306.77 392.64C305.3 390.71 303.82 389.76 303.8 389.75C303.732 389.708 303.673 389.652 303.626 389.587C303.58 389.521 303.548 389.447 303.531 389.368C303.514 389.29 303.513 389.209 303.529 389.13C303.544 389.051 303.575 388.976 303.62 388.91C303.81 388.63 304.21 388.56 304.5 388.74C304.57 388.78 306.17 389.81 307.79 391.93C308 392.2 307.93 392.58 307.65 392.78C307.46 392.9 307.23 392.92 307.03 392.84V392.84Z" fill="white"/>
<path d="M353.76 302.27L343.91 302.9C336.97 303.34 331.07 308.12 329.2 314.82L313.76 374.29L335.16 372.3L352.41 320.06L353.76 302.27V302.27Z" fill="#323431"/>
<path d="M336.82 377.06H310.98L312.77 367.54H338.61L336.82 377.06Z" fill="#7A73FF"/>
<path d="M355.15 390.47L355.48 368.14L366.82 367.54L366.5 391.52L355.57 391.59L355.15 390.47Z" fill="#F7BA99"/>
<path d="M368.09 386.83C368.09 386.83 358.72 390.69 354.31 384.61L335.01 396.34L370.99 396.11L368.09 386.83V386.83Z" fill="black"/>
<path d="M335.017 396.344L370.997 396.113L371.018 399.423L335.038 399.654L335.017 396.344Z" fill="white"/>
<path d="M354.55 389.74C354.447 389.697 354.358 389.628 354.29 389.54C352.82 387.61 351.34 386.66 351.32 386.65C351.252 386.608 351.193 386.552 351.146 386.487C351.1 386.421 351.068 386.347 351.051 386.268C351.034 386.19 351.033 386.109 351.049 386.03C351.064 385.951 351.095 385.876 351.14 385.81C351.33 385.53 351.73 385.46 352.02 385.64C352.09 385.68 353.69 386.71 355.31 388.83C355.52 389.1 355.45 389.48 355.17 389.68C354.98 389.8 354.75 389.82 354.55 389.74V389.74ZM351.45 391.29C351.347 391.247 351.258 391.178 351.19 391.09C349.72 389.16 348.24 388.21 348.22 388.2C348.152 388.158 348.093 388.102 348.046 388.037C348 387.971 347.968 387.897 347.951 387.818C347.934 387.74 347.933 387.659 347.949 387.58C347.964 387.501 347.995 387.426 348.04 387.36C348.23 387.08 348.63 387.01 348.92 387.19C348.99 387.23 350.59 388.26 352.21 390.38C352.42 390.65 352.35 391.03 352.07 391.23C351.89 391.35 351.65 391.37 351.45 391.29V391.29ZM348.35 392.84C348.247 392.797 348.158 392.728 348.09 392.64C346.62 390.71 345.14 389.76 345.12 389.75C345.052 389.708 344.993 389.652 344.946 389.587C344.9 389.521 344.868 389.447 344.851 389.368C344.834 389.29 344.833 389.209 344.849 389.13C344.864 389.051 344.895 388.976 344.94 388.91C345.13 388.63 345.53 388.56 345.82 388.74C345.89 388.78 347.49 389.81 349.11 391.93C349.32 392.2 349.25 392.58 348.97 392.78C348.79 392.9 348.55 392.92 348.35 392.84V392.84Z" fill="white"/>
<path d="M414.37 301.21L383.55 302.44L360.53 302.91C353.81 302.91 348.34 306.96 348.24 313.68C347.93 334.33 349.53 377.26 350.5 377.06C351.81 376.8 370.68 377.06 370.68 377.06L372.6 330.16L387.38 331.77C391.02 331.8 401.67 332.49 404.92 330.84C411.64 327.43 420.23 319.45 414.37 301.21V301.21Z" fill="#323431"/>
<path d="M347.04 367.54H372.88V377.07H347.04V367.54Z" fill="#7A73FF"/>
<path d="M324.94 264.58L312.55 258.39C312.55 258.39 302.44 257.64 296.3 258.98C295.66 259.12 295.25 259.75 295.4 260.39C295.54 260.96 296.07 261.33 296.65 261.27L302.32 260.65L299.27 262.73C298.44 263.29 298.54 264.54 299.44 264.97C299.82 265.15 300.25 265.14 300.62 264.94C302.32 264 307.65 261.56 312.85 264.48L308 266.66C307.05 267.09 306.79 268.32 307.49 269.1C307.83 269.47 308.33 269.66 308.83 269.59L313.34 269.01C313.34 269.01 318.65 271.17 323.56 268.81L324.94 264.58V264.58Z" fill="#F8C7BD"/>
<path d="M365.37 248.56C361.45 258.17 355.83 277.31 355.83 277.31L324.83 262.71L320.73 273.35L347.03 291.31L375.8 290.11L377.93 267.61L365.37 248.56V248.56Z" fill="#7A73FF"/>
<path d="M370.55 242.3C368.47 243.87 366.5 245.93 365.37 248.57L363.51 302.27C363.51 302.27 396.47 309.21 414.37 301.21C414.37 301.21 413.87 256.23 403.67 244.33C403.67 244.33 400.46 238.01 384.12 237.98C379.25 237.97 374.43 239.37 370.55 242.3V242.3Z" fill="#7A73FF"/>
<path d="M367.65 258.17L370.03 295.88" stroke="#EC6A66" stroke-width="0.7349" stroke-miterlimit="10"/>
<path d="M335.78 289.33L335.33 280.07C335.33 280.07 332.01 273.14 328.99 273.04C326.77 272.97 323.97 274.47 322.48 276.05C321.8 276.77 321.99 277.92 322.86 278.37C324.3 279.1 326.5 280.4 327.62 282.02C327.62 282.02 326.16 289.49 328.63 292.56C329.89 294.12 337.29 295.88 337.29 295.88L335.78 289.33V289.33Z" fill="#F8C7BD"/>
<path d="M386.12 246.89L380.18 284.54L335.52 286.48V302.28L383.55 301.12C385.38 301.23 386.78 300.64 387.77 299.61L388.26 299.84C388.26 299.84 401.27 300.06 404.92 255.64L386.12 246.89Z" fill="#7A73FF"/>
<path d="M404.01 267.52L399.5 287.62C398.366 292.679 395.622 297.233 391.68 300.6L389.66 302.2M339.67 286.29L380.19 284.46L385.01 253.93L339.67 286.29ZM380.19 284.46L386.37 286.29L380.19 284.46Z" stroke="#EC6A66" stroke-width="0.7349" stroke-miterlimit="10"/>
<path d="M362.49 203.58C362.49 203.58 363.6 208.89 362.49 212.13C361.38 215.37 357.83 216.89 359.42 225.34C361.01 233.79 359.31 233.99 358.93 236.38C358.93 236.38 392.86 239.58 409.86 230.86C409.86 230.86 406.99 225.93 403.8 220.46C400.62 214.99 399.42 205.99 399.42 205.99L386.41 201L362.49 203.58Z" fill="#1D1D1B"/>
<path d="M370.55 197.31C370.16 197.19 371.67 194.95 372.06 194.83C378.1 192.9 391 190.35 397.57 200.96C402.39 208.76 397.55 223.42 387.42 227.86C377.77 232.09 379.41 200.08 379.41 200.08L370.55 197.31Z" fill="#1D1D1B"/>
<path d="M373.02 217.16C373.172 218.421 372.817 219.691 372.034 220.69C371.25 221.69 370.101 222.337 368.84 222.49C367.579 222.642 366.309 222.287 365.31 221.503C364.31 220.72 363.663 219.571 363.51 218.31C363.358 217.049 363.713 215.779 364.497 214.78C365.28 213.78 366.429 213.133 367.69 212.98C368.951 212.828 370.221 213.183 371.22 213.967C372.22 214.75 372.867 215.899 373.02 217.16V217.16Z" fill="#F5ADA6"/>
<path d="M374.66 229.96L375.84 240.33C376.25 243.97 378.71 245.67 382.29 245.24C385.35 244.87 388.03 242.95 388.05 239.87L385.4 223.64L374.66 229.96Z" fill="#F8C7BD"/>
<path d="M375.4 236.37C382.68 235.74 386.42 225.33 386.42 225.33L374.53 228.9L375.4 236.37Z" fill="#1B172C"/>
<path d="M377.91 231.49C371.76 231.82 366.44 227.23 366.01 222.22L365.05 210.39C364.5 204.11 369.04 198.53 375.3 197.78C381.71 197.01 388.65 201.44 389.42 207.85L390.09 217.37C390.6 224.73 385.79 230.88 377.91 231.49V231.49Z" fill="#F8C7BD"/>
<path d="M384.4 206.33C381.48 210.69 386.25 216.87 386.25 216.87L395.25 205.99C395.25 205.98 386.13 203.74 384.4 206.33Z" fill="#1D1D1B"/>
<path d="M395.76 215.72C395.912 216.981 395.557 218.251 394.774 219.25C393.99 220.25 392.841 220.897 391.58 221.05C390.319 221.202 389.049 220.847 388.05 220.063C387.05 219.28 386.403 218.131 386.25 216.87C386.098 215.609 386.453 214.339 387.237 213.34C388.02 212.34 389.169 211.693 390.43 211.54C391.691 211.388 392.961 211.743 393.96 212.527C394.96 213.31 395.607 214.459 395.76 215.72V215.72Z" fill="#F8C7BD"/>
<path d="M389.51 217.91C389.51 217.91 389.1 214.46 392.46 214.61" stroke="#1B172C" stroke-width="0.562" stroke-miterlimit="10" stroke-linecap="round" stroke-linejoin="round"/>
<path d="M372.06 194.83C372.06 194.83 358.94 199.57 361.66 204.51C363.67 208.17 376.88 210.44 389.43 207.85C389.43 207.85 395.16 203.2 388.07 198.38C388.06 198.38 384.25 193 372.06 194.83Z" fill="#1D1D1B"/>
<path d="M372.23 241.16C372.23 241.16 375.97 238.74 381.49 237.98C381.49 237.98 388.07 237.58 393.58 238.88C393.58 238.88 393.22 244.73 382.14 246.02C379.96 246.27 377.74 246.22 375.63 245.62C373.51 245.03 373.01 243.56 372.23 241.16V241.16Z" fill="#F8C7BD"/>
<path d="M335.16 299.66H297.55V295.42H335.16C335.711 295.437 336.234 295.668 336.618 296.063C337.001 296.459 337.216 296.989 337.216 297.54C337.216 298.091 337.001 298.621 336.618 299.017C336.234 299.412 335.711 299.643 335.16 299.66V299.66Z" fill="#051418"/>
<path d="M302.5 299.66H248.5C247.103 299.661 245.744 299.203 244.631 298.358C243.519 297.513 242.714 296.326 242.34 294.98L231.69 256.72C231.599 256.393 231.585 256.05 231.649 255.716C231.712 255.383 231.852 255.069 232.058 254.799C232.263 254.529 232.528 254.31 232.832 254.159C233.136 254.008 233.471 253.93 233.81 253.93H288.44C289.63 253.93 290.68 254.73 290.98 255.89L302.5 299.66Z" fill="#BAC4E5"/>
<path d="M269 277.67C269 280.27 266.89 282.38 264.29 282.38C261.69 282.38 259.58 280.27 259.58 277.67C259.58 275.07 261.69 272.96 264.29 272.96C266.89 272.96 269 275.07 269 277.67Z" fill="#323431"/>
<path d="M288.54 304.69V399.65" stroke="#55382E" stroke-width="1.147" stroke-miterlimit="10"/>
<path d="M206.33 299.66H366.76V309.73H206.33V299.66ZM794.24 399.86L795.79 349.51C795.814 348.666 796.09 347.849 796.584 347.164C797.078 346.479 797.767 345.959 798.56 345.67C799.03 345.5 799.52 345.41 800.02 345.41H800.16C801.29 345.45 802.34 345.92 803.11 346.74C803.526 347.182 803.841 347.708 804.036 348.282C804.231 348.857 804.301 349.466 804.24 350.07L799.16 399.86H794.24ZM762.53 400.07L760.98 349.72C760.957 348.876 760.68 348.059 760.186 347.374C759.692 346.689 759.004 346.169 758.21 345.88C757.74 345.71 757.25 345.62 756.75 345.62H756.61C755.48 345.65 754.43 346.13 753.66 346.95C753.245 347.392 752.929 347.918 752.734 348.492C752.539 349.067 752.469 349.676 752.53 350.28L757.61 400.07H762.53Z" fill="#6C6C6C"/>
<path d="M753.53 354.35H805.37C809.09 354.35 812.1 351.34 812.1 347.62C812.1 345.413 811.223 343.297 809.663 341.737C808.103 340.177 805.987 339.3 803.78 339.3H755.1C752.893 339.3 750.777 340.177 749.217 341.737C747.657 343.297 746.78 345.413 746.78 347.62C746.8 351.33 749.81 354.35 753.53 354.35Z" fill="#BAC4E5"/>
<path d="M927.65 222.07C921.54 221.2 915.85 223.49 911.56 227.92C901.73 238.06 909.31 244.55 906.08 257.83C907.89 259.84 910.13 261.43 913.04 262.21C926.81 266.05 942.27 263.89 952.68 253.46C952.73 253.41 952.79 253.36 952.84 253.31C949.91 245.74 945 235.32 943 232.82C939.13 227.98 935.2 223.14 927.65 222.07V222.07Z" fill="#1D1D1B"/>
<path d="M928.34 250.22C928.34 250.22 928.4 250.53 928.51 251.06C929.03 253.61 930.64 261.21 931.98 263.54C933.6 266.35 928.31 279.01 921.41 277.91C919.36 277.58 922.58 271.11 921.88 267.97C921.49 266.2 920.3 260.68 919.34 256.21C918.6 252.78 918 249.98 918 249.98L928.34 250.22V250.22Z" fill="#F3A18F"/>
<path d="M928.51 251.07L928.69 251.93C927.98 253.16 927.02 254.32 925.76 255.33C923.67 257.01 921.59 257.7 919.65 257.67C919.54 257.18 919.44 256.69 919.34 256.22C918.6 252.79 918 249.99 918 249.99L928.34 250.23C928.34 250.22 928.4 250.53 928.51 251.07V251.07Z" fill="#EE745A"/>
<path d="M921.19 227.65C921.19 227.65 925.41 228.19 928.46 231.81C931.52 235.44 934.81 246.65 927.22 252.75C919.63 258.85 912.13 251.95 911.01 244.63C909.91 237.31 910.13 227.39 921.19 227.65V227.65Z" fill="#F3A18F"/>
<path d="M909.85 244.54C910.76 246.16 912.28 247.05 913.25 246.54C914.22 246.03 914.27 244.3 913.37 242.69C912.46 241.07 910.94 240.18 909.97 240.69C909 241.2 908.95 242.93 909.85 244.54Z" fill="#F3A18F"/>
<path d="M919.91 227.48C919.91 227.48 926.42 238.14 931.08 238.64C935.74 239.13 936.35 244.8 936.35 244.8C936.35 244.8 934.68 231.74 930.07 229.22C925.46 226.7 919.91 227.48 919.91 227.48V227.48Z" fill="#1D1D1B"/>
<path d="M929.56 241.18C929.18 243.07 929.94 244.81 931.26 245.06C932.58 245.31 933.96 243.97 934.33 242.08C934.71 240.19 933.95 238.45 932.63 238.2C931.31 237.95 929.94 239.29 929.56 241.18Z" fill="#F3A18F"/>
<path d="M968.94 272.41L967.66 271.76C960.08 267.89 950.91 271.09 947.14 278.93L919.25 336.89C915.83 344 908.03 347.59 900.65 345.45L849.69 330.7C842.81 328.71 835.7 332.96 833.91 340.12L917.92 368.69L968.94 272.41V272.41Z" fill="#7C7C7C"/>
<path d="M772.52 330.76C772.52 330.76 731.26 328.34 729.65 330.89C728.04 333.44 743.76 337.08 745.24 338.01C757.89 345.96 756.74 341.06 759.57 340.39C762.39 339.72 770.11 339.35 770.11 339.35L772.52 330.76Z" fill="#F18B7F"/>
<path d="M913.91 347.81C913.91 347.81 912.42 350.58 911.01 351.27C905.8 353.79 895.73 349.96 895.73 349.96L832.32 335.32L765.12 339.78C765.12 339.78 762.83 331.57 763.94 328.21L825.49 315.25L896.15 322.42L913.91 347.81Z" fill="#444443"/>
<path d="M833.92 341.29C834.17 339.38 834.5 337.48 835.67 336.08C838.77 332.38 844.65 330.86 849.61 332.25L910.22 350.95C910.75 351.11 911.32 351.01 911.76 350.66C912.36 350.19 913.15 349.6 913.27 349.72C915.98 352.29 917.54 368.56 917.54 368.56L917.46 368.71L833.92 341.29V341.29Z" fill="#6C6C6C"/>
<path d="M780.46 332.26C780.46 332.26 774.22 334.77 769.02 337.4C766.78 338.53 764.25 340.89 763.3 341.13C758.81 342.23 757.82 339.6 756 336.88C754.86 335.16 749.9 330.38 746.68 327.12C744.79 325.21 743.55 322.5 744.39 321.61C746.91 318.93 753.1 325.89 758.25 327.67C760.98 328.61 763.93 327.78 766.84 327.1C770.29 326.29 774.79 323.64 774.79 323.64L780.46 332.26V332.26Z" fill="#F4A392"/>
<path d="M921.49 375.26C923.57 375.26 925.59 374.12 926.61 372.12L974.16 279.56C975.63 276.7 974.53 273.19 971.7 271.7C971.027 271.348 970.292 271.133 969.535 271.068C968.779 271.003 968.017 271.088 967.294 271.32C966.571 271.552 965.902 271.925 965.324 272.417C964.747 272.91 964.273 273.513 963.93 274.19L916.38 366.75C914.91 369.61 916.01 373.12 918.84 374.61C919.69 375.05 920.6 375.26 921.49 375.26Z" fill="#6C6C6C"/>
<path d="M829.2 342.4C830.14 339.2 833.5 337.36 836.7 338.3C837.65 338.58 922.17 363.38 923.68 363.82L918.87 375.01L833.3 349.9C832.538 349.677 831.827 349.306 831.209 348.809C830.59 348.311 830.076 347.697 829.695 347C829.314 346.303 829.075 345.539 828.99 344.749C828.905 343.96 828.976 343.162 829.2 342.4V342.4Z" fill="#6C6C6C"/>
<path d="M928.84 399.86L917.07 371.09C916.786 370.399 916.649 369.656 916.669 368.91C916.69 368.163 916.866 367.428 917.187 366.754C917.509 366.079 917.968 365.48 918.535 364.993C919.102 364.507 919.764 364.145 920.48 363.93C921.154 363.725 921.861 363.655 922.562 363.725C923.262 363.794 923.943 364.001 924.563 364.333C925.184 364.666 925.733 365.118 926.178 365.663C926.624 366.208 926.957 366.836 927.16 367.51L936.85 399.53C936.88 399.64 936.91 399.75 936.93 399.86H928.84V399.86Z" fill="#6C6C6C"/>
<path d="M894.15 322.07C894.15 322.07 851.34 297.71 834.39 295.61C827.95 294.81 766.93 326.31 766.93 326.31L773.31 337.33C773.31 337.33 810.48 327.89 821.88 323.24C825.15 321.91 834.11 316.14 834.11 316.14L894.15 322.07Z" fill="#323431"/>
<path d="M922.65 269.49C922.65 269.49 885.49 296.86 881.87 297.34C879.14 297.7 851.79 289.34 851.79 289.34L856.92 299.56C856.92 299.56 879.35 312.18 887.37 311.84C896.78 311.44 918.86 292.81 918.86 292.81L922.65 269.49V269.49Z" fill="#F18B7F"/>
<path d="M892.41 291.85C892.41 291.85 901.11 304.38 901.32 307.73L919.6 293.94L922.64 269.48L892.41 291.85V291.85Z" fill="#7A73FF"/>
<path d="M941.86 262.56C941.86 262.56 946.36 274.91 944.55 289.82C942.74 304.74 913.93 350.42 913.93 350.42C913.93 350.42 907.84 349.48 903.22 344.04C901.28 341.76 894.15 322.07 894.15 322.07C894.15 322.07 903.22 313.2 904.03 307.35C904.84 301.5 905.72 295.25 908.14 286.18C910.56 277.12 933.19 258.53 941.86 262.56Z" fill="#7A73FF"/>
<path d="M941.81 332.35L860.87 327.47L854.68 336.1C853.78 377.75 853.6 393.87 853.56 399.87H845.7C845.27 393.16 844.37 376.41 842.63 334.65C842.64 334.66 855.1 322.28 858.25 319.93C934.14 320.23 942.2 320.26 942.22 320.26C945.7 320.29 948.42 323.23 948.21 326.67C948.114 328.272 947.386 329.77 946.186 330.835C944.986 331.901 943.412 332.445 941.81 332.35V332.35Z" fill="#6C6C6C"/>
<path d="M912.63 285.27L925.81 304.97C925.81 304.97 927.83 291.72 929.41 277.46C935.53 278.29 940.99 279.93 946.31 282.9C943.74 296.78 935.42 319.99 927.83 322.79C921.93 324.97 910.94 296 910.94 296L912.63 285.27V285.27Z" fill="#F3A18F"/>
<path d="M929.31 272.59C930.22 268.21 931.28 263.81 936.01 262.43C938.94 261.57 942.24 262.39 944.58 264.31C947.37 266.6 948.15 270.26 948.14 273.74C948.11 281.62 945.68 289.31 943.26 296.97C937.94 294.01 933.07 294.93 926.94 294.09C926.38 287.08 928.13 278.3 929.31 272.59Z" fill="#7A73FF"/>
<path d="M904.56 293.47H902.34L902.62 291.1H904.56C905.48 291.1 906.23 290.04 906.23 288.73V286.36C906.23 285.06 905.48 283.99 904.56 283.99H902.06V281.62H904.56C906.4 281.62 907.89 283.74 907.89 286.35V288.72C907.89 291.35 906.4 293.47 904.56 293.47Z" fill="#B85742"/>
<path d="M889.26 281.28V292.56C889.26 295.15 891.36 297.25 893.95 297.25H897.97C900.56 297.25 902.66 295.15 902.66 292.56V279.85H889.25V281.28H889.26Z" fill="#44B8B6"/>
<path d="M906.39 281.58C905.26 281.55 902.72 283.04 902.4 284.29C902.09 285.54 902.74 286.96 902.69 287.84C902.64 288.63 902.44 289.89 902.73 290.91C902.81 291.19 904.29 292.83 904.47 293.45C904.65 294.06 911.13 296.45 911.13 296.45L912.72 285.35C912.72 285.35 911.23 281.7 906.39 281.58V281.58Z" fill="#F3A18F"/>
<path d="M872.92 264.21L881.95 302.38C882.17 303.29 881.83 304.21 881.2 304.41L867.28 308.82L858.82 274.89C858.82 274.89 867.78 266.39 871.14 263.21C871.77 262.62 872.66 263.13 872.92 264.21Z" fill="#7A73FF"/>
<path d="M880.05 300.77L872.19 267.55C871.93 266.47 871.04 265.96 870.42 266.55C867.69 269.14 863.56 273.05 860.6 275.86L868.19 306.32L879.3 302.8C879.92 302.6 880.26 301.68 880.05 300.77Z" fill="#FBFBFB"/>
<path d="M862.88 260.44L881.56 307.35C881.99 308.43 881.58 309.54 880.7 309.65L860.26 312.41L845.2 275.4L860.5 259.49C861.2 258.76 862.41 259.25 862.88 260.44V260.44Z" fill="#7A73FF"/>
<path d="M848.66 288.86C848.66 288.86 848.51 284.92 850.04 285.95C851.58 286.97 851.35 289.34 851.73 289.81C852.11 290.28 853.04 291.07 853.27 292.64C853.5 294.21 854.58 295.32 854.73 296.34C854.88 297.36 854.81 298.23 854.81 298.23C854.81 298.23 849.81 297.6 849.66 295.47C849.51 293.34 848.66 288.86 848.66 288.86V288.86Z" fill="#F18B7F"/>
<path d="M890.43 267.03C892.92 269.23 895.53 269.01 895.71 269.06C896.29 269.21 896.37 269.43 896.43 269.48C896.44 269.5 896.44 269.52 896.46 269.53C896.46 269.55 896.47 269.57 896.48 269.59C896.8 272.17 896.8 272.29 897.17 274C897.31 274.56 898.14 274.55 898.27 273.98C898.54 272.75 898.68 271.23 898.56 269.32C898.34 268.02 897.41 267.29 896.1 266.95C895.84 266.89 893.48 267 891.67 264.98C890.4 263.41 890.14 262.46 890.01 260.64C889.85 258.52 891.18 255.89 893.52 254.73L894.76 254.12C894.06 253.09 893.54 252.71 893.34 251.63C893.24 251.08 893.26 250.49 893.42 249.94C894.01 247.85 895.9 247.77 895.91 247.76C896.57 247.69 896.53 246.74 895.87 246.71C892.72 246.58 890.61 250.03 891.56 253.19C886.58 256.24 886.28 263.42 890.43 267.03V267.03ZM895.62 269.04C895.6 269.03 895.6 269.03 895.62 269.04V269.04Z" fill="#828481"/>
<path d="M967.19 399.86H970.8L971.77 390.33H966.22L967.19 399.86ZM986.88 399.86H990.49L991.46 390.33H985.91L986.88 399.86Z" fill="#1E1E1E"/>
<path d="M951.18 399.86H954.79L955.76 390.33H950.21L951.18 399.86Z" fill="#323431"/>
<path d="M969.84 258.56H970.5V291.36H969.84V258.56Z" fill="#184655"/>
<path d="M973.89 263.25H975.5V326.47H973.89V263.25Z" fill="#184655"/>
<path d="M962.74 327.2C968.45 327.2 973.09 325.96 973.09 324.43C973.09 324.15 972.93 323.88 972.64 323.62L972.69 323.6H976.86C976.56 323.86 976.39 324.14 976.39 324.42C976.39 326.38 982.88 327.2 986.87 327.19V327.79H962.49V327.19C962.57 327.2 962.65 327.2 962.74 327.2V327.2Z" fill="#184655"/>
<path d="M969.04 263.74H979.22C980.06 263.74 980.73 263.06 980.73 262.23V261.38H967.52V262.23C967.52 263.06 968.2 263.74 969.04 263.74V263.74Z" fill="#184655"/>
<path d="M955.18 259.72C955.18 260.25 957.43 260.73 961.04 261.07C973.12 262.21 993.38 261.38 993.38 259.72C993.38 259.65 980.9 236.67 980.9 236.67H967.66C967.66 236.67 955.18 259.66 955.18 259.72Z" fill="#7A73FF"/>
<path d="M969.03 291.71C969.03 292.28 969.53 292.74 970.15 292.74C970.77 292.74 971.27 292.28 971.27 291.71C971.27 291.14 970.77 290.68 970.15 290.68C969.53 290.68 969.03 291.14 969.03 291.71Z" fill="#184655"/>
<path d="M947.72 327.8H1009.6V390.55H947.72V327.8Z" fill="white" stroke="#6C6C6C" stroke-width="2" stroke-miterlimit="10"/>
<path d="M1008.05 349.436H965.6V348.356H1008.05V349.436Z" fill="#BAC4E5"/>
<path d="M1008.05 366.802H965.6V365.722H1008.05V366.802Z" fill="#BAC4E5"/>
<path d="M1012.31 327.48H994.16C992.55 327.48 991.25 326.07 991.25 324.34C991.25 322.6 992.56 321.2 994.16 321.2H1012.31C1010.92 322.94 1010.87 325.5 1012.18 327.31L1012.31 327.48V327.48Z" fill="#FAE0B2"/>
<path d="M991.48 324.33C991.48 322.59 992.8 321.19 994.43 321.19H1012.64C1012.72 321.19 1012.79 321.12 1012.79 321.03C1012.79 320.94 1012.72 320.87 1012.64 320.87H983.75C981.95 320.87 980.5 322.42 980.5 324.34C980.5 326.26 981.96 327.81 983.75 327.81H1012.64C1012.72 327.81 1012.79 327.74 1012.79 327.65C1012.79 327.56 1012.72 327.49 1012.64 327.49H994.43C992.8 327.48 991.48 326.07 991.48 324.33V324.33Z" fill="#7A73FF"/>
<path d="M700.5 523.83H511.73C506.21 523.83 501.73 528.31 501.73 533.83V545.9H710.5V533.83C710.5 528.31 706.02 523.83 700.5 523.83Z" fill="#9C9B9B"/>
<path d="M949.15 329.29H967.1V388.83H949.15V329.29Z" fill="#BAC4E5"/>
</svg>
