<svg width="126" height="126" viewBox="0 0 126 126" fill="none" xmlns="http://www.w3.org/2000/svg">
<g filter="url(#filter0_f_9716_16707)">
<circle cx="63" cy="63" r="21" fill="#1B1551"/>
</g>
<path d="M54 71.9991L65 71.999V56.9883C65 55.6242 65 54.9422 64.7187 54.4695C64.472 54.055 64.0838 53.7436 63.6257 53.5927C63.1032 53.4206 62.4374 53.5686 61.1058 53.8645L58.5058 54.4422C57.6117 54.6409 57.1646 54.7403 56.8309 54.9807C56.5366 55.1928 56.3055 55.4809 56.1623 55.8142C56 56.1921 56 56.6501 56 57.566V71.9991M64.994 55.9991H66.8C67.9201 55.9991 68.4802 55.9991 68.908 56.2171C69.2843 56.4088 69.5903 56.7148 69.782 57.0911C70 57.5189 70 58.079 70 59.1991V71.9991H72M62 62.9991H62.01" stroke="#D4CEFD" stroke-width="1.2" stroke-linecap="round" stroke-linejoin="round"/>
<defs>
<filter id="filter0_f_9716_16707" x="0" y="0" width="126" height="126" filterUnits="userSpaceOnUse" color-interpolation-filters="sRGB">
<feFlood flood-opacity="0" result="BackgroundImageFix"/>
<feBlend mode="normal" in="SourceGraphic" in2="BackgroundImageFix" result="shape"/>
<feGaussianBlur stdDeviation="21" result="effect1_foregroundBlur_9716_16707"/>
</filter>
</defs>
</svg>
