<svg width="126" height="126" viewBox="0 0 126 126" fill="none" xmlns="http://www.w3.org/2000/svg">
<g filter="url(#filter0_f_9716_16685)">
<circle cx="63" cy="63" r="21" fill="#1B1551"/>
</g>
<path d="M54.0275 61.022L57.6852 63.9482C58.1725 64.338 58.4162 64.5329 58.6875 64.6715C58.9282 64.7945 59.1844 64.8844 59.4492 64.9387C59.7477 65 60.0597 65 60.6837 65H65.3163C65.9403 65 66.2523 65 66.5508 64.9387C66.8156 64.8844 67.0718 64.7945 67.3125 64.6715C67.5838 64.5329 67.8275 64.338 68.3148 63.9482L71.9725 61.022M54.0275 61.022C54 61.4895 54 62.0642 54 62.8V67.2C54 68.8802 54 69.7202 54.327 70.362C54.6146 70.9265 55.0735 71.3854 55.638 71.673C56.2798 72 57.1198 72 58.8 72H67.2C68.8802 72 69.7202 72 70.362 71.673C70.9265 71.3854 71.3854 70.9265 71.673 70.362C72 69.7202 72 68.8802 72 67.2V62.8C72 62.0642 72 61.4895 71.9725 61.022M54.0275 61.022C54.0627 60.422 54.1432 59.9987 54.327 59.638C54.6146 59.0735 55.0735 58.6146 55.638 58.327C56.2798 58 57.1198 58 58.8 58H59M71.9725 61.022C71.9373 60.422 71.8568 59.9987 71.673 59.638C71.3854 59.0735 70.9265 58.6146 70.362 58.327C69.7202 58 68.8802 58 67.2 58H67M59 58V57C59 55.3431 60.3431 54 62 54H64C65.6569 54 67 55.3431 67 57V58M59 58H67" stroke="#D4CEFD" stroke-width="1.2" stroke-linecap="round" stroke-linejoin="round"/>
<defs>
<filter id="filter0_f_9716_16685" x="0" y="0" width="126" height="126" filterUnits="userSpaceOnUse" color-interpolation-filters="sRGB">
<feFlood flood-opacity="0" result="BackgroundImageFix"/>
<feBlend mode="normal" in="SourceGraphic" in2="BackgroundImageFix" result="shape"/>
<feGaussianBlur stdDeviation="21" result="effect1_foregroundBlur_9716_16685"/>
</filter>
</defs>
</svg>
