<svg width="126" height="126" viewBox="0 0 126 126" fill="none" xmlns="http://www.w3.org/2000/svg">
<g filter="url(#filter0_f_9716_16692)">
<circle cx="63" cy="63" r="21" fill="#1B1551"/>
</g>
<path d="M56 70V57.2C56 56.0799 56 55.5198 56.218 55.092C56.4097 54.7157 56.7157 54.4097 57.092 54.218C57.5198 54 58.0799 54 59.2 54H66.8C67.9201 54 68.4802 54 68.908 54.218C69.2843 54.4097 69.5903 54.7157 69.782 55.092C70 55.5198 70 56.0799 70 57.2V68H58C56.8954 68 56 68.8954 56 70ZM56 70C56 71.1046 56.8954 72 58 72H70M69 68V72M66 64.5C65.7164 63.3589 64.481 62.5 63 62.5C61.519 62.5 60.2836 63.3589 60 64.5M63 58.5H63.01M64 58.5C64 59.0523 63.5523 59.5 63 59.5C62.4477 59.5 62 59.0523 62 58.5C62 57.9477 62.4477 57.5 63 57.5C63.5523 57.5 64 57.9477 64 58.5Z" stroke="#D4CEFD" stroke-width="1.2" stroke-linecap="round" stroke-linejoin="round"/>
<defs>
<filter id="filter0_f_9716_16692" x="0" y="0" width="126" height="126" filterUnits="userSpaceOnUse" color-interpolation-filters="sRGB">
<feFlood flood-opacity="0" result="BackgroundImageFix"/>
<feBlend mode="normal" in="SourceGraphic" in2="BackgroundImageFix" result="shape"/>
<feGaussianBlur stdDeviation="21" result="effect1_foregroundBlur_9716_16692"/>
</filter>
</defs>
</svg>
