<svg width="126" height="126" viewBox="0 0 126 126" fill="none" xmlns="http://www.w3.org/2000/svg">
<g filter="url(#filter0_f_2576_69235)">
<circle cx="63" cy="63" r="21" fill="#1B1551"/>
</g>
<path d="M60 53V55M66 53V55M60 71V73M66 71V73M71 60H73M71 65H73M53 60H55M53 65H55M59.8 71H66.2C67.8802 71 68.7202 71 69.362 70.673C69.9265 70.3854 70.3854 69.9265 70.673 69.362C71 68.7202 71 67.8802 71 66.2V59.8C71 58.1198 71 57.2798 70.673 56.638C70.3854 56.0735 69.9265 55.6146 69.362 55.327C68.7202 55 67.8802 55 66.2 55H59.8C58.1198 55 57.2798 55 56.638 55.327C56.0735 55.6146 55.6146 56.0735 55.327 56.638C55 57.2798 55 58.1198 55 59.8V66.2C55 67.8802 55 68.7202 55.327 69.362C55.6146 69.9265 56.0735 70.3854 56.638 70.673C57.2798 71 58.1198 71 59.8 71ZM61.6 66H64.4C64.9601 66 65.2401 66 65.454 65.891C65.6422 65.7951 65.7951 65.6422 65.891 65.454C66 65.2401 66 64.9601 66 64.4V61.6C66 61.0399 66 60.7599 65.891 60.546C65.7951 60.3578 65.6422 60.2049 65.454 60.109C65.2401 60 64.9601 60 64.4 60H61.6C61.0399 60 60.7599 60 60.546 60.109C60.3578 60.2049 60.2049 60.3578 60.109 60.546C60 60.7599 60 61.0399 60 61.6V64.4C60 64.9601 60 65.2401 60.109 65.454C60.2049 65.6422 60.3578 65.7951 60.546 65.891C60.7599 66 61.0399 66 61.6 66Z" stroke="#D4CEFD" stroke-width="1.2" stroke-linecap="round" stroke-linejoin="round"/>
<defs>
<filter id="filter0_f_2576_69235" x="0" y="0" width="126" height="126" filterUnits="userSpaceOnUse" color-interpolation-filters="sRGB">
<feFlood flood-opacity="0" result="BackgroundImageFix"/>
<feBlend mode="normal" in="SourceGraphic" in2="BackgroundImageFix" result="shape"/>
<feGaussianBlur stdDeviation="21" result="effect1_foregroundBlur_2576_69235"/>
</filter>
</defs>
</svg>
