<svg width="126" height="126" viewBox="0 0 126 126" fill="none" xmlns="http://www.w3.org/2000/svg">
<g filter="url(#filter0_f_9716_16714)">
<circle cx="63" cy="63" r="21" fill="#1B1551"/>
</g>
<path d="M73 59.0001H71M71 59.0001H70C68 57.0019 65 54.9999 63 57.0001M71 59.0001V67.0001M63 57.0001L59.9996 60.0017C59.9202 60.0811 59.8805 60.1208 59.8486 60.1559C59.155 60.919 59.1553 62.0844 59.8493 62.8471C59.8812 62.8822 59.921 62.922 60.0003 63.0012C60.0797 63.0805 60.1194 63.1202 60.1545 63.1521C60.9174 63.8455 62.0824 63.8453 62.8451 63.1517C62.8802 63.1198 62.9199 63.0801 62.9992 63.0008L63.9996 62.0004M63 57.0001C61 54.9999 58 57.0019 56 59.0001H55M53 59.0001H55M55 59.0001V67.0001M71 67.0001V70.0001H73M71 67.0001H68.1716M66 64.0001L67.5 65.5001C67.5796 65.5797 67.6195 65.6196 67.6515 65.6548C68.3449 66.4176 68.3449 67.5825 67.6515 68.3453C67.6195 68.3806 67.5796 68.4205 67.5 68.5001C67.4204 68.5797 67.3805 68.6196 67.3453 68.6516C66.5824 69.345 65.4176 69.345 64.6547 68.6516C64.6195 68.6196 64.5796 68.5797 64.5 68.5001L64 68.0001C63.4548 68.5453 63.1821 68.8179 62.888 68.9637C62.3285 69.241 61.6715 69.241 61.112 68.9637C60.8179 68.8179 60.5452 68.5453 60 68.0001C59.3108 68.9189 57.8956 68.7913 57.382 67.764L57 67.0001H55M55 67.0001V70.0001H53" stroke="#D4CEFD" stroke-width="1.2" stroke-linecap="round" stroke-linejoin="round"/>
<defs>
<filter id="filter0_f_9716_16714" x="0" y="0" width="126" height="126" filterUnits="userSpaceOnUse" color-interpolation-filters="sRGB">
<feFlood flood-opacity="0" result="BackgroundImageFix"/>
<feBlend mode="normal" in="SourceGraphic" in2="BackgroundImageFix" result="shape"/>
<feGaussianBlur stdDeviation="21" result="effect1_foregroundBlur_9716_16714"/>
</filter>
</defs>
</svg>
