<svg width="126" height="126" viewBox="0 0 126 126" fill="none" xmlns="http://www.w3.org/2000/svg">
<g filter="url(#filter0_f_2576_69264)">
<circle cx="63" cy="63" r="21" fill="#1B1551"/>
</g>
<path d="M53.4995 59.9297H72.4995M60.9995 53.9297L58.9995 59.9297L62.9995 71.4297L66.9995 59.9297L64.9995 53.9297M63.6141 71.1922L72.5727 60.4418C72.7246 60.2596 72.8005 60.1685 72.8295 60.0669C72.8551 59.9772 72.8551 59.8822 72.8295 59.7925C72.8005 59.6908 72.7246 59.5997 72.5727 59.4175L68.2394 54.2175C68.1512 54.1117 68.1072 54.0588 68.0531 54.0208C68.0052 53.9871 67.9518 53.9621 67.8953 53.9469C67.8314 53.9297 67.7626 53.9297 67.6248 53.9297H58.3742C58.2365 53.9297 58.1676 53.9297 58.1038 53.9469C58.0473 53.9621 57.9938 53.9871 57.946 54.0208C57.8919 54.0588 57.8478 54.1117 57.7597 54.2175L53.4263 59.4175C53.2745 59.5997 53.1986 59.6908 53.1696 59.7925C53.144 59.8822 53.144 59.9772 53.1696 60.0669C53.1986 60.1685 53.2745 60.2596 53.4263 60.4418L62.385 71.1922C62.596 71.4455 62.7015 71.5721 62.8279 71.6183C62.9387 71.6588 63.0603 71.6588 63.1712 71.6183C63.2975 71.5721 63.4031 71.4455 63.6141 71.1922Z" stroke="#D4CEFD" stroke-width="1.2" stroke-linecap="round" stroke-linejoin="round"/>
<defs>
<filter id="filter0_f_2576_69264" x="0" y="0" width="126" height="126" filterUnits="userSpaceOnUse" color-interpolation-filters="sRGB">
<feFlood flood-opacity="0" result="BackgroundImageFix"/>
<feBlend mode="normal" in="SourceGraphic" in2="BackgroundImageFix" result="shape"/>
<feGaussianBlur stdDeviation="21" result="effect1_foregroundBlur_2576_69264"/>
</filter>
</defs>
</svg>
