<svg width="632" height="592" viewBox="0 0 632 592" fill="none" xmlns="http://www.w3.org/2000/svg">
<path d="M87.8983 499.198C87.8983 499.198 61.3049 341.377 90.3651 327.341C111.51 317.128 139.351 376.644 146.4 313.959C153.448 251.273 68.1631 143.511 99.528 105.124C130.893 66.7382 359.26 39.6216 375.471 61.8081C391.683 83.9946 374.414 231.2 439.964 250.217C505.514 269.234 574.235 253.739 587.627 308.324C601.019 362.91 569.54 499.124 569.54 499.124L87.8983 499.198Z" fill="#EDEDFE" fill-opacity="0.4"/>
<path d="M569.541 499.124L87.8991 499.198C87.8991 499.198 2.26163 532.654 159.087 543.571C315.913 554.488 699.117 569.13 569.541 499.124Z" fill="#F8F8FF"/>
<path d="M585.335 499.638H76.7961C76.5529 499.638 76.3555 499.441 76.3555 499.198C76.3555 498.955 76.5525 498.758 76.7961 498.758H585.335C585.579 498.758 585.776 498.955 585.776 499.198C585.776 499.441 585.579 499.638 585.335 499.638Z" fill="black"/>
<path opacity="0.2" d="M291.596 232.609L568.244 519.976H334.591L224.637 280.151L291.596 232.609Z" fill="white"/>
<path d="M331.902 331.567C331.902 331.567 328.377 328.046 325.206 328.046C322.034 328.046 313.576 335.793 311.814 343.893C310.052 351.993 313.576 354.81 313.576 354.81L311.814 357.627C311.814 357.627 307.232 355.866 305.118 356.923C303.003 357.979 304.061 365.023 304.061 365.023L303.207 367.015C303.164 367.047 303.121 367.077 303.078 367.109C302.614 366.896 302.126 366.673 301.594 366.432L296.66 373.827C296.66 373.827 293.251 357.463 291.561 352.981C290.29 349.608 286.182 344.858 286.182 344.858C286.809 342.583 285.945 340.577 285.822 339.844C298.07 338.258 301.617 317.051 301.617 317.051L303.295 318.559L303.473 315.317C308.163 317.756 308.217 320.246 308.217 320.246C308.217 320.246 311.64 317.182 312.287 310.294C312.935 303.405 306.453 298.764 306.453 298.764L311.754 299.495C311.754 299.495 308.691 293.933 301.396 290.853C294.101 287.774 282.333 292.214 282.333 292.214C282.566 291.461 281.063 288.854 280.02 289.026C278.977 289.198 278.623 293.54 278.623 293.54C276.887 291.684 272.08 290.692 271.267 292.254C270.453 293.816 276.591 296.373 276.591 296.373C276.591 296.373 274.795 296.312 272.01 298.914C269.225 301.514 270.889 311.591 270.889 311.591C267.821 310.312 265.099 312.949 266.997 318.301C268.636 322.922 272.256 321.726 272.256 321.726L269.749 328.339C268.87 328.246 267.822 328.228 266.924 328.478C264.944 329.029 262.968 331.673 262.968 331.673C262.968 331.673 252.986 330.024 243.122 331.329C233.259 332.635 213.69 346.258 208.727 353.66C205.318 358.746 203.399 375.903 203.359 385.286L204.679 385.547L204.76 391.139C204.76 391.139 204.457 391.431 203.59 391.923C202.724 392.415 203.276 394.393 203.276 394.393C203.276 394.393 203.148 396.184 202.867 397.203C202.587 398.222 204.838 400.667 207.709 402.187C210.58 403.707 210.708 401.916 210.708 401.916C212.313 402.723 213.554 400.872 213.554 400.872L215.1 400.567C215.1 400.567 214.547 403.057 217.366 401.297L214.547 411.157C214.811 411.394 215.08 411.635 215.351 411.878C214.722 414.865 213.137 424.495 213.137 445.669C213.137 467.506 216.485 511.7 216.485 511.7H218.952L219.304 517.335C212.609 520.152 210.494 529.661 210.494 529.661C213.666 531.069 233.401 530.013 233.401 530.013C233.401 530.013 233.754 528.957 232.344 524.026C230.934 519.096 226.353 517.687 226.353 517.687L227.41 511.348H229.172C229.172 511.348 231.639 497.613 232.697 490.57C233.754 483.527 234.106 467.327 234.106 467.327L240.626 444.612C247.322 457.643 254.899 465.566 254.899 465.566C252.432 468.736 255.603 511.348 255.603 511.348H258.07V518.391C258.07 518.391 257.013 517.335 256.308 517.335C255.603 517.335 253.312 530.189 253.312 530.189C254.017 530.541 289.259 530.189 290.316 530.189C291.374 530.189 291.374 527.371 288.907 524.554C286.44 521.737 279.744 521.384 276.924 520.328C274.105 519.272 272.343 517.159 270.933 516.806C269.524 516.454 264.942 518.567 264.942 518.567L265.999 511.524L267.761 511.172C267.761 511.172 273.753 468.912 273.753 462.573C273.753 458.403 267.77 437.736 264.275 425.047C265.364 420.603 268.489 408.032 270.593 401.472C273.177 393.416 279.593 377.109 279.744 376.996C281.153 380.87 285.372 391.091 291.374 394.252C299.552 398.56 303.708 387.913 303.708 387.913C306.081 383.51 308.129 378.124 310.477 371.766C310.606 371.505 310.731 371.241 310.853 370.976L311.109 370.657C314.985 371.009 315.69 368.192 315.69 368.192C315.69 368.192 316.747 368.192 318.157 366.783C319.567 365.375 316.747 362.557 316.747 362.557C316.747 362.557 318.157 362.205 318.51 360.444C318.862 358.684 317.1 356.923 317.1 356.923C324.148 357.627 330.492 349.879 332.606 342.132C334.721 334.385 331.902 331.567 331.902 331.567ZM212.365 387.118L212.582 385.37L213.675 385.152L220.794 362.261L233.075 357.758C233.075 357.758 229.194 367.206 225.119 378.405C222.299 386.153 220.147 393.056 220.147 393.056C219.45 391.038 218.102 389.424 217.785 389.213C217.045 388.72 212.365 387.118 212.365 387.118Z" fill="white"/>
<path d="M233.172 526.85C233.172 526.85 217.585 527.499 211.418 526.555C211.418 526.555 214.414 516.806 222.168 516.806C229.921 516.807 232.899 523.511 233.172 526.85ZM254.922 521.902C254.922 521.902 259.172 522.441 260.582 527.372C260.582 527.372 273.269 527.724 278.555 527.724C283.841 527.724 290.538 527.02 290.538 527.02C290.538 527.02 289.128 523.146 284.194 522.089C279.26 521.033 273.974 519.272 272.564 517.863C271.154 516.455 270.946 516.196 269.464 516.854C267.983 517.511 261.991 520.328 259.524 518.92C257.057 517.511 256.51 516.886 256.079 517.726C255.647 518.568 254.922 521.902 254.922 521.902Z" fill="black"/>
<path d="M217.698 511.226C217.698 511.226 211.86 426.673 216.486 413.104L264.106 425.244C264.106 425.244 275.383 457.643 275.383 462.573C275.383 467.503 270.802 504.833 269.039 511.524L256.749 511.399C256.749 511.399 253.357 469.792 256.176 464.862C256.176 464.862 246.661 453.593 242.079 444.436L235.384 468.031C235.384 468.031 234.326 490.57 230.097 511.7L217.698 511.226Z" fill="black"/>
<path d="M204.547 385.096C204.547 385.096 205.957 359.74 209.833 353.753C213.709 347.767 233.798 334.736 242.256 332.976C250.713 331.215 262.343 332.623 262.343 332.623C262.343 332.623 263.575 329.322 266.307 328.86C269.039 328.397 269.744 329.102 269.744 329.102L267.684 333.174L267.409 332.026C267.409 332.026 264.105 339.315 262.696 351.64C261.286 363.966 263.048 380.87 263.048 380.87C263.048 380.87 273.621 367.135 277.85 358.332C282.079 349.527 284.546 340.723 284.546 340.723L286.308 340.019L285.955 346.006C285.955 346.006 289.832 351.288 291.241 355.514C292.651 359.74 295.789 374.336 295.789 374.336C295.789 374.336 288.422 386.857 288.775 389.322C288.775 389.322 294.975 376.881 302.447 366.901L304.633 367.84L304.744 368.645C304.744 368.645 303.224 370.656 303.929 372.417C304.633 374.178 307.806 374.178 307.806 374.178L309.215 371.361L311.109 370.657L311.678 370.665C311.678 370.665 305.691 393.9 297.938 396.013C290.185 398.126 284.37 390.906 279.436 379.989C279.436 379.989 274.15 394.076 271.683 402.176C269.216 410.276 265.692 425.419 265.692 425.419C265.692 425.419 255.472 427.532 249.48 425.067L249.128 426.123C249.128 426.123 230.097 421.897 215.296 412.037L218.82 400.063L220.582 398.654L220.229 395.485C220.229 395.485 229.745 369.072 234.326 358.507C234.326 358.507 225.868 362.381 221.639 363.085C221.639 363.085 218.467 374.002 214.591 385.272L204.547 385.096Z" fill="#EBEBF5"/>
<path d="M269.04 351.288C269.04 351.288 268.335 356.219 269.392 357.627L262.363 370.483L263.265 380.672L269.745 372.066L271.507 358.684C271.507 358.684 275.384 356.219 276.089 354.81C276.089 354.81 274.326 350.584 273.622 350.584C272.916 350.584 269.04 351.288 269.04 351.288Z" fill="#A0A1D0"/>
<path d="M270.097 311.846C270.097 311.846 267.982 303.042 269.744 299.872C271.506 296.702 276.088 296.703 276.088 296.703C276.088 296.703 270.802 292.477 271.859 291.068C272.916 289.659 277.145 291.068 278.203 293.533C278.203 293.533 278.225 289.502 279.8 289.404C281.374 289.307 282.079 292.476 282.079 292.476C282.079 292.476 299.347 286.137 308.863 298.111L304.458 298.639C304.458 298.639 317.145 305.682 306.572 320.473C306.572 320.473 305.867 316.952 303.048 315.543V318.712L301.286 315.895L301.99 310.261C301.99 310.261 298.114 306.035 293.885 305.33L295.295 303.569C295.295 303.569 283.312 303.921 280.846 307.091C278.379 310.261 276.969 317.304 276.969 317.304L274.854 316.599V314.134C274.854 314.134 270.625 311.67 270.097 311.846Z" fill="black"/>
<path d="M313.799 355.162C313.799 355.162 311.808 353.632 311.394 348.058C310.979 342.485 314.856 336.498 317.675 332.976C320.495 329.454 324.023 328.18 325.607 328.289C327.19 328.398 330.715 330.159 331.772 331.567C332.829 332.976 334.106 336.817 332.939 341.059C331.772 345.302 328.738 352.626 323.559 355.303C318.38 357.98 315.208 356.923 313.799 355.162Z" fill="#EEB641"/>
<path d="M317.822 341.019C317.822 341.019 321.587 334.033 325.973 332.096C330.36 330.159 332.827 332.976 332.122 338.259C331.417 343.541 327.893 351.641 321.902 354.811C315.911 357.98 312.686 351.526 317.822 341.019Z" fill="#BDCCD4"/>
<path d="M313.57 355.289L312.014 357.649L314.151 359.388C314.151 359.388 313.925 357.579 316.681 356.899L313.57 355.289ZM309.218 361.854L305.693 366.784H307.456L308.865 365.728C308.865 365.728 308.161 364.319 309.922 363.615C311.685 362.91 313.447 363.615 313.447 363.615L314.504 361.502L314.151 360.446C314.151 360.445 312.39 362.206 309.218 361.854ZM304.636 368.545C304.636 368.545 302.874 370.658 303.932 372.419C304.989 374.18 307.809 374.531 307.809 374.18C307.809 373.827 309.218 371.362 309.218 371.362C309.218 371.362 305.341 369.954 304.636 368.545Z" fill="#A67D4F"/>
<path d="M216.485 512.14C216.256 512.14 216.065 511.965 216.046 511.736C215.983 510.953 209.754 433.256 214.648 413.691C214.708 413.455 214.947 413.312 215.183 413.371C215.419 413.43 215.562 413.669 215.504 413.905C210.829 432.591 216.404 505.06 216.892 511.249L228.792 510.918C229.355 507.199 233.994 476.18 233.666 467.343C233.664 467.294 233.671 467.245 233.685 467.199C233.761 466.95 241.302 442.182 242.838 434.838C242.888 434.6 243.123 434.449 243.36 434.497C243.598 434.547 243.751 434.78 243.701 435.018C242.197 442.205 234.999 465.907 234.549 467.385C234.87 476.926 229.824 510.007 229.608 511.415C229.576 511.625 229.398 511.782 229.185 511.788L216.498 512.14C216.493 512.14 216.489 512.14 216.485 512.14Z" fill="black"/>
<path d="M267.937 511.788H255.602C255.372 511.788 255.18 511.611 255.163 511.381C253.126 484.182 252.755 469.204 254.032 465.656C252.897 464.381 246.876 457.394 241.465 446.749C241.355 446.532 241.441 446.267 241.658 446.157C241.875 446.046 242.14 446.134 242.25 446.35C248.169 457.992 254.801 465.196 254.868 465.266C254.99 465.399 255.02 465.592 254.943 465.755C253.624 468.533 253.983 483.722 256.011 510.908H267.578C269.573 501.18 273.355 469.182 273.486 462.426C273.387 461.787 271.826 452.225 263.99 425.543C263.921 425.31 264.055 425.065 264.288 424.997C264.521 424.928 264.767 425.061 264.835 425.295C272.941 452.896 274.351 462.242 274.364 462.333C274.367 462.356 274.369 462.38 274.368 462.404C274.249 469.185 270.351 502.108 268.367 511.439C268.325 511.643 268.145 511.788 267.937 511.788ZM265.118 518.832C265.1 518.832 265.081 518.831 265.062 518.829C264.82 518.798 264.65 518.577 264.68 518.336L265.323 513.298C265.353 513.057 265.576 512.885 265.815 512.917C266.057 512.948 266.227 513.168 266.197 513.409L265.554 518.447C265.527 518.669 265.337 518.832 265.118 518.832ZM219.303 517.775C219.072 517.775 218.878 517.595 218.863 517.362L218.52 511.727C218.506 511.484 218.69 511.276 218.933 511.261C219.174 511.25 219.385 511.431 219.4 511.673L219.743 517.308C219.757 517.551 219.573 517.76 219.33 517.774C219.321 517.775 219.312 517.775 219.303 517.775ZM226.459 517.782C226.438 517.782 226.417 517.78 226.396 517.777C226.156 517.743 225.988 517.52 226.022 517.28L226.62 513.047C226.655 512.807 226.878 512.638 227.118 512.673C227.359 512.707 227.527 512.929 227.493 513.17L226.894 517.403C226.863 517.623 226.674 517.782 226.459 517.782Z" fill="black"/>
<path d="M258.071 518.479C257.832 518.479 257.635 518.288 257.63 518.048L257.496 511.52C257.491 511.277 257.684 511.076 257.927 511.071C258.174 511.08 258.372 511.259 258.377 511.502L258.511 518.03C258.517 518.273 258.323 518.474 258.08 518.479C258.077 518.479 258.074 518.479 258.071 518.479ZM270.923 322.627C270.481 322.627 270.02 322.566 269.559 322.413C268.19 321.957 267.151 320.801 266.47 318.976C265.28 315.79 265.539 312.962 267.13 311.773C269.415 310.065 273.148 312.353 275.169 313.868C275.277 313.948 275.341 314.072 275.345 314.206L275.41 316.232L276.531 316.538C277.138 314.823 279.556 308.107 280.636 306.749C282.289 304.671 290.585 302.645 295.188 303.195C295.606 303.245 295.754 303.458 295.804 303.628C295.931 304.058 295.541 304.383 295.047 304.794C294.931 304.891 294.767 305.026 294.642 305.145C298.763 306.335 302.123 309.05 303.662 312.447C303.762 312.669 303.664 312.929 303.442 313.03C303.219 313.13 302.959 313.031 302.859 312.81C301.398 309.584 298.15 307.011 294.17 305.927C293.774 305.819 293.646 305.587 293.607 305.411C293.503 304.933 293.958 304.555 294.484 304.117C294.519 304.088 294.557 304.056 294.597 304.023C290.028 303.677 282.623 305.666 281.326 307.297C280.395 308.467 278.051 314.854 277.227 317.216C277.15 317.434 276.918 317.556 276.694 317.495L274.864 316.996C274.677 316.945 274.546 316.778 274.539 316.585L274.471 314.447C271.444 312.218 268.966 311.5 267.658 312.478C266.407 313.413 266.261 315.9 267.295 318.669C267.879 320.232 268.734 321.21 269.838 321.578C271.657 322.184 273.59 320.966 273.609 320.954C273.814 320.823 274.086 320.883 274.217 321.087C274.349 321.292 274.289 321.564 274.084 321.695C274.011 321.742 272.604 322.627 270.923 322.627ZM289.909 327.714C288.816 327.714 287.836 327.368 287.776 327.347C287.547 327.264 287.429 327.013 287.51 326.784C287.592 326.555 287.845 326.435 288.073 326.518C288.092 326.525 289.911 327.163 291.08 326.612C291.997 326.181 291.714 322.081 290.926 318.53C290.873 318.293 291.023 318.058 291.261 318.005C291.498 317.951 291.734 318.102 291.786 318.339C292.085 319.687 293.474 326.457 291.455 327.409C290.972 327.636 290.428 327.714 289.909 327.714Z" fill="black"/>
<path d="M288.511 317.436C288.065 319.205 287.021 320.466 286.178 320.254C285.335 320.042 285.013 318.436 285.459 316.668C285.905 314.899 286.95 313.637 287.792 313.849C288.635 314.062 288.957 315.668 288.511 317.436ZM296.917 319.72C296.507 321.345 295.548 322.504 294.774 322.309C294 322.114 293.704 320.639 294.114 319.015C294.523 317.391 295.483 316.232 296.257 316.426C297.03 316.621 297.326 318.096 296.917 319.72ZM267.823 334.279C267.773 334.279 267.722 334.27 267.672 334.252C267.444 334.168 267.326 333.915 267.41 333.687L271.118 323.55C271.202 323.322 271.456 323.205 271.683 323.288C271.912 323.372 272.029 323.625 271.946 323.853L268.237 333.99C268.172 334.168 268.003 334.279 267.823 334.279Z" fill="black"/>
<path d="M308.072 321.025C308.034 321.025 307.995 321.02 307.956 321.01C307.782 320.963 307.655 320.814 307.634 320.635C307.415 318.723 304.924 316.988 303.699 316.243C303.669 317.499 303.332 318.748 303.315 318.812C303.25 319.047 303.007 319.185 302.774 319.121C302.539 319.057 302.401 318.815 302.464 318.58C302.469 318.563 302.94 316.814 302.791 315.517C302.773 315.356 302.845 315.198 302.978 315.105C303.112 315.012 303.285 315.001 303.43 315.075C303.601 315.163 307.194 317.031 308.244 319.544C309.488 317.597 312.433 312.295 311.411 307.121C310.781 303.934 308.746 301.292 305.362 299.27C305.187 299.165 305.107 298.955 305.167 298.761C305.228 298.567 305.424 298.437 305.617 298.453C305.754 298.462 308.487 298.648 310.502 299.22C309.746 297.886 308.04 295.396 304.995 293.421C299.225 289.677 291.252 289.466 281.936 292.812C281.807 292.859 281.663 292.841 281.547 292.766C281.432 292.691 281.358 292.567 281.348 292.429C281.313 291.958 281.084 290.621 280.449 290.095C280.241 289.922 280.004 289.853 279.726 289.886C279.369 290.029 278.946 291.929 278.846 293.87C278.837 294.045 278.726 294.197 278.562 294.259C278.399 294.321 278.214 294.28 278.091 294.155C277.984 294.047 275.412 291.494 271.951 292.54C271.421 292.7 271.274 292.871 271.271 292.947C271.241 293.607 273.95 295.175 276.401 296.169C276.588 296.245 276.7 296.437 276.672 296.636C276.645 296.836 276.486 296.991 276.286 297.014C276.251 297.018 272.672 297.473 271.401 300.535C270.395 302.96 270.574 307.333 270.697 309.1C270.714 309.343 270.531 309.553 270.289 309.57C270.045 309.586 269.836 309.404 269.818 309.162C269.659 306.889 269.548 302.703 270.587 300.198C271.535 297.915 273.512 296.897 274.846 296.457C273.028 295.626 270.332 294.175 270.391 292.907C270.416 292.359 270.855 291.952 271.696 291.698C274.587 290.823 276.92 292.125 278.027 292.951C278.18 291.249 278.58 289.131 279.626 289.011C280.149 288.952 280.616 289.088 281.013 289.418C281.731 290.014 282.031 291.127 282.152 291.802C288.821 289.489 298.112 287.875 305.518 292.711C310.086 295.693 311.731 299.669 311.799 299.836C311.866 300.003 311.826 300.195 311.695 300.319C311.565 300.444 311.372 300.476 311.208 300.402C310.213 299.95 308.57 299.669 307.312 299.509C310.03 301.519 311.697 304.017 312.276 306.956C313.627 313.809 308.638 320.565 308.424 320.849C308.34 320.961 308.209 321.025 308.072 321.025ZM296.136 371.661C295.925 371.661 295.739 371.51 295.702 371.295C294.398 363.682 292.187 356.171 291.567 354.601C290.68 352.358 288.196 347.745 285.91 344.452C285.772 344.252 285.821 343.978 286.021 343.839C286.221 343.701 286.495 343.75 286.635 343.95C288.955 347.293 291.482 351.989 292.386 354.277C293.015 355.871 295.255 363.47 296.571 371.146C296.611 371.386 296.451 371.614 296.21 371.654C296.186 371.659 296.161 371.661 296.136 371.661ZM281.381 344.421C281.324 344.421 281.267 344.41 281.211 344.387C280.987 344.293 280.88 344.036 280.974 343.811L282.448 340.276C282.541 340.052 282.799 339.945 283.023 340.039C283.248 340.133 283.354 340.39 283.261 340.615L281.787 344.15C281.717 344.319 281.553 344.421 281.381 344.421ZM270.954 531.009C265.579 531.009 259.613 530.866 253.405 530.452C253.286 530.444 253.176 530.389 253.099 530.299C253.022 530.209 252.985 530.092 252.995 529.975C252.997 529.948 253.231 527.306 253.781 524.627C253.83 524.388 254.064 524.235 254.301 524.284C254.54 524.333 254.693 524.565 254.644 524.804C254.238 526.786 254.007 528.747 253.917 529.604C269.568 530.615 283.626 529.913 290.416 529.574C290.558 529.566 290.637 529.296 290.654 529.032C290.769 527.147 288.463 523.012 282.61 521.995C276.917 521.006 273.372 519.573 271.771 517.613C270.986 516.651 269.606 517.187 267.422 518.141C264.566 519.388 261.011 520.94 257.41 518.4C257.236 518.277 256.713 517.903 256.564 517.924C256.324 518.047 255.978 519.448 255.578 521.071L255.451 521.585C256.712 521.771 259.763 522.646 260.833 526.77C263.172 526.862 277.35 527.375 287.239 526.757C287.486 526.748 287.691 526.926 287.706 527.169C287.721 527.411 287.537 527.62 287.294 527.636C276.493 528.309 260.623 527.643 260.464 527.636C260.265 527.627 260.097 527.487 260.053 527.292C258.966 522.448 255.057 522.405 254.904 522.416C254.904 522.416 254.903 522.416 254.902 522.416C254.767 522.416 254.638 522.354 254.555 522.248C254.471 522.141 254.44 522.001 254.473 521.869L254.723 520.861C255.371 518.233 255.589 517.348 256.26 517.098C256.766 516.91 257.266 517.22 257.918 517.68C261.114 519.935 264.277 518.554 267.069 517.334C269.197 516.406 271.206 515.528 272.454 517.057C273.915 518.845 277.286 520.176 282.761 521.128C289.236 522.253 291.669 526.866 291.533 529.086C291.474 530.057 290.94 530.429 290.46 530.453C286.274 530.662 279.332 531.009 270.954 531.009ZM220.041 530.775C216.661 530.775 213.211 530.629 210.469 530.191C210.351 530.172 210.247 530.107 210.178 530.01C210.11 529.913 210.083 529.793 210.105 529.676C210.129 529.545 212.644 516.542 222.421 516.542C228.644 516.542 232.521 520.065 233.632 526.73C233.653 526.852 233.62 526.978 233.543 527.075C233.466 527.173 233.351 527.233 233.227 527.241C233.116 527.249 221.974 527.98 214.436 527.24C214.193 527.217 214.017 527.001 214.04 526.759C214.064 526.517 214.281 526.339 214.522 526.364C221.089 527.009 230.444 526.524 232.677 526.394C231.535 520.441 228.086 517.423 222.42 517.423C214.366 517.423 211.595 527.172 211.068 529.391C219.202 530.563 233.017 529.331 233.158 529.318C233.401 529.301 233.614 529.474 233.636 529.716C233.658 529.959 233.48 530.173 233.238 530.195C233.141 530.203 226.729 530.775 220.041 530.775Z" fill="black"/>
<path d="M219.889 523.291C219.696 523.291 219.519 523.163 219.465 522.968C219.4 522.734 219.538 522.491 219.772 522.427C222.276 521.736 224.393 521.904 225.728 522.168C225.967 522.215 226.122 522.447 226.075 522.685C226.028 522.924 225.795 523.077 225.558 523.032C224.315 522.786 222.344 522.629 220.007 523.275C219.968 523.286 219.928 523.291 219.889 523.291ZM217.961 521.451C217.8 521.451 217.646 521.364 217.568 521.211C217.458 520.994 217.544 520.729 217.761 520.619C221.896 518.517 225.377 519.507 227.049 519.982C227.246 520.038 227.419 520.087 227.567 520.124C227.803 520.182 227.947 520.421 227.889 520.657C227.83 520.893 227.59 521.037 227.355 520.978C227.198 520.94 227.016 520.888 226.808 520.829C225.123 520.35 221.987 519.458 218.161 521.403C218.097 521.436 218.028 521.451 217.961 521.451ZM271.074 523.286C271.052 523.286 271.029 523.285 271.007 523.282C270.766 523.245 270.601 523.02 270.638 522.779C270.903 521.06 271.6 519.491 272.71 518.115C272.863 517.926 273.139 517.896 273.329 518.049C273.518 518.201 273.548 518.479 273.396 518.667C272.384 519.921 271.75 521.349 271.509 522.913C271.475 523.131 271.288 523.286 271.074 523.286ZM274.598 523.286C274.576 523.286 274.554 523.285 274.531 523.282C274.29 523.245 274.125 523.02 274.163 522.779C274.336 521.652 274.701 520.577 275.247 519.584C275.365 519.371 275.633 519.293 275.846 519.409C276.059 519.527 276.137 519.794 276.02 520.007C275.523 520.91 275.191 521.888 275.033 522.913C275 523.131 274.812 523.286 274.598 523.286ZM202.241 398.052C203.07 399.571 207.392 402.807 208.727 403.199C209.465 403.417 210.137 403.251 210.62 402.734C210.961 402.368 211.091 401.951 211.104 401.905C211.177 401.657 211.036 401.398 210.788 401.325C210.541 401.252 210.282 401.392 210.208 401.638C210.14 401.859 209.849 402.556 208.991 402.303C207.514 401.869 203.184 398.275 203.033 397.552C202.936 397.015 203.065 396.45 203.19 395.903C203.284 395.488 203.374 395.096 203.361 394.727C203.355 394.576 203.338 394.403 203.32 394.219C203.239 393.411 203.21 392.774 203.635 392.542C204.567 392.035 205.303 391.635 205.63 390.524C205.753 390.106 206.169 389.146 207.373 389.253C208.114 389.319 208.814 388.785 209.49 388.27C210.14 387.773 210.813 387.26 211.339 387.415C212.731 387.824 215.944 389.085 216.975 389.627C217.907 390.116 219.539 393.068 219.56 393.646C219.567 393.843 219.616 394.189 219.685 394.667C220.039 397.118 220.084 398.49 219.818 398.745C219.474 398.931 218.861 399.374 218.15 399.886C217.385 400.438 216.135 401.34 215.716 401.499C215.575 401.369 215.365 400.885 215.343 400.235C215.333 399.978 215.116 399.775 214.859 399.784C214.6 399.794 214.399 400.01 214.408 400.268C214.438 401.124 214.744 402.204 215.503 402.427C215.952 402.56 216.587 402.166 218.697 400.644C219.353 400.17 219.973 399.723 220.277 399.558C221.106 399.106 221.04 397.512 220.61 394.534C220.55 394.119 220.498 393.76 220.493 393.612C220.459 392.644 218.621 389.437 217.409 388.8C216.32 388.228 213.063 386.949 211.602 386.519C210.621 386.23 209.719 386.918 208.922 387.527C208.387 387.934 207.834 388.357 207.455 388.322C206.161 388.207 205.118 388.949 204.732 390.26C204.514 390.999 204.042 391.256 203.187 391.722C202.183 392.268 202.306 393.499 202.388 394.312C202.405 394.475 202.42 394.627 202.425 394.76C202.434 395.008 202.358 395.342 202.277 395.696C202.138 396.304 201.981 396.993 202.111 397.718C202.13 397.815 202.174 397.928 202.241 398.052Z" fill="white"/>
<path d="M204.654 397.083C204.671 397.113 204.69 397.142 204.714 397.168C204.863 397.338 208.394 401.342 210.594 401.989C211.552 402.271 212.334 402.224 212.918 401.85C213.613 401.405 213.736 400.684 213.748 400.603C213.785 400.348 213.608 400.11 213.352 400.073C213.097 400.036 212.859 400.213 212.822 400.468C212.82 400.479 212.752 400.853 212.404 401.07C212.063 401.282 211.528 401.29 210.858 401.093C209.246 400.619 206.384 397.654 205.417 396.552C205.246 396.358 204.951 396.339 204.757 396.509C204.589 396.656 204.552 396.896 204.654 397.083Z" fill="black"/>
<path d="M206.994 394.255C207.004 394.272 207.014 394.289 207.026 394.305C207.158 394.488 210.288 398.829 211.733 400.024C212.455 400.621 213.239 401.158 214.086 401.042C214.765 400.95 215.393 400.459 216.063 399.498C216.21 399.286 216.158 398.995 215.946 398.847C215.734 398.7 215.443 398.752 215.295 398.964C214.793 399.685 214.356 400.062 213.96 400.117C213.564 400.17 213.092 399.935 212.329 399.305C210.976 398.186 207.817 393.804 207.785 393.759C207.635 393.55 207.342 393.502 207.133 393.653C206.938 393.792 206.883 394.051 206.994 394.255Z" fill="black"/>
<path d="M212.533 395.059C213.761 397.311 215.226 399.562 216.192 399.602C216.941 399.633 217.585 399.109 217.903 398.793C218.338 398.361 218.839 397.627 218.817 396.984C218.789 396.197 216.595 391.014 215.923 389.444C215.826 389.213 215.548 389.097 215.31 389.198C215.072 389.3 214.962 389.574 215.064 389.812C216.42 392.981 217.845 396.544 217.882 397.02C217.89 397.245 217.653 397.724 217.243 398.131C216.892 398.479 216.514 398.68 216.231 398.668C215.52 398.55 213.275 394.702 211.629 391.183C211.516 390.948 211.241 390.848 211.008 390.957C210.774 391.067 210.673 391.345 210.782 391.579C211.192 392.455 211.823 393.757 212.533 395.059Z" fill="black"/>
<path d="M216.609 393.516C216.636 393.566 216.674 393.613 216.721 393.651C216.919 393.817 217.214 393.79 217.379 393.591C217.411 393.553 218.154 392.643 217.928 391.383C217.883 391.129 217.64 390.96 217.386 391.005C217.132 391.051 216.962 391.293 217.008 391.548C217.156 392.371 216.665 392.988 216.66 392.994C216.534 393.145 216.52 393.353 216.609 393.516ZM204.363 388.279C204.12 388.279 203.923 388.082 203.922 387.84C203.922 387.84 203.919 386.982 203.938 385.528C203.942 385.287 204.138 385.094 204.379 385.094C204.381 385.094 204.383 385.094 204.385 385.094C204.628 385.097 204.822 385.297 204.819 385.54C204.8 386.982 204.803 387.834 204.803 387.836C204.804 388.079 204.607 388.277 204.364 388.278C204.363 388.279 204.363 388.279 204.363 388.279Z" fill="black"/>
<path d="M203.183 385.792C203.066 385.792 202.954 385.747 202.872 385.664C202.787 385.58 202.74 385.464 202.742 385.343C202.902 377.337 204.877 359.313 208.086 353.409C212.286 345.682 235.043 331.54 244.429 330.825C248.619 330.505 256.326 330.585 262.358 331.361C262.599 331.392 262.77 331.613 262.739 331.854C262.708 332.095 262.487 332.264 262.245 332.235C256.272 331.466 248.642 331.387 244.496 331.703C235.519 332.387 212.872 346.449 208.861 353.829C205.779 359.5 203.855 376.76 203.635 384.9L213.119 384.659C213.669 382.971 214.418 380.7 215.227 378.245C217.441 371.534 220.195 363.182 220.366 362.183C220.394 362.019 220.511 361.886 220.669 361.836C220.772 361.804 231.039 358.59 237.299 354.918C237.508 354.795 237.779 354.865 237.902 355.075C238.025 355.284 237.955 355.554 237.745 355.677C231.94 359.082 222.78 362.086 221.174 362.6C220.732 364.367 218.26 371.862 216.063 378.521C215.206 381.121 214.417 383.514 213.861 385.227C213.803 385.404 213.64 385.526 213.453 385.531L203.194 385.793C203.19 385.792 203.186 385.792 203.183 385.792Z" fill="black"/>
<path d="M212.058 387.34C212.018 387.34 211.977 387.335 211.937 387.323C211.702 387.256 211.567 387.012 211.634 386.779C211.675 386.638 211.797 386.046 211.926 385.42L211.968 385.213C212.017 384.974 212.253 384.823 212.489 384.871C212.727 384.919 212.881 385.153 212.831 385.39L212.789 385.598C212.624 386.396 212.529 386.856 212.481 387.021C212.426 387.214 212.25 387.34 212.058 387.34ZM264.38 353.213C264.316 353.213 264.251 353.199 264.19 353.17C264.058 353.106 263.966 352.982 263.945 352.836C263.939 352.796 263.353 348.719 263.619 342.772C263.63 342.529 263.838 342.341 264.078 342.353C264.321 342.364 264.509 342.569 264.498 342.812C264.296 347.334 264.592 350.75 264.74 352.09C267.123 350.985 271.422 350.319 273.037 350.098C267.03 338.329 267.087 332.369 267.092 332.117C267.098 331.874 267.306 331.668 267.542 331.687C267.786 331.692 267.979 331.893 267.973 332.136C267.972 332.233 267.952 338.384 274.106 350.252C274.173 350.38 274.172 350.532 274.104 350.66C274.037 350.788 273.911 350.875 273.767 350.891C273.7 350.899 267.07 351.699 264.604 353.152C264.535 353.192 264.458 353.213 264.38 353.213Z" fill="black"/>
<path d="M276.564 358.176C276.506 358.176 276.447 358.164 276.391 358.14C276.208 358.062 276.101 357.871 276.129 357.674C276.549 354.739 273.403 350.769 273.371 350.729C273.289 350.626 273.257 350.492 273.284 350.363C273.311 350.234 273.395 350.124 273.512 350.063C276.968 348.265 281.223 343.565 282.445 342.168C282.605 341.985 282.884 341.966 283.067 342.126C283.25 342.286 283.269 342.565 283.109 342.747C281.913 344.114 277.87 348.578 274.373 350.594C275.077 351.562 276.723 354.045 277.006 356.436C277.583 355.667 278.423 354.519 279.334 353.174C279.471 352.973 279.745 352.921 279.946 353.057C280.148 353.193 280.2 353.467 280.064 353.668C278.373 356.161 276.924 357.991 276.91 358.01C276.824 358.118 276.696 358.176 276.564 358.176ZM259.207 426.703C254.595 426.703 249.508 425.749 249.202 425.69C248.963 425.645 248.806 425.414 248.852 425.175C248.897 424.937 249.129 424.778 249.367 424.826C249.471 424.846 259.677 426.76 264.102 425.224C264.304 423.989 265.279 418.388 267.711 409.593C270.253 400.402 274.955 385.73 282.92 368.029C283.02 367.807 283.28 367.709 283.502 367.808C283.724 367.908 283.823 368.169 283.723 368.39C275.782 386.04 271.094 400.666 268.56 409.827C265.817 419.744 264.941 425.555 264.933 425.613C264.909 425.768 264.805 425.9 264.658 425.957C263.256 426.511 261.279 426.703 259.207 426.703ZM271.039 358.862C270.851 358.862 270.666 358.842 270.484 358.803C267.3 358.122 268.603 351.63 268.66 351.354C268.71 351.115 268.943 350.963 269.18 351.012C269.419 351.061 269.572 351.293 269.523 351.531C269.184 353.174 268.73 357.527 270.668 357.942C271.99 358.226 273.491 356.874 274.518 355.691C274.677 355.507 274.955 355.487 275.139 355.647C275.323 355.806 275.343 356.084 275.183 356.268C273.688 357.992 272.296 358.862 271.039 358.862ZM288.895 388.859C288.652 388.859 288.455 388.663 288.454 388.42C288.444 383.738 300.701 366.889 301.223 366.174C301.342 366.01 301.557 365.949 301.745 366.025L304.418 367.11C304.643 367.201 304.752 367.458 304.661 367.683C304.569 367.909 304.311 368.016 304.086 367.926L301.733 366.971C300.986 368.007 298.277 371.793 295.601 375.946C290.417 383.99 289.332 387.168 289.335 388.418C289.335 388.661 289.139 388.859 288.896 388.859C288.895 388.859 288.895 388.859 288.895 388.859Z" fill="black"/>
<path d="M295.355 395.71C294.606 395.71 293.825 395.573 293.007 395.28C286.506 392.953 281.986 384.139 279.87 379.093C279.776 378.869 279.882 378.61 280.106 378.517C280.33 378.422 280.589 378.529 280.683 378.753C282.743 383.665 287.121 392.237 293.304 394.451C300.529 397.036 304.941 385.329 308.488 375.92C308.952 374.69 309.39 373.527 309.821 372.433C309.91 372.207 310.166 372.096 310.392 372.185C310.619 372.274 310.73 372.529 310.641 372.756C310.212 373.843 309.775 375.003 309.312 376.231C306.005 385.006 301.969 395.71 295.355 395.71ZM309.092 366.307C308.823 366.069 308.623 365.811 308.515 365.531C308.396 365.221 308.334 364.738 308.715 364.199C310.179 362.128 313.425 362.675 315.76 363.773C315.981 363.878 316.074 364.139 315.97 364.359C315.867 364.579 315.605 364.674 315.384 364.57C314.935 364.358 310.948 362.566 309.434 364.707C309.266 364.944 309.295 365.103 309.338 365.216C309.553 365.777 310.863 366.623 313.891 367.31C314.829 367.523 315.758 367.499 316.578 367.241C317.423 366.976 317.926 366.576 318.074 366.052C318.291 365.283 317.771 364.146 316.568 362.764C316.409 362.58 316.428 362.302 316.611 362.143C316.795 361.983 317.075 362.003 317.233 362.186C318.68 363.85 319.232 365.193 318.922 366.291C318.691 367.107 317.973 367.726 316.842 368.081C315.874 368.386 314.786 368.416 313.696 368.169C312.054 367.796 310.096 367.194 309.092 366.307Z" fill="black"/>
<path d="M308.344 369.403C307.43 368.596 306.977 367.63 307.071 366.856C307.175 365.996 307.885 365.461 308.969 365.424C309.212 365.416 309.416 365.606 309.424 365.849C309.432 366.092 309.242 366.296 308.999 366.304C308.553 366.32 308.008 366.446 307.946 366.962C307.848 367.765 308.909 369.265 311.082 369.879C314.207 370.763 315.342 368.209 315.389 368.099C315.485 367.876 315.743 367.772 315.967 367.866C316.19 367.96 316.295 368.218 316.201 368.441C316.187 368.475 314.729 371.825 310.842 370.727C309.812 370.435 308.97 369.956 308.344 369.403Z" fill="black"/>
<path d="M310.994 369.863C310.752 369.847 310.541 370.03 310.525 370.272C310.524 370.275 310.491 370.587 310.208 370.762C309.813 371.005 309.065 370.918 308.102 370.515C306.261 369.746 304.988 368.363 305.12 367.686C305.201 367.276 305.954 367.024 307.135 367.012C307.379 367.009 307.574 366.81 307.572 366.567C307.569 366.324 307.37 366.13 307.127 366.132C304.974 366.153 304.377 366.897 304.256 367.517C304.104 368.297 304.647 369.172 305.503 369.929L307.762 371.328C309.03 371.858 310.009 371.92 310.671 371.511C311.208 371.18 311.385 370.614 311.404 370.333C311.421 370.09 311.237 369.88 310.994 369.863ZM314.661 362.544C314.047 362.002 313.683 360.53 313.847 359.263C313.984 358.211 314.468 357.426 315.211 357.053C316.016 356.648 316.927 356.753 317.71 357.341C318.656 358.047 319.201 359.304 319.01 360.326C318.632 362.361 317.632 362.698 317.317 362.755C317.014 362.865 315.558 363.338 314.661 362.544ZM317.324 358.162C317.277 358.12 317.229 358.082 317.18 358.044C316.883 357.822 316.284 357.498 315.606 357.839C314.999 358.144 314.79 358.843 314.72 359.376C314.575 360.496 314.933 361.61 315.244 361.884C315.723 362.308 316.727 362.043 317.041 361.917C317.08 361.902 317.12 361.891 317.161 361.887C317.201 361.879 317.854 361.72 318.143 360.165C318.264 359.517 317.917 358.686 317.324 358.162Z" fill="black"/>
<path d="M303.147 367.391C303.082 367.391 303.016 367.376 302.954 367.346C302.736 367.239 302.645 366.976 302.752 366.757L303.453 365.321C303.409 364.855 303.271 363.199 303.336 361.443C303.445 358.523 304.045 356.908 305.169 356.503C306.679 355.961 310.631 356.572 312.858 357.694C313.753 358.144 314.288 358.643 314.449 359.177C314.666 359.9 314.478 360.626 313.931 361.168C312.674 362.417 309.913 362.507 306.36 361.415C306.127 361.343 305.997 361.097 306.069 360.865C306.14 360.633 306.386 360.502 306.619 360.573C310.37 361.726 312.536 361.314 313.311 360.544C313.628 360.229 313.729 359.844 313.605 359.43C313.565 359.298 313.374 358.939 312.462 358.48C310.48 357.482 306.754 356.87 305.468 357.332C304.158 357.803 304.022 362.308 304.342 365.356C304.351 365.438 304.337 365.521 304.3 365.596L303.544 367.144C303.467 367.3 303.31 367.391 303.147 367.391ZM206.457 379.674C206.374 380.741 205.913 381.575 205.428 381.537C204.943 381.499 204.617 380.603 204.701 379.537C204.784 378.47 205.245 377.636 205.73 377.675C206.216 377.712 206.541 378.608 206.457 379.674ZM306.985 376.968C306.578 377.957 305.883 378.609 305.433 378.425C304.983 378.24 304.949 377.288 305.355 376.298C305.763 375.309 306.458 374.657 306.907 374.842C307.358 375.027 307.393 375.979 306.985 376.968ZM220.034 393.407C219.989 393.407 219.943 393.4 219.898 393.385C219.666 393.309 219.54 393.061 219.615 392.83C223.079 382.216 227.141 371.384 231.689 360.635C231.784 360.411 232.042 360.306 232.267 360.401C232.491 360.495 232.596 360.754 232.501 360.978C227.963 371.704 223.909 382.513 220.453 393.103C220.392 393.289 220.22 393.407 220.034 393.407ZM249.11 426.38C249.07 426.38 249.03 426.375 248.99 426.364C247.779 426.022 219.283 417.907 214.343 411.506C214.262 411.401 214.233 411.265 214.263 411.136C214.27 411.107 214.958 408.207 216.42 403.171C216.488 402.937 216.733 402.803 216.966 402.871C217.2 402.938 217.334 403.183 217.267 403.416C216.033 407.667 215.354 410.385 215.172 411.13C219.978 416.885 245.322 424.385 248.83 425.401L263.35 383.141C261.694 373.859 260.334 359.727 263.188 344.9C264.905 335.977 267.304 331.11 267.405 330.907C267.514 330.69 267.778 330.601 267.996 330.71C268.214 330.818 268.302 331.083 268.194 331.3C268.169 331.349 265.738 336.29 264.045 345.107C262.483 353.243 261.248 366.439 264.237 383.099C264.25 383.172 264.244 383.248 264.22 383.319L249.526 426.083C249.464 426.265 249.294 426.38 249.11 426.38Z" fill="black"/>
<path d="M263.031 383.781C262.904 383.781 262.778 383.726 262.69 383.62C251.369 369.81 251.771 356.297 251.776 356.163C251.782 356.012 251.865 355.875 251.996 355.799C252.083 355.749 252.088 355.746 253.15 355.519C254.176 355.301 256.591 354.787 257.662 354.445C256.74 354.106 254.547 353.696 252.615 353.46C252.489 353.445 252.376 353.376 252.305 353.271C252.233 353.166 252.21 353.036 252.242 352.913C253.06 349.747 261.158 332.777 263.194 330.44C265.947 327.28 269.725 328.585 269.763 328.599C269.992 328.681 270.111 328.933 270.029 329.162C269.947 329.39 269.696 329.51 269.467 329.428C269.335 329.381 266.209 328.32 263.859 331.018C262.023 333.125 254.578 348.648 253.241 352.651C258.952 353.393 258.922 354.19 258.909 354.537C258.891 355.029 258.616 355.256 253.334 356.381C253.082 356.435 252.837 356.487 252.655 356.527C252.674 358.652 253.25 370.715 263.372 383.062C263.526 383.25 263.499 383.528 263.311 383.682C263.228 383.749 263.129 383.781 263.031 383.781Z" fill="black"/>
<path d="M263.495 381.062C263.398 381.062 263.301 381.03 263.219 380.964C263.03 380.812 262.999 380.535 263.152 380.345C278.637 361.129 283.907 340.668 283.959 340.464C284.018 340.228 284.259 340.086 284.493 340.144C284.729 340.203 284.872 340.442 284.813 340.678C284.761 340.884 279.443 361.533 263.838 380.897C263.751 381.005 263.624 381.062 263.495 381.062Z" fill="black"/>
<path d="M263.782 382.306C263.627 382.306 263.476 382.224 263.396 382.079C263.279 381.866 263.356 381.598 263.569 381.48C263.702 381.407 276.772 374.122 281.761 365.15C277.331 361.467 277.504 360.797 277.57 360.542C277.612 360.38 277.721 360.247 277.878 360.167C278.578 359.81 281.334 360.766 283.183 361.481C284.905 356.116 285.785 348.866 285.665 340.994C285.661 340.726 285.66 340.564 285.663 340.521C285.683 340.279 285.896 340.099 286.138 340.118C286.379 340.137 286.559 340.347 286.542 340.588C286.54 340.636 286.542 340.77 286.546 340.98C286.67 349.167 285.722 356.703 283.873 362.201C283.835 362.315 283.751 362.409 283.641 362.46C283.532 362.511 283.406 362.515 283.294 362.47C281.553 361.781 279.496 361.098 278.616 360.971C279.196 361.729 280.982 363.368 282.602 364.702C282.764 364.835 282.809 365.063 282.711 365.248C280.104 370.145 275.15 374.509 271.453 377.308C267.46 380.33 264.029 382.233 263.995 382.251C263.927 382.289 263.854 382.306 263.782 382.306ZM241.574 406.073C241.541 406.073 241.508 406.068 241.476 406.055L228.268 400.827C228.202 400.801 228.15 400.75 228.122 400.685C228.095 400.619 228.095 400.546 228.122 400.48L228.601 399.331C228.657 399.196 228.812 399.133 228.947 399.189C229.081 399.245 229.145 399.399 229.089 399.534L228.713 400.435L241.451 405.476C241.637 405.118 242.011 404.373 242.161 403.882C241.372 403.186 233.837 400.465 229.151 398.874C229.013 398.827 228.939 398.677 228.986 398.539C229.033 398.401 229.182 398.326 229.321 398.374C229.355 398.385 232.708 399.525 235.997 400.734C242.87 403.26 242.784 403.594 242.7 403.917C242.518 404.623 241.835 405.882 241.807 405.936C241.758 406.023 241.668 406.073 241.574 406.073ZM242.206 403.929H242.209H242.206ZM266.368 410.836C266.361 410.836 266.354 410.835 266.346 410.835L260.281 410.361C260.143 410.35 260.037 410.234 260.038 410.095C260.039 409.937 260.066 408.527 260.632 407.878C261.169 407.261 265.461 408.022 267.972 408.531C268.115 408.56 268.208 408.699 268.179 408.843C268.15 408.986 268.009 409.075 267.867 409.049C264.888 408.445 261.422 407.963 261.019 408.236C260.721 408.58 260.608 409.377 260.577 409.854L266.388 410.308C266.534 410.32 266.643 410.447 266.631 410.592C266.62 410.731 266.504 410.836 266.368 410.836ZM262.315 370.997C262.25 370.997 262.183 370.983 262.12 370.951C261.902 370.843 261.813 370.579 261.921 370.361C263.689 366.8 266.184 361.951 268.029 359.08C268.161 358.876 268.433 358.816 268.638 358.948C268.843 359.079 268.902 359.351 268.771 359.556C266.947 362.393 264.468 367.21 262.71 370.752C262.634 370.908 262.478 370.997 262.315 370.997Z" fill="black"/>
<path d="M269.668 372.589C269.647 372.589 269.625 372.588 269.603 372.585C269.362 372.549 269.196 372.326 269.231 372.085C269.895 367.597 270.671 361.635 270.599 358.726C270.593 358.483 270.785 358.281 271.028 358.275C271.264 358.254 271.473 358.461 271.479 358.704C271.553 361.676 270.771 367.691 270.103 372.214C270.071 372.432 269.883 372.589 269.668 372.589ZM286.119 312.351C285.953 312.351 285.794 312.257 285.72 312.097C285.616 311.877 285.712 311.615 285.932 311.512C288.522 310.303 291.301 310.878 291.418 310.904C291.656 310.955 291.807 311.188 291.756 311.425C291.706 311.663 291.472 311.815 291.234 311.764C291.208 311.759 288.619 311.229 286.305 312.31C286.245 312.338 286.181 312.351 286.119 312.351ZM298.937 314.348C298.767 314.348 298.604 314.248 298.533 314.082C297.854 312.514 296.009 311.58 295.991 311.571C295.773 311.462 295.684 311.198 295.793 310.981C295.901 310.763 296.164 310.674 296.383 310.782C296.47 310.826 298.533 311.865 299.342 313.732C299.438 313.956 299.336 314.215 299.112 314.311C299.055 314.336 298.996 314.348 298.937 314.348ZM286.803 332.588C286.766 332.588 286.73 332.583 286.693 332.574C286.635 332.559 280.866 331.022 280.74 326.116C280.734 325.873 280.925 325.671 281.169 325.664C281.41 325.649 281.615 325.85 281.621 326.093C281.73 330.342 286.861 331.708 286.913 331.721C287.148 331.782 287.29 332.022 287.23 332.258C287.178 332.456 286.999 332.588 286.803 332.588ZM319.131 355.844C318.493 355.844 317.903 355.704 317.375 355.419C315.777 354.557 314.968 352.496 315.097 349.616C315.224 346.803 316.229 343.521 317.927 340.376C321.464 333.823 326.972 329.91 330.205 331.653C331.803 332.514 332.612 334.575 332.482 337.456C332.356 340.269 331.351 343.55 329.652 346.696C327.954 349.843 325.761 352.484 323.478 354.134C321.913 355.266 320.423 355.844 319.131 355.844ZM328.432 331.752C325.418 331.752 321.267 335.302 318.393 340.626C316.731 343.704 315.748 346.905 315.625 349.64C315.505 352.306 316.215 354.194 317.626 354.954C319.035 355.714 321.004 355.271 323.169 353.706C325.389 352.102 327.526 349.523 329.187 346.446C330.849 343.368 331.832 340.167 331.955 337.432C332.075 334.765 331.364 332.878 329.954 332.118C329.495 331.87 328.982 331.752 328.432 331.752Z" fill="black"/>
<path d="M319.394 357.54C316.742 357.54 314.179 356.397 312.706 354.557C311.258 352.748 309.324 346.306 313.008 338.942C316.468 332.027 322.548 327.782 325.385 327.782C327.897 327.782 330.644 330.083 330.939 330.336C334.507 332.741 334.854 339.18 331.777 346.011C328.656 352.941 322.257 357.54 319.394 357.54ZM325.385 328.662C323.204 328.662 317.303 332.328 313.797 339.336C310.231 346.461 312.254 352.583 313.394 354.007C314.704 355.643 317.003 356.659 319.394 356.659C321.728 356.659 327.898 352.479 330.974 345.649C333.424 340.209 334.023 333.449 330.427 331.053C330.411 331.043 330.395 331.031 330.382 331.018C330.354 330.995 327.654 328.662 325.385 328.662Z" fill="black"/>
<path d="M311.95 358.059C311.863 358.059 311.776 358.034 311.699 357.981C311.499 357.843 311.45 357.568 311.588 357.369C311.958 356.834 312.683 355.767 313.258 354.918C313.394 354.716 313.668 354.664 313.87 354.8C314.071 354.936 314.124 355.21 313.987 355.411C313.411 356.262 312.683 357.334 312.312 357.869C312.227 357.993 312.089 358.059 311.95 358.059ZM306.066 366.842C305.985 366.842 305.904 366.82 305.83 366.773C305.625 366.643 305.564 366.371 305.694 366.166C306.522 364.862 307.563 363.28 308.787 361.462C308.924 361.261 309.198 361.207 309.399 361.343C309.601 361.479 309.654 361.753 309.518 361.955C308.297 363.765 307.261 365.341 306.438 366.638C306.355 366.77 306.212 366.842 306.066 366.842ZM307.237 374.522C306.452 374.522 305.32 374.239 304.47 373.605C303.471 372.86 303.058 371.814 303.275 370.581C303.318 370.341 303.478 369.845 304.371 368.32C304.494 368.11 304.765 368.04 304.974 368.163C305.184 368.286 305.255 368.555 305.132 368.765C304.304 370.177 304.165 370.612 304.143 370.734C303.988 371.613 304.262 372.331 304.957 372.869C305.876 373.578 307.195 373.721 307.531 373.622C307.687 373.447 308.219 372.673 309.04 371.16C309.156 370.947 309.424 370.868 309.638 370.983C309.852 371.099 309.931 371.366 309.815 371.58C309.29 372.548 308.35 374.201 307.96 374.397C307.795 374.479 307.542 374.522 307.237 374.522ZM313.532 363.782C313.466 363.782 313.4 363.767 313.337 363.736C313.119 363.628 313.03 363.364 313.138 363.146C313.439 362.539 313.733 361.944 314.013 361.373C314.12 361.155 314.384 361.065 314.602 361.171C314.821 361.279 314.911 361.542 314.803 361.76C314.523 362.332 314.229 362.928 313.927 363.536C313.85 363.692 313.694 363.782 313.532 363.782ZM284.55 340.563C278.485 340.563 274.507 334.167 274.463 334.095C274.336 333.887 274.402 333.617 274.61 333.49C274.817 333.364 275.088 333.429 275.215 333.636C275.261 333.711 279.874 341.109 286.515 339.434C294.241 337.483 299.781 327.613 301.333 313.032C301.358 312.79 301.58 312.619 301.817 312.64C302.059 312.666 302.235 312.883 302.209 313.125C299.913 334.692 290.62 339.305 286.731 340.287C285.978 340.477 285.25 340.563 284.55 340.563Z" fill="black"/>
<path d="M132.985 125.493C132.985 125.493 134.213 124.803 136.304 123.636L144.542 134.834C144.542 134.834 145.97 174.014 149.247 179.987C152.523 185.961 157.61 186.415 159.211 188.591C160.812 190.767 164.718 196.837 168.038 198.309C171.358 199.781 174.239 199.899 174.239 199.899C174.239 199.899 177.468 206.187 181.999 208.166C186.531 210.145 191.905 208.711 191.905 208.711C191.905 208.711 188.19 220.38 191.973 225.144C195.757 229.906 203.021 228.76 206.192 226.99C209.363 225.22 212.506 221.513 212.506 221.513L223.858 235.802C223.858 235.802 215.454 276.059 216.644 278.817C217.834 281.574 221.474 287.281 222.418 287.425C223.363 287.569 299.322 235.398 299.124 232.469C298.927 229.541 294.369 225.626 294.369 225.626L248.816 216.908L244.376 210.113C244.376 210.113 247.93 205.825 247.226 204.108C246.522 202.39 242.279 198.523 242.279 198.523C242.279 198.523 250.707 198.198 251.209 192.801C251.711 187.404 237.36 175.877 232.631 170.969C227.903 166.062 223.238 154.403 221.851 148.717C220.464 143.032 216.718 129.58 210.1 124.385C203.482 119.19 194.831 114.65 188.934 104.735C188.934 104.735 189.975 104.25 189.852 102.943C189.771 102.079 188.121 98.5836 187.011 96.3134C187.997 95.8633 188.728 95.5661 189.136 95.4601C190.873 95.0091 186.474 84.506 180.041 71.0792C152.718 77.3405 128.776 84.9044 113.434 93.2849C122.536 110.451 131.01 125.405 132.985 125.493Z" fill="white"/>
<path d="M187.167 210.141C185.952 210.141 184.584 209.947 183.09 209.429C177.73 207.572 174.566 201.859 173.87 200.483L169.71 199.599C164.989 198.597 161.377 193.039 158.986 189.361C158.089 187.98 156.872 187.413 155.463 186.756C153.416 185.802 151.096 184.721 149.067 181.002C145.679 174.792 143.94 136.956 143.868 135.348C143.852 134.997 144.124 134.7 144.476 134.684C144.83 134.675 145.125 134.94 145.141 135.291C145.158 135.682 146.938 174.439 150.186 180.392C152.014 183.743 154.042 184.689 156.002 185.602C157.523 186.311 158.959 186.98 160.055 188.667C162.331 192.169 165.77 197.461 169.975 198.354L174.439 199.302C174.635 199.343 174.8 199.475 174.884 199.656C174.915 199.723 178.044 206.333 183.507 208.226C187.28 209.533 190.134 208.549 191.5 207.847C191.813 207.686 192.196 207.809 192.358 208.121C192.519 208.434 192.396 208.818 192.083 208.979C191.083 209.493 189.383 210.141 187.167 210.141Z" fill="black"/>
<path d="M199.295 229.261C199.206 229.261 199.118 229.26 199.03 229.258C196.053 229.184 193.492 227.9 191.417 225.44C188.758 222.287 189.988 214.653 190.64 211.517C191.947 205.234 194.512 198.677 197.503 193.976C201.131 188.272 204.981 185.773 208.633 186.752C211.169 187.432 212.966 188.95 213.974 191.263C215.692 195.208 215.105 201.384 212.228 209.619C210.11 215.682 207.465 220.688 207.439 220.739C207.274 221.049 206.889 221.168 206.578 221.003C206.267 220.838 206.148 220.453 206.313 220.142C206.416 219.947 216.622 200.531 212.805 191.771C211.948 189.804 210.475 188.565 208.302 187.982C206.552 187.513 202.966 187.758 198.577 194.659C192.383 204.395 189.03 220.636 192.39 224.62C194.219 226.789 196.464 227.921 199.06 227.985C202.997 228.076 207.712 225.601 211.677 221.346C211.917 221.088 212.32 221.075 212.577 221.314C212.835 221.554 212.849 221.957 212.609 222.214C208.425 226.705 203.588 229.261 199.295 229.261Z" fill="black"/>
<path d="M174.6 201.012C174.268 201.013 173.988 200.755 173.965 200.419C173.214 189.529 186.069 157.311 196.995 156.335C201.807 155.906 204.08 157.72 205.141 159.316C207.412 162.734 206.635 168.791 203.063 175.519C197.992 185.071 196.88 197.065 196.869 197.185C196.838 197.535 196.525 197.795 196.178 197.763C195.827 197.732 195.569 197.423 195.6 197.073C195.611 196.95 196.748 184.699 201.937 174.923C205.236 168.708 206.057 162.997 204.08 160.02C202.815 158.117 200.469 157.303 197.108 157.604C192.814 157.987 187.261 164.546 182.252 175.149C177.755 184.669 174.87 195.025 175.236 200.332C175.26 200.682 174.996 200.986 174.644 201.011C174.629 201.012 174.615 201.012 174.6 201.012Z" fill="black"/>
<path d="M160.019 185.484C159.914 185.484 159.807 185.457 159.709 185.402C159.402 185.231 159.292 184.843 159.464 184.536C159.546 184.389 167.781 169.69 174.717 160.498C176.317 158.377 177.826 156.2 179.285 154.095C184.823 146.101 189.604 139.197 195.883 140.531C198.259 141.035 199.923 142.332 200.828 144.385C202.626 148.46 200.812 154.203 199.247 156.865C199.069 157.168 198.679 157.27 198.375 157.091C198.071 156.913 197.97 156.523 198.148 156.22C199.692 153.594 201.182 148.345 199.662 144.898C198.931 143.241 197.57 142.191 195.618 141.776C190.174 140.621 185.612 147.199 180.332 154.819C178.866 156.935 177.35 159.123 175.734 161.265C168.852 170.386 160.658 185.011 160.576 185.157C160.459 185.366 160.242 185.484 160.019 185.484Z" fill="black"/>
<path d="M152.605 169.146C152.491 169.146 152.376 169.116 152.271 169.051C151.972 168.867 151.879 168.475 152.064 168.175C152.766 167.039 169.382 140.303 179.18 137.073C182.61 135.942 185.21 136.078 186.91 137.478C189.372 139.506 188.914 143.365 188.892 143.529C188.848 143.877 188.531 144.124 188.181 144.08C187.832 144.036 187.584 143.717 187.629 143.368C187.633 143.336 188.017 140.034 186.095 138.457C184.755 137.357 182.563 137.298 179.579 138.282C170.218 141.368 153.317 168.57 153.148 168.844C153.028 169.039 152.819 169.146 152.605 169.146ZM243.036 199.155C242.895 199.155 242.755 199.152 242.614 199.146C242.263 199.131 241.99 198.833 242.006 198.482C242.021 198.131 242.317 197.865 242.67 197.874C245.132 197.986 247.616 196.997 249.167 195.301C250.148 194.228 250.602 192.999 250.446 191.839C249.956 188.213 245.189 183.871 242.036 180.997C241.644 180.64 241.274 180.302 240.934 179.988C235.757 175.184 230.411 170.224 226.891 163.997C224.036 158.946 222.443 153.172 220.903 147.589C218.096 137.418 215.445 127.811 205.803 122.15C199.638 118.53 192.983 111.056 188.486 105.424C188.267 105.149 188.311 104.748 188.587 104.529C188.861 104.31 189.263 104.355 189.482 104.63C193.912 110.178 200.451 117.532 206.449 121.052C216.536 126.975 219.381 137.282 222.131 147.25C223.651 152.76 225.222 158.456 228 163.371C231.423 169.426 236.695 174.317 241.793 179.047C242.138 179.367 242.505 179.702 242.894 180.056C246.38 183.233 251.156 187.584 251.708 191.669C251.915 193.209 251.347 194.804 250.106 196.16C248.398 198.029 245.72 199.155 243.036 199.155Z" fill="black"/>
<path d="M160.963 156.422C160.774 156.422 160.586 156.337 160.46 156.176C151.868 145.14 137.251 126.317 135.902 124.241C134.047 121.385 134.811 117.533 138.054 113.393C142.897 107.213 152.906 101.189 158.072 102.98C163.987 105.029 189.584 140.241 190.671 141.739C190.877 142.023 190.814 142.421 190.529 142.628C190.243 142.834 189.845 142.77 189.639 142.486C182.302 132.373 162.252 105.776 157.655 104.183C153.46 102.73 144.076 107.774 139.057 114.179C137.388 116.309 134.898 120.358 136.971 123.548C137.952 125.057 146.651 136.367 161.466 155.395C161.682 155.672 161.632 156.072 161.355 156.288C161.238 156.378 161.1 156.422 160.963 156.422ZM223.847 236.336C223.707 236.336 223.566 236.29 223.45 236.197C223.297 236.076 222.893 235.752 208.353 217.318C208.135 217.042 208.183 216.641 208.459 216.424C208.736 216.206 209.136 216.253 209.354 216.53C219.849 229.837 223.013 233.746 223.933 234.839L248.093 216.682C246.447 213.394 228.929 190.915 199.619 154.494C199.399 154.221 199.442 153.82 199.716 153.6C199.991 153.379 200.392 153.423 200.612 153.697C209.322 164.519 221.823 180.121 231.915 192.988C249.743 215.719 249.58 216.49 249.46 217.053C249.428 217.203 249.342 217.337 249.219 217.429L224.231 236.209C224.117 236.293 223.982 236.336 223.847 236.336ZM248.208 216.963H248.211H248.208Z" fill="black"/>
<path d="M222.182 288.044C222.13 288.044 222.089 288.036 222.049 288.027C220.639 287.728 218.982 285.274 216.331 279.559C214.69 276.021 222.347 239.697 223.225 235.567C223.299 235.223 223.637 235.002 223.981 235.076C224.325 235.149 224.545 235.487 224.472 235.831C221.188 251.272 216.387 276.652 217.487 279.024C220.292 285.069 221.616 286.487 222.196 286.742C224.238 285.875 241.988 273.938 260.795 260.775C285.811 243.266 297.704 234.156 298.448 232.851C298.833 230.788 295.553 227.598 294.098 226.408L248.714 217.544C248.369 217.476 248.144 217.142 248.211 216.797C248.279 216.452 248.614 216.229 248.959 216.294L294.498 225.189C294.599 225.208 294.693 225.252 294.773 225.316C294.829 225.361 296.163 226.428 297.436 227.885C299.235 229.944 299.992 231.718 299.686 233.158C299.591 233.604 299.414 234.433 287.372 243.333C280.78 248.203 271.525 254.822 261.309 261.97C251.947 268.52 242.39 275.087 235.089 279.988C224.091 287.369 222.649 288.044 222.182 288.044ZM222.314 286.782H222.318H222.314Z" fill="black"/>
<path d="M216.909 279.61C216.809 279.61 216.71 279.563 216.649 279.475C216.547 279.331 216.582 279.132 216.726 279.031L288.938 228.323C289.082 228.223 289.281 228.256 289.382 228.4C289.483 228.544 289.448 228.743 289.304 228.844L217.092 279.552C217.036 279.591 216.972 279.61 216.909 279.61ZM244.559 210.134C244.406 210.134 244.252 210.079 244.13 209.968C243.87 209.732 243.851 209.33 244.087 209.069C244.102 209.053 245.6 207.389 246.916 204.698C247.161 203.389 239.129 196.324 225.716 187.221C225.424 187.023 225.349 186.627 225.547 186.337C225.744 186.045 226.14 185.97 226.432 186.167C226.489 186.206 232.208 190.093 237.684 194.274C249.151 203.028 248.415 204.534 248.061 205.257C246.661 208.121 245.096 209.853 245.031 209.926C244.904 210.065 244.732 210.134 244.559 210.134ZM163.929 109.019C163.704 109.019 163.485 108.898 163.369 108.686C163.201 108.377 163.315 107.991 163.624 107.823C178.275 99.8519 186.764 95.498 188.867 94.875C189.063 94.2234 188.719 90.6494 179.407 71.2264C179.255 70.9092 179.389 70.5292 179.706 70.3771C180.024 70.2254 180.404 70.3592 180.556 70.676C191.203 92.8837 190.359 94.6992 189.999 95.4747C189.856 95.7825 189.607 95.9962 189.299 96.0761C188.06 96.3978 182.707 98.8905 164.234 108.941C164.137 108.994 164.032 109.019 163.929 109.019ZM132.987 126.129C132.977 126.129 132.967 126.129 132.959 126.129C131.486 126.063 127.822 121.907 111.812 91.5778C111.648 91.2671 111.767 90.8818 112.078 90.7179C112.389 90.5536 112.774 90.6731 112.939 90.9842C127.982 119.482 131.899 124.227 132.915 124.803L134.147 124.113C134.455 123.94 134.843 124.05 135.014 124.357C135.187 124.663 135.077 125.051 134.77 125.223L133.299 126.047C133.203 126.101 133.096 126.129 132.987 126.129Z" fill="black"/>
<path d="M171.478 114.851C171.25 114.851 171.03 114.729 170.915 114.514C170.75 114.204 170.867 113.819 171.177 113.653C185.469 106.024 188.59 104.145 189.105 103.731C189.145 103.459 189.071 102.2 186.625 97.0713C186.474 96.7541 186.609 96.3737 186.927 96.2229C187.244 96.072 187.625 96.2066 187.776 96.5238C190.787 102.838 190.569 103.957 190.128 104.509C189.915 104.776 189.471 105.332 171.777 114.776C171.682 114.827 171.579 114.851 171.478 114.851ZM142.307 128.693C142.267 128.693 142.227 128.685 142.188 128.67C142.024 128.604 141.946 128.418 142.012 128.256C142.086 128.072 143.916 123.694 151.4 117.947C159.795 111.5 166.44 111.797 166.717 111.813C166.893 111.823 167.027 111.974 167.017 112.149C167.007 112.324 166.859 112.462 166.682 112.449C166.615 112.446 159.979 112.162 151.788 118.452C144.441 124.095 142.62 128.451 142.602 128.495C142.552 128.618 142.433 128.693 142.307 128.693Z" fill="black"/>
<path d="M451.416 537.232C515.938 537.232 568.243 529.585 568.243 520.152C568.243 510.719 515.938 503.072 451.416 503.072C386.895 503.072 334.59 510.719 334.59 520.152C334.59 529.585 386.895 537.232 451.416 537.232Z" fill="#A0A1D0"/>
<path d="M411.754 524.257C411.754 524.257 467.436 524.257 467.084 524.962C466.731 525.666 458.978 531.301 461.092 531.653C463.207 532.005 504.087 524.962 504.792 522.496C505.497 520.031 480.828 508.41 479.066 509.466C477.304 510.523 475.542 515.805 472.722 515.805C469.903 515.805 427.26 514.397 424.793 515.453C422.327 516.509 411.754 524.257 411.754 524.257Z" fill="#EEB641"/>
</svg>
