<svg width="513" height="513" viewBox="0 0 513 513" fill="none" xmlns="http://www.w3.org/2000/svg">
<path d="M63.9764 468.321C63.9764 468.321 39.5433 375.901 66.0089 373.38C92.4746 370.86 110.959 420.851 114.739 392.285C118.52 363.718 32.6067 192.779 81.1322 152.833C157.169 90.2394 427.287 50.7509 461.315 103.262C495.342 155.774 453.519 468.321 453.519 468.321H63.9764Z" fill="#EDEDFE" fill-opacity="0.4"/>
<path d="M123.985 387.243L314.706 279.7C314.706 279.7 318.067 287.262 320.167 286.422C322.268 285.581 347.893 257.856 344.953 255.755C342.012 253.655 305.044 262.897 305.884 265.417C306.724 267.938 311.345 273.399 311.345 273.399L123.985 387.243ZM96.1127 301.503L252.235 220.361C252.235 220.361 255.455 227.983 257.571 227.182C259.686 226.381 285.821 199.134 282.919 196.979C280.018 194.825 242.885 203.381 243.679 205.917C244.472 208.452 248.991 213.998 248.991 213.998L96.1127 301.503ZM123.985 236.431L297.358 146.647C297.358 146.647 300.177 153.319 302.029 152.618C303.881 151.917 329.428 127.833 326.889 125.947C324.349 124.061 289.175 131.786 289.87 134.005C290.564 136.225 294.52 141.079 294.52 141.079L123.985 236.431ZM315.642 220.692L320.087 227.189L340.946 215.221C340.946 215.221 344.023 220.692 345.391 220.008C346.758 219.324 365.565 197.782 364.197 197.782C362.829 197.782 332.397 198.124 332.739 200.518C333.081 202.911 336.158 206.331 336.158 206.331L315.642 220.692ZM162.3 333.526L165.288 337.892L179.306 329.849C179.306 329.849 181.374 333.526 182.293 333.066C183.213 332.607 195.852 318.129 194.933 318.129C194.013 318.129 173.561 318.359 173.791 319.968C174.02 321.576 176.089 323.874 176.089 323.874L162.3 333.526ZM102.686 261.793L104.591 264.577L113.531 259.448C113.531 259.448 114.85 261.793 115.436 261.499C116.022 261.206 124.082 251.974 123.496 251.974C122.91 251.974 109.867 252.12 110.014 253.146C110.16 254.172 111.479 255.637 111.479 255.637L102.686 261.793ZM272.823 187.016L274.728 189.801L283.667 184.672C283.667 184.672 284.986 187.016 285.572 186.723C286.158 186.43 294.218 177.198 293.632 177.198C293.046 177.198 280.004 177.344 280.15 178.37C280.297 179.396 281.616 180.861 281.616 180.861L272.823 187.016ZM93.7383 425.046L99.1168 432.907L124.355 418.426C124.355 418.426 128.079 425.046 129.733 424.218C131.388 423.391 154.144 397.325 152.489 397.325C150.834 397.325 114.011 397.739 114.425 400.635C114.839 403.531 118.562 407.669 118.562 407.669L93.7383 425.046Z" fill="#59D090" fill-opacity="0.71"/>
<path d="M289.919 340.614C286.139 337.253 278.157 338.093 274.796 337.253C271.435 336.413 269.335 335.152 268.075 334.312C266.814 333.472 261.773 337.253 261.773 337.253L261.353 330.111C261.353 330.111 261.353 330.532 263.033 329.271C264.714 328.011 260.513 267.098 259.253 263.737C257.992 260.377 227.326 243.153 227.326 243.153L229.846 235.591C229.846 235.591 231.527 235.591 232.367 235.171C233.207 234.751 231.947 176.778 231.947 176.778C231.947 176.778 242.029 184.34 248.33 184.76C254.632 185.18 257.993 174.258 257.993 174.258C260.933 174.258 262.614 170.477 263.034 167.536C263.454 164.596 260.933 162.915 260.933 162.915L262.614 147.372C262.614 147.372 265.974 146.111 269.335 144.851C272.696 143.591 272.696 141.07 272.276 140.23C271.856 139.39 272.276 138.129 272.696 136.869C273.116 135.609 272.276 135.609 271.436 134.769C270.595 133.928 270.595 133.088 270.595 131.828C270.595 130.568 269.755 130.988 268.915 130.148C268.075 129.308 268.075 129.728 268.075 128.888C268.075 128.047 267.235 125.947 262.194 126.367C257.153 126.787 255.472 129.728 255.472 129.728C255.472 129.728 251.691 130.568 250.851 133.509C250.011 136.449 254.632 144.431 254.632 144.431L247.91 157.454C246.23 157.033 244.129 159.554 244.129 159.554C244.129 159.554 230.266 141.91 227.746 138.55C225.96 136.168 221.011 133.366 218.278 131.934L215.394 126.374C230.937 119.233 215.394 85.6254 215.394 85.6254C215.394 85.6254 217.494 86.0456 220.015 84.3652C222.535 82.6849 217.494 78.9041 217.494 78.9041C217.494 78.9041 225.896 72.6026 221.695 69.242C217.494 65.8813 206.152 71.3425 206.152 71.3425C205.312 62.5207 198.17 64.6209 191.868 70.0823C185.567 75.5434 182.206 82.6849 182.206 82.6849C182.206 82.6849 179.266 80.5844 178.005 81.0046C176.745 81.4247 179.266 84.3652 179.266 84.3652C175.065 86.0456 172.964 89.4065 173.804 91.5067C174.645 93.6072 179.686 90.2465 179.686 90.2465C178.425 97.388 184.307 107.89 184.307 107.89C176.745 109.151 184.307 117.132 187.667 118.393C191.028 119.653 192.708 115.872 192.708 115.872L193.969 125.534H191.028L190.095 131.642C180.456 132.149 154.797 135.427 151.079 137.079C147.298 138.76 136.796 148.842 136.796 148.842C136.796 148.842 133.856 148.422 130.915 151.782C127.974 155.143 129.234 157.664 129.234 157.664L121.673 172.367C121.673 172.367 115.792 173.207 112.851 176.988C112.79 177.067 112.733 177.144 112.676 177.221C108.919 176.456 104.743 177.096 100.943 178.226C98.1731 175.07 96.3547 172.998 96.3547 172.998C96.3547 172.998 93.0841 165.007 60.168 196.636L97.4184 239.955C97.4184 239.955 131.162 213.154 127.898 209.036C126.867 207.735 124.531 205.155 121.663 201.873C123.245 199.47 125.406 194.855 123.878 189.054C124.078 188.865 124.193 188.75 124.193 188.75C124.193 188.75 127.134 186.65 127.974 184.97C128.814 183.289 127.134 177.408 127.134 177.408C129.654 176.568 138.476 168.586 138.476 168.586C138.476 168.586 141.837 169.006 144.357 167.326C146.878 165.646 148.138 162.285 148.138 162.285C148.138 162.285 156.12 156.404 158.22 155.984C160.321 155.563 174.604 160.185 174.604 160.185V165.646C174.604 165.646 172.503 166.486 170.823 166.906C169.143 167.326 162.841 181.609 163.261 183.289C163.682 184.97 174.604 185.81 174.604 185.81L174.184 234.12L176.704 235.381C176.704 235.381 175.444 241.262 177.125 249.244C178.805 257.225 184.686 261.426 184.686 261.426C184.686 261.426 184.686 272.769 184.686 274.869C184.686 276.97 138.056 295.454 138.056 295.454L138.476 297.974L131.755 300.915C131.755 300.915 132.175 300.495 131.335 299.234C130.494 297.974 116.632 301.755 116.632 301.755C116.632 301.755 119.152 309.737 120.412 313.098C121.673 316.458 132.595 341.664 133.855 342.924C135.115 344.184 139.316 338.723 139.737 335.782C140.157 332.842 138.056 325.28 138.056 323.18C138.056 321.079 138.476 316.878 139.316 315.618C140.157 314.358 135.115 310.157 135.115 310.157L141.417 307.636C141.417 307.636 141.417 307.636 142.677 308.897C143.937 310.157 158.22 305.536 172.924 301.755C187.627 297.974 204.43 290.413 205.271 289.993C206.111 289.572 215.773 272.349 215.773 272.349C215.773 272.349 237.617 278.65 238.878 279.07C240.138 279.49 248.54 330.741 248.54 330.741H251.061L252.321 338.723C252.321 338.723 251.481 337.883 250.641 337.883C249.8 337.883 249.17 353.216 249.17 353.216C258.412 353.636 292.02 346.915 292.86 346.494C293.7 346.075 293.7 343.974 289.919 340.614ZM119.225 199.085C114.207 193.35 108.125 186.413 103.494 181.134C105.248 180.437 108.069 179.69 111.195 180.305C110.876 181.975 111.591 182.869 111.591 182.869C110.751 184.97 112.431 186.23 112.431 186.23C112.431 188.331 113.691 189.171 113.691 189.171C113.691 189.171 113.691 191.691 116.212 192.951C117.476 193.584 119.482 192.524 121.166 191.31C121.245 194.046 120.352 196.771 119.225 199.085Z" fill="#EDEDFE"/>
<path d="M184.48 107.883C184.48 107.883 178.179 97.3807 179.859 90.2393C179.859 90.2393 175.238 94.4402 173.978 91.4995C172.718 88.5587 179.439 84.358 179.439 84.358C179.439 84.358 176.498 81.4175 178.179 80.9973C179.859 80.5772 182.8 83.0978 182.8 83.0978C182.8 83.0978 202.964 56.212 205.485 72.1755C205.485 72.1755 218.087 67.5544 221.028 70.9153C223.969 74.276 216.827 80.1573 216.827 80.1573C216.827 80.1573 221.028 83.518 220.188 86.0386C219.347 88.5592 201.074 86.6688 196.452 84.1482C196.452 84.1482 196.873 92.97 190.991 96.7508C190.991 96.7508 194.772 107.673 194.352 108.934C193.932 110.194 190.991 111.454 190.991 111.454L188.891 107.673L184.48 107.883ZM257.156 349.015C257.156 349.015 255.055 343.554 249.594 343.554C249.594 343.554 249.765 337.373 250.94 337.943C252.115 338.513 255.055 339.773 258.416 338.933C261.777 338.093 265.978 333.892 268.078 334.732C270.179 335.572 271.859 337.253 278.58 338.093C285.302 338.933 289.083 337.673 292.443 343.134C292.443 343.134 281.521 345.655 257.156 349.015Z" fill="#160A04"/>
<path d="M205.064 141.911L208.005 144.011L215.146 143.171L215.987 139.39L217.667 141.49L216.827 144.431C216.827 144.431 216.827 151.152 212.626 153.253C212.626 153.253 213.046 168.376 207.165 174.258C201.283 180.139 195.402 178.459 191.201 180.559C187 182.66 183.64 186.02 183.22 186.02C182.799 186.02 165.576 186.02 165.156 184.34C164.736 182.66 170.197 168.797 172.297 167.536C174.398 166.276 182.169 166.066 190.151 166.906C198.133 167.746 204.854 163.965 207.165 159.975C209.62 155.735 210.315 153.043 210.315 153.043L206.955 146.322L203.959 144.518L205.064 141.911Z" fill="#C3C3E1"/>
<path d="M126.032 299.62C126.032 299.62 127.347 305.746 122.727 308.687L137.004 341.34C137.004 341.34 140.079 336.316 139.595 331.743C139.11 327.17 137.01 322.129 138.27 318.769C139.53 315.408 140.276 315.496 138.853 313.982C137.43 312.467 133.229 309.107 131.969 305.746C130.708 302.385 131.969 299.445 131.548 299.025C131.128 298.605 126.032 299.62 126.032 299.62Z" fill="#A67C52"/>
<path d="M178.175 236.011C178.175 236.011 175.654 251.554 184.056 259.116C192.458 266.678 237.408 275.08 239.928 278.44C242.449 281.801 250.43 330.952 250.43 330.952C250.43 330.952 263.873 330.532 264.293 329.271C264.714 328.011 264.714 299.025 263.453 283.481C262.193 267.938 261.773 263.317 259.673 261.217C256.312 257.856 229.426 242.733 229.426 242.733L231.297 235.331L214.513 236.221V237.061C214.513 237.061 183.426 236.641 178.175 236.011Z" fill="#160A04"/>
<path d="M138.852 296.94C138.852 296.94 185.319 278.44 186.159 275.92C186.999 273.399 186.159 262.377 186.159 262.377C186.159 262.377 205.343 269.966 218.016 272.943C218.016 272.943 209.189 288.857 206.323 291.463C201.702 295.664 149.191 311.207 143.31 310.367C143.31 310.367 140.275 305.357 138.852 296.94Z" fill="#160A04"/>
<path d="M128.05 209.261C127.019 207.96 124.683 205.38 121.815 202.098C123.746 199.167 126.537 192.942 122.438 185.287C121.728 185.891 121.027 186.506 120.431 187.23C120.395 187.274 120.355 187.311 120.316 187.352C122.258 191.352 121.086 195.803 119.377 199.31C114.36 193.575 108.278 186.638 103.646 181.359C105.366 180.676 108.112 179.943 111.165 180.495C111.356 179.452 111.691 178.476 112.333 177.589C112.384 177.52 112.438 177.452 112.49 177.384C108.821 176.723 104.782 177.355 101.096 178.452C98.3257 175.295 96.5071 173.224 96.5071 173.224C96.5071 173.224 93.2364 165.232 60.3203 196.862L97.571 240.18C97.571 240.18 131.315 213.379 128.05 209.261Z" fill="#A67C52"/>
<path d="M85.5817 207.386L81.7075 202.881C81.1134 202.19 81.1919 201.148 81.8827 200.554L87.3438 195.858C88.0348 195.264 89.0765 195.342 89.6705 196.033L93.5447 200.538C94.1388 201.229 94.0603 202.271 93.3695 202.865L87.9084 207.561C87.2174 208.155 86.1757 208.077 85.5817 207.386Z" fill="#BDCCD4"/>
<path d="M114.742 212.486L120.623 219.627C120.623 219.627 130.133 210.627 127.899 209.036C125.664 207.445 118.103 209.545 114.742 212.486Z" fill="#696978"/>
<path d="M215.577 126.769C211.607 128.284 206.037 127.756 198.94 125.181C198.667 125.082 198.527 124.78 198.625 124.508C198.724 124.235 199.026 124.094 199.298 124.193C208.557 127.553 215.023 127.344 218.517 123.573C225.887 115.619 218.368 94.013 215.951 88.6621C215.832 88.398 215.949 88.0868 216.214 87.9675C216.481 87.8426 216.789 87.9655 216.908 88.2299C218.069 90.8003 220.611 97.5853 221.921 104.866C223.579 114.078 222.692 120.612 219.287 124.287C218.267 125.388 217.029 126.215 215.577 126.769Z" fill="black"/>
<path d="M190.254 119.15C190.162 119.185 190.068 119.216 189.971 119.244C188.49 119.669 186.824 119.099 185.019 117.549C181.688 114.691 180.157 111.462 181.118 109.325C181.732 107.96 183.59 106.486 188.953 107.222C189.127 107.246 189.278 107.355 189.354 107.513L191.034 110.979C192.415 110.388 194.077 109.357 193.955 108.611C193.697 107.018 190.774 96.6611 190.745 96.5567C190.685 96.3446 190.764 96.1176 190.943 95.9883C191 95.9465 196.707 91.7219 195.898 84.2704C195.881 84.1077 195.94 83.9467 196.058 83.8338C196.177 83.7209 196.34 83.6696 196.502 83.6948C204.965 85.0178 218.824 86.1161 219.988 83.4257C220.187 82.9637 220.083 81.8475 217.139 79.5595C217.014 79.4628 216.94 79.3153 216.936 79.1575C216.932 79 216.999 78.849 217.119 78.7464C217.166 78.7058 221.827 74.6657 221.818 71.5995C221.815 70.8472 221.523 70.2342 220.923 69.7255C217.98 67.2285 209.297 70.2747 206.2 71.659C206.045 71.7329 205.849 71.7167 205.699 71.6195C205.55 71.5226 205.46 71.3561 205.46 71.1778C205.46 71.1409 205.442 67.4781 203.247 66.213C201.736 65.3422 199.493 65.7608 196.58 67.4573C187.136 72.9577 182.639 82.9109 182.595 83.0107C182.516 83.1902 182.343 83.3105 182.147 83.3221C181.952 83.3341 181.766 83.2361 181.665 83.0681C181.626 83.0043 180.65 81.4545 178.537 81.4419C178.252 81.4401 178.171 81.4999 178.17 81.5002C178.082 81.801 178.915 83.0638 179.897 84.078C180.018 84.2021 180.069 84.3773 180.035 84.5466C180.001 84.7161 179.886 84.8577 179.727 84.926C179.669 84.9508 173.95 87.4468 174.112 90.6936C174.149 91.4159 174.434 91.5529 174.527 91.5983C175.435 92.0356 177.878 90.7698 179.322 89.7315C179.5 89.6027 179.741 89.5997 179.923 89.723C180.105 89.8467 180.191 90.0708 180.138 90.2845C180.124 90.3414 178.783 96.2094 183.872 105.677C184.009 105.933 183.914 106.251 183.658 106.388C183.399 106.527 183.084 106.43 182.947 106.174C178.948 98.7359 178.768 93.4779 178.948 91.2348C177.64 92.0344 175.39 93.1789 174.072 92.5453C173.643 92.3388 173.119 91.8589 173.063 90.7467C172.9 87.4992 177.001 85.1037 178.65 84.2747C177.858 83.3706 176.837 81.9624 177.217 81.0697C177.35 80.7581 177.689 80.3869 178.543 80.3921C180.257 80.4021 181.387 81.2134 182.002 81.8339C183.271 79.3545 187.846 71.3292 196.052 66.5503C199.315 64.6486 201.914 64.2303 203.775 65.306C205.813 66.4831 206.333 69.0932 206.466 70.4045C209.064 69.3313 218.08 65.9365 221.602 68.925C222.439 69.635 222.865 70.5343 222.868 71.598C222.876 74.5398 219.534 77.9407 218.271 79.1206C220.615 81.0438 221.493 82.5918 220.952 83.843C219.215 87.8606 201.946 85.577 197.001 84.8344C197.427 91.5791 193.056 95.6295 191.851 96.6121C192.371 98.4571 194.749 106.941 194.992 108.444C195.311 110.41 191.685 111.867 190.959 112.141C190.705 112.235 190.421 112.122 190.303 111.878L188.533 108.227C185.008 107.786 182.72 108.325 182.076 109.756C181.333 111.406 182.825 114.283 185.703 116.753C187.223 118.058 188.562 118.557 189.681 118.235C191.423 117.734 192.161 115.422 192.168 115.398C192.254 115.121 192.549 114.967 192.826 115.053C193.103 115.14 193.257 115.434 193.171 115.711C193.136 115.823 192.322 118.361 190.254 119.15ZM212.674 111.014C211.883 111.316 211.223 111.427 211.168 111.435C210.882 111.481 210.613 111.286 210.567 111.001C210.521 110.714 210.713 110.445 211.001 110.398C211.024 110.395 213.259 110.018 214.147 108.786C214.838 107.827 212.368 104.168 209.684 101.327C209.485 101.117 209.494 100.784 209.705 100.585C209.915 100.385 210.248 100.395 210.447 100.606C211.479 101.697 216.547 107.251 214.999 109.4C214.422 110.2 213.48 110.707 212.674 111.014Z" fill="black"/>
<path d="M200.741 95.1154C200.638 95.1072 200.536 95.0685 200.45 94.9977C200.226 94.8135 200.193 94.4826 200.378 94.2584C202.414 91.7804 205.575 89.7002 205.708 89.613C205.951 89.4539 206.276 89.5222 206.435 89.7648C206.594 90.0075 206.526 90.333 206.284 90.4917C206.252 90.5123 203.122 92.5735 201.189 94.9251C201.076 95.0633 200.906 95.1288 200.741 95.1154ZM216.44 94.0486C216.258 94.1081 216.05 94.0656 215.905 93.9209C214.136 92.1534 211.243 91.2633 211.214 91.2543C210.937 91.1702 210.78 90.877 210.864 90.5997C210.948 90.3222 211.242 90.1657 211.519 90.2491C211.648 90.2881 214.694 91.2264 216.648 93.1781C216.853 93.3828 216.853 93.7154 216.648 93.9206C216.588 93.9809 216.516 94.0238 216.44 94.0486ZM206.561 101.556C207.112 103.637 206.756 105.536 205.767 105.797C204.778 106.058 203.529 104.583 202.977 102.502C202.426 100.42 202.782 98.521 203.771 98.2599C204.761 97.9985 206.01 99.4741 206.561 101.556ZM216.525 99.1255C217.031 101.037 216.705 102.781 215.796 103.021C214.887 103.261 213.74 101.906 213.234 99.9943C212.728 98.0826 213.054 96.3384 213.963 96.0986C214.872 95.8588 216.019 97.2138 216.525 99.1255ZM194.154 128.692C193.892 128.692 193.665 128.495 193.634 128.228L192.187 115.933C192.153 115.645 192.359 115.385 192.647 115.351C192.936 115.316 193.197 115.523 193.23 115.811L194.677 128.105C194.711 128.393 194.505 128.654 194.217 128.688C194.196 128.69 194.175 128.692 194.154 128.692Z" fill="black"/>
<path d="M212.565 143.252C211.051 141.107 204.349 132.315 192.926 127.156C192.661 127.037 192.35 127.154 192.231 127.419C192.112 127.683 192.23 127.994 192.494 128.113C201.182 132.037 207.076 138.105 209.962 141.59C208.75 140.822 207.425 140.132 206.573 140.132C205.315 140.132 204.396 142.353 203.033 146.009C202.658 147.014 202.209 148.22 201.915 148.762C200.412 147.017 194.46 137.459 190.741 131.314C190.911 130.375 191.516 126.962 191.553 126.034C191.809 125.904 192.698 125.879 193.478 125.988C193.764 126.027 194.03 125.827 194.07 125.54C194.11 125.253 193.91 124.988 193.623 124.947C193.131 124.878 191.479 124.697 190.822 125.268C190.617 125.447 190.504 125.69 190.504 125.954C190.504 126.536 190.007 129.483 189.673 131.321C189.65 131.447 189.673 131.577 189.74 131.687C189.767 131.732 192.505 136.259 195.311 140.727C201.136 150.004 201.532 150.004 201.952 150.004C202.632 150.004 202.989 149.132 204.017 146.376C204.633 144.723 205.914 141.286 206.572 141.182C207.404 141.182 209.285 142.341 210.828 143.448C211.408 143.357 211.987 143.291 212.565 143.252ZM214.135 236.858H214.139H214.135Z" fill="black"/>
<path d="M221.369 140.123C219.884 133.444 215.887 126.597 215.847 126.528C215.701 126.279 215.378 126.195 215.129 126.342C214.879 126.489 214.795 126.811 214.942 127.061C214.981 127.128 218.896 133.837 220.343 140.352C220.79 142.364 220.741 144.141 220.61 145.32C217.516 139.357 216.181 138.369 215.65 138.336C215.36 138.315 215.118 138.446 214.958 138.686C214.288 139.691 212.866 142.207 212.268 143.274C212.681 143.239 213.094 143.22 213.507 143.214C214.139 142.094 215.124 140.37 215.699 139.471C216.549 140.145 218.721 143.864 220.386 147.194C220.475 147.373 220.658 147.484 220.855 147.484C220.871 147.484 220.888 147.483 220.904 147.481C221.119 147.462 221.301 147.311 221.36 147.103C221.396 146.978 222.228 143.99 221.369 140.123ZM209.201 123.73C207.588 123.731 205.868 121.946 203.945 118.284C202.555 115.636 201.6 113.011 201.56 112.9C201.475 112.663 201.569 112.399 201.786 112.27C202.002 112.142 202.279 112.184 202.447 112.373C205.614 115.936 214.983 115.977 215.077 115.977C215.367 115.977 215.602 116.212 215.602 116.502C215.602 116.792 215.367 117.027 215.077 117.027C214.725 117.027 207.442 116.993 203.273 114.397C204.872 118.219 207.405 122.804 209.269 122.678C210.332 122.613 211.317 120.826 212.044 117.646C212.109 117.363 212.389 117.184 212.673 117.251C212.956 117.315 213.133 117.597 213.068 117.879C212.192 121.714 210.97 123.626 209.333 123.726C209.29 123.729 209.245 123.73 209.201 123.73ZM140.149 167.901C140.146 167.901 140.142 167.901 140.139 167.9C139.965 167.895 139.829 167.75 139.834 167.576C140.087 158.896 130.235 155.571 130.135 155.538C129.97 155.484 129.88 155.306 129.934 155.14C129.988 154.975 130.166 154.884 130.331 154.939C130.435 154.973 140.731 158.45 140.464 167.595C140.458 167.765 140.318 167.901 140.149 167.901Z" fill="black"/>
<path d="M139.684 169.627C138.473 169.627 137.989 169.15 137.915 169.068C137.72 168.853 137.737 168.521 137.952 168.327C138.162 168.137 138.482 168.148 138.678 168.347C138.725 168.385 139.548 169.007 142.077 168.047C145.101 166.9 147.619 163.89 147.259 161.851C146.859 159.59 145.446 155.236 140.471 151.484C135.855 148.002 133.687 149.78 133.597 149.858C133.583 149.869 133.565 149.884 133.551 149.894C133.492 149.935 127.669 154.084 129.845 157.283C130.008 157.523 129.946 157.849 129.706 158.012C129.466 158.175 129.139 158.113 128.976 157.873C126.27 153.894 132.445 149.391 132.927 149.049C133.255 148.775 135.978 146.779 141.104 150.645C146.365 154.614 147.866 159.255 148.293 161.669C148.781 164.429 145.61 167.831 142.45 169.029C141.264 169.478 140.361 169.627 139.684 169.627ZM259.086 165.991C255.667 165.991 249.446 165.131 246.621 159.29C246.545 159.133 246.61 158.945 246.767 158.869C246.923 158.794 247.113 158.859 247.188 159.016C250.969 166.834 261.245 165.238 261.348 165.22C261.515 165.193 261.682 165.308 261.71 165.479C261.738 165.651 261.622 165.813 261.45 165.842C261.419 165.847 260.488 165.991 259.086 165.991Z" fill="black"/>
<path d="M256.383 174.848C255.646 174.848 254.815 174.78 253.877 174.623C247.378 173.53 243.904 170.105 242.412 168.161C240.705 165.938 241.948 161.456 244.199 158.935C246.554 156.297 248.041 156.747 248.204 156.807C248.476 156.908 248.614 157.21 248.513 157.482C248.415 157.747 248.126 157.885 247.86 157.799C247.801 157.787 246.784 157.616 244.982 159.634C242.829 162.046 241.985 165.88 243.245 167.521C244.643 169.343 247.906 172.554 254.051 173.587C259.752 174.545 260.856 171.967 260.9 171.857C260.906 171.841 260.916 171.819 260.924 171.804C260.957 171.74 264.209 165.372 260.802 163.538C260.547 163.401 260.452 163.083 260.589 162.827C260.726 162.571 261.045 162.476 261.3 162.613C265.537 164.894 262.137 171.739 261.867 172.265C261.726 172.601 260.62 174.848 256.383 174.848ZM214.516 236.746C214.23 236.746 213.996 236.517 213.991 236.23C213.986 235.94 214.217 235.701 214.507 235.696C223.119 235.546 230.525 234.908 231.871 234.573C232.141 232.765 231.993 220.495 231.85 208.614C231.651 192.077 231.424 173.333 232.002 168.029C233.037 158.521 226.42 141.65 226.353 141.481C226.246 141.211 226.378 140.906 226.648 140.799C226.918 140.692 227.223 140.824 227.329 141.094C227.607 141.795 234.11 158.376 233.046 168.142C232.475 173.384 232.701 192.094 232.9 208.601C233.187 232.381 233.113 234.9 232.674 235.339C231.996 236.016 221.472 236.625 214.525 236.746C214.522 236.746 214.519 236.746 214.516 236.746ZM174.595 166.126C174.595 166.126 174.595 166.126 174.594 166.126C174.304 166.125 174.069 165.89 174.07 165.6L174.082 160.183C174.083 159.894 174.318 159.659 174.607 159.659C174.608 159.659 174.608 159.659 174.608 159.659C174.899 159.66 175.133 159.895 175.132 160.186L175.12 165.602C175.12 165.892 174.885 166.126 174.595 166.126Z" fill="black"/>
<path d="M204.304 237.469C201.437 237.469 198.208 237.446 194.969 237.376C175.118 236.949 174.253 235.217 173.927 234.566C173.89 234.492 173.871 234.411 173.871 234.329L174.002 188.71C174.003 188.421 174.238 188.186 174.527 188.186C174.528 188.186 174.528 188.186 174.529 188.186C174.819 188.187 175.054 188.423 175.053 188.713L174.922 234.181C176.407 236.018 195.593 236.717 213.795 236.337C213.935 231.556 215.011 193.782 214.62 174.268C214.466 166.541 214.069 159.538 213.441 153.453C213.411 153.165 213.62 152.907 213.909 152.877C214.193 152.845 214.455 153.057 214.485 153.346C215.116 159.46 215.515 166.492 215.67 174.247C216.086 195.025 214.842 236.451 214.83 236.867C214.822 237.146 214.596 237.37 214.317 237.376C214.253 237.378 209.993 237.469 204.304 237.469ZM214.305 236.851H214.309H214.305ZM212.71 143.615C212.694 143.615 212.678 143.615 212.662 143.613C212.374 143.587 212.16 143.332 212.186 143.043C213.303 130.573 212.54 126.936 212.532 126.901C212.469 126.618 212.647 126.337 212.931 126.275C213.217 126.212 213.495 126.39 213.558 126.673C213.591 126.824 214.364 130.506 213.232 143.137C213.208 143.41 212.979 143.615 212.71 143.615ZM242.952 177.145C242.729 177.145 242.523 177.003 242.451 176.779C241.863 174.93 242.083 172.208 243.108 168.689C243.189 168.411 243.481 168.251 243.759 168.332C244.038 168.413 244.198 168.705 244.116 168.983C243.151 172.298 242.928 174.814 243.452 176.461C243.54 176.737 243.387 177.032 243.111 177.12C243.058 177.137 243.004 177.145 242.952 177.145ZM247.236 159.837C247.169 159.837 247.1 159.823 247.034 159.796C246.766 159.684 246.64 159.377 246.751 159.109C249.656 152.145 253.21 145.656 253.977 144.277C253.594 143.628 252.598 141.879 251.747 139.853C250.281 136.361 250.005 133.85 250.926 132.39C252.836 129.366 258.396 128.342 261.384 127.793C262.807 127.533 264.168 128.462 264.427 129.865C264.639 131.011 264.788 132.69 263.646 134.043C262.354 135.573 259.722 136.287 255.58 136.231C255.29 136.227 255.058 135.989 255.063 135.699C255.067 135.411 255.301 135.181 255.588 135.181C255.59 135.181 255.593 135.181 255.595 135.181C259.339 135.232 261.782 134.623 262.844 133.365C263.494 132.595 263.669 131.543 263.394 130.056C263.24 129.221 262.423 128.669 261.574 128.826C258.946 129.309 253.478 130.315 251.814 132.951C250.327 135.307 253.632 141.72 255.031 143.993C255.131 144.156 255.135 144.361 255.041 144.527C255 144.598 250.954 151.76 247.72 159.513C247.637 159.715 247.442 159.837 247.236 159.837ZM263.315 144.892C262.919 144.892 262.537 144.82 262.195 144.643C261.568 144.32 261.179 143.716 261.038 142.847C260.991 142.561 261.185 142.291 261.471 142.244C261.757 142.199 262.028 142.392 262.074 142.678C262.16 143.208 262.357 143.546 262.675 143.71C263.224 143.993 264.224 143.818 265.418 143.23C268.404 141.762 270.645 139.35 270.668 139.326C270.864 139.113 271.197 139.099 271.41 139.295C271.623 139.492 271.636 139.824 271.44 140.037C271.343 140.142 269.042 142.618 265.882 144.172C265.142 144.536 264.194 144.892 263.315 144.892Z" fill="black"/>
<path d="M257.825 140.067C257.019 140.067 256.447 139.737 256.092 139.073L256.069 139.029C255.037 137.254 256.106 135.765 256.152 135.703C256.324 135.469 256.652 135.42 256.886 135.591C257.119 135.763 257.169 136.09 257 136.323C256.965 136.371 256.301 137.339 256.977 138.501L257.019 138.578C257.146 138.817 257.412 139.313 258.996 138.786C259.271 138.694 259.569 138.843 259.66 139.118C259.752 139.393 259.603 139.691 259.328 139.782C258.758 139.972 258.257 140.067 257.825 140.067Z" fill="black"/>
<path d="M260.846 143.244C260.191 143.244 259.438 143.025 258.835 142.312C257.52 140.757 258.357 139.341 258.393 139.282C258.545 139.034 258.868 138.956 259.115 139.107C259.363 139.258 259.441 139.581 259.29 139.828C259.245 139.908 258.837 140.688 259.637 141.634C260.448 142.593 261.595 142.044 261.643 142.02C261.728 141.985 266.531 140.021 270.071 135.438C270.248 135.209 270.578 135.167 270.807 135.344C271.037 135.521 271.079 135.851 270.902 136.08C267.181 140.898 262.277 142.897 262.07 142.979C261.797 143.114 261.351 143.244 260.846 143.244Z" fill="black"/>
<path d="M259.166 139.809C258.972 139.809 258.786 139.701 258.695 139.515C258.567 139.255 258.674 138.94 258.934 138.812C258.994 138.782 265.014 135.779 267.08 131.414C267.204 131.152 267.517 131.039 267.779 131.164C268.042 131.288 268.153 131.601 268.029 131.863C265.805 136.562 259.658 139.627 259.397 139.755C259.323 139.792 259.244 139.809 259.166 139.809ZM263.879 129.77C263.786 129.77 263.692 129.745 263.606 129.693C263.359 129.542 263.28 129.219 263.431 128.972L264.122 127.837C264.273 127.589 264.596 127.511 264.843 127.662C265.091 127.812 265.169 128.136 265.019 128.383L264.328 129.518C264.229 129.68 264.057 129.77 263.879 129.77Z" fill="black"/>
<path d="M260.356 165.966C260.322 165.966 260.287 165.962 260.252 165.955C259.967 165.897 259.784 165.62 259.842 165.336C261.679 156.288 262.102 147.338 262.106 147.249C262.117 147.016 262.28 146.818 262.507 146.762C264.7 146.23 267.5 145.414 269.712 143.812C270.459 143.271 271.266 142.624 271.58 141.927C271.861 141.303 271.77 140.599 271.675 139.855C271.626 139.47 271.574 139.072 271.574 138.673C271.574 138.243 271.717 137.854 271.843 137.51C271.966 137.177 272.072 136.889 272.039 136.63C271.995 136.292 271.718 135.997 271.396 135.655C271.187 135.433 270.971 135.204 270.793 134.932C270.418 134.361 270.283 133.709 270.152 133.079C270.004 132.369 269.877 131.756 269.449 131.377C269.287 131.233 269.069 131.117 268.839 130.994C268.436 130.779 267.98 130.535 267.69 130.065C267.483 129.727 267.419 129.362 267.363 129.04C267.345 128.938 267.327 128.835 267.304 128.736C266.687 126.05 262.615 126.661 261.805 126.81C259.264 127.279 256.704 128.675 254.199 130.96C253.985 131.155 253.653 131.14 253.457 130.925C253.262 130.711 253.277 130.379 253.491 130.183C256.144 127.765 258.877 126.282 261.614 125.777C264.438 125.256 267.684 125.698 268.328 128.501C268.355 128.619 268.376 128.739 268.397 128.859C268.441 129.111 268.483 129.348 268.585 129.514C268.726 129.742 269.008 129.893 269.334 130.068C269.608 130.214 269.891 130.365 270.145 130.591C270.834 131.2 271.018 132.085 271.18 132.865C271.296 133.424 271.406 133.952 271.672 134.357C271.799 134.551 271.974 134.738 272.161 134.936C272.551 135.351 272.994 135.821 273.08 136.497C273.146 137.011 272.978 137.468 272.829 137.872C272.724 138.159 272.624 138.43 272.624 138.672C272.624 139.005 272.669 139.352 272.716 139.721C272.821 140.537 272.94 141.463 272.537 142.358C272.123 143.278 271.23 144.009 270.327 144.663C268.096 146.278 265.358 147.132 263.134 147.689C263.03 149.525 262.505 157.495 260.87 165.544C260.82 165.794 260.601 165.966 260.356 165.966ZM248.596 185.506C245.308 185.506 240.565 183.325 234.453 178.996C234.217 178.828 234.161 178.501 234.328 178.264C234.496 178.028 234.823 177.972 235.06 178.139C241.975 183.036 247.152 185.152 250.029 184.257C252.904 183.364 255.389 180.034 257.415 174.361C257.513 174.088 257.811 173.945 258.087 174.043C258.36 174.141 258.502 174.441 258.404 174.714C256.261 180.715 253.548 184.263 250.341 185.26C249.814 185.423 249.232 185.506 248.596 185.506ZM243.902 160.213C243.746 160.213 243.591 160.144 243.487 160.011C240.125 155.691 233.717 147.382 228.587 140.266C225.191 135.554 217.734 132.13 217.66 132.096C217.396 131.976 217.279 131.665 217.399 131.401C217.519 131.137 217.831 131.02 218.094 131.14C218.41 131.284 225.881 134.716 229.439 139.652C234.559 146.755 240.957 155.052 244.316 159.365C244.494 159.594 244.453 159.924 244.224 160.102C244.128 160.177 244.015 160.213 243.902 160.213ZM261.445 335.47C261.167 335.47 260.935 335.253 260.921 334.972L260.692 330.683C260.677 330.393 260.899 330.146 261.189 330.131C261.475 330.116 261.726 330.337 261.741 330.627L261.969 334.917C261.985 335.206 261.763 335.454 261.473 335.469C261.463 335.469 261.454 335.47 261.445 335.47ZM252.295 338.868C252.041 338.868 251.818 338.684 251.777 338.425L250.62 331.073C250.575 330.787 250.77 330.518 251.057 330.473C251.338 330.426 251.612 330.623 251.657 330.91L252.814 338.262C252.859 338.548 252.664 338.817 252.377 338.862C252.35 338.866 252.322 338.868 252.295 338.868Z" fill="black"/>
<path d="M249.323 353.901C249.197 353.901 249.075 353.857 248.98 353.774C248.873 353.682 248.808 353.551 248.799 353.41C248.797 353.379 248.596 350.221 248.76 346.962C248.774 346.673 249.02 346.449 249.31 346.464C249.6 346.479 249.823 346.725 249.808 347.015C249.687 349.424 249.769 351.78 249.818 352.806C268.444 351.175 284.881 347.811 292.819 346.187C292.985 346.153 293.03 345.821 293.002 345.506C292.797 343.262 289.334 338.803 282.253 338.659C275.366 338.519 270.93 337.468 268.691 335.447C267.591 334.455 266.064 335.335 263.661 336.854C260.521 338.84 256.612 341.31 251.91 338.964C251.683 338.851 250.988 338.506 250.828 338.556C250.567 338.744 250.413 340.459 250.234 342.444L250.177 343.074C250.19 343.074 250.204 343.074 250.218 343.074C251.764 343.074 255.467 343.588 257.455 348.216C260.227 347.903 277.025 345.951 288.567 343.438C288.848 343.376 289.13 343.556 289.192 343.84C289.253 344.123 289.074 344.403 288.79 344.465C276.185 347.209 257.365 349.284 257.176 349.304C256.945 349.334 256.717 349.195 256.63 348.974C254.475 343.46 249.876 344.12 249.683 344.153C249.523 344.176 249.359 344.128 249.24 344.017C249.122 343.906 249.061 343.747 249.075 343.586L249.188 342.35C249.477 339.136 249.575 338.053 250.32 337.637C250.883 337.324 251.528 337.6 252.379 338.025C256.551 340.105 260.03 337.907 263.1 335.966C265.438 334.487 267.648 333.092 269.394 334.668C271.437 336.512 275.65 337.474 282.274 337.609C290.106 337.768 293.806 342.769 294.047 345.411C294.152 346.566 293.59 347.101 293.029 347.216C284.995 348.86 268.277 352.282 249.367 353.899C249.353 353.901 249.337 353.901 249.323 353.901Z" fill="black"/>
<path d="M268.811 342.269H268.811C268.521 342.269 268.286 342.034 268.286 341.743C268.288 339.668 268.825 337.692 269.885 335.87C270.031 335.619 270.353 335.534 270.603 335.681C270.854 335.826 270.939 336.147 270.793 336.398C269.828 338.058 269.338 339.856 269.336 341.744C269.336 342.034 269.101 342.269 268.811 342.269ZM272.964 341.634C272.964 341.634 272.964 341.634 272.963 341.634C272.673 341.634 272.438 341.398 272.438 341.108C272.439 339.748 272.675 338.414 273.14 337.143C273.24 336.871 273.542 336.731 273.814 336.831C274.086 336.93 274.226 337.232 274.126 337.504C273.704 338.659 273.49 339.871 273.489 341.109C273.489 341.398 273.254 341.634 272.964 341.634ZM251.895 331.32C250.208 331.32 248.908 331.28 248.523 331.266C248.273 331.257 248.065 331.075 248.023 330.828C244.688 310.988 239.387 280.911 238.451 279.375C237.87 278.827 231.786 277.206 225.346 275.491C213.205 272.258 196.578 267.829 186.978 263.159C174.582 257.128 175.478 242 176.439 235.775C176.483 235.489 176.753 235.294 177.038 235.337C177.325 235.381 177.521 235.649 177.477 235.936C176.552 241.93 175.67 256.49 187.437 262.215C196.946 266.841 213.516 271.254 225.615 274.477C235.506 277.111 238.75 278.024 239.299 278.755C240.551 280.425 247.428 320.968 248.987 330.231C253.79 330.371 261.01 330.184 262.467 329.094C263.127 327.98 263.227 316.448 262.112 297.115C261.093 279.429 259.641 265.72 258.582 263.779C256.575 260.1 229.246 244.792 218.885 239.204C218.63 239.066 218.535 238.748 218.672 238.493C218.81 238.237 219.127 238.142 219.384 238.28C220.916 239.106 256.938 258.572 259.504 263.276C260.843 265.731 262.321 282.273 263.191 297.577C263.654 305.735 263.941 313.383 263.999 319.112C264.099 329.134 263.483 329.627 263.152 329.892C261.629 331.11 255.753 331.32 251.895 331.32ZM137.295 309.644C137.071 309.644 136.864 309.5 136.794 309.275C136.708 308.998 136.863 308.704 137.14 308.618L141.242 307.344C141.519 307.257 141.813 307.413 141.899 307.69C141.985 307.967 141.83 308.261 141.553 308.347L137.451 309.621C137.399 309.637 137.347 309.644 137.295 309.644ZM131.756 301.608C131.552 301.608 131.358 301.489 131.273 301.29C131.159 301.023 131.283 300.714 131.549 300.6L138.393 297.675C138.66 297.561 138.968 297.685 139.082 297.951C139.196 298.218 139.072 298.527 138.805 298.641L131.962 301.566C131.895 301.595 131.825 301.608 131.756 301.608Z" fill="black"/>
<path d="M134.348 343.444C133.725 343.444 133.33 343.123 133.149 342.749C129.584 335.363 122.166 319.994 115.959 302.061C115.912 301.928 115.922 301.781 115.985 301.655C116.048 301.529 116.159 301.433 116.293 301.39C116.323 301.38 119.335 300.41 122.534 299.77C122.817 299.713 123.095 299.897 123.152 300.182C123.209 300.466 123.025 300.743 122.74 300.8C120.375 301.273 118.112 301.931 117.129 302.23C123.279 319.885 130.573 334.995 134.095 342.293C134.169 342.445 134.502 342.408 134.8 342.303C136.925 341.554 140.399 337.103 138.801 330.203C137.247 323.492 137.177 318.934 138.587 316.268C139.28 314.958 138.051 313.693 135.989 311.737C133.294 309.179 129.94 305.997 131.061 300.863C131.114 300.615 131.279 299.862 131.191 299.714C130.944 299.507 129.246 299.778 127.278 300.092L126.651 300.191C127.033 301.662 127.487 305.418 123.451 308.508C124.436 311.118 130.45 326.924 135.717 337.497C135.846 337.756 135.74 338.072 135.481 338.201C135.221 338.33 134.906 338.225 134.777 337.965C129.024 326.419 122.395 308.683 122.328 308.505C122.246 308.282 122.322 308.032 122.515 307.894C124.558 306.434 125.675 304.653 125.837 302.598C125.956 301.077 125.491 299.988 125.486 299.978C125.421 299.828 125.429 299.657 125.507 299.515C125.585 299.372 125.725 299.274 125.886 299.249L127.113 299.054C130.298 298.547 131.371 298.375 131.958 298.996C132.399 299.463 132.29 300.157 132.087 301.087C131.093 305.642 134.079 308.475 136.713 310.975C138.72 312.879 140.616 314.678 139.516 316.758C138.229 319.192 138.33 323.512 139.825 329.966C141.592 337.598 137.652 342.412 135.149 343.293C134.849 343.398 134.582 343.444 134.348 343.444Z" fill="black"/>
<path d="M138.327 318.56C138.279 318.56 138.23 318.554 138.182 318.54C136.335 318.011 134.471 317.978 132.642 318.44C132.361 318.512 132.075 318.34 132.004 318.059C131.933 317.778 132.103 317.492 132.385 317.422C134.396 316.914 136.443 316.95 138.471 317.53C138.75 317.61 138.911 317.901 138.831 318.18C138.765 318.41 138.555 318.56 138.327 318.56ZM134.148 322.326C133.913 322.326 133.699 322.167 133.639 321.929C133.568 321.648 133.739 321.362 134.019 321.292C135.339 320.958 136.69 320.859 138.035 320.999C138.323 321.028 138.533 321.286 138.503 321.575C138.474 321.863 138.215 322.076 137.927 322.043C136.705 321.917 135.476 322.006 134.277 322.31C134.233 322.321 134.19 322.326 134.148 322.326ZM227.517 243.572C227.457 243.572 227.395 243.562 227.336 243.54C227.064 243.439 226.924 243.137 227.025 242.865C228.41 239.112 228.93 237.025 228.935 237.004C229.005 236.723 229.29 236.55 229.571 236.62C229.852 236.689 230.024 236.974 229.955 237.255C229.934 237.342 229.418 239.413 228.01 243.229C227.932 243.441 227.731 243.572 227.517 243.572ZM143.554 309.754C142.983 309.754 142.767 309.652 142.615 309.537C140.38 307.844 137.962 296.931 137.693 295.692C137.639 295.444 137.771 295.192 138.006 295.096C155.745 287.767 182.504 276.445 184.246 274.988C184.398 274.35 184.317 271.099 184.251 268.47C184.208 266.748 184.164 264.966 184.164 263.527C184.164 263.237 184.399 263.002 184.689 263.002C184.979 263.002 185.214 263.237 185.214 263.527C185.214 264.953 185.258 266.728 185.301 268.444C185.442 274.092 185.41 275.233 185.097 275.619C183.783 277.246 147.228 292.42 138.813 295.898C139.855 300.588 141.808 307.537 143.221 308.678C144.57 309.095 157.405 306.053 174.525 300.824C191.947 295.501 204.394 290.746 205.499 288.993C209.054 283.346 212.335 277.664 215.249 272.104C215.384 271.848 215.702 271.749 215.958 271.883C216.215 272.018 216.314 272.335 216.18 272.592C213.252 278.176 209.957 283.883 206.387 289.552C203.82 293.629 159.279 307.054 146.464 309.39C144.987 309.659 144.105 309.754 143.554 309.754ZM120.857 190.81C120.314 191.379 119.393 191.962 117.832 192.367C117.087 192.561 116.475 192.485 115.963 192.135C114.769 191.318 114.517 189.291 114.515 189.272C114.491 189.058 114.338 188.881 114.131 188.825C112.653 188.423 112.755 186.027 112.756 186.004C112.765 185.845 112.701 185.69 112.582 185.584C111.063 184.228 111.743 183.323 111.82 183.23C111.946 183.089 111.987 182.891 111.926 182.711C111.427 181.239 111.522 179.903 112.217 178.628C112.224 178.615 112.231 178.602 112.239 178.589C114.433 174.638 121.631 172.914 121.703 172.897C121.867 172.859 122.001 172.745 122.068 172.59C122.12 172.465 126.112 163.073 131.423 155.821C131.086 155.689 130.754 155.546 130.428 155.39C125.552 162.086 121.882 170.364 121.203 171.94C119.818 172.299 113.519 174.124 111.321 178.077C111.313 178.093 111.304 178.109 111.295 178.124C110.503 179.579 110.354 181.152 110.853 182.804C110.548 183.361 110.113 184.665 111.704 186.202C111.714 186.939 111.889 189.037 113.525 189.724C113.663 190.444 114.109 192.136 115.367 192.999C116.134 193.525 117.052 193.654 118.096 193.383C119.374 193.052 120.297 192.601 120.965 192.112C120.927 191.678 120.89 191.244 120.857 190.81Z" fill="black"/>
<path d="M119.357 187.914C120.394 186.013 122.97 184.387 123.319 184.173C123.567 184.021 123.89 184.099 124.041 184.346C124.193 184.593 124.116 184.915 123.869 185.068C122.834 185.704 120.118 187.705 119.982 189.297C119.958 189.585 119.704 189.8 119.415 189.776C119.126 189.751 118.912 189.497 118.936 189.208C118.973 188.771 119.127 188.336 119.357 187.914ZM138.661 147.618C138.523 147.618 138.384 147.563 138.281 147.455C138.081 147.246 138.089 146.913 138.299 146.713C142.457 142.745 147.94 137.77 150.439 136.604C156.755 133.657 188.348 131.198 189.689 131.095C189.972 131.069 190.231 131.289 190.253 131.578C190.275 131.867 190.059 132.12 189.77 132.142C189.443 132.167 157.027 134.688 150.883 137.556C149.007 138.431 144.906 141.861 139.023 147.473C138.922 147.57 138.791 147.618 138.661 147.618ZM147.949 162.842C147.789 162.842 147.631 162.769 147.528 162.631C147.355 162.399 147.403 162.07 147.635 161.896C151.573 158.959 156.68 155.458 158.643 155.458C161.212 155.458 175.819 159.913 176.44 160.102C176.717 160.187 176.874 160.481 176.789 160.758C176.704 161.035 176.413 161.192 176.133 161.107C170.928 159.516 160.574 156.509 158.643 156.509C157.393 156.509 153.415 158.896 148.262 162.738C148.169 162.809 148.059 162.842 147.949 162.842ZM125.836 187.895C125.683 187.895 125.531 187.829 125.427 187.702C125.245 187.476 125.279 187.146 125.504 186.963C126.544 186.118 127.257 185.048 127.461 184.026C127.853 182.07 126.642 177.591 126.629 177.546C126.567 177.317 126.666 177.074 126.872 176.954C130.176 175.027 136.291 169.53 139.642 166.426C139.855 166.229 140.186 166.242 140.384 166.454C140.581 166.667 140.568 166.999 140.355 167.196C136.366 170.892 131.008 175.641 127.743 177.656C128.041 178.835 128.862 182.379 128.491 184.232C128.147 185.954 126.887 187.193 126.166 187.778C126.069 187.857 125.951 187.895 125.836 187.895ZM110.299 229.479C110.152 229.479 110.006 229.417 109.902 229.298C109.712 229.079 109.735 228.747 109.954 228.557C110.696 227.913 111.446 227.257 112.196 226.594C112.414 226.402 112.746 226.423 112.937 226.64C113.13 226.857 113.109 227.189 112.892 227.381C112.139 228.046 111.387 228.704 110.643 229.35C110.544 229.436 110.421 229.479 110.299 229.479Z" fill="black"/>
<path d="M97.2836 240.321C97.1356 240.321 96.9889 240.259 96.8853 240.138L59.6348 196.82C59.4519 196.607 59.4683 196.288 59.6728 196.095C70.0623 186.298 88.5072 170.099 95.2783 171.676C96.273 171.907 96.6685 172.462 96.7975 172.705C98.0693 174.154 123.784 203.445 128.298 208.694C129.325 209.888 128.938 212.698 116.734 223.92C116.521 224.117 116.188 224.103 115.992 223.889C115.796 223.676 115.81 223.344 116.023 223.147C128.417 211.75 127.759 209.678 127.502 209.378C122.9 204.027 96.2307 173.651 95.9619 173.345C95.9198 173.297 95.8867 173.242 95.8647 173.182C95.8634 173.182 95.6825 172.818 94.9402 172.677C92.7223 172.254 84.9644 173.747 60.7583 196.515L97.3513 239.07C98.4384 238.199 101.657 235.604 105.575 232.301C105.797 232.114 106.128 232.142 106.315 232.364C106.502 232.586 106.474 232.917 106.252 233.104C101.42 237.178 97.6476 240.178 97.6101 240.207C97.5137 240.284 97.3983 240.321 97.2836 240.321Z" fill="black"/>
<path d="M93.0876 230.408C92.9498 230.408 92.8123 230.354 92.7092 230.247C92.5081 230.038 92.5145 229.705 92.7236 229.504C112.659 210.328 121.754 207.171 125.87 207.897C127.704 208.221 128.27 209.278 128.328 209.397C128.455 209.658 128.348 209.972 128.087 210.1C127.83 210.227 127.518 210.122 127.388 209.867C127.364 209.823 126.962 209.13 125.598 208.917C122.402 208.417 113.967 210.526 93.4515 230.261C93.3497 230.359 93.2186 230.408 93.0876 230.408Z" fill="black"/>
<path d="M120.728 219.648C120.639 219.648 120.551 219.61 120.488 219.538L114.76 212.876C114.646 212.744 114.661 212.545 114.793 212.432C114.925 212.319 115.125 212.333 115.238 212.465L120.966 219.127C121.08 219.259 121.065 219.458 120.933 219.571C120.873 219.622 120.8 219.648 120.728 219.648ZM113.46 211.452C113.455 211.452 113.449 211.452 113.444 211.452C113.409 211.451 109.859 211.335 105.317 210.542C101.109 209.807 95.156 208.323 90.6868 205.424C90.4433 205.266 90.3741 204.941 90.5318 204.697C90.6896 204.454 91.0153 204.385 91.2582 204.542C99.5427 209.916 113.338 210.398 113.476 210.402C113.766 210.411 113.994 210.653 113.985 210.943C113.976 211.228 113.743 211.452 113.46 211.452ZM85.1117 198.513C84.896 198.513 84.6936 198.379 84.6169 198.164C81.9663 190.725 85.4467 180.677 87.066 176.702C87.1753 176.433 87.4823 176.304 87.7506 176.414C88.0192 176.524 88.1482 176.83 88.0389 177.099C86.465 180.961 83.0772 190.713 85.6065 197.812C85.7037 198.085 85.5611 198.385 85.288 198.483C85.2295 198.503 85.1702 198.513 85.1117 198.513Z" fill="black"/>
<path d="M86.759 208.228C85.9954 208.228 85.2367 207.908 84.7008 207.285L81.8004 203.912C81.3279 203.363 81.0978 202.663 81.1524 201.94C81.2068 201.218 81.5392 200.56 82.0887 200.088L86.7354 196.092C87.8694 195.117 89.5844 195.247 90.5598 196.38L93.4601 199.753C93.9325 200.302 94.1626 201.003 94.108 201.725C94.0536 202.447 93.7214 203.105 93.172 203.578L88.5253 207.574C88.0143 208.012 87.3849 208.228 86.759 208.228ZM85.497 206.6C86.0944 207.295 87.1458 207.374 87.8404 206.777L92.4872 202.781C92.8234 202.492 93.0274 202.089 93.0607 201.646C93.094 201.203 92.953 200.774 92.6636 200.438L89.7634 197.065C89.1657 196.37 88.1141 196.291 87.42 196.888L82.7733 200.884C82.4367 201.174 82.2331 201.577 82.1995 202.02C82.1664 202.462 82.3072 202.891 82.5965 203.228L85.497 206.6Z" fill="black"/>
<path d="M89.117 206.132C89.0282 206.132 88.9403 206.095 88.8779 206.022L83.6738 199.971C83.5604 199.839 83.5753 199.64 83.7074 199.526C83.839 199.413 84.0385 199.428 84.1517 199.56L89.3558 205.612C89.4692 205.744 89.4543 205.943 89.3222 206.056C89.2629 206.107 89.1896 206.132 89.117 206.132ZM120.303 196.978C120.241 196.978 120.178 196.967 120.117 196.943C119.846 196.84 119.709 196.537 119.812 196.266C120.841 193.557 120.831 190.582 119.783 187.889C119.678 187.618 119.812 187.314 120.082 187.209C120.354 187.104 120.657 187.238 120.762 187.508C121.904 190.443 121.915 193.686 120.794 196.639C120.714 196.848 120.515 196.978 120.303 196.978ZM103.618 181.668C103.423 181.668 103.236 181.559 103.145 181.371C103.019 181.11 103.128 180.796 103.389 180.67C105.183 179.803 107.19 179.366 109.191 179.411C109.481 179.418 109.71 179.658 109.704 179.948C109.698 180.238 109.455 180.472 109.168 180.461C107.335 180.424 105.491 180.82 103.847 181.615C103.773 181.651 103.695 181.668 103.618 181.668ZM112.397 177.811C112.354 177.811 112.31 177.806 112.267 177.795C109.946 177.206 107.483 177.161 105.146 177.666C104.863 177.728 104.584 177.547 104.522 177.263C104.461 176.98 104.641 176.7 104.925 176.639C107.419 176.101 110.047 176.148 112.525 176.777C112.806 176.848 112.976 177.134 112.905 177.415C112.845 177.653 112.631 177.811 112.397 177.811Z" fill="black"/>
<path d="M121.689 202.436C121.587 202.436 121.484 202.406 121.393 202.344C121.154 202.18 121.092 201.853 121.256 201.614C124.525 196.845 124.877 190.708 122.176 185.598C122.04 185.342 122.139 185.024 122.395 184.888C122.651 184.753 122.969 184.851 123.104 185.107C125.988 190.563 125.612 197.115 122.123 202.208C122.021 202.356 121.856 202.436 121.689 202.436ZM86.598 206.079C85.2339 206.079 82.6379 202.108 82.1313 201.313C82.0379 201.166 82.0813 200.971 82.228 200.878C82.3749 200.785 82.5694 200.827 82.663 200.974C83.8457 202.833 85.8485 205.449 86.598 205.449C87.377 205.449 90.376 202.801 92.2564 200.921C92.3795 200.798 92.5788 200.798 92.7019 200.921C92.825 201.044 92.825 201.243 92.7019 201.366C91.915 202.153 87.9215 206.079 86.598 206.079ZM90.9715 232.941C90.9703 232.941 90.9692 232.941 90.9677 232.941C89.2291 232.92 88.5189 231.121 88.3863 230.173C88.3622 230.001 88.4822 229.842 88.6543 229.818C88.8244 229.792 88.9855 229.913 89.0103 230.085C89.0234 230.175 89.3446 232.291 90.9756 232.311C91.1496 232.313 91.2888 232.456 91.2868 232.63C91.2845 232.803 91.1439 232.941 90.9715 232.941ZM96.0128 238.823C96.0115 238.823 96.0102 238.823 96.0089 238.823C94.2704 238.801 93.5601 237.002 93.4275 236.054C93.4034 235.882 93.5232 235.723 93.6953 235.699C93.8667 235.675 94.0267 235.794 94.0513 235.967C94.0644 236.057 94.3856 238.172 96.0166 238.193C96.1906 238.195 96.3298 238.338 96.3278 238.512C96.3255 238.684 96.1852 238.823 96.0128 238.823Z" fill="black"/>
<path d="M63.6665 201.015C63.6652 201.015 63.6639 201.015 63.6626 201.015C61.9241 200.993 61.2138 199.194 61.0812 198.246C61.0571 198.074 61.1769 197.915 61.349 197.891C61.5188 197.866 61.6801 197.986 61.705 198.159C61.7181 198.249 62.0392 200.364 63.6703 200.384C63.8442 200.387 63.9835 200.529 63.9815 200.703C63.9791 200.876 63.8386 201.015 63.6665 201.015Z" fill="black"/>
<path d="M68.7056 206.896C68.7043 206.896 68.7033 206.896 68.7018 206.896C66.9632 206.874 66.2529 205.076 66.1203 204.128C66.096 203.956 66.216 203.797 66.3881 203.772C66.5592 203.747 66.7195 203.868 66.7441 204.04C66.7572 204.13 67.0786 206.246 68.7094 206.266C68.8834 206.268 69.0226 206.411 69.0206 206.585C69.0185 206.757 68.878 206.896 68.7056 206.896Z" fill="black"/>
<path d="M212.456 153.895C212.115 153.895 211.882 153.779 211.639 153.632C211.416 153.497 211.185 153.358 210.523 153.358C210.347 153.358 210.183 153.27 210.086 153.124C208.764 151.142 205.792 146.38 206.725 144.98L207.565 143.72C207.638 143.611 207.748 143.533 207.875 143.501C208.592 143.322 214.938 141.802 216.775 143.64C217.386 144.25 217.512 145.335 217.151 146.863C216.554 149.393 214.457 153.335 213.21 153.751C212.902 153.853 212.66 153.895 212.456 153.895ZM210.81 152.316C211.565 152.361 211.931 152.581 212.181 152.733C212.396 152.862 212.454 152.896 212.877 152.755C213.447 152.541 215.553 149.293 216.164 146.467C216.385 145.446 216.337 144.687 216.033 144.382C214.991 143.339 210.839 143.87 208.325 144.472L207.599 145.562C207.289 146.105 208.778 149.226 210.81 152.316Z" fill="black"/>
<path d="M181.328 186.335C181.323 186.335 181.319 186.335 181.314 186.335C178.613 186.264 165.053 185.821 163.313 184.081C162.923 183.691 162.82 183.027 162.988 181.991C163.655 177.882 169.054 167.415 171.011 166.436C172.447 165.718 178.017 163.501 189.384 165.126C197.13 166.232 206.925 162.853 210.125 152.819C210.213 152.543 210.509 152.391 210.785 152.479C211.061 152.567 211.214 152.863 211.125 153.139C208.752 160.58 200.887 167.83 189.236 166.165C178.169 164.585 172.848 166.692 171.481 167.376C170.145 168.043 164.709 177.941 164.025 182.159C163.866 183.136 164.054 183.336 164.056 183.338C164.644 183.926 169.788 184.968 181.091 185.278C184.805 180.953 190.935 178.13 199.315 176.889C204.908 176.06 208.025 170.235 209.654 165.494C211.453 160.26 211.888 155.152 211.892 155.101C211.916 154.812 212.174 154.596 212.458 154.62C212.747 154.644 212.962 154.897 212.939 155.186C212.934 155.238 212.492 160.46 210.654 165.816C208.182 173.022 204.314 177.21 199.47 177.928C191.227 179.149 185.259 181.914 181.732 186.146C181.632 186.266 181.483 186.335 181.328 186.335Z" fill="black"/>
<path d="M216.826 145.067C216.772 145.067 216.717 145.058 216.662 145.041C216.387 144.95 216.236 144.653 216.327 144.378C216.616 143.499 216.835 142.353 216.977 140.972C217.006 140.684 217.262 140.474 217.553 140.504C217.841 140.534 218.051 140.791 218.021 141.08C217.872 142.536 217.638 143.755 217.325 144.706C217.252 144.927 217.047 145.067 216.826 145.067Z" fill="black"/>
<path d="M215.088 143.405C215.042 143.405 214.994 143.395 214.95 143.373C214.793 143.296 214.729 143.107 214.806 142.951C215.059 142.434 215.672 141.046 215.879 139.334C215.9 139.161 216.06 139.04 216.23 139.059C216.402 139.08 216.525 139.237 216.505 139.41C216.286 141.217 215.639 142.683 215.371 143.229C215.316 143.34 215.204 143.405 215.088 143.405Z" fill="black"/>
<path d="M208.214 144.116C208.193 144.116 208.172 144.114 208.151 144.11C207.375 143.954 206.372 143.42 205.169 142.522C205.03 142.418 205.001 142.22 205.106 142.081C205.21 141.942 205.407 141.913 205.547 142.017C206.657 142.847 207.601 143.357 208.275 143.492C208.446 143.526 208.556 143.692 208.522 143.863C208.492 144.013 208.36 144.116 208.214 144.116Z" fill="black"/>
<path d="M206.856 146.497C206.78 146.497 206.702 146.48 206.629 146.444C206.158 146.217 205.212 145.717 204.163 144.916C203.933 144.74 203.889 144.411 204.065 144.18C204.241 143.95 204.571 143.906 204.801 144.081C205.775 144.826 206.65 145.289 207.085 145.498C207.346 145.624 207.456 145.938 207.33 146.199C207.239 146.387 207.052 146.497 206.856 146.497Z" fill="black"/>
<path d="M463.836 468.846H57.6774C57.3873 468.846 57.1523 468.611 57.1523 468.321C57.1523 468.031 57.3876 467.796 57.6774 467.796H463.836C464.126 467.796 464.361 468.031 464.361 468.321C464.361 468.611 464.126 468.846 463.836 468.846Z" fill="black"/>
<path d="M376.106 468.321L376.247 251.764C376.247 251.764 355.242 254.705 355.242 251.344C355.242 247.983 394.311 183.289 403.973 187.49C413.635 191.691 458.165 246.723 453.123 248.403C448.082 250.084 434.219 250.084 434.219 250.084L443.729 468.321H376.106V468.321Z" fill="#C3C3E1" fill-opacity="0.19"/>
<path d="M442.36 437.406C442.081 437.406 441.848 437.186 441.836 436.904L441.485 428.851C441.472 428.561 441.697 428.316 441.987 428.303C442.284 428.302 442.521 428.516 442.534 428.805L442.885 436.858C442.898 437.148 442.673 437.393 442.383 437.405C442.376 437.406 442.368 437.406 442.36 437.406Z" fill="black"/>
<path d="M443.73 468.846H376.108C375.968 468.846 375.835 468.791 375.736 468.692C375.638 468.594 375.582 468.46 375.582 468.321L375.723 252.366C372.21 252.835 357.779 254.606 355.222 252.382C354.806 252.02 354.719 251.618 354.719 251.344C354.719 247.961 385.518 197.166 399.141 188.234C401.249 186.851 402.899 186.451 404.183 187.009C413.338 190.989 454.346 240.976 454.044 247.788C454.011 248.55 453.558 248.813 453.291 248.902C448.741 250.418 437.43 250.588 434.77 250.607L442.174 420.557C442.187 420.846 441.962 421.092 441.673 421.104C441.392 421.115 441.138 420.892 441.125 420.602L433.696 250.107C433.69 249.964 433.743 249.824 433.842 249.721C433.941 249.617 434.078 249.559 434.221 249.559C434.359 249.559 448.057 249.539 452.959 247.905C452.964 247.905 453.071 247.737 452.898 247.081C451.845 243.094 442.723 230.16 430.718 215.627C418.238 200.52 407.658 189.665 403.765 187.972C402.888 187.59 401.605 187.922 399.954 188.96C392.244 193.807 379.644 211.893 372.82 222.243C363.166 236.885 355.821 249.992 355.769 251.346C355.769 251.381 355.769 251.466 355.911 251.59C357.722 253.165 369.022 252.246 376.176 251.244C376.327 251.223 376.479 251.269 376.593 251.368C376.708 251.468 376.774 251.612 376.774 251.765L376.633 467.796H443.182L442.209 445.467C442.196 445.178 442.421 444.932 442.71 444.92C442.994 444.905 443.246 445.132 443.258 445.421L444.255 468.298C444.261 468.441 444.209 468.581 444.11 468.684C444.01 468.788 443.873 468.846 443.73 468.846Z" fill="black"/>
<path d="M299.162 355.107C298.742 350.066 235.309 355.107 229.847 355.107C224.523 355.107 229.473 462.919 229.725 468.321H299.163C299.183 463.043 299.572 360.019 299.162 355.107Z" fill="#C3C3E1" fill-opacity="0.19"/>
<path d="M299.161 468.741H229.723C229.499 468.741 229.314 468.565 229.303 468.341C229.199 466.089 226.739 412.817 226.986 380.37C226.988 380.139 227.176 379.953 227.406 379.953C227.408 379.953 227.408 379.953 227.41 379.953C227.641 379.955 227.828 380.144 227.826 380.377C227.588 411.704 229.875 462.473 230.124 467.901H298.743C298.775 459.495 299.14 359.919 298.742 355.142C298.699 354.621 296.952 352.953 276.245 353.347C263.703 353.586 248.996 354.458 239.264 355.035C234.443 355.32 230.96 355.527 229.846 355.527C229.768 355.552 229.013 355.959 228.469 362.176C228.449 362.407 228.243 362.582 228.014 362.557C227.783 362.537 227.612 362.334 227.632 362.102C228.202 355.585 229.033 354.686 229.846 354.686C230.935 354.686 234.408 354.481 239.214 354.196C289.008 351.245 299.358 352.411 299.579 355.072C299.982 359.907 299.624 457.24 299.582 468.323C299.581 468.554 299.393 468.741 299.161 468.741Z" fill="black"/>
<path d="M227.49 374.611C227.487 374.611 227.485 374.611 227.481 374.611C227.249 374.605 227.065 374.414 227.07 374.181C227.117 372.011 227.178 370.01 227.253 368.235C227.263 368.003 227.479 367.83 227.691 367.833C227.923 367.843 228.103 368.038 228.093 368.27C228.018 370.04 227.957 372.035 227.911 374.199C227.905 374.428 227.718 374.611 227.49 374.611Z" fill="black"/>
<path d="M369.945 300.495C364.904 298.394 305.251 297.134 305.671 302.595C306.083 307.941 303.676 461.849 303.574 468.321H370.009C370.008 468.321 374.986 302.595 369.945 300.495Z" fill="#C3C3E1" fill-opacity="0.19"/>
<path d="M370.006 468.846H303.572C303.431 468.846 303.296 468.79 303.198 468.69C303.099 468.59 303.045 468.454 303.047 468.313C303.15 461.767 305.552 307.927 305.146 302.636C305.118 302.279 305.231 301.749 305.923 301.249C309.747 298.481 329.788 298.176 338.419 298.176C338.475 298.176 338.529 298.176 338.583 298.176C351.659 298.182 367.443 298.885 370.145 300.01C371.186 300.444 373.624 301.46 372.39 385.204C371.783 426.425 370.544 467.923 370.531 468.337C370.523 468.621 370.29 468.846 370.006 468.846ZM304.105 467.796H369.497C369.639 462.951 370.752 424.533 371.327 386.101C371.686 362.079 371.768 342.753 371.57 328.66C371.24 305.121 370.171 301.437 369.711 300.967C367.352 300.028 353.143 299.232 338.583 299.226C338.519 299.226 338.454 299.226 338.39 299.226C320.928 299.226 309.028 300.299 306.539 302.099C306.404 302.197 306.18 302.386 306.193 302.555C306.592 307.751 304.399 449.027 304.105 467.796ZM369.741 300.98H369.745H369.741Z" fill="black"/>
<path d="M151.289 439.965C150.869 434.924 87.4351 439.965 81.974 439.965C80.1918 439.965 79.5608 452.045 79.5195 468.321H151.475C151.469 453.114 151.42 441.534 151.289 439.965Z" fill="#C3C3E1" fill-opacity="0.19"/>
<path d="M95.3108 439.556C95.1454 439.556 95.0063 439.427 94.9966 439.259C94.9869 439.085 95.1192 438.936 95.2929 438.926C96.9273 438.83 98.6615 438.73 100.469 438.629C100.641 438.618 100.791 438.752 100.801 438.926C100.811 439.1 100.678 439.249 100.504 439.258C98.6976 439.36 96.9634 439.46 95.3298 439.555C95.3236 439.556 95.317 439.556 95.3108 439.556Z" fill="black"/>
<path d="M151.474 468.636H79.5181C79.4345 468.636 79.354 468.603 79.295 468.543C79.236 468.484 79.2026 468.404 79.2031 468.32C79.2762 439.65 81.1659 439.65 81.9726 439.65C82.8506 439.65 85.177 439.522 89.1625 439.288C89.3321 439.274 89.4854 439.41 89.4957 439.584C89.506 439.758 89.3734 439.907 89.1995 439.917C85.2019 440.152 82.8662 440.28 81.9726 440.28C81.8733 440.28 80.984 440.498 80.4066 448.063C80.0527 452.703 79.8603 459.412 79.8339 468.006H151.159C151.151 450.796 151.089 441.371 150.974 439.991C150.927 439.434 149.362 438.132 135.858 438.044C128.483 437.997 118.585 438.303 105.608 438.981C105.434 438.99 105.286 438.857 105.277 438.683C105.268 438.509 105.401 438.361 105.575 438.352C146.077 436.233 151.448 438.087 151.602 439.938C151.719 441.344 151.782 450.893 151.789 468.321C151.789 468.404 151.756 468.484 151.697 468.544C151.637 468.603 151.557 468.636 151.474 468.636Z" fill="black"/>
<path d="M222.073 385.353C217.032 383.252 157.379 381.992 157.799 387.453C158.002 390.091 157.519 428.901 156.965 468.321H224.02C224.609 427.205 224.559 386.389 222.073 385.353Z" fill="#C3C3E1" fill-opacity="0.19"/>
<path d="M224.018 468.636H156.963C156.879 468.636 156.798 468.603 156.739 468.542C156.68 468.482 156.647 468.401 156.648 468.317C157.361 417.594 157.65 389.64 157.483 387.478C157.45 387.037 157.682 386.633 158.175 386.277C161.974 383.528 182.196 383.227 190.712 383.244C205.68 383.25 219.803 384.066 222.193 385.062C223.012 385.404 225.505 386.442 224.334 468.325C224.331 468.498 224.191 468.636 224.018 468.636ZM157.283 468.006H223.708C224.043 444.448 224.103 425.583 223.885 411.936C223.516 388.908 222.409 385.877 221.95 385.644C219.662 384.691 205.357 383.88 190.711 383.874C190.648 383.874 190.583 383.874 190.52 383.874C173.013 383.874 161.067 384.962 158.544 386.787C158.241 387.006 158.096 387.222 158.112 387.429C158.282 389.637 158.003 416.746 157.283 468.006Z" fill="black"/>
<path d="M430.907 107.359C425.667 104.56 419.526 111.518 419.526 111.518C419.526 111.518 418.915 109.508 418.057 107.837C417.198 106.166 408.931 103.233 395.404 103.214C381.876 103.196 377.654 108.956 377.654 108.956L377.791 113.744C377.791 113.744 371.896 112.548 370.272 117.608C368.647 122.667 382.653 135.536 382.653 135.536L386.789 144.817C386.789 144.817 385.366 145.337 385.48 148.024C385.593 150.712 391.827 152.155 391.827 152.155L392.705 152.984L396.001 156.097C396.805 157.112 397.523 158.32 397.831 159.637C398.637 163.083 398.534 167.169 392.775 170.797L387.835 171.105C387.835 171.105 386.911 178.761 387.431 180.184C387.951 181.606 406.787 182.911 406.787 182.911L416.339 180.537L417.46 171.939C417.436 171.84 416.323 171.726 414.597 171.606C412.155 170.426 404.644 166.469 404.246 162.255C404.054 160.23 405.2 157.416 406.638 154.774C406.807 154.756 410.571 148.966 410.571 148.966C414.885 151.607 419.717 147.856 420.032 146.004C420.348 144.152 419.06 141.646 416.554 142.934C414.047 144.222 412.963 144.99 412.963 144.99C414.453 142.957 416.236 136.972 416.236 136.972C416.236 136.972 426.734 125.134 429.714 121.068C432.694 117.002 436.147 110.158 430.907 107.359ZM379.985 126.029C379.985 126.029 374.631 120.543 378.56 118.734L379.985 126.029ZM418.989 127.53C418.989 127.53 420.094 121.048 419.685 114.499C419.685 114.499 422.665 110.433 425.376 112.419C428.086 114.406 422.307 123.713 418.989 127.53Z" fill="white"/>
<path d="M433.092 107.184C428.692 104.197 424.024 107.484 420.62 111.209C420.411 109.957 420.101 108.995 419.66 108.491C417.107 105.579 410.286 104.226 397.944 103.233C385.603 102.24 380.566 106.403 379.572 107.758C378.579 109.113 379.484 114.985 380.57 122.031C381.656 129.077 384.957 138.787 387.872 144.048C390.466 148.732 395.063 154.055 396.934 155.455C398.252 157.031 399.863 159.591 399.796 162.639C399.685 167.766 394.762 170.929 394.762 170.929L415.269 171.375C415.269 171.375 407.318 166.589 405.939 163.496C404.561 160.402 407.749 155.36 407.749 155.36C409.242 153.422 410.783 151.05 412.243 148.568C416.089 150.768 423.823 147.061 420.426 142.558C419.311 141.08 416.327 144.162 414.576 144.385C416.47 140.81 418.042 137.386 418.91 135.053C426.986 125.881 440.15 111.975 433.092 107.184ZM427.325 112.702C428.897 114.818 424.919 120.643 420.408 126.964C420.816 122.967 421.111 117.978 420.914 114.13C423.065 111.908 425.462 110.195 427.325 112.702Z" fill="#FEC246"/>
<path d="M387.837 171.104C387.837 171.104 386.33 179.924 387.853 180.505C389.375 181.086 407.127 183.159 407.127 183.159L416.341 180.536C416.341 180.536 418.455 172.19 416.967 171.62C415.48 171.051 387.837 171.104 387.837 171.104Z" fill="#A67C52"/>
<path d="M391.722 172.91L401.479 173.81C401.479 173.81 402.338 175.482 403.851 175.549L403.716 178.575C403.716 178.575 402.203 178.508 401.548 180.112L391.204 179.302C391.204 179.302 391.859 177.698 389.668 177.134L389.745 175.117C389.745 175.116 391.655 174.423 391.722 172.91Z" fill="#BDCCD4"/>
<path d="M391.058 151.287C391.058 151.287 387.603 150.101 386.745 148.43C385.886 146.759 386.998 145.102 386.998 145.102L391.058 151.287ZM371.536 118.014C370.657 122.057 382.108 133.824 382.108 133.824L382.219 133.906L379.285 123.432C379.285 123.432 378.426 121.761 377.996 120.925C377.567 120.09 378.741 119.909 378.741 119.909L377.791 113.744C377.791 113.743 372.416 113.971 371.536 118.014Z" fill="#FEC246"/>
<path d="M417.687 171.237C416.945 170.692 413.39 170.733 411.896 170.776C411.607 170.784 411.379 171.025 411.387 171.316C411.395 171.605 411.637 171.834 411.927 171.826C413.989 171.767 416.444 171.84 417.004 172.055C417.285 173.064 416.328 179.112 415.883 179.914C415.15 180.472 408.488 182.117 407.002 182.346C405.738 182.521 389.555 180.577 387.836 180.058C387.477 178.995 387.673 172.651 388.093 171.316C389.082 171.286 392.714 171.363 395.004 171.424C395.293 171.432 395.535 171.204 395.544 170.913C395.551 170.623 395.322 170.382 395.033 170.375C393.916 170.345 388.315 170.199 387.712 170.292C387.254 170.363 387.129 170.871 387.062 171.145C386.731 172.5 386.167 180.167 387.168 180.901C388.085 181.573 406.171 183.537 407.162 183.384C407.246 183.371 415.946 181.608 416.719 180.553C417.218 179.872 417.773 176.119 417.796 175.96C418.411 171.767 417.94 171.422 417.687 171.237Z" fill="black"/>
<path d="M407.404 181.538C407.344 181.621 407.244 181.672 407.134 181.667C406.96 181.658 406.826 181.51 406.835 181.336L407.316 171.928C407.326 171.754 407.474 171.62 407.647 171.629C407.821 171.638 407.955 171.786 407.946 171.96L407.465 181.368C407.461 181.432 407.439 181.49 407.404 181.538ZM407.611 154.606C407.439 154.84 407.111 154.891 406.877 154.72C406.643 154.548 406.592 154.22 406.764 153.986C407.982 152.323 409.129 150.618 410.172 148.917C410.321 148.676 410.647 148.593 410.894 148.744C411.141 148.895 411.219 149.219 411.067 149.466C410.009 151.191 408.846 152.92 407.611 154.606ZM414.598 142.929C414.452 143.128 414.182 143.202 413.951 143.094C413.688 142.971 413.576 142.657 413.699 142.395C414.604 140.473 415.409 138.505 416.095 136.549C416.19 136.274 416.49 136.131 416.764 136.227C417.037 136.322 417.182 136.622 417.086 136.896C416.389 138.886 415.569 140.887 414.649 142.842C414.635 142.873 414.617 142.902 414.598 142.929ZM419.522 127.145C419.409 127.298 419.217 127.385 419.016 127.353C418.729 127.308 418.534 127.039 418.579 126.752C419.094 123.503 419.301 120.252 419.194 117.092C419.185 116.802 419.412 116.559 419.701 116.549C419.991 116.539 420.234 116.766 420.244 117.056C420.352 120.284 420.141 123.601 419.617 126.917C419.603 127.002 419.569 127.079 419.522 127.145ZM398.085 159.509C398.018 159.602 397.92 159.673 397.801 159.705C397.521 159.782 397.232 159.617 397.156 159.337C396.876 158.314 396.491 157.524 396.15 157.275C394.418 156.006 379.171 143.875 377.177 109.28C377.173 109.212 377.182 109.144 377.204 109.079C377.303 108.792 379.832 102.056 399.329 102.688C417.138 103.265 418.735 107.204 418.858 107.652C418.867 107.677 419.289 108.944 419.671 111.216C419.719 111.502 419.526 111.773 419.241 111.821C418.955 111.869 418.684 111.676 418.636 111.39C418.269 109.209 417.858 107.971 417.854 107.959C417.839 107.918 416.263 104.288 399.295 103.738C381.881 103.173 378.596 108.61 378.232 109.344C380.228 143.364 395.081 155.19 396.77 156.428C397.471 156.941 397.917 158.143 398.168 159.06C398.213 159.22 398.177 159.384 398.085 159.509Z" fill="black"/>
<path d="M380.274 126.249C380.24 126.294 380.199 126.335 380.151 126.369C379.913 126.535 379.586 126.477 379.42 126.239C377.489 123.476 375.822 121.089 376.785 119.562C377.059 119.129 377.811 118.703 378.237 118.484C378.495 118.352 378.812 118.454 378.944 118.711C379.076 118.97 378.974 119.286 378.717 119.418C378.008 119.782 377.731 120.043 377.672 120.123C377.083 121.059 378.782 123.492 380.28 125.639C380.413 125.827 380.403 126.073 380.274 126.249ZM389.551 151.503C389.427 151.673 389.207 151.757 388.991 151.7C387.051 151.179 385.582 150.045 385.063 148.666C384.781 147.916 384.645 146.721 385.6 145.29C385.82 144.967 386.114 144.706 386.488 144.511C386.745 144.376 387.063 144.476 387.197 144.733C387.331 144.99 387.232 145.307 386.974 145.442C386.758 145.555 386.59 145.696 386.473 145.874C385.905 146.724 385.761 147.54 386.046 148.296C386.44 149.343 387.673 150.259 389.263 150.686C389.543 150.761 389.71 151.049 389.634 151.329C389.618 151.393 389.589 151.452 389.551 151.503Z" fill="black"/>
<path d="M380.972 134.005C380.955 134.027 380.937 134.049 380.917 134.069C380.711 134.273 380.378 134.271 380.174 134.065C375.174 129.013 369.468 122.631 369.736 118.085C369.817 116.707 370.427 115.556 371.55 114.66C372.811 113.654 374.226 113.155 375.754 113.177C376.045 113.181 376.276 113.42 376.272 113.71C376.268 113.999 376.03 114.231 375.739 114.227C374.46 114.209 373.271 114.631 372.204 115.481C371.312 116.192 370.848 117.064 370.784 118.146C370.538 122.325 376.452 128.811 380.921 133.326C381.105 133.512 381.121 133.801 380.972 134.005ZM419.607 147.528C418.095 149.591 414.632 150.752 411.905 150.076C409.807 149.555 408.534 148.064 408.321 145.876C407.944 142.02 412.889 135.107 417.672 128.422C422.011 122.356 426.929 115.481 425.483 113.534C424.988 112.868 424.454 112.532 423.852 112.507C422.09 112.434 419.909 114.909 418.157 116.897C416.565 118.704 415.514 119.898 414.558 119.693C414.277 119.633 413.9 119.422 413.696 118.763C413.654 118.626 413.669 118.478 413.739 118.352C413.979 117.922 419.694 107.797 426.341 106.222C428.349 105.745 430.241 106.098 431.966 107.269C433.238 108.133 433.977 109.317 434.161 110.789C434.904 116.729 426.416 126.297 419.596 133.985C415.983 138.058 412.245 142.273 412.387 143.452C412.446 143.944 412.579 144.265 412.76 144.355C413.208 144.575 414.344 143.903 415.257 143.363C416.755 142.477 418.453 141.473 419.425 142.762C420.572 144.283 420.682 145.911 419.733 147.347C419.693 147.408 419.651 147.469 419.607 147.528ZM414.781 118.647C414.797 118.67 414.806 118.679 414.806 118.679C415.186 118.681 416.5 117.19 417.369 116.203C419.269 114.047 421.633 111.364 423.896 111.458C424.822 111.497 425.639 111.985 426.326 112.908C428.229 115.47 423.732 121.755 418.526 129.033C414.074 135.257 409.027 142.311 409.366 145.775C409.58 147.967 411.003 148.77 412.158 149.056C414.532 149.645 417.666 148.578 418.857 146.768C419.561 145.702 419.471 144.567 418.587 143.395C418.209 142.895 417.145 143.467 415.792 144.267C414.486 145.04 413.253 145.769 412.295 145.297C411.763 145.034 411.452 144.472 411.344 143.578C411.154 142.002 413.773 138.966 418.81 133.289C425.137 126.156 433.802 116.388 433.119 110.919C432.972 109.744 432.402 108.834 431.376 108.138C429.905 107.14 428.293 106.838 426.583 107.244C420.892 108.593 415.651 117.164 414.781 118.647ZM403.97 178.761C403.916 178.834 403.832 178.883 403.736 178.889C403.666 178.894 402.026 179.017 401.799 180.345C401.771 180.508 401.622 180.621 401.458 180.605L391.174 179.615C391.087 179.607 391.007 179.563 390.954 179.493C390.901 179.424 390.879 179.335 390.894 179.248C390.904 179.185 391.129 177.674 389.507 177.255C389.369 177.22 389.272 177.096 389.27 176.954L389.25 175.145C389.249 174.978 389.378 174.839 389.545 174.827C389.612 174.822 391.242 174.68 391.408 172.881C391.416 172.798 391.457 172.721 391.521 172.668C391.585 172.614 391.668 172.588 391.751 172.596L401.508 173.496C401.635 173.508 401.743 173.596 401.78 173.718C401.803 173.791 402.348 175.499 403.892 175.464C403.98 175.462 404.065 175.497 404.126 175.561C404.187 175.625 404.219 175.711 404.213 175.799L404.03 178.595C404.026 178.657 404.004 178.714 403.97 178.761ZM401.552 179.344C402.032 178.689 402.834 178.389 403.418 178.293L403.563 176.079C402.285 175.936 401.536 174.842 401.248 174.105L391.992 173.251C391.729 174.676 390.639 175.259 389.884 175.414L389.898 176.715C391.219 177.162 391.552 178.268 391.544 179.017L401.246 179.952C401.318 179.722 401.423 179.519 401.552 179.344ZM392.326 171.23C392.127 171.23 391.937 171.116 391.849 170.924C391.727 170.661 391.843 170.349 392.105 170.227C392.143 170.21 395.875 168.454 397.331 165.139C398.766 161.87 396.449 157.677 396.426 157.635C396.284 157.382 396.374 157.062 396.626 156.92C396.879 156.778 397.199 156.868 397.341 157.121C397.448 157.311 399.936 161.818 398.292 165.561C396.674 169.247 392.713 171.104 392.545 171.181C392.474 171.214 392.399 171.23 392.326 171.23ZM413.713 171.539C413.653 171.539 413.592 171.529 413.533 171.507C413.217 171.393 405.768 168.635 404.219 163.536C402.937 159.313 406.643 154.187 406.802 153.971C406.973 153.737 407.301 153.685 407.536 153.857C407.77 154.028 407.82 154.357 407.649 154.591C407.614 154.64 404.095 159.512 405.224 163.23C406.62 167.826 413.82 170.494 413.892 170.52C414.165 170.619 414.305 170.921 414.206 171.193C414.129 171.407 413.927 171.539 413.713 171.539Z" fill="black"/>
<path d="M414.052 171.787C414.048 171.787 414.044 171.787 414.04 171.787L393.533 171.342C393.243 171.336 393.013 171.095 393.02 170.805C393.026 170.515 393.267 170.287 393.556 170.292L414.063 170.737C414.353 170.744 414.583 170.984 414.576 171.274C414.57 171.56 414.336 171.787 414.052 171.787Z" fill="black"/>
</svg>
