<svg width="200" height="200" viewBox="0 0 200 200" fill="none" xmlns="http://www.w3.org/2000/svg">
<path d="M145.977 104.629C145.898 91.3086 151.934 81.2695 164.121 73.8672C157.305 64.1016 146.992 58.7305 133.398 57.6953C120.527 56.6797 106.445 65.1953 101.289 65.1953C95.8398 65.1953 83.3789 58.0469 73.5742 58.0469C53.3398 58.3594 31.8359 74.1797 31.8359 106.367C31.8359 115.879 33.5742 125.703 37.0508 135.82C41.6992 149.141 58.457 181.777 75.9375 181.25C85.0781 181.035 91.543 174.766 103.437 174.766C114.98 174.766 120.957 181.25 131.152 181.25C148.789 180.996 163.945 151.328 168.359 137.969C144.707 126.816 145.977 105.312 145.977 104.629ZM125.449 45.0586C135.352 33.3008 134.453 22.5977 134.16 18.75C125.41 19.2578 115.293 24.707 109.531 31.4063C103.184 38.5938 99.4531 47.4805 100.254 57.5C109.707 58.2227 118.34 53.3594 125.449 45.0586Z" fill="#222222"/>
</svg>
