<svg width="256" height="242" viewBox="0 0 256 242" fill="none" xmlns="http://www.w3.org/2000/svg">
<g clip-path="url(#clip0_1152_3269)">
<path d="M85.3421 0.003H161.095L82.4561 233C81.648 235.394 80.1094 237.475 78.0568 238.949C76.0042 240.423 73.541 241.216 71.0141 241.216H12.0591C10.1447 241.216 8.25789 240.76 6.55464 239.886C4.85139 239.012 3.38065 237.745 2.26404 236.19C1.14743 234.635 0.417034 232.837 0.133249 230.944C-0.150536 229.051 0.0204453 227.117 0.632054 225.303L73.8971 8.219C74.705 5.82382 76.2439 3.74243 78.2971 2.26797C80.3503 0.793515 82.8143 0.000283873 85.3421 0V0.003Z" fill="url(#paint0_linear_1152_3269)"/>
<path d="M195.421 156.282H75.2953C74.1786 156.281 73.0875 156.616 72.1641 157.244C71.2406 157.872 70.5277 158.764 70.1181 159.802C69.7084 160.841 69.6211 161.979 69.8675 163.069C70.1138 164.158 70.6825 165.148 71.4993 165.909L148.689 237.956C150.937 240.052 153.896 241.217 156.969 241.216H224.989L195.421 156.282Z" fill="#0078D4"/>
<path d="M85.343 0.00301779C82.7877 -0.00677932 80.2961 0.800775 78.2324 2.30771C76.1686 3.81465 74.6408 5.94201 73.872 8.37902L0.723027 225.105C0.069877 226.926 -0.135143 228.877 0.125308 230.794C0.38576 232.711 1.10402 234.536 2.21934 236.117C3.33465 237.697 4.81421 238.986 6.53285 239.874C8.25149 240.761 10.1587 241.222 12.093 241.217H72.568C74.8205 240.815 76.9257 239.822 78.6687 238.339C80.4118 236.857 81.7301 234.939 82.489 232.78L97.077 189.789L149.182 238.389C151.366 240.195 154.105 241.194 156.939 241.217H224.705L194.984 156.282L108.341 156.302L161.37 0.00301779H85.343Z" fill="url(#paint1_linear_1152_3269)"/>
<path d="M182.099 8.20699C181.292 5.81572 179.755 3.73786 177.705 2.26607C175.655 0.794294 173.195 0.00276809 170.671 0.00299077H86.2461C91.4211 0.00299077 96.0191 3.30399 97.6741 8.20699L170.941 225.3C171.554 227.114 171.725 229.049 171.442 230.943C171.159 232.837 170.428 234.636 169.311 236.192C168.195 237.748 166.723 239.015 165.02 239.89C163.316 240.764 161.428 241.22 159.513 241.22H243.942C245.857 241.219 247.744 240.763 249.448 239.888C251.151 239.014 252.622 237.746 253.738 236.191C254.855 234.635 255.585 232.836 255.868 230.942C256.151 229.048 255.98 227.114 255.367 225.3L182.098 8.20699H182.099Z" fill="url(#paint2_linear_1152_3269)"/>
</g>
<defs>
<linearGradient id="paint0_linear_1152_3269" x1="95.001" y1="17.8765" x2="20.8113" y2="237.055" gradientUnits="userSpaceOnUse">
<stop stop-color="#114A8B"/>
<stop offset="1" stop-color="#0669BC"/>
</linearGradient>
<linearGradient id="paint1_linear_1152_3269" x1="134.198" y1="126.189" x2="118.16" y2="131.612" gradientUnits="userSpaceOnUse">
<stop stop-opacity="0.3"/>
<stop offset="0.071" stop-opacity="0.2"/>
<stop offset="0.321" stop-opacity="0.1"/>
<stop offset="0.623" stop-opacity="0.05"/>
<stop offset="1" stop-opacity="0"/>
</linearGradient>
<linearGradient id="paint2_linear_1152_3269" x1="149.529" y1="11.099" x2="230.502" y2="226.829" gradientUnits="userSpaceOnUse">
<stop stop-color="#3CCBF4"/>
<stop offset="1" stop-color="#2892DF"/>
</linearGradient>
<clipPath id="clip0_1152_3269">
<rect width="256" height="242" fill="white"/>
</clipPath>
</defs>
</svg>
