<svg width="200" height="200" viewBox="0 0 200 200" fill="none" xmlns="http://www.w3.org/2000/svg">
<g clip-path="url(#clip0_1152_4256)">
<path d="M136.1 151.431V142.156L135.906 142.256C133.819 143.268 131.548 143.845 129.231 143.95C126.827 144.141 124.437 143.433 122.525 141.963C121.153 140.913 120.131 139.473 119.594 137.831C119.009 136.03 118.942 134.1 119.4 132.263C119.825 130.375 120.862 128.713 122.362 127.513C123.705 126.413 125.329 125.714 127.05 125.494C130.101 125.174 133.179 125.751 135.906 127.156L136.1 127.256V117.944L135.675 117.844C132.953 116.974 130.098 116.6 127.244 116.738C124.637 116.8 122.069 117.388 119.725 118.463C117.329 119.539 115.222 121.167 113.575 123.213C111.039 126.402 109.629 130.34 109.565 134.414C109.5 138.489 110.785 142.47 113.219 145.738C115.694 148.894 119.144 151.144 123.019 152.05C127.113 153.049 131.403 152.902 135.419 151.625L136.1 151.431ZM44.4688 151.431V142.156L44.275 142.256C42.1895 143.272 39.9175 143.848 37.6 143.95C35.1956 144.141 32.8059 143.433 30.8937 141.963C29.5307 140.905 28.5109 139.467 27.9625 137.831C27.3774 136.03 27.3102 134.1 27.7687 132.263C28.1937 130.375 29.2312 128.713 30.7312 127.513C32.0735 126.413 33.6979 125.714 35.4187 125.494C38.4697 125.174 41.5478 125.751 44.275 127.156L44.4688 127.256V117.944L44.0438 117.844C41.3225 116.972 38.4665 116.597 35.6125 116.738C33.0062 116.8 30.4688 117.388 28.0938 118.463C25.708 119.556 23.6042 121.18 21.9438 123.213C19.4149 126.405 18.0094 130.342 17.945 134.415C17.8806 138.487 19.1609 142.467 21.5875 145.738C24.0312 148.894 27.5125 151.144 31.3875 152.05C35.4816 153.048 39.7714 152.901 43.7875 151.625L44.4688 151.431ZM77.1813 143.75L77.15 151.725L77.7062 151.825C79.5625 152.15 81.3875 152.381 83.2375 152.544C84.8625 152.675 86.525 152.706 88.15 152.644C89.7125 152.513 91.2438 152.219 92.7375 151.763C94.4938 151.275 96.0875 150.394 97.4875 149.225C98.725 148.15 99.7 146.781 100.256 145.256C101.263 142.65 101.231 139.819 100.194 137.25C99.6768 135.908 98.8248 134.72 97.7188 133.8C96.6667 132.845 95.4251 132.123 94.075 131.681L88.05 129.438C87.3351 129.133 86.7568 128.577 86.425 127.875C86.2898 127.588 86.2249 127.272 86.2358 126.955C86.2467 126.638 86.333 126.327 86.4875 126.05C86.7929 125.54 87.2315 125.123 87.7563 124.844C88.4375 124.519 89.1562 124.325 89.9062 124.225C91.175 124.063 92.475 124.063 93.75 124.288C95.25 124.45 96.7125 124.713 98.175 125.069L98.5 125.131V117.775L97.9125 117.644C96.4193 117.302 94.9088 117.041 93.3875 116.863C91.4121 116.59 89.4094 116.579 87.4313 116.831C84.9355 117.064 82.5607 118.015 80.5938 119.569C79.2662 120.622 78.2525 122.018 77.6625 123.606C76.8185 126.031 76.8185 128.669 77.6625 131.094C78.1188 132.331 78.8375 133.406 79.7812 134.281C80.5938 135.063 81.5062 135.713 82.5188 136.238C83.8187 136.956 85.2188 137.475 86.65 137.863C87.1063 138.025 87.5938 138.156 88.05 138.319L88.7688 138.581L88.9625 138.681C89.6684 138.915 90.3133 139.304 90.85 139.819C91.2368 140.161 91.5277 140.598 91.6937 141.088C91.8251 141.524 91.8251 141.989 91.6937 142.425C91.4684 143.135 90.9781 143.73 90.325 144.088C89.6062 144.444 88.825 144.706 88.0125 144.806C86.8385 144.989 85.6482 145.043 84.4625 144.969C82.0873 144.796 79.7334 144.403 77.4313 143.794L77.1813 143.75ZM56.5438 152.019H65.3V117.319H56.5438V152.019ZM157.875 127.569C159.755 126.063 162.153 125.361 164.549 125.614C166.944 125.868 169.142 127.057 170.665 128.923C172.188 130.788 172.913 133.18 172.682 135.578C172.451 137.975 171.283 140.184 169.431 141.725L169.269 141.825C159.794 149.119 148.694 135.181 157.875 127.569ZM145.181 134.669C145.222 137.382 145.866 140.052 147.067 142.485C148.268 144.919 149.995 147.054 152.123 148.737C154.251 150.42 156.727 151.609 159.372 152.216C162.016 152.824 164.763 152.835 167.412 152.25C183.494 149.188 187.3 127.869 173.238 119.438C161.125 111.95 145.469 120.444 145.175 134.675L145.181 134.669ZM191.344 89.3875C191.569 94.9188 199.775 94.9188 200 89.3875V79.7875C199.775 74.2563 191.569 74.2563 191.344 79.7875V89.3875ZM167.644 89.3875C168.038 94.7563 175.913 94.7563 176.3 89.3875V67.8375C175.975 62.4 168 62.4 167.644 67.8375V89.3875ZM143.588 98.0813C144.013 103.45 151.856 103.45 152.244 98.0813V51.4313C152.019 45.9 143.844 45.9 143.588 51.4313V98.0813ZM119.956 89.3875C120.281 94.825 128.256 94.825 128.612 89.3875V67.8375C128.35 62.3063 120.181 62.3063 119.956 67.8375V89.3875ZM95.7688 89.3875C96.2875 94.6313 103.938 94.6313 104.425 89.3875V79.7875C104.2 74.2563 96.025 74.2563 95.7688 79.7875V89.3875ZM71.875 89.3875C72.1 94.9188 80.275 94.9188 80.5312 89.3875V67.8375C80.2688 62.3063 72.1 62.3063 71.875 67.8375V89.3875ZM47.8187 98.0813C48.0438 103.613 56.2188 103.613 56.475 98.0813V51.4313C56.2125 45.9 48.0438 45.9 47.8187 51.4313V98.0813ZM23.9562 89.3875C24.4438 94.6938 32.1625 94.6938 32.6125 89.3875V67.8375C32.3875 62.3063 24.2125 62.3063 23.9875 67.8375V89.3875H23.9562ZM0 89.3875C0.39375 94.7563 8.2375 94.7563 8.65625 89.3875V79.7875C8.43125 74.2563 0.225 74.2563 0 79.7875V89.3875Z" fill="#049FD9"/>
</g>
<defs>
<clipPath id="clip0_1152_4256">
<rect width="200" height="200" fill="white"/>
</clipPath>
</defs>
</svg>
