<svg width="512" height="73" viewBox="0 0 512 73" fill="none" xmlns="http://www.w3.org/2000/svg">
<path d="M168.022 1.777V41.795C168.022 50.637 172.951 55.858 181.505 55.858C191.074 55.858 196.574 50.057 196.574 38.892V1.777H214.409V70.644H196.587V62.666C192.386 69.19 185.569 72.381 176.147 72.381C160.199 72.386 150.197 60.787 150.197 43.967V1.777H168.022ZM359.552 0.474C379.852 0.514 394.172 16.776 394.123 35.931C394.127 37.8251 393.979 39.7165 393.68 41.587L341.199 41.489C343.211 49.755 350.014 55.712 360.31 55.734C366.542 55.734 373.217 53.438 377.285 48.226L389.447 57.976C383.193 66.81 372.162 72.009 360.425 71.986C339.705 71.916 323.785 56.372 323.82 36.219C323.86 16.935 337.662 0.434 359.552 0.474ZM472.714 0.474C483.586 0.474 489.822 3.807 494.024 10.19L495.694 1.768H512V70.644H495.694L493.589 63.552C488.807 68.773 482.859 71.973 472.714 71.973C457.054 71.951 439.22 58.176 439.22 36.72C439.22 15.118 456.762 0.474 472.714 0.474ZM107.337 0.474C127.778 0.474 144.017 16.43 144.017 36.14C144.017 55.712 127.778 71.951 107.337 71.951C87.038 71.951 70.803 55.694 70.803 36.14C70.803 16.42 87.038 0.474 107.337 0.474ZM290.717 0.035C302.214 0.035 312.399 5.128 317.93 14.586L302.223 22.896C299.896 18.238 295.53 15.619 289.999 15.619C284.619 15.619 281.994 17.511 281.994 20.711C281.994 31.481 319.539 24.643 319.539 50.407C319.539 63.797 308.627 71.942 291.019 71.942C276.029 71.929 265.551 66.982 260.317 55.632L276.167 47.335C278.786 53.013 284.024 56.359 291.448 56.359C298.287 56.359 300.906 54.179 300.906 51.12C300.906 40.04 263.362 46.755 263.362 21.425C263.362 7.455 275.586 0.035 290.717 0.035ZM36.534 0.328C42.6374 0.285294 48.6556 1.76187 54.0462 4.62465C59.4368 7.48744 64.0304 11.6465 67.413 16.727L52.193 25.556C50.432 23.0392 48.088 20.9862 45.3611 19.5721C42.6343 18.1581 39.6057 17.4252 36.534 17.436C26.096 17.436 17.542 26.136 17.542 36.14C17.542 46.143 26.096 54.843 36.534 54.843C39.7504 54.864 42.9184 54.0603 45.7358 52.5085C48.5531 50.9567 50.9257 48.7087 52.627 45.979L67.697 54.967C64.3557 60.1964 59.7449 64.4948 54.2942 67.4616C48.8436 70.4284 42.7306 71.967 36.525 71.934C16.235 71.951 0 55.694 0 36.14C0 16.28 16.235 0.328 36.534 0.328ZM260.211 0L256.921 16.643C256.316 16.577 255.706 16.543 255.096 16.541C245.531 16.563 240.031 22.373 240.058 33.534L240.155 70.639L222.325 70.679L222.174 1.817L240.004 1.777V9.755C244.157 3.275 250.903 0.075 260.211 0V0ZM439.384 0.049L436.078 16.674C435.471 16.6101 434.862 16.576 434.252 16.572C424.696 16.572 419.182 22.369 419.182 33.534V70.644H401.352V1.773H419.182V9.75C423.352 3.283 430.09 0.097 439.384 0.048V0.049ZM107.337 17.582C96.9 17.582 88.346 26.282 88.346 36.14C88.346 46.143 96.9 54.843 107.337 54.843C117.939 54.843 126.475 46.143 126.475 36.14C126.475 26.283 117.921 17.582 107.337 17.582ZM475.763 17.589C473.26 17.5983 470.783 18.1006 468.475 19.0673C466.166 20.034 464.07 21.4461 462.307 23.223C460.544 24.9992 459.148 27.1054 458.199 29.4213C457.25 31.7371 456.766 34.2173 456.776 36.72C456.776 46.29 465.33 54.843 475.772 54.843C486.342 54.843 494.892 46.289 494.892 36.574C494.872 31.5198 492.846 26.6805 489.258 23.1202C485.671 19.56 480.816 17.5704 475.762 17.589H475.763ZM359.38 16.714C351.114 16.714 344.439 21.616 341.815 29.004L376.173 29.066C375.171 22.107 367.933 16.726 359.38 16.714Z" fill="#0056D2"/>
</svg>
