<svg xmlns="http://www.w3.org/2000/svg" width="12" height="12" viewBox="0 0 12 12" fill="none">
<path fill-rule="evenodd" clip-rule="evenodd" d="M0.75 2.5C0.75 2.03587 0.934375 1.59075 1.26256 1.26256C1.59075 0.934375 2.03587 0.75 2.5 0.75H9.5C9.96413 0.75 10.4092 0.934375 10.7374 1.26256C11.0656 1.59075 11.25 2.03587 11.25 2.5V9.5C11.25 9.96413 11.0656 10.4092 10.7374 10.7374C10.4092 11.0656 9.96413 11.25 9.5 11.25H2.5C2.03587 11.25 1.59075 11.0656 1.26256 10.7374C0.934375 10.4092 0.75 9.96413 0.75 9.5V2.5ZM9.0625 6C9.0624 6.11599 9.01624 6.2272 8.93417 6.30917L7.62167 7.62167C7.58161 7.66465 7.53331 7.69913 7.47965 7.72304C7.42598 7.74695 7.36805 7.75981 7.3093 7.76085C7.25056 7.76188 7.19221 7.75108 7.13773 7.72907C7.08326 7.70707 7.03377 7.67432 6.99223 7.63277C6.95068 7.59123 6.91793 7.54174 6.89593 7.48727C6.87392 7.43279 6.86312 7.37444 6.86415 7.3157C6.86519 7.25695 6.87805 7.19902 6.90196 7.14535C6.92587 7.09169 6.96035 7.04339 7.00333 7.00333L8.00667 6L7.00333 4.99667C6.96035 4.95661 6.92587 4.90831 6.90196 4.85465C6.87805 4.80098 6.86519 4.74305 6.86415 4.6843C6.86312 4.62556 6.87392 4.56721 6.89593 4.51273C6.91793 4.45826 6.95068 4.40877 6.99223 4.36723C7.03377 4.32568 7.08326 4.29293 7.13773 4.27093C7.19221 4.24892 7.25056 4.23812 7.3093 4.23915C7.36805 4.24019 7.42598 4.25305 7.47965 4.27696C7.53331 4.30087 7.58161 4.33535 7.62167 4.37833L8.93417 5.69083C9.01642 5.7725 9.0625 5.88392 9.0625 6ZM3.06583 5.69083C2.9839 5.77286 2.93788 5.88406 2.93788 6C2.93788 6.11594 2.9839 6.22713 3.06583 6.30917L4.37833 7.62167C4.41839 7.66465 4.46669 7.69913 4.52035 7.72304C4.57402 7.74695 4.63195 7.75981 4.6907 7.76085C4.74944 7.76188 4.80779 7.75108 4.86227 7.72907C4.91674 7.70707 4.96623 7.67432 5.00777 7.63277C5.04932 7.59123 5.08207 7.54174 5.10407 7.48727C5.12608 7.43279 5.13688 7.37444 5.13585 7.3157C5.13481 7.25695 5.12195 7.19902 5.09804 7.14535C5.07413 7.09169 5.03965 7.04339 4.99667 7.00333L3.99333 6L4.99667 4.99667C5.03965 4.95661 5.07413 4.90831 5.09804 4.85465C5.12195 4.80098 5.13481 4.74305 5.13585 4.6843C5.13688 4.62556 5.12608 4.56721 5.10407 4.51273C5.08207 4.45826 5.04932 4.40877 5.00777 4.36723C4.96623 4.32568 4.91674 4.29293 4.86227 4.27093C4.80779 4.24892 4.74944 4.23812 4.6907 4.23915C4.63195 4.24019 4.57402 4.25305 4.52035 4.27696C4.46669 4.30087 4.41839 4.33535 4.37833 4.37833L3.06583 5.69083Z" fill="#6E6E6E"/>
</svg>