<svg width="512" height="131" viewBox="0 0 512 131" fill="none" xmlns="http://www.w3.org/2000/svg">
<path d="M140.598 25.715L144.49 28.533C151.26 33.993 155.152 40.158 155.998 47.203C163.275 45.794 172.582 46.851 176.644 49.669L180.367 51.959L179.69 53.369C178.505 56.01 178.167 56.715 177.998 57.067C171.398 70.277 158.367 70.453 152.275 70.277C136.875 108.85 104.045 130.162 59.7048 130.162C39.2288 130.162 23.6598 123.645 13.1668 110.787C-0.709176 93.88 -0.709176 71.862 0.474824 64.817L0.813824 63.407H123.167C129.597 63.407 134.506 61.647 136.875 60.237C134.336 56.362 133.49 51.959 133.321 49.493C132.813 42.448 134.506 35.05 137.891 29.766L140.598 25.716V25.715ZM246.612 33.894C247.978 33.894 249.133 34.351 250.08 35.267C251.026 36.182 251.5 37.337 251.5 38.734V82.297C251.5 89.557 248.955 95.701 243.866 100.727C238.716 105.816 232.572 108.36 225.436 108.36C218.238 108.36 212.094 105.816 207.006 100.727C201.917 95.639 199.373 89.495 199.373 82.297C199.373 75.098 201.917 68.955 207.006 63.867C212.094 58.777 218.238 56.234 225.436 56.234C231.611 56.234 237.056 58.142 241.772 61.958V38.734C241.772 37.338 242.23 36.182 243.145 35.267C244.06 34.351 245.216 33.894 246.612 33.894ZM283.102 56.234C290.239 56.234 296.382 58.778 301.532 63.866C304.077 66.411 305.978 69.219 307.234 72.29C308.491 75.362 309.134 78.698 309.166 82.297C309.166 89.557 306.621 95.701 301.533 100.727C296.383 105.816 290.239 108.36 283.103 108.36C275.904 108.36 269.761 105.816 264.673 100.727C259.583 95.639 257.039 89.495 257.039 82.297C257.039 75.098 259.584 68.955 264.672 63.867C269.761 58.777 275.904 56.234 283.102 56.234ZM340.676 56.234C347.223 56.234 352.886 58.344 357.664 62.564C358.781 63.556 359.339 64.782 359.339 66.24C359.339 67.636 358.881 68.8 357.966 69.73C357.051 70.661 355.895 71.127 354.499 71.127C353.346 71.1362 352.226 70.741 351.334 70.01C349.752 68.676 348.092 67.667 346.354 66.985C344.616 66.302 342.724 65.961 340.676 65.961C338.411 65.961 336.286 66.387 334.3 67.241C332.357 68.0649 330.589 69.2491 329.087 70.731C327.59 72.2164 326.396 73.9792 325.573 75.921C324.72 77.906 324.293 80.031 324.293 82.297C324.293 84.562 324.72 86.687 325.573 88.673C326.396 90.6148 327.59 92.3776 329.087 93.863C330.589 95.3449 332.357 96.5291 334.3 97.353C336.286 98.206 338.411 98.633 340.676 98.633C342.724 98.633 344.616 98.299 346.354 97.633C348.092 96.965 349.736 95.964 351.287 94.63C352.157 93.979 353.18 93.637 354.359 93.606C355.755 93.606 356.911 94.064 357.826 94.979C358.742 95.895 359.199 97.05 359.199 98.447C359.199 99.812 358.687 101.007 357.664 102.03C352.854 106.25 347.192 108.36 340.676 108.36C333.478 108.36 327.334 105.816 322.246 100.727C317.157 95.639 314.613 89.495 314.613 82.297C314.613 75.098 317.157 68.955 322.246 63.867C327.334 58.777 333.478 56.234 340.676 56.234ZM369.72 33.894C371.054 33.894 372.194 34.367 373.14 35.314C374.087 36.26 374.56 37.415 374.56 38.781V75.083L402.392 56.978C403.167 56.482 404.036 56.234 404.998 56.234C405.681 56.234 406.317 56.358 406.906 56.606C407.496 56.854 408.008 57.203 408.442 57.653C408.876 58.103 409.225 58.623 409.489 59.213C409.752 59.7977 409.887 60.4319 409.885 61.073C409.885 62.811 409.265 64.099 408.023 64.937L388.523 77.597L408.535 100.122C409.435 101.115 409.885 102.247 409.885 103.52C409.885 104.171 409.753 104.792 409.489 105.381C409.234 105.958 408.879 106.486 408.442 106.941C408.008 107.391 407.496 107.739 406.906 107.987C406.301 108.238 405.652 108.365 404.998 108.36C403.695 108.36 402.608 107.941 401.74 107.103L380.238 82.948L374.56 86.672V103.473C374.56 104.807 374.087 105.955 373.14 106.917C372.194 107.879 371.054 108.36 369.72 108.36C368.354 108.36 367.199 107.879 366.252 106.917C365.306 105.955 364.832 104.807 364.832 103.473V38.781C364.832 37.415 365.306 36.26 366.252 35.313C367.199 34.367 368.354 33.893 369.72 33.893V33.894ZM441.209 56.234C448.345 56.234 454.489 58.778 459.639 63.866C462.183 66.38 464.092 69.18 465.364 72.267C466.636 75.354 467.272 78.697 467.272 82.297C467.272 83.693 466.799 84.849 465.852 85.764C464.906 86.679 463.75 87.137 462.385 87.137H425.525C426.037 88.8136 426.824 90.3939 427.852 91.814C428.856 93.2058 430.073 94.4308 431.458 95.444C432.848 96.4577 434.387 97.2507 436.02 97.795C437.68 98.353 439.41 98.633 441.209 98.633C443.257 98.633 445.134 98.323 446.84 97.702C448.547 97.082 450.13 96.151 451.588 94.909C452.485 94.146 453.62 93.7183 454.798 93.699C456.195 93.699 457.351 94.157 458.266 95.072C459.182 95.988 459.639 97.143 459.639 98.54C459.639 99.905 459.174 101.068 458.243 102.03C453.433 106.25 447.756 108.36 441.209 108.36C434.01 108.36 427.867 105.816 422.779 100.727C417.69 95.639 415.146 89.495 415.146 82.297C415.146 75.098 417.69 68.955 422.779 63.867C427.867 58.777 434.01 56.234 441.209 56.234ZM498.689 56.234C500.054 56.234 501.52 56.327 503.087 56.513C504.654 56.699 506.097 57.033 507.416 57.513C508.734 57.994 509.828 58.653 510.696 59.491C511.566 60.329 512 61.415 512 62.749C512 63.432 511.868 64.069 511.604 64.658C511.349 65.2349 510.994 65.7625 510.557 66.217C510.123 66.667 509.611 67.016 509.021 67.264C508.416 67.515 507.767 67.6416 507.113 67.636C506.523 67.636 505.841 67.466 505.065 67.124C503.111 66.349 500.985 65.961 498.689 65.961C496.424 65.961 494.299 66.387 492.313 67.241C490.327 68.094 488.598 69.257 487.123 70.731C485.65 72.205 484.486 73.935 483.633 75.921C482.78 77.906 482.353 80.031 482.353 82.297V103.52C482.353 104.854 481.88 105.994 480.933 106.94C479.987 107.887 478.847 108.36 477.513 108.36C476.148 108.36 474.992 107.887 474.046 106.94C473.099 105.994 472.626 104.854 472.626 103.52V61.074C472.626 59.74 473.099 58.599 474.046 57.654C474.992 56.707 476.148 56.234 477.513 56.234C478.847 56.234 479.987 56.707 480.933 57.654C481.88 58.599 482.353 59.74 482.353 61.074V62.004C484.63 60.1709 487.193 58.7246 489.939 57.723C492.669 56.73 495.586 56.233 498.689 56.233V56.234ZM225.436 65.96C223.14 65.96 220.999 66.394 219.013 67.263C217.028 68.132 215.306 69.303 213.847 70.777C212.389 72.251 211.233 73.98 210.38 75.967C209.527 77.952 209.1 80.062 209.1 82.296C209.1 84.53 209.527 86.64 210.38 88.626C211.233 90.611 212.389 92.341 213.847 93.815C215.306 95.288 217.027 96.46 219.013 97.329C220.999 98.197 223.14 98.632 225.436 98.632C227.701 98.632 229.826 98.197 231.812 97.329C233.752 96.4916 235.513 95.2906 237.002 93.791C238.48 92.2952 239.664 90.535 240.492 88.602C241.345 86.632 241.772 84.53 241.772 82.296C241.772 80.062 241.345 77.96 240.492 75.989C239.664 74.056 238.48 72.2959 237.002 70.8C235.513 69.3007 233.752 68.1001 231.812 67.263C229.826 66.394 227.702 65.96 225.436 65.96ZM283.103 65.96C280.807 65.96 278.666 66.394 276.68 67.263C274.694 68.132 272.972 69.303 271.514 70.777C270.056 72.251 268.9 73.98 268.046 75.967C267.193 77.952 266.766 80.062 266.766 82.296C266.766 84.53 267.193 86.64 268.046 88.626C268.9 90.611 270.056 92.341 271.514 93.815C272.972 95.288 274.694 96.46 276.68 97.329C278.666 98.197 280.807 98.632 283.103 98.632C285.368 98.632 287.493 98.197 289.479 97.329C291.419 96.4916 293.18 95.2906 294.669 93.791C296.147 92.2952 297.331 90.535 298.159 88.602C299.012 86.632 299.439 84.53 299.439 82.296C299.439 80.062 299.012 77.96 298.159 75.989C297.331 74.056 296.147 72.2959 294.669 70.8C293.18 69.3007 291.419 68.1001 289.479 67.263C287.493 66.394 285.368 65.96 283.103 65.96ZM441.209 65.96C439.44 65.96 437.719 66.239 436.043 66.797C434.396 67.3407 432.842 68.1332 431.435 69.147C430.039 70.1556 428.813 71.3815 427.805 72.778C426.779 74.1931 426.008 75.7756 425.525 77.455H456.893C456.379 75.7748 455.584 74.1935 454.543 72.778C453.526 71.389 452.302 70.1647 450.913 69.148C449.522 68.1347 447.984 67.3421 446.352 66.798C444.695 66.2399 442.957 65.9568 441.209 65.96ZM32.6288 42.27V59.884H14.0138V42.272H32.6288V42.27ZM54.6288 42.27V59.884H36.0138V42.272H54.6288V42.27ZM76.6288 42.27V59.884H58.0128V42.272H76.6298L76.6288 42.27ZM98.6288 42.27V59.884H80.0128V42.272H98.6298L98.6288 42.27ZM120.629 42.27V59.884H102.013V42.272H120.629V42.27ZM98.6288 21.135V38.748H80.0128V21.136H98.6298L98.6288 21.135ZM76.6288 21.135V38.748H58.0128V21.136H76.6298L76.6288 21.135ZM54.6288 21.135V38.748H36.0138V21.136H54.6288V21.135ZM98.6288 0V17.613H80.0128V0H98.6298H98.6288Z" fill="#2396ED"/>
</svg>
