<svg width="200" height="200" viewBox="0 0 200 200" fill="none" xmlns="http://www.w3.org/2000/svg">
<path d="M181.714 83.6791H175.001V83.3333H100.001V116.667H147.097C140.226 136.071 121.764 150 100.001 150C72.3888 150 50.0013 127.612 50.0013 100C50.0013 72.3875 72.3888 50 100.001 50C112.747 50 124.343 54.8083 133.172 62.6625L156.743 39.0916C141.86 25.2208 121.951 16.6666 100.001 16.6666C53.9805 16.6666 16.668 53.9791 16.668 100C16.668 146.021 53.9805 183.333 100.001 183.333C146.022 183.333 183.335 146.021 183.335 100C183.335 94.4125 182.76 88.9583 181.714 83.6791Z" fill="#FFC107"/>
<path d="M26.2734 61.2125L53.6526 81.2916C61.0609 62.95 79.0026 50 99.9984 50C112.744 50 124.34 54.8083 133.169 62.6625L156.74 39.0916C141.857 25.2208 121.948 16.6666 99.9984 16.6666C67.9901 16.6666 40.2318 34.7375 26.2734 61.2125Z" fill="#FF3D00"/>
<path d="M100 183.333C121.525 183.333 141.083 175.096 155.871 161.7L130.079 139.875C121.431 146.452 110.864 150.009 100 150C78.325 150 59.9208 136.179 52.9875 116.892L25.8125 137.829C39.6042 164.817 67.6125 183.333 100 183.333Z" fill="#4CAF50"/>
<path d="M181.713 83.6792H175V83.3334H100V116.667H147.096C143.809 125.902 137.889 133.972 130.067 139.879L130.079 139.871L155.871 161.696C154.046 163.354 183.333 141.667 183.333 100C183.333 94.4125 182.758 88.9584 181.713 83.6792Z" fill="#1976D2"/>
</svg>
