<svg width="256" height="249" viewBox="0 0 256 249" fill="none" xmlns="http://www.w3.org/2000/svg">
<path d="M82.0867 244.934C76.1407 244.934 70.5257 242.292 66.7267 237.502L8.92169 165.657C5.12269 160.867 3.63669 154.757 5.12269 148.81L25.7677 59.1281C27.0887 53.1821 31.0527 48.3921 36.5037 45.7501L120.075 5.78007C122.718 4.46007 125.691 3.79907 128.664 3.79907C131.637 3.79907 134.609 4.45907 137.252 5.78107L220.824 45.5851C226.274 48.2271 230.238 53.0171 231.559 58.9631L252.204 148.645C253.526 154.591 252.204 160.702 248.406 165.492L190.599 237.337C186.8 241.961 181.185 244.769 175.239 244.769L82.0887 244.934H82.0867Z" fill="#326DE6"/>
<path d="M128.495 7.92804C130.808 7.92804 133.12 8.42304 135.267 9.41404L218.839 49.218C223.133 51.365 226.436 55.329 227.427 59.954L248.072 149.636C249.228 154.426 248.072 159.381 244.934 163.179L187.128 235.025C184.155 238.823 179.53 240.97 174.741 240.97H82.0846C77.2946 240.97 72.6706 238.823 69.6976 235.025L11.8916 163.179C8.9186 159.381 7.7616 154.426 8.7536 149.636L29.3986 59.954C30.5546 55.164 33.6926 51.2 37.9866 49.218L121.56 9.25004C123.707 8.42404 126.184 7.92904 128.496 7.92904L128.495 7.92804ZM128.495 0.165039C125.027 0.165039 121.559 0.991039 118.255 2.47704L34.6836 42.447C28.0766 45.585 23.4526 51.365 21.8006 58.467L1.1556 148.15C-0.495402 155.252 1.1556 162.519 5.7806 168.3L63.5866 240.145C68.0466 245.76 74.8176 248.898 81.9196 248.898H174.575C181.677 248.898 188.449 245.76 192.908 240.145L250.715 168.299C255.339 162.684 256.991 155.252 255.339 148.149L234.694 58.467C233.043 51.365 228.418 45.585 221.812 42.447L138.57 2.47604C135.432 0.991039 131.964 0.165039 128.495 0.165039Z" fill="white"/>
<path d="M212.231 142.534C212.066 142.534 212.066 142.534 212.231 142.534H212.066C211.901 142.534 211.736 142.534 211.736 142.369C211.406 142.369 211.076 142.204 210.745 142.204C209.589 142.039 208.598 141.874 207.607 141.874C207.111 141.874 206.616 141.874 205.955 141.708H205.79C202.322 141.378 199.514 141.048 196.871 140.222C195.715 139.726 195.385 139.066 195.054 138.405C195.054 138.24 194.889 138.24 194.889 138.075L192.742 137.415C193.757 129.646 193.365 121.757 191.586 114.126C189.783 106.432 186.653 99.1104 182.337 92.4901L183.989 91.0041V90.6741C183.989 89.8481 184.154 89.0221 184.814 88.1961C186.796 86.3791 189.274 84.8931 192.247 83.0761C192.742 82.7461 193.237 82.5811 193.733 82.2501C194.724 81.7551 195.55 81.2601 196.541 80.5991C196.706 80.4341 197.036 80.2691 197.367 79.9391C197.532 79.7731 197.697 79.7731 197.697 79.6081C200.009 77.6261 200.505 74.3231 198.853 72.1751C198.027 71.0191 196.541 70.3591 195.054 70.3591C193.734 70.3591 192.577 70.8541 191.421 71.6801L191.091 72.0101C190.761 72.1751 190.595 72.5061 190.265 72.6711C189.439 73.4971 188.778 74.1571 188.118 74.9831C187.788 75.3131 187.458 75.8091 186.962 76.1391C184.649 78.6171 182.502 80.5991 180.355 82.0851C179.86 82.4151 179.365 82.5811 178.869 82.5811C178.539 82.5811 178.208 82.5811 177.878 82.4151H177.548L175.565 83.7371C173.418 81.4251 171.106 79.4431 168.794 77.4611C158.839 69.6792 146.857 64.9209 134.275 63.7521L134.11 61.6051L133.78 61.2751C133.284 60.7791 132.624 60.2841 132.458 59.1281C132.293 56.4851 132.624 53.5121 132.954 50.2091V50.0441C132.954 49.5481 133.119 48.8881 133.284 48.3921C133.449 47.4021 133.614 46.4101 133.78 45.2541V43.7681C133.78 40.7951 131.467 38.3181 128.66 38.3181C127.338 38.3181 126.017 38.9781 125.026 39.9691C124.036 40.9601 123.54 42.2811 123.54 43.7681V45.0891C123.54 46.2451 123.705 47.2361 124.035 48.2271C124.2 48.7231 124.2 49.2181 124.365 49.8791V50.0441C124.695 53.3471 125.191 56.3201 124.861 58.9631C124.696 60.1191 124.035 60.6141 123.54 61.1101L123.21 61.4401L123.044 63.5871C120.071 63.9171 117.098 64.2471 114.125 64.9081C101.408 67.7161 90.1772 74.1581 81.4242 83.4061L79.7722 82.2501H79.4422C79.1122 82.2501 78.7812 82.4151 78.4512 82.4151C77.9552 82.4151 77.4602 82.2501 76.9642 81.9201C74.8172 80.4341 72.6702 78.2861 70.3582 75.8091C70.0282 75.4791 69.6982 74.9831 69.2022 74.6531C68.5412 73.8271 67.8802 73.1661 67.0542 72.3411C66.8892 72.1751 66.5592 72.0111 66.2292 71.6801C66.0642 71.5151 65.8992 71.5151 65.8992 71.3501C64.8759 70.5047 63.5925 70.0378 62.2652 70.0281C60.7782 70.0281 59.2922 70.6891 58.4662 71.8451C56.8142 73.9921 57.3102 77.2951 59.6222 79.2771C59.7872 79.2771 59.7872 79.4431 59.9522 79.4431C60.2822 79.6081 60.4482 79.9381 60.7782 80.1031C61.7692 80.7631 62.5952 81.2591 63.5862 81.7551C64.0822 81.9201 64.5772 82.2501 65.0732 82.5811C68.0452 84.3971 70.5232 85.8841 72.5052 87.7011C73.3312 88.5261 73.3312 89.3521 73.3312 90.1781V90.5081L74.9822 91.9951C74.6522 92.4901 74.3222 92.8211 74.1562 93.3161C65.8982 106.364 62.7602 121.724 64.9072 136.919L62.7602 137.579C62.7602 137.745 62.5952 137.745 62.5952 137.909C62.2652 138.57 61.7692 139.231 60.7782 139.726C58.3012 140.552 55.3282 140.883 51.8602 141.213H51.6942C51.1992 141.213 50.5382 141.213 50.0432 141.378C49.0522 141.378 48.0612 141.543 46.9052 141.708C46.5752 141.708 46.2452 141.874 45.9142 141.874C45.7492 141.874 45.5842 141.874 45.4182 142.039C42.4452 142.699 40.6282 145.507 41.1242 148.149C41.6202 150.462 43.7672 151.949 46.4092 151.949C46.9052 151.949 47.2352 151.949 47.7312 151.783C47.8962 151.783 48.0612 151.783 48.0612 151.618C48.3912 151.618 48.7212 151.453 49.0512 151.453C50.2082 151.123 51.0342 150.793 52.0252 150.297C52.5202 150.132 53.0152 149.801 53.5112 149.637H53.6762C56.8142 148.48 59.6222 147.489 62.2652 147.159H62.5952C63.5862 147.159 64.2472 147.654 64.7422 147.985C64.9072 147.985 64.9072 148.15 65.0722 148.15L67.3852 147.82C71.3492 160.041 78.9462 170.942 89.0212 178.87C91.3332 180.686 93.6452 182.173 96.1232 183.66L95.1322 185.806C95.1322 185.972 95.2972 185.972 95.2972 186.136C95.6272 186.797 95.9572 187.623 95.6272 188.779C94.6372 191.257 93.1502 193.734 91.3332 196.542V196.707C91.0032 197.203 90.6732 197.533 90.3432 198.028C89.6822 198.854 89.1862 199.68 88.5252 200.671C88.3602 200.836 88.1952 201.166 88.0302 201.497C88.0302 201.662 87.8652 201.827 87.8652 201.827C86.5442 204.635 87.5352 207.773 90.0122 208.929C90.6722 209.259 91.3332 209.425 91.9942 209.425C93.9762 209.425 95.9582 208.103 96.9492 206.286C96.9492 206.121 97.1142 205.956 97.1142 205.956C97.2792 205.626 97.4442 205.296 97.6092 205.13C98.1052 203.974 98.2702 203.148 98.6002 202.157L99.0962 200.671C100.252 197.368 101.078 194.725 102.564 192.413C103.224 191.422 104.051 191.257 104.711 190.926C104.876 190.926 104.876 190.926 105.041 190.761L106.198 188.614C113.465 191.422 121.393 192.908 129.32 192.908C134.11 192.908 139.065 192.413 143.69 191.257C146.601 190.606 149.469 189.779 152.278 188.779L153.268 190.596C153.434 190.596 153.434 190.596 153.599 190.761C154.425 190.926 155.085 191.257 155.746 192.248C157.067 194.56 158.058 197.368 159.214 200.506V200.671L159.71 202.157C160.04 203.148 160.205 204.139 160.7 205.13C160.866 205.46 161.031 205.626 161.196 205.956C161.196 206.121 161.362 206.286 161.362 206.286C162.352 208.268 164.334 209.425 166.316 209.425C166.977 209.425 167.638 209.259 168.298 208.929C169.454 208.269 170.445 207.277 170.776 205.956C171.106 204.635 171.106 203.148 170.446 201.827C170.446 201.662 170.28 201.662 170.28 201.497C170.115 201.167 169.95 200.837 169.785 200.671C169.289 199.68 168.629 198.854 167.968 198.028C167.638 197.533 167.308 197.203 166.978 196.708V196.542C165.16 193.734 163.508 191.257 162.683 188.779C162.353 187.623 162.683 186.963 162.848 186.137C162.848 185.972 163.013 185.972 163.013 185.807L162.187 183.825C170.941 178.705 178.373 171.437 183.989 162.519C186.962 157.894 189.274 152.774 190.925 147.654L192.907 147.984C193.073 147.984 193.073 147.819 193.237 147.819C193.898 147.489 194.394 146.994 195.385 146.994H195.715C198.358 147.324 201.165 148.314 204.304 149.471H204.469C204.964 149.636 205.459 149.966 205.955 150.131C206.946 150.627 207.772 150.957 208.928 151.288C209.258 151.288 209.588 151.453 209.919 151.453C210.084 151.453 210.249 151.453 210.414 151.618C210.91 151.783 211.24 151.783 211.736 151.783C214.213 151.783 216.36 150.132 217.021 147.985C217.021 146.003 215.204 143.36 212.231 142.535V142.534ZM135.761 134.441L128.494 137.91L121.227 134.441L119.411 126.679L124.365 120.403H132.458L137.413 126.679L135.762 134.441H135.761ZM178.869 117.265C180.15 122.727 180.541 128.359 180.025 133.945L154.755 126.679C152.443 126.019 151.122 123.706 151.617 121.394C151.782 120.733 152.113 120.072 152.608 119.577L172.593 101.574C175.4 106.199 177.547 111.484 178.869 117.264V117.265ZM164.665 91.6651L143.029 107.025C141.212 108.181 138.734 107.85 137.248 106.034C136.753 105.538 136.588 104.877 136.422 104.217L134.936 77.2951C146.184 78.5903 156.663 83.6552 164.665 91.6651ZM116.768 78.1201C118.585 77.7901 120.236 77.4601 122.053 77.1301L120.567 103.555C120.402 105.867 118.585 107.849 116.107 107.849C115.447 107.849 114.621 107.684 114.125 107.354L92.1592 91.6651C98.9312 84.8931 107.354 80.2681 116.768 78.1211V78.1201ZM84.2312 101.573L103.885 119.08C105.702 120.567 105.867 123.374 104.381 125.191C103.885 125.851 103.225 126.347 102.399 126.513L76.7992 133.945C75.8082 122.714 78.2852 111.318 84.2312 101.573ZM79.7712 146.332L106.033 141.872C108.18 141.707 110.162 143.194 110.657 145.341C110.822 146.331 110.822 147.158 110.492 147.984L100.417 172.262C91.1682 166.316 83.7362 157.232 79.7722 146.332H79.7712ZM140.056 179.199C136.257 180.025 132.458 180.52 128.494 180.52C122.714 180.52 117.098 179.53 111.814 177.878L124.861 154.26C126.182 152.773 128.329 152.113 130.146 153.104C130.917 153.577 131.59 154.193 132.128 154.92L144.845 177.878C143.359 178.373 141.707 178.704 140.055 179.199H140.056ZM172.262 156.242C168.133 162.848 162.682 168.133 156.407 172.262L146.002 147.322C145.506 145.341 146.332 143.194 148.314 142.202C148.974 141.872 149.8 141.707 150.626 141.707L177.052 146.167C176.061 149.8 174.409 153.104 172.262 156.242Z" fill="white"/>
</svg>
