<svg width="512" height="110" viewBox="0 0 512 110" fill="none" xmlns="http://www.w3.org/2000/svg">
<path d="M511.876 49.436V40.434H500.697V26.44L500.321 26.556L489.821 29.768L489.614 29.831V40.435H473.041V34.529C473.041 31.779 473.657 29.673 474.869 28.269C476.072 26.882 477.794 26.177 479.989 26.177C481.569 26.177 483.203 26.549 484.848 27.283L485.26 27.466V17.986L485.067 17.915C483.532 17.363 481.444 17.085 478.857 17.085C475.597 17.085 472.634 17.795 470.051 19.201C467.465 20.609 465.431 22.619 464.007 25.176C462.587 27.729 461.867 30.678 461.867 33.941V40.435H454.083V49.437H461.867V87.36H473.041V49.436H489.614V73.536C489.614 83.462 494.296 88.493 503.529 88.493C505.046 88.493 506.643 88.314 508.274 87.966C509.934 87.609 511.064 87.252 511.729 86.87L511.876 86.784V77.698L511.422 77.998C510.815 78.404 510.06 78.733 509.174 78.978C508.284 79.228 507.542 79.354 506.967 79.354C504.804 79.354 503.204 78.771 502.21 77.621C501.206 76.461 500.697 74.431 500.697 71.591V49.436H511.876ZM429.128 79.356C425.072 79.356 421.875 78.01 419.621 75.361C417.354 72.698 416.205 68.902 416.205 64.079C416.205 59.104 417.354 55.209 419.622 52.499C421.877 49.807 425.044 48.441 429.037 48.441C432.912 48.441 435.997 49.746 438.205 52.321C440.426 54.911 441.552 58.774 441.552 63.808C441.552 68.903 440.492 72.818 438.403 75.436C436.328 78.035 433.208 79.356 429.128 79.356ZM429.626 39.304C421.888 39.304 415.741 41.571 411.36 46.043C406.98 50.516 404.76 56.704 404.76 64.44C404.76 71.787 406.927 77.697 411.203 82.002C415.478 86.31 421.296 88.492 428.493 88.492C435.995 88.492 442.019 86.192 446.399 81.659C450.779 77.129 452.998 70.999 452.998 63.444C452.998 55.982 450.915 50.028 446.807 45.751C442.697 41.473 436.915 39.304 429.626 39.304ZM386.743 39.304C381.479 39.304 377.126 40.65 373.799 43.304C370.453 45.974 368.756 49.477 368.756 53.715C368.756 55.918 369.123 57.875 369.844 59.535C370.569 61.2 371.692 62.666 373.183 63.897C374.663 65.117 376.947 66.396 379.975 67.697C382.52 68.744 384.418 69.63 385.624 70.328C386.802 71.012 387.639 71.7 388.112 72.37C388.57 73.025 388.804 73.922 388.804 75.03C388.804 78.183 386.443 79.716 381.584 79.716C379.783 79.716 377.727 79.341 375.476 78.599C373.24 77.8679 371.13 76.7977 369.22 75.426L368.756 75.094V85.852L368.926 85.932C370.508 86.662 372.501 87.276 374.85 87.761C377.196 88.246 379.326 88.493 381.177 88.493C386.889 88.493 391.489 87.14 394.845 84.469C398.222 81.781 399.935 78.196 399.935 73.81C399.935 70.647 399.013 67.935 397.196 65.747C395.392 63.577 392.262 61.585 387.894 59.824C384.415 58.428 382.186 57.269 381.267 56.379C380.381 55.519 379.931 54.304 379.931 52.765C379.931 51.4 380.486 50.307 381.627 49.421C382.777 48.531 384.376 48.078 386.382 48.078C388.244 48.078 390.149 48.372 392.043 48.948C393.937 49.525 395.599 50.297 396.987 51.241L397.444 51.553V41.348L397.268 41.272C395.988 40.723 394.299 40.254 392.248 39.872C390.206 39.495 388.354 39.304 386.743 39.304ZM339.624 79.355C335.57 79.355 332.371 78.01 330.118 75.361C327.85 72.698 326.703 68.903 326.703 64.079C326.703 59.104 327.851 55.209 330.12 52.499C332.373 49.807 335.54 48.441 339.535 48.441C343.408 48.441 346.492 49.746 348.702 52.321C350.922 54.911 352.049 58.774 352.049 63.808C352.049 68.903 350.989 72.818 348.899 75.436C346.825 78.035 343.706 79.356 339.624 79.356V79.355ZM340.124 39.304C332.384 39.304 326.237 41.571 321.857 46.043C317.478 50.516 315.257 56.704 315.257 64.44C315.257 71.79 317.425 77.697 321.7 82.002C325.975 86.31 331.793 88.492 338.991 88.492C346.491 88.492 352.516 86.192 356.896 81.659C361.275 77.129 363.496 70.999 363.496 63.444C363.496 55.982 361.412 50.028 357.303 45.751C353.191 41.473 347.411 39.304 340.123 39.304H340.124ZM298.294 48.561V40.434H287.255V87.36H298.293V63.356C298.293 59.274 299.219 55.921 301.045 53.388C302.848 50.885 305.25 49.618 308.184 49.618C309.178 49.618 310.294 49.781 311.503 50.106C312.699 50.428 313.566 50.778 314.077 51.146L314.54 51.482V40.354L314.362 40.277C313.333 39.84 311.88 39.62 310.039 39.62C307.266 39.62 304.783 40.511 302.657 42.266C300.791 43.808 299.442 45.923 298.41 48.561H298.293H298.294ZM267.488 39.304C262.424 39.304 257.907 40.39 254.064 42.53C250.214 44.675 247.237 47.739 245.212 51.634C243.195 55.52 242.172 60.058 242.172 65.12C242.172 69.553 243.164 73.622 245.126 77.208C247.089 80.8 249.869 83.61 253.386 85.558C256.899 87.505 260.958 88.493 265.453 88.493C270.699 88.493 275.178 87.443 278.769 85.376L278.914 85.292V75.179L278.45 75.518C276.797 76.7156 274.978 77.6631 273.05 78.33C271.099 79.01 269.32 79.355 267.76 79.355C263.43 79.355 259.953 77.999 257.428 75.328C254.898 72.652 253.616 68.896 253.616 64.168C253.616 59.411 254.954 55.558 257.59 52.714C260.217 49.88 263.7 48.442 267.943 48.442C271.571 48.442 275.106 49.67 278.451 52.097L278.914 52.433V41.778L278.764 41.693C277.506 40.989 275.789 40.407 273.657 39.966C271.536 39.526 269.46 39.304 267.487 39.304H267.488ZM234.568 40.434H223.53V87.36H234.569V40.435L234.568 40.434ZM229.162 20.444C227.346 20.444 225.762 21.062 224.459 22.288C223.152 23.518 222.489 25.065 222.489 26.891C222.489 28.688 223.144 30.207 224.439 31.403C225.725 32.596 227.314 33.201 229.162 33.201C231.01 33.201 232.605 32.596 233.907 31.405C235.217 30.207 235.882 28.688 235.882 26.891C235.882 25.128 235.235 23.596 233.961 22.337C232.688 21.081 231.074 20.444 229.162 20.444ZM201.622 36.972V87.36H212.886V21.881H197.296L177.478 70.516L158.246 21.881H142.02V87.36H152.606V36.967H152.97L173.278 87.359H181.267L201.257 36.972H201.621H201.622Z" fill="#706D6E"/>
<path d="M51.927 51.927H0V0H51.927V51.927Z" fill="#F1511B"/>
<path d="M109.262 51.927H57.3359V0H109.262V51.927Z" fill="#80CC28"/>
<path d="M51.925 109.28H0V57.354H51.925V109.28Z" fill="#00ADEF"/>
<path d="M109.262 109.28H57.3359V57.354H109.262V109.28Z" fill="#FBBC09"/>
</svg>
