<svg width="512" height="67" viewBox="0 0 512 67" fill="none" xmlns="http://www.w3.org/2000/svg">
<g clip-path="url(#clip0_1152_4888)">
<path d="M221.034 43.303H254.866L236.977 14.522L204.144 66.559H189.202L229.137 4.051C230.873 1.526 233.767 0 236.977 0C240.081 0 242.975 1.473 244.659 3.946L284.752 66.559H269.81L262.76 54.931H228.507L221.035 43.303H221.034ZM376.251 54.93V0.631H363.571V60.245C363.571 61.876 364.202 63.455 365.412 64.665C366.622 65.875 368.253 66.559 370.042 66.559H427.867L435.339 54.931H376.25L376.251 54.93ZM166.471 45.196C178.784 45.196 188.781 35.252 188.781 22.94C188.781 10.627 178.784 0.63 166.471 0.63H110.998V66.56H123.674V12.26H165.63C171.523 12.26 176.258 17.049 176.258 22.942C176.258 28.834 171.523 33.622 165.63 33.622L129.883 33.57L167.734 66.56H186.15L160.684 45.198H166.472L166.471 45.196ZM32.97 66.559C14.77 66.56 0 51.827 0 33.622C0 15.416 14.77 0.632 32.97 0.632H71.29C89.494 0.632 104.253 15.416 104.253 33.622C104.253 51.827 89.494 66.559 71.289 66.559H32.97ZM70.438 54.931C82.229 54.931 91.779 45.407 91.779 33.621C91.779 21.836 82.229 12.26 70.438 12.26H33.818C22.031 12.26 12.476 21.836 12.476 33.622C12.476 45.407 22.031 54.931 33.817 54.931H70.437H70.438ZM311.218 66.559C293.014 66.559 278.228 51.827 278.228 33.622C278.228 15.416 293.014 0.632 311.218 0.632H356.732L349.312 12.26H312.06C300.274 12.26 290.698 21.836 290.698 33.622C290.698 45.407 300.274 54.931 312.06 54.931H357.783L350.311 66.559H311.218ZM466.278 54.931C456.544 54.931 448.283 48.407 445.758 39.409H499.952L507.423 27.781H445.758C448.283 18.836 456.544 12.26 466.278 12.26H503.478L511 0.63H465.435C447.23 0.63 432.445 15.415 432.445 33.62C432.445 51.826 447.23 66.558 465.435 66.558H504.529L512 54.931H466.277H466.278Z" fill="#EA1B22"/>
</g>
<defs>
<clipPath id="clip0_1152_4888">
<rect width="512" height="67" fill="white"/>
</clipPath>
</defs>
</svg>
