<svg width="256" height="180" viewBox="0 0 256 180" fill="none" xmlns="http://www.w3.org/2000/svg">
<path d="M106.554 19.6511C114.802 11.0571 126.285 5.72705 138.984 5.72705C155.867 5.72705 170.596 15.1411 178.439 29.1161C185.455 25.9822 193.055 24.3669 200.739 24.3761C231.188 24.3761 255.873 49.2761 255.873 79.9911C255.873 110.71 231.188 135.611 200.739 135.611C197.092 135.613 193.454 135.25 189.879 134.528C182.971 146.849 169.809 155.173 154.701 155.173C148.591 155.181 142.561 153.793 137.069 151.115C130.067 167.585 113.753 179.134 94.739 179.134C74.939 179.134 58.065 166.605 51.587 149.034C48.757 149.636 45.824 149.949 42.815 149.949C19.241 149.949 0.129016 130.641 0.129016 106.819C0.112033 99.2696 2.07386 91.8475 5.81899 85.2924C9.56413 78.7373 14.9618 73.2782 21.474 69.4591C18.77 63.2342 17.3784 56.5188 17.386 49.7321C17.386 22.3361 39.627 0.128052 67.061 0.128052C83.167 0.128052 97.481 7.78605 106.555 19.6511" fill="#00A1E0"/>
<path d="M37.171 92.9561C37.011 93.3751 37.229 93.4621 37.281 93.5361C37.761 93.8851 38.249 94.1361 38.741 94.4161C41.35 95.8011 43.812 96.2061 46.388 96.2061C51.634 96.2061 54.891 93.416 54.891 88.923V88.8361C54.891 84.6831 51.215 83.1741 47.765 82.0861L47.317 81.9391C44.716 81.0941 42.472 80.3661 42.472 78.6531V78.5631C42.472 77.0981 43.783 76.0191 45.816 76.0191C48.075 76.0191 50.756 76.7691 52.483 77.7241C52.483 77.7241 52.989 78.0521 53.175 77.5601C53.277 77.2981 54.151 74.9451 54.243 74.6901C54.341 74.4131 54.166 74.2091 53.988 74.1001C52.017 72.9001 49.292 72.0811 46.472 72.0811L45.947 72.0851C41.146 72.0851 37.794 74.9851 37.794 79.1421V79.229C37.794 83.612 41.492 85.0321 44.956 86.0231L45.514 86.1951C48.038 86.9701 50.214 87.6371 50.214 89.4151V89.5021C50.214 91.1271 48.8 92.3371 46.519 92.3371C45.634 92.3371 42.811 92.3191 39.761 90.3911C39.393 90.1761 39.178 90.0201 38.894 89.8491C38.744 89.7541 38.37 89.5891 38.206 90.0851L37.171 92.9561ZM113.971 92.9561C113.811 93.3751 114.029 93.4621 114.081 93.5361C114.561 93.8851 115.049 94.1361 115.541 94.4161C118.149 95.8011 120.612 96.2061 123.188 96.2061C128.434 96.2061 131.691 93.416 131.691 88.923V88.8361C131.691 84.6831 128.015 83.1741 124.565 82.0861L124.117 81.9391C121.516 81.0941 119.271 80.3661 119.271 78.6531V78.5631C119.271 77.0981 120.583 76.0191 122.616 76.0191C124.875 76.0191 127.556 76.7691 129.283 77.7241C129.283 77.7241 129.789 78.0521 129.975 77.5601C130.077 77.2981 130.951 74.9451 131.042 74.6901C131.141 74.4131 130.966 74.2091 130.787 74.1001C128.817 72.9001 126.091 72.0811 123.272 72.0811L122.747 72.0851C117.945 72.0851 114.594 74.9851 114.594 79.1421V79.229C114.594 83.612 118.291 85.0321 121.756 86.0231L122.313 86.1951C124.838 86.9701 127.017 87.6371 127.017 89.4151V89.5021C127.017 91.1271 125.599 92.3371 123.319 92.3371C120.926 92.3542 118.579 91.6783 116.561 90.3911C116.193 90.1761 115.974 90.0271 115.698 89.8491C115.603 89.7871 115.158 89.6151 115.005 90.0851L113.971 92.9561ZM166.4 84.1571C166.4 86.6971 165.926 88.6971 164.994 90.1101C164.072 91.5101 162.677 92.1901 160.731 92.1901C158.782 92.1901 157.394 91.5131 156.487 90.1101C155.569 88.7001 155.103 86.6971 155.103 84.1571C155.103 81.6221 155.569 79.6251 156.487 78.2271C157.394 76.8421 158.782 76.1681 160.731 76.1681C162.677 76.1681 164.071 76.8421 164.997 78.2261C165.927 79.6261 166.4 81.6221 166.4 84.1571ZM170.779 79.4501C170.349 77.9971 169.679 76.7151 168.786 75.6471C167.893 74.5761 166.764 73.717 165.423 73.09C164.086 72.467 162.505 72.1501 160.731 72.1501C158.953 72.1501 157.372 72.467 156.035 73.09C154.695 73.716 153.565 74.5761 152.669 75.6471C151.78 76.7181 151.109 78.0011 150.676 79.4501C150.25 80.8971 150.036 82.4781 150.036 84.1571C150.036 85.8371 150.25 87.4221 150.676 88.8641C151.11 90.3141 151.776 91.5961 152.673 92.6681C153.587 93.7565 154.737 94.6232 156.035 95.2031C157.375 95.8121 158.953 96.1211 160.731 96.1211C162.505 96.1211 164.083 95.8111 165.423 95.2031C166.721 94.6233 167.871 93.7566 168.786 92.6681C169.679 91.6001 170.349 90.3181 170.779 88.8641C171.209 87.4181 171.424 85.8341 171.424 84.1571C171.424 82.4821 171.209 80.8971 170.779 79.4501ZM206.738 91.5131C206.593 91.0871 206.181 91.2471 206.181 91.2471C205.544 91.4911 204.866 91.7171 204.145 91.8301C203.35 91.9479 202.548 92.0051 201.744 92.0011C199.624 92.0011 197.94 91.3711 196.734 90.1251C195.525 88.8791 194.847 86.8651 194.854 84.1391C194.862 81.6591 195.46 79.7931 196.534 78.3721C197.602 76.9591 199.226 76.2341 201.394 76.2341C203.201 76.2341 204.578 76.4411 206.021 76.8971C206.021 76.8971 206.367 77.0471 206.531 76.5941C206.913 75.5311 207.198 74.7691 207.606 73.6001C207.722 73.2681 207.438 73.1261 207.336 73.0861C206.768 72.8641 205.427 72.5031 204.414 72.3501C203.467 72.2051 202.36 72.1281 201.128 72.1281C199.288 72.1281 197.649 72.4411 196.246 73.0681C194.847 73.6911 193.66 74.5511 192.72 75.6221C191.78 76.6921 191.066 77.9751 190.589 79.4251C190.115 80.8711 189.875 82.4601 189.875 84.1391C189.875 87.7711 190.855 90.7081 192.789 92.8571C194.727 95.0141 197.639 96.1101 201.434 96.1101C203.678 96.1101 205.981 95.6551 207.634 95.0031C207.634 95.0031 207.952 94.8501 207.814 94.4821L206.738 91.5121V91.5131ZM214.401 81.7251C214.608 80.3151 214.998 79.1421 215.599 78.2281C216.506 76.8401 217.89 76.0781 219.836 76.0781C221.781 76.0781 223.067 76.8431 223.989 78.2281C224.601 79.1421 224.867 80.3661 224.972 81.7251H214.401ZM229.144 78.6251C228.772 77.2221 227.85 75.8051 227.246 75.1571C226.291 74.1291 225.359 73.4111 224.433 73.0111C223.089 72.4413 221.644 72.1488 220.185 72.1511C218.335 72.1511 216.655 72.4611 215.293 73.1011C213.927 73.7431 212.779 74.6171 211.879 75.7071C210.979 76.7921 210.302 78.0861 209.872 79.5541C209.438 81.0141 209.22 82.6071 209.22 84.2861C209.22 85.9951 209.446 87.5861 209.894 89.0181C210.345 90.4611 211.067 91.7331 212.044 92.7851C213.016 93.8451 214.269 94.6761 215.77 95.2551C217.26 95.8311 219.07 96.1301 221.15 96.1261C225.431 96.1111 227.687 95.1571 228.615 94.6431C228.779 94.5531 228.936 94.3921 228.739 93.9331L227.77 91.2191C227.625 90.8141 227.213 90.9641 227.213 90.9641C226.153 91.357 224.645 92.0641 221.129 92.0571C218.83 92.0531 217.125 91.3751 216.058 90.3151C214.961 89.2301 214.426 87.6351 214.331 85.3831L229.155 85.3971C229.155 85.3971 229.545 85.3901 229.585 85.0111C229.599 84.8511 230.095 81.9651 229.144 78.6251ZM95.684 81.7251C95.895 80.3151 96.281 79.1421 96.883 78.2281C97.79 76.8401 99.174 76.0781 101.119 76.0781C103.065 76.0781 104.351 76.8431 105.276 78.2281C105.885 79.1421 106.151 80.3661 106.256 81.7251H95.684ZM110.424 78.6251C110.052 77.2221 109.134 75.8051 108.529 75.1571C107.575 74.1291 106.642 73.4111 105.717 73.0111C104.373 72.4413 102.928 72.1488 101.469 72.1511C99.622 72.1511 97.939 72.4611 96.577 73.1011C95.21 73.7431 94.063 74.6171 93.163 75.7071C92.263 76.7921 91.586 78.0861 91.156 79.5541C90.726 81.0141 90.504 82.6071 90.504 84.2861C90.504 85.9951 90.729 87.5861 91.178 89.0181C91.629 90.4611 92.351 91.7331 93.327 92.7851C94.3 93.8451 95.553 94.6761 97.054 95.2551C98.544 95.8311 100.354 96.1301 102.434 96.1261C106.715 96.1111 108.97 95.1571 109.899 94.6431C110.063 94.5531 110.219 94.3921 110.023 93.9331L109.058 91.2191C108.908 90.8141 108.497 90.9641 108.497 90.9641C107.437 91.357 105.932 92.0641 102.409 92.0571C100.114 92.0531 98.409 91.3751 97.342 90.3151C96.245 89.2301 95.709 87.6351 95.615 85.3831L110.438 85.3971C110.438 85.3971 110.828 85.3901 110.868 85.0111C110.883 84.8511 111.378 81.9651 110.424 78.6251ZM63.643 91.4311C63.063 90.9691 62.983 90.8521 62.787 90.5531C62.495 90.0981 62.346 89.4491 62.346 88.6261C62.346 87.3221 62.776 86.3861 63.668 85.7561C63.658 85.7591 64.943 84.6441 67.968 84.6841C70.091 84.7141 71.989 85.0271 71.989 85.0271V91.7671H71.993C71.993 91.7671 70.109 92.171 67.989 92.298C64.972 92.48 63.632 91.4281 63.643 91.4311ZM69.541 81.0161C68.94 80.9721 68.161 80.9461 67.228 80.9461C65.956 80.9461 64.728 81.1061 63.578 81.4161C62.4675 81.7041 61.4183 82.1906 60.481 82.8521C59.5859 83.4905 58.8502 84.3269 58.331 85.2961C57.807 86.2731 57.541 87.4241 57.541 88.7131C57.541 90.0251 57.766 91.1651 58.218 92.0981C58.6587 93.0203 59.3241 93.817 60.153 94.4151C60.976 95.0161 61.993 95.4571 63.173 95.7231C64.335 95.9891 65.653 96.1231 67.096 96.1231C68.616 96.1231 70.131 96.0001 71.599 95.7481C72.8484 95.5329 74.0933 95.2925 75.333 95.0271C75.825 94.9101 76.372 94.7611 76.372 94.7611C76.74 94.6701 76.71 94.2761 76.71 94.2761L76.703 80.7211C76.703 77.7481 75.909 75.5441 74.346 74.1781C72.791 72.8151 70.499 72.1271 67.537 72.1271C66.427 72.1271 64.637 72.2801 63.567 72.4951C63.567 72.4951 60.327 73.1211 58.994 74.1631C58.994 74.1631 58.703 74.3451 58.863 74.7531L59.913 77.5731C60.043 77.9371 60.397 77.8131 60.397 77.8131C60.397 77.8131 60.51 77.7701 60.641 77.6931C63.493 76.1411 67.1 76.1891 67.1 76.1891C68.703 76.1891 69.934 76.5091 70.765 77.1471C71.574 77.7661 71.985 78.7021 71.985 80.6771V81.3031C70.71 81.1211 69.541 81.0161 69.541 81.0161ZM189.101 73.3771C189.122 73.3276 189.134 73.2744 189.134 73.2205C189.134 73.1666 189.124 73.1132 189.103 73.0636C189.082 73.0139 189.051 72.9689 189.013 72.9314C188.974 72.8938 188.928 72.8645 188.878 72.8451C188.627 72.7471 187.366 72.4811 186.393 72.4191C184.532 72.3061 183.497 72.6191 182.572 73.0351C181.654 73.4501 180.634 74.1201 180.065 74.8821V73.0781C180.065 72.8271 179.887 72.6271 179.639 72.6271H175.839C175.592 72.6271 175.413 72.8271 175.413 73.0781V95.1881C175.413 95.4361 175.617 95.6401 175.865 95.6401H179.759C179.818 95.6398 179.877 95.6279 179.931 95.605C179.986 95.5822 180.035 95.5488 180.077 95.5068C180.118 95.4649 180.151 95.4151 180.174 95.3604C180.196 95.3057 180.207 95.2472 180.207 95.1881V84.1421C180.207 82.6601 180.371 81.1801 180.699 80.2521C181.019 79.3331 181.457 78.5981 181.996 78.0691C182.511 77.5621 183.139 77.185 183.829 76.9691C184.517 76.7581 185.279 76.6891 185.818 76.6891C186.594 76.6891 187.446 76.8891 187.446 76.8891C187.73 76.9221 187.891 76.7471 187.986 76.4891C188.24 75.8111 188.962 73.7811 189.1 73.3771" fill="white"/>
<path d="M152.545 63.13C152.064 62.9846 151.575 62.8677 151.08 62.78C150.414 62.6709 149.74 62.62 149.066 62.628C146.384 62.628 144.271 63.385 142.789 64.879C141.313 66.365 140.311 68.628 139.809 71.604L139.626 72.606H136.26C136.26 72.606 135.852 72.591 135.765 73.036L135.215 76.122C135.175 76.413 135.302 76.599 135.695 76.599H138.971L135.648 95.149C135.39 96.643 135.091 97.871 134.759 98.803C134.435 99.721 134.119 100.41 133.725 100.913C133.345 101.393 132.989 101.751 132.369 101.958C131.859 102.13 131.269 102.21 130.624 102.21C130.267 102.21 129.79 102.151 129.437 102.079C129.16 102.025 128.891 101.938 128.635 101.819C128.635 101.819 128.253 101.674 128.1 102.057C127.98 102.374 127.105 104.774 127 105.07C126.898 105.365 127.043 105.594 127.229 105.663C127.666 105.816 127.99 105.918 128.584 106.06C129.408 106.254 130.104 106.264 130.756 106.264C132.118 106.264 133.364 106.071 134.395 105.7C135.43 105.325 136.333 104.672 137.135 103.79C137.998 102.836 138.541 101.838 139.058 100.472C139.572 99.124 140.013 97.448 140.362 95.496L143.703 76.599H148.585C148.585 76.599 148.996 76.613 149.08 76.165L149.634 73.083C149.67 72.788 149.547 72.606 149.149 72.606H144.409C144.435 72.5 144.65 70.832 145.193 69.262C145.426 68.595 145.863 68.052 146.231 67.681C146.578 67.3281 147.004 67.0631 147.474 66.908C147.944 66.755 148.479 66.682 149.066 66.682C149.51 66.682 149.951 66.733 150.282 66.802C150.742 66.901 150.92 66.952 151.04 66.988C151.525 67.134 151.59 66.992 151.685 66.758L152.818 63.648C152.935 63.313 152.647 63.17 152.545 63.13ZM86.323 95.19C86.323 95.437 86.144 95.638 85.897 95.638H81.966C81.718 95.638 81.543 95.438 81.543 95.19V63.553C81.543 63.306 81.718 63.105 81.966 63.105H85.896C86.144 63.105 86.323 63.305 86.323 63.553V95.19Z" fill="white"/>
</svg>
