<svg width="200" height="200" viewBox="0 0 200 200" fill="none" xmlns="http://www.w3.org/2000/svg">
<path d="M0 50.5188V149.488H101.075L200 50.5188H0ZM27.2188 68.9438H27.25C34.4437 68.9438 43.2 70.9688 49.5438 74.2188L42.7125 86.1375C35.7438 82.7563 32.2625 82.4625 28.2937 82.2313C22.4 81.9063 19.4375 84.025 19.3687 86.3C19.3375 89.075 24.9688 91.5751 30.275 93.3C38.2812 95.8438 48.5 99.2563 50.0687 109.125L64.75 70.325H81.8L98.9938 116.775L98.925 70.325H118.681C137.5 70.325 146.35 76.7 146.35 91.3188C146.35 104.438 137.275 112.288 121.875 112.288H115.525L115.431 129.731L85.55 129.7L83.4688 122.119C80.159 123.203 76.6953 123.744 73.2125 123.719C69.6315 123.74 66.0708 123.18 62.6688 122.063L59.7 129.706L43.0312 129.738L43.7812 125.894C43.539 126.111 43.2888 126.32 43.0312 126.519C38.6063 130.094 32.975 131.763 26.075 131.888H24.2812C16.7487 131.977 9.33034 130.043 2.8 126.288L8.88125 114.213C15.4563 118.119 19.6 118.963 25.1625 118.869C28.0562 118.8 30.1375 118.275 31.5062 116.875C32.3192 116.047 32.7862 114.941 32.8125 113.781C32.8688 110.656 28.3813 109.2 22.9438 107.5C18.5187 106.131 13.4688 104.25 9.5625 101.35C4.9125 97.9688 2.6625 93.6688 2.79375 87.6188C2.82202 83.3327 4.51389 79.2252 7.5125 76.1625C11.8438 71.6688 18.8125 68.9626 27.2125 68.9626L27.2188 68.9438ZM115.494 82.8438V98.7375H119.862C125.619 98.7375 130.244 96.8125 130.244 90.6938C130.244 84.7688 125.619 82.8438 119.862 82.8438H115.494ZM73.1062 89.2563L66.8875 108.913C68.8958 109.663 71.0249 110.038 73.1687 110.019C75.4187 110.019 77.5375 109.625 79.35 108.975L73.2312 89.2188L73.1062 89.2563Z" fill="url(#paint0_linear_1152_5167)"/>
<defs>
<linearGradient id="paint0_linear_1152_5167" x1="100" y1="50.5188" x2="100" y2="149.488" gradientUnits="userSpaceOnUse">
<stop stop-color="#00A6E7"/>
<stop offset="1" stop-color="#006BB6"/>
</linearGradient>
</defs>
</svg>
