<svg width="512" height="123" viewBox="0 0 512 123" fill="none" xmlns="http://www.w3.org/2000/svg">
<path d="M207.787 45.3979C223.063 45.3979 226.483 54.3059 226.483 64.5859V74.8249H199.862V77.2819C199.964 82.9749 202.012 85.2269 209.261 85.2269C214.205 85.2022 219.119 84.4432 223.841 82.9749L225.704 91.9849C220.083 94.0108 214.151 95.0363 208.176 95.0149C193.206 95.0149 188.006 88.0729 188.006 76.5849V63.9929C188.006 53.9179 192.51 45.3989 207.786 45.3989L207.787 45.3979ZM308.167 45.3779C323.137 45.3779 327.559 50.6609 327.559 62.5999L327.519 94.0319H317.73L316.85 90.7969C312.627 93.5452 307.697 95.0103 302.659 95.0149C293.956 95.0149 290.229 89.0349 290.229 80.8249C290.229 71.1389 294.447 67.4119 304.133 67.4119H315.58V62.4149C315.58 57.1319 314.106 55.2689 306.467 55.2689C302.026 55.3183 297.601 55.8121 293.259 56.7429L291.785 47.6309C297.121 46.1562 302.63 45.3985 308.167 45.3779ZM387.517 45.3779C403.858 45.3779 408.261 54.3879 408.261 64.1759V76.2169C408.281 86.0049 403.858 95.0149 387.517 95.0149C371.135 95.0149 366.774 86.0049 366.774 76.2169V64.1769C366.774 54.3879 371.176 45.3779 387.517 45.3779ZM198.019 28.8319V39.7059H179.794V94.0319H167.508L167.467 39.7059H149.262V28.8319H198.019ZM355.224 24.9209C358.684 24.9089 362.129 25.3709 365.463 26.2929L364.213 35.4869C361.957 35.0018 359.659 34.7412 357.353 34.7089C352.665 34.7089 351.968 36.7569 351.968 40.3819V46.3609H364.111L363.436 55.8619H351.989V94.0319H340.05V55.8619H332.412V46.3609H340.05V39.7059C340.05 29.8159 344.658 24.9209 355.224 24.9209ZM482.042 50.4769C487.999 47.4248 494.542 45.686 501.229 45.3779C509.154 45.3779 512.001 50.9479 512.001 59.4669V94.0319H500.062V60.7569C500.062 58.2169 498.977 56.9469 496.253 56.9469C491.869 57.4303 487.635 58.8256 483.823 61.0429V94.0329H471.802V60.7559C471.802 58.2159 470.717 56.9459 467.994 56.9459C463.618 57.4661 459.391 58.8589 455.564 61.0419V94.0319H443.625V46.3599H452.738L453.905 50.4549C459.855 47.4448 466.371 45.7149 473.031 45.3769C474.874 45.2031 476.726 45.5988 478.337 46.5106C479.948 47.4224 481.241 48.8064 482.041 50.4759L482.042 50.4769ZM257.179 45.3779L258.408 56.3539C254.01 58.3385 249.772 60.6594 245.732 63.2959V94.0119H233.794V46.3609H243.869L244.647 51.6439C248.531 49.0147 252.745 46.9079 257.179 45.3779ZM286.38 45.3779L287.568 56.3539C283.184 58.3399 278.96 60.6608 274.933 63.2959V94.0119H262.995V46.3609H273.07L273.848 51.6439C277.732 49.0147 281.946 46.9079 286.38 45.3779ZM437.81 45.3779L438.998 56.3539C434.614 58.34 430.391 60.6608 426.364 63.2959V94.0119H414.426V46.3609H424.5L425.279 51.6439C429.163 49.0143 433.376 46.9075 437.811 45.3779H437.81ZM315.58 76.0119H306.776C302.864 76.0119 301.779 77.0979 301.779 80.7019C301.779 84.3059 302.864 85.4929 306.571 85.4929C309.733 85.4447 312.832 84.5996 315.581 83.0359V76.0119H315.58ZM387.518 55.5549C381.15 55.5549 378.713 58.4019 378.713 63.7459V76.5659C378.713 81.9509 381.17 84.7559 387.518 84.7559C393.866 84.7559 396.323 81.9099 396.323 76.5659V63.7859C396.323 58.4009 393.887 55.5539 387.518 55.5539V55.5549ZM207.89 55.1659C202.013 55.1659 199.965 58.2989 199.965 62.8039V65.2209H215.139V62.8039C215.139 58.2989 213.767 55.1659 207.89 55.1659Z" fill="black"/>
<path d="M74.5391 79.821L108.122 60.449V21.645L74.5391 41.057V79.821Z" fill="#4040B2"/>
<path d="M37.269 21.645L70.852 41.057V79.821L37.269 60.43V21.645ZM0 38.784L33.583 58.176V19.392L0 0V38.784ZM37.269 103.473L70.852 122.865V84.08L37.269 64.688" fill="#5C4EE5"/>
</svg>
