<svg width="200" height="200" viewBox="0 0 200 200" fill="none" xmlns="http://www.w3.org/2000/svg">
<g clip-path="url(#clip0_1152_4608)">
<path d="M4.16748 84.1667C3.59885 84.1877 3.04037 84.3237 2.52582 84.5667C2.00518 84.7879 1.53537 85.1135 1.14539 85.5233C0.755401 85.933 0.453497 86.4184 0.258294 86.9493C0.0630905 87.4803 -0.0212731 88.0456 0.0104056 88.6104C0.0420843 89.1752 0.189134 89.7276 0.442485 90.2334L9.92582 110.858C11.4175 114.025 13.0925 115.792 15.9342 115.792C18.7842 115.792 20.4508 113.958 21.9342 110.858L30.2925 92.6417C30.3844 92.4025 30.5505 92.1991 30.7665 92.0611C30.9824 91.9232 31.2368 91.8579 31.4925 91.875C31.8418 91.8816 32.1745 92.0249 32.4192 92.2743C32.6638 92.5236 32.8009 92.859 32.8008 93.2084V110.858C32.7474 111.474 32.8226 112.094 33.0216 112.679C33.2206 113.264 33.539 113.801 33.9566 114.257C34.3743 114.712 34.882 115.076 35.4477 115.325C36.0133 115.573 36.6245 115.702 37.2425 115.702C37.8604 115.702 38.4716 115.573 39.0373 115.325C39.6029 115.076 40.1107 114.712 40.5283 114.257C40.946 113.801 41.2644 113.264 41.4634 112.679C41.6623 112.094 41.7375 111.474 41.6842 110.858V96.4417C41.6582 95.8207 41.7633 95.2011 41.9928 94.6234C42.2222 94.0458 42.5708 93.5229 43.0158 93.0889C43.4608 92.6549 43.9922 92.3196 44.5754 92.1047C45.1587 91.8898 45.7806 91.8002 46.4008 91.8417C47.0068 91.8161 47.6115 91.918 48.1756 92.1408C48.7398 92.3636 49.2509 92.7024 49.6758 93.1352C50.1008 93.568 50.4301 94.0852 50.6426 94.6534C50.855 95.2215 50.9459 95.8279 50.9092 96.4334V110.85C50.836 111.472 50.8958 112.103 51.0846 112.7C51.2735 113.298 51.5871 113.848 52.0046 114.316C52.4221 114.783 52.9341 115.156 53.5066 115.41C54.0792 115.665 54.6993 115.795 55.3258 115.792C55.9519 115.79 56.5708 115.658 57.1427 115.403C57.7146 115.148 58.2269 114.776 58.6467 114.312C59.0665 113.847 59.3846 113.3 59.5805 112.705C59.7763 112.111 59.8457 111.481 59.7841 110.858V96.4417C59.7584 95.8222 59.8631 95.2041 60.0916 94.6277C60.32 94.0512 60.6671 93.5292 61.1102 93.0955C61.5534 92.6618 62.0827 92.326 62.6639 92.11C63.2452 91.894 63.8653 91.8026 64.4841 91.8417C65.0915 91.8137 65.698 91.9138 66.2642 92.1355C66.8303 92.3573 67.3435 92.6957 67.7702 93.1288C68.197 93.5619 68.5279 94.0799 68.7414 94.6492C68.9548 95.2186 69.046 95.8264 69.0091 96.4334V110.85C68.9361 111.471 68.9955 112.1 69.1834 112.696C69.3713 113.293 69.6833 113.842 70.0991 114.309C70.5148 114.776 71.0247 115.15 71.5952 115.405C72.1658 115.661 72.784 115.792 73.4091 115.792C74.0368 115.795 74.6582 115.666 75.2326 115.413C75.807 115.16 76.3214 114.788 76.7423 114.323C77.1631 113.857 77.4809 113.308 77.6748 112.711C77.8687 112.114 77.9344 111.482 77.8675 110.858V94.45C77.8641 93.0673 77.5819 91.6996 77.0378 90.4284C76.4936 89.1573 75.6988 88.009 74.7007 87.0521C73.7026 86.0953 72.5217 85.3495 71.2288 84.8594C69.9359 84.3694 68.5574 84.1451 67.1758 84.2C63.6026 84.2617 60.1945 85.7147 57.6758 88.25C56.6077 86.8752 55.2146 85.7876 53.6217 85.085C52.0288 84.3824 50.2863 84.0869 48.5508 84.225C45.2017 84.5297 42.051 85.9466 39.6008 88.25C38.6353 87.0412 37.4196 86.0556 36.0373 85.3608C34.6549 84.6661 33.1387 84.2786 31.5925 84.225C29.4948 84.1403 27.4252 84.7309 25.6882 85.9099C23.9511 87.0889 22.6382 88.7942 21.9425 90.775L15.8675 105.075L8.09248 86.7167L8.18415 86.6834C7.84492 85.9089 7.28028 85.2546 6.56383 84.8057C5.84738 84.3568 5.01233 84.1342 4.16748 84.1667ZM157.751 84.6667C157.455 84.671 157.164 84.7335 156.892 84.8507C156.621 84.9678 156.375 85.1372 156.17 85.3492C155.964 85.5612 155.802 85.8117 155.693 86.0864C155.584 86.3611 155.53 86.6545 155.534 86.95H155.551V113.133C155.507 113.452 155.532 113.776 155.624 114.083C155.716 114.391 155.873 114.676 156.084 114.918C156.296 115.16 156.556 115.354 156.849 115.487C157.141 115.62 157.459 115.689 157.78 115.689C158.101 115.689 158.419 115.62 158.711 115.487C159.004 115.354 159.264 115.16 159.476 114.918C159.687 114.676 159.844 114.391 159.936 114.083C160.028 113.776 160.053 113.452 160.009 113.133V102.95C160.009 94.3084 164.767 89.95 170.592 89.2584C171.151 89.1996 171.666 88.9313 172.034 88.5075C172.402 88.0837 172.596 87.536 172.576 86.975C172.589 86.6794 172.54 86.3843 172.434 86.1082C172.327 85.8321 172.165 85.581 171.957 85.3705C171.749 85.1601 171.499 84.9949 171.224 84.8853C170.949 84.7756 170.655 84.7239 170.359 84.7334C168.128 84.8902 165.982 85.6571 164.157 86.9503C162.332 88.2435 160.897 90.0134 160.009 92.0667V86.95C160.018 86.6498 159.966 86.3509 159.856 86.0714C159.746 85.7919 159.581 85.5377 159.37 85.3242C159.158 85.1106 158.906 84.9422 158.628 84.8292C158.349 84.7162 158.051 84.6609 157.751 84.6667ZM101.626 84.7334C101.128 84.765 100.655 84.959 100.279 85.2857C99.9024 85.6124 99.6437 86.0537 99.5425 86.5417L91.9425 108.433L84.4258 86.6C84.3117 86.0797 84.0229 85.6141 83.6075 85.2806C83.1922 84.9471 82.6752 84.7657 82.1425 84.7667C81.5602 84.7577 80.9978 84.9781 80.5767 85.3805C80.1557 85.7828 79.9099 86.3346 79.8925 86.9167C79.926 87.3287 80.0215 87.7332 80.1758 88.1167L89.2591 113.425L89.4258 113.367C89.5647 113.927 89.8822 114.427 90.3302 114.79C90.7782 115.154 91.3324 115.362 91.9091 115.383C92.4864 115.381 93.0449 115.179 93.49 114.811C93.9351 114.443 94.2392 113.933 94.3508 113.367L101.876 91.8417L109.342 113.367C109.454 113.933 109.758 114.443 110.203 114.811C110.648 115.179 111.207 115.381 111.784 115.383H111.934C112.504 115.354 113.048 115.141 113.488 114.778C113.928 114.415 114.239 113.92 114.376 113.367L123.517 88.05C123.667 87.6654 123.759 87.2612 123.792 86.85C123.775 86.2812 123.533 85.7425 123.119 85.352C122.705 84.9615 122.153 84.751 121.584 84.7667C121.08 84.764 120.59 84.936 120.198 85.2535C119.806 85.571 119.536 86.0144 119.434 86.5084L111.784 108.425L104.251 86.5417C104.124 86.024 103.826 85.5642 103.406 85.2362C102.986 84.9082 102.467 84.7311 101.934 84.7334H101.726C101.692 84.7326 101.659 84.7326 101.626 84.7334ZM186.359 84.8C184.413 84.8624 182.499 85.3139 180.73 86.1279C178.961 86.942 177.373 88.1021 176.059 89.5397C174.746 90.9774 173.734 92.6636 173.082 94.4988C172.431 96.334 172.154 98.281 172.267 100.225C172.162 102.217 172.464 104.21 173.153 106.082C173.842 107.954 174.905 109.667 176.277 111.115C177.649 112.563 179.301 113.717 181.134 114.507C182.966 115.297 184.939 115.705 186.934 115.708L186.867 115.817C188.925 115.876 190.973 115.508 192.881 114.734C194.789 113.961 196.515 112.8 197.951 111.325C198.159 111.151 198.328 110.935 198.446 110.691C198.564 110.446 198.628 110.18 198.634 109.908C198.63 109.545 198.521 109.19 198.32 108.886C198.12 108.582 197.837 108.342 197.504 108.195C197.172 108.047 196.804 107.999 196.444 108.054C196.084 108.11 195.748 108.267 195.476 108.508C194.358 109.614 193.034 110.489 191.578 111.082C190.123 111.676 188.564 111.976 186.992 111.967C184.297 111.974 181.706 110.925 179.774 109.045C177.843 107.165 176.725 104.603 176.659 101.908H197.951C198.495 101.906 199.017 101.688 199.401 101.303C199.785 100.917 200.001 100.394 200.001 99.85C200.001 91.975 195.059 84.8 186.359 84.8ZM138.492 84.8167C138.053 84.8112 137.614 84.8279 137.176 84.8667C134.089 84.7299 131.013 85.3148 128.192 86.575C127.82 86.7129 127.503 86.9678 127.288 87.3013C127.073 87.6349 126.972 88.0292 127.001 88.425C127.024 88.9323 127.239 89.4117 127.603 89.7661C127.967 90.1205 128.451 90.3233 128.959 90.3334C129.233 90.3163 129.502 90.2485 129.751 90.1334C131.929 89.142 134.31 88.6794 136.701 88.7834C142.459 88.7834 145.617 91.5667 145.617 96.9417V97.9834C142.632 97.1173 139.534 96.6961 136.426 96.7334C128.992 96.7334 123.759 100.067 123.759 106.4L123.734 106.367C123.734 112.5 129.326 115.675 134.901 115.675C136.985 115.735 139.052 115.297 140.933 114.399C142.814 113.5 144.454 112.167 145.717 110.508V113.367C145.714 113.644 145.767 113.919 145.872 114.176C145.978 114.432 146.134 114.665 146.332 114.859C146.529 115.054 146.764 115.207 147.023 115.308C147.281 115.41 147.557 115.458 147.834 115.45C148.121 115.455 148.405 115.401 148.67 115.293C148.935 115.184 149.176 115.023 149.377 114.819C149.578 114.615 149.735 114.372 149.84 114.105C149.944 113.838 149.993 113.553 149.984 113.267V96.7417C150.074 95.1508 149.84 93.5583 149.297 92.0602C148.754 90.5621 147.914 89.1894 146.826 88.025C144.51 86.012 141.56 84.8765 138.492 84.8167ZM186.151 88.4C192.101 88.4 195.192 93.1084 195.642 98.5167H176.659C176.668 95.9416 177.652 93.4656 179.413 91.5869C181.174 89.7083 183.582 88.5666 186.151 88.3917V88.4ZM137.109 99.9167C140.091 99.9193 143.057 100.349 145.917 101.192V104.083C145.917 108.833 141.426 112.192 135.917 112.192C131.876 112.192 128.384 110.017 128.384 106.25C128.384 102.358 131.509 99.9167 137.109 99.9167Z" fill="#222222"/>
</g>
<defs>
<clipPath id="clip0_1152_4608">
<rect width="200" height="200" fill="white"/>
</clipPath>
</defs>
</svg>
