<svg width="16" height="16" viewBox="0 0 16 16" fill="none" xmlns="http://www.w3.org/2000/svg">
<g clip-path="url(#clip0_5041_105029)">
<path opacity="0.78" d="M7.97087 8.05816C7.97087 8.1018 7.97087 8.1418 7.96722 8.18544C7.9162 9.68362 6.95037 11 5.52531 11.4982L2.5695 12.5309L2.55128 12.5382L0.0182495 13.4254L7.40595 2.49453L7.46791 2.40362C7.59547 2.23634 7.76677 2.07634 7.97087 2.01453V4.52362V8.05816Z" fill="#020013"/>
<path opacity="0.78" d="M15.9891 13.389L13.5545 12.5381L13.4378 12.4981L10.4857 11.4654C9.02051 10.9527 8.0401 9.5745 8.0401 8.02541V2.01086C8.2442 2.07268 8.41914 2.19632 8.54671 2.36359L8.60867 2.4545L15.9891 13.389Z" fill="#020013"/>
<path opacity="0.3" d="M7.97085 8.18542V9.66179C7.97085 10.9054 7.1836 12.0109 6.01002 12.4218L1.59271 13.9672L2.55854 12.5382L2.57677 12.5309L5.53258 11.4982C6.95399 11 7.91982 9.67997 7.97085 8.18542Z" fill="#020013"/>
<path d="M7.97082 4.52002V8.18547C7.91979 9.68002 6.95396 11 5.5289 11.4982L2.57309 12.5309L2.55487 12.5382L7.97082 4.52002Z" fill="#020013"/>
<path opacity="0.3" d="M14.4182 13.8181L10.0009 12.2727C8.82734 11.8618 8.0401 10.7563 8.0401 9.51266V8.02539C8.0401 9.57448 9.02051 10.9527 10.4857 11.4654L13.4415 12.4981L13.5581 12.5381L14.4182 13.8181Z" fill="#020013"/>
<path d="M13.5545 12.5345L13.4378 12.4945L10.4857 11.4618C9.02051 10.949 8.0401 9.57085 8.0401 8.02176V4.37085L13.5545 12.5345Z" fill="#020013"/>
</g>
<defs>
<clipPath id="clip0_5041_105029">
<rect width="16" height="12" fill="white" transform="translate(0 2)"/>
</clipPath>
</defs>
</svg>