<svg width="64" height="64" viewBox="0 0 64 64" fill="none" xmlns="http://www.w3.org/2000/svg">
<path d="M26.8107 27.6754C24.2449 27.6754 21.7367 26.9146 19.6033 25.4891C17.4699 24.0636 15.8071 22.0375 14.8252 19.667C13.8433 17.2965 13.5864 14.6881 14.087 12.1716C14.5876 9.65506 15.8231 7.3435 17.6374 5.52919C19.4517 3.71489 21.7633 2.47934 24.2798 1.97877C26.7963 1.47821 29.4047 1.73511 31.7752 2.71701C34.1457 3.6989 36.1719 5.36168 37.5973 7.49507C39.0228 9.62847 39.7837 12.1367 39.7837 14.7025C39.7798 18.1419 38.4117 21.4394 35.9797 23.8714C33.5476 26.3035 30.2502 27.6716 26.8107 27.6754ZM26.8107 3.45923C24.587 3.45923 22.4132 4.11863 20.5643 5.35406C18.7154 6.58948 17.2743 8.34543 16.4233 10.3999C15.5723 12.4543 15.3497 14.7149 15.7835 16.8959C16.2173 19.0769 17.2881 21.0802 18.8605 22.6526C20.4329 24.225 22.4363 25.2959 24.6173 25.7297C26.7982 26.1635 29.0589 25.9408 31.1133 25.0899C33.1677 24.2389 34.9237 22.7978 36.1591 20.9489C37.3945 19.0999 38.0539 16.9262 38.0539 14.7025C38.0505 11.7216 36.8649 8.86386 34.7571 6.75609C32.6493 4.64832 29.7915 3.46266 26.8107 3.45923ZM38.0539 51.8917H5.18908C4.95971 51.8917 4.73973 51.8005 4.57753 51.6383C4.41534 51.4762 4.32422 51.2562 4.32422 51.0268V42.3781C4.32811 38.9387 5.69615 35.6412 8.12821 33.2092C10.5603 30.7771 13.8577 29.4091 17.2972 29.4052H36.3242C39.4559 29.4132 42.4797 30.5504 44.8406 32.608C47.2015 34.6656 48.7411 37.5057 49.177 40.6069L47.4628 40.8404C47.0847 38.1532 45.7502 35.6924 43.7042 33.9097C41.6582 32.1269 39.0379 31.1417 36.3242 31.1349H17.2972C14.3164 31.1383 11.4586 32.324 9.35081 34.4318C7.24304 36.5395 6.05738 39.3973 6.05395 42.3781V50.1619H38.0539V51.8917Z" fill="#FF6600"/>
<path d="M48.4307 62.2707C46.207 62.2707 44.0333 61.6113 42.1843 60.3758C40.3354 59.1404 38.8943 57.3845 38.0433 55.33C37.1924 53.2756 36.9697 51.015 37.4035 48.834C37.8374 46.653 38.9082 44.6497 40.4806 43.0773C42.053 41.5049 44.0563 40.434 46.2373 40.0002C48.4183 39.5664 50.6789 39.7891 52.7334 40.64C54.7878 41.491 56.5437 42.9321 57.7792 44.781C59.0146 46.63 59.674 48.8037 59.674 51.0274C59.6706 54.0083 58.4849 56.866 56.3771 58.9738C54.2694 61.0816 51.4116 62.2672 48.4307 62.2707ZM48.4307 41.5139C46.5492 41.5139 44.7098 42.0719 43.1453 43.1172C41.5808 44.1626 40.3615 45.6484 39.6414 47.3868C38.9214 49.1251 38.733 51.038 39.1 52.8834C39.4671 54.7289 40.3732 56.424 41.7037 57.7545C43.0342 59.085 44.7293 59.9911 46.5748 60.3581C48.4202 60.7252 50.333 60.5368 52.0714 59.8168C53.8098 59.0967 55.2956 57.8773 56.3409 56.3128C57.3863 54.7484 57.9443 52.909 57.9443 51.0274C57.9413 48.5052 56.938 46.0871 55.1545 44.3036C53.371 42.5202 50.953 41.5169 48.4307 41.5139Z" fill="#FF6600"/>
<path d="M48.4321 56.2166C47.5731 56.2692 46.728 55.9808 46.0803 55.4141C45.4326 54.8473 45.0346 54.048 44.9727 53.1896H46.7024C46.7024 53.8927 47.4946 54.4869 48.4321 54.4869C49.3696 54.4869 50.1618 53.8927 50.1618 53.1896C50.1618 52.7987 49.9231 52.3662 48.1891 51.8568C47.3078 51.5991 44.9727 50.9141 44.9727 48.8653C45.0853 48.0276 45.498 47.2593 46.1342 46.7029C46.7704 46.1465 47.5869 45.8398 48.4321 45.8398C49.2773 45.8398 50.0938 46.1465 50.73 46.7029C51.3662 47.2593 51.7789 48.0276 51.8916 48.8653H50.1618C50.1618 48.1621 49.3696 47.568 48.4321 47.568C47.4946 47.568 46.7024 48.1621 46.7024 48.8653C46.7024 49.1887 46.9065 49.6782 48.6751 50.198C49.6429 50.48 51.8916 51.1416 51.8916 53.1896C51.8296 54.048 51.4316 54.8473 50.7839 55.4141C50.1362 55.9808 49.2911 56.2692 48.4321 56.2166Z" fill="#FF6600"/>
<path d="M49.2961 55.3516H47.5664V57.9462H49.2961V55.3516Z" fill="#FF6600"/>
<path d="M49.2961 44.1084H47.5664V46.703H49.2961V44.1084Z" fill="#FF6600"/>
</svg>
