<svg width="64" height="64" viewBox="0 0 64 64" fill="none" xmlns="http://www.w3.org/2000/svg">
<path d="M8.0013 50.6667C7.64768 50.6667 7.30854 50.5262 7.05849 50.2761C6.80844 50.0261 6.66797 49.687 6.66797 49.3333V33.3333C6.66797 32.9797 6.80844 32.6406 7.05849 32.3905C7.30854 32.1405 7.64768 32 8.0013 32H16.0013C16.3549 32 16.6941 32.1405 16.9441 32.3905C17.1942 32.6406 17.3346 32.9797 17.3346 33.3333C17.3346 33.687 17.1942 34.0261 16.9441 34.2761C16.6941 34.5262 16.3549 34.6667 16.0013 34.6667H9.33464V49.3333C9.33464 49.687 9.19416 50.0261 8.94411 50.2761C8.69406 50.5262 8.35492 50.6667 8.0013 50.6667Z" fill="#7858A3"/>
<path d="M13.3346 42.6667H8.0013C7.64768 42.6667 7.30854 42.5262 7.05849 42.2761C6.80844 42.0261 6.66797 41.687 6.66797 41.3333C6.66797 40.9797 6.80844 40.6406 7.05849 40.3905C7.30854 40.1405 7.64768 40 8.0013 40H13.3346C13.6883 40 14.0274 40.1405 14.2774 40.3905C14.5275 40.6406 14.668 40.9797 14.668 41.3333C14.668 41.687 14.5275 42.0261 14.2774 42.2761C14.0274 42.5262 13.6883 42.6667 13.3346 42.6667ZM29.3346 50.6667C28.9809 50.6667 28.6415 50.5267 28.3906 50.2773L22.668 44.552V49.3333C22.668 49.687 22.5275 50.0261 22.2774 50.2761C22.0274 50.5262 21.6883 50.6667 21.3346 50.6667C20.981 50.6667 20.6419 50.5262 20.3918 50.2761C20.1418 50.0261 20.0013 49.687 20.0013 49.3333V41.3413V33.3333C20.0013 32.9797 20.1418 32.6406 20.3918 32.3905C20.6419 32.1405 20.981 32 21.3346 32H25.3346C28.276 32 30.668 34.392 30.668 37.3333C30.668 40.2747 28.276 42.6667 25.3346 42.6667H24.5533L30.276 48.3893C30.4628 48.5757 30.5901 48.8132 30.6418 49.0719C30.6935 49.3306 30.6674 49.5988 30.5666 49.8427C30.4658 50.0865 30.2949 50.2949 30.0756 50.4416C29.8563 50.5883 29.5985 50.6666 29.3346 50.6667ZM22.668 40H25.3346C26.0212 39.9693 26.6696 39.6749 27.1446 39.1782C27.6196 38.6814 27.8847 38.0206 27.8847 37.3333C27.8847 36.646 27.6196 35.9852 27.1446 35.4885C26.6696 34.9918 26.0212 34.6974 25.3346 34.6667H22.668V40ZM42.668 50.6667H34.668C34.3143 50.6667 33.9752 50.5262 33.7252 50.2761C33.4751 50.0261 33.3346 49.687 33.3346 49.3333V33.3333C33.3346 32.9797 33.4751 32.6406 33.7252 32.3905C33.9752 32.1405 34.3143 32 34.668 32H42.668C43.0216 32 43.3607 32.1405 43.6108 32.3905C43.8608 32.6406 44.0013 32.9797 44.0013 33.3333C44.0013 33.687 43.8608 34.0261 43.6108 34.2761C43.3607 34.5262 43.0216 34.6667 42.668 34.6667H36.0013V48H42.668C43.0216 48 43.3607 48.1405 43.6108 48.3905C43.8608 48.6406 44.0013 48.9797 44.0013 49.3333C44.0013 49.687 43.8608 50.0261 43.6108 50.2761C43.3607 50.5262 43.0216 50.6667 42.668 50.6667Z" fill="#7858A3"/>
<path d="M39.9987 42.6667H34.6654C34.3117 42.6667 33.9726 42.5262 33.7226 42.2761C33.4725 42.0261 33.332 41.687 33.332 41.3333C33.332 40.9797 33.4725 40.6406 33.7226 40.3905C33.9726 40.1405 34.3117 40 34.6654 40H39.9987C40.3523 40 40.6915 40.1405 40.9415 40.3905C41.1916 40.6406 41.332 40.9797 41.332 41.3333C41.332 41.687 41.1916 42.0261 40.9415 42.2761C40.6915 42.5262 40.3523 42.6667 39.9987 42.6667ZM55.9987 50.6667H47.9987C47.6451 50.6667 47.3059 50.5262 47.0559 50.2761C46.8058 50.0261 46.6654 49.687 46.6654 49.3333V33.3333C46.6654 32.9797 46.8058 32.6406 47.0559 32.3905C47.3059 32.1405 47.6451 32 47.9987 32H55.9987C56.3523 32 56.6915 32.1405 56.9415 32.3905C57.1916 32.6406 57.332 32.9797 57.332 33.3333C57.332 33.687 57.1916 34.0261 56.9415 34.2761C56.6915 34.5262 56.3523 34.6667 55.9987 34.6667H49.332V48H55.9987C56.3523 48 56.6915 48.1405 56.9415 48.3905C57.1916 48.6406 57.332 48.9797 57.332 49.3333C57.332 49.687 57.1916 50.0261 56.9415 50.2761C56.6915 50.5262 56.3523 50.6667 55.9987 50.6667Z" fill="#7858A3"/>
<path d="M53.3346 42.6667H48.0013C47.6477 42.6667 47.3085 42.5262 47.0585 42.2761C46.8084 42.0261 46.668 41.687 46.668 41.3333C46.668 40.9797 46.8084 40.6406 47.0585 40.3905C47.3085 40.1405 47.6477 40 48.0013 40H53.3346C53.6883 40 54.0274 40.1405 54.2774 40.3905C54.5275 40.6406 54.668 40.9797 54.668 41.3333C54.668 41.687 54.5275 42.0261 54.2774 42.2761C54.0274 42.5262 53.6883 42.6667 53.3346 42.6667Z" fill="#7858A3"/>
<path d="M55.9987 56H7.9987C6.23124 55.9979 4.53678 55.2948 3.28699 54.045C2.03721 52.7953 1.33415 51.1008 1.33203 49.3333V33.3333C1.33203 29.6587 4.32136 26.6667 7.9987 26.6667H55.9987C59.676 26.6667 62.6654 29.6587 62.6654 33.3333V49.3333C62.6654 53.008 59.676 56 55.9987 56ZM7.9987 29.3333C5.79336 29.3333 3.9987 31.128 3.9987 33.3333V49.3333C3.9987 51.5387 5.79336 53.3333 7.9987 53.3333H55.9987C58.204 53.3333 59.9987 51.5387 59.9987 49.3333V33.3333C59.9987 31.128 58.204 29.3333 55.9987 29.3333H7.9987ZM31.9987 21.3333C28.3214 21.3333 25.332 18.3413 25.332 14.6667C25.332 10.992 28.3214 8 31.9987 8C35.676 8 38.6654 10.992 38.6654 14.6667C38.6654 18.3413 35.676 21.3333 31.9987 21.3333ZM31.9987 10.6667C29.7934 10.6667 27.9987 12.4613 27.9987 14.6667C27.9987 16.872 29.7934 18.6667 31.9987 18.6667C34.204 18.6667 35.9987 16.872 35.9987 14.6667C35.9987 12.4613 34.204 10.6667 31.9987 10.6667Z" fill="#7858A3"/>
<path d="M13.3331 29.3329C13.0695 29.3328 12.812 29.2547 12.5928 29.1083C12.3737 28.962 12.2028 28.754 12.1018 28.5106C12.0008 28.2672 11.9742 27.9994 12.0253 27.7409C12.0764 27.4824 12.203 27.2448 12.3891 27.0582L25.7224 13.7249C25.9739 13.482 26.3107 13.3476 26.6603 13.3506C27.0098 13.3537 27.3443 13.4939 27.5915 13.7411C27.8387 13.9883 27.9789 14.3227 27.9819 14.6723C27.985 15.0219 27.8506 15.3587 27.6077 15.6102L14.2744 28.9435C14.1508 29.0672 14.0041 29.1652 13.8425 29.232C13.681 29.2989 13.5079 29.3331 13.3331 29.3329ZM50.6664 29.3329C50.3126 29.3329 49.9732 29.1929 49.7224 28.9435L36.389 15.6102C36.1462 15.3587 36.0118 15.0219 36.0148 14.6723C36.0179 14.3227 36.1581 13.9883 36.4053 13.7411C36.6525 13.4939 36.9869 13.3537 37.3365 13.3506C37.6861 13.3476 38.0229 13.482 38.2744 13.7249L51.6077 27.0582C51.7936 27.2447 51.9201 27.482 51.9713 27.7402C52.0225 27.9985 51.9961 28.2661 51.8954 28.5094C51.7948 28.7527 51.6243 28.9607 51.4056 29.1072C51.1869 29.2538 50.9297 29.3323 50.6664 29.3329Z" fill="#7858A3"/>
</svg>
