<svg width="39" height="37" fill="none" xmlns="http://www.w3.org/2000/svg"><path d="M38.056 7.582a12.48 12.48 0 0 0-2.568-3.958A11.904 11.904 0 0 0 31.696.97 11.401 11.401 0 0 0 27.073 0c-2.226 0-4.397.645-6.284 1.865-.452.291-.88.612-1.287.96-.406-.349-.835-.669-1.286-.96A11.558 11.558 0 0 0 11.932 0c-1.603 0-3.156.325-4.623.97a11.88 11.88 0 0 0-3.792 2.654A12.403 12.403 0 0 0 .948 7.582 12.883 12.883 0 0 0 0 12.454c0 1.592.307 3.251.916 4.939.51 1.41 1.242 2.873 2.176 4.35 1.481 2.338 3.517 4.776 6.045 7.248 4.19 4.097 8.338 6.927 8.514 7.042l1.07.727c.474.32 1.084.32 1.558 0l1.07-.727c.176-.12 4.32-2.945 8.514-7.042 2.528-2.472 4.564-4.91 6.045-7.248.934-1.477 1.67-2.94 2.175-4.35.61-1.688.917-3.347.917-4.939a12.793 12.793 0 0 0-.944-4.872Z" fill="#C80808"/></svg>