<svg width="64" height="64" viewBox="0 0 64 64" fill="none" xmlns="http://www.w3.org/2000/svg">
<path d="M24.5523 24H10.0043C9.47271 24 8.96292 23.6975 8.58704 23.1591C8.21117 22.6207 8 21.8904 8 21.129V8.871C8 8.10956 8.21117 7.37931 8.58704 6.8409C8.96292 6.30248 9.47271 6 10.0043 6H42.9957C43.5273 6 44.0371 6.30248 44.413 6.8409C44.7888 7.37931 45 8.10956 45 8.871V21.129C45 21.8904 44.7888 22.6207 44.413 23.1591C44.0371 23.6975 43.5273 24 42.9957 24H31.0377" stroke="#FF5454" stroke-width="2" stroke-linecap="round" stroke-linejoin="round"/>
<path d="M12 10V20" stroke="#FF5454" stroke-width="2" stroke-linecap="round" stroke-linejoin="round"/>
<path d="M17 10V20" stroke="#FF5454" stroke-width="2" stroke-linecap="round" stroke-linejoin="round"/>
<path d="M21 10V20" stroke="#FF5454" stroke-width="2" stroke-linecap="round" stroke-linejoin="round"/>
<path d="M17 15H12" stroke="#FF5454" stroke-width="2" stroke-linecap="round" stroke-linejoin="round"/>
<path d="M25 20V10H28.588C28.9625 10 29.3216 10.1488 29.5864 10.4136C29.8512 10.6784 30 11.0375 30 11.412V13.588C30 13.9625 29.8512 14.3216 29.5864 14.5864C29.3216 14.8512 28.9625 15 28.588 15H26L30 20" stroke="#FF5454" stroke-width="2" stroke-linecap="round" stroke-linejoin="round"/>
<path d="M38 10H34V20H36" stroke="#FF5454" stroke-width="2" stroke-linecap="round" stroke-linejoin="round"/>
<path d="M38 15H34" stroke="#FF5454" stroke-width="2" stroke-linecap="round" stroke-linejoin="round"/>
<path d="M46 40.0004V32.5004C46 31.8373 46.2634 31.2014 46.7322 30.7326C47.2011 30.2638 47.837 30.0004 48.5 30.0004V30.0004C49.163 30.0004 49.7989 30.2638 50.2678 30.7326C50.7366 31.2014 51 31.8373 51 32.5004V40.0004M41 40.0004V32.4154C41.0113 31.7636 41.281 31.143 41.7499 30.6901C42.2187 30.2372 42.8482 29.9891 43.5 30.0004V30.0004C44.1518 29.9891 44.7813 30.2372 45.2501 30.6901C45.719 31.143 45.9887 31.7636 46 32.4154V40.0004H41Z" stroke="#FF5454" stroke-width="2" stroke-linecap="round" stroke-linejoin="round"/>
<path d="M50.9997 40.6151V35.4001C51.0062 35.0783 51.076 34.761 51.2052 34.4662C51.3343 34.1715 51.5203 33.905 51.7525 33.6822C51.9846 33.4593 52.2584 33.2843 52.5582 33.1673C52.858 33.0503 53.1779 32.9934 53.4997 33.0001V33.0001C53.8214 32.9934 54.1414 33.0503 54.4411 33.1673C54.7409 33.2843 55.0147 33.4593 55.2469 33.6822C55.479 33.905 55.665 34.1715 55.7942 34.4662C55.9234 34.761 55.9932 35.0783 55.9997 35.4001V54.2061C55.9989 54.8365 55.8739 55.4606 55.6319 56.0427C55.3899 56.6249 55.0356 57.1536 54.5892 57.5988C54.1428 58.044 53.6131 58.3968 53.0303 58.6373C52.4475 58.8777 51.8231 59.001 51.1927 59.0001H42.9207C41.5481 59.0013 40.1962 58.6649 38.9842 58.0205C37.7723 57.3762 36.7374 56.4436 35.9707 55.3051L26.4507 41.1271C26.083 40.5797 25.9324 39.915 26.0281 39.2625C26.1239 38.6101 26.4592 38.0167 26.9687 37.5981L27.0197 37.5561C27.5775 37.0932 28.2954 36.8692 29.0174 36.9326C29.7394 36.9961 30.4072 37.342 30.8757 37.8951C32.8507 40.2421 35.8097 43.7271 35.8097 43.7271V21.5371C35.8106 21.2029 35.8774 20.8722 36.0061 20.5638C36.1349 20.2555 36.3231 19.9755 36.5601 19.7399C36.7971 19.5043 37.0782 19.3177 37.3873 19.1908C37.6964 19.0638 38.0275 18.999 38.3617 19.0001V19.0001C39.0455 18.995 39.7042 19.2576 40.1971 19.7316C40.69 20.2056 40.978 20.8536 40.9997 21.5371V35.6671" stroke="#FF5454" stroke-width="2" stroke-linecap="round" stroke-linejoin="round"/>
</svg>
