<svg width="85" height="85" viewBox="0 0 85 85" fill="none" xmlns="http://www.w3.org/2000/svg">
<circle cx="42.5" cy="42.5" r="42.5" fill="#F1BA17" fill-opacity="0.15"/>
<path d="M59.1047 54.3642C59.1031 54.3591 59.0803 54.311 59.0777 54.3068C58.7866 53.7238 58.4618 53.1829 58.11 52.6961C57.532 51.9038 56.8021 51.2499 56.0546 50.8542C55.6285 50.6281 54.8193 50.4399 53.4271 50.1269C51.4621 49.6856 48.4912 49.0182 47.6669 48.1381C47.256 47.6994 47.7858 45.5706 49.3544 42.8866C49.7146 42.9356 50.0572 42.8369 50.3525 42.5981C51.4612 41.7029 51.511 39.0391 51.511 39.013C51.511 38.084 51.4511 37.1491 50.7601 36.7669L50.7221 33.8526C50.7238 33.7362 50.739 30.9805 48.7207 28.9336C47.337 27.5304 45.3634 26.8191 42.8541 26.8191C40.3448 26.8191 38.3721 27.5304 36.9884 28.9336C34.9693 30.9805 34.9845 33.7362 34.9861 33.8357L34.9456 36.7669C34.2571 37.1483 34.1972 38.0832 34.1972 39.013C34.1972 39.6264 34.6807 42.4319 36.0282 42.9567C36.0678 43.0495 36.1126 43.1752 36.1379 43.2486C36.1927 43.4047 36.245 43.5372 36.283 43.6055C36.8221 44.5767 38.4607 47.5332 37.9047 48.1457C37.0457 49.0916 34.1728 49.7185 32.2718 50.1345C31.029 50.4061 30.1304 50.6027 29.6553 50.8542C28.9111 51.2482 28.183 51.9021 27.6016 52.6986C27.2253 53.2184 26.8802 53.7963 26.579 54.4156C26.5782 54.4165 26.5478 54.4772 26.5478 54.4781C26.5073 54.5625 26.4676 54.6477 26.4339 54.7228C26.1723 55.2839 25.8669 56.2331 25.5269 57.5443C25.391 58.0682 25.5032 58.615 25.834 59.0428C26.1647 59.4697 26.6634 59.7144 27.2034 59.7144H58.5015C59.0448 59.7144 59.546 59.4672 59.8768 59.0369C60.2067 58.6082 60.3155 58.0623 60.1771 57.5392C59.9055 56.5216 59.4979 55.1404 59.1047 54.3642ZM37.3216 42.8301C37.1613 42.377 36.9799 41.864 36.4813 41.7864C36.0889 41.7012 35.4544 39.8483 35.4544 39.0138C35.4544 38.0866 35.5591 37.8815 35.5506 37.8689C35.9404 37.6951 36.1961 37.2884 36.202 36.8327L36.2433 33.8374C36.2433 33.8138 36.2425 31.4707 37.8937 29.806C39.0328 28.6576 40.7026 28.0755 42.8558 28.0755C45.0091 28.0755 46.6788 28.6576 47.8171 29.806C49.4683 31.4716 49.4674 33.8146 49.4674 33.8535L49.5062 36.8319C49.5121 37.2875 49.7678 37.6951 50.1188 37.8419C50.1517 37.8824 50.2572 38.0874 50.2572 39.0138C50.2572 40.0584 49.8437 41.5577 49.5155 41.6413C49.0456 41.5417 48.5579 41.7653 48.3014 42.2032C47.9242 42.8453 47.3682 43.8646 46.9353 44.942C46.613 45.3175 44.8808 47.2201 42.8541 47.2201C40.8333 47.2201 38.9779 45.6752 38.5755 45.3175C38.2472 44.5851 37.8304 43.8055 37.39 43.0107C37.3697 42.9693 37.3478 42.9035 37.3216 42.8301ZM58.8811 58.2724C58.79 58.3914 58.6508 58.4589 58.5006 58.4589H27.2034C27.0001 58.4589 26.8811 58.3433 26.8271 58.2741C26.7351 58.156 26.7047 58.005 26.7419 57.859C27.0574 56.6398 27.3443 55.7386 27.5755 55.2451C27.6084 55.1708 27.6421 55.0966 27.6776 55.0231L27.1123 54.7506L27.7063 54.9658C27.9771 54.4114 28.2842 53.8959 28.6167 53.4361C29.0799 52.8016 29.6731 52.2649 30.2426 51.962C30.5649 51.7907 31.5681 51.5714 32.5393 51.3596C34.841 50.8567 37.7047 50.2306 38.8336 48.9878C39.2142 48.5685 39.3112 48.0031 39.2218 47.3408C40.1701 47.9129 41.456 48.474 42.8524 48.474C44.2075 48.474 45.4132 47.8546 46.3169 47.1965C46.2435 47.923 46.3464 48.5642 46.7506 48.9954C47.8381 50.1572 50.7845 50.8187 53.1512 51.3503C54.1426 51.5731 55.167 51.8034 55.4656 51.962C56.0394 52.2658 56.6342 52.8032 57.0932 53.4327C57.4037 53.8621 57.6931 54.3439 57.975 54.9126C58.25 55.456 58.601 56.5039 58.9621 57.8624C59.0153 58.059 58.9343 58.2041 58.8811 58.2724ZM69.6803 53.0201C69.3867 53.4023 68.9412 53.6217 68.4594 53.6217H60.8901V52.3653H68.4594C68.5817 52.3653 68.6535 52.2961 68.6847 52.254C68.7159 52.2135 68.764 52.1282 68.7328 52.0126C68.4358 50.8989 68.1506 50.0425 67.927 49.6029C67.6975 49.1405 67.4621 48.7482 67.209 48.3972C66.8402 47.8935 66.3644 47.4623 65.9054 47.2185C65.6725 47.0953 64.7975 46.8987 64.0263 46.7249C62.0596 46.2836 59.6118 45.7335 58.6921 44.7513C57.6695 43.6587 58.7056 41.6615 59.9544 39.537C60.1755 39.1606 60.5796 38.9556 60.9922 39.0079C61.2808 38.6924 61.5508 37.2074 61.5508 36.4463C61.5508 35.8607 61.5001 35.6464 61.4715 35.5722C61.1475 35.3975 60.9382 35.0431 60.9323 34.6508L60.9011 32.1938C60.9011 32.1601 60.8994 30.2709 59.5713 28.9327C58.6542 28.0088 57.305 27.5405 55.561 27.5405C53.6339 27.5405 52.1927 28.1109 51.279 29.2356L50.3036 28.4433C51.468 27.0106 53.2365 26.2842 55.5601 26.2842C57.6594 26.2842 59.3123 26.8816 60.475 28.0603C62.1709 29.7798 62.1574 32.0959 62.1566 32.1938L62.187 34.5318C62.7556 34.8946 62.8071 35.7046 62.8071 36.4463C62.8071 36.4733 62.7447 39.2113 61.7457 40.0179C61.5204 40.201 61.2521 40.2904 60.9795 40.2727C59.7662 42.35 59.3047 43.5676 59.6093 43.8932C60.2649 44.5936 62.694 45.1386 64.3014 45.4997C65.4582 45.7596 66.1298 45.9157 66.4943 46.1089C67.1246 46.4431 67.7397 46.994 68.2257 47.6597C68.521 48.0681 68.7918 48.5195 69.0331 49.0038C69.0399 49.0173 69.0627 49.0671 69.0677 49.0815C69.3825 49.6966 69.7216 50.8441 69.9469 51.6903C70.071 52.1552 69.9739 52.6396 69.6803 53.0201ZM17.5408 52.3653H25.1101V53.6208H17.5408C17.0581 53.6208 16.6126 53.4015 16.3182 53.0192C16.0254 52.6387 15.9292 52.1544 16.0524 51.6903C16.2777 50.8441 16.6169 49.6966 16.9518 49.0359C17.2075 48.5204 17.4783 48.069 17.772 47.6631C18.2605 46.994 18.8756 46.4439 19.5059 46.1098C19.8704 45.9166 20.542 45.7605 21.6988 45.5006C23.3061 45.1395 25.7353 44.5936 26.3909 43.8932C26.6946 43.5684 26.2331 42.3509 25.0198 40.2736C24.7489 40.2913 24.4798 40.2018 24.2536 40.0187C23.2546 39.2121 23.1922 36.4741 23.1922 36.4471C23.1922 35.7055 23.2428 34.8955 23.8124 34.5327L23.8427 32.1786C23.8419 32.0976 23.8284 29.7815 25.5252 28.0611C26.687 26.8824 28.3408 26.285 30.4392 26.285C32.7637 26.285 34.5322 27.0115 35.6966 28.4442L34.7212 29.2365C33.8074 28.1117 32.3663 27.5414 30.4392 27.5414C28.6951 27.5414 27.346 28.0096 26.4288 28.9336C25.1008 30.2717 25.0991 32.1609 25.0991 32.1803L25.0679 34.6508C25.062 35.0457 24.8527 35.3992 24.5287 35.5739C24.5 35.649 24.4494 35.8633 24.4494 36.448C24.4494 37.2091 24.7202 38.6941 25.008 39.0096C25.4146 38.959 25.8247 39.1623 26.0458 39.5386C27.2945 41.6632 28.3315 43.6604 27.3089 44.753C26.3883 45.736 23.9406 46.2853 21.9747 46.7274C21.2018 46.8987 20.3277 47.0953 20.0948 47.2185C19.6358 47.4623 19.1599 47.8926 18.7887 48.4006C18.5372 48.749 18.3018 49.1414 18.0917 49.5632C17.8496 50.0425 17.5636 50.8989 17.2666 52.0135C17.2362 52.1282 17.2834 52.2135 17.3146 52.254C17.3459 52.2961 17.4176 52.3653 17.5408 52.3653Z" fill="#F1BA17"/>
</svg>
