<svg width="85" height="85" viewBox="0 0 85 85" fill="none" xmlns="http://www.w3.org/2000/svg">
<circle cx="42.5" cy="42.5" r="42.5" fill="#35D64F" fill-opacity="0.15"/>
<path d="M60.2603 53.6377C59.9795 53.3677 59.8013 53.0059 59.7581 52.6225L59.6285 51.5371C59.5259 50.6839 59.1371 49.8793 58.5269 49.2691L54.8711 45.6133C53.5427 44.2849 51.7715 43.5505 49.8923 43.5505H46.4417C45.6209 43.5505 44.8271 43.7989 44.1575 44.2741L43.4393 44.7817C43.1315 44.9977 42.7751 45.1111 42.4025 45.1111C42.3971 45.1111 42.3971 45.1111 42.3917 45.1111L36.6353 45.1705C35.1017 45.1705 33.7733 46.0561 33.1307 47.3413L27.2933 41.4985C25.6733 39.8785 23.0381 39.8785 21.4181 41.4985C19.7981 43.1185 19.7981 45.7537 21.4181 47.3737L33.2981 59.2537C34.2701 60.2257 35.6093 60.7711 36.9863 60.7495L49.2497 60.6631C49.2551 60.6631 49.2605 60.6631 49.2605 60.6631C49.7951 60.6631 50.3135 60.8791 50.6861 61.2571L53.9531 64.5349C54.1637 64.7455 54.4391 64.8535 54.7199 64.8535C54.9953 64.8535 55.2707 64.7509 55.4813 64.5403C55.9025 64.1191 55.9025 63.4333 55.4813 63.0121L52.2143 59.7343C51.4367 58.9513 50.3567 58.5085 49.2551 58.5085C49.2443 58.5085 49.2389 58.5085 49.2281 58.5085L36.9647 58.5949C36.9593 58.5949 36.9593 58.5949 36.9539 58.5949C36.1601 58.6057 35.3825 58.2925 34.8209 57.7309L22.9409 45.8509C22.1633 45.0733 22.1633 43.8097 22.9409 43.0321C23.7185 42.2545 24.9821 42.2545 25.7597 43.0321L32.8499 50.1223C33.2981 51.7963 34.8317 53.0329 36.6461 53.0329L45.4751 52.9951C45.9287 52.9951 46.3175 52.7089 46.4741 52.3093C46.5227 52.1851 46.5497 52.0501 46.5497 51.9097C46.5497 51.3157 46.0637 50.8351 45.4697 50.8351H45.4643L36.6407 50.8729C35.6687 50.8729 34.8749 50.0791 34.8749 49.1071C34.8749 48.1351 35.6687 47.3413 36.6407 47.3413C36.6461 47.3413 36.6461 47.3413 36.6515 47.3413L42.4079 47.2819C43.2287 47.2819 44.0171 47.0281 44.6867 46.5583L45.4049 46.0507C45.7127 45.8347 46.0691 45.7213 46.4417 45.7213H49.8923C51.1937 45.7213 52.4195 46.2289 53.3429 47.1523L56.9987 50.8081C57.2633 51.0727 57.4361 51.4291 57.4793 51.8017L57.6089 52.8871C57.7115 53.7673 58.1219 54.5935 58.7591 55.2091L62.0963 58.4167L63.9701 60.2203C64.1807 60.4201 64.4507 60.5227 64.7207 60.5227C65.0015 60.5227 65.2877 60.4093 65.4983 60.1933C65.9141 59.7613 65.8979 59.0809 65.4713 58.6651L60.2603 53.6377ZM41.7977 26.6484H40.6151C40.0751 26.6484 39.6107 27.0372 39.5189 27.5718L37.4021 40.0675C37.2887 40.7425 37.8071 41.3635 38.4983 41.3635H38.5469C39.0923 41.3635 39.5567 40.9693 39.6431 40.4293L40.0319 37.9831H42.3539L42.7319 40.4239C42.8183 40.9639 43.2827 41.3635 43.8281 41.3635H43.8929C44.5787 41.3635 45.1025 40.7479 44.9891 40.0729L42.8939 27.5772C42.8021 27.0426 42.3431 26.6484 41.7977 26.6484ZM40.3775 35.823L41.1983 30.0234L42.0191 35.823H40.3775ZM48.1805 26.6484C47.5703 26.6484 47.0735 27.1452 47.0735 27.7554V40.2511C47.0735 40.8613 47.5703 41.3581 48.1805 41.3581C48.7907 41.3581 49.2875 40.8613 49.2875 40.2511V27.7608C49.2875 27.1452 48.7907 26.6484 48.1805 26.6484ZM52.3709 41.4337H57.8843C58.3217 42.5893 59.4395 43.4101 60.7463 43.4101C62.4311 43.4101 63.8027 42.0385 63.8027 40.3537C63.8027 38.6689 62.4311 37.2972 60.7463 37.2972C59.4395 37.2972 58.3217 38.1235 57.8843 39.2737H52.3709C51.7769 39.2737 51.2909 39.7597 51.2909 40.3537C51.2909 40.9477 51.7715 41.4337 52.3709 41.4337ZM61.6427 40.3537C61.6427 40.8505 61.2377 41.2501 60.7463 41.2501C60.2549 41.2501 59.8499 40.8451 59.8499 40.3537C59.8499 39.8623 60.2549 39.4573 60.7463 39.4573C61.2377 39.4573 61.6427 39.8569 61.6427 40.3537ZM52.3709 34.9536C51.7769 34.9536 51.2909 35.4396 51.2909 36.0336C51.2909 36.6276 51.7769 37.1136 52.3709 37.1136H54.5147C54.8441 37.1136 55.1573 36.9624 55.3625 36.7032L56.7395 34.959C57.0149 35.04 57.3119 35.0886 57.6143 35.0886C59.2991 35.0886 60.6707 33.717 60.6707 32.0322C60.6707 30.3474 59.2991 28.9758 57.6143 28.9758C55.9295 28.9758 54.5579 30.3474 54.5579 32.0322C54.5579 32.6262 54.7307 33.1824 55.0223 33.6522L53.9909 34.9536H52.3709ZM58.5107 32.0214C58.5107 32.5182 58.1057 32.9178 57.6143 32.9178C57.1229 32.9178 56.7179 32.5128 56.7179 32.0214C56.7179 31.53 57.1229 31.125 57.6143 31.125C58.1057 31.125 58.5107 31.53 58.5107 32.0214Z" fill="#35D64F"/>
<path d="M61.5723 23.1445C60.2655 23.1445 59.1477 23.9707 58.7103 25.1209H54.8493C54.4821 25.1209 54.1365 25.3099 53.9421 25.6177L51.4635 29.4895C51.1395 29.9917 51.2907 30.6613 51.7929 30.9799C51.9711 31.0933 52.1763 31.1527 52.3761 31.1527C52.7325 31.1527 53.0781 30.9745 53.2887 30.6559L55.4487 27.2809H58.7211C59.1585 28.4365 60.2763 29.2573 61.5831 29.2573C63.2679 29.2573 64.6395 27.8857 64.6395 26.2009C64.6287 24.5215 63.2571 23.1445 61.5723 23.1445ZM61.5723 27.1027C61.0755 27.1027 60.6759 26.6977 60.6759 26.2063C60.6759 25.7149 61.0809 25.3099 61.5723 25.3099C62.0637 25.3099 62.4687 25.7149 62.4687 26.2063C62.4687 26.6977 62.0637 27.1027 61.5723 27.1027ZM22.5681 33.6637C23.8749 33.6637 24.9927 32.8375 25.4301 31.6873H30.1227V35.9695C30.1227 36.5635 30.6087 37.0495 31.2027 37.0495H34.1835C34.7775 37.0495 35.2635 36.5635 35.2635 35.9695C35.2635 35.3755 34.7775 34.8895 34.1835 34.8895H32.2827V30.6073C32.2827 30.0133 31.7967 29.5273 31.2027 29.5273H25.4301C24.9927 28.3717 23.8749 27.5509 22.5681 27.5509C20.8833 27.5509 19.5117 28.9225 19.5117 30.6073C19.5063 32.2921 20.8779 33.6637 22.5681 33.6637ZM22.5681 29.7055C23.0649 29.7055 23.4645 30.1105 23.4645 30.6019C23.4645 31.0933 23.0595 31.4983 22.5681 31.4983C22.0767 31.4983 21.6717 31.0933 21.6717 30.6019C21.6717 30.1105 22.0713 29.7055 22.5681 29.7055Z" fill="#35D64F"/>
<path d="M25.9783 33.3775C24.2935 33.3775 22.9219 34.7491 22.9219 36.4339C22.9219 38.1187 24.2935 39.4903 25.9783 39.4903C26.5021 39.4903 26.9935 39.3607 27.4201 39.1285L29.5855 41.0239C29.7799 41.1967 30.0337 41.2885 30.2983 41.2885H34.1755C34.7695 41.2885 35.2555 40.8025 35.2555 40.2085C35.2555 39.6145 34.7695 39.1285 34.1755 39.1285H30.7033L28.8457 37.5031C28.9699 37.1683 29.0401 36.8119 29.0401 36.4339C29.0401 34.7491 27.6685 33.3775 25.9783 33.3775ZM25.0819 36.4339C25.0819 35.9371 25.4869 35.5375 25.9783 35.5375C26.4697 35.5375 26.8747 35.9425 26.8747 36.4339C26.8747 36.9253 26.4751 37.3303 25.9783 37.3303C25.4815 37.3303 25.0819 36.9307 25.0819 36.4339ZM28.0627 28.6255C29.3695 28.6255 30.4873 27.7993 30.9247 26.6491H31.8373L33.7651 30.3103C33.9595 30.6775 34.3321 30.8881 34.7209 30.8881C34.8883 30.8881 35.0611 30.8503 35.2231 30.7639C35.7523 30.4885 35.9521 29.8351 35.6767 29.3059L33.4465 25.0669C33.2575 24.7105 32.8903 24.4891 32.4907 24.4891H30.9247C30.4873 23.3335 29.3695 22.5127 28.0627 22.5127C26.3779 22.5127 25.0063 23.8843 25.0063 25.5691C25.0063 27.2539 26.3779 28.6255 28.0627 28.6255ZM28.0627 24.6673C28.5595 24.6673 28.9591 25.0723 28.9591 25.5637C28.9591 26.0551 28.5541 26.4601 28.0627 26.4601C27.5713 26.4601 27.1663 26.0551 27.1663 25.5637C27.1663 25.0723 27.5659 24.6673 28.0627 24.6673Z" fill="#35D64F"/>
</svg>
