<svg width="85" height="85" viewBox="0 0 85 85" fill="none" xmlns="http://www.w3.org/2000/svg">
<circle cx="42.5" cy="42.5" r="42.5" fill="#7858A3" fill-opacity="0.15"/>
<path d="M36.7812 45.5362V41.4453" stroke="#7858A3" stroke-width="1.5" stroke-miterlimit="10" stroke-linecap="round" stroke-linejoin="round"/>
<path d="M49.2188 53.3089V50.0361" stroke="#7858A3" stroke-width="1.5" stroke-miterlimit="10" stroke-linecap="round" stroke-linejoin="round"/>
<path d="M36.7812 53.3089V50.0361" stroke="#7858A3" stroke-width="1.5" stroke-miterlimit="10" stroke-linecap="round" stroke-linejoin="round"/>
<path d="M49.2188 41.4453V45.5362" stroke="#7858A3" stroke-width="1.5" stroke-miterlimit="10" stroke-linecap="round" stroke-linejoin="round"/>
<path d="M54.2919 47.5C54.2919 48.8909 53.1465 50.0363 51.7555 50.0363H42.5919C41.3646 50.0363 40.3828 49.0545 40.3828 47.8273C40.3828 46.6 41.3646 45.6182 42.5919 45.6182H49.2192" stroke="#7858A3" stroke-width="1.5" stroke-miterlimit="10" stroke-linecap="round" stroke-linejoin="round"/>
<path d="M43.4085 45.5361H36.7812" stroke="#7858A3" stroke-width="1.5" stroke-miterlimit="10" stroke-linecap="round" stroke-linejoin="round"/>
<path d="M54.2925 47.4998V38.2544C54.2925 33.9998 50.8562 30.5635 46.6016 30.5635M31.7107 47.4998C31.7107 48.8907 32.8562 50.0362 34.2471 50.0362H43.4107L31.7107 47.4998ZM39.3198 30.5635C35.0653 30.5635 31.6289 33.9998 31.6289 38.2544V47.5817L39.3198 30.5635Z" stroke="#7858A3" stroke-width="1.5" stroke-miterlimit="10" stroke-linecap="round" stroke-linejoin="round"/>
<path d="M41.1198 32.9365L41.8562 34.9002L40.6289 40.382L43.0016 42.2638L45.3744 40.382L44.1471 34.9002L44.8835 32.9365" stroke="#7858A3" stroke-width="1.5" stroke-miterlimit="10" stroke-linecap="round" stroke-linejoin="round"/>
<path d="M42.9981 28.1094C45.89 28.1094 48.2344 25.765 48.2344 22.8731C48.2344 19.9811 45.89 17.6367 42.9981 17.6367C40.1061 17.6367 37.7617 19.9811 37.7617 22.8731C37.7617 25.765 40.1061 28.1094 42.9981 28.1094Z" stroke="#7858A3" stroke-width="1.5" stroke-miterlimit="10" stroke-linecap="round" stroke-linejoin="round"/>
<path d="M26.4731 63.9455C26.4731 66.4001 24.5094 68.3637 22.0549 68.3637C19.6004 68.3637 17.6367 66.4001 17.6367 63.9455C17.6367 61.491 19.6004 59.5273 22.0549 59.5273" stroke="#7858A3" stroke-width="1.5" stroke-miterlimit="10" stroke-linecap="round" stroke-linejoin="round"/>
<path d="M20.3359 63.2087L21.8087 64.7633L27.2087 59.3633" stroke="#7858A3" stroke-width="1.5" stroke-miterlimit="10" stroke-linecap="round" stroke-linejoin="round"/>
<path d="M40.1371 63.9455C40.1371 66.4001 38.1735 68.3637 35.719 68.3637C33.2644 68.3637 31.3008 66.4001 31.3008 63.9455C31.3008 61.491 33.2644 59.5273 35.719 59.5273" stroke="#7858A3" stroke-width="1.5" stroke-miterlimit="10" stroke-linecap="round" stroke-linejoin="round"/>
<path d="M34 63.2087L35.5545 64.7633L40.9545 59.3633" stroke="#7858A3" stroke-width="1.5" stroke-miterlimit="10" stroke-linecap="round" stroke-linejoin="round"/>
<path d="M53.8832 63.9455C53.8832 66.4001 51.9196 68.3637 49.4651 68.3637C47.0105 68.3637 45.0469 66.4001 45.0469 63.9455C45.0469 61.491 47.0105 59.5273 49.4651 59.5273" stroke="#7858A3" stroke-width="1.5" stroke-miterlimit="10" stroke-linecap="round" stroke-linejoin="round"/>
<path d="M47.7461 63.2087L49.2188 64.7633L54.6188 59.3633" stroke="#7858A3" stroke-width="1.5" stroke-miterlimit="10" stroke-linecap="round" stroke-linejoin="round"/>
<path d="M67.6254 63.9455C67.6254 66.4001 65.6618 68.3637 63.2072 68.3637C60.7527 68.3637 58.7891 66.4001 58.7891 63.9455C58.7891 61.491 60.7527 59.5273 63.2072 59.5273" stroke="#7858A3" stroke-width="1.5" stroke-miterlimit="10" stroke-linecap="round" stroke-linejoin="round"/>
<path d="M61.4883 63.2087L62.961 64.7633L68.361 59.3633" stroke="#7858A3" stroke-width="1.5" stroke-miterlimit="10" stroke-linecap="round" stroke-linejoin="round"/>
</svg>
