<svg width="85" height="85" viewBox="0 0 85 85" fill="none" xmlns="http://www.w3.org/2000/svg">
<circle opacity="0.3" cx="42.5" cy="42.5" r="42.5" fill="#FF5454" fill-opacity="0.15"/>
<path d="M31.7305 48.6299C31.1338 48.6299 30.5615 48.867 30.1395 49.2889C29.7175 49.7109 29.4805 50.2832 29.4805 50.8799V54.8894C26.5804 51.6098 24.9799 47.3828 24.9805 43.0049C24.9795 42.3432 25.0186 41.682 25.0975 41.0249C25.1404 40.7281 25.1236 40.4257 25.048 40.1355C24.9724 39.8453 24.8395 39.5732 24.6572 39.3351C24.4749 39.0969 24.2468 38.8977 23.9864 38.749C23.726 38.6003 23.4385 38.5051 23.1407 38.4691C22.843 38.4331 22.5411 38.457 22.2527 38.5394C21.9644 38.6217 21.6954 38.7609 21.4616 38.9487C21.2278 39.1365 21.0339 39.3691 20.8913 39.633C20.7487 39.8968 20.6603 40.1864 20.6312 40.4849C20.5296 41.3211 20.4793 42.1626 20.4805 43.0049C20.4836 48.3738 22.4133 53.5634 25.9187 57.6299H22.7305C22.1338 57.6299 21.5615 57.867 21.1395 58.2889C20.7175 58.7109 20.4805 59.2832 20.4805 59.8799C20.4805 60.4767 20.7175 61.049 21.1395 61.4709C21.5615 61.8929 22.1338 62.1299 22.7305 62.1299H31.7305C32.0824 62.1254 32.4281 62.0368 32.7388 61.8717C33.0495 61.7065 33.3163 61.4695 33.517 61.1804C33.5417 61.1467 33.5755 61.1197 33.6002 61.0837C33.616 61.0612 33.616 61.0342 33.6295 61.0117C33.7367 60.8307 33.817 60.6352 33.868 60.4312C33.9018 60.3164 33.9258 60.199 33.94 60.0802C33.9467 60.0127 33.9805 59.9519 33.9805 59.8799V50.8799C33.9805 50.2832 33.7434 49.7109 33.3215 49.2889C32.8995 48.867 32.3272 48.6299 31.7305 48.6299ZM35.1055 29.5049H31.0937C34.3741 26.6047 38.6019 25.0042 42.9805 25.0049C43.6423 25.0035 44.3036 25.0433 44.9605 25.1242C45.5533 25.1958 46.1504 25.0289 46.6202 24.6604C47.0901 24.2918 47.3943 23.7517 47.4659 23.1588C47.5375 22.5659 47.3706 21.9689 47.0021 21.4991C46.6335 21.0292 46.0933 20.725 45.5005 20.6534C44.6643 20.5529 43.8227 20.5033 42.9805 20.5049C37.6116 20.508 32.422 22.4377 28.3555 25.9432V22.7549C28.3555 22.1582 28.1184 21.5859 27.6965 21.1639C27.2745 20.742 26.7022 20.5049 26.1055 20.5049C25.5088 20.5049 24.9365 20.742 24.5145 21.1639C24.0925 21.5859 23.8555 22.1582 23.8555 22.7549V31.7549C23.8694 31.9038 23.8988 32.0509 23.9432 32.1937C23.9975 32.4713 24.1052 32.7357 24.2605 32.9722L24.2875 33.0104C24.4359 33.2263 24.6218 33.4138 24.8365 33.5639C24.8612 33.5819 24.8747 33.6089 24.8995 33.6269C24.931 33.6494 24.967 33.6562 25.0007 33.6742C25.1288 33.751 25.2646 33.8144 25.4057 33.8632C25.5952 33.9292 25.7928 33.9694 25.993 33.9824C26.0335 33.9824 26.065 34.0049 26.1055 34.0049H35.1055C35.7022 34.0049 36.2745 33.7679 36.6965 33.3459C37.1184 32.924 37.3555 32.3517 37.3555 31.7549C37.3555 31.1582 37.1184 30.5859 36.6965 30.1639C36.2745 29.742 35.7022 29.5049 35.1055 29.5049ZM62.0155 53.8139C61.9611 53.5371 61.8533 53.2734 61.6982 53.0377L61.6735 52.9994C61.5244 52.7834 61.3377 52.5959 61.1222 52.4459C61.0975 52.4279 61.0862 52.4009 61.0592 52.3829C61.0367 52.3672 61.0075 52.3672 60.9827 52.3514C60.6972 52.1923 60.3843 52.0885 60.0602 52.0454C59.9882 52.0387 59.9275 52.0049 59.8555 52.0049H50.8555C50.2588 52.0049 49.6865 52.242 49.2645 52.6639C48.8425 53.0859 48.6055 53.6582 48.6055 54.2549C48.6055 54.8517 48.8425 55.424 49.2645 55.8459C49.6865 56.2679 50.2588 56.5049 50.8555 56.5049H54.865C51.5853 59.4048 47.3584 61.0053 42.9805 61.0049C42.3186 61.0056 41.6573 60.9651 41.0005 60.8834C40.4076 60.8118 39.8106 60.9787 39.3408 61.3472C38.8709 61.7158 38.5667 62.2559 38.4951 62.8488C38.4235 63.4417 38.5903 64.0387 38.9589 64.5085C39.3275 64.9784 39.8676 65.2826 40.4605 65.3542C41.2967 65.4547 42.1382 65.5051 42.9805 65.5049C48.3494 65.5019 53.5389 63.5721 57.6055 60.0667V63.2549C57.6055 63.8517 57.8425 64.424 58.2645 64.8459C58.6865 65.2679 59.2588 65.5049 59.8555 65.5049C60.4522 65.5049 61.0245 65.2679 61.4465 64.8459C61.8684 64.424 62.1055 63.8517 62.1055 63.2549V54.2549C62.0909 54.1059 62.0607 53.9589 62.0155 53.8162V53.8139ZM63.2305 28.3799C63.8272 28.3799 64.3995 28.1429 64.8215 27.7209C65.2434 27.299 65.4805 26.7267 65.4805 26.1299C65.4805 25.5332 65.2434 24.9609 64.8215 24.5389C64.3995 24.117 63.8272 23.8799 63.2305 23.8799H54.2305C54.0839 23.8942 53.9391 23.9236 53.7985 23.9677L53.7827 23.9699C53.51 24.0251 53.2503 24.132 53.0177 24.2849L52.9727 24.3142C52.7577 24.4628 52.571 24.6488 52.4215 24.8632C52.4035 24.8857 52.3765 24.8992 52.3585 24.9239C52.3427 24.9464 52.3427 24.9757 52.327 25.0004C52.1666 25.2878 52.0628 25.6032 52.021 25.9297C52.0142 25.9972 51.9805 26.0579 51.9805 26.1299V35.1299C51.9805 35.7267 52.2175 36.299 52.6395 36.7209C53.0615 37.1429 53.6338 37.3799 54.2305 37.3799C54.8272 37.3799 55.3995 37.1429 55.8215 36.7209C56.2434 36.299 56.4805 35.7267 56.4805 35.1299V31.1182C59.3805 34.3987 60.981 38.6263 60.9805 43.0049C60.9807 43.6667 60.9409 44.3279 60.8612 44.9849C60.7901 45.5771 60.9567 46.1732 61.3245 46.6427C61.6923 47.1122 62.2313 47.4166 62.8232 47.4892C62.9143 47.4999 63.006 47.5051 63.0977 47.5049C63.647 47.504 64.177 47.3021 64.5877 46.9373C64.9985 46.5726 65.2616 46.0702 65.3275 45.5249C65.4299 44.6888 65.481 43.8473 65.4805 43.0049C65.4774 37.636 63.5477 32.4465 60.0422 28.3799H63.2305Z" fill="#FF5454"/>
</svg>
