<svg width="14" height="15" viewBox="0 0 14 15" fill="none" xmlns="http://www.w3.org/2000/svg">
<path fill-rule="evenodd" clip-rule="evenodd" d="M6.73167 13.5381L6.7725 13.5614L6.78883 13.5708C6.8536 13.6058 6.92608 13.6241 6.99971 13.6241C7.07334 13.6241 7.14581 13.6058 7.21058 13.5708L7.22692 13.562L7.26833 13.5381C7.49648 13.4028 7.71911 13.2584 7.93567 13.1053C8.49629 12.7094 9.02011 12.2639 9.50075 11.7741C10.6348 10.6133 11.8125 8.86908 11.8125 6.625C11.8125 5.34865 11.3055 4.12457 10.403 3.22205C9.50043 2.31953 8.27635 1.8125 7 1.8125C5.72365 1.8125 4.49957 2.31953 3.59705 3.22205C2.69453 4.12457 2.1875 5.34865 2.1875 6.625C2.1875 8.8685 3.36583 10.6133 4.49925 11.7741C4.97971 12.2639 5.50333 12.7094 6.06375 13.1053C6.2805 13.2584 6.50332 13.4028 6.73167 13.5381ZM7 8.375C7.46413 8.375 7.90925 8.19063 8.23744 7.86244C8.56563 7.53425 8.75 7.08913 8.75 6.625C8.75 6.16087 8.56563 5.71575 8.23744 5.38756C7.90925 5.05937 7.46413 4.875 7 4.875C6.53587 4.875 6.09075 5.05937 5.76256 5.38756C5.43437 5.71575 5.25 6.16087 5.25 6.625C5.25 7.08913 5.43437 7.53425 5.76256 7.86244C6.09075 8.19063 6.53587 8.375 7 8.375Z" fill="#908E9F"/>
</svg>
