<svg width="30" height="23" fill="none" xmlns="http://www.w3.org/2000/svg"><path d="M2.637 2.132C.92 3.955-.002 6-.002 9.315c0 5.834 4.095 11.062 10.05 13.647l1.489-2.297c-5.559-3.006-6.645-6.908-7.079-9.368.895.463 2.067.625 3.215.518C10.68 11.537 13.05 9.07 13.05 6A5.833 5.833 0 0 0 7.217.167c-1.789 0-3.499.817-4.58 1.965Zm16.666 0C17.587 3.955 16.665 6 16.665 9.315c0 5.834 4.095 11.062 10.05 13.647l1.488-2.297c-5.558-3.006-6.645-6.908-7.078-9.368.895.463 2.067.625 3.215.518 3.006-.278 5.375-2.746 5.375-5.815A5.833 5.833 0 0 0 23.88.167c-1.788 0-3.498.817-4.58 1.965h.002Z" fill="#7A73FF"/></svg>