<svg width="126" height="126" viewBox="0 0 126 126" fill="none" xmlns="http://www.w3.org/2000/svg">
<g filter="url(#filter0_f_2576_69288)">
<circle cx="63" cy="63" r="21" fill="#1B1551"/>
</g>
<path d="M56.4615 53.4982C55.921 53.2852 55.6507 53.1788 55.4785 53.2361C55.3289 53.2858 55.2116 53.4031 55.1618 53.5527C55.1045 53.7249 55.211 53.9952 55.424 54.5357L60.7246 67.9912C60.8961 68.4266 60.9819 68.6443 61.1216 68.7316C61.2435 68.8078 61.3922 68.8279 61.5299 68.7867C61.6878 68.7395 61.8282 68.5523 62.1089 68.178L64.2496 65.3238L67.6989 70.0666C67.8885 70.3274 67.9834 70.4577 68.1042 70.5122C68.2102 70.5601 68.3296 70.5694 68.4418 70.5387C68.5696 70.5037 68.6836 70.3898 68.9116 70.1618L72.0876 66.9858C72.3155 66.7578 72.4295 66.6438 72.4645 66.516C72.4952 66.4038 72.4859 66.2844 72.438 66.1784C72.3835 66.0576 72.2532 65.9628 71.9924 65.7731L67.2496 62.3238L70.1038 60.1832C70.4781 59.9024 70.6653 59.762 70.7125 59.6041C70.7536 59.4664 70.7336 59.3177 70.6574 59.1959C70.57 59.0561 70.3524 58.9703 69.917 58.7988L56.4615 53.4982Z" stroke="#D4CEFD" stroke-width="1.2" stroke-linecap="round" stroke-linejoin="round"/>
<defs>
<filter id="filter0_f_2576_69288" x="0" y="0" width="126" height="126" filterUnits="userSpaceOnUse" color-interpolation-filters="sRGB">
<feFlood flood-opacity="0" result="BackgroundImageFix"/>
<feBlend mode="normal" in="SourceGraphic" in2="BackgroundImageFix" result="shape"/>
<feGaussianBlur stdDeviation="21" result="effect1_foregroundBlur_2576_69288"/>
</filter>
</defs>
</svg>
