<svg width="64" height="64" viewBox="0 0 64 64" fill="none" xmlns="http://www.w3.org/2000/svg">
<path d="M32 1.06641V2.13307" stroke="#35D64F" stroke-width="1.5" stroke-miterlimit="10" stroke-linecap="round" stroke-linejoin="round"/>
<path d="M32 61.8662V63.0662" stroke="#35D64F" stroke-width="1.5" stroke-miterlimit="10" stroke-linecap="round" stroke-linejoin="round"/>
<path d="M16.5352 5.2002L17.0685 6.13353" stroke="#35D64F" stroke-width="1.5" stroke-miterlimit="10" stroke-linecap="round" stroke-linejoin="round"/>
<path d="M46.9336 57.8662L47.4669 58.7995" stroke="#35D64F" stroke-width="1.5" stroke-miterlimit="10" stroke-linecap="round" stroke-linejoin="round"/>
<path d="M5.19922 16.5332L6.13255 17.0665" stroke="#35D64F" stroke-width="1.5" stroke-miterlimit="10" stroke-linecap="round" stroke-linejoin="round"/>
<path d="M57.8672 46.9336L58.8005 47.4669" stroke="#35D64F" stroke-width="1.5" stroke-miterlimit="10" stroke-linecap="round" stroke-linejoin="round"/>
<path d="M0.933594 32H2.13359" stroke="#35D64F" stroke-width="1.5" stroke-miterlimit="10" stroke-linecap="round" stroke-linejoin="round"/>
<path d="M61.8672 32H63.0672" stroke="#35D64F" stroke-width="1.5" stroke-miterlimit="10" stroke-linecap="round" stroke-linejoin="round"/>
<path d="M5.19922 47.4669L6.13255 46.9336" stroke="#35D64F" stroke-width="1.5" stroke-miterlimit="10" stroke-linecap="round" stroke-linejoin="round"/>
<path d="M57.8672 17.0665L58.8005 16.5332" stroke="#35D64F" stroke-width="1.5" stroke-miterlimit="10" stroke-linecap="round" stroke-linejoin="round"/>
<path d="M16.5352 58.8005L17.0685 57.8672" stroke="#35D64F" stroke-width="1.5" stroke-miterlimit="10" stroke-linecap="round" stroke-linejoin="round"/>
<path d="M46.9336 6.13353L47.4669 5.2002" stroke="#35D64F" stroke-width="1.5" stroke-miterlimit="10" stroke-linecap="round" stroke-linejoin="round"/>
<path d="M14.1344 29.3334C11.601 26.8001 11.601 22.6667 14.1344 20.1334C16.6677 17.6001 20.801 17.6001 23.3344 20.1334M20.9344 49.2001C18.801 47.0667 18.801 43.7334 20.9344 41.6001V49.2001ZM18.801 46.4001C15.8677 46.4001 13.3344 44.0001 13.3344 40.9334C13.3344 38.0001 15.7344 35.4667 18.801 35.4667V46.4001Z" stroke="#35D64F" stroke-width="1.5" stroke-miterlimit="10" stroke-linecap="round" stroke-linejoin="round"/>
<path d="M49.8682 29.3335C52.4016 26.8002 52.4016 22.6669 49.8682 20.1335C47.3349 17.6002 43.2016 17.6002 40.6682 20.1335M13.0682 27.8669C12.5349 26.9335 12.2682 25.8669 12.2682 24.8002C12.2682 21.2002 15.2016 18.2669 18.8016 18.2669C18.9349 18.2669 19.2016 18.2669 19.3349 18.2669C19.4682 15.4669 21.8682 13.2002 24.6682 13.2002C27.6016 13.2002 30.1349 15.6002 30.1349 18.6669C30.1349 21.4669 30.1349 42.5335 30.1349 45.4669C30.1349 48.4002 27.7349 50.9335 24.6682 50.9335C22.0016 50.9335 19.7349 48.9335 19.3349 46.4002C19.0682 46.4002 18.9349 46.4002 18.6682 46.4002C15.7349 46.4002 13.2016 44.0002 13.2016 40.9335C13.2016 40.0002 13.4682 39.2002 13.7349 38.5335C11.3349 37.8669 9.60156 35.6002 9.60156 32.9335C9.86823 30.8002 11.2016 28.8002 13.0682 27.8669ZM43.0682 49.2002C45.2016 47.0669 45.2016 43.7335 43.0682 41.6002V49.2002ZM45.2016 46.4002C48.1349 46.4002 50.6682 44.0002 50.6682 40.9335C50.6682 38.0002 48.2682 35.4669 45.2016 35.4669V46.4002Z" stroke="#35D64F" stroke-width="1.5" stroke-miterlimit="10" stroke-linecap="round" stroke-linejoin="round"/>
<path d="M50.9339 27.8669C51.4672 26.9335 51.7339 25.8669 51.7339 24.8002C51.7339 21.2002 48.8005 18.2669 45.2005 18.2669C45.0672 18.2669 44.8005 18.2669 44.6672 18.2669C44.5339 15.4669 42.1339 13.2002 39.3339 13.2002C36.4005 13.2002 33.8672 15.6002 33.8672 18.6669C33.8672 21.4669 33.8672 42.5335 33.8672 45.4669C33.8672 48.4002 36.2672 50.9335 39.3339 50.9335C42.0005 50.9335 44.2672 48.9335 44.6672 46.4002C44.9339 46.4002 45.0672 46.4002 45.3339 46.4002C48.2672 46.4002 50.8005 44.0002 50.8005 40.9335C50.8005 40.0002 50.5339 39.2002 50.2672 38.5335C52.6672 37.8669 54.4005 35.6002 54.4005 32.9335C54.1339 30.8002 52.8005 28.8002 50.9339 27.8669Z" stroke="#35D64F" stroke-width="1.5" stroke-miterlimit="10" stroke-linecap="round" stroke-linejoin="round"/>
</svg>
