<svg width="627" height="523" viewBox="0 0 627 523" fill="none" xmlns="http://www.w3.org/2000/svg">
<path d="M217.15 233.572C215.687 232.63 214.328 231.584 212.865 230.538L213.492 229.702C214.955 230.748 216.314 231.689 217.777 232.735L217.15 233.572ZM208.581 227.4C207.222 226.354 205.759 225.308 204.401 224.262L205.028 223.426C206.386 224.472 207.849 225.518 209.208 226.564L208.581 227.4ZM200.325 221.02C198.967 219.974 197.608 218.823 196.25 217.673L196.877 216.836C198.235 217.986 199.594 219.032 200.848 220.183L200.325 221.02ZM192.279 214.325C190.92 213.175 189.666 211.92 188.412 210.769L189.144 210.037C190.398 211.187 191.652 212.443 193.01 213.593L192.279 214.325ZM184.755 207.003C183.501 205.748 182.351 204.493 181.202 203.133L181.933 202.401C183.083 203.656 184.232 204.911 185.486 206.167L184.755 207.003ZM177.753 199.158C176.604 197.799 175.559 196.439 174.514 194.974L175.35 194.347C176.395 195.707 177.44 197.066 178.589 198.426L177.753 199.158ZM171.483 190.79C170.543 189.326 169.602 187.862 168.662 186.397L169.602 185.874C170.438 187.339 171.379 188.803 172.424 190.267L171.483 190.79ZM166.049 181.795C165.213 180.226 164.482 178.657 163.75 177.088L164.691 176.669C165.422 178.238 166.154 179.807 166.885 181.376L166.049 181.795ZM482.371 174.787C481.222 174.787 480.177 174.787 479.027 174.682V173.636C480.803 173.741 482.475 173.741 484.252 173.636V174.682C483.625 174.787 482.998 174.787 482.371 174.787ZM489.477 174.577L489.372 173.531C491.149 173.427 492.821 173.218 494.493 172.904L494.702 173.95C493.03 174.159 491.254 174.368 489.477 174.577ZM473.802 174.473C472.13 174.264 470.354 174.054 468.577 173.845L468.682 172.799C470.458 173.008 472.13 173.218 473.802 173.427V174.473ZM463.352 172.904C461.68 172.59 459.904 172.172 458.232 171.753L458.441 170.707C460.113 171.126 461.889 171.544 463.561 171.858L463.352 172.904ZM499.927 172.904L499.718 171.858C501.39 171.439 503.062 171.021 504.734 170.498L505.047 171.544C503.271 171.962 501.599 172.485 499.927 172.904ZM161.869 172.067C161.242 170.393 160.72 168.72 160.197 167.046L161.242 166.732C161.765 168.406 162.287 170.08 162.81 171.649L161.869 172.067ZM453.216 170.393C451.544 169.87 449.871 169.347 448.199 168.824L448.513 167.883C450.185 168.406 451.857 168.929 453.529 169.452L453.216 170.393ZM509.959 169.661L509.541 168.72C511.109 168.092 512.676 167.36 514.244 166.523L514.766 167.465C513.199 168.301 511.527 169.034 509.959 169.661ZM443.288 167.151C441.825 166.628 440.467 166.105 439.004 165.477L438.376 165.268L438.794 164.327L439.422 164.536C440.78 165.059 442.243 165.686 443.706 166.209L443.288 167.151ZM433.569 163.176C432.002 162.444 430.434 161.712 428.762 160.979L429.181 160.038C430.748 160.77 432.316 161.502 433.883 162.235L433.569 163.176ZM158.943 162.025C158.525 160.352 158.212 158.574 158.003 156.795L159.048 156.691C159.257 158.364 159.57 160.143 159.988 161.816L158.943 162.025ZM424.06 158.678C422.492 157.946 420.925 157.109 419.357 156.272L419.88 155.331C421.447 156.168 423.015 156.9 424.582 157.737L424.06 158.678ZM414.759 153.867C413.192 153.03 411.729 152.193 410.161 151.356L410.684 150.415C412.251 151.252 413.715 152.088 415.282 152.925L414.759 153.867ZM157.48 151.565C157.376 149.892 157.271 148.114 157.271 146.44V146.335H158.316V146.44C158.316 148.114 158.421 149.787 158.525 151.461L157.48 151.565ZM405.564 148.846C403.996 148.009 402.533 147.172 400.966 146.335L401.488 145.394C403.056 146.231 404.519 147.068 406.086 147.904L405.564 148.846ZM396.472 143.825C394.904 142.988 393.441 142.151 391.874 141.315L392.396 140.373C393.964 141.21 395.427 142.047 396.994 142.884L396.472 143.825ZM158.525 141.105L157.48 141.001C157.585 139.223 157.898 137.444 158.107 135.771L159.152 135.98C158.839 137.654 158.63 139.432 158.525 141.105ZM387.276 138.804L387.172 138.7C385.708 137.863 384.141 137.131 382.678 136.294L383.201 135.352C384.664 136.189 386.231 136.921 387.694 137.758L387.799 137.863L387.276 138.804ZM378.08 133.888C376.512 133.051 374.945 132.319 373.377 131.587L373.796 130.645C375.363 131.378 376.931 132.214 378.498 133.051L378.08 133.888ZM160.197 130.959L159.152 130.645C159.57 128.972 160.093 127.194 160.72 125.625L161.66 125.938C161.242 127.612 160.72 129.286 160.197 130.959ZM368.675 129.286C367.107 128.553 365.54 127.821 363.972 126.984L364.391 126.043C365.958 126.775 367.526 127.507 369.093 128.344L368.675 129.286ZM359.27 124.788C357.702 124.056 356.135 123.323 354.463 122.591L354.881 121.65C356.449 122.382 358.016 123.114 359.688 123.846L359.27 124.788ZM163.855 121.231L162.914 120.813C163.646 119.244 164.482 117.78 165.422 116.315L166.363 116.734L166.258 116.838C165.422 118.198 164.586 119.767 163.855 121.231ZM349.656 120.604C348.089 119.872 346.417 119.244 344.849 118.512L345.267 117.57C346.834 118.198 348.507 118.93 350.074 119.662L349.656 120.604ZM340.042 116.524C338.474 115.897 336.802 115.165 335.235 114.537L335.653 113.596C337.325 114.223 338.892 114.851 340.46 115.583L340.042 116.524ZM330.428 112.654C328.756 112.027 327.188 111.399 325.516 110.771L325.83 109.83C327.502 110.458 329.07 111.085 330.742 111.713L330.428 112.654ZM169.289 112.445L168.453 111.817C169.498 110.458 170.647 109.098 171.901 107.843L172.633 108.575C171.483 109.83 170.334 111.19 169.289 112.445ZM320.605 108.993C318.933 108.366 317.366 107.843 315.693 107.215L316.007 106.274C317.679 106.797 319.247 107.424 320.919 108.052L320.605 108.993ZM310.782 105.541C309.11 105.018 307.438 104.391 305.871 103.868L306.184 102.822C307.856 103.345 309.528 103.868 311.2 104.495L310.782 105.541ZM176.395 105.018L175.663 104.182C176.917 103.031 178.38 101.985 179.739 100.939L180.366 101.776C179.112 102.822 177.753 103.868 176.395 105.018ZM300.854 102.403C299.182 101.88 297.51 101.357 295.839 100.834L296.152 99.7884C297.824 100.311 299.496 100.834 301.168 101.357L300.854 102.403ZM290.822 99.37C289.15 98.847 287.479 98.4286 285.806 97.9056L286.12 96.8596C287.792 97.278 289.464 97.801 291.136 98.324L290.822 99.37ZM184.755 98.847L184.232 97.9056C185.695 96.9642 187.263 96.1274 188.83 95.2906L189.353 96.232C187.785 97.1734 186.218 98.0102 184.755 98.847ZM280.791 96.5458C279.119 96.1274 277.446 95.6044 275.774 95.186L275.983 94.14C277.656 94.5584 279.327 94.9768 280.999 95.4998L280.791 96.5458ZM194.055 94.14L193.637 93.1986C195.205 92.571 196.877 91.8388 198.549 91.3158L198.862 92.2572C197.19 92.8848 195.623 93.5124 194.055 94.14ZM270.654 93.9308C268.982 93.5124 267.31 93.094 265.534 92.6756L265.742 91.6296C267.414 92.048 269.191 92.4664 270.863 92.8848L270.654 93.9308ZM260.517 91.6296C258.845 91.3158 257.069 90.8974 255.397 90.5836L255.606 89.5376C257.278 89.8514 259.054 90.1652 260.726 90.5836L260.517 91.6296ZM203.774 90.6882L203.46 89.6422C205.132 89.2238 206.909 88.8054 208.581 88.387L208.79 89.433C207.118 89.8514 205.446 90.2698 203.774 90.6882ZM250.276 89.6422C248.5 89.3284 246.828 89.1192 245.156 88.91L245.26 87.864C246.932 88.0732 248.709 88.387 250.485 88.5962L250.276 89.6422ZM214.015 88.7008L213.91 87.6548L214.746 87.5502C216.209 87.341 217.672 87.2364 219.135 87.1318L219.24 88.1778C217.777 88.2824 216.314 88.4916 214.955 88.5962L214.015 88.7008ZM239.931 88.2824C238.154 88.0732 236.482 87.9686 234.706 87.864L234.81 86.818C236.482 86.9226 238.259 87.0272 240.035 87.2364L239.931 88.2824ZM224.36 87.7594V86.7134C226.137 86.6088 227.809 86.6088 229.585 86.7134V87.7594C227.809 87.7594 226.032 87.7594 224.36 87.7594Z" fill="black"/>
<path d="M573.6 414.844V430.011C573.6 431.475 572.45 432.73 570.883 432.73H484.67C483.834 432.73 483.207 432.416 482.685 431.789C482.267 431.266 481.953 430.638 481.953 430.011V414.844C481.953 413.379 483.207 412.124 484.67 412.124H570.883C571.092 412.124 571.301 412.124 571.51 412.229C572.659 412.542 573.6 413.588 573.6 414.844Z" fill="#F7AE38"/>
<path opacity="0.15" d="M573.6 426.977V430.115C573.6 431.58 572.45 432.835 570.883 432.835H484.67C483.207 432.835 481.953 431.58 481.953 430.115V426.977C481.953 428.442 483.207 429.697 484.67 429.697H570.883C572.346 429.697 573.6 428.442 573.6 426.977Z" fill="#F7AE38"/>
<path opacity="0.1" d="M571.389 412.676L571.428 412.695L571.469 412.708C572.331 412.966 573.099 413.837 573.099 414.844V418.142L553.271 432.23H484.774C484.095 432.23 483.607 431.989 483.176 431.473C482.795 430.995 482.557 430.478 482.557 430.011V424.934L499.877 412.624H570.986C571.208 412.624 571.301 412.631 571.389 412.676Z" fill="#F7AE38" stroke="black"/>
<path opacity="0.15" d="M570.086 412.624L542.404 432.23H525.281L549.74 412.624H570.086Z" fill="#F7AE38" stroke="black"/>
<path d="M581.123 394.865V410.032C581.123 411.496 579.974 412.752 578.406 412.752H492.194C491.358 412.752 490.731 412.438 490.208 411.81C489.79 411.287 489.477 410.66 489.477 410.032V394.865C489.477 393.401 490.731 392.145 492.194 392.145H578.406C578.615 392.145 578.824 392.145 579.033 392.25C580.183 392.564 581.123 393.61 581.123 394.865Z" fill="#F7AE38"/>
<path opacity="0.15" d="M581.123 406.999V410.137C581.123 411.601 579.974 412.856 578.406 412.856H492.194C490.731 412.856 489.477 411.601 489.477 410.137V406.999C489.477 408.463 490.731 409.718 492.194 409.718H578.406C579.869 409.614 581.123 408.463 581.123 406.999Z" fill="#F7AE38"/>
<path opacity="0.1" d="M578.809 392.697L578.854 392.719L578.901 392.732C579.866 392.996 580.623 393.867 580.623 394.865V398.163L560.795 412.252H492.194C491.515 412.252 491.027 412.01 490.595 411.494C490.215 411.017 489.977 410.499 489.977 410.032V404.955L507.297 392.645H578.406C578.628 392.645 578.721 392.653 578.809 392.697Z" fill="#F7AE38" stroke="black"/>
<path opacity="0.15" d="M557.265 392.645H577.611L549.929 412.252H532.806L557.265 392.645Z" fill="#F7AE38" stroke="black"/>
<path d="M449.476 120.604V395.388C449.476 404.84 441.862 412.461 432.42 412.461H214.642C205.2 412.461 197.586 404.84 197.586 395.388V120.604C197.586 111.152 205.2 103.531 214.642 103.531H432.42C441.862 103.531 449.476 111.152 449.476 120.604Z" fill="#C3C3E1" stroke="black"/>
<path d="M441.617 120.604V395.388C441.617 400.513 437.542 404.593 432.421 404.593H214.643C209.523 404.593 205.447 400.513 205.447 395.388V120.604C205.447 115.478 209.523 111.399 214.643 111.399H432.421C437.542 111.399 441.617 115.478 441.617 120.604Z" fill="white"/>
<path d="M338.37 139.85V228.133C338.37 232.526 334.817 235.978 330.532 235.978H230.212C225.824 235.978 222.375 232.421 222.375 228.133V139.85C222.375 135.457 225.928 132.005 230.212 132.005H330.532C334.921 132.005 338.37 135.457 338.37 139.85Z" fill="#EDEDFE"/>
<path d="M282.148 184.201L318.41 172.59C313.707 156.691 299.286 144.976 282.148 144.243V184.201Z" fill="#F7AE38"/>
<path d="M278.596 189.117L244.111 200.1C250.068 213.489 263.235 223.007 278.596 223.635V189.117Z" fill="#F14146"/>
<path d="M320.081 183.991C320.081 191 318.304 197.485 315.065 203.238L313.184 206.271C306.391 216.313 295.001 223.112 282.043 223.739V189.64L290.089 193.928L294.687 192.359L284.76 187.025L319.14 176.042C319.872 178.657 320.081 181.272 320.081 183.991Z" fill="#02133B"/>
<path d="M278.598 185.351V144.243C257.489 145.185 240.664 162.548 240.664 183.991C240.664 188.489 241.396 192.778 242.754 196.753L278.598 185.351Z" fill="#3A81E1"/>
<path d="M280.372 207.631C293.473 207.631 304.093 197 304.093 183.887C304.093 170.773 293.473 160.143 280.372 160.143C267.271 160.143 256.65 170.773 256.65 183.887C256.65 197 267.271 207.631 280.372 207.631Z" fill="#D2E4FF"/>
<path d="M298.034 183.991C298.034 193.719 290.196 201.564 280.478 201.564C270.759 201.564 262.922 193.719 262.922 183.991C262.922 174.264 270.759 166.419 280.478 166.419C290.092 166.419 298.034 174.264 298.034 183.991Z" fill="#F2CB2A"/>
<path d="M285.913 190.058C285.495 190.686 284.868 191.313 284.032 191.627C283.196 192.046 282.255 192.255 281.21 192.359V194.033C281.21 194.242 281.106 194.451 281.001 194.556C280.897 194.661 280.688 194.765 280.479 194.765C280.27 194.765 280.061 194.661 279.956 194.556C279.852 194.451 279.747 194.242 279.747 194.033V192.359C278.075 192.255 276.508 191.836 275.045 191.209C274.836 191.104 274.731 191 274.627 190.79C274.522 190.581 274.418 190.372 274.418 190.163C274.418 189.849 274.522 189.64 274.731 189.431C274.94 189.221 275.149 189.117 275.463 189.117C275.567 189.117 275.776 189.117 275.881 189.221C277.135 189.744 278.493 190.058 279.852 190.163V184.724C278.807 184.41 277.866 184.096 277.135 183.782C276.403 183.468 275.776 182.945 275.358 182.422C274.836 181.795 274.627 181.063 274.627 180.121C274.627 179.284 274.836 178.552 275.254 177.82C275.672 177.088 276.299 176.565 277.03 176.146C277.866 175.728 278.807 175.414 279.852 175.31V173.636C279.852 173.427 279.956 173.218 280.061 173.113C280.165 173.008 280.374 172.904 280.583 172.904C280.792 172.904 281.001 173.008 281.106 173.113C281.21 173.218 281.315 173.427 281.315 173.636V175.205C282.882 175.31 284.241 175.519 285.39 175.937C285.808 176.042 286.017 176.356 286.017 176.879C286.017 177.088 285.913 177.402 285.808 177.611C285.599 177.82 285.39 177.925 285.077 177.925C284.972 177.925 284.868 177.925 284.659 177.82C283.614 177.402 282.464 177.192 281.21 177.192V182.736C282.36 183.05 283.3 183.259 284.032 183.573C284.763 183.887 285.39 184.305 285.913 184.933C286.435 185.56 286.644 186.397 286.644 187.339C286.54 188.698 286.331 189.431 285.913 190.058ZM277.344 181.795C277.866 182.213 278.598 182.527 279.643 182.736V177.611C278.702 177.715 277.971 178.029 277.344 178.448C276.821 178.866 276.508 179.494 276.508 180.226C276.612 180.853 276.821 181.376 277.344 181.795ZM284.45 187.652C284.45 187.025 284.136 186.606 283.614 186.188C283.091 185.874 282.255 185.56 281.106 185.247V190.267C283.3 190.163 284.45 189.326 284.45 187.652Z" fill="white"/>
<path d="M303.155 160.247C302.841 159.933 302.841 159.515 303.155 159.201L309.843 152.507C309.947 152.402 310.156 152.298 310.365 152.298H325.413C325.831 152.298 326.145 152.611 326.145 153.03C326.145 153.448 325.831 153.762 325.413 153.762H310.679L304.2 160.247C303.886 160.456 303.468 160.456 303.155 160.247ZM256.652 160.247L250.173 153.762H235.439C235.021 153.762 234.707 153.448 234.707 153.03C234.707 152.611 235.021 152.298 235.439 152.298H250.487C250.696 152.298 250.905 152.402 251.009 152.507L257.697 159.201C258.011 159.515 258.011 159.933 257.697 160.247C257.384 160.456 256.966 160.456 256.652 160.247ZM250.487 215.685H235.439C235.021 215.685 234.707 215.371 234.707 214.953C234.707 214.535 235.021 214.221 235.439 214.221H250.173L256.652 207.736C256.966 207.422 257.384 207.422 257.697 207.736C258.011 208.049 258.011 208.468 257.697 208.782L251.009 215.476C250.8 215.581 250.696 215.685 250.487 215.685ZM325.413 215.685H310.365C310.156 215.685 309.947 215.581 309.843 215.476L303.155 208.782C302.841 208.468 302.841 208.049 303.155 207.736C303.468 207.422 303.886 207.422 304.2 207.736L310.679 214.221H325.413C325.831 214.221 326.145 214.535 326.145 214.953C326.145 215.371 325.831 215.685 325.413 215.685Z" fill="#060405"/>
<path d="M361.36 183.259H349.865C348.925 183.259 348.193 182.527 348.193 181.586V170.08C348.193 169.138 348.925 168.406 349.865 168.406H361.36C362.301 168.406 363.032 169.138 363.032 170.08V181.586C363.137 182.527 362.301 183.259 361.36 183.259ZM428.867 172.276V173.427C428.867 173.95 428.449 174.368 427.927 174.368H369.511C368.989 174.368 368.571 173.95 368.571 173.427V172.276C368.571 171.753 368.989 171.335 369.511 171.335H427.927C428.449 171.335 428.867 171.753 428.867 172.276ZM404.414 178.448V179.598C404.414 180.121 403.996 180.54 403.474 180.54H369.407C368.884 180.54 368.466 180.121 368.466 179.598V178.448C368.466 177.925 368.884 177.506 369.407 177.506H403.474C403.996 177.506 404.414 177.925 404.414 178.448Z" fill="#EDEDFE"/>
<path d="M361.36 202.819H349.865C348.925 202.819 348.193 202.087 348.193 201.146V189.64C348.193 188.698 348.925 187.966 349.865 187.966H361.36C362.301 187.966 363.032 188.698 363.032 189.64V201.146C363.137 202.087 362.301 202.819 361.36 202.819ZM428.867 191.836V192.987C428.867 193.51 428.449 193.928 427.927 193.928H369.511C368.989 193.928 368.571 193.51 368.571 192.987V191.836C368.571 191.313 368.989 190.895 369.511 190.895H427.927C428.449 190.895 428.867 191.313 428.867 191.836ZM404.414 198.008V199.158C404.414 199.681 403.996 200.1 403.474 200.1H369.407C368.884 200.1 368.466 199.681 368.466 199.158V198.008C368.466 197.485 368.884 197.066 369.407 197.066H403.474C403.996 197.066 404.414 197.485 404.414 198.008Z" fill="#EDEDFE"/>
<path d="M361.36 222.38H349.865C348.925 222.38 348.193 221.647 348.193 220.706V209.2C348.193 208.259 348.925 207.526 349.865 207.526H361.36C362.301 207.526 363.032 208.259 363.032 209.2V220.706C363.137 221.647 362.301 222.38 361.36 222.38ZM428.867 211.397V212.547C428.867 213.07 428.449 213.489 427.927 213.489H369.511C368.989 213.489 368.571 213.07 368.571 212.547V211.397C368.571 210.874 368.989 210.455 369.511 210.455H427.927C428.449 210.455 428.867 210.874 428.867 211.397ZM404.414 217.568V218.719C404.414 219.242 403.996 219.66 403.474 219.66H369.407C368.884 219.66 368.466 219.242 368.466 218.719V217.568C368.466 217.045 368.884 216.627 369.407 216.627H403.474C403.996 216.627 404.414 217.045 404.414 217.568Z" fill="#EDEDFE"/>
<path d="M428.866 141.942V159.097C428.866 160.875 427.403 162.339 425.627 162.339H351.327C349.551 162.339 348.088 160.875 348.088 159.097V141.942C348.088 140.164 349.551 138.7 351.327 138.7H425.627C427.403 138.7 428.866 140.164 428.866 141.942Z" fill="#EDEDFE"/>
<path opacity="0.05" d="M318.307 258.885V314.637C318.307 317.252 316.217 319.344 313.604 319.344H197.609V254.178H313.604C316.217 254.178 318.307 256.375 318.307 258.885Z" fill="#C3C3E1"/>
<path d="M313.917 254.596V310.348C313.917 312.963 311.827 315.055 309.215 315.055H184.964C182.352 315.055 180.262 312.963 180.262 310.348V254.596C180.262 251.981 182.352 249.889 184.964 249.889H309.215C311.827 249.889 313.917 251.981 313.917 254.596Z" fill="#EDEDFE"/>
<path d="M206.909 300.62C216.778 300.62 224.778 292.612 224.778 282.734C224.778 272.855 216.778 264.847 206.909 264.847C197.04 264.847 189.039 272.855 189.039 282.734C189.039 292.612 197.04 300.62 206.909 300.62Z" fill="white"/>
<path d="M305.872 270.077V274.68C305.872 275.83 304.931 276.772 303.782 276.772H235.334C234.185 276.772 233.244 275.83 233.244 274.68V270.077C233.244 268.927 234.185 267.985 235.334 267.985H303.782C305.036 267.985 305.872 268.927 305.872 270.077ZM303.782 282.525C303.782 282.943 303.468 283.361 302.946 283.361H234.185C233.767 283.361 233.349 282.943 233.349 282.525C233.349 282.106 233.662 281.688 234.185 281.688H302.946C303.468 281.688 303.782 282.002 303.782 282.525ZM303.782 287.022C303.782 287.441 303.468 287.859 302.946 287.859H234.185C233.767 287.859 233.349 287.441 233.349 287.022C233.349 286.604 233.662 286.186 234.185 286.186H302.946C303.468 286.186 303.782 286.604 303.782 287.022ZM303.782 291.625C303.782 292.043 303.468 292.462 302.946 292.462H234.185C233.767 292.462 233.349 292.043 233.349 291.625C233.349 291.206 233.662 290.788 234.185 290.788H302.946C303.468 290.788 303.782 291.102 303.782 291.625ZM285.912 296.123C285.912 296.541 285.599 296.959 285.076 296.959H234.185C233.767 296.959 233.349 296.541 233.349 296.123C233.349 295.704 233.662 295.286 234.185 295.286H285.076C285.599 295.39 285.912 295.704 285.912 296.123Z" fill="white"/>
<path d="M213.178 289.742C212.655 290.474 211.924 291.102 210.983 291.625C210.043 292.043 208.998 292.357 207.744 292.462V294.344C207.744 294.554 207.639 294.763 207.535 294.972C207.43 295.077 207.221 295.181 206.908 295.181C206.699 295.181 206.49 295.077 206.281 294.972C206.176 294.867 206.072 294.658 206.072 294.344V292.462C204.086 292.357 202.31 291.939 200.638 291.206C200.429 291.102 200.22 290.997 200.115 290.788C200.011 290.579 199.906 290.37 199.906 290.16C199.906 289.847 200.011 289.637 200.22 289.324C200.429 289.114 200.742 289.01 201.056 289.01C201.265 289.01 201.369 289.01 201.578 289.114C203.041 289.742 204.609 290.16 206.176 290.16V283.989C204.922 283.675 203.877 283.361 203.041 282.943C202.205 282.525 201.474 282.002 200.951 281.374C200.429 280.642 200.115 279.805 200.115 278.759C200.115 277.818 200.324 276.981 200.847 276.144C201.265 275.307 201.996 274.68 202.937 274.157C203.877 273.634 204.922 273.32 206.176 273.215V271.332C206.176 271.123 206.281 270.914 206.385 270.705C206.49 270.496 206.699 270.496 207.012 270.496C207.221 270.496 207.43 270.6 207.639 270.705C207.848 270.914 207.848 271.019 207.848 271.332V273.215C209.625 273.32 211.192 273.634 212.551 274.157C213.073 274.366 213.282 274.68 213.282 275.203C213.282 275.516 213.178 275.726 212.969 275.935C212.76 276.144 212.551 276.249 212.237 276.249C212.133 276.249 212.028 276.249 211.819 276.144C210.565 275.726 209.311 275.516 207.848 275.412V281.792C209.102 282.106 210.252 282.42 211.088 282.838C211.924 283.152 212.655 283.78 213.178 284.407C213.7 285.14 214.014 286.081 214.014 287.232C213.909 288.068 213.7 288.905 213.178 289.742ZM203.355 280.223C203.982 280.642 204.818 281.06 205.967 281.374V275.412C204.922 275.516 203.982 275.935 203.355 276.353C202.728 276.876 202.414 277.504 202.414 278.341C202.519 279.177 202.832 279.7 203.355 280.223ZM211.506 286.918C211.506 286.186 211.192 285.663 210.565 285.244C209.938 284.826 208.998 284.512 207.744 284.198V289.951C210.252 289.847 211.506 288.801 211.506 286.918Z" fill="#060405"/>
<g opacity="0.05">
<path opacity="0.05" d="M449.975 248.948V325.097H334.607C330.532 325.097 327.188 321.75 327.188 317.67V256.375C327.188 252.295 330.532 248.948 334.607 248.948H449.975Z" fill="black"/>
</g>
<path d="M464.607 253.55V314.846C464.607 318.925 461.263 322.273 457.187 322.273H337.117C333.041 322.273 329.697 318.925 329.697 314.846V253.55C329.697 249.471 333.041 246.124 337.117 246.124H457.187C461.367 246.228 464.607 249.471 464.607 253.55Z" fill="#C3C3E1"/>
<path d="M446.111 307.629H427.301C427.301 302.922 426.256 298.319 424.166 294.135L440.991 285.767C444.439 292.566 446.111 299.993 446.111 307.629Z" fill="#F2CB2A"/>
<path opacity="0.2" d="M446.111 307.629H427.301C427.301 302.922 426.256 298.319 424.166 294.135L440.991 285.767C444.439 292.566 446.111 299.993 446.111 307.629Z" fill="white"/>
<path d="M424.27 294.135C420.821 287.336 415.074 282.002 407.863 279.387L414.447 261.814C426.046 266.207 435.451 274.68 440.99 285.767L424.27 294.135Z" fill="#F2CB2A"/>
<path opacity="0.1" d="M424.27 294.135C420.821 287.336 415.074 282.002 407.863 279.387L414.447 261.814C426.046 266.207 435.451 274.68 440.99 285.767L424.27 294.135Z" fill="#F7AE38"/>
<path d="M407.863 279.387C404.414 278.131 400.862 277.504 397.204 277.504C394.801 277.504 392.293 277.818 389.994 278.341L385.5 260.14C389.262 259.199 393.233 258.676 397.204 258.676C403.161 258.676 409.013 259.722 414.447 261.814L407.863 279.387Z" fill="#FF7545"/>
<path opacity="0.15" d="M407.863 279.387C404.414 278.131 400.862 277.504 397.204 277.504C394.801 277.504 392.293 277.818 389.994 278.341L385.5 260.14C389.262 259.199 393.233 258.676 397.204 258.676C403.161 258.676 409.013 259.722 414.447 261.814L407.863 279.387Z" fill="#F14146"/>
<path d="M367.003 307.629H348.193C348.193 285.035 363.555 265.37 385.5 260.036L389.993 278.236C376.408 281.688 367.003 293.717 367.003 307.629Z" fill="#3A81E1"/>
<path d="M370.139 307.629H345.059C345.059 294.135 350.179 281.374 359.375 271.646L377.558 288.905C372.751 294.031 370.139 300.725 370.139 307.629Z" fill="#060405"/>
<g opacity="0.05">
<path opacity="0.05" d="M288.107 347.586V378.757C288.107 381.476 285.913 383.568 283.3 383.568H241.918C239.201 383.568 237.111 381.372 237.111 378.757V347.586C237.111 344.866 239.306 342.774 241.918 342.774H283.196C285.913 342.774 288.107 344.866 288.107 347.586Z" fill="black"/>
</g>
<g opacity="0.05">
<path opacity="0.05" d="M348.611 347.586V378.757C348.611 381.476 346.417 383.568 343.804 383.568H302.422C299.705 383.568 297.615 381.372 297.615 378.757V347.586C297.615 344.866 299.81 342.774 302.422 342.774H343.804C346.521 342.774 348.611 344.866 348.611 347.586Z" fill="black"/>
</g>
<g opacity="0.05">
<path opacity="0.05" d="M409.223 347.586V378.757C409.223 381.476 407.028 383.568 404.416 383.568H363.034C360.317 383.568 358.227 381.372 358.227 378.757V347.586C358.227 344.866 360.421 342.774 363.034 342.774H404.416C407.028 342.774 409.223 344.866 409.223 347.586Z" fill="black"/>
</g>
<path d="M286.121 343.716V374.886C286.121 377.606 283.927 379.698 281.314 379.698H239.932C237.215 379.698 235.125 377.501 235.125 374.886V343.716C235.125 340.996 237.32 338.904 239.932 338.904H281.314C284.031 338.904 286.121 340.996 286.121 343.716Z" fill="#EDEDFE"/>
<path d="M346.73 343.716V374.886C346.73 377.606 344.536 379.698 341.923 379.698H300.541C297.824 379.698 295.734 377.501 295.734 374.886V343.716C295.734 340.996 297.929 338.904 300.541 338.904H341.923C344.536 338.904 346.73 340.996 346.73 343.716Z" fill="#EDEDFE"/>
<path d="M407.236 343.716V374.886C407.236 377.606 405.042 379.698 402.429 379.698H361.047C358.33 379.698 356.24 377.501 356.24 374.886V343.716C356.24 340.996 358.435 338.904 361.047 338.904H402.429C405.042 338.904 407.236 340.996 407.236 343.716Z" fill="#EDEDFE"/>
<g opacity="0.05">
<path opacity="0.05" d="M464.607 291.625V314.846C464.607 318.925 461.263 322.273 457.187 322.273H449.977V395.283C449.977 405.011 442.139 412.856 432.421 412.856H431.062V298.215C431.062 294.554 433.988 291.625 437.646 291.625H464.607Z" fill="black"/>
</g>
<path d="M435.242 301.771C435.242 298.215 438.064 295.39 441.617 295.39H532.218C535.771 295.39 538.593 298.215 538.593 301.771V426.768C538.593 430.324 535.771 433.149 532.218 433.149H441.617C438.064 433.149 435.242 430.324 435.242 426.768V301.771Z" fill="#6193F6" fill-opacity="0.65"/>
<g opacity="0.1">
<path opacity="0.1" d="M462.726 363.171H448.932C447.991 363.171 447.26 362.439 447.26 361.498V347.481C447.26 346.54 447.991 345.808 448.932 345.808H462.726C463.666 345.808 464.398 346.54 464.398 347.481V361.498C464.398 362.439 463.666 363.171 462.726 363.171ZM484.357 363.171H470.563C469.623 363.171 468.891 362.439 468.891 361.498V347.481C468.891 346.54 469.623 345.808 470.563 345.808H484.357C485.298 345.808 486.029 346.54 486.029 347.481V361.498C486.029 362.439 485.298 363.171 484.357 363.171ZM505.362 363.171H491.568C490.627 363.171 489.896 362.439 489.896 361.498V347.481C489.896 346.54 490.627 345.808 491.568 345.808H505.362C506.302 345.808 507.034 346.54 507.034 347.481V361.498C507.034 362.439 506.302 363.171 505.362 363.171ZM526.993 363.171H513.199C512.259 363.171 511.527 362.439 511.527 361.498V347.481C511.527 346.54 512.259 345.808 513.199 345.808H526.993C527.934 345.808 528.665 346.54 528.665 347.481V361.498C528.665 362.439 527.934 363.171 526.993 363.171Z" fill="black"/>
</g>
<g opacity="0.1">
<path opacity="0.1" d="M462.726 384.3H448.932C447.991 384.3 447.26 383.568 447.26 382.627V368.61C447.26 367.669 447.991 366.937 448.932 366.937H462.726C463.666 366.937 464.398 367.669 464.398 368.61V382.627C464.398 383.568 463.666 384.3 462.726 384.3ZM483.73 384.3H469.936C468.996 384.3 468.264 383.568 468.264 382.627V368.61C468.264 367.669 468.996 366.937 469.936 366.937H483.73C484.671 366.937 485.402 367.669 485.402 368.61V382.627C485.298 383.568 484.566 384.3 483.73 384.3ZM505.362 384.3H491.568C490.627 384.3 489.896 383.568 489.896 382.627V368.61C489.896 367.669 490.627 366.937 491.568 366.937H505.362C506.302 366.937 507.034 367.669 507.034 368.61V382.627C507.034 383.568 506.302 384.3 505.362 384.3ZM526.993 384.3H513.199C512.259 384.3 511.527 383.568 511.527 382.627V368.61C511.527 367.669 512.259 366.937 513.199 366.937H526.993C527.934 366.937 528.665 367.669 528.665 368.61V382.627C528.665 383.568 527.934 384.3 526.993 384.3Z" fill="black"/>
</g>
<g opacity="0.1">
<path opacity="0.1" d="M462.726 405.43H448.932C447.991 405.43 447.26 404.697 447.26 403.756V389.74C447.26 388.798 447.991 388.066 448.932 388.066H462.726C463.666 388.066 464.398 388.798 464.398 389.74V403.756C464.398 404.697 463.666 405.43 462.726 405.43ZM483.73 405.43H469.936C468.996 405.43 468.264 404.697 468.264 403.756V389.74C468.264 388.798 468.996 388.066 469.936 388.066H483.73C484.671 388.066 485.402 388.798 485.402 389.74V403.756C485.298 404.697 484.566 405.43 483.73 405.43ZM505.362 405.43H491.568C490.627 405.43 489.896 404.697 489.896 403.756V389.74C489.896 388.798 490.627 388.066 491.568 388.066H505.362C506.302 388.066 507.034 388.798 507.034 389.74V403.756C507.034 404.697 506.302 405.43 505.362 405.43Z" fill="black"/>
</g>
<g opacity="0.1">
<path opacity="0.1" d="M462.726 426.559H448.932C447.991 426.559 447.26 425.827 447.26 424.885V410.869C447.26 409.927 447.991 409.195 448.932 409.195H462.726C463.666 409.195 464.398 409.927 464.398 410.869V424.885C464.398 425.827 463.666 426.559 462.726 426.559ZM483.73 426.559H469.936C468.996 426.559 468.264 425.827 468.264 424.885V410.869C468.264 409.927 468.996 409.195 469.936 409.195H483.73C484.671 409.195 485.402 409.927 485.402 410.869V424.885C485.298 425.827 484.566 426.559 483.73 426.559ZM505.362 426.559H491.568C490.627 426.559 489.896 425.827 489.896 424.885V410.869C489.896 409.927 490.627 409.195 491.568 409.195H505.362C506.302 409.195 507.034 409.927 507.034 410.869V424.885C507.034 425.827 506.302 426.559 505.362 426.559ZM526.993 426.559H513.199C512.259 426.559 511.527 425.827 511.527 424.885V389.74C511.527 388.798 512.259 388.066 513.199 388.066H526.993C527.934 388.066 528.665 388.798 528.665 389.74V424.885C528.665 425.827 527.934 426.559 526.993 426.559Z" fill="black"/>
</g>
<path opacity="0.1" d="M530.652 311.499V333.779C530.652 335.871 528.875 337.649 526.785 337.649H451.127C451.023 337.649 450.814 337.649 450.709 337.649C448.828 337.44 447.365 335.766 447.365 333.883V311.603C447.365 309.511 449.142 307.733 451.232 307.733H526.89C528.98 307.733 530.652 309.407 530.652 311.499Z" fill="black"/>
<path d="M445.275 309.302V331.582C445.275 333.674 447.052 335.452 449.142 335.452H524.8C524.904 335.452 525.113 335.452 525.218 335.452C525.636 335.452 525.949 335.348 526.263 335.138C527.621 334.511 528.562 333.256 528.562 331.687V309.407C528.562 307.315 526.785 305.537 524.695 305.537H449.037C448.724 305.537 448.41 305.537 448.201 305.641C446.529 305.955 445.275 307.419 445.275 309.302Z" fill="#D2E4FF"/>
<path d="M445.275 309.302V311.394C466.593 310.871 487.911 310.348 509.229 309.93C512.991 309.825 517.171 309.825 520.202 312.126C523.441 314.637 524.486 319.03 524.591 323.109C524.695 327.189 524.173 331.373 525.218 335.348C527.099 335.138 528.562 333.465 528.562 331.582V309.302C528.562 307.21 526.785 305.432 524.695 305.432H449.037C446.947 305.432 445.275 307.21 445.275 309.302Z" fill="#BDD6FF"/>
<path d="M528.457 312.336L528.562 311.499L528.457 312.336C528.457 312.44 528.457 312.44 528.457 312.336Z" fill="#00F2FE"/>
<path opacity="0.25" d="M508.602 305.432L489.27 335.348H496.794L516.126 305.432H508.602Z" fill="white"/>
<path opacity="0.25" d="M497.002 305.432L477.669 335.348H474.012L493.344 305.432H497.002Z" fill="white"/>
<path opacity="0.25" d="M485.82 305.432L466.488 335.348H449.141C449.036 335.348 448.827 335.348 448.723 335.348C448.305 335.348 447.991 335.243 447.678 335.034L466.801 305.432H485.82ZM528.561 309.302V315.787L515.916 335.452H506.407L525.635 305.641C527.307 305.955 528.561 307.419 528.561 309.302Z" fill="white"/>
<path d="M461.366 362.021H447.572C446.632 362.021 445.9 361.288 445.9 360.347V346.331C445.9 345.389 446.632 344.657 447.572 344.657H461.366C462.307 344.657 463.038 345.389 463.038 346.331V360.347C462.934 361.288 462.202 362.021 461.366 362.021ZM482.58 362.439H468.786C467.845 362.439 467.114 361.707 467.114 360.765V346.749C467.114 345.808 467.845 345.075 468.786 345.075H482.58C483.52 345.075 484.252 345.808 484.252 346.749V360.765C484.147 361.707 483.416 362.439 482.58 362.439ZM503.48 362.439H489.686C488.745 362.439 488.014 361.707 488.014 360.765V346.749C488.014 345.808 488.745 345.075 489.686 345.075H503.48C504.42 345.075 505.152 345.808 505.152 346.749V360.765C505.152 361.707 504.42 362.439 503.48 362.439Z" fill="white"/>
<path d="M525.634 362.021H511.84C510.899 362.021 510.168 361.288 510.168 360.347V346.331C510.168 345.389 510.899 344.657 511.84 344.657H525.634C526.574 344.657 527.306 345.389 527.306 346.331V360.347C527.201 361.288 526.47 362.021 525.634 362.021Z" fill="#EFC102"/>
<path d="M461.366 383.15H447.572C446.632 383.15 445.9 382.418 445.9 381.476V367.46C445.9 366.518 446.632 365.786 447.572 365.786H461.366C462.307 365.786 463.038 366.518 463.038 367.46V381.476C462.934 382.418 462.202 383.15 461.366 383.15ZM481.848 383.568H468.054C467.114 383.568 466.382 382.836 466.382 381.895V367.878C466.382 366.937 467.114 366.205 468.054 366.205H481.848C482.789 366.205 483.52 366.937 483.52 367.878V381.895C483.52 382.836 482.789 383.568 481.848 383.568ZM503.48 383.568H489.686C488.745 383.568 488.014 382.836 488.014 381.895V367.878C488.014 366.937 488.745 366.205 489.686 366.205H503.48C504.42 366.205 505.152 366.937 505.152 367.878V381.895C505.152 382.836 504.42 383.568 503.48 383.568Z" fill="white"/>
<path d="M525.634 383.15H511.84C510.899 383.15 510.168 382.418 510.168 381.476V367.46C510.168 366.518 510.899 365.786 511.84 365.786H525.634C526.574 365.786 527.306 366.518 527.306 367.46V381.476C527.201 382.418 526.47 383.15 525.634 383.15Z" fill="#060405"/>
<path d="M461.366 404.279H447.572C446.632 404.279 445.9 403.547 445.9 402.605V388.589C445.9 387.648 446.632 386.915 447.572 386.915H461.366C462.307 386.915 463.038 387.648 463.038 388.589V402.605C462.934 403.442 462.202 404.279 461.366 404.279ZM481.848 404.697H468.054C467.114 404.697 466.382 403.965 466.382 403.024V389.007C466.382 388.066 467.114 387.334 468.054 387.334H481.848C482.789 387.334 483.52 388.066 483.52 389.007V403.024C483.52 403.965 482.789 404.697 481.848 404.697ZM503.48 404.697H489.686C488.745 404.697 488.014 403.965 488.014 403.024V389.007C488.014 388.066 488.745 387.334 489.686 387.334H503.48C504.42 387.334 505.152 388.066 505.152 389.007V403.024C505.152 403.965 504.42 404.697 503.48 404.697Z" fill="white"/>
<path d="M461.366 425.408H447.572C446.632 425.408 445.9 424.676 445.9 423.735V409.718C445.9 408.777 446.632 408.045 447.572 408.045H461.366C462.307 408.045 463.038 408.777 463.038 409.718V423.735C462.934 424.571 462.202 425.408 461.366 425.408ZM481.848 425.827H468.054C467.114 425.827 466.382 425.094 466.382 424.153V410.137C466.382 409.195 467.114 408.463 468.054 408.463H481.848C482.789 408.463 483.52 409.195 483.52 410.137V424.153C483.52 425.094 482.789 425.827 481.848 425.827ZM503.48 425.827H489.686C488.745 425.827 488.014 425.094 488.014 424.153V410.137C488.014 409.195 488.745 408.463 489.686 408.463H503.48C504.42 408.463 505.152 409.195 505.152 410.137V424.153C505.152 425.094 504.42 425.827 503.48 425.827Z" fill="white"/>
<path d="M525.634 425.408H511.84C510.899 425.408 510.168 424.676 510.168 423.735V388.589C510.168 387.648 510.899 386.915 511.84 386.915H525.634C526.574 386.915 527.306 387.648 527.306 388.589V423.735C527.201 424.571 526.47 425.408 525.634 425.408Z" fill="#FE6021"/>
<path d="M76.5984 445.387L91.5419 326.038L110.038 445.387H124.041L129.266 288.696H60.5054C59.7739 290.37 57.2659 308.361 57.3704 325.411C57.4749 362.125 61.2369 431.161 62.5954 445.701L76.5984 445.387Z" fill="#060405"/>
<path d="M76.7248 447.897V448.249L77.0552 448.368L77.0552 448.368L77.0554 448.368L77.0557 448.368L77.0593 448.369L77.0763 448.375C77.0918 448.381 77.1158 448.39 77.1477 448.403C77.2114 448.427 77.3064 448.465 77.428 448.517C77.6714 448.62 78.0207 448.776 78.4384 448.989C79.2754 449.414 80.379 450.059 81.4538 450.938C83.5197 452.629 85.423 455.135 85.2285 458.589H62.6297C62.6464 458.345 62.6647 458.027 62.6842 457.653C62.7317 456.743 62.7874 455.482 62.8461 454.076C62.8931 452.953 62.9422 451.736 62.9908 450.53C63.0559 448.915 63.1202 447.32 63.1778 445.991H76.7248V447.897Z" fill="white" stroke="black"/>
<path d="M85.3748 455.638C85.6883 456.684 85.7928 457.73 85.6883 458.985H61.9668C61.9668 458.985 62.0713 457.625 62.1758 455.638H85.3748Z" fill="#060405"/>
<path d="M124.166 447.897V448.249L124.497 448.368L124.497 448.368L124.497 448.368L124.497 448.368L124.501 448.369L124.518 448.375C124.533 448.381 124.557 448.39 124.589 448.403C124.653 448.427 124.748 448.465 124.87 448.517C125.113 448.62 125.463 448.776 125.882 448.989C126.72 449.414 127.828 450.059 128.909 450.939C130.988 452.63 132.915 455.136 132.768 458.589H110.071C110.088 458.345 110.106 458.027 110.126 457.653C110.173 456.743 110.229 455.482 110.288 454.076C110.335 452.953 110.384 451.736 110.432 450.53C110.497 448.915 110.562 447.32 110.619 445.991H124.166V447.897Z" fill="white" stroke="black"/>
<path d="M132.818 455.638C133.132 456.684 133.236 457.73 133.132 458.985H109.41C109.41 458.985 109.515 457.625 109.619 455.638H132.818Z" fill="#060405"/>
<path d="M184.546 190.163C183.606 193.196 179.321 194.974 179.321 194.974L155.077 229.702C152.151 234.095 146.717 236.187 141.597 234.932L114.74 228.446L130.102 206.48C130.102 206.48 143.06 212.652 143.06 212.129C143.164 211.606 170.439 185.142 170.439 185.142C170.439 185.142 167.617 177.088 169.812 176.774C172.006 176.46 173.574 179.494 173.574 179.494C173.574 179.494 180.784 168.301 182.143 169.766C183.606 171.23 178.381 182.318 178.381 182.318C178.381 182.318 185.487 187.129 184.546 190.163Z" fill="#F9BF9D"/>
<path d="M144.626 235.873C143.581 235.873 142.536 235.768 141.596 235.455L114.008 228.76L130.101 205.748L130.519 205.957C135.848 208.572 141.805 211.292 143.059 211.606C144.104 210.351 148.806 205.644 170.124 185.037C169.602 183.468 168.139 178.657 169.079 176.983C169.288 176.669 169.602 176.356 170.02 176.356C171.796 176.042 173.155 177.611 173.886 178.552C175.558 176.042 180.052 169.347 182.037 169.138C182.351 169.138 182.664 169.243 182.873 169.452C184.336 170.916 181.097 178.552 179.425 182.213C180.992 183.364 186.113 187.339 185.172 190.372C184.232 193.301 180.574 195.079 179.843 195.497L155.703 230.12C153.091 233.676 148.911 235.873 144.626 235.873ZM115.68 228.133L141.805 234.513C146.716 235.664 151.941 233.676 154.658 229.492L179.007 194.661L179.111 194.556C179.111 194.556 183.187 192.778 184.023 190.058C184.754 187.862 179.947 183.991 178.275 182.841L177.962 182.632L178.171 182.213C180.888 176.356 182.664 170.916 182.037 170.184C181.306 170.08 177.648 174.473 174.2 179.807L173.677 180.54L173.259 179.703C173.259 179.703 171.796 176.983 170.02 177.297C169.915 177.297 169.915 177.297 169.811 177.402C169.184 178.448 170.229 182.632 171.065 184.933L171.169 185.247L170.96 185.456C160.51 195.497 144.835 210.769 143.686 212.233V212.338L143.477 212.443C143.163 212.547 142.745 212.861 130.414 206.899L115.68 228.133ZM142.954 211.71C142.85 211.815 142.745 211.92 142.745 212.024C142.745 212.024 142.745 211.92 142.954 211.71Z" fill="#060405"/>
<path d="M116.203 195.288C116.203 195.288 135.954 201.878 138.462 204.702C137.521 215.79 133.341 224.158 127.176 230.957" fill="#EDEDFE"/>
<path d="M131.484 300.188V300.202C131.484 300.406 131.355 300.687 130.865 301.031C130.383 301.369 129.643 301.701 128.648 302.014C126.665 302.637 123.803 303.147 120.329 303.539C113.389 304.324 104.105 304.631 94.764 304.488C85.4236 304.344 76.0476 303.75 68.9237 302.737C65.3585 302.23 62.3784 301.622 60.2542 300.92C59.1903 300.568 58.3656 300.202 57.7945 299.827C57.2463 299.468 57.0038 299.15 56.9331 298.898L56.9332 298.893L56.9407 298.678C56.9472 298.49 56.9564 298.21 56.9674 297.845C56.9895 297.117 57.019 296.049 57.0484 294.694C57.1072 291.982 57.1661 288.118 57.1661 283.505C57.1661 274.28 56.9308 262.054 55.9889 250.059L55.9527 249.599H55.4904H48.7724C48.6757 242.92 48.6951 229.704 49.4019 224.751L49.4026 224.747C50.181 218.877 51.3701 215.273 52.71 212.629C53.6858 210.704 54.7356 209.29 55.8078 207.846C56.2195 207.292 56.6344 206.733 57.0497 206.139L57.0549 206.132L57.0598 206.124C57.3028 205.748 57.9931 205.046 59.0372 204.144C60.0628 203.258 61.3833 202.218 62.8362 201.173C65.7531 199.074 69.1546 196.99 71.75 196.073L71.7517 196.073C73.9154 195.299 77.2864 194.416 80.7103 193.712C84.1377 193.008 87.5769 192.492 89.8821 192.441L89.8871 192.441C93.1103 192.337 100.806 192.337 108.349 193.624C112.121 194.267 115.832 195.228 118.921 196.646C122.014 198.067 124.43 199.921 125.69 202.319C126.673 204.214 127.518 207.158 128.233 210.902C128.946 214.636 129.523 219.125 129.988 224.084C130.917 233.999 131.393 245.76 131.615 257.038C131.837 268.315 131.804 279.103 131.716 287.072C131.672 291.057 131.614 294.336 131.567 296.619C131.544 297.761 131.523 298.653 131.508 299.26C131.501 299.564 131.495 299.796 131.491 299.952L131.486 300.129L131.485 300.173L131.485 300.184L131.485 300.187C131.485 300.188 131.485 300.188 131.973 300.202L131.484 300.188Z" fill="#EDEDFE" stroke="black"/>
<path d="M121.012 275.203C121.012 275.203 125.296 268.09 128.64 270.391C131.88 272.588 126.968 276.039 126.864 276.249" fill="white"/>
<path d="M127.176 276.562L126.445 275.83L126.549 275.726C128.848 273.843 129.162 272.692 129.162 272.065C129.162 271.542 128.848 271.123 128.326 270.809C127.803 270.496 127.281 270.391 126.654 270.496C124.041 271.019 121.429 275.412 121.429 275.412L120.488 274.889C120.593 274.68 123.414 270.077 126.34 269.45C127.176 269.24 128.012 269.45 128.744 269.868C129.58 270.391 130.102 271.123 130.102 271.96C130.311 273.424 129.266 274.889 127.176 276.562Z" fill="#060405"/>
<path d="M152.257 305.014H123.31C121.22 305.014 119.653 303.026 120.175 300.934L130.939 259.408C131.357 258.048 132.611 257.002 134.074 257.002H163.02C165.11 257.002 166.678 258.99 166.155 261.082L155.392 302.608C155.078 304.072 153.72 305.014 152.257 305.014Z" fill="white"/>
<path d="M152.256 305.537H123.309C122.16 305.537 121.01 305.014 120.383 304.072C119.652 303.131 119.443 301.98 119.756 300.83L130.52 259.303C130.938 257.63 132.401 256.479 134.177 256.479H163.124C164.273 256.479 165.423 257.002 166.05 257.944C166.677 258.885 166.99 260.036 166.677 261.186L155.913 302.712C155.495 304.386 154.032 305.537 152.256 305.537ZM134.177 257.525C132.923 257.525 131.878 258.362 131.565 259.513L120.801 301.039C120.592 301.876 120.697 302.712 121.219 303.34C121.742 303.968 122.473 304.386 123.309 304.386H152.256C153.51 304.386 154.555 303.549 154.868 302.399L165.632 260.872C165.841 260.036 165.736 259.199 165.214 258.571C164.691 257.944 163.96 257.525 163.124 257.525H134.177Z" fill="#060405"/>
<path d="M126.861 276.144C127.384 276.144 143.686 274.68 143.163 285.663C142.85 293.403 120.173 289.01 120.173 289.01C120.173 289.01 57.8912 294.031 49.5312 284.617C46.5007 281.165 48.2772 244.973 48.2772 244.973L75.2382 245.182V264.952L121.114 275.098" fill="#F9BF9D"/>
<path d="M86.6296 290.997C70.3276 290.997 53.2941 289.742 49.1141 285.035C45.9791 281.583 47.5466 248.739 47.7556 245.078V244.555L75.7616 244.764V264.638L121.219 274.68L121.01 275.726L74.7166 265.475V245.81L48.8006 245.601C48.0691 260.036 47.8601 282.002 49.9501 284.303C58.1011 293.403 119.547 288.591 120.174 288.487H120.279H120.383C120.592 288.487 136.79 291.625 141.597 287.859C142.328 287.232 142.746 286.499 142.851 285.558C142.955 283.257 142.224 281.374 140.865 279.91C137.312 276.458 130.206 276.353 127.385 276.562C127.28 276.562 127.176 276.562 127.176 276.562V275.516H127.385C130.415 275.307 137.939 275.412 141.701 279.177C143.373 280.851 144.105 282.943 144 285.558C143.896 286.813 143.373 287.755 142.433 288.591C137.417 292.566 121.846 289.637 120.488 289.428C118.502 289.742 102.827 290.997 86.6296 290.997Z" fill="#060405"/>
<path d="M77.4325 252.923C77.8505 244.45 75.7605 226.982 73.6705 221.124C69.177 208.886 56.637 205.957 56.637 205.957C56.637 205.957 49.4265 213.279 47.859 225.099C47.1275 230.225 46.0825 244.869 46.187 251.354C53.92 253.655 65.7285 254.91 77.4325 252.923Z" fill="#EDEDFE"/>
<path d="M65.521 254.387C58.7285 254.387 51.8315 253.55 45.875 251.772L46.1885 250.726C55.489 253.341 66.8795 253.969 76.9115 252.4C77.225 243.927 75.2395 226.982 73.1495 221.229L74.09 220.915C76.2845 226.877 78.3745 244.555 77.9565 252.923V253.341L77.5385 253.446C73.672 254.073 69.5965 254.387 65.521 254.387Z" fill="#060405"/>
<path d="M96.5559 179.494C96.5559 179.494 98.8549 188.385 101.467 192.464C103.348 195.497 99.7954 201.146 96.4514 202.924C91.0174 205.748 80.4629 192.987 80.4629 192.987L80.0449 160.352L96.5559 179.494Z" fill="#E78952"/>
<path d="M80.674 156.482C80.9875 156.9 83.4955 183.05 99.275 181.272C115.055 179.494 110.979 146.858 103.873 139.641C96.8715 132.424 82.4505 138.909 82.4505 138.909L77.748 150.31L80.674 156.482Z" fill="#F9BF9D"/>
<path d="M93.9021 158.263C94.5365 158.239 95.0238 157.517 94.9905 156.651C94.9572 155.785 94.4159 155.103 93.7815 155.127C93.1471 155.152 92.6598 155.873 92.6931 156.739C92.7264 157.605 93.2677 158.287 93.9021 158.263Z" fill="#060405"/>
<path d="M104.25 158.161C104.884 158.137 105.371 157.415 105.338 156.549C105.305 155.683 104.764 155.001 104.129 155.026C103.495 155.05 103.007 155.772 103.041 156.638C103.074 157.504 103.615 158.186 104.25 158.161Z" fill="#060405"/>
<path d="M99.0658 166.628L98.4388 165.791C98.8568 165.477 99.3793 165.373 99.9018 165.373C100.215 165.373 100.424 165.163 100.424 165.059C100.424 164.85 100.215 164.64 100.006 164.431C98.3343 162.758 97.7073 160.247 98.2298 157.946L99.2748 158.155C98.8568 160.038 99.3793 162.235 100.738 163.594C101.051 164.013 101.574 164.536 101.469 165.163C101.365 165.791 100.842 166.209 100.006 166.314C99.5883 166.523 99.2748 166.523 99.0658 166.628ZM95.8263 174.473C94.9903 174.054 94.2588 173.322 93.9453 172.485L94.8858 172.067C95.0948 172.695 95.6173 173.218 96.2443 173.427C96.8713 173.741 97.6028 173.741 98.2298 173.427L98.6478 174.368C97.7073 174.787 96.7668 174.787 95.8263 174.473Z" fill="#060405"/>
<path d="M112.965 144.034C112.338 144.453 111.606 144.766 110.875 145.08C104.709 147.172 87.8845 143.302 87.362 145.708C86.8395 148.009 85.899 162.13 84.7495 160.352C82.6595 157.109 81.928 151.67 81.8235 161.084C81.928 164.536 80.883 177.82 80.883 177.82C80.256 176.146 77.2255 172.799 75.1355 169.243C71.478 162.967 73.568 146.335 73.568 146.335C73.568 146.335 69.2835 142.674 70.9555 138.909C72.6275 135.143 99.484 132.005 105.023 132.633C110.248 133.26 107.426 129.599 107.217 130.332C107.635 129.809 111.711 124.997 113.383 128.449C115.055 131.691 117.563 141.21 112.965 144.034Z" fill="#02133B"/>
<path d="M129.936 212.224L128.895 212.306L130.059 227.009L131.101 226.927L129.936 212.224Z" fill="#060405"/>
<path d="M525.739 183.155L550.819 129.599L514.871 145.917L519.365 155.854L534.831 145.394L521.873 165.059L525.739 183.155Z" fill="#6FD5B1"/>
<path d="M519.365 155.854L526.785 157.632L534.831 145.394L519.365 155.854Z" fill="#6FD5B1"/>
<path d="M514.245 211.606H476.207C475.998 211.606 475.789 211.397 475.789 211.187C475.789 210.978 475.998 210.769 476.207 210.769H514.245C514.454 210.769 514.663 210.978 514.663 211.187C514.663 211.397 514.454 211.606 514.245 211.606ZM514.245 230.434H476.207C475.998 230.434 475.789 230.225 475.789 230.015C475.789 229.806 475.998 229.597 476.207 229.597H514.245C514.454 229.597 514.663 229.806 514.663 230.015C514.663 230.225 514.454 230.434 514.245 230.434ZM507.243 221.02H453.426C453.217 221.02 453.008 220.811 453.008 220.601C453.008 220.392 453.217 220.183 453.426 220.183H507.243C507.452 220.183 507.661 220.392 507.661 220.601C507.661 220.811 507.557 221.02 507.243 221.02Z" fill="#C6E2FA"/>
<path d="M483.941 211.606C483.732 211.606 483.523 211.397 483.523 211.187V203.133C483.523 202.924 483.732 202.715 483.941 202.715C484.15 202.715 484.359 202.924 484.359 203.133V211.187C484.359 211.397 484.15 211.606 483.941 211.606ZM497.317 221.02C497.108 221.02 496.899 220.811 496.899 220.601V211.187C496.899 210.978 497.108 210.769 497.317 210.769C497.526 210.769 497.735 210.978 497.735 211.187V220.601C497.735 220.811 497.526 221.02 497.317 221.02ZM487.181 230.12C486.972 230.12 486.763 229.911 486.763 229.702V220.601C486.763 220.392 486.972 220.183 487.181 220.183C487.39 220.183 487.599 220.392 487.599 220.601V229.702C487.599 230.015 487.39 230.12 487.181 230.12Z" fill="#C6E2FA"/>
<path d="M410.164 79.9144H372.126C371.917 79.9144 371.708 79.7052 371.708 79.496C371.708 79.2868 371.917 79.0776 372.126 79.0776H410.164C410.373 79.0776 410.582 79.2868 410.582 79.496C410.582 79.7052 410.373 79.9144 410.164 79.9144ZM410.164 98.7424H372.126C371.917 98.7424 371.708 98.5332 371.708 98.324C371.708 98.1148 371.917 97.9056 372.126 97.9056H410.164C410.373 97.9056 410.582 98.1148 410.582 98.324C410.582 98.5332 410.373 98.7424 410.164 98.7424ZM403.267 89.3284H349.449C349.24 89.3284 349.031 89.1192 349.031 88.91C349.031 88.7008 349.24 88.4916 349.449 88.4916H403.267C403.476 88.4916 403.685 88.7008 403.685 88.91C403.685 89.1192 403.476 89.3284 403.267 89.3284Z" fill="#C6E2FA"/>
<path d="M379.965 79.9144C379.756 79.9144 379.547 79.7052 379.547 79.496V71.4418C379.547 71.2326 379.756 71.0234 379.965 71.0234C380.174 71.0234 380.383 71.2326 380.383 71.4418V79.496C380.383 79.7052 380.174 79.9144 379.965 79.9144ZM393.341 89.3284C393.132 89.3284 392.923 89.1192 392.923 88.91V79.496C392.923 79.2868 393.132 79.0776 393.341 79.0776C393.55 79.0776 393.759 79.2868 393.759 79.496V88.91C393.759 89.1192 393.55 89.3284 393.341 89.3284ZM383.1 98.4286C382.891 98.4286 382.682 98.2194 382.682 98.0102V88.91C382.682 88.7008 382.891 88.4916 383.1 88.4916C383.309 88.4916 383.518 88.7008 383.518 88.91V98.0102C383.518 98.2194 383.413 98.4286 383.1 98.4286Z" fill="#C6E2FA"/>
<path d="M196.668 356.163H158.63C158.421 356.163 158.212 355.954 158.212 355.745C158.212 355.535 158.421 355.326 158.63 355.326H196.668C196.877 355.326 197.086 355.535 197.086 355.745C197.086 355.954 196.877 356.163 196.668 356.163ZM196.668 374.991H158.63C158.421 374.991 158.212 374.782 158.212 374.573C158.212 374.363 158.421 374.154 158.63 374.154H196.668C196.877 374.154 197.086 374.363 197.086 374.573C197.086 374.782 196.877 374.991 196.668 374.991ZM189.771 365.577H135.953C135.744 365.577 135.535 365.368 135.535 365.159C135.535 364.949 135.744 364.74 135.953 364.74H189.771C189.98 364.74 190.189 364.949 190.189 365.159C190.189 365.368 189.98 365.577 189.771 365.577Z" fill="#C6E2FA"/>
<path d="M166.469 356.163C166.26 356.163 166.051 355.954 166.051 355.745V347.69C166.051 347.481 166.26 347.272 166.469 347.272C166.678 347.272 166.887 347.481 166.887 347.69V355.745C166.782 355.954 166.678 356.163 166.469 356.163ZM179.845 365.577C179.636 365.577 179.427 365.368 179.427 365.159V355.745C179.427 355.535 179.636 355.326 179.845 355.326C180.054 355.326 180.263 355.535 180.263 355.745V365.159C180.263 365.368 180.054 365.577 179.845 365.577ZM169.604 374.677C169.395 374.677 169.186 374.468 169.186 374.259V365.159C169.186 364.949 169.395 364.74 169.604 364.74C169.813 364.74 170.022 364.949 170.022 365.159V374.259C170.022 374.573 169.813 374.677 169.604 374.677Z" fill="#C6E2FA"/>
<path d="M59.7129 131.801C60.736 133.065 62.4934 133.722 64.1735 133.229C65.8536 132.735 66.9765 131.232 67.1536 129.616L59.7129 131.801Z" fill="#3A4146"/>
<path d="M66.8495 124.183C66.8607 122.241 67.4596 120.321 68.5202 118.653C70.5414 115.637 71.2408 111.749 70.1403 108.002C68.0964 101.044 60.6207 97.0378 53.5885 99.4908C47.333 101.619 43.7308 108.491 45.4128 114.877C46.4765 118.828 49.1935 121.81 52.6404 123.317C54.5238 124.12 56.066 125.412 57.1253 127.039L66.8495 124.183Z" fill="#F7AE38"/>
<path d="M67.3375 126.171L57.7026 129.001C57.1673 129.158 56.5903 128.843 56.4331 128.308C56.2759 127.773 56.5909 127.196 57.1262 127.039L66.7611 124.209C67.2963 124.052 67.8734 124.367 68.0306 124.902C68.1878 125.437 67.8728 126.014 67.3375 126.171ZM68.2546 129.294L58.6197 132.124C58.0845 132.281 57.5074 131.966 57.3502 131.43C57.193 130.895 57.508 130.318 58.0433 130.161L67.6782 127.331C68.2135 127.174 68.7905 127.489 68.9477 128.024C69.1049 128.559 68.7899 129.137 68.2546 129.294Z" fill="#2E363A"/>
<path d="M63.2761 110.95C63.3508 110.928 63.5528 111.223 63.6524 111.912C63.7515 112.596 63.6335 113.65 63.2702 114.92C62.5632 117.014 62.2561 119.16 62.4752 121.326C62.6813 123.869 63.1565 125.097 62.9454 125.171C62.8221 125.233 62.0244 124.089 61.6463 121.407C61.4074 119.141 61.7543 116.794 62.4727 114.68C62.9003 113.45 63.1061 112.547 63.1563 111.923C63.2044 111.304 63.1767 110.976 63.2761 110.95ZM52.8941 114C52.9875 113.969 53.1403 114.26 53.5148 114.754C53.8935 115.251 54.5548 115.899 55.5787 116.705C57.3261 118.095 58.8867 119.881 59.9113 121.916C61.0482 124.376 60.9919 125.771 60.8544 125.785C60.6368 125.837 60.3768 124.546 59.1702 122.296C58.1832 120.356 56.7645 118.717 55.0374 117.338C54.0462 116.464 53.3776 115.643 53.0913 115.012C52.8035 114.38 52.8148 114.022 52.8941 114Z" fill="#3A4146"/>
<path d="M49.712 131.12C49.5059 131.053 49.4669 130.485 49.7723 129.447C50.1046 128.598 50.4776 127.765 50.8894 126.951C51.4598 126.033 51.9095 125.683 52.1011 125.795C52.2997 125.911 52.1948 126.45 51.8115 127.417C51.4143 128.202 51.0547 129.005 50.7341 129.824C50.268 130.755 49.9357 131.193 49.712 131.12ZM75.4809 123.888C75.3193 124.046 74.8289 123.801 73.9843 123.209C73.3155 122.648 72.6023 122.141 71.8536 121.694C71.0175 121.091 70.6248 120.708 70.7242 120.499C70.8173 120.3 71.3933 120.333 72.3847 120.808C73.1796 121.283 73.9367 121.822 74.6467 122.416C75.4219 123.197 75.6419 123.731 75.4809 123.888ZM79.8175 112.076C79.7827 112.293 79.283 112.415 78.3215 112.356L75.9143 111.973C74.9823 111.733 74.545 111.462 74.5805 111.239C74.6159 111.016 75.1146 110.898 76.0762 110.953L78.4836 111.335C79.4156 111.581 79.8536 111.847 79.8175 112.076ZM77.2748 97.7285C77.3814 97.9218 77.02 98.349 76.1385 98.9399L73.7863 100.239C72.8176 100.67 72.2636 100.748 72.1542 100.55C72.0451 100.353 72.4092 99.93 73.287 99.3347L75.6392 98.0359C76.6115 97.6093 77.1628 97.526 77.2748 97.7285ZM65.07 89.8538C65.2842 89.8929 65.4158 90.3315 65.3133 91.1639C65.1499 91.8497 64.9571 92.5285 64.7356 93.1978C64.3854 93.9591 64.0428 94.2631 63.835 94.1815C63.6221 94.0986 63.5952 93.6596 63.7545 92.8735C63.9671 92.2324 64.1518 91.5815 64.3085 90.9242C64.586 90.1712 64.8397 89.8114 65.07 89.8538ZM52.144 93.7831C51.9208 93.738 51.83 93.3118 51.7758 92.5347C51.8041 91.8777 51.7484 91.2161 51.6101 90.5727C51.5333 89.7985 51.5515 89.363 51.7691 89.279C51.9712 89.1991 52.3345 89.516 52.6204 90.3573C52.7768 91.0859 52.8398 91.8333 52.808 92.5776C52.667 93.4559 52.362 93.8297 52.144 93.7831ZM43.9519 99.7988C43.7986 99.9659 43.3433 99.7888 42.5657 99.3365C41.9489 98.8922 41.2894 98.5066 40.5995 98.1869C39.8249 97.7316 39.4474 97.4215 39.5198 97.2007C39.5867 96.9923 40.1061 96.9325 41.0349 97.2504C41.7837 97.5972 42.499 98.0153 43.1686 98.4977C43.902 99.1517 44.1044 99.6342 43.9519 99.7988ZM39.7894 110.176C39.7227 110.386 39.299 110.472 38.5409 110.35L36.6802 109.817C35.9731 109.519 35.6593 109.222 35.7153 109.003C35.7713 108.783 36.1851 108.701 36.9524 108.82L38.8381 109.361C39.5525 109.666 39.8595 109.956 39.7894 110.176ZM43.7066 119.608C43.8762 119.737 43.7835 120.222 43.2152 120.934C42.678 121.478 42.0877 121.97 41.4551 122.399C40.6523 122.828 40.1592 122.832 40.0599 122.637C39.9532 122.431 40.2468 122.084 40.8736 121.545C41.4511 121.153 41.9904 120.704 42.481 120.207C43.1252 119.688 43.5189 119.462 43.7066 119.608Z" fill="#3A4146"/>
<path d="M66.7984 126.329L58.2383 128.843L58.5789 130.003L67.139 127.489L66.7984 126.329Z" fill="#3A4146"/>
<path d="M62.4691 111.143C62.3701 111.242 62.1386 111.238 61.9589 111.498C61.8479 111.628 61.7705 111.854 61.4637 112.26C61.3178 112.452 61.0117 112.705 60.6494 112.792C60.294 112.885 59.9431 112.86 59.6237 112.794C59.0955 112.644 58.7224 112.473 58.4961 112.481C58.3863 112.477 58.2811 112.515 58.2504 112.538C58.2242 112.574 58.2439 112.5 58.2039 112.665C58.1667 112.813 58.1818 113.118 57.9785 113.514C57.7684 113.891 57.4287 114.131 57.0505 114.237C56.663 114.341 56.2803 114.289 55.9548 114.149C55.6125 114.004 55.3745 113.762 55.2229 113.617C55.0448 113.42 54.9662 113.348 54.9151 113.318C54.8459 113.278 54.7409 113.261 54.6488 113.271C54.4631 113.29 54.3355 113.381 54.2419 113.535C54.062 113.84 54.1112 114.123 53.9851 114.205C53.9045 114.296 53.4675 114.13 53.4571 113.376C53.453 113.028 53.6984 112.471 54.2708 112.223C54.5462 112.101 54.8851 112.042 55.2586 112.127C55.6577 112.215 55.9623 112.482 56.1565 112.65C56.3224 112.812 56.4133 112.886 56.4856 112.914C56.5677 112.95 56.6523 112.954 56.696 112.94C56.8215 112.835 56.7853 113.041 56.8811 112.425C56.9037 112.153 57.1325 111.644 57.4864 111.432C57.8256 111.205 58.1747 111.137 58.5079 111.137C59.1839 111.162 59.6267 111.42 59.9568 111.492C60.1447 111.557 60.2969 111.58 60.3936 111.579C60.4868 111.577 60.5449 111.569 60.6691 111.479C60.8961 111.311 61.1791 110.97 61.5235 110.826C61.8805 110.665 62.199 110.735 62.354 110.85C62.515 110.969 62.5154 111.091 62.4691 111.143Z" fill="#3A4146"/>
<path d="M565.17 111.202C565.527 102.867 572.572 96.3988 580.908 96.755C589.243 97.1113 595.711 104.157 595.354 112.492C594.998 120.826 587.953 127.294 579.618 126.938C571.282 126.582 564.814 119.536 565.17 111.202Z" fill="#FFD964"/>
<path d="M569.547 113.405C570.235 118.141 573.91 121.721 578.384 122.511C579.119 122.642 579.875 122.697 580.643 122.669C580.644 122.67 580.644 122.669 580.644 122.669C581.033 122.655 581.426 122.62 581.82 122.563C584.813 122.129 587.507 120.445 589.211 117.945C590.741 115.7 591.369 112.982 590.978 110.291C590.562 107.429 589.057 104.9 586.738 103.17C584.986 101.862 582.905 101.109 580.692 101.028C579.94 101.001 579.174 101.05 578.4 101.182C575.529 101.684 572.96 103.336 571.314 105.751C569.783 107.996 569.156 110.715 569.547 113.405Z" fill="#FFC536"/>
<path d="M584.554 116.225C584.235 116.707 583.78 117.091 583.191 117.377C582.602 117.664 581.92 117.829 581.146 117.874V119.069C581.146 119.214 581.098 119.335 581.003 119.431C580.908 119.526 580.781 119.574 580.624 119.574C580.479 119.574 580.358 119.529 580.263 119.439C580.167 119.349 580.12 119.226 580.12 119.069V117.874C578.907 117.795 577.774 117.532 576.72 117.083C576.585 117.027 576.472 116.934 576.383 116.805C576.293 116.676 576.248 116.539 576.248 116.393C576.248 116.202 576.313 116.037 576.442 115.897C576.571 115.756 576.736 115.686 576.938 115.686C577.05 115.686 577.157 115.709 577.258 115.754C578.167 116.157 579.121 116.382 580.12 116.427V112.556C579.356 112.354 578.714 112.135 578.192 111.899C577.671 111.664 577.236 111.33 576.888 110.898C576.54 110.466 576.366 109.919 576.366 109.257C576.366 108.674 576.509 108.135 576.795 107.641C577.081 107.148 577.508 106.738 578.075 106.413C578.641 106.087 579.322 105.891 580.12 105.824V104.645C580.12 104.5 580.167 104.376 580.263 104.275C580.358 104.174 580.479 104.124 580.624 104.124C580.771 104.124 580.894 104.174 580.995 104.275C581.096 104.376 581.146 104.5 581.146 104.645V105.807C582.246 105.852 583.222 106.037 584.075 106.362C584.389 106.474 584.546 106.699 584.546 107.035C584.546 107.215 584.484 107.378 584.361 107.523C584.237 107.669 584.075 107.742 583.873 107.742C583.806 107.742 583.716 107.72 583.603 107.675C582.841 107.406 582.021 107.254 581.146 107.221V111.226C581.954 111.417 582.625 111.624 583.158 111.849C583.69 112.074 584.137 112.407 584.496 112.85C584.854 113.294 585.034 113.88 585.034 114.609C585.034 115.204 584.874 115.742 584.554 116.225ZM578.462 110.284C578.838 110.553 579.39 110.783 580.12 110.974V107.271C579.447 107.361 578.907 107.566 578.504 107.885C578.1 108.205 577.898 108.623 577.898 109.139C577.898 109.633 578.086 110.014 578.462 110.284ZM583.52 114.508C583.52 114.071 583.32 113.731 582.922 113.49C582.523 113.249 581.932 113.022 581.146 112.808V116.427C582.728 116.314 583.52 115.675 583.52 114.508Z" fill="white"/>
<path d="M580.643 122.669C581.032 122.655 581.425 122.62 581.818 122.563C584.811 122.129 587.506 120.445 589.21 117.945C590.74 115.7 591.368 112.982 590.977 110.291C590.561 107.429 589.055 104.9 586.737 103.17C584.985 101.862 582.904 101.109 580.69 101.028C586.977 104.179 589.481 112.434 585.234 118.662C584.063 120.381 582.472 121.754 580.643 122.669Z" fill="#FFB612"/>
<path d="M580.266 93.8467C579.845 93.8467 579.504 93.506 579.504 93.085V90.0287C579.504 89.6077 579.845 89.2671 580.266 89.2671C580.687 89.2671 581.028 89.6077 581.028 90.0287V93.085C581.028 93.506 580.687 93.8467 580.266 93.8467ZM580.266 134.426C579.845 134.426 579.504 134.085 579.504 133.664V130.608C579.504 130.187 579.845 129.846 580.266 129.846C580.687 129.846 581.028 130.187 581.028 130.608V133.664C581.028 134.085 580.687 134.426 580.266 134.426ZM592.995 99.1187C592.697 98.821 592.697 98.3392 592.995 98.0415L595.156 95.8804C595.453 95.5827 595.935 95.5827 596.233 95.8804C596.531 96.1781 596.531 96.6599 596.233 96.9576L594.072 99.1187C593.774 99.4164 593.292 99.4164 592.995 99.1187ZM564.299 127.812C564.002 127.515 564.002 127.033 564.299 126.735L566.461 124.574C566.758 124.276 567.24 124.276 567.538 124.574C567.836 124.872 567.836 125.354 567.538 125.651L565.377 127.812C565.079 128.11 564.597 128.11 564.299 127.812Z" fill="#FFD964"/>
<path d="M598.265 111.846C598.265 111.425 598.605 111.085 599.026 111.085H602.083C602.504 111.085 602.844 111.425 602.844 111.846C602.844 112.267 602.504 112.608 602.083 112.608H599.026C598.605 112.608 598.265 112.267 598.265 111.846ZM557.684 111.846C557.684 111.425 558.024 111.085 558.445 111.085H561.502C561.923 111.085 562.263 111.425 562.263 111.846C562.263 112.267 561.923 112.608 561.502 112.608H558.445C558.024 112.608 557.684 112.267 557.684 111.846Z" fill="#FFD964"/>
<path d="M592.993 124.574C593.29 124.276 593.772 124.276 594.07 124.574L596.231 126.735C596.529 127.033 596.529 127.515 596.231 127.812C595.933 128.11 595.452 128.11 595.154 127.812L592.993 125.651C592.695 125.354 592.695 124.872 592.993 124.574ZM564.298 95.8804C564.595 95.5827 565.077 95.5827 565.375 95.8804L567.536 98.0415C567.834 98.3392 567.834 98.821 567.536 99.1187C567.238 99.4164 566.756 99.4164 566.459 99.1187L564.298 96.9575C564 96.6598 564 96.1781 564.298 95.8804Z" fill="#FFD964"/>
<path d="M580.266 93.8467C579.845 93.8467 579.504 93.506 579.504 93.085V90.0287C579.504 89.6077 579.845 89.2671 580.266 89.2671C580.687 89.2671 581.028 89.6077 581.028 90.0287V93.085C581.028 93.506 580.687 93.8467 580.266 93.8467ZM580.266 134.426C579.845 134.426 579.504 134.085 579.504 133.664V130.608C579.504 130.187 579.845 129.846 580.266 129.846C580.687 129.846 581.028 130.187 581.028 130.608V133.664C581.028 134.085 580.687 134.426 580.266 134.426ZM592.995 99.1187C592.697 98.821 592.697 98.3392 592.995 98.0415L595.156 95.8804C595.453 95.5827 595.935 95.5827 596.233 95.8804C596.531 96.1781 596.531 96.6599 596.233 96.9576L594.072 99.1187C593.774 99.4164 593.292 99.4164 592.995 99.1187ZM564.299 127.812C564.002 127.515 564.002 127.033 564.299 126.735L566.461 124.574C566.758 124.276 567.24 124.276 567.538 124.574C567.836 124.872 567.836 125.354 567.538 125.651L565.377 127.812C565.079 128.11 564.597 128.11 564.299 127.812Z" fill="#FFD964"/>
<path d="M598.265 111.846C598.265 111.425 598.605 111.085 599.026 111.085H602.083C602.504 111.085 602.844 111.425 602.844 111.846C602.844 112.267 602.504 112.608 602.083 112.608H599.026C598.605 112.608 598.265 112.267 598.265 111.846ZM557.684 111.846C557.684 111.425 558.024 111.085 558.445 111.085H561.502C561.923 111.085 562.263 111.425 562.263 111.846C562.263 112.267 561.923 112.608 561.502 112.608H558.445C558.024 112.608 557.684 112.267 557.684 111.846Z" fill="#FFD964"/>
<path d="M592.993 124.574C593.29 124.276 593.772 124.276 594.07 124.574L596.231 126.735C596.529 127.033 596.529 127.515 596.231 127.812C595.933 128.11 595.452 128.11 595.154 127.812L592.993 125.651C592.695 125.354 592.695 124.872 592.993 124.574ZM564.298 95.8804C564.595 95.5827 565.077 95.5827 565.375 95.8804L567.536 98.0415C567.834 98.3392 567.834 98.821 567.536 99.1187C567.238 99.4164 566.756 99.4164 566.459 99.1187L564.298 96.9575C564 96.6598 564 96.1781 564.298 95.8804Z" fill="#FFD964"/>
<path d="M262.088 71.5166C275.168 71.5166 285.77 60.9142 285.77 47.8356C285.77 34.757 275.168 24.1546 262.088 24.1546C249.009 24.1546 238.406 34.757 238.406 47.8356C238.406 60.9142 249.009 71.5166 262.088 71.5166Z" fill="#D1DCF8"/>
<path d="M262.087 68.8844C273.712 68.8844 283.137 59.4605 283.137 47.8356C283.137 36.2107 273.712 26.7868 262.087 26.7868C250.461 26.7868 241.037 36.2107 241.037 47.8356C241.037 59.4605 250.461 68.8844 262.087 68.8844Z" fill="#F3F6FD"/>
<path d="M271.298 48.3344H259.267C259 48.3344 258.783 48.1179 258.783 47.8502C258.783 47.5826 259 47.3661 259.267 47.3661H271.298C271.565 47.3661 271.782 47.5826 271.782 47.8502C271.782 48.1179 271.565 48.3344 271.298 48.3344Z" fill="#BBCAEA"/>
<path d="M262.084 50.8579C261.951 50.8579 261.842 50.7496 261.842 50.6158V30.8927C261.842 30.7589 261.951 30.6507 262.084 30.6507C262.217 30.6507 262.326 30.7589 262.326 30.8927V50.6158C262.326 50.7496 262.217 50.8579 262.084 50.8579Z" fill="#FE4C40"/>
<path d="M254.287 57.6293C254.233 57.6293 254.179 57.6113 254.134 57.5744C254.03 57.4898 254.015 57.3375 254.1 57.234L263.733 45.4573C263.817 45.3537 263.971 45.3381 264.073 45.4232C264.177 45.5079 264.193 45.6601 264.107 45.7637L254.475 57.5404C254.427 57.599 254.357 57.6293 254.287 57.6293Z" fill="#BBCAEA"/>
<path d="M262.084 48.6676C262.525 48.6676 262.883 48.31 262.883 47.8688C262.883 47.4277 262.525 47.0701 262.084 47.0701C261.643 47.0701 261.285 47.4277 261.285 47.8688C261.285 48.31 261.643 48.6676 262.084 48.6676Z" fill="white"/>
</svg>
