<svg width="532" height="532" viewBox="0 0 532 532" fill="none" xmlns="http://www.w3.org/2000/svg">
<g clip-path="url(#clip0_834_891)">
<rect x="-59" y="-95" width="1600" height="722" fill="#FAFAFF" fill-opacity="0.47"/>
<path d="M464.639 180.737H29.25V477.675H464.639V180.737Z" fill="#EDEDFE"/>
<path d="M523.215 162.161V359.903H464.541V180.737H29.2504C29.2246 174.444 30.4447 168.208 32.8409 162.39C35.237 156.571 38.7615 151.284 43.2114 146.834C47.6611 142.385 52.9478 138.86 58.7666 136.464C64.5853 134.068 70.8209 132.847 77.1136 132.873H493.926C497.775 132.86 501.589 133.609 505.148 135.076C508.71 136.544 511.942 138.7 514.666 141.423C517.387 144.145 519.544 147.379 521.013 150.938C522.478 154.497 523.228 158.312 523.215 162.161Z" fill="#C3C3E1"/>
<path d="M436.919 120.195C450.762 120.195 461.982 108.975 461.982 95.1335C461.982 81.2922 450.762 70.0718 436.919 70.0718C423.079 70.0718 411.859 81.2922 411.859 95.1335C411.859 108.975 423.079 120.195 436.919 120.195Z" fill="white"/>
<path d="M436.919 120.785C433.108 120.759 429.346 119.886 425.912 118.229C421.38 116.034 417.592 112.553 415.025 108.219C412.455 103.886 411.221 98.8917 411.471 93.8606C411.724 88.8297 413.45 83.984 416.437 79.9283C419.425 75.8726 423.542 72.7862 428.272 71.054C434.658 68.7787 441.686 69.1245 447.82 72.0159C453.951 74.9073 458.691 80.1092 461 86.4844C462.157 89.6434 462.665 93.0033 462.498 96.3634C462.328 99.7235 461.484 103.015 460.016 106.042C458.598 109.084 456.593 111.815 454.114 114.076C451.632 116.336 448.73 118.082 445.57 119.212C442.793 120.208 439.869 120.74 436.919 120.785ZM436.919 70.5627C434.108 70.5319 431.315 70.9976 428.665 71.9387C422.521 74.1391 417.499 78.684 414.7 84.5785C411.899 90.4728 411.551 97.2367 413.727 103.389C416.198 109.156 420.773 113.764 426.521 116.277C432.272 118.789 438.763 119.016 444.673 116.912C450.584 114.809 455.47 110.532 458.34 104.952C461.208 99.3721 461.844 92.9089 460.115 86.8776C458.409 82.0946 455.263 77.9578 451.108 75.0363C446.956 72.1146 441.997 70.5518 436.919 70.5627Z" fill="#02133B"/>
<path d="M436.919 113.807C447.232 113.807 455.592 105.446 455.592 95.1332C455.592 84.8201 447.232 76.4597 436.919 76.4597C426.606 76.4597 418.246 84.8201 418.246 95.1332C418.246 105.446 426.606 113.807 436.919 113.807Z" fill="#02133B"/>
<path d="M436.918 107.124C443.542 107.124 448.91 101.755 448.91 95.1333C448.91 88.5112 443.542 83.1428 436.918 83.1428C430.298 83.1428 424.93 88.5112 424.93 95.1333C424.93 101.755 430.298 107.124 436.918 107.124Z" fill="white"/>
<path d="M436.919 107.615C435.073 107.637 433.248 107.198 431.612 106.337C430.133 105.663 428.806 104.698 427.707 103.499C426.609 102.3 425.766 100.892 425.223 99.3592C424.648 97.8249 424.385 96.1911 424.451 94.5536C424.515 92.9161 424.906 91.3082 425.603 89.8244C426.3 88.3409 427.284 87.0115 428.503 85.9145C429.721 84.8178 431.147 83.9756 432.692 83.4378C434.23 82.8565 435.871 82.6001 437.512 82.6847C439.153 82.7693 440.757 83.193 442.226 83.9291C443.707 84.6028 445.035 85.5682 446.133 86.7673C447.229 87.9661 448.075 89.3741 448.615 90.907C449.197 92.444 449.453 94.0844 449.368 95.7251C449.283 97.366 448.86 98.9714 448.123 100.44C447.45 101.92 446.484 103.248 445.285 104.346C444.088 105.443 442.678 106.288 441.146 106.829C439.792 107.326 438.363 107.592 436.919 107.615ZM436.919 83.6343C435.613 83.6633 434.32 83.8953 433.086 84.3222C430.421 85.4852 428.293 87.6161 427.135 90.2849C425.976 92.9539 425.875 95.9626 426.845 98.7048C427.819 101.447 429.793 103.719 432.373 105.062C434.956 106.406 437.948 106.721 440.752 105.944C443.603 104.903 445.931 102.786 447.24 100.047C447.899 98.6953 448.282 97.2253 448.368 95.7232C448.45 94.2214 448.235 92.7174 447.732 91.3002C447.229 89.8808 446.45 88.5758 445.436 87.4618C444.423 86.3481 443.199 85.4477 441.835 84.8135C440.31 84.0413 438.627 83.6373 436.919 83.6343Z" fill="#02133B"/>
<path d="M436.922 99.6542C439.419 99.6542 441.444 97.6299 441.444 95.1332C441.444 92.6363 439.419 90.6123 436.922 90.6123C434.427 90.6123 432.402 92.6363 432.402 95.1332C432.402 97.6299 434.427 99.6542 436.922 99.6542Z" fill="#02133B"/>
<path d="M464.048 67.5163L466.9 59.4572C467.006 59.0934 467.206 58.7643 467.48 58.5026C467.756 58.2411 468.094 58.0562 468.461 57.9666C468.831 57.8769 469.217 57.8857 469.578 57.9921C469.943 58.0985 470.273 58.2988 470.536 58.5725L475.744 63.7816C475.994 64.0484 476.175 64.3721 476.274 64.7246C476.372 65.0773 476.383 65.4484 476.306 65.8061C476.228 66.1636 476.064 66.4972 475.829 66.7781C475.595 67.0587 475.295 67.2784 474.957 67.4178L466.996 70.3664C466.594 70.5213 466.158 70.5582 465.735 70.4723C465.312 70.3867 464.923 70.1818 464.612 69.8823C464.304 69.5828 464.086 69.2008 463.985 68.7816C463.886 68.3624 463.907 67.9235 464.048 67.5163Z" fill="#F14146"/>
<path d="M438.887 94.1505L438.591 93.9539C438.504 93.8621 438.453 93.7387 438.453 93.61C438.453 93.4815 438.504 93.3578 438.591 93.266L475.055 59.1622C475.148 59.0723 475.27 59.0217 475.398 59.0217C475.528 59.0217 475.651 59.0723 475.744 59.1622C475.826 59.2821 475.863 59.429 475.845 59.5745C475.829 59.7197 475.757 59.853 475.645 59.9485L439.28 93.9539L438.887 94.1505Z" fill="#02133B"/>
<path d="M439.476 89.7283L435.84 96.0181L443.014 93.5611L439.476 89.7283Z" fill="#F14146"/>
<path d="M61.2916 342.313C66.9367 342.313 71.5129 337.735 71.5129 332.09C71.5129 326.446 66.9367 321.868 61.2916 321.868C55.6466 321.868 51.0703 326.446 51.0703 332.09C51.0703 337.735 55.6466 342.313 61.2916 342.313Z" fill="#3A81E1"/>
<path d="M55.2927 339.658C53.174 339.658 51.1027 339.031 49.3412 337.852C47.5795 336.676 46.2064 335.003 45.3956 333.046C44.5846 331.088 44.3726 328.933 44.786 326.856C45.1993 324.778 46.2194 322.868 47.7178 321.371C49.2159 319.873 51.1247 318.852 53.2027 318.439C55.281 318.024 57.4348 318.237 59.3923 319.049C61.3498 319.86 63.0229 321.232 64.2 322.993C65.3773 324.757 66.0056 326.826 66.0056 328.946C66.0056 330.354 65.7284 331.745 65.19 333.046C64.6516 334.346 63.8624 335.525 62.8678 336.519C61.873 337.514 60.692 338.304 59.3923 338.842C58.0926 339.382 56.6996 339.658 55.2927 339.658ZM55.2927 319.216C53.3685 319.216 51.4873 319.785 49.887 320.855C48.2871 321.924 47.04 323.446 46.3035 325.222C45.5672 326.999 45.3744 328.957 45.7499 330.843C46.1253 332.732 47.052 334.466 48.4126 335.825C49.7735 337.187 51.5072 338.113 53.3945 338.488C55.2821 338.863 57.2382 338.671 59.0162 337.935C60.7941 337.198 62.3138 335.95 63.3828 334.352C64.4519 332.75 65.0227 330.87 65.0227 328.946C65.0227 326.366 63.9975 323.89 62.1728 322.065C60.348 320.24 57.8732 319.216 55.2927 319.216ZM119.569 326.587H75.1459C75.0155 326.587 74.8905 326.534 74.7982 326.443C74.7062 326.35 74.6543 326.225 74.6543 326.095C74.6543 325.965 74.7062 325.84 74.7982 325.749C74.8905 325.656 75.0155 325.603 75.1459 325.603H119.569C119.699 325.603 119.824 325.656 119.917 325.749C120.009 325.84 120.061 325.965 120.061 326.095C120.061 326.225 120.009 326.35 119.917 326.443C119.824 326.534 119.699 326.587 119.569 326.587ZM93.4262 333.564H75.1459C75.0155 333.564 74.8905 333.514 74.7982 333.421C74.7062 333.327 74.6543 333.202 74.6543 333.072C74.6543 332.942 74.7062 332.817 74.7982 332.726C74.8905 332.633 75.0155 332.583 75.1459 332.583H93.4262C93.5496 332.601 93.6637 332.66 93.752 332.748C93.8404 332.835 93.8983 332.95 93.9175 333.072C93.9175 333.139 93.9047 333.202 93.8802 333.261C93.8555 333.322 93.8193 333.375 93.7736 333.421C93.7281 333.466 93.6738 333.503 93.6143 333.527C93.5547 333.551 93.4906 333.564 93.4262 333.564ZM116.228 339.658H74.458C74.3277 339.658 74.2026 339.608 74.1103 339.515C74.0183 339.422 73.9664 339.297 73.9664 339.166C73.9664 339.036 74.0183 338.911 74.1103 338.82C74.2026 338.727 74.3277 338.677 74.458 338.677H116.228C116.358 338.677 116.483 338.727 116.575 338.82C116.667 338.911 116.719 339.036 116.719 339.166C116.719 339.297 116.667 339.422 116.575 339.515C116.483 339.608 116.358 339.658 116.228 339.658Z" fill="#02133B"/>
<path d="M510.143 375.038C516.003 375.038 520.757 370.288 520.757 364.425C520.757 358.562 516.003 353.812 510.143 353.812C504.281 353.812 499.527 358.562 499.527 364.425C499.527 370.288 504.281 375.038 510.143 375.038Z" fill="#F7AE38"/>
<path d="M504.347 386.144C502.149 386.144 500.003 385.495 498.175 384.274C496.351 383.053 494.925 381.319 494.084 379.289C493.244 377.259 493.026 375.028 493.454 372.873C493.882 370.718 494.941 368.739 496.492 367.186C498.045 365.633 500.024 364.577 502.179 364.146C504.333 363.717 506.568 363.938 508.597 364.779C510.624 365.619 512.359 367.042 513.579 368.87C514.8 370.695 515.452 372.844 515.452 375.038C515.452 376.499 515.165 377.943 514.606 379.289C514.048 380.638 513.231 381.861 512.199 382.893C511.167 383.923 509.943 384.742 508.597 385.301C507.249 385.857 505.804 386.144 504.347 386.144ZM504.347 364.917C502.344 364.917 500.386 365.51 498.721 366.622C497.058 367.734 495.76 369.317 494.994 371.165C494.228 373.014 494.026 375.052 494.417 377.015C494.808 378.978 495.773 380.781 497.189 382.196C498.604 383.614 500.407 384.577 502.37 384.968C504.336 385.359 506.371 385.157 508.22 384.391C510.068 383.625 511.651 382.327 512.763 380.664C513.875 378.999 514.468 377.041 514.468 375.038C514.468 373.711 514.207 372.394 513.699 371.165C513.188 369.936 512.444 368.822 511.505 367.88C510.563 366.941 509.449 366.196 508.22 365.686C506.991 365.178 505.677 364.917 504.347 364.917Z" fill="#02133B"/>
<path d="M77.5047 285.309C88.2519 285.309 96.9645 276.595 96.9645 265.848C96.9645 255.101 88.2519 246.388 77.5047 246.388C66.7572 246.388 58.0449 255.101 58.0449 265.848C58.0449 276.595 66.7572 285.309 77.5047 285.309Z" fill="#3A81E1"/>
<path d="M77.5065 265.849V288.06C71.6236 288.036 65.9889 285.687 61.8292 281.527C57.6692 277.367 55.3207 271.733 55.2949 265.849H77.5065Z" fill="#F14146"/>
<path d="M123.499 260.345H100.698C100.568 260.345 100.443 260.293 100.35 260.201C100.258 260.109 100.207 259.984 100.207 259.853C100.207 259.723 100.258 259.598 100.35 259.506C100.443 259.414 100.568 259.362 100.698 259.362H123.499C123.63 259.362 123.755 259.414 123.847 259.506C123.939 259.598 123.991 259.723 123.991 259.853C123.991 259.984 123.939 260.109 123.847 260.201C123.755 260.293 123.63 260.345 123.499 260.345ZM120.649 265.259H103.548C103.418 265.259 103.293 265.207 103.201 265.115C103.108 265.023 103.056 264.898 103.056 264.767C103.056 264.637 103.108 264.512 103.201 264.42C103.293 264.328 103.418 264.276 103.548 264.276H120.649C120.779 264.276 120.904 264.328 120.997 264.42C121.089 264.512 121.14 264.637 121.14 264.767C121.14 264.898 121.089 265.023 120.997 265.115C120.904 265.207 120.779 265.259 120.649 265.259ZM119.568 293.27H56.2748C56.1444 293.27 56.0194 293.217 55.9271 293.124C55.8351 293.034 55.7832 292.909 55.7832 292.778C55.7832 292.648 55.8351 292.523 55.9271 292.43C56.0194 292.339 56.1444 292.286 56.2748 292.286H119.568C119.698 292.286 119.824 292.339 119.916 292.43C120.008 292.523 120.059 292.648 120.059 292.778C120.059 292.909 120.008 293.034 119.916 293.124C119.824 293.217 119.698 293.27 119.568 293.27ZM119.568 298.38H83.0072C82.8769 298.38 82.7519 298.327 82.6598 298.237C82.5675 298.144 82.5159 298.019 82.5159 297.888C82.5159 297.758 82.5675 297.633 82.6598 297.54C82.7519 297.449 82.8769 297.396 83.0072 297.396H119.568C119.698 297.396 119.824 297.449 119.916 297.54C120.008 297.633 120.059 297.758 120.059 297.888C120.059 298.019 120.008 298.144 119.916 298.237C119.824 298.327 119.698 298.38 119.568 298.38ZM114.261 304.865H95.489C95.3587 304.865 95.2337 304.815 95.1416 304.722C95.0493 304.631 94.9977 304.506 94.9977 304.376C94.9977 304.246 95.0493 304.121 95.1416 304.027C95.2337 303.934 95.3587 303.884 95.489 303.884H114.261C114.391 303.884 114.516 303.934 114.608 304.027C114.7 304.121 114.752 304.246 114.752 304.376C114.752 304.506 114.7 304.631 114.608 304.722C114.516 304.815 114.391 304.865 114.261 304.865Z" fill="#02133B"/>
<path d="M317.51 375.039C312.764 375.02 308.117 376.412 304.162 379.034C300.204 381.657 297.116 385.394 295.285 389.775C293.455 394.156 292.966 398.979 293.881 403.639C294.796 408.297 297.07 412.58 300.422 415.942C303.771 419.307 308.043 421.6 312.698 422.533C317.353 423.467 322.178 422.996 326.567 421.185C330.953 419.373 334.707 416.298 337.345 412.353C339.984 408.409 341.394 403.767 341.394 399.022C341.394 392.677 338.88 386.594 334.403 382.099C329.929 377.603 323.854 375.066 317.51 375.039ZM317.51 413.862C314.57 413.88 311.692 413.026 309.24 411.409C306.787 409.789 304.869 407.478 303.731 404.767C302.592 402.059 302.284 399.072 302.845 396.186C303.406 393.3 304.814 390.648 306.883 388.562C308.955 386.477 311.599 385.054 314.48 384.474C317.363 383.891 320.351 384.181 323.069 385.301C325.788 386.421 328.11 388.323 329.746 390.765C331.379 393.207 332.254 396.082 332.254 399.022C332.228 402.932 330.669 406.677 327.913 409.451C325.157 412.226 321.423 413.808 317.51 413.862Z" fill="white"/>
<path d="M317.51 423.395C312.661 423.413 307.916 421.993 303.875 419.312C299.837 416.63 296.685 412.808 294.821 408.331C292.956 403.857 292.464 398.928 293.405 394.172C294.344 389.416 296.677 385.046 300.106 381.617C303.535 378.188 307.905 375.855 312.661 374.916C317.417 373.975 322.346 374.467 326.82 376.331C331.297 378.196 335.117 381.348 337.801 385.389C340.482 389.427 341.903 394.172 341.884 399.021C341.857 405.477 339.28 411.661 334.715 416.226C330.151 420.791 323.966 423.368 317.51 423.395ZM317.51 375.531C312.858 375.512 308.309 376.871 304.434 379.441C300.558 382.01 297.531 385.673 295.738 389.964C293.945 394.254 293.467 398.979 294.36 403.543C295.257 408.105 297.486 412.3 300.766 415.596C304.048 418.889 308.232 421.136 312.792 422.051C317.351 422.964 322.08 422.506 326.376 420.729C330.675 418.955 334.348 415.944 336.934 412.079C339.519 408.214 340.9 403.671 340.9 399.021C340.9 392.807 338.439 386.849 334.056 382.447C329.672 378.044 323.721 375.557 317.51 375.531ZM317.51 414.353C314.473 414.372 311.499 413.489 308.964 411.816C306.431 410.143 304.45 407.757 303.274 404.956C302.098 402.157 301.782 399.069 302.362 396.09C302.942 393.108 304.394 390.368 306.535 388.214C308.674 386.059 311.406 384.591 314.382 383.989C317.361 383.391 320.447 383.689 323.256 384.846C326.062 386.003 328.462 387.969 330.151 390.493C331.84 393.015 332.742 395.983 332.742 399.021C332.744 403.07 331.14 406.953 328.286 409.826C325.432 412.699 321.559 414.327 317.51 414.353ZM317.51 384.67C314.667 384.652 311.884 385.476 309.512 387.041C307.139 388.607 305.282 390.842 304.184 393.462C303.083 396.082 302.782 398.968 303.325 401.758C303.867 404.549 305.227 407.116 307.229 409.132C309.232 411.148 311.789 412.523 314.576 413.087C317.361 413.648 320.25 413.369 322.878 412.287C325.506 411.204 327.754 409.363 329.334 407.001C330.917 404.642 331.76 401.862 331.76 399.021C331.76 395.231 330.262 391.597 327.592 388.908C324.921 386.221 321.298 384.697 317.51 384.67Z" fill="#02133B"/>
<path d="M295.1 392.238L302.865 394.204C301.87 397.338 301.87 400.702 302.865 403.836L295.1 405.998C295.1 405.998 292.743 400.298 295.1 392.238Z" fill="#F14146"/>
<path d="M295.1 405.998L302.864 403.836C303.835 406.631 305.577 409.095 307.892 410.941C310.206 412.784 312.996 413.933 315.935 414.255L317.412 422.41C317.412 422.41 300.606 422.903 295.1 405.998Z" fill="#3A81E1"/>
<path d="M296.577 401.477H296.38L281.538 394.106H259.426C259.295 394.106 259.17 394.055 259.078 393.962C258.986 393.869 258.934 393.744 258.934 393.614C258.934 393.483 258.986 393.358 259.078 393.268C259.17 393.175 259.295 393.124 259.426 393.124H281.833L296.87 400.495C296.966 400.556 297.037 400.647 297.075 400.756C297.109 400.862 297.107 400.979 297.067 401.086C297.045 401.197 296.982 401.298 296.894 401.37C296.803 401.442 296.692 401.479 296.577 401.477ZM254.806 396.564C254.219 396.582 253.64 396.428 253.142 396.114C252.645 395.803 252.252 395.351 252.013 394.813C251.775 394.276 251.703 393.68 251.805 393.103C251.907 392.523 252.18 391.988 252.588 391.568C252.996 391.145 253.521 390.855 254.096 390.733C254.67 390.611 255.268 390.664 255.812 390.882C256.357 391.103 256.824 391.48 257.152 391.967C257.481 392.454 257.656 393.028 257.657 393.614C257.67 393.997 257.606 394.38 257.469 394.736C257.331 395.093 257.123 395.42 256.857 395.694C256.591 395.97 256.273 396.189 255.92 396.337C255.568 396.486 255.189 396.564 254.806 396.564ZM254.806 391.746C254.311 391.746 253.836 391.943 253.486 392.294C253.136 392.645 252.939 393.119 252.939 393.614C252.939 394.111 253.136 394.585 253.486 394.936C253.836 395.287 254.311 395.481 254.806 395.481C255.302 395.481 255.777 395.287 256.127 394.936C256.477 394.585 256.674 394.111 256.674 393.614C256.674 393.119 256.477 392.645 256.127 392.294C255.777 391.943 255.302 391.746 254.806 391.746ZM313.482 434.796H291.76C291.659 434.804 291.555 434.78 291.467 434.727C291.38 434.673 291.31 434.594 291.268 434.5C291.239 434.399 291.233 434.296 291.252 434.195C291.268 434.091 291.308 433.995 291.366 433.91L309.156 416.514C309.255 416.317 309.648 416.317 309.845 416.514C309.933 416.607 309.984 416.729 309.984 416.859C309.984 416.987 309.933 417.109 309.845 417.203L292.941 433.812H313.482C313.612 433.812 313.737 433.865 313.827 433.955C313.92 434.048 313.971 434.173 313.971 434.304C313.971 434.434 313.92 434.559 313.827 434.652C313.737 434.743 313.612 434.796 313.482 434.796ZM318.493 437.251C317.902 437.238 317.325 437.07 316.823 436.761C316.479 436.559 316.179 436.288 315.942 435.969C315.705 435.647 315.538 435.283 315.447 434.894C315.306 434.104 315.482 433.293 315.937 432.633C316.139 432.29 316.41 431.989 316.729 431.753C317.051 431.516 317.416 431.348 317.804 431.258C318.594 431.117 319.405 431.293 320.065 431.747C320.408 431.95 320.709 432.221 320.946 432.54C321.182 432.862 321.35 433.226 321.44 433.615C321.571 434.405 321.395 435.213 320.951 435.876C320.749 436.219 320.477 436.519 320.158 436.756C319.836 436.993 319.472 437.161 319.084 437.251H318.493ZM318.493 432.239H318.001C317.466 432.357 317.001 432.681 316.708 433.144C316.413 433.604 316.312 434.163 316.429 434.697C316.562 435.216 316.889 435.663 317.347 435.942C317.801 436.224 318.349 436.317 318.871 436.203C319.395 436.089 319.852 435.775 320.148 435.328C320.445 434.881 320.554 434.338 320.459 433.812C320.366 433.362 320.121 432.958 319.762 432.67C319.4 432.383 318.953 432.232 318.493 432.239Z" fill="#02133B"/>
<path d="M89.2 433.812H47.9216C43.3621 433.812 39.666 437.509 39.666 442.068V442.076C39.666 446.638 43.3621 450.333 47.9216 450.333H89.2C93.7595 450.333 97.4556 446.638 97.4556 442.076V442.068C97.4556 437.509 93.7595 433.812 89.2 433.812Z" fill="#3A81E1"/>
<path d="M96.8671 454.45H55.5889C53.2692 454.45 51.0441 453.53 49.4039 451.889C47.7635 450.248 46.8418 448.024 46.8418 445.704C46.8418 443.385 47.7635 441.158 49.4039 439.52C51.0441 437.879 53.2692 436.958 55.5889 436.958H96.8671C99.1871 436.958 101.412 437.879 103.052 439.52C104.693 441.158 105.614 443.385 105.614 445.704C105.614 448.024 104.693 450.248 103.052 451.889C101.412 453.53 99.1871 454.45 96.8671 454.45ZM55.5889 437.94C53.5298 437.94 51.5548 438.759 50.0987 440.214C48.6426 441.669 47.8247 443.645 47.8247 445.704C47.8247 447.763 48.6426 449.74 50.0987 451.195C51.5548 452.65 53.5298 453.469 55.5889 453.469H96.8671C98.9265 453.469 100.901 452.65 102.357 451.195C103.813 449.74 104.631 447.763 104.631 445.704C104.631 443.645 103.813 441.669 102.357 440.214C100.901 438.759 98.9265 437.94 96.8671 437.94H55.5889Z" fill="#02133B"/>
<path d="M108.366 467.62C107.682 467.607 107.01 467.439 106.398 467.133C105.786 466.827 105.25 466.391 104.828 465.851C104.124 464.912 103.822 463.734 103.988 462.574C104.154 461.411 104.774 460.363 105.712 459.661L137.85 435.091C138.596 434.466 139.533 434.12 140.504 434.107H173.134L264.929 344.669C265.782 343.869 266.904 343.414 268.074 343.393H323.211L436.431 197.739C436.769 197.238 437.208 196.812 437.716 196.486C438.227 196.161 438.799 195.944 439.394 195.848C439.993 195.753 440.605 195.781 441.19 195.93C441.775 196.08 442.326 196.349 442.802 196.719C443.281 197.09 443.68 197.554 443.97 198.084C444.262 198.614 444.44 199.199 444.499 199.801C444.555 200.403 444.488 201.01 444.299 201.586C444.113 202.161 443.81 202.692 443.408 203.145L328.813 350.468C328.411 350.998 327.89 351.426 327.291 351.716C326.693 352.006 326.036 352.152 325.371 352.139H269.843L178.048 441.576C177.194 442.376 176.073 442.834 174.903 442.853H141.978L111.02 466.54C110.308 467.229 109.357 467.617 108.366 467.62Z" fill="#F7AE38"/>
<path d="M417.266 196.855L459.919 162.456L453.138 216.806L417.266 196.855Z" fill="#F7AE38"/>
<path d="M473.484 434.795C484.666 434.795 493.729 425.73 493.729 414.547C493.729 403.368 484.666 394.302 473.484 394.302C462.301 394.302 453.238 403.368 453.238 414.547C453.238 425.73 462.301 434.795 473.484 434.795Z" fill="#3A81E1"/>
<path d="M464.54 391.453C468.828 391.453 472.304 387.977 472.304 383.689C472.304 379.401 468.828 375.924 464.54 375.924C460.252 375.924 456.775 379.401 456.775 383.689C456.775 387.977 460.252 391.453 464.54 391.453Z" fill="white"/>
<path d="M464.54 391.943C462.906 391.943 461.31 391.459 459.951 390.552C458.595 389.645 457.536 388.357 456.911 386.846C456.286 385.338 456.123 383.678 456.443 382.077C456.759 380.476 457.547 379.005 458.701 377.85C459.855 376.696 461.326 375.909 462.928 375.592C464.529 375.273 466.189 375.435 467.697 376.06C469.208 376.685 470.495 377.744 471.402 379.101C472.31 380.46 472.794 382.056 472.794 383.689C472.794 385.878 471.924 387.977 470.376 389.525C468.828 391.073 466.729 391.943 464.54 391.943ZM464.54 376.417C463.101 376.417 461.693 376.842 460.499 377.64C459.302 378.441 458.371 379.577 457.82 380.904C457.27 382.234 457.126 383.697 457.406 385.107C457.687 386.519 458.379 387.815 459.395 388.831C460.414 389.847 461.709 390.541 463.119 390.821C464.532 391.102 465.992 390.959 467.322 390.408C468.652 389.858 469.788 388.924 470.586 387.73C471.386 386.533 471.812 385.125 471.812 383.689C471.812 381.761 471.046 379.909 469.681 378.545C468.317 377.183 466.468 376.417 464.54 376.417Z" fill="#02133B"/>
<path d="M423.898 366.442L423.81 366.482C419.501 368.418 417.581 373.48 419.514 377.787L441.818 427.414C443.755 431.721 448.817 433.644 453.123 431.707L453.214 431.667C457.52 429.731 459.444 424.672 457.507 420.365L435.203 370.738C433.267 366.428 428.207 364.508 423.898 366.442Z" fill="white"/>
<path d="M449.502 433.319C448.392 433.317 447.296 433.117 446.256 432.731C445.147 432.324 444.128 431.697 443.267 430.885C442.405 430.074 441.718 429.098 441.245 428.013L418.936 378.382C417.986 376.198 417.914 373.735 418.739 371.501C419.356 369.799 420.473 368.32 421.941 367.256C423.41 366.194 425.163 365.598 426.974 365.545C428.786 365.492 430.573 365.984 432.1 366.96C433.629 367.934 434.829 369.346 435.545 371.009L457.756 420.543C458.25 421.629 458.524 422.799 458.564 423.988C458.601 425.177 458.407 426.363 457.987 427.478C457.567 428.593 456.931 429.611 456.114 430.481C455.3 431.348 454.322 432.045 453.236 432.535C452.069 433.085 450.789 433.354 449.502 433.319ZM427.288 366.588C426.144 366.617 425.011 366.849 423.947 367.274C422.005 368.176 420.492 369.798 419.72 371.796C419.324 372.783 419.127 373.839 419.143 374.903C419.162 375.964 419.39 377.015 419.819 377.989L442.131 427.619C443.03 429.563 444.655 431.074 446.661 431.83C448.664 432.582 450.885 432.519 452.843 431.649C454.784 430.75 456.298 429.122 457.051 427.119C457.806 425.113 457.74 422.895 456.872 420.937L434.659 371.402C434.031 369.971 432.999 368.756 431.69 367.899C430.382 367.045 428.852 366.588 427.288 366.588Z" fill="#02133B"/>
<path d="M431.615 438.727C435.793 438.727 439.182 435.338 439.182 431.16C439.182 426.978 435.793 423.592 431.615 423.592C427.436 423.592 424.047 426.978 424.047 431.16C424.047 435.338 427.436 438.727 431.615 438.727Z" fill="#F14146"/>
<path d="M498.055 435.187C501.529 435.187 504.345 432.372 504.345 428.898C504.345 425.424 501.529 422.607 498.055 422.607C494.581 422.607 491.764 425.424 491.764 428.898C491.764 432.372 494.581 435.187 498.055 435.187Z" fill="#F7AE38"/>
<path d="M456.774 456.908L456.38 456.711L431.318 431.551C431.248 431.457 431.214 431.34 431.222 431.221C431.23 431.104 431.28 430.992 431.363 430.909C431.448 430.824 431.56 430.774 431.677 430.766C431.794 430.758 431.911 430.792 432.007 430.864L457.069 456.023C457.16 456.116 457.21 456.238 457.21 456.368C457.21 456.496 457.16 456.621 457.069 456.711L456.774 456.908ZM464.341 459.071C464.211 459.071 464.086 459.018 463.993 458.927C463.9 458.834 463.849 458.709 463.849 458.579L464.046 383.689C464.046 383.559 464.097 383.434 464.19 383.341C464.283 383.248 464.408 383.197 464.538 383.197C464.669 383.197 464.794 383.248 464.884 383.341C464.977 383.434 465.028 383.559 465.028 383.689L464.834 458.579C464.834 458.709 464.78 458.834 464.687 458.927C464.597 459.018 464.472 459.071 464.341 459.071ZM473.481 452.878H473.088C473.01 452.775 472.976 452.644 472.994 452.514C473.013 452.386 473.082 452.269 473.186 452.189L497.658 428.702C497.701 428.646 497.754 428.598 497.818 428.566C497.879 428.531 497.948 428.51 498.017 428.505C498.086 428.502 498.158 428.51 498.225 428.537C498.288 428.561 498.35 428.598 498.4 428.648C498.448 428.699 498.488 428.758 498.512 428.824C498.536 428.891 498.546 428.96 498.541 429.031C498.536 429.101 498.517 429.17 498.483 429.231C498.451 429.292 498.403 429.348 498.347 429.391L473.777 452.878H473.481ZM470.827 470.964H470.728C470.531 470.964 470.239 470.668 470.337 470.472L472.989 414.449C472.986 414.391 473 414.33 473.026 414.274C473.05 414.218 473.09 414.17 473.138 414.13C473.183 414.093 473.242 414.066 473.3 414.053C473.359 414.04 473.423 414.042 473.481 414.058C473.612 414.058 473.737 414.109 473.83 414.202C473.92 414.292 473.973 414.417 473.973 414.548L471.319 470.472C471.22 470.767 471.023 470.964 470.827 470.964Z" fill="#02133B"/>
<path d="M469.748 469.881C469.644 469.889 469.543 469.865 469.456 469.812C469.368 469.759 469.299 469.682 469.256 469.586L427.781 377.103C427.749 377.039 427.733 376.97 427.731 376.898C427.728 376.827 427.741 376.757 427.771 376.691C427.797 376.627 427.84 376.569 427.893 376.521C427.946 376.473 428.007 376.436 428.077 376.417C428.132 376.382 428.196 376.364 428.263 376.361C428.327 376.358 428.393 376.374 428.452 376.404C428.51 376.433 428.561 376.476 428.598 376.529C428.635 376.582 428.659 376.646 428.667 376.71L470.142 469.192C470.176 469.251 470.198 469.315 470.206 469.381C470.214 469.448 470.211 469.514 470.192 469.581C470.174 469.645 470.142 469.703 470.099 469.756C470.057 469.807 470.004 469.849 469.945 469.881H469.748Z" fill="#02133B"/>
<path d="M502.773 473.32C502.773 485.804 485.965 495.925 465.326 495.925C444.687 495.925 427.881 485.804 427.881 473.32C427.881 464.476 436.433 456.81 448.815 453.174L439.282 442.754H491.372L482.722 453.37C494.615 457.204 502.773 464.673 502.773 473.32Z" fill="white"/>
<path d="M465.323 496.417C444.388 496.417 427.386 486.099 427.386 473.32C427.386 464.673 435.249 456.81 447.929 452.878L438.983 443.148C438.906 443.076 438.853 442.978 438.834 442.871C438.818 442.765 438.834 442.653 438.885 442.56C438.983 442.363 439.082 442.265 439.279 442.265H491.369C491.566 442.265 491.662 442.363 491.76 442.56C491.816 442.629 491.848 442.714 491.848 442.805C491.848 442.895 491.816 442.98 491.76 443.05L483.506 453.174C495.692 457.204 503.259 464.87 503.259 473.32C503.259 486.099 486.257 496.417 465.323 496.417ZM440.46 443.246L449.206 452.78C449.299 452.926 449.333 453.102 449.304 453.272C449.304 453.349 449.272 453.424 449.216 453.48C449.163 453.535 449.086 453.567 449.009 453.567C436.528 457.302 428.37 465.066 428.37 473.32C428.37 485.509 444.979 495.436 465.323 495.436C485.669 495.436 502.278 485.509 502.278 473.32C502.278 465.165 494.71 457.696 482.522 453.863C482.424 453.863 482.325 453.666 482.227 453.567C482.198 453.397 482.232 453.221 482.325 453.075L490.287 443.246H440.46ZM156.522 193.317H80.4522C80.3219 193.317 80.1969 193.265 80.1048 193.173C80.0125 193.081 79.9609 192.956 79.9609 192.825C79.9609 192.695 80.0125 192.57 80.1048 192.478C80.1969 192.386 80.3219 192.334 80.4522 192.334H156.522C156.653 192.334 156.778 192.386 156.87 192.478C156.962 192.57 157.014 192.695 157.014 192.825C157.014 192.956 156.962 193.081 156.87 193.173C156.778 193.265 156.653 193.317 156.522 193.317ZM156.522 206.093H80.4522C80.3219 206.093 80.1969 206.042 80.1048 205.949C80.0125 205.857 79.9609 205.732 79.9609 205.602C79.9609 205.471 80.0125 205.346 80.1048 205.254C80.1969 205.162 80.3219 205.111 80.4522 205.111H156.522C156.653 205.111 156.778 205.162 156.87 205.254C156.962 205.346 157.014 205.471 157.014 205.602C157.014 205.732 156.962 205.857 156.87 205.949C156.778 206.042 156.653 206.093 156.522 206.093Z" fill="#02133B"/>
<path d="M346.774 64.0715L336.754 76.4448L349.136 86.4709L359.156 74.0973L346.774 64.0715Z" fill="#F7AE38"/>
<path d="M354.169 85.3053H353.874L341.492 75.1821C341.431 75.1364 341.38 75.0771 341.345 75.009C341.314 74.9406 341.295 74.8653 341.295 74.7892V74.4942L351.32 62.1109L351.711 61.9143H352.007L364.392 71.939C364.495 72.0173 364.565 72.1335 364.583 72.2625C364.602 72.3915 364.567 72.5227 364.49 72.6269L354.563 85.1087C354.518 85.1696 354.457 85.2194 354.39 85.2534C354.321 85.2875 354.246 85.3053 354.169 85.3053ZM342.473 74.6908L354.169 84.1258L363.506 72.5285L351.908 63.0935L342.473 74.6908Z" fill="#02133B"/>
<path d="M151.412 138.574L152.395 125.895L161.83 134.839L151.412 138.574Z" fill="#3A81E1"/>
<path d="M154.165 139.065H153.87C153.809 139.019 153.76 138.96 153.726 138.892C153.691 138.823 153.674 138.748 153.674 138.672L154.656 125.895C154.656 125.699 154.755 125.6 154.951 125.502C155.032 125.459 155.125 125.445 155.215 125.463C155.304 125.481 155.385 125.529 155.443 125.6L164.976 134.544C165.096 134.68 165.166 134.854 165.173 135.035L164.78 135.429L154.362 139.163L154.165 139.065ZM155.541 126.878L154.755 137.886L163.699 134.642L155.541 126.878ZM289.203 44.0265H289.009C288.812 43.9283 288.615 43.6333 288.714 43.4367L291.464 35.5743C291.525 35.4919 291.613 35.4309 291.711 35.4001C291.81 35.3692 291.916 35.3703 292.012 35.403C292.11 35.4355 292.195 35.4982 292.257 35.5818C292.318 35.6656 292.35 35.7661 292.35 35.869L289.695 43.7317C289.655 43.8262 289.586 43.9052 289.498 43.9581C289.408 44.011 289.307 44.035 289.203 44.0265Z" fill="#02133B"/>
<path d="M173.723 235.873H173.33L163.207 226.536C163.117 226.444 163.066 226.321 163.066 226.192C163.066 226.063 163.117 225.94 163.207 225.848C163.246 225.796 163.294 225.753 163.35 225.72C163.405 225.687 163.467 225.665 163.531 225.656C163.594 225.647 163.66 225.651 163.722 225.667C163.785 225.683 163.843 225.711 163.895 225.75L174.018 235.086C174.108 235.178 174.158 235.302 174.158 235.43C174.158 235.559 174.108 235.682 174.018 235.775C174.018 235.873 173.821 235.873 173.723 235.873Z" fill="#F14146"/>
<path d="M32.3947 285.801H32.1L24.0409 277.151C23.9508 277.06 23.9004 276.935 23.9004 276.808C23.9004 276.677 23.9508 276.555 24.0409 276.462C24.0829 276.406 24.1399 276.361 24.2057 276.331C24.2715 276.305 24.3437 276.294 24.4144 276.305C24.4852 276.315 24.5518 276.345 24.6072 276.39C24.6626 276.435 24.7047 276.494 24.7288 276.56L32.7879 285.112C32.878 285.203 32.9283 285.328 32.9283 285.455C32.9283 285.586 32.878 285.708 32.7879 285.801H32.3947Z" fill="#02133B"/>
<path d="M52.8355 420.642H52.639C52.5257 420.599 52.4326 420.514 52.378 420.405C52.3235 420.296 52.3115 420.171 52.3442 420.054L57.5531 406.392C57.5741 406.323 57.6097 406.262 57.6573 406.209C57.7049 406.155 57.7635 406.113 57.8289 406.086C57.8943 406.057 57.9651 406.044 58.0364 406.046C58.1074 406.046 58.1774 406.065 58.2412 406.097C58.3622 406.161 58.458 406.262 58.5117 406.387C58.5655 406.515 58.574 406.653 58.5359 406.786L53.3271 420.347C53.2862 420.442 53.217 420.522 53.1287 420.575C53.0406 420.626 52.938 420.65 52.8355 420.642ZM446.945 319.216C446.844 319.224 446.74 319.2 446.653 319.147C446.565 319.094 446.496 319.014 446.453 318.921L440.851 307.914C440.819 307.855 440.798 307.791 440.793 307.725C440.785 307.658 440.79 307.592 440.809 307.528C440.827 307.464 440.856 307.406 440.899 307.352C440.939 307.302 440.989 307.257 441.048 307.225C441.106 307.193 441.17 307.172 441.237 307.164C441.303 307.158 441.37 307.164 441.434 307.182C441.497 307.198 441.556 307.23 441.609 307.27C441.66 307.313 441.705 307.363 441.737 307.422L447.339 318.527C447.371 318.649 447.371 318.777 447.336 318.899C447.302 319.019 447.235 319.131 447.142 319.216H446.945Z" fill="#3A81E1"/>
<path d="M500.707 193.317H500.412C500.324 193.227 500.268 193.112 500.25 192.989C500.234 192.865 500.255 192.739 500.314 192.629L506.897 184.668C506.99 184.578 507.113 184.527 507.243 184.527C507.371 184.527 507.493 184.578 507.586 184.668C507.783 184.766 507.783 185.061 507.684 185.356L501.098 193.218L500.707 193.317ZM494.908 257.396C499.845 257.396 503.851 253.392 503.851 248.452C503.851 243.513 499.845 239.509 494.908 239.509C489.969 239.509 485.963 243.513 485.963 248.452C485.963 253.392 489.969 257.396 494.908 257.396Z" fill="#F14146"/>
<path d="M492.452 262.998C490.563 263.018 488.709 262.475 487.129 261.44C485.549 260.404 484.312 258.922 483.575 257.182C482.839 255.442 482.634 253.522 482.993 251.666C483.349 249.81 484.248 248.102 485.578 246.759C486.906 245.416 488.605 244.498 490.457 244.123C492.308 243.747 494.231 243.93 495.979 244.648C497.727 245.367 499.222 246.589 500.272 248.159C501.326 249.728 501.887 251.575 501.887 253.465C501.9 254.712 501.666 255.95 501.198 257.106C500.73 258.262 500.035 259.314 499.158 260.2C498.28 261.087 497.237 261.791 496.085 262.271C494.934 262.751 493.699 262.999 492.452 262.998ZM492.452 245.013C490.752 244.993 489.087 245.481 487.664 246.413C486.243 247.345 485.131 248.679 484.474 250.245C483.815 251.812 483.637 253.539 483.964 255.207C484.291 256.875 485.108 258.407 486.307 259.609C487.51 260.811 489.042 261.627 490.71 261.954C492.377 262.281 494.104 262.103 495.67 261.443C497.237 260.784 498.572 259.673 499.503 258.252C500.437 256.831 500.924 255.164 500.905 253.465C500.879 251.231 499.98 249.096 498.4 247.517C496.82 245.937 494.686 245.038 492.452 245.013Z" fill="#02133B"/>
<path d="M249.892 487.868C254.722 487.868 258.639 483.95 258.639 479.119C258.639 474.289 254.722 470.373 249.892 470.373C245.061 470.373 241.145 474.289 241.145 479.119C241.145 483.95 245.061 487.868 249.892 487.868Z" fill="#F14146"/>
<path d="M242.619 492.584C240.792 492.584 239.006 492.042 237.487 491.028C235.968 490.012 234.783 488.57 234.084 486.881C233.385 485.192 233.202 483.336 233.558 481.543C233.915 479.752 234.795 478.106 236.087 476.813C237.379 475.52 239.025 474.643 240.817 474.286C242.609 473.93 244.467 474.111 246.155 474.81C247.843 475.51 249.286 476.693 250.301 478.212C251.316 479.734 251.858 481.519 251.858 483.346C251.858 485.796 250.885 488.145 249.152 489.879C247.419 491.611 245.07 492.584 242.619 492.584ZM242.619 475.09C240.986 475.09 239.39 475.574 238.033 476.481C236.675 477.388 235.617 478.678 234.992 480.186C234.367 481.694 234.204 483.354 234.522 484.955C234.841 486.557 235.627 488.03 236.782 489.185C237.936 490.339 239.407 491.124 241.009 491.443C242.61 491.762 244.27 491.597 245.779 490.972C247.287 490.347 248.576 489.291 249.484 487.932C250.391 486.575 250.875 484.979 250.875 483.346C250.849 481.165 249.971 479.079 248.429 477.537C246.886 475.994 244.801 475.116 242.619 475.09Z" fill="#02133B"/>
<path d="M227.087 83.2553L217.201 77.0056L210.936 86.9165L220.821 93.1659L227.087 83.2553Z" fill="#F14146"/>
<path d="M226.108 93.5607H225.911L215.985 87.2709C215.892 87.1852 215.825 87.0756 215.79 86.9543C215.755 86.833 215.755 86.7046 215.788 86.5827L222.078 76.6564C222.157 76.5521 222.273 76.4832 222.402 76.4646C222.531 76.4463 222.662 76.4798 222.766 76.558L232.693 82.7499C232.754 82.7957 232.803 82.855 232.837 82.9231C232.872 82.9915 232.889 83.0667 232.889 83.1431C232.894 83.1963 232.887 83.2498 232.871 83.3006C232.854 83.3511 232.827 83.3979 232.791 83.4378L226.599 93.3641L226.206 93.5607H226.108ZM216.869 86.6812L226.01 92.4797L231.71 83.3394L222.668 77.6393L216.869 86.6812Z" fill="#02133B"/>
<path d="M32.6906 402.166H14.7051V420.102H32.6906V402.166Z" fill="#F14146"/>
<path d="M26.9886 428.406H9.00313C8.87973 428.388 8.76567 428.329 8.67733 428.241C8.58902 428.154 8.53103 428.039 8.51172 427.914V409.93C8.51172 409.799 8.56348 409.674 8.65565 409.581C8.74779 409.491 8.87279 409.438 9.00313 409.438H26.9886C27.1189 409.438 27.244 409.491 27.3363 409.581C27.4283 409.674 27.4802 409.799 27.4802 409.93V427.914C27.4802 428.044 27.4283 428.169 27.3363 428.263C27.244 428.356 27.1189 428.406 26.9886 428.406ZM9.49454 427.425H26.4973V410.422H9.49454V427.425Z" fill="#02133B"/>
<path d="M86.1562 85.2066C93.2666 85.2066 99.0311 79.4424 99.0311 72.3317C99.0311 65.2213 93.2666 59.457 86.1562 59.457C79.0455 59.457 73.2812 65.2213 73.2812 72.3317C73.2812 79.4424 79.0455 85.2066 86.1562 85.2066Z" fill="#F7AE38"/>
<path d="M89.6909 82.0619C87.0237 82.0619 84.4164 81.2695 82.2001 79.7857C79.9837 78.3017 78.2582 76.1931 77.2421 73.727C76.226 71.2609 75.965 68.5485 76.4925 65.934C77.0202 63.3195 78.3122 60.9207 80.2053 59.0414C82.0982 57.1624 84.5065 55.888 87.1248 55.3794C89.743 54.8711 92.4533 55.1517 94.9119 56.1859C97.3706 57.2201 99.4664 58.9614 100.934 61.1883C102.402 63.4155 103.175 66.0284 103.155 68.6956C103.156 70.4592 102.807 72.2052 102.129 73.8334C101.451 75.4616 100.457 76.9395 99.2057 78.182C97.9542 79.4242 96.4691 80.4068 94.8361 81.0729C93.2029 81.7387 91.4545 82.0749 89.6909 82.0619ZM89.6909 56.2138C87.2221 56.2138 84.809 56.9459 82.7563 58.3174C80.7038 59.6889 79.1038 61.6381 78.1592 63.9191C77.2144 66.1997 76.9673 68.7095 77.4488 71.1306C77.9305 73.5517 79.1192 75.7757 80.8647 77.5215C82.6105 79.267 84.8345 80.4558 87.2557 80.9375C89.6771 81.4192 92.1865 81.1718 94.4674 80.2273C96.7481 79.2824 98.6974 77.6827 100.069 75.63C101.441 73.5775 102.173 71.1641 102.173 68.6956C102.173 65.3853 100.858 62.2103 98.5168 59.8695C96.176 57.5287 93.0013 56.2138 89.6909 56.2138ZM488.715 496.516L318.786 496.122C318.655 496.122 318.53 496.071 318.437 495.978C318.347 495.885 318.294 495.763 318.294 495.633C318.294 495.502 318.347 495.377 318.437 495.284C318.53 495.191 318.655 495.14 318.786 495.14L488.715 495.534C488.845 495.534 488.97 495.585 489.063 495.678C489.153 495.768 489.207 495.893 489.207 496.024C489.185 496.149 489.13 496.263 489.039 496.351C488.951 496.439 488.837 496.497 488.715 496.516Z" fill="#02133B"/>
<path d="M402.447 352.875L402.538 327.127L414.135 327.167L414.085 341.32C414.074 344.395 412.843 347.34 410.659 349.508C408.477 351.676 405.522 352.886 402.447 352.875Z" fill="white"/>
<path d="M402.325 353.615C402.184 353.615 402.046 353.567 401.939 353.477C401.83 353.386 401.758 353.261 401.734 353.123V327.47C401.761 327.324 401.83 327.188 401.931 327.079H413.824L414.215 327.276C414.252 327.316 414.279 327.361 414.295 327.411C414.314 327.462 414.319 327.515 414.313 327.568V341.624C414.29 344.813 413.005 347.861 410.738 350.109C408.475 352.354 405.416 353.615 402.226 353.615H402.325ZM402.814 327.962V352.631C405.551 352.551 408.156 351.426 410.089 349.487C411.14 348.465 411.978 347.242 412.553 345.893C413.127 344.542 413.425 343.092 413.43 341.624V327.962H402.814Z" fill="#02133B"/>
<path d="M362.131 327.47H373.728V353.221C370.651 353.221 367.701 351.998 365.528 349.824C363.352 347.648 362.131 344.699 362.131 341.624V327.47Z" fill="white"/>
<path d="M373.728 353.713C370.528 353.687 367.469 352.404 365.208 350.143C362.947 347.882 361.665 344.821 361.639 341.624V327.47C361.639 327.339 361.692 327.214 361.782 327.124C361.875 327.031 362 326.98 362.131 326.98H373.728C373.859 326.98 373.984 327.031 374.074 327.124C374.167 327.214 374.218 327.339 374.218 327.47V353.221C374.199 353.343 374.141 353.458 374.053 353.546C373.965 353.633 373.851 353.692 373.728 353.713ZM362.623 327.962V341.624C362.62 344.475 363.727 347.218 365.706 349.271C367.685 351.325 370.385 352.53 373.236 352.631V327.962H362.623Z" fill="#02133B"/>
<path d="M372.154 321.477H404.585V354.793C404.585 359.095 402.877 363.22 399.837 366.261C396.797 369.301 392.671 371.009 388.37 371.009C384.068 371.009 379.945 369.301 376.902 366.261C373.862 363.22 372.154 359.095 372.154 354.793V321.477Z" fill="#F7AE38"/>
<path d="M391.319 362.755H384.342V394.616H391.319V362.755Z" fill="#F7AE38"/>
<path d="M393.576 390.568H381.781V395.925H393.576V390.568Z" fill="#02133B"/>
<path d="M397.707 401.772H377.658C377.528 401.772 377.403 401.721 377.31 401.628C377.217 401.535 377.166 401.41 377.166 401.279V395.973C377.166 395.842 377.217 395.717 377.31 395.627C377.403 395.534 377.528 395.481 377.658 395.481H397.707C397.837 395.481 397.962 395.534 398.055 395.627C398.145 395.717 398.199 395.842 398.199 395.973V401.279C398.199 401.41 398.145 401.535 398.055 401.628C397.962 401.721 397.837 401.772 397.707 401.772ZM378.148 400.79H397.214V396.465H378.148V400.79Z" fill="#02133B"/>
<path d="M402.526 451.306H372.843C372.713 451.306 372.588 451.253 372.497 451.163C372.404 451.07 372.354 450.945 372.354 450.814V401.28C372.354 401.149 372.404 401.024 372.497 400.934C372.588 400.841 372.713 400.79 372.843 400.79H402.526C402.656 400.79 402.781 400.841 402.872 400.934C402.965 401.024 403.015 401.149 403.015 401.28V450.814C403.015 450.878 403.005 450.942 402.978 451.003C402.954 451.062 402.917 451.117 402.872 451.163C402.827 451.208 402.773 451.245 402.712 451.269C402.654 451.293 402.59 451.306 402.526 451.306ZM373.335 450.322H402.034V401.772H373.335V450.322ZM399.379 338.772H385.816C385.685 338.772 385.56 338.722 385.47 338.629C385.377 338.538 385.326 338.413 385.326 338.283C385.326 338.153 385.377 338.028 385.47 337.934C385.56 337.841 385.685 337.791 385.816 337.791H399.379C399.509 337.791 399.634 337.841 399.728 337.934C399.818 338.028 399.871 338.153 399.871 338.283C399.871 338.413 399.818 338.538 399.728 338.629C399.634 338.722 399.509 338.772 399.379 338.772ZM399.379 343.983H385.816C385.685 343.983 385.56 343.93 385.47 343.84C385.377 343.747 385.326 343.621 385.326 343.491C385.326 343.361 385.377 343.236 385.47 343.143C385.56 343.052 385.685 342.999 385.816 342.999H399.379C399.509 342.999 399.634 343.052 399.728 343.143C399.818 343.236 399.871 343.361 399.871 343.491C399.853 343.613 399.794 343.728 399.706 343.816C399.616 343.906 399.504 343.962 399.379 343.983ZM399.379 349.29H385.816C385.685 349.29 385.56 349.237 385.47 349.146C385.377 349.053 385.326 348.928 385.326 348.798C385.326 348.668 385.377 348.542 385.47 348.449C385.56 348.359 385.685 348.306 385.816 348.306H399.379C399.504 348.327 399.616 348.383 399.706 348.473C399.794 348.561 399.853 348.675 399.871 348.798C399.871 348.928 399.818 349.053 399.728 349.146C399.634 349.237 399.509 349.29 399.379 349.29Z" fill="#02133B"/>
<path d="M396.037 443.246C395.907 443.246 395.782 443.196 395.689 443.103C395.598 443.01 395.545 442.885 395.545 442.754V407.275C395.545 407.145 395.598 407.02 395.689 406.93C395.782 406.836 395.907 406.783 396.037 406.783C396.167 406.783 396.292 406.836 396.385 406.93C396.476 407.02 396.529 407.145 396.529 407.275V442.754C396.529 442.885 396.476 443.01 396.385 443.103C396.292 443.196 396.167 443.246 396.037 443.246Z" fill="#F7AE38"/>
<path d="M318.197 136.019L308.664 157.837L290.975 154.299L303.849 133.168L318.197 136.019Z" fill="#E78952"/>
<path d="M204.879 209.435C204.879 209.435 199.278 237.544 210.187 239.411C221.096 241.278 229.253 219.067 229.253 219.067L204.879 209.435Z" fill="#EDEDFE"/>
<path d="M211.562 240.001H210.088C209.182 239.821 208.323 239.457 207.562 238.934C206.802 238.41 206.156 237.736 205.665 236.954C200.456 229.386 204.191 210.221 204.388 209.435C204.388 209.359 204.405 209.284 204.44 209.215C204.474 209.147 204.523 209.088 204.584 209.042H205.076L229.449 218.674C229.545 218.734 229.617 218.826 229.653 218.933C229.688 219.041 229.686 219.157 229.646 219.263C229.351 220.049 222.078 240.001 211.562 240.001ZM205.272 210.123C204.682 213.366 202.029 229.779 206.452 236.364C206.89 237.022 207.455 237.586 208.113 238.025C208.771 238.463 209.509 238.767 210.285 238.919H211.562C220.506 238.919 227.484 222.212 228.565 219.263L205.272 210.123Z" fill="black"/>
<path d="M341.787 187.518C341.787 187.518 326.454 171.597 329.402 165.601C332.352 159.606 334.022 156.461 334.022 156.461L348.469 174.152L341.787 187.518Z" fill="#F9BF9D"/>
<path d="M341.786 188.01H341.393C340.704 187.322 325.962 171.695 329.008 165.503C332.056 159.311 333.53 156.363 333.53 156.363C333.53 156.363 333.726 156.068 333.923 156.068L334.317 156.265L348.862 173.955C348.934 174.013 348.982 174.094 349 174.183C349.016 174.273 349.003 174.366 348.96 174.447L342.177 187.813C342.081 188.01 341.983 188.108 341.786 188.108V188.01ZM334.12 157.346L329.893 165.798C327.632 170.319 337.166 181.916 341.589 186.732L347.878 174.25L334.12 157.346Z" fill="#F9BF9D"/>
<path d="M343.263 186.339C343.263 186.339 328.521 157.739 330.681 153.218C332.844 148.697 338.153 150.269 338.153 150.269C338.153 150.269 340.608 147.026 345.425 149.974C345.425 149.974 354.762 147.026 357.217 153.218C357.829 152.943 358.491 152.794 359.162 152.779C359.832 152.765 360.497 152.884 361.122 153.132C361.744 153.379 362.311 153.749 362.79 154.22C363.266 154.69 363.644 155.252 363.902 155.871C366.36 160.392 371.666 176.511 370.094 186.339C368.519 196.167 343.263 186.339 343.263 186.339Z" fill="#F9BF9D"/>
<path d="M362.426 191.253C354.465 191.253 343.654 187.027 343.064 186.83C343.011 186.83 342.96 186.809 342.925 186.773C342.888 186.736 342.867 186.686 342.867 186.633C341.295 183.685 328.027 157.641 330.288 152.923C332.546 148.205 336.773 149.385 338.052 149.68C339.329 149.974 341.295 146.928 345.522 149.385C346.897 148.992 354.957 147.124 357.51 152.53C358.819 152.142 360.223 152.236 361.466 152.796C362.711 153.354 363.713 154.341 364.293 155.576C366.748 160.098 372.154 176.314 370.582 186.437C370.464 187.199 370.172 187.923 369.73 188.554C369.286 189.184 368.704 189.704 368.028 190.073C366.296 190.954 364.362 191.361 362.426 191.253ZM343.654 185.946C345.522 186.732 361.54 192.629 367.536 189.287C368.084 188.989 368.557 188.568 368.914 188.056C369.273 187.545 369.507 186.956 369.6 186.339C371.172 176.412 365.767 160.49 363.506 156.068C363.009 154.946 362.096 154.063 360.958 153.604C359.819 153.146 358.548 153.148 357.412 153.611C357.359 153.659 357.29 153.686 357.215 153.686C357.143 153.686 357.074 153.659 357.018 153.611C356.888 153.611 356.789 153.512 356.726 153.316C354.563 147.714 345.62 150.368 345.62 150.466H345.128C340.803 147.812 338.64 150.466 338.542 150.662C338.486 150.733 338.403 150.782 338.316 150.8C338.225 150.818 338.132 150.804 338.052 150.761C337.856 150.761 333.038 149.385 331.171 153.512C329.304 157.641 339.526 177.985 343.654 185.946Z" fill="#02133B"/>
<path d="M211.267 230.369C211.267 230.369 196.034 251.696 206.157 270.958C206.157 270.958 177.262 320.296 163.896 329.337C150.529 338.381 125.369 396.859 125.369 396.859L162.814 402.165C162.814 402.165 258.639 314.008 260.31 284.325L287.043 272.041L269.745 314.106L298.543 326.095C298.543 326.095 350.237 269.878 348.074 244.226C345.912 218.575 278.984 227.617 278.984 227.617L211.267 230.369Z" fill="black"/>
<path d="M278.982 153.218C278.982 153.218 223.354 159.606 214.214 168.746C205.074 177.886 202.42 209.435 202.42 209.435C202.42 209.435 224.926 221.72 237.212 214.251C249.497 206.781 278.982 153.218 278.982 153.218Z" fill="#EDEDFE"/>
<path d="M227.382 217.101C223.217 217.005 219.084 216.344 215.097 215.135C210.648 213.775 206.337 211.998 202.222 209.828C202.128 209.787 202.049 209.718 201.996 209.63C201.943 209.542 201.919 209.439 201.927 209.336C202.026 208.059 204.778 177.493 213.918 168.353C223.058 159.213 276.719 152.923 278.98 152.726C279.071 152.692 279.172 152.693 279.265 152.73C279.356 152.766 279.43 152.835 279.473 152.923C279.528 152.993 279.558 153.079 279.558 153.168C279.558 153.258 279.528 153.345 279.473 153.414C278.292 155.577 249.791 207.174 237.505 214.644C234.425 216.387 230.919 217.237 227.382 217.101ZM203.008 209.14C205.564 210.516 225.81 220.639 237.014 213.759C248.218 206.879 274.36 160.589 278.095 153.807C270.724 154.692 222.763 160.785 214.606 169.041C206.448 177.297 203.303 205.798 203.008 209.14Z" fill="black"/>
<path d="M206.156 238.821C206.156 238.821 270.431 126.387 300.997 147.321C331.563 168.255 339.033 199.213 339.033 199.213V184.275C339.033 184.275 350.236 173.562 372.155 180.736C372.155 180.736 370.58 254.939 342.767 246.389C314.954 237.838 308.466 220.148 308.466 220.148L303.652 226.044C303.652 226.044 237.803 261.328 206.156 238.821Z" fill="#EDEDFE"/>
<path d="M347.095 247.568C345.558 247.538 344.031 247.272 342.573 246.782C328.127 242.359 319.476 235.381 314.859 230.369C312.204 227.63 310.012 224.476 308.371 221.032L304.048 226.339H303.852C303.163 226.733 237.412 261.524 205.864 239.116C205.667 239.018 205.667 238.723 205.766 238.526C207.83 234.988 255.496 152.137 288.027 144.667C293.007 143.488 297.43 144.176 301.295 146.731C318.551 158.766 331.582 175.923 338.543 195.774V184.275C338.543 184.078 338.543 183.98 338.642 183.882C341.153 181.781 344.06 180.21 347.194 179.263C352.402 177.69 360.855 176.51 372.354 180.245C372.549 180.344 372.746 180.54 372.647 180.737C372.349 189.953 371.495 199.142 370.093 208.255C366.848 227.519 361.738 239.902 354.761 245.013C352.54 246.653 349.856 247.547 347.095 247.568ZM308.469 219.656H308.568C308.765 219.656 308.863 219.755 308.961 219.951C310.568 223.556 312.797 226.849 315.548 229.681C320.165 234.693 328.619 241.475 342.868 245.897C344.749 246.547 346.757 246.734 348.723 246.443C350.691 246.152 352.559 245.392 354.171 244.227C369.7 233.022 371.567 185.749 371.666 181.13C360.658 177.592 352.5 178.673 347.587 180.245C344.635 181.075 341.89 182.514 339.527 184.471V199.214C339.527 199.344 339.474 199.469 339.384 199.561C339.291 199.653 339.166 199.705 339.035 199.705C338.839 199.705 338.543 199.607 338.543 199.312C338.543 199.017 330.683 168.255 300.705 147.714C297.167 145.257 293.039 144.569 288.224 145.65C274.956 148.697 256.676 165.798 235.25 195.184C220.311 215.725 208.616 235.676 206.847 238.723C237.412 259.853 300.606 227.126 303.359 225.651L308.078 219.755L308.469 219.656ZM343.557 164.913C343.454 164.922 343.352 164.898 343.262 164.845C343.174 164.792 343.105 164.713 343.065 164.619L337.759 150.368C337.711 150.305 337.679 150.233 337.665 150.156C337.655 150.079 337.657 150.001 337.681 149.926C337.705 149.852 337.745 149.784 337.801 149.729C337.854 149.673 337.921 149.631 337.995 149.607C338.07 149.582 338.147 149.575 338.224 149.587C338.301 149.599 338.376 149.629 338.439 149.674C338.501 149.72 338.554 149.78 338.588 149.849C338.623 149.918 338.642 149.995 338.642 150.073L344.047 164.226C344.087 164.356 344.079 164.497 344.023 164.622C343.97 164.748 343.874 164.851 343.754 164.913H343.557ZM349.944 163.538C349.747 163.538 349.553 163.439 349.553 163.243L344.933 150.073C344.834 149.876 345.031 149.581 345.228 149.483C345.358 149.445 345.499 149.454 345.624 149.507C345.749 149.561 345.853 149.657 345.914 149.778L350.436 162.948C350.471 163.004 350.489 163.068 350.489 163.134C350.492 163.199 350.479 163.264 350.449 163.323C350.42 163.381 350.375 163.432 350.322 163.469C350.269 163.507 350.207 163.53 350.141 163.538H349.944ZM360.757 163.537C360.56 163.537 360.363 163.439 360.363 163.243L356.727 153.316C356.629 153.12 356.825 152.825 357.022 152.727C357.086 152.695 357.155 152.677 357.227 152.676C357.296 152.673 357.368 152.687 357.435 152.715C357.498 152.743 357.557 152.785 357.605 152.838C357.653 152.891 357.687 152.953 357.709 153.021L361.246 162.948C361.281 163.004 361.3 163.068 361.302 163.134C361.302 163.199 361.289 163.264 361.26 163.323C361.23 163.381 361.188 163.432 361.135 163.469C361.079 163.507 361.018 163.53 360.954 163.537H360.757Z" fill="black"/>
<path d="M319.277 115.379L321.437 120.49C321.759 121.289 322.022 122.11 322.224 122.947L322.716 124.913C322.716 124.913 324.781 144.962 309.645 136.903C306.142 135.037 303.378 132.037 301.809 128.393C300.237 124.75 299.95 120.681 300.995 116.854C303.551 108.5 315.149 107.615 319.277 115.379Z" fill="#F9BF9D"/>
<path d="M305.421 114.102C305.421 114.102 322.325 117.935 321.932 109.974C321.538 102.013 316.33 96.9025 303.455 106.239C302.929 105.884 302.33 105.649 301.702 105.551C301.075 105.453 300.434 105.495 299.822 105.673C299.213 105.851 298.649 106.161 298.173 106.582C297.696 107.003 297.319 107.523 297.066 108.106C297.066 108.106 278.491 116.46 297.066 129.63L300.606 138.77C300.606 138.77 307.879 136.313 308.076 130.318C308.27 124.323 305.421 114.102 305.421 114.102Z" fill="#02133B"/>
<path d="M305.815 129.63C308.147 129.63 310.041 127.738 310.041 125.404C310.041 123.07 308.147 121.178 305.815 121.178C303.479 121.178 301.588 123.07 301.588 125.404C301.588 127.738 303.479 129.63 305.815 129.63Z" fill="#F9BF9D"/>
<path d="M307.289 125.895H307.092L303.456 124.519C303.259 124.519 303.063 124.224 303.161 123.93C303.182 123.862 303.217 123.799 303.265 123.746C303.313 123.693 303.371 123.652 303.438 123.623C303.501 123.595 303.573 123.582 303.645 123.584C303.717 123.586 303.786 123.603 303.85 123.635L307.486 125.011C307.6 125.055 307.691 125.14 307.747 125.249C307.8 125.358 307.813 125.483 307.781 125.601C307.739 125.695 307.67 125.774 307.582 125.827C307.494 125.88 307.39 125.904 307.289 125.895Z" fill="#02133B"/>
<path d="M305.913 127.96C305.716 127.96 305.421 127.763 305.421 127.567L305.027 124.913C305.033 124.788 305.073 124.668 305.142 124.564C305.211 124.46 305.309 124.377 305.421 124.323C305.562 124.321 305.698 124.37 305.807 124.46C305.916 124.55 305.988 124.676 306.012 124.815L306.403 127.37C306.403 127.665 306.208 127.96 306.012 127.96H305.913ZM315.936 127.37C314.502 127.37 313.13 126.801 312.114 125.787C311.1 124.773 310.531 123.398 310.531 121.964C310.456 120.593 310.906 119.245 311.792 118.193C312.675 117.142 313.925 116.466 315.29 116.303C316.652 116.141 318.027 116.503 319.133 117.317C320.24 118.132 320.995 119.336 321.245 120.687C321.325 121.108 321.36 121.536 321.344 121.964C321.344 123.398 320.772 124.773 319.758 125.787C318.745 126.801 317.37 127.37 315.936 127.37ZM315.936 117.542C315.064 117.542 314.207 117.801 313.481 118.287C312.752 118.773 312.185 119.464 311.85 120.272C311.515 121.08 311.43 121.969 311.6 122.827C311.77 123.685 312.191 124.473 312.811 125.092C313.428 125.71 314.215 126.132 315.074 126.302C315.933 126.473 316.822 126.385 317.63 126.05C318.436 125.716 319.128 125.149 319.615 124.422C320.102 123.694 320.36 122.839 320.36 121.964C320.376 121.601 320.344 121.238 320.261 120.883C320.019 119.922 319.461 119.071 318.676 118.465C317.894 117.859 316.928 117.534 315.936 117.542Z" fill="#02133B"/>
<path d="M310.924 122.75H310.727L304.341 120.785C304.272 120.764 304.208 120.728 304.157 120.681C304.104 120.633 304.061 120.574 304.032 120.509C304.005 120.443 303.992 120.373 303.992 120.302C303.995 120.23 304.013 120.161 304.045 120.097C304.088 119.983 304.173 119.89 304.282 119.836C304.391 119.781 304.516 119.769 304.633 119.802L311.023 121.768C311.15 121.828 311.257 121.926 311.328 122.049C311.398 122.172 311.43 122.314 311.416 122.456C311.374 122.55 311.305 122.629 311.217 122.682C311.129 122.735 311.028 122.759 310.924 122.75ZM320.556 120.785C320.442 120.787 320.33 120.749 320.239 120.677C320.149 120.605 320.088 120.504 320.064 120.392C320.056 120.264 320.091 120.138 320.162 120.031C320.234 119.925 320.338 119.844 320.458 119.802L321.538 119.409C321.655 119.376 321.782 119.388 321.891 119.443C322 119.497 322.083 119.59 322.128 119.704C322.16 119.768 322.179 119.837 322.179 119.908C322.181 119.98 322.168 120.05 322.139 120.116C322.112 120.181 322.07 120.24 322.016 120.288C321.963 120.335 321.902 120.371 321.833 120.392L320.753 120.785H320.556Z" fill="#02133B"/>
<path d="M125.37 396.859L118.49 413.271L117.311 433.812H168.614C168.614 433.812 173.233 418.775 156.525 417.399L162.815 402.166L125.37 396.859Z" fill="white"/>
<path d="M168.613 434.304H117.31L116.917 434.107C116.818 434.008 116.818 433.91 116.818 433.713L117.998 413.271V413.074L124.877 396.662C124.918 396.566 124.987 396.489 125.076 396.436C125.164 396.383 125.267 396.359 125.369 396.367L162.912 401.673C162.991 401.673 163.066 401.705 163.121 401.761C163.176 401.814 163.207 401.892 163.207 401.969C163.285 402.083 163.32 402.224 163.306 402.362L157.212 416.907C162.225 417.498 165.763 419.267 167.728 422.312C171.07 427.326 169.203 433.615 169.104 433.91C169.006 434.205 168.908 434.304 168.613 434.304ZM117.801 433.319H168.318C168.613 431.944 169.596 426.834 166.942 422.903C164.288 418.971 161.438 418.282 156.524 417.891C156.328 417.793 156.229 417.793 156.131 417.596C156.053 417.479 156.018 417.341 156.033 417.203L162.126 402.559L125.664 397.351L118.981 413.369L117.801 433.319Z" fill="#02133B"/>
<path d="M118.093 420.642C117.986 420.62 117.886 420.573 117.8 420.506C117.714 420.437 117.647 420.349 117.602 420.248C117.504 419.955 117.7 419.759 117.995 419.66C123.105 418.282 126.152 416.122 126.939 413.172C128.216 408.161 122.811 402.559 122.712 402.559C122.622 402.466 122.572 402.344 122.572 402.213C122.572 402.086 122.622 401.963 122.712 401.87C122.909 401.673 123.302 401.673 123.4 401.87C123.499 402.067 129.297 407.866 127.823 413.369C126.939 416.71 123.695 419.168 118.191 420.642H118.093ZM156.521 417.891L147.676 417.498C147.546 417.498 147.421 417.444 147.329 417.354C147.236 417.261 147.185 417.136 147.185 417.006C147.185 416.875 147.236 416.75 147.329 416.657C147.421 416.567 147.546 416.513 147.676 416.513L156.521 416.907C156.652 416.907 156.777 416.96 156.869 417.051C156.961 417.144 157.013 417.269 157.013 417.399C157.013 417.53 156.961 417.655 156.869 417.748C156.777 417.838 156.652 417.891 156.521 417.891ZM155.735 407.767C155.633 407.775 155.53 407.751 155.442 407.698C155.354 407.645 155.285 407.568 155.244 407.472C155.206 407.374 155.195 407.267 155.212 407.164C155.23 407.06 155.274 406.964 155.342 406.882C156.521 405.998 166.055 398.332 169.298 399.021C169.507 399.077 169.702 399.176 169.871 399.311C170.041 399.447 170.18 399.614 170.281 399.806C170.377 400.005 170.426 400.224 170.426 400.444C170.426 400.668 170.377 400.886 170.281 401.085C168.905 404.131 157.111 407.374 155.833 407.669L155.735 407.767ZM168.708 399.904C166.743 399.904 161.829 403.147 157.996 406.097C162.811 404.623 168.61 402.362 169.396 400.692C170.182 399.021 169.495 400.298 169.396 400.2C169.298 400.101 169.298 400.003 169.003 400.003L168.708 399.904Z" fill="#02133B"/>
<path d="M154.561 407.669C152.301 407.669 144.242 407.571 141.981 405.113C141.733 404.895 141.541 404.621 141.422 404.312C141.302 404.006 141.258 403.674 141.293 403.344C141.291 403.067 141.362 402.793 141.5 402.551C141.638 402.309 141.838 402.107 142.079 401.969C144.929 400.495 154.365 406.196 155.446 406.786C155.567 406.959 155.636 407.164 155.642 407.374C155.601 407.47 155.532 407.547 155.444 407.6C155.356 407.653 155.253 407.677 155.151 407.669H154.561ZM143.357 402.658L142.571 402.855C142.472 402.855 142.276 403.051 142.276 403.442C142.252 403.626 142.275 403.815 142.344 403.985C142.413 404.158 142.525 404.31 142.669 404.427C144.242 406.097 149.844 406.589 153.283 406.688C149.942 404.82 145.421 402.658 143.357 402.658ZM159.279 411.207H148.468C148.337 411.207 148.212 411.156 148.12 411.063C148.028 410.97 147.976 410.845 147.976 410.715C147.976 410.585 148.028 410.46 148.12 410.369C148.212 410.276 148.337 410.225 148.468 410.225H159.279C159.409 410.225 159.534 410.276 159.626 410.369C159.718 410.46 159.77 410.585 159.77 410.715C159.77 410.845 159.718 410.97 159.626 411.063C159.534 411.156 159.409 411.207 159.279 411.207ZM158.001 413.566H148.959C148.829 413.566 148.704 413.513 148.611 413.423C148.519 413.33 148.468 413.205 148.468 413.074C148.468 412.944 148.519 412.819 148.611 412.728C148.704 412.635 148.829 412.582 148.959 412.582H158.001C158.131 412.582 158.256 412.635 158.348 412.728C158.44 412.819 158.492 412.944 158.492 413.074C158.492 413.205 158.44 413.33 158.348 413.423C158.256 413.513 158.131 413.566 158.001 413.566ZM169.205 430.766H117.509C117.379 430.766 117.254 430.713 117.161 430.622C117.069 430.529 117.018 430.404 117.018 430.274C117.018 430.144 117.069 430.018 117.161 429.925C117.254 429.835 117.379 429.782 117.509 429.782H169.205C169.336 429.782 169.46 429.835 169.553 429.925C169.645 430.018 169.696 430.144 169.696 430.274C169.696 430.404 169.645 430.529 169.553 430.622C169.46 430.713 169.336 430.766 169.205 430.766Z" fill="#02133B"/>
<path d="M269.745 314.106L260.801 342.313L318.098 342.704C318.098 342.704 323.995 330.912 300.212 321.868C280.653 314.497 269.745 314.106 269.745 314.106Z" fill="white"/>
<path d="M318.097 343.196L260.8 342.802L260.406 342.608C260.327 342.456 260.293 342.286 260.308 342.116L269.252 314.008C269.276 313.893 269.337 313.792 269.427 313.72C269.515 313.648 269.629 313.611 269.744 313.614C269.842 313.614 280.948 314.008 300.408 321.378C310.234 325.113 316.328 329.829 318.393 335.234C319.446 337.703 319.518 340.483 318.589 342.999L318.097 343.196ZM261.488 341.821L317.802 342.214C318.499 340.054 318.395 337.716 317.507 335.628C316.132 331.992 311.905 326.784 300.015 322.36C282.717 315.776 272.199 314.792 270.138 314.595L261.488 341.821Z" fill="#02133B"/>
<path d="M318.688 338.775L262.372 337.988C262.242 337.988 262.117 337.937 262.025 337.844C261.932 337.751 261.881 337.626 261.881 337.495C261.881 337.365 261.932 337.24 262.025 337.15C262.117 337.057 262.242 337.003 262.372 337.003L318.688 337.791C318.818 337.791 318.943 337.844 319.034 337.934C319.127 338.027 319.18 338.152 319.18 338.283C319.18 338.413 319.127 338.538 319.034 338.629C318.943 338.722 318.818 338.775 318.688 338.775ZM296.967 322.36C296.865 322.368 296.762 322.344 296.674 322.294C296.586 322.24 296.517 322.161 296.477 322.065C296.442 322.017 296.421 321.958 296.413 321.9C296.405 321.841 296.411 321.78 296.429 321.722C296.448 321.666 296.48 321.615 296.522 321.57C296.565 321.528 296.615 321.496 296.671 321.477C297.36 320.985 313.969 308.895 319.374 310.959C319.843 311.119 320.255 311.406 320.569 311.789C320.88 312.172 321.079 312.632 321.146 313.122C321.255 313.633 321.25 314.165 321.133 314.673C321.013 315.183 320.782 315.66 320.457 316.072C316.427 321.379 297.754 322.262 296.967 322.36ZM317.901 311.747C313.381 311.747 303.651 317.742 298.637 321.28C303.454 320.886 316.624 319.511 319.67 315.481C319.917 315.183 320.087 314.835 320.175 314.457C320.26 314.082 320.255 313.691 320.162 313.319C320.138 313.008 320.023 312.712 319.829 312.468C319.638 312.223 319.377 312.039 319.082 311.944L317.901 311.747Z" fill="#02133B"/>
<path d="M321.148 120.687C321.148 120.687 324.194 117.148 324.489 119.016C324.785 120.883 321.835 123.93 321.835 123.93" fill="white"/>
<path d="M321.836 124.421H321.442C321.354 124.33 321.304 124.206 321.304 124.077C321.304 123.949 321.354 123.825 321.442 123.733C322.23 122.947 324.195 120.49 323.998 119.212V119.016C323.033 119.551 322.195 120.289 321.541 121.178C321.501 121.234 321.445 121.281 321.384 121.315C321.322 121.348 321.253 121.368 321.184 121.373C321.112 121.378 321.043 121.368 320.977 121.344C320.91 121.319 320.852 121.28 320.801 121.231C320.751 121.181 320.713 121.121 320.689 121.055C320.663 120.989 320.652 120.919 320.657 120.848C320.663 120.778 320.684 120.71 320.716 120.648C320.751 120.586 320.798 120.532 320.854 120.49C321.541 119.704 323.214 117.738 324.294 118.131C325.374 118.524 324.884 118.328 324.983 119.016C325.081 119.704 322.525 124.028 322.131 124.421H321.836ZM309.65 136.903L314.071 145.552L317.021 138.77C317.021 138.77 310.927 138.377 309.65 136.903Z" fill="#02133B"/>
<path d="M317.018 130.515C317.701 131.198 318.616 131.598 319.582 131.635C320.55 131.671 321.492 131.341 322.226 130.711" fill="white"/>
<path d="M319.769 132.185C318.585 132.138 317.463 131.647 316.625 130.809C316.553 130.715 316.519 130.598 316.527 130.48C316.537 130.362 316.588 130.251 316.67 130.167C316.755 130.083 316.864 130.033 316.984 130.024C317.101 130.016 317.218 130.05 317.314 130.121C317.92 130.722 318.732 131.075 319.586 131.112C320.439 131.148 321.275 130.865 321.932 130.318C322.025 130.228 322.147 130.178 322.275 130.178C322.405 130.178 322.527 130.228 322.621 130.318C322.716 130.426 322.77 130.566 322.77 130.711C322.77 130.856 322.716 130.996 322.621 131.104C321.823 131.784 320.817 132.166 319.769 132.185Z" fill="#02133B"/>
</g>
<defs>
<clipPath id="clip0_834_891">
<rect width="532" height="532" fill="white"/>
</clipPath>
</defs>
</svg>
