<svg width="528" height="452" viewBox="0 0 528 452" fill="none" xmlns="http://www.w3.org/2000/svg">
<g clip-path="url(#clip0_851_489)">
<path d="M174.188 376.11C174.188 376.11 68.7613 353.909 60.1395 391.978C51.5177 430.047 167.183 402.736 237.451 440.112C307.72 477.487 402.612 450.174 459.518 440.112C516.424 430.049 487.839 388.708 422.218 376.11C356.597 363.513 216.259 391.172 174.188 376.11Z" fill="#EDEDFE"/>
<path d="M88.5323 411.808C141.355 411.808 184.176 406.656 184.176 400.302C184.176 393.947 141.355 388.796 88.5323 388.796C35.7098 388.796 -7.11133 393.947 -7.11133 400.302C-7.11133 406.656 35.7098 411.808 88.5323 411.808Z" fill="#C3C3E1"/>
<path d="M384.43 434.324C467.894 434.324 535.555 425.264 535.555 414.089C535.555 402.913 467.894 393.853 384.43 393.853C300.966 393.853 233.305 402.913 233.305 414.089C233.305 425.264 300.966 434.324 384.43 434.324Z" fill="#C3C3E1"/>
<path d="M505.338 325.451H423.584V405.548H505.338V325.451Z" fill="#EDEDFE"/>
<path d="M510.968 344.467H418.736V346.192H510.968V344.467Z" fill="#889DBA"/>
<path d="M510.968 365.015H418.736V366.74H510.968V365.015Z" fill="#889DBA"/>
<path d="M510.968 375.289H418.736V377.014H510.968V375.289Z" fill="#889DBA"/>
<path d="M510.968 385.563H418.736V387.288H510.968V385.563Z" fill="#889DBA"/>
<path d="M510.968 395.837H418.736V397.562H510.968V395.837Z" fill="#889DBA"/>
<path d="M472.287 337.484C472.287 337.484 449.768 341.857 441.724 345.539C439.961 337.484 433.682 334.27 433.682 334.27L472.287 337.484Z" fill="#C3C3E1"/>
<path d="M235.207 46.6581H198.858C197.569 46.6581 196.523 47.7019 196.523 48.9896V55.3953C196.523 56.683 197.569 57.7268 198.858 57.7268H235.207C236.496 57.7268 237.541 56.683 237.541 55.3953V48.9896C237.541 47.7019 236.496 46.6581 235.207 46.6581Z" fill="#C3C3E1"/>
<path d="M296.338 46.6581H259.989C258.699 46.6581 257.654 47.7019 257.654 48.9896V55.3953C257.654 56.683 258.699 57.7268 259.989 57.7268H296.338C297.627 57.7268 298.672 56.683 298.672 55.3953V48.9896C298.672 47.7019 297.627 46.6581 296.338 46.6581Z" fill="#C3C3E1"/>
<path d="M266.111 63.2253H229.762C228.473 63.2253 227.428 64.2692 227.428 65.5568V71.9626C227.428 73.2502 228.473 74.2941 229.762 74.2941H266.111C267.4 74.2941 268.446 73.2502 268.446 71.9626V65.5568C268.446 64.2692 267.4 63.2253 266.111 63.2253Z" fill="#C3C3E1"/>
<path d="M165.826 103.261H129.477C128.188 103.261 127.143 104.305 127.143 105.592V111.998C127.143 113.286 128.188 114.33 129.477 114.33H165.826C167.115 114.33 168.16 113.286 168.16 111.998V105.592C168.16 104.305 167.115 103.261 165.826 103.261Z" fill="#C3C3E1"/>
<path d="M189.646 124.147H153.297C152.008 124.147 150.963 125.191 150.963 126.478V132.884C150.963 134.172 152.008 135.216 153.297 135.216H189.646C190.936 135.216 191.981 134.172 191.981 132.884V126.478C191.981 125.191 190.936 124.147 189.646 124.147Z" fill="#C3C3E1"/>
<path d="M329.262 106.422H292.913C291.623 106.422 290.578 107.466 290.578 108.753V115.159C290.578 116.447 291.623 117.491 292.913 117.491H329.262C330.551 117.491 331.596 116.447 331.596 115.159V108.753C331.596 107.466 330.551 106.422 329.262 106.422Z" fill="#C3C3E1"/>
<path d="M317.492 127.936H281.143C279.854 127.936 278.809 128.98 278.809 130.267V136.673C278.809 137.961 279.854 139.004 281.143 139.004H317.492C318.781 139.004 319.827 137.961 319.827 136.673V130.267C319.827 128.98 318.781 127.936 317.492 127.936Z" fill="#C3D0E5"/>
<path d="M375.68 117.741H339.331C338.041 117.741 336.996 118.785 336.996 120.073V126.479C336.996 127.766 338.041 128.81 339.331 128.81H375.68C376.969 128.81 378.014 127.766 378.014 126.479V120.073C378.014 118.785 376.969 117.741 375.68 117.741Z" fill="#C3C3E1"/>
<path d="M445.191 165.061H408.842C407.553 165.061 406.508 166.105 406.508 167.392V173.798C406.508 175.086 407.553 176.129 408.842 176.129H445.191C446.481 176.129 447.526 175.086 447.526 173.798V167.392C447.526 166.105 446.481 165.061 445.191 165.061Z" fill="#C3C3E1"/>
<path d="M321.166 211.446H284.817C283.528 211.446 282.482 212.489 282.482 213.777V220.183C282.482 221.47 283.528 222.514 284.817 222.514H321.166C322.455 222.514 323.5 221.47 323.5 220.183V213.777C323.5 212.489 322.455 211.446 321.166 211.446Z" fill="#C3D0E5"/>
<path d="M214.697 183.089H178.348C177.059 183.089 176.014 184.133 176.014 185.42V191.826C176.014 193.114 177.059 194.158 178.348 194.158H214.697C215.986 194.158 217.032 193.114 217.032 191.826V185.42C217.032 184.133 215.986 183.089 214.697 183.089Z" fill="#C3D0E5"/>
<path d="M198.836 211.446H162.487C161.198 211.446 160.152 212.489 160.152 213.777V220.183C160.152 221.47 161.198 222.514 162.487 222.514H198.836C200.125 222.514 201.17 221.47 201.17 220.183V213.777C201.17 212.489 200.125 211.446 198.836 211.446Z" fill="#C3C3E1"/>
<path d="M255.717 196.505H219.368C218.078 196.505 217.033 197.548 217.033 198.836V205.242C217.033 206.53 218.078 207.573 219.368 207.573H255.717C257.006 207.573 258.051 206.53 258.051 205.242V198.836C258.051 197.548 257.006 196.505 255.717 196.505Z" fill="#C3C3E1"/>
<path d="M272.892 253.517H236.543C235.254 253.517 234.209 254.561 234.209 255.849V262.254C234.209 263.542 235.254 264.586 236.543 264.586H272.892C274.182 264.586 275.227 263.542 275.227 262.254V255.849C275.227 254.561 274.182 253.517 272.892 253.517Z" fill="#C3D0E5"/>
<path d="M406.793 270.615H370.444C369.155 270.615 368.109 271.659 368.109 272.946V279.352C368.109 280.64 369.155 281.683 370.444 281.683H406.793C408.082 281.683 409.127 280.64 409.127 279.352V272.946C409.127 271.659 408.082 270.615 406.793 270.615Z" fill="#C3D0E5"/>
<path d="M407.342 250.172H370.993C369.703 250.172 368.658 251.215 368.658 252.503V258.909C368.658 260.197 369.703 261.24 370.993 261.24H407.342C408.631 261.24 409.676 260.197 409.676 258.909V252.503C409.676 251.215 408.631 250.172 407.342 250.172Z" fill="#C3D0E5"/>
<path d="M455.953 259.053H419.604C418.315 259.053 417.27 260.096 417.27 261.384V267.79C417.27 269.077 418.315 270.121 419.604 270.121H455.953C457.242 270.121 458.287 269.077 458.287 267.79V261.384C458.287 260.096 457.242 259.053 455.953 259.053Z" fill="#C3C3E1"/>
<path d="M482.633 215.355H446.284C444.994 215.355 443.949 216.399 443.949 217.686V224.092C443.949 225.38 444.994 226.423 446.284 226.423H482.633C483.922 226.423 484.967 225.38 484.967 224.092V217.686C484.967 216.399 483.922 215.355 482.633 215.355Z" fill="#C3C3E1"/>
<path d="M231.912 288.004H101.172V386.297H231.912V288.004Z" fill="#3A81E1" fill-opacity="0.56"/>
<path d="M234.55 276.15H97.8145V299.859H234.55V276.15Z" fill="#245598" fill-opacity="0.84"/>
<path d="M167.682 294.478C169.305 294.478 170.621 293.163 170.621 291.542C170.621 289.921 169.305 288.606 167.682 288.606C166.058 288.606 164.742 289.921 164.742 291.542C164.742 293.163 166.058 294.478 167.682 294.478Z" fill="black"/>
<path d="M149.33 302.321H18.5898V400.615H149.33V302.321Z" fill="#3A81E1" fill-opacity="0.56"/>
<path d="M151.97 290.465H15.2344V314.175H151.97V290.465Z" fill="#245598" fill-opacity="0.84"/>
<path d="M85.1015 308.795C86.725 308.795 88.041 307.48 88.041 305.859C88.041 304.238 86.725 302.923 85.1015 302.923C83.4781 302.923 82.1621 304.238 82.1621 305.859C82.1621 307.48 83.4781 308.795 85.1015 308.795Z" fill="black"/>
<path d="M378.662 316.256L395.801 410.315H399.678L386.918 314.435L378.662 316.256Z" fill="black"/>
<path d="M333.79 159.49C333.79 159.49 414.403 147.878 419.829 174.198C425.255 200.519 415.96 302.708 394.249 311.999C372.539 321.29 309.76 321.288 309.76 321.288L333.79 159.49ZM281.454 376.736C281.454 376.736 281.189 377.125 277.611 384.677C274.034 392.229 238.658 402.144 247.005 408.495C255.353 414.846 299.207 402.54 299.207 402.54C299.207 402.54 301.327 379.913 299.207 373.958C297.086 368.003 281.454 376.736 281.454 376.736Z" fill="#CCC8C8"/>
<path d="M243.619 405.386C243.619 405.386 251.716 409.521 268.269 405.386C284.822 401.252 300.151 397.84 300.151 397.84L301.708 404.489L254.227 413.294L243.611 408.262L243.619 405.386ZM262.87 392.184C262.87 392.184 265.929 394.253 267.909 398.563C269.889 402.872 270.426 398.918 268.808 394.605C267.189 390.292 262.87 392.184 262.87 392.184ZM269.222 388.277C269.222 388.277 272.28 390.346 274.26 394.656C276.241 398.965 276.778 395.011 275.159 390.698C273.541 386.385 269.222 388.277 269.222 388.277Z" fill="black"/>
<path d="M320.54 386.264C320.54 386.264 328.97 394.203 313.426 396.189C297.883 398.174 288.88 408.891 296.959 412.464C305.038 416.037 330.473 413.655 330.473 413.655C330.473 413.655 342.402 409.272 341.607 400.348C340.811 391.425 336.043 382.691 336.043 382.691L320.54 386.264Z" fill="#CCC8C8"/>
<path d="M293.096 406.824C293.096 406.824 294.173 411.056 302.99 411.186C311.806 411.316 326.019 412.369 330.157 410.315C334.295 408.262 341.16 403.01 342.751 398.563C344.342 394.116 341.644 414.089 341.644 414.089L322.062 418.864L294.893 415.989L293.096 406.824Z" fill="black"/>
<path d="M308.072 396.632C308.072 396.632 313.965 393.185 320.262 398.574C326.559 403.964 322.33 389.28 308.072 396.632Z" fill="black"/>
<path d="M312.393 393.991C312.393 393.991 318.283 390.544 324.58 395.934C330.877 401.324 326.65 386.651 312.393 393.991Z" fill="black"/>
<path d="M314.049 262.14C314.049 262.14 251.774 272.328 245.814 287.009C239.853 301.69 279.931 379.103 279.931 379.103C279.931 379.103 295.897 381.485 302.256 374.735C294.704 341.389 281.455 305.659 281.455 305.659L296.977 300.102L317.689 389.443C317.689 389.443 329.33 396.987 338.648 387.063C341.607 354.111 335.645 302.9 335.645 302.9C335.645 302.9 388.327 300.683 388.619 274.015C388.654 270.726 384.59 243.373 381.615 241.957C360.594 231.953 329.439 249.6 329.439 249.6C329.439 249.6 323.854 254.728 314.049 262.14Z" fill="black"/>
<path d="M376.051 238.883C376.051 238.883 390.58 267.127 381.254 279.066C375.547 286.373 375.547 287.331 360.025 291.542C350.298 294.184 335.735 295.387 326.829 302.321C317.923 309.255 334.476 297.753 329.438 307.096C324.399 316.44 322.423 311.791 326.829 320.944C331.235 330.097 335.177 384.002 335.177 384.002C335.177 384.002 327.035 397.187 316.182 388.803C305.329 380.42 327.199 405.555 327.199 405.555L356.066 386.305L372.619 309.62L402.844 290.879L391.985 241.25L376.051 238.883Z" fill="black"/>
<path d="M343.833 239.113C343.833 239.113 348.512 264.139 329.438 270.345C310.364 276.55 292.67 282.566 295.978 296.316C299.285 310.065 305.36 377.517 305.36 377.517L267.192 388.796L233.111 282.299L302.993 253.245L343.833 239.113Z" fill="black"/>
<path d="M326.641 395.413C326.6 395.203 322.392 374.164 318.597 351.982C313.498 322.181 311.533 304.629 312.761 299.811C315.718 288.177 319.276 286.793 342.425 277.838L342.509 277.807C347.762 275.773 352.108 272.313 355.417 267.526C358.07 263.688 360.07 258.992 361.364 253.57C362.703 247.807 363.23 241.885 362.932 235.977L363.321 235.946C363.623 241.891 363.093 247.85 361.747 253.649C360.443 259.122 358.422 263.863 355.743 267.741C352.388 272.598 347.981 276.105 342.651 278.169L342.567 278.202C319.581 287.1 316.046 288.468 313.14 299.908C310.249 311.284 326.861 394.498 327.028 395.338L326.641 395.413Z" fill="black"/>
<path d="M293.792 386.418C293.713 386.317 285.678 376.045 272.783 349.59C267.762 339.293 262.083 327.635 258.529 317.12C254.455 305.033 253.86 296.331 256.696 290.533C258.733 286.37 262.618 283.657 268.242 282.47C276.162 280.798 289.631 275.532 308.828 259.95C315.778 254.313 322.378 248.259 328.591 241.821L328.877 242.087C322.649 248.536 316.036 254.603 309.073 260.253C302.313 265.74 295.751 270.356 289.575 273.986C281.846 278.522 274.695 281.505 268.322 282.849C262.82 284.015 259.027 286.653 257.039 290.704C254.247 296.411 254.852 305.012 258.893 316.996C262.427 327.487 268.112 339.145 273.125 349.419C286.005 375.827 294.018 386.076 294.098 386.177L293.792 386.418Z" fill="black"/>
<path d="M381.255 206.466C380.757 206.507 380.757 206.507 380.757 206.507L380.757 206.508L380.757 206.512L380.758 206.528L380.763 206.589L380.783 206.827L380.859 207.735C380.924 208.52 381.018 209.644 381.133 211.007C381.364 213.731 381.679 217.405 382.016 221.202C382.689 228.778 383.456 236.899 383.821 238.905C384.155 240.739 383.657 242.332 383.06 243.482C382.762 244.056 382.442 244.513 382.198 244.826C382.076 244.982 381.974 245.101 381.904 245.18C381.876 245.21 381.854 245.234 381.837 245.252L381.814 245.266C381.764 245.298 381.688 245.344 381.587 245.406C381.386 245.529 381.087 245.71 380.696 245.945C379.914 246.415 378.764 247.098 377.294 247.95C374.353 249.653 370.131 252.03 365.01 254.722C362.552 256.014 358.703 256.62 354.237 256.771C349.79 256.922 344.805 256.621 340.127 256.15C335.451 255.679 331.093 255.041 327.903 254.52C326.309 254.259 325.007 254.028 324.104 253.862C323.653 253.779 323.301 253.713 323.063 253.667C323.017 253.658 322.975 253.65 322.938 253.643L307.396 222.955L307.395 222.952L296.977 202.647L296.666 202.04L296.181 202.52L296.533 202.875C296.181 202.52 296.181 202.52 296.181 202.52L296.18 202.521L296.177 202.524L296.166 202.535L296.121 202.579C296.08 202.619 296.021 202.678 295.942 202.755C295.785 202.909 295.554 203.135 295.257 203.423C294.662 204.001 293.804 204.827 292.75 205.825C290.642 207.822 287.754 210.501 284.628 213.236C281.502 215.972 278.145 218.757 275.101 220.968C273.578 222.074 272.14 223.031 270.852 223.766C269.558 224.504 268.442 225.002 267.56 225.21C263.829 226.091 258.955 226.096 254.981 225.871C253 225.76 251.256 225.592 250.007 225.452C249.383 225.383 248.882 225.32 248.539 225.275C248.519 225.272 248.5 225.27 248.481 225.267C248.498 225.108 248.518 224.912 248.544 224.681C248.62 224.002 248.737 223.028 248.905 221.851C249.241 219.494 249.778 216.328 250.582 213.082C251.387 209.831 252.455 206.523 253.845 203.87C255.246 201.198 256.918 199.295 258.881 198.682C261.207 197.956 263.323 195.837 265.216 193.094C267.121 190.333 268.856 186.856 270.391 183.283C271.927 179.707 273.27 176.016 274.385 172.82C274.764 171.733 275.116 170.706 275.439 169.761C276.071 167.916 276.596 166.383 277.01 165.322C278.226 162.201 280.458 159.888 282.409 158.348C283.382 157.579 284.278 157.009 284.929 156.631C285.255 156.442 285.519 156.302 285.7 156.209C285.79 156.163 285.86 156.129 285.906 156.106C285.929 156.095 285.947 156.087 285.958 156.082L285.969 156.076L285.97 156.076L285.971 156.076L285.988 156.068L286.058 156.038C286.12 156.011 286.211 155.971 286.332 155.919C286.573 155.815 286.928 155.662 287.386 155.467C288.3 155.076 289.623 154.515 291.253 153.838C294.513 152.482 299.002 150.658 303.919 148.783C313.775 145.025 325.28 141.089 332.073 140.276C345.66 138.649 360.303 141.712 373.313 157.554C379.766 165.412 381.655 177.57 381.902 187.86C382.025 192.99 381.74 197.624 381.423 200.976C381.265 202.651 381.1 204.005 380.973 204.94C380.91 205.407 380.857 205.769 380.82 206.013C380.801 206.136 380.787 206.229 380.777 206.291L380.766 206.361L380.763 206.378L380.762 206.382L380.762 206.383C380.762 206.383 380.762 206.383 381.255 206.466ZM381.255 206.466L380.762 206.383L380.752 206.445L380.757 206.507L381.255 206.466Z" fill="#EDEDFE" stroke="black"/>
<path d="M245.734 224.584L248.238 216.194C248.301 216.227 248.37 216.263 248.444 216.301C248.932 216.554 249.642 216.902 250.537 217.286C252.325 218.052 254.854 218.963 257.82 219.54C263.75 220.695 271.47 220.521 278.466 215.133C285.412 209.785 288.782 203.011 290.966 198.406C291.056 198.216 291.144 198.031 291.229 197.849C291.666 196.925 292.052 196.11 292.413 195.423C292.849 194.593 293.224 194.001 293.573 193.648C293.91 193.307 294.14 193.264 294.346 193.32C294.62 193.396 295.02 193.69 295.57 194.438C297.79 197.458 301.143 203.804 304.74 210.71C305.031 211.268 305.323 211.83 305.617 212.395C308.937 218.776 312.386 225.406 315.248 230.064C316.1 231.451 317.626 232.535 319.574 233.381C321.528 234.23 323.958 234.861 326.688 235.31C332.15 236.209 338.888 236.391 345.6 236.086C352.315 235.78 359.027 234.985 364.441 233.919C367.148 233.386 369.54 232.783 371.45 232.137C373.341 231.497 374.824 230.793 375.655 230.028C378.812 227.121 379.361 222.905 379.689 218.262C379.728 217.716 379.763 217.163 379.799 216.604C380.073 212.354 380.37 207.74 382.201 203.096C382.716 201.79 383.242 201.052 383.713 200.702C383.94 200.534 384.146 200.462 384.333 200.448C384.521 200.435 384.725 200.478 384.95 200.595C385.417 200.839 385.932 201.382 386.449 202.233C386.958 203.073 387.44 204.163 387.862 205.43C388.707 207.963 389.296 211.153 389.414 214.344C389.533 217.541 389.177 220.697 388.164 223.182C387.118 225.748 386.706 227.22 386.7 228.107C386.696 228.572 386.803 228.947 387.056 229.227C387.295 229.49 387.607 229.597 387.815 229.665C387.853 229.677 387.888 229.688 387.922 229.699C388.102 229.756 388.22 229.793 388.328 229.862C388.427 229.924 388.523 230.017 388.593 230.229C388.67 230.462 388.716 230.846 388.659 231.481C388.602 232.111 388.445 232.959 388.143 234.102C387.741 235.628 387.416 237.264 387.089 238.91C386.917 239.777 386.745 240.646 386.56 241.504C386.018 244.017 385.365 246.475 384.299 248.665C383.237 250.849 381.771 252.759 379.604 254.187C377.435 255.615 374.531 256.582 370.559 256.822C369.954 256.859 369.316 256.898 368.648 256.939C360.388 257.443 347.546 258.228 336.253 258.242C330.147 258.25 324.517 258.032 320.316 257.429C318.213 257.127 316.497 256.731 315.267 256.233C314.004 255.721 313.402 255.161 313.258 254.627C313.092 254.011 313.232 253.578 313.572 253.221C313.947 252.828 314.595 252.496 315.497 252.23C317.293 251.698 319.813 251.498 322.286 251.332C322.483 251.319 322.68 251.306 322.876 251.293C323.896 251.226 324.893 251.16 325.794 251.074C326.863 250.971 327.832 250.836 328.569 250.622C328.937 250.515 329.275 250.38 329.545 250.203C329.817 250.025 330.059 249.776 330.155 249.431C330.253 249.081 330.172 248.731 329.999 248.41C329.828 248.094 329.55 247.773 329.185 247.44C327.717 246.102 325.975 245.423 324.17 245.012C322.901 244.723 321.564 244.561 320.262 244.404C319.733 244.34 319.209 244.276 318.698 244.205C316.902 243.956 315.223 243.611 313.773 242.842C312.341 242.083 311.108 240.898 310.226 238.919C309.259 236.748 307.405 234.491 305.041 232.397C302.671 230.299 299.763 228.34 296.65 226.774C290.456 223.658 283.318 222.03 277.988 224.132C275.401 225.152 273.248 226.219 271.336 227.203C270.987 227.382 270.646 227.559 270.313 227.732C268.815 228.508 267.466 229.207 266.135 229.774C262.923 231.141 259.853 231.722 255.307 230.556C250.702 229.374 248.298 227.792 247.052 226.552C246.429 225.932 246.091 225.394 245.911 225.024C245.82 224.839 245.768 224.695 245.74 224.603C245.738 224.597 245.736 224.59 245.734 224.584Z" fill="#D6D6D6" stroke="black"/>
<path d="M253.346 201.844C253.163 201.868 252.998 201.896 252.853 201.923L252.852 199.079C252.852 199.079 252.852 199.079 252.852 199.079C252.852 198.853 252.979 198.575 253.352 198.265C253.724 197.956 254.287 197.663 255.013 197.42C256.46 196.934 258.449 196.68 260.539 196.817C264.748 197.095 269.12 198.928 270.457 203.305C271.164 205.619 271.477 207.405 271.518 208.677C271.539 209.314 271.491 209.804 271.4 210.16C271.307 210.523 271.183 210.697 271.094 210.769C271.029 210.822 270.952 210.849 270.807 210.807C270.639 210.759 270.399 210.618 270.102 210.322C269.51 209.732 268.817 208.652 268.144 207.046L268.144 207.046C267.55 205.628 266.444 204.372 265.242 203.335C264.035 202.295 262.7 201.448 261.602 200.854C261.052 200.557 260.557 200.321 260.162 200.154C259.965 200.07 259.789 200.003 259.641 199.953C259.502 199.907 259.358 199.865 259.236 199.852C259.203 199.849 259.16 199.846 259.112 199.849C259.07 199.851 258.99 199.859 258.903 199.9C258.806 199.945 258.676 200.044 258.622 200.223C258.573 200.385 258.616 200.521 258.645 200.586C258.697 200.706 258.784 200.788 258.82 200.82C258.87 200.866 258.929 200.911 258.99 200.954C259.23 201.124 259.657 201.369 260.297 201.695C261.421 202.267 262.082 203.256 262.413 204.366C262.747 205.483 262.735 206.693 262.53 207.625C262.427 208.092 262.282 208.464 262.127 208.711C261.974 208.956 261.868 208.995 261.852 209C261.828 208.994 261.74 208.957 261.598 208.741C261.409 208.451 261.2 207.941 261.011 207.126C260.602 205.364 259.851 204.137 258.925 203.304C258.002 202.475 256.937 202.066 255.944 201.887C254.954 201.709 254.024 201.755 253.346 201.844ZM261.859 209.001C261.859 209.001 261.857 209.001 261.854 209C261.857 209 261.859 209.001 261.859 209.001ZM259.494 200.082C259.486 200.074 259.488 200.075 259.495 200.083C259.495 200.082 259.495 200.082 259.494 200.082ZM349.862 151.613C350.173 150.994 350.483 150.598 350.781 150.372C350.783 150.578 350.784 150.824 350.786 151.108C350.791 152.046 350.797 153.393 350.799 155.027C350.801 158.295 350.785 162.71 350.712 167.3C350.638 171.892 350.507 176.653 350.279 180.616C350.166 182.598 350.028 184.374 349.862 185.828C349.694 187.292 349.502 188.393 349.288 189.043C348.803 190.522 348.9 191.55 349.596 192.282C349.917 192.619 350.332 192.854 350.761 193.045C351.102 193.197 351.485 193.335 351.87 193.473C351.967 193.508 352.064 193.543 352.16 193.578C353.142 193.936 354.171 194.358 355.075 195.173C355.969 195.98 356.775 197.204 357.234 199.219C357.29 199.464 357.342 199.692 357.391 199.906C357.448 200.154 357.5 200.381 357.547 200.59C356.325 198.985 354.143 196.604 350.934 196.089C350.504 196.02 350.14 195.977 349.838 195.963C349.542 195.949 349.276 195.96 349.056 196.016C348.841 196.071 348.572 196.197 348.446 196.489C348.326 196.768 348.407 197.041 348.486 197.218C348.645 197.57 349.001 197.977 349.396 198.389C349.691 198.695 350.045 199.042 350.427 199.416C350.577 199.563 350.732 199.714 350.889 199.869C352.014 200.977 353.296 202.298 354.258 203.743C355.222 205.192 355.823 206.706 355.674 208.208C355.596 208.992 355.504 209.478 355.409 209.751C355.333 209.669 355.244 209.558 355.14 209.414C354.913 209.097 354.651 208.676 354.339 208.175L354.285 208.088C353.623 207.025 352.771 205.668 351.694 204.482C350.617 203.296 349.281 202.242 347.637 201.834C346.834 201.635 346.16 201.615 345.595 201.807C345.014 202.004 344.618 202.401 344.331 202.891C344.053 203.366 343.865 203.951 343.699 204.565C343.622 204.851 343.553 205.129 343.482 205.413C343.39 205.783 343.295 206.163 343.176 206.589C342.775 208.021 342.189 209.582 340.968 211.035C339.751 212.484 337.872 213.858 334.835 214.863C334.185 215.078 333.6 215.275 333.076 215.455C334.896 214.019 337.009 211.913 338.255 209.155C339.755 205.835 341.774 203.155 343.596 200.737C343.973 200.236 344.341 199.746 344.695 199.265C346.723 196.505 348.338 193.917 347.854 191.03C347.418 188.43 346.953 178.267 347.322 168.651C347.506 163.847 347.897 159.212 348.596 155.747C348.946 154.01 349.368 152.599 349.862 151.613Z" fill="#D6D6D6" stroke="black"/>
<path d="M242.24 143.86C242.24 143.86 242.144 144.474 241.973 145.583C240.672 154.035 235.071 191.214 235.283 203.711C235.522 217.845 242.275 226.779 248.957 226.59C255.639 226.402 257.953 213.534 258.733 208.022C259.513 202.51 256.398 147.707 256.398 147.707L265.123 133.599L263.114 127.619L258.736 114.584L244.164 119.136L242.24 143.86Z" fill="#F9BF9D"/>
<path d="M262.871 141.783C262.871 141.783 260.556 149.449 252.366 149.15C244.176 148.851 253.002 151.252 255.183 158.435C257.363 165.618 259.501 207.311 255.912 214.259C252.323 221.207 250.949 226.548 242.759 224.117C234.569 221.687 251.514 233.086 251.514 233.086L270.428 210.89V160.433L262.871 141.783Z" fill="#E78952"/>
<path d="M295.975 165.682C295.975 165.682 304.252 181.496 306.769 187.066C308.03 194.432 310.549 198.207 310.549 198.207V226.596H325.122L318.825 196.948L319.004 189.042C319.004 189.042 331.065 166.58 331.958 159.034C332.851 151.488 322.603 154.177 322.603 154.177C322.603 154.177 317.261 184.363 313.994 188.137L309.648 188.496L299.752 163.341L295.975 165.682Z" fill="#C3C3E1"/>
<path d="M296.531 162.448L309.647 188.504L311.625 187.787L300.83 160.433L296.531 162.448Z" fill="#C3C3E1"/>
<path d="M328 150.499C328 150.499 319.278 189.652 313.993 188.142C308.707 186.633 317.744 156.617 317.744 156.617L328 150.499ZM310.548 198.207C310.548 198.207 312.66 197.128 316.911 196.769C321.162 196.409 323.331 198.745 318.467 199.644C313.604 200.544 313.97 209.067 315.678 218.551C317.386 228.034 319.179 230.014 319.179 230.014L305.352 229.103L310.548 198.207Z" fill="#C3C3E1"/>
<path d="M290.667 99.1981C290.667 99.1981 286.619 91.8306 282.841 90.5716C279.063 89.3126 281.402 94.8848 281.402 94.8848C281.402 94.8848 279.423 90.2218 276.538 91.2904C273.653 92.359 276.538 96.1477 276.538 96.1477C276.538 96.1477 259.092 90.0411 257.114 106.556C255.135 123.071 252.974 136.026 259.991 134.947C267.008 133.869 269.887 133.15 269.887 133.15L309.648 121.65C309.648 121.65 316.126 111.229 313.066 108.534C310.006 105.839 305.511 106.556 305.511 106.556C305.511 106.556 310.728 99.9072 306.769 98.8308C302.81 97.7545 300.293 102.783 300.293 102.783C300.293 102.783 304.612 95.0558 300.653 93.7987C296.694 92.5417 290.667 99.1981 290.667 99.1981Z" fill="#03151E"/>
<path d="M294.355 153.463L295.075 176.464C295.075 176.464 296.694 166.761 301.191 164.964C305.689 163.166 310.724 183.472 310.724 183.472C310.724 183.472 313.422 163.526 317.741 160.112C322.059 156.698 337 163.885 337 163.885C337 163.885 333.401 147.353 333.582 141.783C333.763 136.212 328.903 137.532 328.903 137.532L318.287 141.417L294.355 153.463Z" fill="#B1B1B2"/>
<path d="M294.357 149.968L295.077 172.968C295.077 172.968 296.696 163.265 301.193 161.468C305.691 159.671 310.726 179.976 310.726 179.976C310.726 179.976 313.424 160.03 317.743 156.617C322.061 153.203 337.002 160.39 337.002 160.39C337.002 160.39 333.403 143.86 333.584 138.289C333.765 132.719 328.905 134.036 328.905 134.036L318.289 137.922L294.357 149.968Z" fill="#EAEAEA"/>
<path d="M258.732 130.463C258.732 130.463 272.766 146.636 275.463 152.206C278.159 157.777 290.216 164.252 295.253 159.753C300.289 155.253 301.011 151.307 301.011 151.307L306.407 159.931C306.407 159.931 306.588 168.018 308.388 174.666C310.187 181.315 310.722 183.472 310.722 183.472C310.722 183.472 309.283 170.713 311.981 164.783C314.679 158.853 322.597 142.861 322.597 142.861L311.082 130.463C311.082 130.463 315.041 123.275 312.522 119.323C310.002 115.371 305.145 121.12 305.145 121.12C305.145 121.12 295.43 122.736 295.43 116.628C290.662 122.377 284.275 111.955 284.275 111.955C284.275 111.955 279.237 124.893 277.797 118.245C276.357 111.596 276.717 125.791 270.42 121.12C264.123 116.449 262.691 128.317 258.732 130.463Z" fill="#F9BF9D"/>
<path d="M256.994 131.961C256.994 131.961 264.192 133.757 266.655 127.528C269.118 121.299 273.547 129.109 276.306 125.196C279.064 121.283 281.193 115.781 285.766 118.775C290.339 121.769 289.415 120.931 296.534 122.01C303.652 123.088 304.547 124.046 305.358 120.333C306.169 116.62 294.357 109.791 294.357 109.791L281.702 109.192L268.279 117.219L256.996 126.323L256.994 131.961ZM307.371 127.887C307.371 127.887 306.877 121.897 309.762 122.377C312.647 122.857 310.49 128.122 307.371 127.887ZM300.634 152.511C300.634 152.511 303.163 146.162 303.652 139.78C304.14 133.397 308.515 143.7 307.348 150.05C306.181 156.399 302.582 162.269 302.582 162.269L300.634 152.511Z" fill="#E78952"/>
<path d="M291.652 125.678C291.572 125.678 291.494 125.654 291.428 125.608C291.272 125.559 290.294 125.352 285.376 125.639C279.067 126.012 277.853 123.543 277.805 123.438C277.763 123.345 277.759 123.239 277.795 123.144C277.83 123.048 277.902 122.97 277.994 122.927C278.087 122.884 278.192 122.878 278.289 122.912C278.385 122.946 278.464 123.016 278.509 123.108C278.532 123.152 279.659 125.198 285.331 124.856C291.716 124.481 291.897 124.881 292.006 125.122C292.048 125.216 292.051 125.323 292.015 125.419C291.978 125.515 291.905 125.593 291.811 125.635C291.762 125.662 291.708 125.676 291.652 125.678ZM266.432 137.92C266.338 137.92 266.246 137.886 266.175 137.823C265.981 137.648 265.605 137.322 267.732 134.079C269.467 131.429 267.895 129.985 267.879 129.972C267.802 129.903 267.755 129.807 267.749 129.704C267.743 129.601 267.778 129.499 267.847 129.422C267.915 129.345 268.012 129.298 268.115 129.292C268.218 129.286 268.319 129.32 268.397 129.389C268.781 129.771 269.057 130.246 269.198 130.768C269.424 131.561 269.465 132.851 268.383 134.503C266.992 136.628 266.827 137.285 266.808 137.417C266.825 137.475 266.829 137.537 266.818 137.597C266.808 137.657 266.783 137.714 266.747 137.763C266.71 137.812 266.663 137.852 266.608 137.879C266.553 137.906 266.493 137.92 266.432 137.92V137.92Z" fill="black"/>
<path d="M273.027 142.242C273.682 141.75 273.586 140.516 272.811 139.484C272.036 138.452 270.876 138.014 270.221 138.505C269.565 138.996 269.661 140.231 270.436 141.263C271.211 142.295 272.371 142.733 273.027 142.242Z" fill="black"/>
<path d="M286.841 134.046C287.497 133.555 287.4 132.32 286.626 131.288C285.851 130.256 284.691 129.818 284.035 130.309C283.379 130.801 283.476 132.035 284.251 133.067C285.026 134.099 286.185 134.537 286.841 134.046Z" fill="black"/>
<path d="M278.164 145.393C278.164 145.393 280.234 146.558 282.932 143.217C285.63 139.875 278.164 145.393 278.164 145.393ZM283.922 152.236C283.856 152.235 283.791 152.218 283.733 152.185C283.676 152.153 283.627 152.106 283.592 152.05C283.557 151.994 283.538 151.929 283.534 151.863C283.531 151.797 283.545 151.731 283.574 151.672C283.627 151.569 284.909 149.133 290.644 148.758C290.747 148.751 290.848 148.786 290.926 148.854C291.004 148.922 291.051 149.018 291.058 149.121C291.065 149.224 291.03 149.326 290.962 149.403C290.894 149.481 290.797 149.528 290.694 149.535C285.401 149.875 284.275 151.995 284.275 152.016C284.243 152.082 284.193 152.138 284.13 152.177C284.068 152.215 283.996 152.236 283.922 152.236Z" fill="#E2583B"/>
<path d="M272.357 151.705C268.972 151.705 265.041 147.819 264.844 147.625L264.514 147.295L274.855 140.182L275.023 140.664C275.141 141.002 277.872 148.981 274.274 151.184C273.697 151.534 273.032 151.715 272.357 151.705ZM265.743 147.402C266.616 148.2 267.556 148.922 268.554 149.558C270.11 150.53 272.305 151.489 273.875 150.53C275.445 149.57 275.486 147.056 275.25 145.115C275.086 143.864 274.819 142.63 274.451 141.423L265.743 147.402Z" fill="black"/>
<path d="M274.853 141.812C274.823 141.816 274.793 141.816 274.763 141.812C274.663 141.788 274.576 141.725 274.522 141.637C274.468 141.549 274.452 141.444 274.476 141.344C274.822 139.886 275.528 138.853 276.577 138.274C278.327 137.302 280.36 137.982 280.448 138.012C280.496 138.028 280.541 138.053 280.58 138.087C280.619 138.121 280.65 138.162 280.673 138.208C280.696 138.254 280.709 138.304 280.713 138.355C280.716 138.406 280.709 138.457 280.693 138.506C280.676 138.554 280.65 138.599 280.616 138.637C280.583 138.676 280.541 138.707 280.495 138.73C280.449 138.752 280.399 138.765 280.348 138.769C280.297 138.772 280.245 138.765 280.197 138.748C280.179 138.748 278.392 138.165 276.948 138.956C276.102 139.426 275.524 140.291 275.232 141.524C275.21 141.607 275.16 141.681 275.092 141.733C275.023 141.785 274.939 141.813 274.853 141.812Z" fill="black"/>
<path d="M288.345 142.966C286.847 142.966 285.251 142.453 283.613 141.435C282.28 140.592 281.071 139.566 280.024 138.387L279.729 138.037L296.083 128.276L296.249 128.707C297.867 132.95 296.75 139.094 291.492 142.113C290.537 142.672 289.451 142.966 288.345 142.966ZM280.931 138.225C282.162 139.517 286.821 143.91 291.103 141.447C295.809 138.738 296.939 133.341 295.677 129.424L280.931 138.225Z" fill="black"/>
<path d="M244.04 118.064L250.199 111.475L252.315 110.397L257.114 106.556C257.114 106.556 267.557 106.196 266.413 108.353C265.269 110.51 263.591 110.749 263.591 110.749L266.509 111.468C266.509 111.468 266.357 113.624 264.079 113.863C261.801 114.102 267.925 114.104 266.413 115.418C264.902 116.731 257.714 121.526 254.352 121.168C250.99 120.811 255.55 132.515 252.072 137.384C248.594 142.253 242.24 143.86 242.24 143.86L244.04 118.064Z" fill="#F9BF9D"/>
<path d="M241.551 142.581C241.551 142.581 248.749 142.171 250.636 137.396C252.523 132.62 250.097 120.492 252.97 120.22C255.843 119.948 265.004 117.287 266.409 115.429C267.813 113.572 267.671 115.429 267.671 115.429L256.299 126.869L253.871 141.423L243.346 146.455L241.551 142.581ZM255.857 115.369L267.193 113.393L268.272 110.069C268.272 110.069 260.351 115.369 255.857 115.369ZM257.653 112.703C257.653 112.703 266.459 111.058 267.679 108.99C268.4 107.773 268.61 106.319 268.263 104.947C268.263 104.947 261.888 112.014 257.653 112.703Z" fill="#E78952"/>
<path d="M163.787 247.666L136.976 400.293H131.493L152.405 247.666H163.787Z" fill="#FEBD6D" stroke="black"/>
<path d="M302.308 260.961H313.692L334.604 413.589H329.121L302.308 260.961Z" fill="#FEBD6D" stroke="black"/>
<path d="M135.236 240.158V248.244L324.141 270.345L369.475 240.158V232.664L234.545 216.981L135.236 240.158Z" fill="#FEBD6D"/>
<path d="M130.012 240.243L322.48 263.886L322.839 263.93L323.143 263.735L373.117 231.61L375.715 241.546L316.662 284.557L130.012 253.486V240.243Z" fill="#EA9E4B" stroke="black" stroke-width="2"/>
<path d="M302.97 84.7468C300.803 82.8233 297.926 79.0288 300.645 76.2854C303.365 73.5421 307.969 76.7265 309.104 79.5204C309.637 80.8338 308.975 81.9276 307.468 81.4924C306.781 81.2765 306.134 80.9482 305.555 80.521C304.314 79.626 303.352 78.3988 302.779 76.981C302.213 75.5899 301.964 73.8918 302.437 72.4346C303.153 70.2236 306.003 69.8913 307.127 71.9741L307.458 71.5467C305.287 70.9755 305.902 67.3403 306.514 65.819C307.211 64.0704 309.759 62.3567 311.146 64.4881C311.35 64.8009 311.856 64.5095 311.65 64.1947C310.175 61.9293 307.232 63.0834 306.191 65.106C305.232 66.9634 304.544 71.3815 307.302 72.1004C307.358 72.1145 307.416 72.112 307.471 72.0933C307.525 72.0745 307.572 72.0403 307.607 71.9948C307.642 71.9493 307.663 71.8946 307.667 71.8374C307.672 71.7802 307.659 71.723 307.631 71.673C306.927 70.3654 305.464 69.6388 304.003 70.074C302.499 70.5228 301.807 71.9294 301.668 73.3944C301.349 76.5652 303.118 79.806 305.855 81.3914C306.872 81.9743 308.683 82.7767 309.596 81.5857C310.508 80.3947 309.463 78.6849 308.726 77.7251C306.96 75.4267 303.017 73.4274 300.437 75.6792C299.18 76.777 298.828 78.6072 299.151 80.1868C299.565 82.2152 301.069 83.8181 302.567 85.147C302.845 85.3957 303.26 84.9858 302.98 84.7351L302.97 84.7468ZM255.001 91.4012C254.26 88.4577 251.5 86.3322 248.436 86.61C246.949 86.7441 245.448 87.3872 244.436 88.5082C243.627 89.3981 243.041 90.8397 243.644 91.988C244.267 93.1731 246.193 93.7949 247.449 93.5423C248.617 93.2994 249.472 92.1648 248.945 91.001C248.375 89.742 246.805 89.2213 245.56 88.9357C243.961 88.5724 242.302 88.5579 240.697 88.8929C237.437 89.571 233.316 92.1473 233.748 95.9768C233.789 96.3459 234.373 96.3498 234.332 95.9768C233.954 92.6311 237.417 90.3423 240.255 89.5963C241.79 89.1874 243.396 89.1211 244.959 89.402C246.126 89.6176 249.239 90.455 248.377 92.2153C247.903 93.177 246.7 93.0838 245.827 92.8234C244.718 92.4931 243.8 91.7704 244.027 90.525C244.331 88.8813 245.973 87.7758 247.49 87.3716C250.603 86.542 253.672 88.5005 254.443 91.5644C254.532 91.9277 255.097 91.7743 255.005 91.409L255.001 91.4012ZM266.444 85.1606C265.874 85.161 265.316 84.9925 264.842 84.6764C264.367 84.3603 263.998 83.9109 263.779 83.3849C263.56 82.8589 263.503 82.28 263.614 81.7214C263.725 81.1628 263.999 80.6495 264.402 80.2466C264.805 79.8436 265.318 79.569 265.877 79.4576C266.437 79.3461 267.016 79.4027 267.543 79.6203C268.07 79.8379 268.521 80.2066 268.838 80.6799C269.155 81.1532 269.324 81.7098 269.325 82.2793V82.2812C269.324 83.0442 269.02 83.7757 268.48 84.3154C267.94 84.8552 267.208 85.1591 266.444 85.1606ZM266.444 80.179C266.027 80.1786 265.62 80.3015 265.274 80.5322C264.928 80.7629 264.658 81.091 264.498 81.475C264.338 81.8589 264.296 82.2816 264.377 82.6895C264.458 83.0973 264.658 83.4721 264.952 83.7664C265.246 84.0606 265.621 84.2612 266.029 84.3427C266.438 84.4242 266.861 84.3829 267.246 84.2242C267.63 84.0654 267.959 83.7963 268.191 83.4508C268.422 83.1053 268.546 82.699 268.547 82.2832V82.2812C268.546 81.7242 268.325 81.1901 267.93 80.796C267.536 80.4019 267.002 80.18 266.444 80.179ZM321.704 79.6408C321.235 79.6412 320.777 79.5028 320.387 79.2431C319.997 78.9834 319.693 78.614 319.513 78.1818C319.334 77.7495 319.286 77.2737 319.377 76.8146C319.468 76.3555 319.694 75.9336 320.025 75.6024C320.356 75.2712 320.778 75.0454 321.238 74.9538C321.697 74.8621 322.174 74.9085 322.607 75.0873C323.04 75.266 323.41 75.5691 323.671 75.958C323.931 76.347 324.071 76.8044 324.071 77.2724V77.2744C324.071 77.9015 323.821 78.5028 323.377 78.9464C322.933 79.3901 322.332 79.6398 321.704 79.6408ZM321.704 75.687C321.389 75.6866 321.081 75.7794 320.819 75.9538C320.557 76.1281 320.353 76.376 320.232 76.6663C320.112 76.9566 320.08 77.2761 320.141 77.5844C320.202 77.8928 320.353 78.1762 320.575 78.3987C320.797 78.6213 321.081 78.773 321.389 78.8347C321.698 78.8964 322.018 78.8653 322.309 78.7454C322.6 78.6254 322.849 78.422 323.024 78.1609C323.199 77.8998 323.293 77.5926 323.293 77.2783V77.2744C323.292 76.8537 323.124 76.4505 322.826 76.1531C322.529 75.8556 322.125 75.688 321.704 75.687V75.687Z" fill="white"/>
<path d="M229.02 230.024L270.427 235.662V240.374L232.403 244.685L171.473 240.133V235.662L231.444 238.883L229.02 230.024Z" fill="black"/>
<path d="M157.561 168.978L171.474 235.662L231.445 238.883L214.653 164.903L157.561 168.978Z" fill="#EDEDFE"/>
<mask id="path-76-inside-1_851_489" fill="white">
<path d="M189.635 215.221C187.964 215.221 186.182 214.379 184.485 212.765C182.369 210.746 180.626 207.746 179.579 204.317C178.533 200.888 178.305 197.428 178.935 194.573C179.585 191.64 181.075 189.683 183.106 189.063C185.137 188.444 187.469 189.242 189.644 191.315C191.763 193.332 193.504 196.332 194.551 199.761C196.733 206.917 195.152 213.75 191.024 215.017C190.573 215.152 190.105 215.221 189.635 215.221ZM184.495 189.635C184.1 189.633 183.706 189.69 183.328 189.805C181.577 190.342 180.276 192.094 179.69 194.74C179.087 197.461 179.301 200.787 180.318 204.092C181.336 207.397 182.995 210.276 185.016 212.201C186.981 214.072 189.032 214.809 190.792 214.272C194.51 213.142 195.85 206.734 193.802 199.988C192.792 196.685 191.125 193.804 189.102 191.877C187.563 190.404 185.964 189.634 184.495 189.634L184.495 189.635Z"/>
</mask>
<path d="M189.635 215.221C187.964 215.221 186.182 214.379 184.485 212.765C182.369 210.746 180.626 207.746 179.579 204.317C178.533 200.888 178.305 197.428 178.935 194.573C179.585 191.64 181.075 189.683 183.106 189.063C185.137 188.444 187.469 189.242 189.644 191.315C191.763 193.332 193.504 196.332 194.551 199.761C196.733 206.917 195.152 213.75 191.024 215.017C190.573 215.152 190.105 215.221 189.635 215.221ZM184.495 189.635C184.1 189.633 183.706 189.69 183.328 189.805C181.577 190.342 180.276 192.094 179.69 194.74C179.087 197.461 179.301 200.787 180.318 204.092C181.336 207.397 182.995 210.276 185.016 212.201C186.981 214.072 189.032 214.809 190.792 214.272C194.51 213.142 195.85 206.734 193.802 199.988C192.792 196.685 191.125 193.804 189.102 191.877C187.563 190.404 185.964 189.634 184.495 189.634L184.495 189.635Z" fill="white"/>
<path d="M189.635 215.221L189.636 214.221H189.635V215.221ZM184.485 212.765L183.795 213.488L183.796 213.489L184.485 212.765ZM178.935 194.573L177.959 194.357L177.959 194.358L178.935 194.573ZM189.644 191.315L188.954 192.039L188.955 192.039L189.644 191.315ZM194.551 199.761L195.507 199.469L195.507 199.469L194.551 199.761ZM191.024 215.017L191.312 215.974L191.317 215.973L191.024 215.017ZM184.495 189.635L184.491 190.635L184.907 190.636L185.202 190.342L184.495 189.635ZM183.328 189.805L183.037 188.849L183.035 188.849L183.328 189.805ZM179.69 194.74L180.666 194.957L180.666 194.957L179.69 194.74ZM185.016 212.201L184.327 212.925L184.327 212.926L185.016 212.201ZM190.792 214.272L190.501 213.316L190.501 213.316L190.792 214.272ZM193.802 199.988L194.758 199.698L194.758 199.696L193.802 199.988ZM189.102 191.877L188.41 192.599L188.412 192.601L189.102 191.877ZM184.495 189.634V188.634H184.081L183.788 188.927L184.495 189.634ZM189.635 214.221C188.304 214.221 186.757 213.546 185.175 212.04L183.796 213.489C185.607 215.213 187.623 216.221 189.635 216.221V214.221ZM185.175 212.041C183.208 210.165 181.543 207.327 180.536 204.025L178.623 204.609C179.708 208.166 181.529 211.327 183.795 213.488L185.175 212.041ZM180.536 204.025C179.528 200.724 179.326 197.441 179.912 194.789L177.959 194.358C177.284 197.414 177.537 201.052 178.623 204.609L180.536 204.025ZM179.912 194.79C180.519 192.049 181.844 190.494 183.398 190.02L182.814 188.107C180.306 188.872 178.651 191.23 177.959 194.357L179.912 194.79ZM183.398 190.02C184.95 189.546 186.922 190.101 188.954 192.039L190.334 190.591C188.017 188.383 185.323 187.341 182.814 188.107L183.398 190.02ZM188.955 192.039C190.923 193.913 192.586 196.751 193.594 200.053L195.507 199.469C194.422 195.912 192.603 192.751 190.334 190.591L188.955 192.039ZM193.594 200.053C194.643 203.493 194.772 206.81 194.179 209.372C193.58 211.964 192.308 213.576 190.73 214.061L191.317 215.973C193.867 215.19 195.45 212.753 196.128 209.822C196.813 206.862 196.64 203.185 195.507 199.469L193.594 200.053ZM190.735 214.059C190.379 214.167 190.008 214.221 189.636 214.221L189.633 216.221C190.202 216.221 190.768 216.138 191.312 215.974L190.735 214.059ZM184.499 188.635C184.004 188.632 183.511 188.705 183.037 188.849L183.619 190.762C183.901 190.676 184.195 190.633 184.491 190.635L184.499 188.635ZM183.035 188.849C180.793 189.536 179.337 191.707 178.714 194.524L180.666 194.957C181.214 192.482 182.361 191.148 183.621 190.762L183.035 188.849ZM178.714 194.524C178.066 197.447 178.305 200.952 179.363 204.386L181.274 203.797C180.297 200.622 180.108 197.474 180.666 194.957L178.714 194.524ZM179.363 204.386C180.418 207.813 182.154 210.855 184.327 212.925L185.706 211.477C183.837 209.697 182.254 206.98 181.274 203.797L179.363 204.386ZM184.327 212.926C186.416 214.915 188.829 215.916 191.084 215.229L190.501 213.316C189.234 213.702 187.546 213.23 185.706 211.477L184.327 212.926ZM191.083 215.229C193.453 214.508 194.862 212.181 195.438 209.442C196.022 206.661 195.822 203.2 194.758 199.698L192.845 200.279C193.83 203.522 193.984 206.638 193.481 209.03C192.969 211.464 191.849 212.906 190.501 213.316L191.083 215.229ZM194.758 199.696C193.71 196.268 191.966 193.224 189.791 191.153L188.412 192.601C190.284 194.384 191.874 197.103 192.845 200.281L194.758 199.696ZM189.793 191.154C188.147 189.579 186.313 188.634 184.495 188.634V190.634C185.614 190.634 186.979 191.229 188.41 192.599L189.793 191.154ZM183.788 188.927L183.788 188.927L185.202 190.342L185.202 190.342L183.788 188.927Z" fill="black" mask="url(#path-76-inside-1_851_489)"/>
<path d="M373.734 83.8705C373.734 83.8705 426.514 124.965 434.408 140.215C442.303 155.465 427.131 92.7107 455.632 83.8705C418.622 63.2136 403.36 46.6581 403.36 46.6581C403.36 46.6581 401.467 89.5477 373.734 83.8705Z" fill="#C3C3E1"/>
<path d="M452.053 209.959C452.053 209.959 450.349 250.047 430.594 261.963C460.552 270.947 476.868 290.871 476.868 290.871L508.799 222.839C508.799 222.839 450.394 227.857 452.053 209.959Z" fill="#C3C3E1"/>
<path d="M452.053 209.959C452.053 209.959 452.467 236.449 464.461 240.69C449.158 252.779 430.594 261.963 430.594 261.963C430.594 261.963 449.158 237.772 452.053 209.959Z" fill="#D5D5EC"/>
<path d="M129.798 103.253C129.798 103.253 128.024 128.95 161.739 117.135C127.432 182.265 123.291 188.615 123.291 188.615C123.291 188.615 96.6802 157.312 87.5117 153.186C104.075 145.941 129.798 103.253 129.798 103.253Z" fill="#C3C3E1"/>
<path d="M160.146 117.681L130.979 135.567C130.979 135.567 129.205 183.602 123.289 188.622C129.798 186.555 160.146 117.681 160.146 117.681Z" fill="#D5D5EC"/>
<path d="M471.469 351.049H389.715V431.145H471.469V351.049Z" fill="#EDEDFE"/>
<path opacity="0.49" d="M471.469 351.049V431.145H389.715V419.294C395.52 414.936 405.852 408.963 423.897 402.625C429.472 400.671 433.935 397.916 437.503 394.659C442.366 390.228 445.57 384.861 447.618 379.324C451.521 368.832 451.336 357.705 450.698 351.055L471.469 351.049Z" fill="white"/>
<path d="M477.099 370.066H384.867V371.792H477.099V370.066Z" fill="#889DBA"/>
<path d="M477.099 390.612H384.867V392.338H477.099V390.612Z" fill="#889DBA"/>
<path d="M477.099 400.886H384.867V402.612H477.099V400.886Z" fill="#889DBA"/>
<path d="M477.099 411.161H384.867V412.886H477.099V411.161Z" fill="#889DBA"/>
<path d="M477.099 421.435H384.867V423.16H477.099V421.435Z" fill="#889DBA"/>
<path d="M391.984 383.962C391.984 383.962 437.025 392.705 453.111 400.072C456.635 383.962 469.198 377.517 469.198 377.517L391.984 383.962ZM438.42 363.083C438.42 363.083 415.899 367.455 407.857 371.139C406.094 363.083 399.814 359.86 399.814 359.86L438.42 363.083Z" fill="#C3C3E1"/>
<path d="M235.381 331.092H153.627V411.188H235.381V331.092Z" fill="#EDEDFE"/>
<path opacity="0.49" d="M235.379 331.092V411.188H153.625V399.324C159.43 394.968 169.771 388.994 187.807 382.656C193.382 380.702 197.845 377.947 201.413 374.69C206.276 370.259 209.48 364.892 211.529 359.355C215.431 348.863 215.246 337.736 214.608 331.088L235.379 331.092Z" fill="white"/>
<path d="M241.009 350.107H148.777V351.832H241.009V350.107Z" fill="#889DBA"/>
<path d="M241.009 370.655H148.777V372.38H241.009V370.655Z" fill="#889DBA"/>
<path d="M241.009 380.929H148.777V382.654H241.009V380.929Z" fill="#889DBA"/>
<path d="M241.009 391.203H148.777V392.928H241.009V391.203Z" fill="#889DBA"/>
<path d="M241.009 401.477H148.777V403.203H241.009V401.477Z" fill="#889DBA"/>
<path d="M155.895 364.002C155.895 364.002 200.935 372.745 217.022 380.115C220.545 364.002 233.108 357.558 233.108 357.558L155.895 364.002ZM202.33 343.124C202.33 343.124 179.811 347.497 171.767 351.179C170.004 343.124 163.725 339.91 163.725 339.91L202.33 343.124Z" fill="#C3C3E1"/>
<path d="M524.772 346.25H477.455V426.346H524.772V346.25Z" fill="#EDEDFE"/>
<path opacity="0.49" d="M477.455 346.25V426.346H524.772V414.483C521.412 410.127 515.434 404.154 504.99 397.815C501.76 395.86 499.179 393.105 497.115 389.849C494.294 385.415 492.446 380.051 491.255 374.512C488.997 364.02 489.104 352.893 489.474 346.244L477.455 346.25Z" fill="white"/>
<path d="M527.576 365.267H474.195V366.992H527.576V365.267Z" fill="#889DBA"/>
<path d="M527.576 385.813H474.195V387.539H527.576V385.813Z" fill="#889DBA"/>
<path d="M527.576 396.088H474.195V397.813H527.576V396.088Z" fill="#889DBA"/>
<path d="M527.576 406.362H474.195V408.087H527.576V406.362Z" fill="#889DBA"/>
<path d="M527.576 416.636H474.195V418.361H527.576V416.636Z" fill="#889DBA"/>
<path d="M523.456 379.163C523.456 379.163 497.389 387.906 488.078 395.273C486.039 379.163 478.768 372.718 478.768 372.718L523.456 379.163Z" fill="#C3C3E1"/>
<path d="M311.086 244.685L327.279 250.675L342.572 233.426L323.641 231.807L311.086 244.685Z" fill="#D6D6D6"/>
<path d="M293.636 231.807L274.926 247.44L314.866 255.707L331.059 231.807H293.636Z" fill="white"/>
<path d="M350.103 211.265L308.748 224.261L281.76 221.735L272.228 229.262C270.734 230.441 272.919 236.161 274.631 236.161L278.455 231.498L275.343 236.41C275.843 237.337 277.094 239.359 278.086 239.713L281.432 240.898C281.888 241.059 282.368 241.141 282.852 241.141L286.799 239.524L287.252 241.625C287.84 241.867 288.475 241.974 289.11 241.938C289.745 241.902 290.364 241.724 290.921 241.417L294.355 239.524C294.355 239.524 308.287 242.903 311.268 240.243C314.248 237.583 349.229 237.008 356.246 236.83C363.263 236.651 373.698 233.595 375.311 229.641C376.92 225.716 370.187 208.852 350.885 211.084C350.619 211.119 350.357 211.18 350.103 211.265Z" fill="#F9BF9D"/>
<path d="M306.499 222.306C306.499 222.306 307.127 225.399 311.446 225.518C315.765 225.636 350.806 213.425 357.144 214.199C364.521 215.096 372.978 222.524 371.898 231.387C370.818 240.251 378.495 233.665 378.495 233.665L377.415 216.979L355.283 204.478L327.639 209.588L306.499 222.306ZM286.137 241.092C286.137 241.092 287.216 243.367 290.695 240.492C294.173 237.616 294.233 236.995 297.533 238.883C300.832 240.772 311.928 239.876 311.928 239.876C311.928 239.876 314.798 246.243 307.481 245.763C300.165 245.283 287.211 243.663 287.211 243.663L286.137 241.092Z" fill="#E78952"/>
<path d="M278.57 239.894C278.57 239.894 280.38 241.088 284.097 239.116C287.815 237.144 289.581 235.087 288.295 237.809C287.009 240.531 284.817 243.667 284.817 243.667L278.57 239.894Z" fill="#E78952"/>
<path d="M274.503 237.805C274.503 237.805 277.829 238.467 279.78 236.493C284.784 231.442 284.613 233.243 280.86 237.224C279.03 239.167 278.57 242.409 278.57 242.409L274.503 237.805ZM271.734 234.504C271.734 234.504 272.343 236.181 275.82 232.825C279.296 229.47 280.018 230.023 280.018 230.023L274.501 237.795L271.734 234.504Z" fill="#E78952"/>
</g>
<defs>
<clipPath id="clip0_851_489">
<rect width="528" height="452" fill="white"/>
</clipPath>
</defs>
</svg>
