<svg width="607" height="540" viewBox="0 0 607 540" fill="none" xmlns="http://www.w3.org/2000/svg">
<g clip-path="url(#clip0_851_150)">
<path opacity="0.7" d="M410.521 141.399C368.8 174.002 311.297 150.377 292.17 127.562C235.705 60.1966 452.242 108.797 410.521 141.399Z" fill="#F0F0F0"/>
<path opacity="0.7" d="M475.269 347.814C447.9 394.753 393.985 434.889 334.337 445.135C324.67 446.813 314.877 447.662 305.066 447.673C302.732 447.673 300.412 447.673 298.079 447.511C258.381 445.837 218.036 429.61 182.695 392.526C128.146 335.245 111.959 279.247 121.9 231.052C124.833 217.047 129.916 203.581 136.967 191.133C198.76 80.9999 269.496 149.85 355.933 161.892C415.554 170.208 483.214 193.927 497.674 247.954C504.58 273.766 499.347 306.517 475.269 347.814Z" fill="#EDEDFE"/>
<path d="M355.715 166.522L367.504 165.928L367.774 158.449C371.124 157.525 374.288 156.022 377.122 154.008L383.07 158.53L390.988 149.769L385.89 144.369C387.608 141.343 388.786 138.04 389.37 134.608L396.775 133.596L396.182 121.797L388.709 121.527C387.802 118.13 386.299 114.921 384.271 112.05L388.79 106.096L380.049 98.1855L374.572 103.275C371.543 101.589 368.243 100.446 364.82 99.9L363.808 92.502L352.019 93.096L351.749 100.561C348.4 101.489 345.237 102.992 342.401 105.003L336.439 100.494L328.535 109.242L333.62 114.642C331.908 117.67 330.735 120.972 330.153 124.402L322.748 125.428L323.342 137.227L330.801 137.497C331.73 140.849 333.232 144.014 335.239 146.853L330.733 152.806L339.474 160.717L344.951 155.628C347.97 157.348 351.265 158.527 354.69 159.111L355.715 166.522ZM338.49 130.545C338.284 126.335 339.33 122.159 341.496 118.544C343.662 114.929 346.849 112.037 350.657 110.235C354.464 108.433 358.719 107.801 362.885 108.419C367.051 109.037 370.941 110.877 374.062 113.706C377.183 116.536 379.396 120.228 380.422 124.316C381.447 128.404 381.238 132.705 379.821 136.674C378.405 140.644 375.844 144.104 372.464 146.617C369.083 149.131 365.033 150.584 360.827 150.795C358.032 150.935 355.236 150.522 352.6 149.58C349.964 148.638 347.539 147.185 345.464 145.304C343.39 143.423 341.706 141.152 340.509 138.619C339.312 136.087 338.626 133.343 338.49 130.545Z" fill="#F7AE38"/>
<path d="M351.574 98.0909L351.763 92.7719L360.652 92.3264L360.679 92.8529L352.276 93.2714L352.1 98.1179L351.574 98.0909Z" fill="#1A120E"/>
<path d="M322.788 125.685L322.707 125.172L329.91 124.173C330.296 121.559 331.102 119.024 332.298 116.667L332.756 116.91C331.586 119.273 330.816 121.814 330.477 124.43V124.632L322.788 125.685ZM347.001 146.867L347.297 146.435C361.015 156.06 372.926 145.895 373.048 145.787L373.398 146.192C373.277 146.286 361.042 156.722 347.001 146.867ZM372.036 156.722C373.736 155.84 375.384 154.862 376.973 153.792L377.135 153.684L379.32 155.345L378.996 155.763L377.108 154.332C375.55 155.374 373.933 156.325 372.265 157.181L372.036 156.722Z" fill="#1A120E"/>
<path d="M324.92 140.076L324.312 127.804L331.758 126.778C332.321 123.453 333.467 120.254 335.144 117.328L330.018 111.82L338.247 102.721L344.236 107.257C347.009 105.319 350.086 103.859 353.341 102.937L353.61 95.4179L365.885 94.7969L366.91 102.262C370.235 102.811 373.433 103.955 376.353 105.637L381.843 100.521L390.948 108.756L386.469 114.75C388.516 117.465 389.985 120.571 390.786 123.876L398.299 124.146L398.906 136.417L391.46 137.443C390.92 140.773 389.777 143.975 388.088 146.893L393.2 152.401L384.972 161.514L379.037 156.951C376.31 158.967 373.218 160.434 369.932 161.271L369.595 168.75L357.32 169.371L356.295 161.919C352.961 161.397 349.757 160.247 346.852 158.53L341.349 163.66L332.244 155.412L336.776 149.431C334.683 146.75 333.209 143.638 332.46 140.319L324.92 140.076ZM324.92 128.25L325.486 139.576L332.918 139.846V140.049C333.645 143.429 335.146 146.595 337.302 149.296L337.437 149.445L332.945 155.398L341.335 162.985L346.731 157.923L346.893 158.031C349.847 159.809 353.126 160.979 356.537 161.473H356.74L357.751 168.844L369.082 168.277L369.352 160.839H369.541C372.891 160.015 376.04 158.518 378.794 156.438L378.943 156.303L384.878 160.812L392.472 152.401L387.4 147.001L387.508 146.826C389.26 143.858 390.427 140.581 390.948 137.173V136.971L398.313 135.958L397.746 124.632L390.327 124.362V124.173C389.547 120.807 388.052 117.648 385.943 114.912L385.781 114.75L390.273 108.81L381.883 101.209L376.42 106.285L376.258 106.164C372.913 103.774 366.668 102.735 366.614 102.721H366.425L365.413 95.3504L354.082 95.9309L353.813 103.356H353.637C350.309 104.253 347.17 105.744 344.37 107.757L344.209 107.865L338.287 103.369L330.693 111.78L335.765 117.18L335.657 117.342C333.932 120.329 332.762 123.604 332.204 127.008V127.197L324.92 128.25Z" fill="#F7AE38"/>
<path d="M341.267 139.414C339.816 135.396 339.588 131.038 340.612 126.89C341.636 122.743 343.866 118.992 347.02 116.113C350.174 113.234 354.11 111.355 358.331 110.715C362.552 110.075 366.867 110.702 370.732 112.517C374.597 114.332 377.837 117.253 380.042 120.911C382.248 124.569 383.32 128.8 383.123 133.068C382.926 137.336 381.469 141.449 378.936 144.888C376.403 148.327 372.908 150.937 368.892 152.388C363.51 154.333 357.576 154.058 352.396 151.626C347.216 149.193 343.213 144.8 341.267 139.414ZM381.356 124.916C379.937 120.998 377.39 117.589 374.036 115.12C370.681 112.651 366.671 111.233 362.512 111.045C358.352 110.856 354.23 111.906 350.667 114.062C347.104 116.218 344.259 119.383 342.493 123.156C340.727 126.93 340.118 131.143 340.743 135.263C341.369 139.382 343.2 143.224 346.007 146.302C348.814 149.38 352.469 151.556 356.512 152.555C360.554 153.555 364.801 153.332 368.717 151.916C371.323 150.978 373.719 149.536 375.767 147.671C377.816 145.807 379.477 143.556 380.656 141.049C381.834 138.541 382.508 135.826 382.637 133.057C382.767 130.289 382.35 127.522 381.41 124.916H381.356ZM294.056 101.979H250.096C247.234 101.979 244.489 103.117 242.465 105.142C240.442 107.168 239.305 109.915 239.305 112.779V168.899C239.305 171.763 240.442 174.51 242.465 176.535C244.489 178.561 247.234 179.699 250.096 179.699H294.056C296.918 179.699 299.663 178.561 301.687 176.535C303.71 174.51 304.847 171.763 304.847 168.899V112.82C304.853 111.398 304.577 109.989 304.037 108.674C303.497 107.359 302.703 106.164 301.701 105.157C300.698 104.149 299.507 103.35 298.195 102.805C296.883 102.26 295.477 101.979 294.056 101.979ZM303.593 168.939C303.589 171.468 302.583 173.892 300.795 175.679C299.007 177.466 296.583 178.47 294.056 178.47H250.096C247.569 178.47 245.145 177.466 243.357 175.679C241.569 173.892 240.563 171.468 240.559 168.939V112.82C240.563 110.29 241.569 107.866 243.357 106.079C245.145 104.292 247.569 103.289 250.096 103.289H294.056C296.583 103.289 299.007 104.292 300.795 106.079C302.583 107.866 303.589 110.29 303.593 112.82V168.939Z" fill="#F14146"/>
<path d="M253.318 110.16L248.076 115.414L248.992 116.33L254.235 111.076L253.318 110.16Z" fill="#1A120E"/>
<path d="M248.992 110.153L248.076 111.069L253.322 116.319L254.238 115.403L248.992 110.153Z" fill="#1A120E"/>
<path d="M277.467 157.289H273.542L266.527 128.399H270.493L277.467 157.289Z" fill="#F14146"/>
<path d="M451.878 317.669H279.733C274.816 317.665 270.102 315.708 266.627 312.227C263.151 308.746 261.199 304.027 261.199 299.106V164.552C261.199 160.347 262.867 156.314 265.837 153.34C268.806 150.365 272.834 148.693 277.035 148.689H454.576C456.657 148.689 458.717 149.099 460.639 149.897C462.561 150.694 464.308 151.863 465.778 153.336C467.249 154.809 468.415 156.558 469.21 158.482C470.005 160.407 470.414 162.469 470.412 164.552V299.106C470.412 304.027 468.46 308.746 464.984 312.227C461.509 315.708 456.795 317.665 451.878 317.669Z" fill="#F6FAFF"/>
<path d="M451.878 318.6H279.733C274.555 318.593 269.591 316.531 265.93 312.867C262.268 309.202 260.208 304.234 260.201 299.052V164.551C260.208 160.085 261.984 155.804 265.14 152.646C268.295 149.488 272.573 147.711 277.035 147.703H454.576C459.039 147.711 463.316 149.488 466.472 152.646C469.627 155.804 471.403 160.085 471.41 164.551V299.106C471.389 304.279 469.322 309.233 465.663 312.886C462.003 316.538 457.047 318.593 451.878 318.6ZM277.035 149.688C273.1 149.688 269.326 151.253 266.543 154.037C263.761 156.822 262.198 160.6 262.198 164.538V299.092C262.198 303.747 264.045 308.211 267.334 311.502C270.622 314.793 275.082 316.642 279.733 316.642H451.878C456.529 316.642 460.989 314.793 464.278 311.502C467.566 308.211 469.414 303.747 469.414 299.092V164.551C469.414 160.613 467.851 156.836 465.068 154.051C462.285 151.266 458.511 149.701 454.576 149.701L277.035 149.688Z" fill="#C3C3E1"/>
<path d="M438.078 154.102C437.795 154.102 437.519 154.186 437.284 154.344C437.049 154.501 436.865 154.724 436.757 154.986C436.649 155.247 436.621 155.535 436.676 155.813C436.731 156.09 436.867 156.345 437.067 156.545C437.267 156.745 437.522 156.882 437.799 156.937C438.077 156.992 438.364 156.964 438.625 156.855C438.887 156.747 439.11 156.564 439.267 156.328C439.424 156.093 439.508 155.816 439.508 155.533C439.51 155.345 439.474 155.158 439.403 154.984C439.332 154.809 439.226 154.651 439.093 154.517C438.96 154.384 438.802 154.279 438.628 154.208C438.453 154.136 438.267 154.101 438.078 154.102Z" fill="url(#paint0_linear_851_150)"/>
<path d="M444.106 154.102C443.824 154.105 443.548 154.191 443.315 154.35C443.082 154.509 442.901 154.733 442.794 154.995C442.688 155.257 442.662 155.544 442.719 155.821C442.775 156.097 442.913 156.351 443.113 156.55C443.313 156.749 443.568 156.884 443.845 156.938C444.122 156.992 444.409 156.963 444.67 156.854C444.93 156.745 445.152 156.562 445.309 156.327C445.466 156.092 445.549 155.816 445.549 155.533C445.549 155.344 445.512 155.157 445.439 154.983C445.366 154.808 445.26 154.65 445.126 154.517C444.991 154.384 444.832 154.278 444.657 154.207C444.482 154.136 444.295 154.101 444.106 154.102Z" fill="url(#paint1_linear_851_150)"/>
<path d="M450.151 154.103C449.868 154.103 449.591 154.186 449.356 154.344C449.121 154.501 448.938 154.724 448.83 154.986C448.721 155.247 448.693 155.535 448.748 155.813C448.803 156.09 448.94 156.345 449.139 156.545C449.339 156.746 449.594 156.882 449.872 156.937C450.149 156.992 450.436 156.964 450.698 156.856C450.959 156.747 451.182 156.564 451.339 156.329C451.496 156.093 451.58 155.817 451.58 155.534C451.58 155.154 451.43 154.79 451.162 154.522C450.893 154.253 450.53 154.103 450.151 154.103Z" fill="url(#paint2_linear_851_150)"/>
<path d="M470.358 164.552H315.506V166.523H470.358V164.552Z" fill="black"/>
<path d="M300.869 303.575L300.801 300.564H277.654L277.722 303.575H300.869Z" fill="#1A120E"/>
<path d="M317.271 294.543L317.203 291.546H277.344L277.411 294.543H317.271Z" fill="white"/>
<path d="M310.583 285.525L310.529 282.514H276.928L276.982 285.525H310.583Z" fill="#F7AE38"/>
<path d="M306.967 303.575L306.899 300.564H302.354L302.407 303.575H306.967Z" fill="#1A120E"/>
<path d="M352.175 303.577L352.108 300.566H328.961L329.015 303.577H352.175Z" fill="white"/>
<path d="M360.742 294.393L360.674 291.396H320.814L320.868 294.393H360.742Z" fill="white"/>
<path d="M357.524 285.525L357.456 282.514H323.869L323.923 285.525H357.524Z" fill="white"/>
<path d="M371.258 286.256L371.204 283.245H366.645L366.712 286.256H371.258Z" fill="white"/>
<path d="M300.654 276.817L300.586 273.82H277.439L277.507 276.817H300.654Z" fill="white"/>
<path d="M306.75 276.817L306.682 273.82H302.137L302.191 276.817H306.75Z" fill="white"/>
<path d="M344.021 276.817L343.967 273.82H320.82L320.888 276.817H344.021Z" fill="#F7AE38"/>
<path d="M350.119 276.817L350.065 273.82H345.506L345.573 276.817H350.119Z" fill="#F7AE38"/>
<path d="M396.736 268.137L396.668 265.14H373.521L373.589 268.137H396.736Z" fill="#1A120E"/>
<path d="M413.138 259.119L413.084 256.122H373.211L373.278 259.119H413.138Z" fill="white"/>
<path d="M406.446 250.087L406.392 247.09H372.791L372.858 250.087H406.446Z" fill="white"/>
<path d="M402.834 268.137L402.766 265.14H398.221L398.275 268.137H402.834Z" fill="#1A120E"/>
<path d="M440.115 268.137L440.047 265.14H416.9L416.968 268.137H440.115Z" fill="white"/>
<path d="M456.517 259.119L456.45 256.122H416.59L416.657 259.119H456.517Z" fill="white"/>
<path d="M449.825 250.088L449.771 247.091H416.17L416.224 250.088H449.825Z" fill="white"/>
<path d="M446.213 268.137L446.145 265.14H441.6L441.654 268.137H446.213Z" fill="white"/>
<path d="M396.519 241.393L396.465 238.396H373.305L373.372 241.393H396.519Z" fill="white"/>
<path d="M412.935 232.376L412.867 229.365H372.994L373.062 232.376H412.935Z" fill="white"/>
<path d="M406.246 223.344L406.179 220.347H372.578L372.646 223.344H406.246Z" fill="white"/>
<path d="M402.617 241.393L402.563 238.396H398.004L398.071 241.393H402.617Z" fill="#1A120E"/>
<path d="M439.9 241.393L439.832 238.396H416.686L416.753 241.393H439.9Z" fill="white"/>
<path d="M456.3 232.376L456.246 229.365H416.373L416.441 232.376H456.3Z" fill="#F7AE38"/>
<path d="M449.612 223.344L449.558 220.347H415.957L416.025 223.344H449.612Z" fill="white"/>
<path d="M445.998 241.393L445.931 238.396H441.385L441.439 241.393H445.998Z" fill="#EDEDFE"/>
<path d="M396.302 214.65L396.248 211.653H373.102L373.156 214.65H396.302Z" fill="white"/>
<path d="M412.718 205.618L412.651 202.621H372.791L372.845 205.618H412.718Z" fill="white"/>
<path d="M406.03 196.601L405.962 193.604H372.361L372.429 196.601H406.03Z" fill="white"/>
<path d="M402.402 214.65L402.348 211.653H397.789L397.857 214.65H402.402Z" fill="white"/>
<path d="M439.683 214.65L439.629 211.653H416.469L416.536 214.65H439.683Z" fill="white"/>
<path d="M456.085 205.618L456.031 202.621H416.158L416.226 205.618H456.085Z" fill="white"/>
<path d="M449.41 196.601L449.343 193.604H415.742L415.81 196.601H449.41Z" fill="white"/>
<path d="M445.781 214.65L445.714 211.653H441.168L441.235 214.65H445.781Z" fill="white"/>
<path d="M410.483 286.242L410.429 283.245H376.828L376.896 286.242H410.483Z" fill="white"/>
<path d="M449.825 286.242L449.771 283.245H416.17L416.224 286.242H449.825Z" fill="white"/>
<path d="M396.519 295.042L396.465 292.045H373.305L373.372 295.042H396.519Z" fill="white"/>
<path d="M412.935 286.011L412.867 283.014H372.994L373.062 286.011H412.935Z" fill="white"/>
<path d="M406.246 276.993L406.179 273.996H372.578L372.646 276.993H406.246Z" fill="white"/>
<path d="M402.617 295.042L402.563 292.045H398.004L398.071 295.042H402.617Z" fill="#1A120E"/>
<path d="M439.9 295.042L439.832 292.045H416.686L416.753 295.042H439.9Z" fill="white"/>
<path d="M456.3 286.011L456.246 283.014H416.373L416.441 286.011H456.3Z" fill="#F7AE38"/>
<path d="M449.612 276.993L449.558 273.996H415.957L416.025 276.993H449.612Z" fill="white"/>
<path d="M445.998 295.042L445.931 292.045H441.385L441.439 295.042H445.998Z" fill="#EDEDFE"/>
<path d="M396.088 187.906L396.034 184.909H372.887L372.954 187.906H396.088Z" fill="white"/>
<path d="M402.197 187.906L402.13 184.909H397.57L397.638 187.906H402.197Z" fill="white"/>
<path d="M439.468 187.906L439.415 184.909H416.268L416.322 187.906H439.468Z" fill="white"/>
<path d="M445.564 187.906L445.497 184.909H440.951L441.019 187.906H445.564Z" fill="white"/>
<path d="M362.756 180.455H276.805V266.477H362.756V180.455Z" fill="#EDEDFE"/>
<path d="M355.444 260.577L330.287 210.641L315.301 242.163L304.766 225.491L284.209 260.375L355.444 260.577Z" fill="#3A81E1"/>
<path d="M308.641 204.809C308.649 205.912 308.984 206.989 309.604 207.902C310.224 208.815 311.101 209.523 312.124 209.937C313.146 210.35 314.268 210.451 315.348 210.226C316.428 210.001 317.417 209.46 318.189 208.672C318.961 207.884 319.482 206.884 319.686 205.799C319.89 204.714 319.768 203.593 319.335 202.578C318.902 201.563 318.177 200.699 317.253 200.097C316.329 199.494 315.247 199.179 314.144 199.193C313.415 199.2 312.693 199.35 312.022 199.637C311.35 199.923 310.741 200.338 310.23 200.86C309.719 201.381 309.316 201.998 309.043 202.676C308.77 203.353 308.634 204.078 308.641 204.809Z" fill="white"/>
<path d="M283.08 185.902L282.297 186.684L356.467 261.044L357.25 260.262L283.08 185.902Z" fill="white"/>
<path d="M356.506 185.935L282.271 260.232L283.054 261.014L357.289 186.718L356.506 185.935Z" fill="white"/>
<path d="M284.183 261.698C286.004 261.698 286.247 261.306 286.247 260.874C286.247 260.442 286.004 260.064 284.183 260.064C282.362 260.064 282.106 260.469 282.106 260.874C282.106 261.279 282.349 261.698 284.183 261.698ZM290.253 261.698C292.074 261.698 292.33 261.306 292.33 260.874C292.33 260.442 292.087 260.064 290.253 260.064C288.419 260.064 288.176 260.469 288.176 260.874C288.176 261.279 288.432 261.698 290.253 261.698ZM296.336 261.698C298.157 261.698 298.414 261.306 298.414 260.874C298.414 260.442 298.157 260.064 296.336 260.064C294.515 260.064 294.259 260.469 294.259 260.874C294.259 261.279 294.515 261.698 296.336 261.698ZM302.42 261.698C304.241 261.698 304.484 261.306 304.484 260.874C304.484 260.442 304.241 260.064 302.42 260.064C300.599 260.064 300.343 260.469 300.343 260.874C300.343 261.279 300.585 261.698 302.42 261.698ZM308.49 261.698C310.311 261.698 310.567 261.306 310.567 260.874C310.567 260.442 310.324 260.064 308.49 260.064C306.655 260.064 306.413 260.469 306.413 260.874C306.413 261.279 306.669 261.698 308.49 261.698ZM314.573 261.698C316.394 261.698 316.651 261.306 316.651 260.874C316.651 260.442 316.394 260.064 314.573 260.064C312.752 260.064 312.496 260.469 312.496 260.874C312.496 261.279 312.752 261.698 314.573 261.698ZM320.643 261.698C322.478 261.698 322.721 261.306 322.721 260.874C322.721 260.442 322.478 260.064 320.643 260.064C318.809 260.064 318.58 260.469 318.58 260.874C318.58 261.279 318.822 261.698 320.643 261.698ZM326.727 261.698C328.548 261.698 328.804 261.306 328.804 260.874C328.804 260.442 328.561 260.064 326.727 260.064C324.892 260.064 324.65 260.469 324.65 260.874C324.65 261.279 324.906 261.698 326.727 261.698ZM332.81 261.698C334.631 261.698 334.888 261.306 334.888 260.874C334.888 260.442 334.631 260.064 332.81 260.064C330.989 260.064 330.733 260.469 330.733 260.874C330.733 261.279 330.976 261.698 332.81 261.698ZM338.88 261.698C340.715 261.698 340.958 261.306 340.958 260.874C340.958 260.442 340.715 260.064 338.88 260.064C337.046 260.064 336.803 260.469 336.803 260.874C336.803 261.279 337.059 261.698 338.88 261.698ZM344.964 261.698C346.785 261.698 347.041 261.306 347.041 260.874C347.041 260.442 346.798 260.064 344.964 260.064C343.129 260.064 342.887 260.469 342.887 260.874C342.887 261.279 343.143 261.698 344.964 261.698ZM351.047 261.698C352.868 261.698 353.125 261.306 353.111 260.874C353.098 260.442 352.868 260.064 351.047 260.064C349.226 260.064 348.97 260.469 348.97 260.874C348.97 261.279 349.213 261.698 351.047 261.698ZM356.106 261.995L356.51 261.684H357.724V260.55L358.291 259.983H357.711C357.63 258.714 357.266 258.525 356.902 258.525C356.537 258.525 356.173 258.714 356.106 260.064C355.499 260.145 355.054 260.347 355.054 260.82C355.054 261.292 355.499 261.495 356.092 261.59L356.106 261.995ZM356.888 256.649C357.293 256.649 357.711 256.392 357.711 254.57C357.711 252.747 357.293 252.491 356.888 252.491C356.483 252.491 356.079 252.747 356.079 254.57C356.079 256.392 356.47 256.649 356.888 256.649ZM356.888 250.56C357.293 250.56 357.711 250.317 357.711 248.481C357.711 246.645 357.293 246.402 356.888 246.402C356.483 246.402 356.079 246.659 356.079 248.481C356.079 250.303 356.47 250.56 356.888 250.56ZM356.888 244.471C357.293 244.471 357.711 244.229 357.711 242.406C357.711 240.583 357.293 240.327 356.888 240.327C356.483 240.327 356.079 240.57 356.079 242.406C356.079 244.242 356.47 244.471 356.888 244.471ZM356.888 238.396C357.293 238.396 357.711 238.14 357.711 236.318C357.711 234.495 357.293 234.238 356.888 234.238C356.483 234.238 356.079 234.495 356.079 236.318C356.079 238.14 356.47 238.396 356.888 238.396ZM356.888 232.308C357.293 232.308 357.711 232.065 357.711 230.229C357.711 228.393 357.293 228.15 356.888 228.15C356.483 228.15 356.079 228.406 356.079 230.229C356.079 232.051 356.47 232.308 356.888 232.308ZM356.888 226.233C357.293 226.233 357.711 225.976 357.711 224.154C357.711 222.331 357.293 222.075 356.888 222.075C356.483 222.075 356.079 222.318 356.079 224.154C356.079 225.99 356.47 226.233 356.888 226.233ZM356.888 220.145C357.293 220.145 357.711 219.902 357.711 218.066C357.711 216.229 357.293 215.987 356.888 215.987C356.483 215.987 356.079 216.243 356.079 218.066C356.079 219.888 356.47 220.145 356.888 220.145ZM356.888 214.056C357.293 214.056 357.711 213.813 357.711 211.977C357.711 210.141 357.293 209.912 356.888 209.912C356.483 209.912 356.079 210.155 356.079 211.977C356.079 213.8 356.47 214.056 356.888 214.056ZM356.888 207.981C357.293 207.981 357.711 207.725 357.711 205.902C357.711 204.08 357.293 203.823 356.888 203.823C356.483 203.823 356.079 204.08 356.079 205.902C356.079 207.725 356.47 207.981 356.888 207.981ZM356.888 201.893C357.293 201.893 357.711 201.649 357.711 199.813C357.711 197.977 357.293 197.735 356.888 197.735C356.483 197.735 356.079 197.991 356.079 199.813C356.079 201.636 356.47 201.893 356.888 201.893ZM356.888 195.75C357.293 195.75 357.711 195.507 357.711 193.671C357.711 191.835 357.293 191.605 356.888 191.605C356.483 191.605 356.079 191.849 356.079 193.671C356.079 195.494 356.47 195.75 356.888 195.75ZM351.884 187.407C353.705 187.407 353.948 186.989 353.948 186.584C353.948 186.179 353.705 185.76 351.884 185.76C350.063 185.76 349.806 186.152 349.806 186.584C349.806 187.016 350.049 187.407 351.884 187.407ZM345.8 187.407C347.635 187.407 347.878 186.989 347.878 186.584C347.878 186.179 347.621 185.76 345.8 185.76C343.979 185.76 343.723 186.152 343.723 186.584C343.723 187.016 343.966 187.407 345.8 187.407ZM339.717 187.407C341.551 187.407 341.794 186.989 341.794 186.584C341.794 186.179 341.551 185.76 339.717 185.76C337.882 185.76 337.639 186.152 337.639 186.584C337.639 187.016 337.896 187.407 339.717 187.407ZM333.647 187.407C335.468 187.407 335.724 186.989 335.724 186.584C335.724 186.179 335.468 185.76 333.647 185.76C331.826 185.76 331.569 186.152 331.569 186.584C331.569 187.016 331.826 187.407 333.647 187.407ZM327.563 187.407C329.398 187.407 329.641 186.989 329.641 186.584C329.641 186.179 329.384 185.76 327.563 185.76C325.742 185.76 325.486 186.152 325.486 186.584C325.486 187.016 325.742 187.407 327.563 187.407ZM321.48 187.407C323.314 187.407 323.557 186.989 323.557 186.584C323.557 186.179 323.314 185.76 321.48 185.76C319.645 185.76 319.416 186.152 319.416 186.584C319.416 187.016 319.686 187.407 321.48 187.407ZM315.41 187.407C317.231 187.407 317.487 186.989 317.487 186.584C317.487 186.179 317.231 185.76 315.41 185.76C313.589 185.76 313.332 186.152 313.332 186.584C313.332 187.016 313.575 187.407 315.41 187.407ZM309.326 187.407C311.161 187.407 311.404 186.989 311.404 186.584C311.404 186.179 311.147 185.76 309.326 185.76C307.505 185.76 307.249 186.152 307.249 186.584C307.249 187.016 307.546 187.407 309.326 187.407ZM303.243 187.407C305.077 187.407 305.32 186.989 305.32 186.584C305.32 186.179 305.077 185.76 303.243 185.76C301.408 185.76 301.179 186.152 301.179 186.584C301.179 187.016 301.422 187.407 303.243 187.407ZM297.173 187.407C298.994 187.407 299.25 186.989 299.25 186.584C299.25 186.179 298.994 185.76 297.173 185.76C295.352 185.76 295.096 186.152 295.096 186.584C295.096 187.016 295.406 187.407 297.173 187.407ZM291.089 187.407C292.924 187.407 293.167 186.989 293.167 186.584C293.167 186.179 292.91 185.76 291.089 185.76C289.268 185.76 289.012 186.152 289.012 186.584C289.012 187.016 289.268 187.407 291.089 187.407ZM285.019 187.407C286.84 187.407 287.083 186.989 287.083 186.584C287.083 186.179 286.84 185.76 285.019 185.76C283.198 185.76 282.942 186.152 282.942 186.584C282.942 187.016 283.185 187.407 285.019 187.407ZM282.659 192.388C283.077 192.388 283.482 192.132 283.482 190.31C283.482 188.487 283.077 188.23 282.659 188.23C282.241 188.23 281.836 188.474 281.836 190.31C281.836 192.146 282.254 192.388 282.659 192.388ZM282.659 198.45C283.077 198.45 283.482 198.207 283.482 196.371C283.482 194.535 283.077 194.305 282.659 194.305C282.241 194.305 281.836 194.549 281.836 196.371C281.836 198.194 282.254 198.45 282.659 198.45ZM282.659 204.552C283.077 204.552 283.482 204.295 283.482 202.473C283.482 200.65 283.077 200.394 282.659 200.394C282.241 200.394 281.836 200.65 281.836 202.473C281.836 204.295 282.254 204.552 282.659 204.552ZM282.659 210.6C283.077 210.6 283.482 210.344 283.482 208.521C283.482 206.699 283.077 206.442 282.659 206.442C282.241 206.442 281.836 206.685 281.836 208.521C281.836 210.357 282.254 210.6 282.659 210.6ZM282.659 216.715C283.077 216.715 283.482 216.473 283.482 214.637C283.482 212.801 283.077 212.557 282.659 212.557C282.241 212.557 281.836 212.814 281.836 214.637C281.836 216.459 282.254 216.715 282.659 216.715ZM282.659 222.75C283.077 222.75 283.482 222.494 283.482 220.671C283.482 218.849 283.077 218.592 282.659 218.592C282.241 218.592 281.836 218.835 281.836 220.671C281.836 222.507 282.254 222.75 282.659 222.75ZM282.659 228.893C283.077 228.893 283.482 228.636 283.482 226.813C283.482 224.991 283.077 224.735 282.659 224.735C282.241 224.735 281.836 224.977 281.836 226.813C281.836 228.649 282.254 228.893 282.659 228.893ZM282.659 234.968C283.077 234.968 283.482 234.724 283.482 232.888C283.482 231.052 283.077 230.81 282.659 230.81C282.241 230.81 281.836 231.066 281.836 232.888C281.836 234.711 282.254 234.968 282.659 234.968ZM282.659 241.056C283.077 241.056 283.482 240.8 283.482 238.977C283.482 237.155 283.077 236.898 282.659 236.898C282.241 236.898 281.836 237.141 281.836 238.977C281.836 240.813 282.254 241.056 282.659 241.056ZM282.659 247.131C283.077 247.131 283.482 246.888 283.482 245.066C283.482 243.243 283.077 242.987 282.659 242.987C282.241 242.987 281.836 243.229 281.836 245.066C281.836 246.902 282.254 247.131 282.659 247.131ZM282.659 253.22C283.077 253.22 283.482 252.977 283.482 251.141C283.482 249.305 283.077 249.062 282.659 249.062C282.241 249.062 281.836 249.318 281.836 251.141C281.836 252.963 282.254 253.22 282.659 253.22ZM282.659 259.308C283.077 259.308 283.482 259.051 283.482 257.229C283.482 255.406 283.077 255.15 282.659 255.15C282.241 255.15 281.836 255.393 281.836 257.229C281.836 259.065 282.254 259.308 282.659 259.308Z" fill="white"/>
<path d="M285.41 257.377H279.906V262.885H285.41V257.377Z" fill="white"/>
<path d="M279.354 256.824V263.439H285.963V256.824H279.354ZM284.857 262.318H280.473V257.931H284.857V262.318Z" fill="white"/>
<path d="M359.654 258.133H354.15V263.641H359.654V258.133Z" fill="white"/>
<path d="M353.586 257.567V264.182H360.155V257.567H353.586ZM359.089 263.061H354.759V258.687H359.143L359.089 263.061Z" fill="white"/>
<path d="M285.41 183.29H279.906V188.798H285.41V183.29Z" fill="white"/>
<path d="M279.354 182.736V189.365H285.963V182.736H279.354ZM284.857 188.244H280.473V183.843H284.857V188.244Z" fill="white"/>
<path d="M359.654 183.83H354.15V189.338H359.654V183.83Z" fill="white"/>
<path d="M353.586 183.276V189.891H360.155V183.276H353.586ZM359.089 188.771H354.759V184.383H359.143L359.089 188.771Z" fill="white"/>
<path d="M485.735 208.346H485.6L487.232 224.627L500.249 215.271L499.803 214.556C498.202 212.384 496.061 210.669 493.594 209.579C491.126 208.49 488.417 208.065 485.735 208.346Z" fill="#F7AE38"/>
<path d="M202.735 161.946H141.536C134.824 161.946 129.383 167.392 129.383 174.11V251.438C129.383 258.155 134.824 263.601 141.536 263.601H202.735C209.448 263.601 214.889 258.155 214.889 251.438V174.11C214.889 167.392 209.448 161.946 202.735 161.946Z" fill="#C3C3E1"/>
<path d="M202.062 160.191H142.873C139.005 160.198 135.298 161.74 132.565 164.478C129.832 167.216 128.295 170.927 128.291 174.798V250.398C128.295 254.267 129.832 257.977 132.566 260.713C135.3 263.449 139.006 264.988 142.873 264.992H202.062C205.928 264.988 209.635 263.449 212.368 260.713C215.102 257.977 216.64 254.267 216.643 250.398V174.798C216.64 170.927 215.103 167.216 212.369 164.478C209.636 161.74 205.929 160.198 202.062 160.191ZM214.89 250.371C214.893 253.781 213.544 257.053 211.139 259.468C208.734 261.882 205.469 263.243 202.062 263.25H142.873C139.473 263.243 136.214 261.888 133.81 259.482C131.405 257.076 130.052 253.814 130.045 250.412V174.812C130.048 171.406 131.4 168.142 133.805 165.733C136.209 163.323 139.47 161.967 142.873 161.96H202.062C205.464 161.967 208.725 163.323 211.129 165.733C213.534 168.142 214.886 171.406 214.89 174.812V250.371Z" fill="#8E8EBD"/>
<path d="M147.232 171.2L140.168 178.278L141.409 179.518L148.473 172.441L147.232 171.2Z" fill="white"/>
<path d="M141.408 171.203L140.168 172.444L147.236 179.517L148.476 178.276L141.408 171.203Z" fill="white"/>
<path d="M164.67 195.872V202.892H163.699C162.981 202.844 162.27 203.05 161.689 203.472C161.197 203.937 160.866 204.547 160.745 205.214C160.608 206.383 160.553 207.56 160.583 208.737C160.619 210.267 160.414 211.793 159.976 213.26C159.737 214.028 159.316 214.728 158.748 215.298C158.159 215.801 157.489 216.198 156.765 216.473C157.552 216.79 158.274 217.247 158.897 217.823C159.446 218.451 159.852 219.193 160.084 219.996C160.484 221.524 160.652 223.103 160.583 224.681C160.516 225.944 160.616 227.21 160.879 228.447C160.956 228.71 161.084 228.955 161.255 229.168C161.426 229.381 161.638 229.558 161.878 229.689C162.774 230 163.724 230.125 164.67 230.054V236.993H161.972C159.95 237.124 157.925 236.811 156.037 236.075C154.906 235.506 154.02 234.547 153.541 233.375C152.958 231.693 152.702 229.915 152.786 228.137C152.786 227.624 152.786 227.111 152.786 226.598C152.786 226.287 152.786 225.963 152.786 225.626C152.852 224.434 152.702 223.24 152.341 222.102C152.079 221.454 151.603 220.915 150.992 220.577C150.225 220.217 149.384 220.042 148.537 220.064V212.72C149.391 212.773 150.244 212.596 151.006 212.207C151.587 211.834 152.028 211.278 152.26 210.627C152.609 209.468 152.755 208.258 152.692 207.05V206.321C152.692 205.983 152.692 205.659 152.692 205.335C152.604 203.486 152.818 201.635 153.326 199.854C153.658 198.847 154.26 197.95 155.066 197.262C155.735 196.746 156.516 196.395 157.345 196.236C158.765 195.911 160.219 195.757 161.675 195.777L164.67 195.872ZM183.15 195.872C184.611 195.851 186.069 196.005 187.493 196.331C188.318 196.491 189.094 196.843 189.759 197.357C190.566 198.047 191.171 198.943 191.513 199.949C192.014 201.73 192.224 203.581 192.133 205.43C192.133 205.754 192.133 206.078 192.133 206.415V207.144C192.067 208.352 192.208 209.562 192.551 210.722C192.793 211.367 193.232 211.92 193.806 212.301C194.569 212.688 195.421 212.866 196.274 212.814V220.158C195.432 220.136 194.595 220.312 193.833 220.671C193.218 221.005 192.741 221.545 192.484 222.197C192.117 223.333 191.962 224.527 192.025 225.72C192.025 226.058 192.025 226.382 192.025 226.692C192.025 227.205 192.025 227.718 192.025 228.231C192.113 230.008 191.861 231.786 191.283 233.469C190.804 234.645 189.912 235.605 188.774 236.169C186.891 236.905 184.87 237.218 182.853 237.087H180.155V230.148C181.101 230.219 182.051 230.095 182.947 229.784C183.428 229.514 183.786 229.069 183.945 228.542C184.209 227.305 184.308 226.038 184.242 224.775C184.194 223.181 184.381 221.59 184.795 220.05C185.033 219.25 185.437 218.509 185.982 217.877C186.61 217.307 187.331 216.851 188.114 216.527C187.39 216.252 186.719 215.855 186.131 215.352C185.568 214.78 185.151 214.081 184.917 213.314C184.472 211.849 184.267 210.321 184.31 208.791C184.345 207.614 184.286 206.436 184.134 205.268C184.018 204.599 183.686 203.988 183.19 203.526C182.609 203.101 181.898 202.896 181.18 202.946H180.223V195.926L183.15 195.872Z" fill="white"/>
<path d="M210.062 119.057C210.078 119.928 209.835 120.784 209.363 121.516C208.891 122.248 208.212 122.823 207.413 123.167C206.613 123.512 205.729 123.61 204.874 123.45C204.018 123.29 203.229 122.879 202.608 122.269C201.987 121.658 201.561 120.877 201.385 120.024C201.209 119.17 201.291 118.284 201.621 117.478C201.95 116.671 202.512 115.981 203.234 115.495C203.957 115.01 204.808 114.75 205.678 114.75C206.826 114.753 207.927 115.205 208.746 116.01C209.565 116.815 210.037 117.908 210.062 119.057Z" fill="url(#paint3_linear_851_150)"/>
<path d="M102.976 241.42C105.397 241.42 107.36 239.456 107.36 237.033C107.36 234.61 105.397 232.645 102.976 232.645C100.555 232.645 98.5918 234.61 98.5918 237.033C98.5918 239.456 100.555 241.42 102.976 241.42Z" fill="#F7AE38"/>
<path d="M428.421 120.73C428.423 121.167 428.296 121.595 428.055 121.959C427.814 122.324 427.47 122.608 427.067 122.775C426.663 122.943 426.22 122.987 425.791 122.902C425.363 122.816 424.97 122.605 424.663 122.295C424.355 121.985 424.146 121.59 424.063 121.161C423.981 120.732 424.027 120.288 424.197 119.886C424.367 119.484 424.653 119.141 425.019 118.902C425.384 118.663 425.813 118.538 426.249 118.543C426.825 118.55 427.375 118.784 427.782 119.193C428.188 119.602 428.417 120.154 428.421 120.73Z" fill="url(#paint4_linear_851_150)"/>
<path d="M164.994 444.474H199.526L212.057 379.174C212.528 376.719 212.451 374.19 211.832 371.768C211.212 369.345 210.066 367.09 208.474 365.163C206.882 363.236 204.885 361.685 202.624 360.62C200.364 359.556 197.896 359.004 195.398 359.005C191.455 359.006 187.636 360.381 184.596 362.894C181.556 365.407 179.485 368.901 178.739 372.775L164.994 444.474Z" fill="white"/>
<path d="M199.947 444.987H164.377L164.498 444.379L178.244 372.681C179.438 368.453 182.173 364.828 185.909 362.52C189.645 360.213 194.11 359.393 198.421 360.22C202.732 361.048 206.577 363.464 209.194 366.991C211.812 370.518 213.013 374.899 212.559 379.269L199.947 444.987ZM165.604 443.974H199.111L211.561 379.08C211.969 376.952 211.953 374.766 211.516 372.644C211.079 370.523 210.229 368.508 209.014 366.715C207.799 364.923 206.243 363.387 204.435 362.196C202.627 361.005 200.603 360.183 198.477 359.775C196.351 359.367 194.166 359.382 192.046 359.82C189.927 360.257 187.914 361.108 186.122 362.324C184.331 363.54 182.797 365.097 181.607 366.907C180.417 368.716 179.595 370.742 179.188 372.87L165.604 443.974Z" fill="#1A120E"/>
<path d="M200.026 429.894L198.677 429.624L208.484 378.486C208.859 376.754 208.885 374.964 208.559 373.221C208.234 371.479 207.563 369.819 206.587 368.34C205.611 366.861 204.349 365.592 202.876 364.607C201.403 363.623 199.748 362.944 198.009 362.609C196.27 362.274 194.481 362.291 192.748 362.658C191.015 363.025 189.373 363.735 187.919 364.746C186.464 365.758 185.226 367.05 184.278 368.547C183.33 370.044 182.69 371.716 182.396 373.464L176.542 404.028L175.193 403.758L181.061 373.208C181.412 371.3 182.136 369.48 183.193 367.854C184.249 366.228 185.617 364.827 187.217 363.732C188.817 362.637 190.618 361.87 192.515 361.474C194.413 361.079 196.37 361.064 198.273 361.429C200.177 361.794 201.989 362.533 203.606 363.602C205.224 364.672 206.613 366.051 207.695 367.66C208.777 369.27 209.53 371.077 209.911 372.979C210.292 374.882 210.293 376.84 209.914 378.743L200.026 429.894Z" fill="#1A120E"/>
<path d="M263.884 438.655H172.402V444.487H263.884V438.655Z" fill="white"/>
<path d="M264.38 444.987H171.9V438.143H264.38V444.987ZM172.912 443.975H263.369V439.155H172.912V443.975Z" fill="#1A120E"/>
<path d="M263.881 437.94H188.855V439.345H263.881V437.94Z" fill="#1A120E"/>
<path d="M307.964 418.77H110.757C108.217 418.77 105.766 417.827 103.88 416.124C101.994 414.421 100.806 412.078 100.546 409.549L88.0686 290.331C87.9172 288.897 88.0689 287.448 88.514 286.077C88.959 284.706 89.6874 283.444 90.6518 282.373C91.6161 281.302 92.7949 280.446 94.1114 279.861C95.4279 279.276 96.8527 278.975 98.2932 278.977H295.487C298.028 278.974 300.479 279.913 302.368 281.614C304.257 283.314 305.448 285.656 305.712 288.184L318.189 407.416C318.338 408.85 318.185 410.298 317.739 411.668C317.293 413.039 316.565 414.3 315.601 415.37C314.637 416.44 313.459 417.296 312.144 417.882C310.828 418.468 309.404 418.77 307.964 418.77Z" fill="white"/>
<path d="M307.965 419.269H110.757C108.081 419.284 105.495 418.303 103.501 416.517C101.507 414.731 100.247 412.267 99.9661 409.603L87.5563 290.385C87.3989 288.875 87.5612 287.35 88.0326 285.907C88.504 284.465 89.2739 283.138 90.2921 282.013C91.3103 280.888 92.5539 279.991 93.9419 279.379C95.3298 278.768 96.831 278.456 98.3474 278.464H295.488C298.152 278.466 300.722 279.455 302.701 281.239C304.681 283.024 305.931 285.478 306.211 288.13L318.688 407.362C318.843 408.865 318.681 410.384 318.213 411.82C317.744 413.256 316.98 414.578 315.97 415.7C314.959 416.822 313.724 417.72 312.346 418.335C310.967 418.949 309.474 419.268 307.965 419.269ZM98.2935 279.45C96.924 279.45 95.5698 279.738 94.3187 280.295C93.0675 280.853 91.9473 281.667 91.0304 282.685C90.1136 283.703 89.4207 284.902 88.9965 286.206C88.5723 287.509 88.4263 288.887 88.568 290.25L101.045 409.468C101.292 411.873 102.423 414.101 104.217 415.719C106.011 417.338 108.342 418.233 110.757 418.23H307.965C309.335 418.234 310.692 417.949 311.945 417.393C313.198 416.837 314.32 416.023 315.238 415.004C316.155 413.985 316.848 412.784 317.271 411.479C317.693 410.173 317.836 408.794 317.69 407.43L305.213 288.211C304.966 285.804 303.833 283.575 302.036 281.956C300.239 280.337 297.905 279.444 295.488 279.45H98.2935Z" fill="#1A120E"/>
<path d="M104.836 404.149L92.8717 289.831C92.7839 289.072 92.8582 288.302 93.0897 287.574C93.3212 286.845 93.7047 286.174 94.2147 285.605C94.7248 285.036 95.3498 284.581 96.0485 284.272C96.7471 283.963 97.5034 283.805 98.2673 283.81H295.488C296.835 283.804 298.135 284.302 299.133 285.207C300.132 286.111 300.756 287.356 300.884 288.697L312.943 404.149H104.836Z" fill="#F7FAFF"/>
<path d="M185.879 398.669H231.903L231.687 397.062H185.879V398.669Z" fill="#F9BF9D"/>
<path d="M175.044 397.062H116.098L116.313 398.669H175.044V397.062Z" fill="#F9BF9D"/>
<path d="M249.342 290.858H295.366L295.15 289.237H249.342V290.858Z" fill="#F9BF9D"/>
<path d="M238.511 289.237H179.564L179.78 290.858H238.511V289.237Z" fill="#F9BF9D"/>
<path d="M307.964 415.017H110.77C110.55 415.031 110.329 415.031 110.109 415.017L110.244 413.667C110.419 413.68 110.595 413.68 110.77 413.667H307.964C308.682 413.669 309.392 413.52 310.048 413.229C310.704 412.938 311.291 412.511 311.771 411.977C312.251 411.443 312.613 410.814 312.834 410.13C313.054 409.447 313.128 408.725 313.05 408.011L300.573 288.792C300.442 287.534 299.85 286.37 298.91 285.524C297.971 284.678 296.751 284.212 295.487 284.216V282.866C297.101 282.86 298.658 283.456 299.857 284.536C301.056 285.617 301.811 287.105 301.975 288.711L314.453 407.943C314.549 408.853 314.453 409.773 314.171 410.644C313.889 411.514 313.427 412.316 312.815 412.995C312.203 413.675 311.455 414.219 310.619 414.59C309.783 414.962 308.879 415.153 307.964 415.152V415.017Z" fill="#1A120E"/>
<path d="M266.69 379.066L257.491 388.597C238.781 388.597 224.052 379.62 211.345 368.347C208.553 365.863 205.869 363.271 203.252 360.625C199.826 357.169 196.507 353.632 193.283 350.19C179.714 335.664 166.872 321.948 152.331 321.948C149.245 321.873 146.176 322.417 143.303 323.548C140.43 324.678 137.813 326.372 135.604 328.53C133.395 330.688 131.64 333.266 130.441 336.113C129.243 338.96 128.626 342.018 128.626 345.107C128.626 348.196 129.243 351.254 130.441 354.101C131.64 356.948 133.395 359.527 135.604 361.684C137.813 363.842 140.43 365.536 143.303 366.667C146.176 367.797 149.245 368.341 152.331 368.266V388.692C140.783 388.692 129.708 384.101 121.542 375.928C113.377 367.756 108.789 356.671 108.789 345.114C108.789 333.556 113.377 322.472 121.542 314.3C129.708 306.127 140.783 301.536 152.331 301.536C175.721 301.536 192.231 319.18 208.189 336.231C211.413 339.673 214.596 343.089 217.806 346.315C219.924 348.462 222.042 350.527 224.187 352.471C234.317 361.651 244.905 368.266 257.558 368.266L266.69 379.066Z" fill="#C3C3E1"/>
<path d="M257.489 388.598L266.689 379.067L257.489 368.172C263.625 368.172 269.509 365.733 273.847 361.391C278.185 357.049 280.623 351.16 280.623 345.02C280.623 338.879 278.185 332.99 273.847 328.648C269.509 324.306 263.625 321.867 257.489 321.867C242.045 321.867 226.316 337.541 211.128 352.701C193.431 370.346 175.126 388.598 152.262 388.598L143.535 378.878L152.262 368.172C166.696 368.172 181.277 353.633 196.776 338.229C214.905 320.139 233.654 301.442 257.476 301.442C269.024 301.442 280.099 306.033 288.265 314.205C296.43 322.378 301.018 333.462 301.018 345.02C301.018 356.577 296.43 367.661 288.265 375.834C280.099 384.006 269.024 388.598 257.476 388.598H257.489Z" fill="#3A81E1"/>
<path opacity="0.3" d="M224.117 352.35L211.343 368.28L203.25 360.531L217.805 346.221C219.868 348.367 221.973 350.433 224.117 352.35Z" fill="#1A120E"/>
<path d="M179.402 444.919C179.402 444.919 182.613 427.491 197.545 427.491C214.136 427.491 221.42 437.278 225.413 444.744L179.402 444.919Z" fill="#1A120E"/>
<path d="M354.757 516.55C366.992 529.888 376.056 540.985 392.958 579.798C397.747 590.8 411.181 602.1 411.181 602.1C403.236 598.05 355.661 670.086 389.127 670.626C389.127 670.626 365.292 675.607 336.817 642.586C308.342 609.565 294.327 531.886 297.106 514.458C299.885 497.029 333.418 493.249 354.757 516.55Z" fill="url(#paint5_linear_851_150)"/>
<path d="M297.12 514.458C299.898 497.083 333.418 493.249 354.771 516.55C364.58 526.807 372.85 538.435 379.321 551.07C377.689 551.178 375.598 551.353 374.64 551.38C371.251 551.503 367.874 551.868 364.537 552.474C359.27 553.273 354.258 555.28 349.894 558.339C345.53 561.397 341.932 565.424 339.38 570.105C328.104 590.638 339.92 615.708 353.301 631.854C360.443 640.186 368.705 647.487 377.851 653.548C376.124 663.241 378.633 670.45 389.141 670.626C389.141 670.626 365.306 675.607 336.831 642.586C308.356 609.565 294.341 531.9 297.12 514.458Z" fill="#1A120E"/>
<path d="M259.566 516.55C271.8 529.888 280.865 540.985 297.753 579.798C302.555 590.8 315.99 602.1 315.99 602.1C308.045 598.05 260.47 670.086 293.936 670.626C293.936 670.626 270.101 675.607 241.626 642.586C213.151 609.565 199.136 531.886 201.915 514.458C204.693 497.029 238.213 493.249 259.566 516.55Z" fill="black"/>
<path d="M405.679 547.047C390.1 552.285 361.773 549.558 332.381 549.558C302.988 549.558 245.741 553.365 228.719 545.71C216.579 540.31 188.818 521.815 208.175 495.423C227.531 469.03 389.83 463.846 406.893 463.171C423.957 462.496 447.414 533.007 405.679 547.047Z" fill="black"/>
<path d="M396.162 312.902L396.162 312.902C414.566 306.422 427.482 305.86 440.907 307.137C448.879 307.895 458.88 314.345 467.342 324.229C475.787 334.093 482.618 347.288 484.311 361.387C485.665 372.673 484.21 381.798 482.326 393.607C481.852 396.582 481.35 399.728 480.859 403.121C478.423 419.964 476.286 442.778 479.183 480.908C480.621 499.843 475.876 513.533 467.992 523.438C460.099 533.354 449.022 539.522 437.724 543.335C426.428 547.147 414.942 548.593 406.272 549.085C401.939 549.33 398.314 549.337 395.774 549.283C394.504 549.256 393.505 549.213 392.825 549.178C392.488 549.16 392.229 549.144 392.054 549.132C378.172 523.893 357.517 503.867 340.329 490.145C331.706 483.261 323.948 477.959 318.346 474.377C315.544 472.586 313.281 471.225 311.717 470.311C310.935 469.854 310.328 469.509 309.916 469.278C309.813 469.22 309.721 469.169 309.643 469.125C310.746 465.582 312.559 462.546 314.886 459.183C315.673 458.047 316.521 456.87 317.419 455.624C319.262 453.064 321.317 450.212 323.485 446.817C329.957 436.683 337.504 421.629 344.091 394.331C350.662 367.102 357.757 348.83 366.169 336.323C374.567 323.837 384.287 317.08 396.162 312.902Z" fill="#EDEDFE" stroke="black"/>
<path d="M334.524 365.472C334.524 365.472 308.342 395.172 300.357 404.946C278.626 413.572 241.923 425.115 237.552 426.316C232.71 427.666 230.039 427.329 222.715 420.309C215.39 413.289 213.704 415.3 204.693 417.96C195.683 420.619 192.999 415.462 188.831 425.317C184.662 435.172 177.325 437.076 177.473 439.182C177.743 442.705 187.751 438.52 187.751 438.52C187.751 438.52 187.751 444.109 191.42 444.285C195.089 444.46 193.417 439.857 195.089 436.347C196.762 432.837 205.193 429.165 207.229 436.428C209.266 443.691 217.926 444.865 217.926 444.865H318.068C319.281 445.088 320.524 445.088 321.737 444.865C337.384 441.558 365.333 422.604 381.843 399.937C398.353 377.271 359.344 341.928 334.524 365.472Z" fill="#F9BF9D"/>
<path d="M412.067 321.435C415.818 323.904 419.398 327.245 421.247 332.54C423.099 337.841 423.242 345.177 419.957 355.684C416.679 366.17 408.53 379.756 398.084 393.422C387.717 406.984 375.119 420.584 362.858 431.253C362.801 431.224 362.737 431.19 362.665 431.153C362.344 430.985 361.872 430.734 361.272 430.403C360.072 429.742 358.359 428.761 356.315 427.487C352.224 424.938 346.81 421.217 341.508 416.529C330.915 407.162 320.901 394.049 322.553 378.781L322.555 378.779L322.876 378.422C323.157 378.108 323.573 377.647 324.106 377.056C325.174 375.874 326.715 374.173 328.61 372.097C332.401 367.943 337.606 362.289 343.267 356.284C354.603 344.26 367.726 330.874 374.985 325.287C389.412 314.185 403.842 316.044 412.067 321.435Z" fill="#EDEDFE" stroke="black"/>
<path d="M372.686 397.291C370.725 397.313 368.768 397.128 366.846 396.738L367.196 395.388C373.234 396.553 379.484 395.812 385.083 393.268C390.682 390.724 395.353 386.502 398.45 381.186L399.651 381.928C391.517 395.091 379.687 397.291 372.686 397.291Z" fill="#1A120E"/>
<path d="M362.663 433.093L362.245 432.891C362.069 432.81 345.222 424.791 333.338 410.535L334.417 409.63C345.06 422.347 359.763 430.069 362.42 431.406C366.332 427.815 401.538 394.956 415.89 364.324L417.158 364.918C401.929 397.521 363.405 432.418 363.013 432.783L362.663 433.093Z" fill="#1A120E"/>
<path d="M414.997 276.523L424.868 301.87L408.672 311.095L401.875 284.022L414.997 276.523Z" fill="#E78952"/>
<path d="M395.67 258.413L399.102 266.557C399.614 267.83 400.032 269.138 400.353 270.472L401.135 273.604C401.135 273.604 405.38 305.029 381.331 292.188C375.765 289.215 377.205 283.219 374.711 277.414C372.213 271.608 369.584 267.211 371.245 261.112C375.307 247.8 389.111 246.041 395.67 258.413Z" fill="#F9BF9D"/>
<path d="M380.212 250.641C381.561 251.019 385.513 251.883 385.513 251.883C385.513 251.883 387.981 261.265 389.951 264.586C391.92 267.907 411.767 282.123 405.346 284.337C398.925 286.551 424.697 290.41 389.823 295.719C391.32 299.958 391.553 260.892 400.254 262.593C406.04 263.7 423.014 291.168 418.077 282.973C427.351 263.167 390.936 275.818 395.616 265.329C400.297 254.839 396.358 277.182 409.429 282.973C422.5 288.765 426.074 291.249 426.074 291.249C426.074 291.249 426.937 286.065 430.121 284.337C433.304 282.609 441.209 269.406 439.239 254.232C437.27 239.058 429.622 234.981 415.809 234.36C401.996 233.739 405.922 227.367 397.316 227.083C388.71 226.8 376.583 218.362 376.583 218.362C376.583 218.362 368.247 247.252 380.212 250.641Z" fill="#1A120E"/>
<path d="M410.787 269.22C409.303 274.107 404.704 277.037 400.522 275.768C396.34 274.499 394.142 269.504 395.625 264.617C397.109 259.73 401.709 256.8 405.891 258.069C410.072 259.338 412.271 264.333 410.787 269.22Z" fill="#F9BF9D"/>
<path d="M401.97 273.509C401.768 273.499 401.57 273.457 401.382 273.382C400.059 272.865 399.445 270.993 399.375 270.773L400.749 270.347C400.899 270.828 401.397 271.869 401.926 272.073C402.009 272.104 402.098 272.114 402.186 272.102C402.274 272.091 402.357 272.058 402.429 272.006C402.861 271.759 402.872 271.57 402.832 270.811C402.755 270.193 402.819 269.565 403.016 268.975C403.214 268.384 403.542 267.845 403.975 267.398C404.711 266.662 405.599 266.096 406.577 265.74C407.752 265.25 407.961 265.126 407.717 263.896C407.673 263.699 407.588 263.514 407.469 263.352C407.35 263.189 407.199 263.053 407.025 262.953C405.59 262.433 404.027 262.381 402.561 262.806L402.203 261.435C402.351 261.443 405.763 260.545 407.752 261.734C408.087 261.93 408.378 262.192 408.607 262.504C408.837 262.817 409 263.173 409.086 263.551C409.673 265.948 408.318 266.524 407.129 267.028C406.331 267.309 405.605 267.764 405.004 268.359C404.694 268.665 404.463 269.041 404.331 269.455C404.198 269.869 404.167 270.309 404.24 270.738C404.345 271.217 404.292 271.717 404.091 272.164C403.889 272.611 403.549 272.981 403.12 273.219C402.775 273.43 402.374 273.531 401.97 273.509Z" fill="#1A120E"/>
<path d="M486.505 444.987H133.096V447.673H486.505V444.987Z" fill="#131313"/>
<path d="M154.408 134.919L143.212 122.944L142.443 123.606C141.382 124.596 140.473 125.738 139.745 126.994C138.73 128.726 138.074 130.646 137.816 132.637L154.408 134.919Z" fill="#F14146"/>
</g>
<defs>
<linearGradient id="paint0_linear_851_150" x1="436.648" y1="155.533" x2="439.508" y2="155.533" gradientUnits="userSpaceOnUse">
<stop stop-color="#007D90"/>
<stop offset="1" stop-color="#00BDD2"/>
</linearGradient>
<linearGradient id="paint1_linear_851_150" x1="442.676" y1="155.533" x2="445.549" y2="155.533" gradientUnits="userSpaceOnUse">
<stop stop-color="#FF4428"/>
<stop offset="1" stop-color="#FF7E3B"/>
</linearGradient>
<linearGradient id="paint2_linear_851_150" x1="783.777" y1="-195.878" x2="784.752" y2="-193.188" gradientUnits="userSpaceOnUse">
<stop stop-color="#001B8D"/>
<stop offset="1" stop-color="#0073D5"/>
</linearGradient>
<linearGradient id="paint3_linear_851_150" x1="201.294" y1="119.057" x2="210.062" y2="119.057" gradientUnits="userSpaceOnUse">
<stop stop-color="#FF4428"/>
<stop offset="1" stop-color="#FF7E3B"/>
</linearGradient>
<linearGradient id="paint4_linear_851_150" x1="424.037" y1="120.73" x2="428.421" y2="120.73" gradientUnits="userSpaceOnUse">
<stop stop-color="#FF4428"/>
<stop offset="1" stop-color="#FF7E3B"/>
</linearGradient>
<linearGradient id="paint5_linear_851_150" x1="296.782" y1="585.562" x2="411.195" y2="585.562" gradientUnits="userSpaceOnUse">
<stop stop-color="#FF4428"/>
<stop offset="1" stop-color="#FF7E3B"/>
</linearGradient>
<clipPath id="clip0_851_150">
<rect width="607" height="540" fill="white"/>
</clipPath>
</defs>
</svg>
