<svg width="121" height="40" viewBox="0 0 121 40" fill="none" xmlns="http://www.w3.org/2000/svg">
<g clip-path="url(#clip0_3127_101454)">
<path d="M24.5724 6.05151C24.1427 6.521 13.11 18.5929 12.1801 23.1843C11.2327 27.8681 14.3094 32.4243 19.0538 33.36C20.0097 33.5488 20.9617 33.5775 21.8773 33.4616C19.6789 28.2308 23.2532 11.688 24.5724 6.05151Z" fill="#C3C2CB"/>
<path fill-rule="evenodd" clip-rule="evenodd" d="M24.5868 6.00977L24.5738 6.02344C23.2545 11.6612 19.6803 28.202 21.8779 33.4322C25.5088 32.9777 28.6038 30.2884 29.3611 26.5474C30.3099 21.8656 24.5868 6.00977 24.5868 6.00977Z" fill="#908E9F"/>
<path d="M19.6466 22.0335V21.4293C19.6466 20.6921 19.7625 20.0091 19.9936 19.3801C20.2152 18.77 20.5629 18.2135 21.014 17.7469C21.4614 17.2866 22.0116 16.9265 22.6647 16.666C23.3178 16.4062 24.0673 16.2766 24.9106 16.2766C25.3403 16.2766 25.7669 16.3183 26.1869 16.401C26.6095 16.4856 26.9878 16.6237 27.3238 16.8164C27.6591 17.0092 27.9294 17.2592 28.1351 17.5698C28.3435 17.8804 28.4457 18.262 28.4457 18.7139C28.4457 19.0161 28.3253 19.2752 28.083 19.494C27.8441 19.7115 27.551 19.8209 27.2059 19.8209C26.9288 19.8246 26.6563 19.7504 26.4193 19.6067C26.1875 19.4634 26.0716 19.2505 26.0716 18.9653C26.0716 18.7139 26.1107 18.5505 26.1875 18.4749C26.2262 18.4376 26.2566 18.3926 26.2768 18.3428C26.297 18.293 26.3065 18.2395 26.3047 18.1858C26.3047 17.8518 26.1575 17.6004 25.8645 17.4318C25.5728 17.2651 25.2023 17.1817 24.7562 17.1817C24.0855 17.1817 23.5672 17.323 23.2078 17.6082C22.8457 17.8934 22.5788 18.2529 22.4069 18.6885C22.2313 19.1428 22.131 19.6227 22.1099 20.1094C22.0845 20.6205 22.0722 21.1024 22.0722 21.5556V22.0335C22.0722 22.2341 22.0891 22.3559 22.1242 22.3969C22.1581 22.4392 22.2688 22.4601 22.4589 22.4601H24.962C25.0649 22.4601 25.1424 22.5141 25.1945 22.6228C25.2459 22.7335 25.272 22.854 25.272 22.9881C25.272 23.1229 25.2459 23.2441 25.1938 23.3528C25.1424 23.4615 25.0649 23.5169 24.962 23.5169H22.4589C22.2688 23.5169 22.1581 23.5371 22.1236 23.5794C22.0891 23.6204 22.0715 23.7591 22.0715 23.9935V30.8067C22.0715 31.2254 22.0891 31.5737 22.1236 31.8498C22.1581 32.1253 22.2428 32.348 22.3815 32.516C22.5182 32.684 22.7461 32.8181 23.0645 32.9177C23.3836 33.018 23.8251 33.102 24.3949 33.1691C24.4412 33.1746 24.4858 33.1898 24.5258 33.2137C24.5659 33.2376 24.6005 33.2697 24.6273 33.3078C24.677 33.3821 24.7034 33.4694 24.7034 33.5588C24.7034 33.6482 24.677 33.7355 24.6273 33.8098C24.6056 33.845 24.5752 33.8739 24.539 33.8939C24.5029 33.9138 24.4622 33.9241 24.4209 33.9238C23.732 33.9238 23.116 33.8951 22.5749 33.8359C22.0481 33.7778 21.5186 33.7482 20.9886 33.7473C20.4371 33.7473 19.8869 33.7773 19.336 33.8359C18.7844 33.8945 18.2531 33.9238 17.7367 33.9238C17.6332 33.9238 17.555 33.8854 17.5042 33.8098C17.4542 33.7404 17.4271 33.6571 17.4268 33.5715C17.4268 33.4712 17.4528 33.3827 17.5049 33.3078C17.555 33.2322 17.6423 33.1867 17.7628 33.1691C18.227 33.1189 18.5832 33.0486 18.8339 32.9561C19.0827 32.8637 19.2676 32.7348 19.3874 32.5654C19.5092 32.3994 19.5815 32.1813 19.6075 31.9123C19.6335 31.6454 19.6466 31.3015 19.6466 30.8809V22.0335Z" fill="#191438"/>
<path d="M16.5265 20.1212C15.4273 19.0493 14.3008 18.4744 14.3008 18.4744C15.7509 19.7669 14.7351 21.753 16.9979 22.6027C17.8372 22.9179 18.2638 22.8762 18.4663 22.8007C18.4663 22.8007 17.6243 21.191 16.5265 20.1212Z" fill="#908E9F"/>
<path fill-rule="evenodd" clip-rule="evenodd" d="M19.739 23.024C19.4915 23.0436 19.1034 22.8463 18.7121 22.5708C18.8176 22.3625 18.966 21.8656 18.7166 20.8947C18.2686 19.1529 15.6692 18.6092 14.2998 18.4744C14.2998 18.4744 15.4263 19.05 16.5268 20.1212C17.624 21.191 18.4653 22.8013 18.4653 22.8013C18.8019 23.0429 19.1751 23.2708 19.5449 23.416C19.8112 23.5189 20.2612 22.983 19.739 23.024Z" fill="#191438"/>
</g>
<path d="M38.6801 11.9041C38.6801 9.86062 38.6801 9.49334 38.6538 9.07413C38.6275 8.62915 38.5235 8.41921 38.0927 8.32742C37.9886 8.30127 37.7669 8.28854 37.6492 8.28854C37.5971 8.28854 37.5449 8.26186 37.5449 8.20995C37.5449 8.1312 37.6103 8.10452 37.7537 8.10452C38.0539 8.10452 38.4062 8.10452 38.6926 8.11748L39.2279 8.14439C39.4886 8.15689 42.1366 8.14438 42.4369 8.1312C42.6845 8.11748 42.8931 8.11748 43.0105 8.07882C43.0887 8.05237 43.1413 8 43.1933 8C43.2454 8 43.2717 8.05237 43.2717 8.11748C43.2717 8.20995 43.2067 8.36684 43.1672 8.73344C43.1539 8.86418 43.1282 9.44097 43.1019 9.59831C43.0888 9.66387 43.0629 9.74239 42.9979 9.74239C42.9321 9.74239 42.9065 9.67683 42.9065 9.58505C42.9065 9.48007 42.8671 9.25762 42.7891 9.08709C42.7108 8.91724 42.4104 8.68107 41.9016 8.66788L39.8929 8.62915C39.8147 8.62915 39.7756 8.66788 39.7756 8.77285V12.3888C39.7756 12.4676 39.7888 12.5065 39.867 12.5065L41.5368 12.4933C41.7581 12.4933 41.9413 12.4933 42.1236 12.4808C42.4369 12.4544 42.6063 12.4148 42.724 12.2447C42.7761 12.1791 42.8149 12.114 42.8671 12.114C42.9194 12.114 42.9321 12.153 42.9321 12.2185C42.9321 12.297 42.8671 12.52 42.828 12.9524C42.8017 13.2143 42.7761 13.7385 42.7761 13.8298C42.7761 13.9482 42.7761 14.0788 42.6845 14.0788C42.6192 14.0788 42.5929 14.026 42.5929 13.9609C42.5805 13.8298 42.5673 13.6467 42.5147 13.4891C42.4494 13.3061 42.2409 13.0699 41.8366 13.0175C41.5105 12.9781 40.0885 12.9781 39.867 12.9781C39.8019 12.9781 39.7756 13.0043 39.7756 13.0964V14.21C39.7756 15.4677 39.7756 16.5024 39.841 17.0527C39.8799 17.4332 39.9581 17.7213 40.3497 17.7732C40.5322 17.7994 40.8193 17.8256 40.9365 17.8256C41.0149 17.8256 41.041 17.865 41.041 17.9044C41.041 17.9699 40.976 18.0089 40.8324 18.0089C40.1148 18.0089 39.2932 17.9699 39.2279 17.9699C39.1626 17.9699 38.3405 18.0089 37.9492 18.0089C37.8059 18.0089 37.7406 17.9831 37.7406 17.9044C37.7406 17.865 37.7669 17.8256 37.8454 17.8256C37.9625 17.8256 38.1192 17.7994 38.2365 17.7732C38.4972 17.7213 38.5622 17.4332 38.6148 17.0527C38.6801 16.5024 38.6801 15.4677 38.6801 14.21V11.9041Z" fill="#C3C2CB"/>
<path d="M50.6518 17.6953C51.6827 17.6953 53.7567 17.1449 53.7567 13.922C53.7567 11.2494 52.139 9.84743 50.3257 9.84743C48.4083 9.84743 47.0258 11.0531 47.0258 13.4766C47.0258 16.0707 48.5779 17.6953 50.6518 17.6953ZM50.391 9.42822C52.9739 9.42822 54.9307 11.0137 54.9307 13.6073C54.9307 16.0968 53.0913 18.1535 50.3257 18.1535C47.182 18.1535 45.8389 15.7826 45.8389 13.7781C45.8389 11.9833 47.2214 9.42822 50.391 9.42822Z" fill="#C3C2CB"/>
<path d="M58.1365 12.808C58.1365 11.0788 58.1365 10.7641 58.1109 10.4104C58.0846 10.0565 58.0195 9.84682 57.6412 9.79491C57.55 9.78172 57.3544 9.76853 57.2498 9.76853C57.211 9.76853 57.1582 9.71616 57.1582 9.67675C57.1582 9.61119 57.211 9.58496 57.3409 9.58496C57.8626 9.58496 58.5541 9.61118 58.6587 9.61118C58.763 9.61118 59.4806 9.58496 59.8197 9.58496C59.9499 9.58496 60.0151 9.61119 60.0151 9.67675C60.0151 9.71616 59.963 9.76853 59.9111 9.76853C59.8326 9.76853 59.7674 9.76853 59.6238 9.79491C59.3237 9.84682 59.2586 10.0436 59.2327 10.4104C59.2066 10.7641 59.2066 11.0788 59.2066 12.808V14.3668C59.2066 15.9785 59.5588 16.6468 60.0544 17.0924C60.6155 17.6025 61.1112 17.6947 61.7632 17.6947C62.4676 17.6947 63.1457 17.38 63.5375 16.9089C64.0721 16.2668 64.1894 15.3496 64.1894 14.2099V12.808C64.1894 11.0788 64.1766 10.7641 64.1635 10.4104C64.1503 10.0565 64.0851 9.84682 63.7067 9.79491C63.6157 9.78172 63.4196 9.76853 63.3156 9.76853C63.2637 9.76853 63.2242 9.71616 63.2242 9.67675C63.2242 9.61119 63.2761 9.58496 63.4069 9.58496C63.9152 9.58496 64.5809 9.61118 64.6462 9.61118C64.7244 9.61118 65.2722 9.58496 65.6114 9.58496C65.7418 9.58496 65.7939 9.61119 65.7939 9.67675C65.7939 9.71616 65.7549 9.76853 65.7027 9.76853C65.6245 9.76853 65.5592 9.76853 65.4159 9.79491C65.1024 9.86047 65.0373 10.0436 65.0114 10.4104C64.9854 10.7641 64.9983 11.0788 64.9983 12.808V14.0006C64.9983 15.2056 64.8419 16.5548 63.9287 17.3406C63.0936 18.0616 62.2069 18.1529 61.5288 18.1529C61.1501 18.1529 59.9499 18.1271 59.1414 17.3675C58.5804 16.8429 58.1365 16.0701 58.1365 14.4456V12.808Z" fill="#C3C2CB"/>
<path d="M69.795 16.4901C69.821 17.4069 69.9253 17.6824 70.2386 17.7605C70.4474 17.8131 70.7082 17.8261 70.8123 17.8261C70.8648 17.8261 70.9036 17.8654 70.9036 17.918C70.9036 17.9837 70.8254 18.0094 70.6951 18.0094C70.0426 18.0094 69.5864 17.9704 69.4816 17.9704C69.3776 17.9704 68.8948 18.0094 68.3727 18.0094C68.2558 18.0094 68.1904 17.9966 68.1904 17.918C68.1904 17.8654 68.2295 17.8261 68.2821 17.8261C68.3727 17.8261 68.5815 17.8131 68.7514 17.7605C69.0386 17.6824 69.0774 17.3807 69.0774 16.3722V9.99181C69.0774 9.54661 69.1425 9.42822 69.2341 9.42822C69.3645 9.42822 69.5601 9.65113 69.6778 9.76906C69.8601 9.95286 71.5298 11.7342 73.3042 13.5684C74.4387 14.7479 75.6651 16.0707 76.0173 16.4377L75.8997 10.8564C75.8866 10.1359 75.8213 9.8873 75.4691 9.82166C75.2606 9.78232 74.9996 9.76906 74.9083 9.76906C74.8303 9.76906 74.8171 9.7035 74.8171 9.66432C74.8171 9.59876 74.9083 9.58557 75.0391 9.58557C75.5605 9.58557 76.1083 9.61179 76.2387 9.61179C76.3697 9.61179 76.7477 9.58557 77.2172 9.58557C77.3348 9.58557 77.4258 9.59876 77.4258 9.66432C77.4258 9.7035 77.3739 9.76906 77.2954 9.76906C77.2433 9.76906 77.1519 9.76906 77.0218 9.79551C76.6436 9.87403 76.6173 10.0966 76.6173 10.7647L76.591 17.2893C76.591 18.0228 76.5778 18.0879 76.4998 18.0879C76.3824 18.0879 76.2652 17.9966 75.6258 17.4069C75.5084 17.3025 73.852 15.6644 72.6385 14.3936C71.3081 12.9918 70.0169 11.6297 69.6646 11.2362L69.795 16.4901Z" fill="#C3C2CB"/>
<path d="M82.0014 14.0138C82.0014 15.1928 82.0014 16.2275 82.0143 16.4372C82.0275 16.7123 82.0536 17.1179 82.1449 17.2365C82.2884 17.4457 82.6924 17.6819 84.0496 17.6819C85.1057 17.6819 86.045 17.3278 86.7365 16.6729C87.3364 16.1098 87.6366 15.0484 87.6366 14.0261C87.6366 12.6118 87.0237 11.7078 86.5539 11.2358C85.4712 10.1355 84.2056 9.99134 82.8362 9.99134C82.6142 9.99134 82.2489 10.0309 82.1449 10.0699C82.0399 10.1097 82.0014 10.1616 82.0014 10.2928V14.0138ZM80.9577 12.8081C80.9577 11.0789 80.9577 10.7642 80.9314 10.4105C80.9058 10.0309 80.8406 9.84695 80.4619 9.79504C80.3704 9.78185 80.1749 9.76866 80.0711 9.76866C80.0314 9.76866 79.9795 9.71629 79.9795 9.67688C79.9795 9.61132 80.0314 9.58509 80.162 9.58509C80.6839 9.58509 81.4271 9.61132 81.4924 9.61132C81.6227 9.61132 82.3535 9.58509 83.0318 9.58509C84.1798 9.58509 86.2799 9.48012 87.6366 10.8559C88.2106 11.4329 88.7586 12.3622 88.7586 13.6855C88.7586 15.0874 88.158 16.1627 87.5194 16.8173C87.0237 17.3278 85.9931 18.1011 84.0364 18.1011C83.5408 18.1011 82.9275 18.0617 82.4317 18.0356C81.9361 17.9961 81.545 17.9699 81.4924 17.9699C81.4668 17.9699 81.258 17.9832 81.0229 17.9832C80.7877 17.9961 80.5141 18.0089 80.3315 18.0089C80.2144 18.0089 80.1493 17.9832 80.1493 17.9175C80.1493 17.8782 80.1749 17.8256 80.2402 17.8256C80.3447 17.8256 80.4884 17.7994 80.5923 17.7732C80.8143 17.7213 80.8406 17.5114 80.8925 17.1839C80.9577 16.7253 80.9577 15.8473 80.9577 14.7736V12.8081Z" fill="#C3C2CB"/>
<path d="M92.4345 12.8079C92.4345 11.0787 92.4345 10.7641 92.4085 10.4104C92.3828 10.0308 92.3176 9.84681 91.9387 9.79489C91.8474 9.78171 91.6519 9.76844 91.5476 9.76844C91.5084 9.76844 91.4561 9.71607 91.4561 9.67674C91.4561 9.61117 91.5084 9.58495 91.639 9.58495C92.1609 9.58495 92.9044 9.61117 92.9694 9.61117C93.0478 9.61117 95.4484 9.62436 95.7089 9.61117C95.9311 9.59814 96.1395 9.5588 96.2304 9.54599C96.2832 9.53303 96.3349 9.49316 96.387 9.49316C96.4263 9.49316 96.4389 9.54599 96.4389 9.59814C96.4389 9.67673 96.3741 9.80785 96.3481 10.1221C96.3349 10.2271 96.3088 10.7251 96.2832 10.8558C96.2696 10.9081 96.2304 10.9738 96.1782 10.9738C96.1134 10.9738 96.0869 10.9214 96.0869 10.8296C96.0869 10.7508 96.0742 10.5677 96.022 10.437C95.9436 10.2528 95.8262 10.1747 95.2001 10.0959C95.0043 10.0697 93.6738 10.0565 93.5432 10.0565C93.4913 10.0565 93.4784 10.0959 93.4784 10.1747V13.2009C93.4784 13.2797 93.4784 13.3191 93.5432 13.3191C93.6868 13.3191 95.2001 13.3191 95.4608 13.2927C95.7352 13.2665 95.9044 13.2531 96.022 13.1354C96.0998 13.0568 96.1526 12.9912 96.1916 12.9912C96.2304 12.9912 96.2564 13.0174 96.2564 13.083C96.2564 13.1486 96.1916 13.3317 96.1651 13.699C96.1395 13.9214 96.1134 14.3406 96.1134 14.4194C96.1134 14.5107 96.0869 14.6291 96.0094 14.6291C95.9568 14.6291 95.9311 14.5893 95.9311 14.5241C95.9311 14.4194 95.9311 14.3017 95.8783 14.158C95.839 14.0006 95.7352 13.8695 95.2915 13.8164C94.9782 13.7775 93.752 13.7641 93.5566 13.7641C93.4913 13.7641 93.4784 13.8039 93.4784 13.8426V14.7735C93.4784 15.1528 93.4652 16.4503 93.4784 16.6727C93.5045 17.4199 93.7133 17.5636 94.8476 17.5636C95.148 17.5636 95.6956 17.5636 95.9959 17.4456C96.2957 17.3145 96.4524 17.1177 96.5176 16.6727C96.5439 16.5416 96.57 16.5022 96.6353 16.5022C96.7006 16.5022 96.7131 16.5947 96.7131 16.6727C96.7131 16.7516 96.6221 17.5112 96.5569 17.7469C96.4787 18.0354 96.3605 18.0354 95.9175 18.0354C95.0566 18.0354 94.3914 18.0087 93.9219 17.996C93.4387 17.9698 93.1392 17.9698 92.9694 17.9698C92.9433 17.9698 92.7218 17.9698 92.4738 17.983C92.2523 17.996 91.9911 18.0087 91.8086 18.0087C91.6912 18.0087 91.6258 17.983 91.6258 17.9174C91.6258 17.8781 91.6519 17.8255 91.7172 17.8255C91.8218 17.8255 91.9655 17.7867 92.0693 17.7731C92.2911 17.7337 92.3176 17.5112 92.3693 17.1837C92.4345 16.7252 92.4345 15.8471 92.4345 14.7735V12.8079Z" fill="#C3C2CB"/>
<path d="M101.655 13.7509C101.655 13.8164 101.68 13.8563 101.733 13.8952C101.902 13.987 102.489 14.0658 102.998 14.0658C103.272 14.0658 103.585 14.0525 103.859 13.8695C104.25 13.6067 104.55 13.0174 104.55 12.1658C104.55 10.7775 103.794 9.97802 102.568 9.97802C102.228 9.97802 101.864 10.0174 101.746 10.0436C101.693 10.0697 101.655 10.1096 101.655 10.1747V13.7509ZM100.663 12.808C100.663 11.0788 100.663 10.7641 100.637 10.4104C100.611 10.0308 100.546 9.84682 100.167 9.79491C100.076 9.78172 99.8805 9.76853 99.776 9.76853C99.7369 9.76853 99.6846 9.71616 99.6846 9.67675C99.6846 9.61119 99.7369 9.58496 99.8671 9.58496C100.389 9.58496 101.159 9.61118 101.224 9.61118C101.341 9.61118 102.307 9.58496 102.659 9.58496C103.389 9.58496 104.198 9.65052 104.799 10.0697C105.085 10.2792 105.594 10.8164 105.594 11.5893C105.594 12.4147 105.255 13.2141 104.185 14.1314C105.124 15.3102 105.92 16.3192 106.585 17.0134C107.198 17.6424 107.577 17.7469 107.863 17.7867C108.085 17.8255 108.203 17.8255 108.269 17.8255C108.334 17.8255 108.372 17.878 108.372 17.9174C108.372 17.983 108.307 18.0087 108.099 18.0087H107.38C106.729 18.0087 106.442 17.9436 106.155 17.7867C105.659 17.5244 105.242 16.9871 104.589 16.1486C104.106 15.5463 103.598 14.8254 103.35 14.5241C103.298 14.4717 103.272 14.4586 103.194 14.4586L101.733 14.4329C101.68 14.4329 101.655 14.4586 101.655 14.5241V14.7864C101.655 15.8606 101.655 16.7251 101.707 17.1837C101.746 17.5112 101.811 17.7211 102.163 17.7731C102.32 17.7993 102.568 17.8255 102.672 17.8255C102.75 17.8255 102.763 17.878 102.763 17.9174C102.763 17.9698 102.711 18.0087 102.58 18.0087C101.955 18.0087 101.224 17.9698 101.172 17.9698C101.159 17.9698 100.389 18.0087 100.037 18.0087C99.9197 18.0087 99.8544 17.983 99.8544 17.9174C99.8544 17.878 99.8805 17.8255 99.9453 17.8255C100.05 17.8255 100.193 17.7993 100.298 17.7731C100.519 17.7211 100.546 17.5112 100.598 17.1837C100.663 16.7251 100.663 15.8471 100.663 14.7735V12.808Z" fill="#C3C2CB"/>
<path d="M39.8841 28.3138C39.8841 29.4898 39.8841 30.4572 39.9454 30.9717C39.9819 31.3266 40.0548 31.5959 40.4207 31.6449C40.5914 31.6693 40.8595 31.6942 40.9696 31.6942C41.0425 31.6942 41.0667 31.7304 41.0667 31.7676C41.0667 31.8289 41.006 31.8651 40.8718 31.8651C40.2012 31.8651 39.433 31.8289 39.3724 31.8289C39.3109 31.8289 38.5428 31.8651 38.1773 31.8651C38.0432 31.8651 37.9823 31.8407 37.9823 31.7676C37.9823 31.7304 38.0066 31.6942 38.0795 31.6942C38.1895 31.6942 38.3355 31.6693 38.4456 31.6449C38.6891 31.5959 38.7505 31.3266 38.799 30.9717C38.8599 30.4572 38.8599 29.4898 38.8599 28.3138V26.1587C38.8599 24.2485 38.8599 23.9054 38.8356 23.5137C38.8113 23.0973 38.6891 22.8892 38.4211 22.8277C38.2869 22.791 38.1283 22.7786 38.0432 22.7786C37.9946 22.7786 37.9453 22.7542 37.9453 22.7057C37.9453 22.6318 38.0066 22.6074 38.1406 22.6074C38.5428 22.6074 39.3109 22.6441 39.3724 22.6441C39.433 22.6441 40.2012 22.6074 40.5671 22.6074C40.7015 22.6074 40.7624 22.6318 40.7624 22.7057C40.7624 22.7542 40.7136 22.7786 40.6645 22.7786C40.5794 22.7786 40.5063 22.791 40.3599 22.8154C40.0305 22.8772 39.9331 23.0851 39.9089 23.5137C39.8841 23.9054 39.8841 24.2485 39.8841 26.1587V28.3138Z" fill="#C3C2CB"/>
<path d="M45.3691 30.4446C45.3934 31.3018 45.4912 31.559 45.7837 31.6323C45.9787 31.6814 46.2224 31.6939 46.3203 31.6939C46.3688 31.6939 46.4054 31.7302 46.4054 31.7797C46.4054 31.8405 46.3323 31.8649 46.2102 31.8649C45.6007 31.8649 45.1739 31.8286 45.0765 31.8286C44.979 31.8286 44.5279 31.8649 44.0401 31.8649C43.9307 31.8649 43.8691 31.8526 43.8691 31.7797C43.8691 31.7302 43.9061 31.6939 43.9549 31.6939C44.0401 31.6939 44.2351 31.6814 44.3937 31.6323C44.6619 31.559 44.6986 31.2774 44.6986 30.3344V24.3707C44.6986 23.9539 44.7594 23.8438 44.8446 23.8438C44.9667 23.8438 45.1497 24.0523 45.259 24.1625C45.43 24.3341 46.9906 25.9989 48.6491 27.7138C49.7096 28.8159 50.8559 30.0529 51.1855 30.3953L51.0755 25.1788C51.0634 24.5051 51.0026 24.2726 50.6732 24.2115C50.478 24.1748 50.2342 24.1625 50.1491 24.1625C50.0755 24.1625 50.0635 24.1009 50.0635 24.0645C50.0635 24.0034 50.1491 23.991 50.2707 23.991C50.7587 23.991 51.2704 24.0156 51.3926 24.0156C51.5142 24.0156 51.8679 23.991 52.3073 23.991C52.4168 23.991 52.5023 24.0034 52.5023 24.0645C52.5023 24.1009 52.4533 24.1625 52.3802 24.1625C52.3314 24.1625 52.2461 24.1625 52.1244 24.1869C51.7707 24.2603 51.7462 24.4684 51.7462 25.0931L51.7221 31.1917C51.7221 31.8772 51.7099 31.9388 51.6363 31.9388C51.527 31.9388 51.4171 31.8526 50.8194 31.3018C50.7095 31.2039 49.161 29.6731 48.0273 28.4848C46.7834 27.1748 45.5761 25.9013 45.247 25.5338L45.3691 30.4446Z" fill="#C3C2CB"/>
<path d="M55.147 31.7182C55.0006 31.6447 54.9883 31.6081 54.9883 31.3265C54.9883 30.8124 55.0375 30.3954 55.0498 30.2244C55.0498 30.1138 55.0741 30.053 55.1349 30.053C55.1958 30.053 55.2323 30.0892 55.2323 30.1754C55.2323 30.2606 55.2323 30.408 55.2691 30.5548C55.44 31.3141 56.2445 31.5834 56.9637 31.5834C58.0246 31.5834 58.5735 30.9834 58.5735 30.1995C58.5735 29.4529 58.1713 29.0975 57.2199 28.3876L56.7321 28.0198C55.5737 27.1505 55.1958 26.5135 55.1958 25.7912C55.1958 24.5665 56.1589 23.8315 57.5733 23.8315C58.0006 23.8315 58.4271 23.8929 58.6829 23.9539C58.8901 24.0034 58.9757 24.0034 59.0609 24.0034C59.1467 24.0034 59.171 24.0157 59.171 24.0768C59.171 24.1258 59.1219 24.4685 59.1219 25.1789C59.1219 25.338 59.1097 25.4114 59.0366 25.4114C58.9637 25.4114 58.9515 25.3624 58.9394 25.2767C58.9268 25.1545 58.8416 24.8725 58.7808 24.7623C58.7072 24.6404 58.3535 24.2482 57.3906 24.2482C56.6104 24.2482 55.9637 24.6404 55.9637 25.3747C55.9637 26.0361 56.2933 26.4159 57.3536 27.1382L57.6589 27.3463C58.9637 28.2402 59.4146 28.9628 59.4146 29.8571C59.4146 30.4693 59.183 31.1306 58.4149 31.6325C57.9634 31.9265 57.293 31.9999 56.7078 31.9999C56.2082 31.9999 55.586 31.9265 55.147 31.7182Z" fill="#C3C2CB"/>
<path d="M65.753 28.8402C65.753 29.8449 65.753 30.665 65.8017 31.0934C65.8383 31.3998 65.8869 31.5956 66.2162 31.6447C66.3627 31.669 66.6065 31.6939 66.7043 31.6939C66.7772 31.6939 66.7892 31.7424 66.7892 31.7796C66.7892 31.8286 66.7409 31.8649 66.6187 31.8649C66.0333 31.8649 65.3507 31.8286 65.2894 31.8286C65.2409 31.8286 64.497 31.8649 64.1801 31.8649C64.0582 31.8649 64.0094 31.8404 64.0094 31.7796C64.0094 31.7424 64.0339 31.7058 64.0947 31.7058C64.1926 31.7058 64.314 31.6814 64.4118 31.6567C64.6311 31.6079 64.692 31.3998 64.7285 31.0934C64.7778 30.665 64.7778 29.8449 64.7778 28.8402V24.4684L63.229 24.4928C62.5582 24.5051 62.3023 24.5785 62.1437 24.8234C62.022 25.0073 62.0095 25.0808 61.973 25.1544C61.9487 25.2399 61.9121 25.2522 61.8633 25.2522C61.8393 25.2522 61.79 25.2278 61.79 25.1665C61.79 25.0564 62.0095 24.1257 62.022 24.0396C62.0463 23.9789 62.0951 23.8438 62.1316 23.8438C62.205 23.8438 62.3144 23.9295 62.6072 23.9666C62.9118 24.0033 63.3263 24.0156 63.4487 24.0156H67.4967C67.8499 24.0156 68.0942 23.991 68.2649 23.9666C68.4232 23.9422 68.5208 23.9171 68.5696 23.9171C68.6182 23.9171 68.6182 23.9789 68.6182 24.0396C68.6182 24.3583 68.5816 25.1054 68.5816 25.2278C68.5816 25.3137 68.533 25.3623 68.4842 25.3623C68.4352 25.3623 68.4109 25.3261 68.3986 25.1788L68.3866 25.0687C68.35 24.75 68.1185 24.5174 67.0945 24.4928L65.753 24.4684V28.8402Z" fill="#C3C2CB"/>
<path d="M72.7998 28.8404C72.7998 29.8451 72.7998 30.6652 72.8484 31.0936C72.8849 31.4 72.9215 31.5958 73.2384 31.6449C73.3973 31.6693 73.6288 31.6941 73.726 31.6941C73.7872 31.6941 73.8118 31.7426 73.8118 31.7798C73.8118 31.8288 73.763 31.865 73.6411 31.865C73.0434 31.865 72.3483 31.8288 72.2997 31.8288C72.2389 31.8288 71.5679 31.865 71.239 31.865C71.1291 31.865 71.0683 31.8407 71.0683 31.7798C71.0683 31.7426 71.0928 31.6941 71.1534 31.6941C71.2512 31.6941 71.3852 31.6693 71.4828 31.6449C71.6902 31.5958 71.7265 31.4 71.7631 31.0936C71.8123 30.6652 71.8244 29.8451 71.8244 28.8404V27.0036C71.8244 25.3872 71.8244 25.0933 71.8001 24.7625C71.7751 24.4075 71.6902 24.2484 71.4585 24.1993C71.3364 24.1749 71.2022 24.1627 71.1291 24.1627C71.0806 24.1627 71.0439 24.1136 71.0439 24.0769C71.0439 24.0158 71.0928 23.9912 71.2147 23.9912C71.5679 23.9912 72.2389 24.0158 72.2997 24.0158C72.3483 24.0158 73.0434 23.9912 73.373 23.9912C73.4945 23.9912 73.5433 24.0158 73.5433 24.0769C73.5433 24.1136 73.4945 24.1627 73.4579 24.1627C73.3852 24.1627 73.3117 24.1627 73.19 24.1871C72.8972 24.2484 72.8361 24.3952 72.8119 24.7625C72.7998 25.0933 72.7998 25.3872 72.7998 27.0036V28.8404Z" fill="#C3C2CB"/>
<path d="M79.8829 28.8402C79.8829 29.8449 79.8829 30.665 79.9317 31.0934C79.968 31.3998 80.0166 31.5956 80.3462 31.6447C80.4923 31.669 80.7361 31.6939 80.834 31.6939C80.9071 31.6939 80.9189 31.7424 80.9189 31.7796C80.9189 31.8286 80.8705 31.8649 80.7484 31.8649C80.1632 31.8649 79.4804 31.8286 79.4193 31.8286C79.3705 31.8286 78.6266 31.8649 78.31 31.8649C78.1876 31.8649 78.1393 31.8404 78.1393 31.7796C78.1393 31.7424 78.1636 31.7058 78.2242 31.7058C78.3222 31.7058 78.4437 31.6814 78.5415 31.6567C78.761 31.6079 78.8219 31.3998 78.8584 31.0934C78.9074 30.665 78.9074 29.8449 78.9074 28.8402V24.4684L77.3588 24.4928C76.6878 24.5051 76.4318 24.5785 76.2736 24.8234C76.1519 25.0073 76.1392 25.0808 76.1027 25.1544C76.0786 25.2399 76.0418 25.2522 75.9932 25.2522C75.9687 25.2522 75.9199 25.2278 75.9199 25.1665C75.9199 25.0564 76.1392 24.1257 76.1519 24.0396C76.1759 23.9789 76.2248 23.8438 76.2613 23.8438C76.3347 23.8438 76.4443 23.9295 76.7371 23.9666C77.0417 24.0033 77.456 24.0156 77.5783 24.0156H81.6267C81.9797 24.0156 82.2239 23.991 82.3946 23.9666C82.5528 23.9422 82.6507 23.9171 82.6992 23.9171C82.7478 23.9171 82.7478 23.9789 82.7478 24.0396C82.7478 24.3583 82.7113 25.1054 82.7113 25.2278C82.7113 25.3137 82.6627 25.3623 82.6141 25.3623C82.5651 25.3623 82.5408 25.3261 82.5286 25.1788L82.5163 25.0687C82.4797 24.75 82.2482 24.5174 81.2239 24.4928L79.8829 24.4684V28.8402Z" fill="#C3C2CB"/>
<path d="M85.4046 27.0036C85.4046 25.3872 85.4046 25.0933 85.3803 24.7625C85.3558 24.4319 85.2949 24.2356 84.941 24.1871C84.8557 24.1749 84.673 24.1627 84.5756 24.1627C84.5386 24.1627 84.4902 24.1136 84.4902 24.0769C84.4902 24.0158 84.5386 23.9912 84.6607 23.9912C85.1487 23.9912 85.7948 24.0158 85.8919 24.0158C85.9898 24.0158 86.6603 23.9912 86.9777 23.9912C87.0998 23.9912 87.1604 24.0158 87.1604 24.0769C87.1604 24.1136 87.1118 24.1627 87.0628 24.1627C86.9897 24.1627 86.9288 24.1627 86.7947 24.1871C86.5143 24.2356 86.4529 24.4196 86.4288 24.7625C86.4043 25.0933 86.4043 25.3872 86.4043 27.0036V28.4611C86.4043 29.9671 86.7338 30.5918 87.1969 31.0084C87.7216 31.4857 88.1847 31.5712 88.7943 31.5712C89.4529 31.5712 90.0871 31.2776 90.4528 30.8369C90.9524 30.2368 91.0625 29.3796 91.0625 28.3138V27.0036C91.0625 25.3872 91.0503 25.0933 91.038 24.7625C91.026 24.4319 90.9645 24.2356 90.6115 24.1871C90.5259 24.1749 90.3425 24.1627 90.2455 24.1627C90.1963 24.1627 90.1597 24.1136 90.1597 24.0769C90.1597 24.0158 90.209 23.9912 90.3305 23.9912C90.8065 23.9912 91.428 24.0158 91.489 24.0158C91.5621 24.0158 92.074 23.9912 92.3914 23.9912C92.5133 23.9912 92.5623 24.0158 92.5623 24.0769C92.5623 24.1136 92.5253 24.1627 92.4767 24.1627C92.4034 24.1627 92.3421 24.1627 92.2084 24.1871C91.9156 24.2484 91.855 24.4196 91.8303 24.7625C91.8064 25.0933 91.8184 25.3872 91.8184 27.0036V28.118C91.8184 29.2449 91.6718 30.5061 90.8187 31.2404C90.0383 31.9145 89.2086 32 88.5746 32C88.2212 32 87.0998 31.9757 86.3432 31.2653C85.8189 30.7753 85.4046 30.0531 85.4046 28.5345V27.0036Z" fill="#C3C2CB"/>
<path d="M98.1934 28.8402C98.1934 29.8449 98.1934 30.665 98.2422 31.0934C98.2783 31.3998 98.3269 31.5956 98.6565 31.6447C98.8027 31.669 99.0465 31.6939 99.1443 31.6939C99.2176 31.6939 99.2292 31.7424 99.2292 31.7796C99.2292 31.8286 99.1808 31.8649 99.0587 31.8649C98.4738 31.8649 97.7907 31.8286 97.7299 31.8286C97.6811 31.8286 96.9372 31.8649 96.6203 31.8649C96.4979 31.8649 96.4498 31.8404 96.4498 31.7796C96.4498 31.7424 96.4741 31.7058 96.5345 31.7058C96.6326 31.7058 96.754 31.6814 96.8518 31.6567C97.0714 31.6079 97.1322 31.3998 97.1687 31.0934C97.218 30.665 97.218 29.8449 97.218 28.8402V24.4684L95.6694 24.4928C94.9982 24.5051 94.7426 24.5785 94.5839 24.8234C94.4625 25.0073 94.4502 25.0808 94.4132 25.1544C94.3889 25.2399 94.3523 25.2522 94.3035 25.2522C94.279 25.2522 94.2305 25.2278 94.2305 25.1665C94.2305 25.0564 94.4502 24.1257 94.4625 24.0396C94.4863 23.9789 94.5351 23.8438 94.5716 23.8438C94.6447 23.8438 94.7544 23.9295 95.0474 23.9666C95.352 24.0033 95.7663 24.0156 95.8887 24.0156H99.937C100.29 24.0156 100.534 23.991 100.705 23.9666C100.863 23.9422 100.961 23.9171 101.01 23.9171C101.058 23.9171 101.058 23.9789 101.058 24.0396C101.058 24.3583 101.022 25.1054 101.022 25.2278C101.022 25.3137 100.973 25.3623 100.925 25.3623C100.875 25.3623 100.851 25.3261 100.839 25.1788L100.827 25.0687C100.79 24.75 100.559 24.5174 99.5343 24.4928L98.1934 24.4684V28.8402Z" fill="#C3C2CB"/>
<path d="M104.264 27.0036C104.264 25.3872 104.264 25.0933 104.24 24.7625C104.215 24.4075 104.154 24.2356 103.8 24.1871C103.715 24.175 103.532 24.1627 103.434 24.1627C103.398 24.1627 103.35 24.1136 103.35 24.0769C103.35 24.0158 103.398 23.9912 103.52 23.9912C104.008 23.9912 104.703 24.0159 104.764 24.0159C104.837 24.0159 107.08 24.0275 107.324 24.0159C107.531 24.0036 107.726 23.9668 107.812 23.9541C107.861 23.9424 107.909 23.9053 107.959 23.9053C107.995 23.9053 108.007 23.9541 108.007 24.0036C108.007 24.0769 107.947 24.1993 107.922 24.493C107.909 24.591 107.885 25.0566 107.861 25.179C107.849 25.2281 107.812 25.2892 107.763 25.2892C107.703 25.2892 107.678 25.2401 107.678 25.1546C107.678 25.081 107.665 24.9094 107.617 24.7873C107.544 24.6154 107.434 24.5421 106.849 24.4686C106.666 24.4442 105.422 24.432 105.3 24.432C105.252 24.432 105.239 24.4686 105.239 24.5421V27.3709C105.239 27.4443 105.239 27.4815 105.3 27.4815C105.434 27.4815 106.849 27.4815 107.092 27.4566C107.349 27.4324 107.507 27.4204 107.617 27.3096C107.69 27.2366 107.739 27.175 107.775 27.175C107.812 27.175 107.836 27.1994 107.836 27.2608C107.836 27.3218 107.775 27.4937 107.751 27.8364C107.726 28.0446 107.703 28.4362 107.703 28.5101C107.703 28.5958 107.677 28.706 107.605 28.706C107.556 28.706 107.531 28.6693 107.531 28.6079C107.531 28.5101 107.531 28.4 107.483 28.2652C107.446 28.118 107.349 27.9956 106.934 27.9465C106.641 27.9098 105.495 27.8976 105.312 27.8976C105.252 27.8976 105.239 27.9342 105.239 27.9711V28.8405C105.239 29.1959 105.227 30.4081 105.239 30.6162C105.264 31.3144 105.458 31.449 106.519 31.449C106.8 31.449 107.312 31.449 107.593 31.3387C107.873 31.2165 108.019 31.0328 108.08 30.6162C108.104 30.4938 108.128 30.4571 108.19 30.4571C108.251 30.4571 108.263 30.5428 108.263 30.6162C108.263 30.6897 108.178 31.4001 108.116 31.6207C108.044 31.89 107.934 31.89 107.519 31.89C106.714 31.89 106.093 31.8651 105.654 31.8529C105.203 31.8289 104.922 31.8289 104.764 31.8289C104.739 31.8289 104.532 31.8289 104.3 31.8407C104.093 31.8529 103.85 31.8651 103.679 31.8651C103.569 31.8651 103.508 31.8407 103.508 31.7799C103.508 31.7427 103.532 31.6941 103.593 31.6941C103.691 31.6941 103.825 31.657 103.923 31.6449C104.13 31.6082 104.154 31.4001 104.203 31.0936C104.264 30.6653 104.264 29.8452 104.264 28.8405V27.0036Z" fill="#C3C2CB"/>
<defs>
<clipPath id="clip0_3127_101454">
<rect width="17.5814" height="28" fill="white" transform="translate(11.9629 6)"/>
</clipPath>
</defs>
</svg>
