<svg width="116" height="24" viewBox="0 0 116 24" fill="none" xmlns="http://www.w3.org/2000/svg">
<g id="image 98640 (Traced)">
<path id="Layer 1" fill-rule="evenodd" clip-rule="evenodd" d="M103.815 9.15887V18.3177H105.002H106.189V9.15887V0H105.002H103.815V9.15887ZM85.9688 3.1978C85.8663 3.46409 85.8331 4.03669 85.8945 4.46987C85.9871 5.12286 86.2093 5.25787 87.1933 5.25787C88.1747 5.25787 88.3999 5.12218 88.4915 4.47597C88.5522 4.04585 88.4193 3.47359 88.1954 3.20391C87.672 2.5733 86.2099 2.56923 85.9688 3.1978ZM59.7167 5.42748C59.7167 7.0106 59.6038 7.46278 59.2079 7.46278C58.8914 7.46278 58.6991 7.783 58.6991 8.31082C58.6991 8.81558 58.8931 9.15887 59.1787 9.15887C59.558 9.15887 59.6821 9.98181 59.7724 13.0901C59.8843 16.9565 59.9026 17.0352 60.8806 17.8754C61.691 18.5721 62.1191 18.697 63.1981 18.5525C64.8365 18.3327 64.9413 18.2292 64.6608 17.1108C64.4888 16.4252 64.2758 16.2529 63.766 16.3862C62.4769 16.7234 62.0912 15.796 62.0912 12.3573V9.15887H63.4481C64.6693 9.15887 64.805 9.07406 64.805 8.31082C64.805 7.54759 64.6693 7.46278 63.4481 7.46278H62.0912V5.42748V3.39217H60.904H59.7167V5.42748ZM2.72787 7.8868C-0.716542 10.2379 -0.415317 16.2105 3.23704 17.9785C5.01318 18.8381 6.66483 18.8395 8.07088 17.9823L9.17334 17.3099V18.2635C9.17334 20.5145 6.14786 21.5925 4.09322 20.0735L3.07252 19.3191L1.70683 20.0159C0.538902 20.6115 0.390664 20.8059 0.684426 21.3547C2.59863 24.9318 10.1886 24.8646 12.1432 21.253C12.6154 20.3809 12.745 19.0101 12.8454 13.8231L12.9682 7.46278H11.0709C10.0271 7.46278 9.17334 7.60627 9.17334 7.78198C9.17334 7.95736 8.75339 7.88205 8.24049 7.61441C6.77643 6.85083 4.04844 6.9855 2.72787 7.8868ZM16.9757 7.48721C14.8043 8.39766 13.5832 10.3794 13.5832 12.9927C13.5832 15.1542 14.4658 16.7143 16.2979 17.7906C18.0432 18.8157 21.7749 18.7723 23.4883 17.7071C27.0287 15.5056 27.1149 10.57 23.6576 8.00858C22.5653 7.19921 18.4316 6.87661 16.9757 7.48721ZM30.4592 7.65681C29.9189 7.9499 29.5264 8.01571 29.5264 7.81285C29.5264 7.62018 28.9921 7.46278 28.3391 7.46278H27.1519V12.8903V18.3177H28.3391H29.5264V14.6053C29.5264 11.2444 29.5986 10.8088 30.2896 10.0056C31.3056 8.8244 33.1116 8.73485 33.9918 9.8217C34.5146 10.4672 34.6146 11.2111 34.6146 14.4544V18.3177H35.8019H36.9892V14.662C36.9892 10.7532 37.3291 9.72706 38.8047 9.18126C39.8325 8.80065 41.2382 9.38411 41.6914 10.379C41.9037 10.8448 42.0774 12.8217 42.0774 14.7719V18.3177H43.2908H44.5045L44.3933 13.7095L44.2823 9.10154L43.1744 8.11238C41.6934 6.79045 39.363 6.7277 37.5455 7.96143C36.8664 8.42209 36.3107 8.65513 36.3107 8.47908C36.3107 7.89223 34.328 7.12323 32.8507 7.13713C32.0485 7.1446 30.9725 7.37832 30.4592 7.65681ZM48.1833 7.86374C47.5303 8.3037 46.7291 9.19483 46.4031 9.84409C45.5568 11.528 45.6239 14.3346 46.5497 15.9819C48.0147 18.5884 51.7987 19.4127 54.2584 17.6614C55.3038 16.9168 55.3069 16.9168 55.3069 17.6162C55.3069 18.1695 55.522 18.3177 56.3246 18.3177H57.3422V12.8903V7.46278H56.3246C55.5057 7.46278 55.3069 7.60695 55.3069 8.20024V8.93804L54.448 8.13104C53.1468 6.9085 49.8126 6.76637 48.1833 7.86374ZM67.8233 7.88952C66.4305 8.81524 65.1442 11.2247 65.1442 12.9089C65.1442 17.8581 71.7539 20.5478 75.3801 17.0738C76.5517 15.951 76.5697 15.6949 75.509 15.2115C74.7956 14.8866 74.5253 14.9636 73.5741 15.7641C72.6328 16.5562 72.2464 16.6691 70.9713 16.5257C69.3763 16.3459 68.109 15.3645 67.7002 13.9927L67.4729 13.2295H72.0754H76.6776L76.6769 12.127C76.6762 10.5785 75.6928 8.79896 74.3377 7.89359C72.7138 6.80877 69.4529 6.80673 67.8233 7.88952ZM81.1631 7.65173C80.7404 7.94752 80.409 8.02215 80.409 7.82133C80.409 7.62425 79.8747 7.46278 79.2217 7.46278H78.0345V12.8903V18.3177H79.2217H80.409V14.5711C80.409 10.9971 80.4494 10.7837 81.2828 9.95026C82.006 9.22705 82.3798 9.10629 83.4504 9.25012C84.5793 9.40141 84.7923 9.31728 85.1248 8.58729C85.3344 8.12731 85.4185 7.61 85.312 7.43734C84.9938 6.92275 81.9813 7.07845 81.1631 7.65173ZM92.2816 7.86374C90.6829 8.94075 89.9081 10.5924 89.9078 12.9249C89.9071 15.0199 90.6632 16.4972 92.3912 17.7777C93.7813 18.8076 96.8061 18.7682 98.3027 17.701C99.3899 16.9256 99.4052 16.9242 99.4052 17.6162C99.4052 18.1919 99.6182 18.3177 100.592 18.3177H101.78V12.8903V7.46278H100.592C99.5995 7.46278 99.4052 7.58354 99.4052 8.20024V8.93804L98.5463 8.13104C97.245 6.9085 93.9108 6.76637 92.2816 7.86374ZM109.751 7.53334C108.671 8.15309 108.247 8.90038 108.236 10.2087C108.223 11.6769 108.738 12.1949 111.363 13.3509C112.942 14.0463 113.313 14.3618 113.313 15.0087C113.313 16.8086 111.027 17.2407 109.414 15.7458L108.469 14.8699L107.775 15.5643C107.087 16.2512 107.087 16.2658 107.737 16.9836C109.175 18.5732 111.366 19.064 113.579 18.2923C114.93 17.8215 115.688 16.639 115.688 15.0022C115.688 13.2949 115.224 12.7427 112.96 11.7501C110.574 10.7043 110.034 10.1124 110.781 9.36443C111.483 8.66327 112.61 8.6704 113.627 9.38275C114.382 9.91159 114.458 9.90786 114.889 9.31762C115.541 8.42684 115.475 8.22432 114.348 7.64121C113.175 7.03469 110.721 6.97702 109.751 7.53334ZM85.8365 12.8903V18.3177H87.0237H88.211V12.8903V7.46278H87.0237H85.8365V12.8903ZM73.4469 10.091C73.9177 10.5622 74.3031 11.0792 74.3031 11.2403C74.3031 11.4014 72.8529 11.5334 71.0805 11.5334C67.6551 11.5334 67.1639 11.2491 68.5001 10.0398C69.9723 8.70737 72.0849 8.72908 73.4469 10.091ZM53.7265 9.85562C56.6672 12.1684 54.6498 17.1468 51.046 16.4704C48.7264 16.0355 47.4533 13.0633 48.6569 10.8923C49.6192 9.15582 52.1729 8.63342 53.7265 9.85562ZM98.0571 10.1331C99.321 11.397 99.6056 12.604 99.01 14.1769C97.646 17.7808 92.8125 17.0274 92.3749 13.1426C92.2087 11.6677 92.2826 11.4645 93.3919 10.3553C94.9665 8.78064 96.6256 8.7016 98.0571 10.1331ZM8.38839 10.914C10.0078 12.4354 8.8192 15.604 6.62921 15.604C5.38462 15.604 4.08508 14.1935 4.08508 12.8428C4.08508 10.5205 6.71469 9.34171 8.38839 10.914ZM21.7173 11.0168C23.2763 12.6766 22.0904 15.604 19.8587 15.604C17.5968 15.604 16.3871 12.4238 18.0571 10.8682C19.0934 9.90277 20.7328 9.96926 21.7173 11.0168Z" fill="#908E9F"/>
<path id="Layer 2" fill-rule="evenodd" clip-rule="evenodd" d="M103.814 9.15887V18.3177H105.001H106.188V9.15887V0H105.001H103.814V9.15887ZM85.9676 3.1978C85.8652 3.46409 85.8319 4.03669 85.8933 4.46987C85.9859 5.12286 86.2081 5.25787 87.1922 5.25787C88.1735 5.25787 88.3988 5.12218 88.4904 4.47597C88.5511 4.04585 88.4181 3.47359 88.1942 3.20391C87.6708 2.5733 86.2088 2.56923 85.9676 3.1978ZM59.7156 5.42748C59.7156 7.0106 59.6026 7.46278 59.2067 7.46278C58.8903 7.46278 58.6979 7.783 58.6979 8.31082C58.6979 8.81558 58.892 9.15887 59.1776 9.15887C59.5568 9.15887 59.681 9.98181 59.7712 13.0901C59.8831 16.9565 59.9015 17.0352 60.8794 17.8754C61.6898 18.5721 62.1179 18.697 63.197 18.5525C64.8354 18.3327 64.9402 18.2292 64.6597 17.1108C64.4877 16.4252 64.2747 16.2529 63.7648 16.3862C62.4758 16.7234 62.0901 15.796 62.0901 12.3573V9.15887H63.447C64.6681 9.15887 64.8038 9.07406 64.8038 8.31082C64.8038 7.54759 64.6681 7.46278 63.447 7.46278H62.0901V5.42748V3.39217H60.9028H59.7156V5.42748ZM2.79694 7.85051C1.26096 8.8339 0.352539 10.7464 0.352539 12.9961C0.352539 17.1257 4.42959 19.849 7.90012 18.0372L9.17219 17.3734V18.2072C9.17219 20.8391 5.89501 21.7903 3.69281 19.7974C3.19077 19.3429 2.97944 19.3659 1.71416 20.0114C0.372214 20.696 0.323366 20.7733 0.783684 21.4765C2.74334 24.4677 8.61214 24.8965 11.1899 22.2371C12.6502 20.7303 12.8859 19.4494 12.8954 12.9751L12.9036 7.46278H11.0379C9.98903 7.46278 9.17219 7.61509 9.17219 7.81082C9.17219 8.01028 8.74511 7.93769 8.1715 7.64121C6.7132 6.88713 4.14533 6.98686 2.79694 7.85051ZM16.8053 7.65783C14.4938 8.86307 13.582 10.3512 13.582 12.9181C13.582 16.0226 15.6061 18.1474 18.9393 18.5423C21.7765 18.8785 24.5944 17.5569 25.6113 15.4137C26.9302 12.6341 25.9136 9.41192 23.2395 7.89766C21.5977 6.96752 18.3606 6.8471 16.8053 7.65783ZM30.4581 7.65681C29.9177 7.9499 29.5252 8.01571 29.5252 7.81285C29.5252 7.62018 28.991 7.46278 28.338 7.46278H27.1507V12.8903V18.3177H28.338H29.5252V14.6053C29.5252 11.2444 29.5975 10.8088 30.2885 10.0056C31.3044 8.8244 33.1104 8.73485 33.9907 9.8217C34.5134 10.4672 34.6135 11.2111 34.6135 14.4544V18.3177H35.8008H36.988V14.662C36.988 10.7532 37.3279 9.72706 38.8035 9.18126C39.8313 8.80065 41.237 9.38411 41.6902 10.379C41.9026 10.8448 42.0763 12.8217 42.0763 14.7719V18.3177H43.2897H44.5034L44.3921 13.7095L44.2812 9.10154L43.1733 8.11238C41.6923 6.79045 39.3619 6.7277 37.5443 7.96143C36.8652 8.42209 36.3096 8.65513 36.3096 8.47908C36.3096 7.89223 34.3269 7.12323 32.8496 7.13713C32.0473 7.1446 30.9713 7.37832 30.4581 7.65681ZM48.1822 7.86374C47.5292 8.3037 46.728 9.19483 46.402 9.84409C45.5556 11.528 45.6228 14.3346 46.5485 15.9819C48.0136 18.5884 51.7976 19.4127 54.2572 17.6614C55.3027 16.9168 55.3057 16.9168 55.3057 17.6162C55.3057 18.1695 55.5208 18.3177 56.3234 18.3177H57.3411V12.8903V7.46278H56.3234C55.5045 7.46278 55.3057 7.60695 55.3057 8.20024V8.93804L54.4468 8.13104C53.1456 6.9085 49.8114 6.76637 48.1822 7.86374ZM67.8222 7.88952C66.4294 8.81524 65.1431 11.2247 65.1431 12.9089C65.1431 17.8581 71.7527 20.5478 75.3789 17.0738C76.5506 15.951 76.5686 15.6949 75.5078 15.2115C74.7945 14.8866 74.5241 14.9636 73.5729 15.7641C72.6316 16.5562 72.2452 16.6691 70.9701 16.5257C69.3751 16.3459 68.1078 15.3645 67.6991 13.9927L67.4718 13.2295H72.0743H76.6764L76.6758 12.127C76.6751 10.5785 75.6917 8.79896 74.3365 7.89359C72.7127 6.80877 69.4518 6.80673 67.8222 7.88952ZM81.1619 7.65173C80.7392 7.94752 80.4078 8.02215 80.4078 7.82133C80.4078 7.62425 79.8736 7.46278 79.2206 7.46278H78.0333V12.8903V18.3177H79.2206H80.4078V14.5711C80.4078 10.9971 80.4482 10.7837 81.2817 9.95026C82.0049 9.22705 82.3787 9.10629 83.4493 9.25012C84.5782 9.40141 84.7912 9.31728 85.1236 8.58729C85.3333 8.12731 85.4174 7.61 85.3109 7.43734C84.9927 6.92275 81.9801 7.07845 81.1619 7.65173ZM92.2804 7.86374C90.6817 8.94075 89.9069 10.5924 89.9066 12.9249C89.9059 15.0199 90.662 16.4972 92.39 17.7777C93.7801 18.8076 96.8049 18.7682 98.3015 17.701C99.3887 16.9256 99.404 16.9242 99.404 17.6162C99.404 18.1919 99.617 18.3177 100.591 18.3177H101.779V12.8903V7.46278H100.591C99.5984 7.46278 99.404 7.58354 99.404 8.20024V8.93804L98.5451 8.13104C97.2439 6.9085 93.9097 6.76637 92.2804 7.86374ZM109.75 7.53334C108.669 8.15309 108.246 8.90038 108.235 10.2087C108.222 11.6769 108.737 12.1949 111.361 13.3509C112.94 14.0463 113.312 14.3618 113.312 15.0087C113.312 16.8086 111.026 17.2407 109.413 15.7458L108.468 14.8699L107.774 15.5643C107.086 16.2512 107.086 16.2658 107.736 16.9836C109.174 18.5732 111.364 19.064 113.578 18.2923C114.929 17.8215 115.686 16.639 115.686 15.0022C115.686 13.2949 115.223 12.7427 112.959 11.7501C110.573 10.7043 110.032 10.1124 110.78 9.36443C111.481 8.66327 112.609 8.6704 113.625 9.38275C114.381 9.91159 114.457 9.90786 114.888 9.31762C115.54 8.42684 115.474 8.22432 114.347 7.64121C113.174 7.03469 110.72 6.97702 109.75 7.53334ZM85.8353 12.8903V18.3177H87.0226H88.2098V12.8903V7.46278H87.0226H85.8353V12.8903ZM73.4457 10.091C73.9166 10.5622 74.3019 11.0792 74.3019 11.2403C74.3019 11.4014 72.8518 11.5334 71.0794 11.5334C67.6539 11.5334 67.1628 11.2491 68.4989 10.0398C69.9711 8.70737 72.0838 8.72908 73.4457 10.091ZM53.7253 9.85562C56.666 12.1684 54.6487 17.1468 51.0448 16.4704C48.7253 16.0355 47.4522 13.0633 48.6557 10.8923C49.6181 9.15582 52.1717 8.63342 53.7253 9.85562ZM98.056 10.1331C99.3199 11.397 99.6045 12.604 99.0088 14.1769C97.6448 17.7808 92.8113 17.0274 92.3737 13.1426C92.2075 11.6677 92.2815 11.4645 93.3907 10.3553C94.9653 8.78064 96.6245 8.7016 98.056 10.1331ZM8.49376 10.855C9.53108 11.8923 9.4188 14.0039 8.27835 14.9008C7.78683 15.2875 7.04428 15.604 6.62806 15.604C6.21184 15.604 5.46929 15.2875 4.97777 14.9008C4.28305 14.3547 4.08393 13.9008 4.08393 12.8655C4.08393 11.1535 5.0083 10.1765 6.62806 10.1765C7.36314 10.1765 8.0738 10.435 8.49376 10.855ZM21.3708 10.5086C22.2249 10.9659 22.7911 12.7139 22.4098 13.7169C22.0397 14.6908 20.8043 15.604 19.8575 15.604C18.906 15.604 17.675 14.6891 17.3005 13.704C16.9399 12.7559 17.3999 11.2396 18.2415 10.6005C18.9087 10.0938 20.5078 10.0469 21.3708 10.5086Z" fill="#908E9F"/>
<path id="Layer 3" fill-rule="evenodd" clip-rule="evenodd" d="M103.814 9.15887V18.3177H105.001H106.188V9.15887V0H105.001H103.814V9.15887ZM85.9676 3.1978C85.8652 3.46409 85.8319 4.03669 85.8933 4.46987C85.9859 5.12286 86.2081 5.25787 87.1922 5.25787C88.1735 5.25787 88.3988 5.12218 88.4904 4.47597C88.5511 4.04585 88.4181 3.47359 88.1942 3.20391C87.6708 2.5733 86.2088 2.56923 85.9676 3.1978ZM59.7156 5.42748C59.7156 7.0106 59.6026 7.46278 59.2067 7.46278C58.8903 7.46278 58.6979 7.783 58.6979 8.31082C58.6979 8.81558 58.892 9.15887 59.1776 9.15887C59.5568 9.15887 59.681 9.98181 59.7712 13.0901C59.8831 16.9565 59.9015 17.0352 60.8794 17.8754C61.6898 18.5721 62.1179 18.697 63.197 18.5525C64.8354 18.3327 64.9402 18.2292 64.6597 17.1108C64.4877 16.4252 64.2747 16.2529 63.7648 16.3862C62.4758 16.7234 62.0901 15.796 62.0901 12.3573V9.15887H63.447C64.6681 9.15887 64.8038 9.07406 64.8038 8.31082C64.8038 7.54759 64.6681 7.46278 63.447 7.46278H62.0901V5.42748V3.39217H60.9028H59.7156V5.42748ZM2.79694 7.85051C1.26096 8.8339 0.352539 10.7464 0.352539 12.9961C0.352539 17.1257 4.42959 19.849 7.90012 18.0372L9.17219 17.3734V18.2072C9.17219 20.8391 5.89501 21.7903 3.69281 19.7974C3.19077 19.3429 2.97944 19.3659 1.71416 20.0114C0.372214 20.696 0.323366 20.7733 0.783684 21.4765C2.74334 24.4677 8.61214 24.8965 11.1899 22.2371C12.6502 20.7303 12.8859 19.4494 12.8954 12.9751L12.9036 7.46278H11.0379C9.98903 7.46278 9.17219 7.61509 9.17219 7.81082C9.17219 8.01028 8.74511 7.93769 8.1715 7.64121C6.7132 6.88713 4.14533 6.98686 2.79694 7.85051ZM16.8053 7.65783C14.4938 8.86307 13.582 10.3512 13.582 12.9181C13.582 16.0226 15.6061 18.1474 18.9393 18.5423C21.7765 18.8785 24.5944 17.5569 25.6113 15.4137C26.9302 12.6341 25.9136 9.41192 23.2395 7.89766C21.5977 6.96752 18.3606 6.8471 16.8053 7.65783ZM30.4581 7.65681C29.9177 7.9499 29.5252 8.01571 29.5252 7.81285C29.5252 7.62018 28.991 7.46278 28.338 7.46278H27.1507V12.8903V18.3177H28.338H29.5252V14.6053C29.5252 11.2444 29.5975 10.8088 30.2885 10.0056C31.3044 8.8244 33.1104 8.73485 33.9907 9.8217C34.5134 10.4672 34.6135 11.2111 34.6135 14.4544V18.3177H35.8008H36.988V14.662C36.988 10.7532 37.3279 9.72706 38.8035 9.18126C39.8313 8.80065 41.237 9.38411 41.6902 10.379C41.9026 10.8448 42.0763 12.8217 42.0763 14.7719V18.3177H43.2897H44.5034L44.3921 13.7095L44.2812 9.10154L43.1733 8.11238C41.6923 6.79045 39.3619 6.7277 37.5443 7.96143C36.8652 8.42209 36.3096 8.65513 36.3096 8.47908C36.3096 7.89223 34.3269 7.12323 32.8496 7.13713C32.0473 7.1446 30.9713 7.37832 30.4581 7.65681ZM48.1822 7.86374C47.5292 8.3037 46.728 9.19483 46.402 9.84409C45.5556 11.528 45.6228 14.3346 46.5485 15.9819C48.0136 18.5884 51.7976 19.4127 54.2572 17.6614C55.3027 16.9168 55.3057 16.9168 55.3057 17.6162C55.3057 18.1695 55.5208 18.3177 56.3234 18.3177H57.3411V12.8903V7.46278H56.3234C55.5045 7.46278 55.3057 7.60695 55.3057 8.20024V8.93804L54.4468 8.13104C53.1456 6.9085 49.8114 6.76637 48.1822 7.86374ZM67.8222 7.88952C66.4294 8.81524 65.1431 11.2247 65.1431 12.9089C65.1431 17.8581 71.7527 20.5478 75.3789 17.0738C76.5506 15.951 76.5686 15.6949 75.5078 15.2115C74.7945 14.8866 74.5241 14.9636 73.5729 15.7641C72.6316 16.5562 72.2452 16.6691 70.9701 16.5257C69.3751 16.3459 68.1078 15.3645 67.6991 13.9927L67.4718 13.2295H72.0743H76.6764L76.6758 12.127C76.6751 10.5785 75.6917 8.79896 74.3365 7.89359C72.7127 6.80877 69.4518 6.80673 67.8222 7.88952ZM81.1619 7.65173C80.7392 7.94752 80.4078 8.02215 80.4078 7.82133C80.4078 7.62425 79.8736 7.46278 79.2206 7.46278H78.0333V12.8903V18.3177H79.2206H80.4078V14.5711C80.4078 10.9971 80.4482 10.7837 81.2817 9.95026C82.0049 9.22705 82.3787 9.10629 83.4493 9.25012C84.5782 9.40141 84.7912 9.31728 85.1236 8.58729C85.3333 8.12731 85.4174 7.61 85.3109 7.43734C84.9927 6.92275 81.9801 7.07845 81.1619 7.65173ZM92.2804 7.86374C90.6817 8.94075 89.9069 10.5924 89.9066 12.9249C89.9059 15.0199 90.662 16.4972 92.39 17.7777C93.7801 18.8076 96.8049 18.7682 98.3015 17.701C99.3887 16.9256 99.404 16.9242 99.404 17.6162C99.404 18.1919 99.617 18.3177 100.591 18.3177H101.779V12.8903V7.46278H100.591C99.5984 7.46278 99.404 7.58354 99.404 8.20024V8.93804L98.5451 8.13104C97.2439 6.9085 93.9097 6.76637 92.2804 7.86374ZM109.75 7.53334C108.669 8.15309 108.246 8.90038 108.235 10.2087C108.222 11.6769 108.737 12.1949 111.361 13.3509C112.94 14.0463 113.312 14.3618 113.312 15.0087C113.312 16.8086 111.026 17.2407 109.413 15.7458L108.468 14.8699L107.774 15.5643C107.086 16.2512 107.086 16.2658 107.736 16.9836C109.174 18.5732 111.364 19.064 113.578 18.2923C114.929 17.8215 115.686 16.639 115.686 15.0022C115.686 13.2949 115.223 12.7427 112.959 11.7501C110.573 10.7043 110.032 10.1124 110.78 9.36443C111.481 8.66327 112.609 8.6704 113.625 9.38275C114.381 9.91159 114.457 9.90786 114.888 9.31762C115.54 8.42684 115.474 8.22432 114.347 7.64121C113.174 7.03469 110.72 6.97702 109.75 7.53334ZM85.8353 12.8903V18.3177H87.0226H88.2098V12.8903V7.46278H87.0226H85.8353V12.8903ZM73.4457 10.091C73.9166 10.5622 74.3019 11.0792 74.3019 11.2403C74.3019 11.4014 72.8518 11.5334 71.0794 11.5334C67.6539 11.5334 67.1628 11.2491 68.4989 10.0398C69.9711 8.70737 72.0838 8.72908 73.4457 10.091ZM53.7253 9.85562C56.666 12.1684 54.6487 17.1468 51.0448 16.4704C48.7253 16.0355 47.4522 13.0633 48.6557 10.8923C49.6181 9.15582 52.1717 8.63342 53.7253 9.85562ZM98.056 10.1331C99.3199 11.397 99.6045 12.604 99.0088 14.1769C97.6448 17.7808 92.8113 17.0274 92.3737 13.1426C92.2075 11.6677 92.2815 11.4645 93.3907 10.3553C94.9653 8.78064 96.6245 8.7016 98.056 10.1331ZM8.49376 10.855C9.53108 11.8923 9.4188 14.0039 8.27835 14.9008C7.78683 15.2875 7.04428 15.604 6.62806 15.604C6.21184 15.604 5.46929 15.2875 4.97777 14.9008C4.28305 14.3547 4.08393 13.9008 4.08393 12.8655C4.08393 11.1535 5.0083 10.1765 6.62806 10.1765C7.36314 10.1765 8.0738 10.435 8.49376 10.855ZM21.3708 10.5086C22.2249 10.9659 22.7911 12.7139 22.4098 13.7169C22.0397 14.6908 20.8043 15.604 19.8575 15.604C18.906 15.604 17.675 14.6891 17.3005 13.704C16.9399 12.7559 17.3999 11.2396 18.2415 10.6005C18.9087 10.0938 20.5078 10.0469 21.3708 10.5086Z" fill="#908E9F"/>
<path id="Layer 4" fill-rule="evenodd" clip-rule="evenodd" d="M103.814 9.15887V18.3177H105.002H106.189V9.15887V0H105.002H103.814V9.15887ZM85.9682 3.1978C85.8658 3.46409 85.8326 4.03669 85.894 4.46987C85.9866 5.12286 86.2088 5.25787 87.1928 5.25787C88.1742 5.25787 88.3994 5.12218 88.491 4.47597C88.5517 4.04585 88.4188 3.47359 88.1949 3.20391C87.6715 2.5733 86.2094 2.56923 85.9682 3.1978ZM59.7162 5.42748C59.7162 7.01061 59.6033 7.46278 59.2074 7.46278C58.8909 7.46278 58.6986 7.783 58.6986 8.31083C58.6986 8.81558 58.8926 9.15887 59.1782 9.15887C59.5575 9.15887 59.6816 9.98181 59.7718 13.0901C59.8838 16.9565 59.9021 17.0352 60.8801 17.8754C61.6905 18.5722 62.1185 18.697 63.1976 18.5525C64.836 18.3327 64.9408 18.2292 64.6603 17.1108C64.4883 16.4252 64.2753 16.2529 63.7654 16.3862C62.4764 16.7234 62.0907 15.796 62.0907 12.3573V9.15887H63.4476C64.6688 9.15887 64.8045 9.07406 64.8045 8.31083C64.8045 7.54759 64.6688 7.46278 63.4476 7.46278H62.0907V5.42748V3.39217H60.9035H59.7162V5.42748ZM3.51061 7.56862C3.41698 7.71991 2.97973 7.98077 2.53909 8.14834C0.725292 8.83797 -0.336459 13.6518 0.906434 15.5511C2.76195 18.3856 5.63987 19.2204 8.37159 17.7163C9.01475 17.3622 9.11482 17.411 9.25627 18.1495C9.48558 19.3507 7.99811 20.8313 6.42482 20.9674C5.50385 21.0471 4.94516 20.8554 4.1524 20.1885L3.10117 19.3042L1.67578 20.0311C0.598764 20.581 0.366739 20.832 0.72597 21.0593C0.987168 21.2248 1.06315 21.3626 0.894222 21.3656C0.486483 21.3724 1.7002 22.6984 2.51161 23.1326C3.75484 23.7981 8.17756 24.003 9.56631 23.4596C10.6182 23.0485 12.296 21.0691 12.4503 20.0579C12.509 19.6736 12.5769 19.2391 12.6013 19.0929C12.6254 18.9463 12.6274 16.2699 12.605 13.1447L12.565 7.46278H10.8689C9.93606 7.46278 9.17282 7.6195 9.17282 7.81082C9.17282 8.0079 8.72506 7.92717 8.14058 7.62493C7.07883 7.07574 3.83999 7.03639 3.51061 7.56862ZM17.3052 7.40104C15.1061 8.09814 13.4968 10.6731 13.6515 13.2475C13.7068 14.1701 13.8503 14.9256 13.97 14.9256C14.0894 14.9256 14.2808 15.297 14.3947 15.7512C14.5911 16.5338 16.1831 17.9456 17.0718 18.1254C17.2984 18.1712 18.062 18.3279 18.7693 18.4731C20.2819 18.7842 22.8012 18.1831 24.1703 17.1844C25.5604 16.1702 26.2178 14.4985 26.0424 12.4235C25.8467 10.1083 25.3833 9.31355 23.5529 8.15275C22.2887 7.35084 21.6886 7.19616 19.9216 7.21719C18.7577 7.2311 17.5803 7.31387 17.3052 7.40104ZM30.4587 7.65681C29.9183 7.9499 29.5259 8.01571 29.5259 7.81285C29.5259 7.62018 28.9916 7.46278 28.3386 7.46278H27.1513V12.8903V18.3177H28.3386H29.5259V14.6053C29.5259 11.2444 29.5981 10.8088 30.2891 10.0056C31.3051 8.8244 33.1111 8.73485 33.9913 9.8217C34.5141 10.4672 34.6141 11.2111 34.6141 14.4544V18.3177H35.8014H36.9886V14.662C36.9886 10.7532 37.3285 9.72706 38.8041 9.18126C39.832 8.80066 41.2377 9.38411 41.6909 10.379C41.9032 10.8448 42.0769 12.8217 42.0769 14.7719V18.3177H43.2903H44.504L44.3927 13.7095L44.2818 9.10154L43.1739 8.11238C41.6929 6.79045 39.3625 6.7277 37.545 7.96143C36.8658 8.42209 36.3102 8.65513 36.3102 8.47908C36.3102 7.89223 34.3275 7.12323 32.8502 7.13713C32.0479 7.1446 30.9719 7.37832 30.4587 7.65681ZM48.1828 7.86374C47.5298 8.3037 46.7286 9.19483 46.4026 9.84409C45.5563 11.528 45.6234 14.3346 46.5492 15.9819C48.0142 18.5884 51.7982 19.4127 54.2579 17.6614C55.3033 16.9168 55.3064 16.9168 55.3064 17.6162C55.3064 18.1695 55.5214 18.3177 56.324 18.3177H57.3417V12.8903V7.46278H56.324C55.5052 7.46278 55.3064 7.60695 55.3064 8.20024V8.93804L54.4475 8.13104C53.1462 6.9085 49.8121 6.76637 48.1828 7.86374ZM67.8228 7.88952C66.43 8.81524 65.1437 11.2247 65.1437 12.9089C65.1437 17.8581 71.7533 20.5478 75.3796 17.0738C76.5512 15.951 76.5692 15.6949 75.5085 15.2115C74.7951 14.8866 74.5247 14.9636 73.5736 15.7641C72.6323 16.5562 72.2459 16.6691 70.9708 16.5257C69.3758 16.3459 68.1084 15.3645 67.6997 13.9927L67.4724 13.2295H72.0749H76.6771L76.6764 12.127C76.6757 10.5785 75.6923 8.79896 74.3372 7.89359C72.7133 6.80877 69.4524 6.80674 67.8228 7.88952ZM81.1626 7.65173C80.7399 7.94752 80.4085 8.02215 80.4085 7.82133C80.4085 7.62425 79.8742 7.46278 79.2212 7.46278H78.0339V12.8903V18.3177H79.2212H80.4085V14.5711C80.4085 10.9971 80.4488 10.7837 81.2823 9.95026C82.0055 9.22705 82.3793 9.10629 83.4499 9.25012C84.5788 9.40141 84.7918 9.31728 85.1243 8.58729C85.3339 8.12731 85.418 7.61 85.3115 7.43734C84.9933 6.92275 81.9807 7.07845 81.1626 7.65173ZM92.2811 7.86374C90.6824 8.94075 89.9076 10.5924 89.9072 12.9249C89.9066 15.0199 90.6627 16.4972 92.3907 17.7777C93.7808 18.8076 96.8056 18.7682 98.3022 17.701C99.3894 16.9256 99.4046 16.9242 99.4046 17.6162C99.4046 18.1919 99.6177 18.3177 100.592 18.3177H101.779V12.8903V7.46278H100.592C99.599 7.46278 99.4046 7.58354 99.4046 8.20024V8.93804L98.5457 8.13104C97.2445 6.9085 93.9103 6.76637 92.2811 7.86374ZM109.751 7.53334C108.67 8.15309 108.247 8.90038 108.235 10.2087C108.222 11.6769 108.738 12.1949 111.362 13.3509C112.941 14.0463 113.313 14.3618 113.313 15.0087C113.313 16.8086 111.027 17.2407 109.414 15.7458L108.469 14.8699L107.774 15.5643C107.087 16.2512 107.087 16.2658 107.736 16.9836C109.175 18.5732 111.365 19.064 113.579 18.2923C114.929 17.8215 115.687 16.639 115.687 15.0022C115.687 13.2949 115.224 12.7427 112.96 11.7502C110.574 10.7043 110.033 10.1124 110.781 9.36444C111.482 8.66327 112.609 8.6704 113.626 9.38275C114.381 9.91159 114.457 9.90786 114.889 9.31762C115.54 8.42684 115.475 8.22433 114.347 7.64121C113.174 7.03469 110.721 6.97702 109.751 7.53334ZM85.8359 12.8903V18.3177H87.0232H88.2105V12.8903V7.46278H87.0232H85.8359V12.8903ZM73.4464 10.091C73.9172 10.5622 74.3026 11.0792 74.3026 11.2403C74.3026 11.4014 72.8524 11.5334 71.08 11.5334C67.6546 11.5334 67.1634 11.2491 68.4996 10.0398C69.9718 8.70737 72.0844 8.72908 73.4464 10.091ZM53.726 9.85562C56.6666 12.1684 54.6493 17.1468 51.0455 16.4704C48.7259 16.0355 47.4528 13.0633 48.6564 10.8923C49.6187 9.15582 52.1724 8.63342 53.726 9.85562ZM98.0566 10.1331C99.3205 11.397 99.6051 12.604 99.0095 14.1769C97.6455 17.7808 92.812 17.0274 92.3744 13.1426C92.2081 11.6677 92.2821 11.4645 93.3913 10.3553C94.966 8.78064 96.6251 8.7016 98.0566 10.1331ZM7.64058 10.1745C8.16229 10.3726 8.7298 10.9964 9.0195 11.6901C9.67113 13.2495 9.65824 13.3431 8.61549 14.5823C7.87023 15.468 7.51269 15.6311 6.49538 15.5501C5.11646 15.4398 4.57812 15.0368 4.08795 13.7475C3.48856 12.1708 4.83762 10.0147 6.52184 9.85867C6.64972 9.84714 7.15312 9.98893 7.64058 10.1745ZM21.9759 10.5157C22.0241 10.5157 22.0631 10.7447 22.0631 11.0246C22.0631 11.3044 22.2042 11.5334 22.3769 11.5334C22.5495 11.5334 22.6469 12.1501 22.5933 12.9035C22.4352 15.1216 20.4477 16.1671 18.4423 15.087C16.9999 14.3102 16.7282 13.2787 17.5349 11.6382C18.2333 10.2169 19.2537 9.78812 20.8734 10.2355C21.4321 10.3896 21.9281 10.5157 21.9759 10.5157Z" fill="#908E9F"/>
<path id="Layer 5" fill-rule="evenodd" clip-rule="evenodd" d="M103.815 9.15887V18.3177H105.002H106.19V9.15887V0H105.002H103.815V9.15887ZM85.9688 3.1978C85.8664 3.46409 85.8332 4.03669 85.8946 4.46987C85.9872 5.12286 86.2093 5.25787 87.1934 5.25787C88.1748 5.25787 88.4 5.12218 88.4916 4.47597C88.5523 4.04585 88.4194 3.47359 88.1955 3.20391C87.6721 2.5733 86.21 2.56923 85.9688 3.1978ZM59.7168 5.42748C59.7168 7.0106 59.6039 7.46278 59.208 7.46278C58.8915 7.46278 58.6992 7.783 58.6992 8.31082C58.6992 8.81558 58.8932 9.15887 59.1788 9.15887C59.5581 9.15887 59.6822 9.98181 59.7724 13.0901C59.8844 16.9565 59.9027 17.0352 60.8807 17.8754C61.6911 18.5721 62.1192 18.697 63.1982 18.5525C64.8366 18.3327 64.9414 18.2292 64.6609 17.1108C64.4889 16.4252 64.2759 16.2529 63.7661 16.3862C62.477 16.7234 62.0913 15.796 62.0913 12.3573V9.15887H63.4482C64.6694 9.15887 64.8051 9.07406 64.8051 8.31082C64.8051 7.54759 64.6694 7.46278 63.4482 7.46278H62.0913V5.42748V3.39217H60.9041H59.7168V5.42748ZM30.4593 7.65681C29.9189 7.9499 29.5265 8.01571 29.5265 7.81285C29.5265 7.62018 28.9922 7.46278 28.3392 7.46278H27.1519V12.8903V18.3177H28.3392H29.5265V14.6053C29.5265 11.2444 29.5987 10.8088 30.2897 10.0056C31.3057 8.8244 33.1117 8.73485 33.9919 9.8217C34.5147 10.4672 34.6147 11.2111 34.6147 14.4544V18.3177H35.802H36.9893V14.662C36.9893 10.7532 37.3291 9.72706 38.8047 9.18126C39.8326 8.80065 41.2383 9.38411 41.6915 10.379C41.9038 10.8448 42.0775 12.8217 42.0775 14.7719V18.3177H43.2909H44.5046L44.3933 13.7095L44.2824 9.10154L43.1745 8.11238C41.6935 6.79045 39.3631 6.7277 37.5456 7.96143C36.8665 8.42209 36.3108 8.65513 36.3108 8.47908C36.3108 7.89223 34.3281 7.12323 32.8508 7.13713C32.0486 7.1446 30.9726 7.37832 30.4593 7.65681ZM48.1834 7.86374C47.5304 8.3037 46.7292 9.19483 46.4032 9.84409C45.5569 11.528 45.624 14.3346 46.5498 15.9819C48.0148 18.5884 51.7988 19.4127 54.2585 17.6614C55.3039 16.9168 55.307 16.9168 55.307 17.6162C55.307 18.1695 55.5221 18.3177 56.3246 18.3177H57.3423V12.8903V7.46278H56.3246C55.5058 7.46278 55.307 7.60695 55.307 8.20024V8.93804L54.4481 8.13104C53.1469 6.9085 49.8127 6.76637 48.1834 7.86374ZM67.8234 7.88952C66.4306 8.81524 65.1443 11.2247 65.1443 12.9089C65.1443 17.8581 71.7539 20.5478 75.3802 17.0738C76.5518 15.951 76.5698 15.6949 75.5091 15.2115C74.7957 14.8866 74.5253 14.9636 73.5742 15.7641C72.6329 16.5562 72.2465 16.6691 70.9714 16.5257C69.3764 16.3459 68.1091 15.3645 67.7003 13.9927L67.473 13.2295H72.0755H76.6777L76.677 12.127C76.6763 10.5785 75.6929 8.79896 74.3378 7.89359C72.7139 6.80877 69.453 6.80673 67.8234 7.88952ZM81.1632 7.65173C80.7405 7.94752 80.4091 8.02215 80.4091 7.82133C80.4091 7.62425 79.8748 7.46278 79.2218 7.46278H78.0346V12.8903V18.3177H79.2218H80.4091V14.5711C80.4091 10.9971 80.4494 10.7837 81.2829 9.95026C82.0061 9.22705 82.3799 9.10629 83.4505 9.25012C84.5794 9.40141 84.7924 9.31728 85.1249 8.58729C85.3345 8.12731 85.4186 7.61 85.3121 7.43734C84.9939 6.92275 81.9813 7.07845 81.1632 7.65173ZM92.2817 7.86374C90.6829 8.94075 89.9082 10.5924 89.9078 12.9249C89.9072 15.0199 90.6633 16.4972 92.3912 17.7777C93.7814 18.8076 96.8062 18.7682 98.3028 17.701C99.39 16.9256 99.4052 16.9242 99.4052 17.6162C99.4052 18.1919 99.6183 18.3177 100.593 18.3177H101.78V12.8903V7.46278H100.593C99.5996 7.46278 99.4052 7.58354 99.4052 8.20024V8.93804L98.5463 8.13104C97.2451 6.9085 93.9109 6.76637 92.2817 7.86374ZM109.751 7.53334C108.671 8.15309 108.247 8.90038 108.236 10.2087C108.223 11.6769 108.738 12.1949 111.363 13.3509C112.942 14.0463 113.313 14.3618 113.313 15.0087C113.313 16.8086 111.027 17.2407 109.414 15.7458L108.469 14.8699L107.775 15.5643C107.087 16.2512 107.087 16.2658 107.737 16.9836C109.175 18.5732 111.366 19.064 113.579 18.2923C114.93 17.8215 115.688 16.639 115.688 15.0022C115.688 13.2949 115.224 12.7427 112.96 11.7501C110.574 10.7043 110.034 10.1124 110.782 9.36443C111.483 8.66327 112.61 8.6704 113.627 9.38275C114.382 9.91159 114.458 9.90786 114.889 9.31762C115.541 8.42684 115.475 8.22432 114.348 7.64121C113.175 7.03469 110.721 6.97702 109.751 7.53334ZM9.20023 7.73721C9.18496 7.99128 8.99195 8.0788 8.74941 7.94176C8.41291 7.75179 8.41155 7.79555 8.74364 8.15377C9.22635 8.67413 9.66835 8.39631 9.40512 7.73856C9.25891 7.37289 9.22228 7.37255 9.20023 7.73721ZM16.469 7.79827C16.3503 7.99026 16.4863 8.04725 16.7882 7.93158C17.3757 7.706 17.4832 7.46278 16.9954 7.46278C16.8197 7.46278 16.583 7.61373 16.469 7.79827ZM85.8365 12.8903V18.3177H87.0238H88.2111V12.8903V7.46278H87.0238H85.8365V12.8903ZM73.447 10.091C73.9178 10.5622 74.3032 11.0792 74.3032 11.2403C74.3032 11.4014 72.853 11.5334 71.0806 11.5334C67.6552 11.5334 67.164 11.2491 68.5002 10.0398C69.9724 8.70737 72.085 8.72908 73.447 10.091ZM53.7266 9.85562C56.6673 12.1684 54.6499 17.1468 51.0461 16.4704C48.7265 16.0355 47.4534 13.0633 48.657 10.8923C49.6193 9.15582 52.173 8.63342 53.7266 9.85562ZM98.0572 10.1331C99.3211 11.397 99.6057 12.604 99.0101 14.1769C97.6461 17.7808 92.8126 17.0274 92.375 13.1426C92.2087 11.6677 92.2827 11.4645 93.3919 10.3553C94.9666 8.78064 96.6257 8.7016 98.0572 10.1331ZM9.23958 17.8089C9.24636 18.3686 9.32235 18.5565 9.40851 18.2265C9.49467 17.8964 9.4889 17.4385 9.39596 17.2088C9.30301 16.9792 9.23279 17.2492 9.23958 17.8089ZM5.35724 18.5423C5.59062 18.6366 5.97224 18.6366 6.20528 18.5423C6.43866 18.4483 6.24768 18.3713 5.78126 18.3713C5.31483 18.3713 5.12419 18.4483 5.35724 18.5423ZM19.2692 18.5576C19.6912 18.6386 20.3018 18.6356 20.6261 18.5508C20.9504 18.466 20.6051 18.3995 19.8588 18.4032C19.1125 18.4069 18.8472 18.4765 19.2692 18.5576ZM2.75646 19.4314C2.83448 19.4843 3.20321 19.7513 3.57634 20.025C4.2039 20.4853 4.21984 20.4782 3.78937 19.929C3.53326 19.6027 3.1642 19.3354 2.96948 19.3354C2.77477 19.3354 2.67878 19.3785 2.75646 19.4314Z" fill="#908E9F"/>
<path id="Layer 6" fill-rule="evenodd" clip-rule="evenodd" d="M103.815 9.15887V18.3177H105.002H106.19V9.15887V0H105.002H103.815V9.15887ZM85.9688 3.1978C85.8664 3.46409 85.8332 4.03669 85.8946 4.46987C85.9872 5.12286 86.2093 5.25787 87.1934 5.25787C88.1748 5.25787 88.4 5.12218 88.4916 4.47597C88.5523 4.04585 88.4194 3.47359 88.1955 3.20391C87.6721 2.5733 86.21 2.56923 85.9688 3.1978ZM59.7168 5.42748C59.7168 7.0106 59.6039 7.46278 59.208 7.46278C58.8915 7.46278 58.6992 7.783 58.6992 8.31082C58.6992 8.81558 58.8932 9.15887 59.1788 9.15887C59.5581 9.15887 59.6822 9.98181 59.7724 13.0901C59.8844 16.9565 59.9027 17.0352 60.8807 17.8754C61.6911 18.5721 62.1192 18.697 63.1982 18.5525C64.8366 18.3327 64.9414 18.2292 64.6609 17.1108C64.4889 16.4252 64.2759 16.2529 63.7661 16.3862C62.477 16.7234 62.0913 15.796 62.0913 12.3573V9.15887H63.4482C64.6694 9.15887 64.8051 9.07406 64.8051 8.31082C64.8051 7.54759 64.6694 7.46278 63.4482 7.46278H62.0913V5.42748V3.39217H60.9041H59.7168V5.42748ZM30.4593 7.65681C29.9189 7.9499 29.5265 8.01571 29.5265 7.81285C29.5265 7.62018 28.9922 7.46278 28.3392 7.46278H27.1519V12.8903V18.3177H28.3392H29.5265V14.6053C29.5265 11.2444 29.5987 10.8088 30.2897 10.0056C31.3057 8.8244 33.1117 8.73485 33.9919 9.8217C34.5147 10.4672 34.6147 11.2111 34.6147 14.4544V18.3177H35.802H36.9893V14.662C36.9893 10.7532 37.3291 9.72706 38.8047 9.18126C39.8326 8.80065 41.2383 9.38411 41.6915 10.379C41.9038 10.8448 42.0775 12.8217 42.0775 14.7719V18.3177H43.2909H44.5046L44.3933 13.7095L44.2824 9.10154L43.1745 8.11238C41.6935 6.79045 39.3631 6.7277 37.5456 7.96143C36.8665 8.42209 36.3108 8.65513 36.3108 8.47908C36.3108 7.89223 34.3281 7.12323 32.8508 7.13713C32.0486 7.1446 30.9726 7.37832 30.4593 7.65681ZM48.1834 7.86374C47.5304 8.3037 46.7292 9.19483 46.4032 9.84409C45.5569 11.528 45.624 14.3346 46.5498 15.9819C48.0148 18.5884 51.7988 19.4127 54.2585 17.6614C55.3039 16.9168 55.307 16.9168 55.307 17.6162C55.307 18.1695 55.5221 18.3177 56.3246 18.3177H57.3423V12.8903V7.46278H56.3246C55.5058 7.46278 55.307 7.60695 55.307 8.20024V8.93804L54.4481 8.13104C53.1469 6.9085 49.8127 6.76637 48.1834 7.86374ZM67.8234 7.88952C66.4306 8.81524 65.1443 11.2247 65.1443 12.9089C65.1443 17.8581 71.7539 20.5478 75.3802 17.0738C76.5518 15.951 76.5698 15.6949 75.5091 15.2115C74.7957 14.8866 74.5253 14.9636 73.5742 15.7641C72.6329 16.5562 72.2465 16.6691 70.9714 16.5257C69.3764 16.3459 68.1091 15.3645 67.7003 13.9927L67.473 13.2295H72.0755H76.6777L76.677 12.127C76.6763 10.5785 75.6929 8.79896 74.3378 7.89359C72.7139 6.80877 69.453 6.80673 67.8234 7.88952ZM81.1632 7.65173C80.7405 7.94752 80.4091 8.02215 80.4091 7.82133C80.4091 7.62425 79.8748 7.46278 79.2218 7.46278H78.0346V12.8903V18.3177H79.2218H80.4091V14.5711C80.4091 10.9971 80.4494 10.7837 81.2829 9.95026C82.0061 9.22705 82.3799 9.10629 83.4505 9.25012C84.5794 9.40141 84.7924 9.31728 85.1249 8.58729C85.3345 8.12731 85.4186 7.61 85.3121 7.43734C84.9939 6.92275 81.9813 7.07845 81.1632 7.65173ZM92.2817 7.86374C90.6829 8.94075 89.9082 10.5924 89.9078 12.9249C89.9072 15.0199 90.6633 16.4972 92.3912 17.7777C93.7814 18.8076 96.8062 18.7682 98.3028 17.701C99.39 16.9256 99.4052 16.9242 99.4052 17.6162C99.4052 18.1919 99.6183 18.3177 100.593 18.3177H101.78V12.8903V7.46278H100.593C99.5996 7.46278 99.4052 7.58354 99.4052 8.20024V8.93804L98.5463 8.13104C97.2451 6.9085 93.9109 6.76637 92.2817 7.86374ZM109.751 7.53334C108.671 8.15309 108.247 8.90038 108.236 10.2087C108.223 11.6769 108.738 12.1949 111.363 13.3509C112.942 14.0463 113.313 14.3618 113.313 15.0087C113.313 16.8086 111.027 17.2407 109.414 15.7458L108.469 14.8699L107.775 15.5643C107.087 16.2512 107.087 16.2658 107.737 16.9836C109.175 18.5732 111.366 19.064 113.579 18.2923C114.93 17.8215 115.688 16.639 115.688 15.0022C115.688 13.2949 115.224 12.7427 112.96 11.7501C110.574 10.7043 110.034 10.1124 110.782 9.36443C111.483 8.66327 112.61 8.6704 113.627 9.38275C114.382 9.91159 114.458 9.90786 114.889 9.31762C115.541 8.42684 115.475 8.22432 114.348 7.64121C113.175 7.03469 110.721 6.97702 109.751 7.53334ZM9.20023 7.73721C9.18496 7.99128 8.99195 8.0788 8.74941 7.94176C8.41291 7.75179 8.41155 7.79555 8.74364 8.15377C9.22635 8.67413 9.66835 8.39631 9.40512 7.73856C9.25891 7.37289 9.22228 7.37255 9.20023 7.73721ZM85.8365 12.8903V18.3177H87.0238H88.2111V12.8903V7.46278H87.0238H85.8365V12.8903ZM73.447 10.091C73.9178 10.5622 74.3032 11.0792 74.3032 11.2403C74.3032 11.4014 72.853 11.5334 71.0806 11.5334C67.6552 11.5334 67.164 11.2491 68.5002 10.0398C69.9724 8.70737 72.085 8.72908 73.447 10.091ZM53.7266 9.85562C56.6673 12.1684 54.6499 17.1468 51.0461 16.4704C48.7265 16.0355 47.4534 13.0633 48.657 10.8923C49.6193 9.15582 52.173 8.63342 53.7266 9.85562ZM98.0572 10.1331C99.3211 11.397 99.6057 12.604 99.0101 14.1769C97.6461 17.7808 92.8126 17.0274 92.375 13.1426C92.2087 11.6677 92.2827 11.4645 93.3919 10.3553C94.9666 8.78064 96.6257 8.7016 98.0572 10.1331ZM9.23958 17.8089C9.24636 18.3686 9.32235 18.5565 9.40851 18.2265C9.49467 17.8964 9.4889 17.4385 9.39596 17.2088C9.30301 16.9792 9.23279 17.2492 9.23958 17.8089ZM5.35724 18.5423C5.59062 18.6366 5.97224 18.6366 6.20528 18.5423C6.43866 18.4483 6.24768 18.3713 5.78126 18.3713C5.31483 18.3713 5.12419 18.4483 5.35724 18.5423ZM19.2692 18.5576C19.6912 18.6386 20.3018 18.6356 20.6261 18.5508C20.9504 18.466 20.6051 18.3995 19.8588 18.4032C19.1125 18.4069 18.8472 18.4765 19.2692 18.5576ZM2.75646 19.4314C2.83448 19.4843 3.20321 19.7513 3.57634 20.025C4.2039 20.4853 4.21984 20.4782 3.78937 19.929C3.53326 19.6027 3.1642 19.3354 2.96948 19.3354C2.77477 19.3354 2.67878 19.3785 2.75646 19.4314Z" fill="#020013"/>
<path id="Layer 7" fill-rule="evenodd" clip-rule="evenodd" d="M103.815 9.15887V18.3177H105.002H106.19V9.15887V0H105.002H103.815V9.15887ZM85.9688 3.1978C85.8664 3.46409 85.8332 4.03669 85.8946 4.46987C85.9872 5.12286 86.2093 5.25787 87.1934 5.25787C88.1748 5.25787 88.4 5.12218 88.4916 4.47597C88.5523 4.04585 88.4194 3.47359 88.1955 3.20391C87.6721 2.5733 86.21 2.56923 85.9688 3.1978ZM59.7168 5.42748C59.7168 7.0106 59.6039 7.46278 59.208 7.46278C58.8915 7.46278 58.6992 7.783 58.6992 8.31082C58.6992 8.81558 58.8932 9.15887 59.1788 9.15887C59.5581 9.15887 59.6822 9.98181 59.7724 13.0901C59.8844 16.9565 59.9027 17.0352 60.8807 17.8754C61.6911 18.5721 62.1192 18.697 63.1982 18.5525C64.8366 18.3327 64.9414 18.2292 64.6609 17.1108C64.4889 16.4252 64.2759 16.2529 63.7661 16.3862C62.477 16.7234 62.0913 15.796 62.0913 12.3573V9.15887H63.4482C64.6694 9.15887 64.8051 9.07406 64.8051 8.31082C64.8051 7.54759 64.6694 7.46278 63.4482 7.46278H62.0913V5.42748V3.39217H60.9041H59.7168V5.42748ZM30.4593 7.65681C29.9189 7.9499 29.5265 8.01571 29.5265 7.81285C29.5265 7.62018 28.9922 7.46278 28.3392 7.46278H27.1519V12.8903V18.3177H28.3392H29.5265V14.6053C29.5265 11.2444 29.5987 10.8088 30.2897 10.0056C31.3057 8.8244 33.1117 8.73485 33.9919 9.8217C34.5147 10.4672 34.6147 11.2111 34.6147 14.4544V18.3177H35.802H36.9893V14.662C36.9893 10.7532 37.3291 9.72706 38.8047 9.18126C39.8326 8.80065 41.2383 9.38411 41.6915 10.379C41.9038 10.8448 42.0775 12.8217 42.0775 14.7719V18.3177H43.2909H44.5046L44.3933 13.7095L44.2824 9.10154L43.1745 8.11238C41.6935 6.79045 39.3631 6.7277 37.5456 7.96143C36.8665 8.42209 36.3108 8.65513 36.3108 8.47908C36.3108 7.89223 34.3281 7.12323 32.8508 7.13713C32.0486 7.1446 30.9726 7.37832 30.4593 7.65681ZM48.1834 7.86374C47.5304 8.3037 46.7292 9.19483 46.4032 9.84409C45.5569 11.528 45.624 14.3346 46.5498 15.9819C48.0148 18.5884 51.7988 19.4127 54.2585 17.6614C55.3039 16.9168 55.307 16.9168 55.307 17.6162C55.307 18.1695 55.5221 18.3177 56.3246 18.3177H57.3423V12.8903V7.46278H56.3246C55.5058 7.46278 55.307 7.60695 55.307 8.20024V8.93804L54.4481 8.13104C53.1469 6.9085 49.8127 6.76637 48.1834 7.86374ZM67.8234 7.88952C66.4306 8.81524 65.1443 11.2247 65.1443 12.9089C65.1443 17.8581 71.7539 20.5478 75.3802 17.0738C76.5518 15.951 76.5698 15.6949 75.5091 15.2115C74.7957 14.8866 74.5253 14.9636 73.5742 15.7641C72.6329 16.5562 72.2465 16.6691 70.9714 16.5257C69.3764 16.3459 68.1091 15.3645 67.7003 13.9927L67.473 13.2295H72.0755H76.6777L76.677 12.127C76.6763 10.5785 75.6929 8.79896 74.3378 7.89359C72.7139 6.80877 69.453 6.80673 67.8234 7.88952ZM81.1632 7.65173C80.7405 7.94752 80.4091 8.02215 80.4091 7.82133C80.4091 7.62425 79.8748 7.46278 79.2218 7.46278H78.0346V12.8903V18.3177H79.2218H80.4091V14.5711C80.4091 10.9971 80.4494 10.7837 81.2829 9.95026C82.0061 9.22705 82.3799 9.10629 83.4505 9.25012C84.5794 9.40141 84.7924 9.31728 85.1249 8.58729C85.3345 8.12731 85.4186 7.61 85.3121 7.43734C84.9939 6.92275 81.9813 7.07845 81.1632 7.65173ZM92.2817 7.86374C90.6829 8.94075 89.9082 10.5924 89.9078 12.9249C89.9072 15.0199 90.6633 16.4972 92.3912 17.7777C93.7814 18.8076 96.8062 18.7682 98.3028 17.701C99.39 16.9256 99.4052 16.9242 99.4052 17.6162C99.4052 18.1919 99.6183 18.3177 100.593 18.3177H101.78V12.8903V7.46278H100.593C99.5996 7.46278 99.4052 7.58354 99.4052 8.20024V8.93804L98.5463 8.13104C97.2451 6.9085 93.9109 6.76637 92.2817 7.86374ZM109.751 7.53334C108.671 8.15309 108.247 8.90038 108.236 10.2087C108.223 11.6769 108.738 12.1949 111.363 13.3509C112.942 14.0463 113.313 14.3618 113.313 15.0087C113.313 16.8086 111.027 17.2407 109.414 15.7458L108.469 14.8699L107.775 15.5643C107.087 16.2512 107.087 16.2658 107.737 16.9836C109.175 18.5732 111.366 19.064 113.579 18.2923C114.93 17.8215 115.688 16.639 115.688 15.0022C115.688 13.2949 115.224 12.7427 112.96 11.7501C110.574 10.7043 110.034 10.1124 110.782 9.36443C111.483 8.66327 112.61 8.6704 113.627 9.38275C114.382 9.91159 114.458 9.90786 114.889 9.31762C115.541 8.42684 115.475 8.22432 114.348 7.64121C113.175 7.03469 110.721 6.97702 109.751 7.53334ZM9.20023 7.73721C9.18496 7.99128 8.99195 8.0788 8.74941 7.94176C8.41291 7.75179 8.41155 7.79555 8.74364 8.15377C9.22635 8.67413 9.66835 8.39631 9.40512 7.73856C9.25891 7.37289 9.22228 7.37255 9.20023 7.73721ZM85.8365 12.8903V18.3177H87.0238H88.2111V12.8903V7.46278H87.0238H85.8365V12.8903ZM73.447 10.091C73.9178 10.5622 74.3032 11.0792 74.3032 11.2403C74.3032 11.4014 72.853 11.5334 71.0806 11.5334C67.6552 11.5334 67.164 11.2491 68.5002 10.0398C69.9724 8.70737 72.085 8.72908 73.447 10.091ZM53.7266 9.85562C56.6673 12.1684 54.6499 17.1468 51.0461 16.4704C48.7265 16.0355 47.4534 13.0633 48.657 10.8923C49.6193 9.15582 52.173 8.63342 53.7266 9.85562ZM98.0572 10.1331C99.3211 11.397 99.6057 12.604 99.0101 14.1769C97.6461 17.7808 92.8126 17.0274 92.375 13.1426C92.2087 11.6677 92.2827 11.4645 93.3919 10.3553C94.9666 8.78064 96.6257 8.7016 98.0572 10.1331ZM9.23958 17.8089C9.24636 18.3686 9.32235 18.5565 9.40851 18.2265C9.49467 17.8964 9.4889 17.4385 9.39596 17.2088C9.30301 16.9792 9.23279 17.2492 9.23958 17.8089ZM5.35724 18.5423C5.59062 18.6366 5.97224 18.6366 6.20528 18.5423C6.43866 18.4483 6.24768 18.3713 5.78126 18.3713C5.31483 18.3713 5.12419 18.4483 5.35724 18.5423ZM19.2692 18.5576C19.6912 18.6386 20.3018 18.6356 20.6261 18.5508C20.9504 18.466 20.6051 18.3995 19.8588 18.4032C19.1125 18.4069 18.8472 18.4765 19.2692 18.5576ZM2.75646 19.4314C2.83448 19.4843 3.20321 19.7513 3.57634 20.025C4.2039 20.4853 4.21984 20.4782 3.78937 19.929C3.53326 19.6027 3.1642 19.3354 2.96948 19.3354C2.77477 19.3354 2.67878 19.3785 2.75646 19.4314Z" fill="#908E9F"/>
<path id="Layer 8" fill-rule="evenodd" clip-rule="evenodd" d="M103.814 9.15887V18.3177H105.001H106.188V9.15887V0H105.001H103.814V9.15887ZM85.9673 3.1978C85.8648 3.46409 85.8316 4.03669 85.893 4.46987C85.9856 5.12286 86.2078 5.25787 87.1919 5.25787C88.1732 5.25787 88.3985 5.12218 88.49 4.47597C88.5508 4.04585 88.4178 3.47359 88.1939 3.20391C87.6705 2.5733 86.2085 2.56923 85.9673 3.1978ZM59.7153 5.42748C59.7153 7.0106 59.6023 7.46278 59.2064 7.46278C58.8899 7.46278 58.6976 7.783 58.6976 8.31082C58.6976 8.81558 58.8916 9.15887 59.1773 9.15887C59.5565 9.15887 59.6807 9.98181 59.7709 13.0901C59.8828 16.9565 59.9011 17.0352 60.8791 17.8754C61.6895 18.5721 62.1176 18.697 63.1966 18.5525C64.8351 18.3327 64.9399 18.2292 64.6593 17.1108C64.4874 16.4252 64.2743 16.2529 63.7645 16.3862C62.4755 16.7234 62.0898 15.796 62.0898 12.3573V9.15887H63.4466C64.6678 9.15887 64.8035 9.07406 64.8035 8.31082C64.8035 7.54759 64.6678 7.46278 63.4466 7.46278H62.0898V5.42748V3.39217H60.9025H59.7153V5.42748ZM30.4578 7.65681C29.9174 7.9499 29.5249 8.01571 29.5249 7.81285C29.5249 7.62018 28.9906 7.46278 28.3377 7.46278H27.1504V12.8903V18.3177H28.3377H29.5249V14.6053C29.5249 11.2444 29.5972 10.8088 30.2882 10.0056C31.3041 8.8244 33.1101 8.73485 33.9904 9.8217C34.5131 10.4672 34.6132 11.2111 34.6132 14.4544V18.3177H35.8004H36.9877V14.662C36.9877 10.7532 37.3276 9.72706 38.8032 9.18126C39.831 8.80065 41.2367 9.38411 41.6899 10.379C41.9023 10.8448 42.076 12.8217 42.076 14.7719V18.3177H43.2893H44.5031L44.3918 13.7095L44.2809 9.10154L43.173 8.11238C41.692 6.79045 39.3615 6.7277 37.544 7.96143C36.8649 8.42209 36.3093 8.65513 36.3093 8.47908C36.3093 7.89223 34.3265 7.12323 32.8492 7.13713C32.047 7.1446 30.971 7.37832 30.4578 7.65681ZM48.1819 7.86374C47.5289 8.3037 46.7276 9.19483 46.4017 9.84409C45.5553 11.528 45.6225 14.3346 46.5482 15.9819C48.0133 18.5884 51.7972 19.4127 54.2569 17.6614C55.3024 16.9168 55.3054 16.9168 55.3054 17.6162C55.3054 18.1695 55.5205 18.3177 56.3231 18.3177H57.3407V12.8903V7.46278H56.3231C55.5042 7.46278 55.3054 7.60695 55.3054 8.20024V8.93804L54.4465 8.13104C53.1453 6.9085 49.8111 6.76637 48.1819 7.86374ZM67.8219 7.88952C66.429 8.81524 65.1427 11.2247 65.1427 12.9089C65.1427 17.8581 71.7524 20.5478 75.3786 17.0738C76.5503 15.951 76.5683 15.6949 75.5075 15.2115C74.7941 14.8866 74.5238 14.9636 73.5726 15.7641C72.6313 16.5562 72.2449 16.6691 70.9698 16.5257C69.3748 16.3459 68.1075 15.3645 67.6987 13.9927L67.4715 13.2295H72.074H76.6761L76.6754 12.127C76.6748 10.5785 75.6914 8.79896 74.3362 7.89359C72.7124 6.80877 69.4515 6.80673 67.8219 7.88952ZM81.1616 7.65173C80.7389 7.94752 80.4075 8.02215 80.4075 7.82133C80.4075 7.62425 79.8732 7.46278 79.2203 7.46278H78.033V12.8903V18.3177H79.2203H80.4075V14.5711C80.4075 10.9971 80.4479 10.7837 81.2813 9.95026C82.0046 9.22705 82.3784 9.10629 83.4489 9.25012C84.5779 9.40141 84.7909 9.31728 85.1233 8.58729C85.333 8.12731 85.4171 7.61 85.3106 7.43734C84.9924 6.92275 81.9798 7.07845 81.1616 7.65173ZM92.2801 7.86374C90.6814 8.94075 89.9066 10.5924 89.9063 12.9249C89.9056 15.0199 90.6617 16.4972 92.3897 17.7777C93.7798 18.8076 96.8046 18.7682 98.3012 17.701C99.3884 16.9256 99.4037 16.9242 99.4037 17.6162C99.4037 18.1919 99.6167 18.3177 100.591 18.3177H101.778V12.8903V7.46278H100.591C99.5981 7.46278 99.4037 7.58354 99.4037 8.20024V8.93804L98.5448 8.13104C97.2435 6.9085 93.9094 6.76637 92.2801 7.86374ZM109.75 7.53334C108.669 8.15309 108.246 8.90038 108.234 10.2087C108.221 11.6769 108.737 12.1949 111.361 13.3509C112.94 14.0463 113.312 14.3618 113.312 15.0087C113.312 16.8086 111.026 17.2407 109.413 15.7458L108.468 14.8699L107.773 15.5643C107.086 16.2512 107.086 16.2658 107.735 16.9836C109.174 18.5732 111.364 19.064 113.578 18.2923C114.928 17.8215 115.686 16.639 115.686 15.0022C115.686 13.2949 115.223 12.7427 112.959 11.7501C110.573 10.7043 110.032 10.1124 110.78 9.36443C111.481 8.66327 112.608 8.6704 113.625 9.38275C114.38 9.91159 114.456 9.90786 114.888 9.31762C115.539 8.42684 115.474 8.22432 114.346 7.64121C113.174 7.03469 110.72 6.97702 109.75 7.53334ZM85.835 12.8903V18.3177H87.0223H88.2095V12.8903V7.46278H87.0223H85.835V12.8903ZM73.4454 10.091C73.9163 10.5622 74.3016 11.0792 74.3016 11.2403C74.3016 11.4014 72.8515 11.5334 71.079 11.5334C67.6536 11.5334 67.1624 11.2491 68.4986 10.0398C69.9708 8.70737 72.0835 8.72908 73.4454 10.091ZM53.725 9.85562C56.6657 12.1684 54.6484 17.1468 51.0445 16.4704C48.725 16.0355 47.4519 13.0633 48.6554 10.8923C49.6178 9.15582 52.1714 8.63342 53.725 9.85562ZM98.0556 10.1331C99.3196 11.397 99.6042 12.604 99.0085 14.1769C97.6445 17.7808 92.811 17.0274 92.3734 13.1426C92.2072 11.6677 92.2811 11.4645 93.3904 10.3553C94.965 8.78064 96.6241 8.7016 98.0556 10.1331Z" fill="#908E9F"/>
</g>
</svg>
