<svg width="120" height="40" viewBox="0 0 120 40" fill="none" xmlns="http://www.w3.org/2000/svg">
<g clip-path="url(#clip0_3127_101471)">
<path d="M44.4038 18.2966C44.4069 17.81 44.269 16.3313 42.5661 16.3313C40.6379 16.3313 39.7211 18.203 39.4335 19.9998C39.1458 21.7967 39.464 23.6684 41.3919 23.6684C42.7766 23.6684 43.4754 22.6948 43.9193 21.4407H47.9622C47.5307 24.1363 44.8829 26.9997 40.9711 26.9997C36.6478 26.9997 34.684 23.9485 35.316 19.9998C35.9886 15.7885 39.0922 13 43.2099 13C46.8753 13.019 48.5883 14.9466 48.4076 18.2966H44.4019H44.4038Z" fill="#C3C2CB"/>
<path d="M67.645 18.2966C67.6481 17.81 67.5102 16.3313 65.8073 16.3313C63.8788 16.3313 62.962 18.203 62.6747 19.9998C62.3871 21.7967 62.7052 23.6684 64.6331 23.6684C66.0178 23.6684 66.7166 22.6948 67.1605 21.4407H71.2034C70.772 24.1363 68.1241 26.9997 64.2123 26.9997C59.889 26.9997 57.9252 23.9485 58.5572 19.9998C59.2311 15.7885 62.335 13 66.4527 13C70.1184 13.019 71.831 14.9466 71.6504 18.2966H67.645Z" fill="#C3C2CB"/>
<path d="M102.038 18.2966C102.041 17.81 101.903 16.3313 100.2 16.3313C98.2714 16.3313 97.3546 18.203 97.0673 19.9998C96.7796 21.7967 97.0978 23.6684 99.0257 23.6684C100.41 23.6684 101.109 22.6948 101.553 21.4407H105.596C105.165 24.1363 102.517 26.9997 98.6049 26.9997C94.2815 26.9997 92.3178 23.9485 92.9498 19.9998C93.6236 15.7885 96.7244 13 100.842 13C104.508 13.019 106.22 14.9466 106.04 18.2966H102.038Z" fill="#C3C2CB"/>
<path d="M52.3184 19.2268H54.9787L54.6437 21.2826H51.9834L52.3172 19.2268H52.3184Z" fill="#C3C2CB"/>
<path d="M35.6707 17.1366C36.075 14.6098 34.2604 13.3186 31.9207 13.3186H24.0786L23.5695 16.5002H29.6148C31.187 16.5002 31.5773 16.9868 31.4422 17.8294C31.2507 19.0273 30.1813 19.158 29.4139 19.158H23.1443L22.9575 20.3247L20.2635 13.3186H16.0522L13.9141 26.6813H17.8069L18.9748 19.3823H19.0123L21.9412 26.676L21.9402 26.6816H26.058L26.8038 22.0217H28.9937C30.6221 22.0217 30.5217 23.35 30.4306 24.6227C30.376 25.3156 30.3398 26.0075 30.438 26.6816H34.5555C34.28 26.0643 34.5159 24.4736 34.5642 23.8185C34.6812 22.1521 34.1864 20.9171 33.132 20.4869C34.5792 19.9812 35.4489 18.5213 35.6707 17.1366Z" fill="#C3C2CB"/>
<path d="M93.0717 17.1366C93.4757 14.6098 91.6614 13.3186 89.3218 13.3186H81.4797L80.9702 16.5002H87.0155C88.5881 16.5002 88.978 16.9868 88.8432 17.8294C88.6514 19.0273 87.582 19.158 86.8149 19.158H80.5447L80.3582 20.3247L77.6639 13.3186H73.4526L71.3145 26.6816H75.2073L76.3752 19.3826H76.413L79.3419 26.6763L79.3406 26.6819H83.4584L84.2042 22.022H86.3941C88.0228 22.022 87.922 23.3503 87.831 24.623C87.7764 25.3159 87.7405 26.0078 87.8384 26.6819H91.9559C91.6801 26.0646 91.9162 24.4739 91.9643 23.8188C92.0813 22.1524 91.5865 20.9174 90.5324 20.4872C91.9768 19.9812 92.8471 18.5213 93.0686 17.1366H93.0717Z" fill="#C3C2CB"/>
</g>
<defs>
<clipPath id="clip0_3127_101471">
<rect width="92.1406" height="14" fill="white" transform="translate(13.9141 13)"/>
</clipPath>
</defs>
</svg>
