<svg width="800" height="607" viewBox="0 0 800 607" fill="none" xmlns="http://www.w3.org/2000/svg">
<path d="M476.304 397.906C476.304 397.906 448.729 415.698 437.818 407.955C437.818 407.955 465.401 426.247 495.541 434.09L518.835 421.279C518.835 421.279 483.637 410.805 476.304 397.906Z" fill="#FFD952" fill-opacity="0.54"/>
<path d="M437.818 407.955C437.818 407.955 475.973 424.219 491.74 411.72L480.901 403.202C480.901 403.202 449.154 410.173 437.818 407.955Z" fill="#A08935" fill-opacity="0.68"/>
<path d="M460.846 355.713L478.318 369.177C478.318 369.177 440.578 351.873 430.387 399.225L414.821 393.165C414.821 393.165 415.271 367.658 413.571 362.721C411.869 357.785 416.299 349.336 418.862 348.942L421.424 348.549L460.846 355.713Z" fill="#A27228"/>
<path d="M459.824 355.375C459.645 355.407 459.444 355.446 459.221 355.49C458.234 355.689 456.825 356.012 455.131 356.512C451.745 357.511 447.21 359.221 442.624 362.06C433.556 367.675 424.292 377.711 423.311 395.35L368.993 374.426L376.178 296.218C376.373 296.237 376.626 296.263 376.931 296.297C377.74 296.388 378.918 296.538 380.391 296.779C383.339 297.259 387.463 298.097 392.168 299.526C401.585 302.386 413.29 307.603 422.538 317.027L459.824 355.375Z" fill="#C9C9D8" stroke="black"/>
<path d="M286.841 296.045L286.879 296.052L286.917 296.054L363.745 299.406L363.937 299.414L364.085 299.292C368.586 295.578 373.652 295.425 377.637 296.221C379.63 296.618 381.341 297.252 382.553 297.786C383.159 298.053 383.639 298.295 383.966 298.469C384.13 298.556 384.255 298.626 384.338 298.673C384.38 298.697 384.411 298.715 384.431 298.727L384.454 298.741L384.459 298.744L384.459 298.744L384.459 298.744L384.461 298.745C387.434 300.54 390.03 304.14 392.275 309.171C394.513 314.189 396.373 320.563 397.914 327.818C400.994 342.327 402.781 360.286 403.794 377.797C404.807 395.303 405.044 412.343 405.028 425.009C405.02 431.341 404.949 436.578 404.879 440.233C404.845 442.06 404.811 443.491 404.785 444.465C404.775 444.858 404.766 445.176 404.759 445.416L286.264 432.554L286.254 432.514C286.19 432.265 286.095 431.894 285.968 431.408C285.715 430.436 285.339 429.001 284.843 427.151C283.852 423.45 282.385 418.087 280.481 411.436C276.673 398.134 271.119 379.678 264.131 359.059C257.135 338.414 249.785 324.179 244.177 315.098C241.373 310.558 239.005 307.306 237.334 305.186C236.499 304.126 235.838 303.349 235.385 302.836C235.256 302.69 235.143 302.565 235.048 302.461C243.164 295.817 255.911 294.152 266.809 294.198C272.331 294.221 277.342 294.683 280.973 295.14C282.788 295.368 284.257 295.595 285.272 295.764C285.779 295.849 286.172 295.919 286.439 295.968C286.572 295.993 286.673 296.012 286.74 296.025L286.816 296.04L286.835 296.043L286.84 296.044L286.841 296.045C286.841 296.045 286.841 296.045 286.939 295.554L286.841 296.045Z" fill="#EDEDFE" stroke="black"/>
<path d="M330.826 417.562C330.826 417.562 400.159 456.058 405.245 407.695L416.841 465.33H388.601L368.979 450.895L330.826 417.562Z" fill="#DFDFEF"/>
<path d="M287.739 295.78C287.636 295.648 287.553 295.539 287.491 295.455L292.245 279.07L351.85 284.408L363.112 298.876C352.796 309.87 342.947 315.143 333.989 316.9C324.948 318.673 316.762 316.874 309.851 313.673C302.935 310.469 297.306 305.866 293.402 302.056C291.451 300.152 289.935 298.45 288.907 297.225C288.393 296.612 288.001 296.119 287.739 295.78Z" fill="#C9C9D8" stroke="black"/>
<path d="M285.867 238.842L291.878 278.536C291.878 278.536 325.58 320.528 352.11 283.93L340.348 250.676L328.448 232.116L285.867 238.842Z" fill="#F9BF9D"/>
<path d="M348.452 273.584C348.452 273.584 308.45 290.231 287.607 250.323L286.941 241.438L325.743 228.506L342.789 257.576L348.452 273.584Z" fill="#E78952"/>
<path d="M319.204 152.613C319.204 152.613 333.277 144.487 343.477 160C353.677 175.512 354.554 200.9 351.4 212.637C348.245 224.375 345.705 215.636 336.11 212.637L319.204 152.613ZM254.601 194.68C254.601 194.68 229.511 203.048 244.256 221.468C259.001 239.887 270.514 240.979 279.526 240.351C288.538 239.723 297.14 200.319 297.14 200.319L293.923 184.639L282.005 170.067L254.601 194.68Z" fill="#3A464C"/>
<path d="M274.521 210.265C274.521 210.265 286.162 264.363 318.756 266.625C360.588 269.529 354.453 209.566 345.916 190.145C337.38 170.724 297.026 152.174 274.521 176.186C274.521 176.186 264.291 189.971 274.521 210.265Z" fill="#F9BF9D"/>
<path d="M276.793 212.92C276.793 212.92 262.124 198.267 260.31 215.268C258.495 232.27 280.654 247.864 292.258 237.346C303.861 226.829 319.204 215.268 319.204 215.268L276.793 212.92Z" fill="#F9BF9D"/>
<path d="M271.106 208.617C271.106 208.617 277.626 210.804 283.834 221.467C283.834 221.467 292.472 213.397 289.705 193.291C286.939 173.185 296.25 170.216 307.115 175.191C317.98 180.165 342.559 201.484 343.462 185.783C344.365 170.082 305.563 125.883 266.761 151.473C266.761 151.473 228.113 185.878 271.106 208.617Z" fill="#3A464C"/>
<path d="M250.687 295.602L250.739 295.614L250.791 295.615L250.791 295.615L250.791 295.615L250.795 295.615L250.814 295.616C250.832 295.617 250.859 295.618 250.897 295.62C250.972 295.625 251.086 295.633 251.237 295.648C251.538 295.677 251.984 295.733 252.552 295.838C253.688 296.047 255.312 296.453 257.244 297.236C261.105 298.801 266.205 301.878 271.102 307.931C280.785 319.905 289.725 343.598 286.553 390.457L234.969 302.531C235.007 302.501 235.048 302.468 235.092 302.433C235.383 302.199 235.806 301.865 236.334 301.47C237.39 300.678 238.86 299.638 240.518 298.646C242.177 297.652 244.012 296.712 245.798 296.112C247.592 295.509 249.285 295.267 250.687 295.602Z" fill="#DFDFEF" stroke="black"/>
<path d="M239.051 390.27L251.87 430.234C251.87 430.234 283.834 410.521 293.923 425.257L286.939 392.103C279.721 387.89 271.576 385.519 263.224 385.199C254.872 384.88 246.57 386.621 239.051 390.27Z" fill="#F9BF9D"/>
<path d="M250.803 426.669C250.803 426.669 259.001 465.33 306.339 465.33H396.359L388.599 441.346C388.599 441.346 304.023 420.791 291.601 419.404C279.178 418.018 261.229 413.603 250.803 426.669Z" fill="#F9BF9D"/>
<path d="M286.385 390.999C286.389 391.082 286.393 391.161 286.397 391.236C273.577 384.43 259.564 388.378 248.777 394.003C243.261 396.879 238.554 400.21 235.228 402.82C233.564 404.126 232.244 405.253 231.339 406.054C231.072 406.29 230.841 406.498 230.648 406.673C230.618 406.456 230.583 406.204 230.544 405.917C230.391 404.811 230.169 403.199 229.897 401.179C229.351 397.139 228.599 391.465 227.775 384.931C226.126 371.861 224.187 355.355 223.024 341.596L222.526 341.638L223.024 341.596C221.881 328.068 224.808 318.355 228.005 312.034C229.604 308.872 231.273 306.555 232.538 305.032C233.17 304.271 233.701 303.708 234.072 303.338C234.257 303.152 234.402 303.015 234.5 302.926C234.521 302.907 234.539 302.89 234.555 302.876C246.553 300.19 255.757 304.315 262.863 312.062C270.018 319.864 275.036 331.337 278.54 343.218C282.041 355.089 284.016 367.315 285.115 376.58C285.665 381.21 285.995 385.098 286.188 387.827C286.285 389.191 286.347 390.266 286.385 390.999Z" fill="#EDEDFE" stroke="black"/>
<path d="M230.287 407.694V417.562C230.287 417.562 259.237 384.567 288.737 401.81L286.937 392.102C286.937 392.102 261.012 372.849 230.287 407.694Z" fill="#C9C9D8"/>
<path d="M230.287 417.562C230.287 417.562 231.928 424.948 249.067 421.499L244.061 405.895C244.061 405.895 233.391 412.193 230.287 417.562Z" fill="#87878D"/>
<path d="M289.709 405.236C289.709 405.236 260.457 398.608 250.806 426.67L244.066 405.895C244.066 405.895 264.157 388.445 288.742 401.81L289.709 405.236Z" fill="#E78952"/>
<path d="M367.593 432.514H353.83L353.751 432.494L353.345 432.394C352.988 432.306 352.464 432.176 351.791 432.011C350.446 431.681 348.509 431.207 346.141 430.634C341.405 429.487 334.945 427.94 328.046 426.342C314.502 423.203 299.229 419.856 292.033 418.953L287.437 392.042L284.61 352.976L286.844 359.36L286.849 359.382C286.857 359.413 286.868 359.46 286.884 359.521C286.914 359.643 286.96 359.823 287.023 360.058C287.149 360.527 287.343 361.214 287.615 362.091C288.158 363.845 289.013 366.359 290.262 369.408C292.76 375.505 296.837 383.746 303.156 392.329C315.118 408.579 335.11 426.048 367.593 432.514Z" fill="#DFDFEF" stroke="black"/>
<path d="M388.602 441.346L414.987 422.417C414.987 422.417 435.939 452.404 421.971 457.833C413.67 461.076 405.101 463.584 396.362 465.33L388.602 441.346Z" fill="#F9BF9D"/>
<path d="M414.982 422.416C414.982 422.416 420.705 415.295 426.768 417.562C432.831 419.829 451.456 422.416 451.456 422.416C451.456 422.416 452.232 425.754 442.919 426.669C437.55 427.232 432.137 427.232 426.768 426.669L414.982 436.891L405.24 443.873L414.982 422.416Z" fill="#F9BF9D"/>
<path d="M419.952 430.876H440.593C440.593 430.876 446.026 431.204 444.474 435.857L419.952 440.412L412.656 442.839L419.952 430.876Z" fill="#F9BF9D"/>
<path d="M442.183 437.461C442.183 437.461 447.408 441.259 442.183 443.874C442.183 443.874 445.753 448.582 439.545 450.896C433.337 453.21 420.137 458.53 420.137 458.53C420.137 458.53 405.24 448.07 405.24 445.972V441.446L442.183 437.461Z" fill="#F9BF9D"/>
<path d="M400.216 433.014C400.216 433.014 411.097 415.969 410.58 405.894C410.58 405.894 418.376 409.326 410.598 430.234C402.82 451.141 407.687 443.873 407.687 443.873L400.216 433.014ZM407.687 282.111C407.687 282.111 388.854 274.705 375.662 273.584C375.662 273.584 385.445 264.706 400.216 270.136C400.216 270.136 416.99 263.111 428.707 279.853C440.423 296.595 436.716 302.416 436.716 302.416L407.687 282.111Z" fill="#F9BF9D"/>
<path d="M414.655 278.536L407.685 268.692C407.685 268.692 402.568 257.726 396.36 247.432C390.152 237.137 381.615 240.351 381.615 240.351C389.376 244.693 393.256 254.839 393.256 254.839L400.214 270.136L414.655 278.536Z" fill="#F9BF9D"/>
<path d="M400.957 255.485C400.957 255.485 405.558 240.632 400.957 232.116C400.957 232.116 408.143 232.977 407.682 243.801C407.222 254.624 410.807 259.206 410.807 259.206L419.739 271.506L413.192 273.584H405.526L405.24 266.625L400.957 255.485Z" fill="#F9BF9D"/>
<path d="M409.048 255.485C409.048 255.485 416.652 241.408 414.653 232.116C414.653 232.116 422.293 236.842 414.988 252.767L426.769 268.378C426.769 268.378 430.894 276.08 424.874 279.854C418.854 283.627 421.957 288.95 421.957 288.95L405.527 260.533L409.048 255.485Z" fill="#F9BF9D"/>
<path d="M416.84 255.218C416.84 255.218 424.029 247.013 422.477 240.761C422.477 240.761 428.506 247.481 420.851 260.533L416.84 255.218Z" fill="#F9BF9D"/>
<path d="M430.394 399.225C430.394 399.225 465.886 418.554 478.325 405.895L437.274 378.262C437.274 378.262 434.014 380.888 430.394 399.225ZM400.218 270.136C400.218 270.136 409.136 262.262 416.843 272.427C416.843 272.427 414.088 262.161 397.592 264.363L400.218 270.136Z" fill="#E78952"/>
<path d="M407.131 305.098L431.958 392.103L444.507 368.463L415.436 311.974C415.436 311.974 416.151 309.169 407.131 305.098Z" fill="#EDEDFE"/>
<path d="M407.682 282.111C407.682 282.111 434.414 392.736 451.471 405.895C468.528 419.053 496.465 404.742 481.721 368.463C466.975 332.185 428.702 279.853 428.702 279.853L407.682 282.111Z" fill="#F9BF9D"/>
<path d="M497.268 370.91L467.516 383.593C467.516 383.593 513.083 418.083 528.67 412.019L552.65 395.622C552.65 395.622 517.773 391.24 497.268 370.91Z" fill="#FFD952" fill-opacity="0.54"/>
<path d="M549.221 306.821L527.15 325.406C527.15 325.406 561.094 342.229 577.858 333.613L596.484 314.624C596.484 314.624 562.493 315.639 549.221 306.821Z" fill="#FFD952" fill-opacity="0.54"/>
<path d="M546.85 332.924L571.17 313.322L580.954 314.26L569.097 335.935C569.097 335.935 552.641 334.763 546.85 332.924Z" fill="#A08935" fill-opacity="0.68"/>
<path d="M511.226 329.651L485.877 349.731C485.877 349.731 538.935 370.98 552.368 361.021L571.169 338.881C571.169 338.881 536.371 343.852 511.226 329.651Z" fill="#FFD952" fill-opacity="0.54"/>
<path d="M465.811 320.966L424.761 341.749C424.761 341.749 471.7 367.46 496.533 366.03L531.883 343.527C531.883 343.527 474.822 335.656 465.811 320.966ZM537.6 370.49C537.6 370.49 523.942 385.022 504.077 391.138C504.077 391.138 530.378 407.865 553.855 405.895L561.819 369.347C561.819 369.347 547.533 374.285 537.6 370.49ZM393.727 348.529C393.727 348.529 368.254 362.889 353.744 352.593C353.744 352.593 379.227 386.218 419.308 396.647L450.285 379.611C450.285 379.611 403.478 365.683 393.727 348.529Z" fill="#FFD952" fill-opacity="0.54"/>
<path d="M521.695 361.021L540.095 346.665L528.195 345.872L509.459 357.799L521.695 361.021Z" fill="#A08935" fill-opacity="0.68"/>
<path d="M439.752 349.261C439.752 349.261 460.851 373.887 483.252 372.588L479.687 363.678C479.687 363.678 443.909 351.247 439.752 349.261Z" fill="#E78952"/>
<path d="M365.756 365.55C365.756 365.55 387.641 395.767 405.195 399.225L404.966 392.103L365.756 365.55Z" fill="#A08935" fill-opacity="0.68"/>
<path d="M473.275 282.046L452.449 305.668C452.449 305.668 480.095 295 502.146 306.395L513.902 312.336L531.017 286.615C531.017 286.615 503.903 268.746 478.661 277.445L473.275 282.046Z" fill="#FFD952" fill-opacity="0.54"/>
<path d="M561.82 369.347C561.82 369.347 549.747 397.216 531.885 403.338C539.117 404.849 546.471 405.705 553.857 405.895L561.82 369.347Z" fill="#A08935" fill-opacity="0.68"/>
<path opacity="0.4" d="M343.477 293.697C343.477 293.697 364.656 302.462 375.659 327.15L394.462 313.322L348.448 292.072L343.477 293.697Z" fill="#DFDFEF"/>
<path d="M365.824 279.404L335.377 287.476C335.377 287.476 364.292 293.961 376.29 315.682L382.761 327.15L411.291 315.271C411.291 315.271 398.684 285.356 372.86 278.569L365.824 279.404Z" fill="#FFD952" fill-opacity="0.54"/>
<path d="M513.104 396.066L504.078 399.225C504.078 399.225 524.571 414.823 528.673 412.019L536.52 404.211C536.52 404.211 526.154 404.079 513.104 396.066Z" fill="#A08935" fill-opacity="0.68"/>
<path d="M745.367 465.83C743.284 470.37 739.424 474.101 734.711 477.152C729.765 480.354 723.916 482.781 718.302 484.595C712.691 486.407 707.332 487.601 703.374 488.341C701.396 488.711 699.77 488.968 698.638 489.132C698.073 489.214 697.631 489.273 697.332 489.311C697.182 489.33 697.068 489.344 696.991 489.353L696.905 489.363L696.904 489.363H200.456C176.396 486.266 165.429 480.159 160.469 474.926C157.992 472.314 157.004 469.911 156.626 468.184C156.437 467.319 156.4 466.618 156.41 466.14C156.412 466.023 156.417 465.919 156.423 465.83H269.547H745.367Z" fill="#EDEDFE" stroke="black"/>
<path d="M540.712 465.33H491.763C491.763 465.33 490.12 483.659 510.919 489.863H724.922C730.378 488.129 735.247 484.919 738.99 480.589C742.732 476.259 745.203 470.977 746.126 465.33H540.712Z" fill="#C3C3E1"/>
<path d="M574.731 260.68C585.203 255.882 593.532 247.386 598.117 236.824C602.703 226.262 603.221 214.379 599.572 203.458C595.924 192.538 588.366 183.35 578.352 177.66C568.337 171.97 556.572 170.179 545.317 172.633C534.061 175.086 524.11 181.609 517.375 190.95C510.64 200.291 507.596 211.789 508.829 223.237C510.061 234.684 515.482 245.273 524.051 252.968C532.62 260.663 543.732 264.921 555.252 264.926C555.252 264.926 567.995 287.393 594.211 288.171C594.211 288.171 573.668 277.017 574.731 260.68Z" fill="#3E40B3"/>
<path d="M570.949 233.749C570.949 233.749 568.887 212.534 568.04 208.668C568.035 208.647 568.029 208.626 568.024 208.604C567.741 202.908 563.241 198.179 557.208 196.776C558.465 185.253 550.599 188.496 550.599 188.496L549.504 196.835L549.506 196.838C543.579 198.319 539.193 203.023 538.943 208.664L538.929 208.668L533.787 231.441C533.787 231.441 553.127 241.311 570.949 233.749Z" fill="white"/>
<path d="M541.967 235.952C544.213 244.94 551.903 244.603 551.903 244.603C558.975 244.962 562.056 237.819 562.056 237.819C552.453 239.402 541.967 235.952 541.967 235.952Z" fill="white"/>
<path d="M193.672 397.392H239.053L230.29 465.495H201.122L193.672 397.392Z" fill="#D3C690"/>
<path d="M197.816 435.301C197.816 435.301 203.694 420.704 222.272 436.513C222.272 436.513 232.738 438.616 234.321 430.234C235.902 421.852 230.287 465.495 230.287 465.495H201.119L197.816 435.301Z" fill="#AA9D65"/>
<path d="M199.318 449.014C199.318 449.014 224.692 465.659 230.29 465.495H201.122L199.318 449.014Z" fill="#82774A"/>
<path d="M196.726 392.973L219.706 392.538C219.706 392.538 220.774 379.584 209.005 366.36C197.236 353.135 218.581 347.162 214.291 323.647C214.291 323.647 210.599 349.895 196.212 359.976C181.825 370.056 189.33 372.254 197.145 378.949C204.96 385.644 207.405 390.936 196.726 392.973Z" fill="#F79A45"/>
<path d="M515.322 449.031H463.614C463.614 449.031 461.879 460.868 483.85 464.874H709.909C709.909 464.874 728.575 461.902 732.309 449.031H515.322Z" fill="#347782"/>
<path d="M587.013 449.031H552.389C552.389 449.031 551.227 460.868 565.939 464.874H717.311C717.311 464.874 729.81 461.902 732.31 449.031H587.013Z" fill="#1B4A4C"/>
<path d="M597.948 311.837C597.948 311.837 576.675 306.257 570.467 329.651L544.393 449.324L555.337 449.236L580.42 330.759C580.42 330.759 591.092 312.467 597.948 311.837Z" fill="#1B4A4C"/>
<path d="M554.93 449.915L580.423 330.759C580.423 330.759 584.857 310.403 604.808 311.207H718.975L748.902 310.663C748.902 310.663 764.42 313.764 761.095 328.94C757.769 344.115 734.216 449.915 734.216 449.915H554.93Z" fill="#EDEDFE"/>
<path d="M674.09 392.437C678.596 387.933 678.596 380.631 674.09 376.127C669.584 371.623 662.277 371.623 657.771 376.127C653.264 380.631 653.264 387.933 657.771 392.437C662.277 396.941 669.584 396.941 674.09 392.437Z" fill="white"/>
<path d="M314.546 212.439C314.425 213.545 314.543 214.664 314.891 215.72C315.351 217.124 317.44 216.558 317.108 215.109C316.886 214.125 316.601 213.156 316.254 212.208C315.899 211.255 314.667 211.467 314.546 212.439ZM332.785 210.056C332.355 210.518 332.393 211.063 332.438 211.653C332.48 212.194 332.512 212.732 332.534 213.274C332.541 213.623 332.683 213.956 332.93 214.203C333.177 214.45 333.51 214.591 333.859 214.598C334.534 214.598 335.239 213.991 335.184 213.274C335.104 212.229 334.873 210.131 333.623 209.834C333.476 209.795 333.322 209.794 333.175 209.833C333.028 209.872 332.893 209.949 332.785 210.056Z" fill="#5E1212"/>
<path d="M330.502 204.528C331.463 203.825 332.714 203.75 333.833 204.074C334.433 204.259 335.005 204.521 335.536 204.856C335.793 205.012 336.044 205.179 336.29 205.352C336.54 205.528 336.792 205.782 337.093 205.854C337.129 205.863 337.166 205.861 337.201 205.849C337.235 205.837 337.266 205.815 337.288 205.786C337.31 205.757 337.324 205.722 337.326 205.685C337.329 205.649 337.321 205.612 337.304 205.58C337.151 205.308 336.828 205.133 336.578 204.959C336.291 204.758 335.997 204.564 335.693 204.388C335.11 204.04 334.479 203.777 333.821 203.607C332.634 203.32 331.301 203.439 330.305 204.191C330.108 204.34 330.298 204.678 330.502 204.528ZM311.083 208.301C311.225 207.197 312.288 206.474 313.283 206.201C314.374 205.927 315.507 205.872 316.619 206.04C316.75 206.057 316.757 205.881 316.678 205.821C316.151 205.418 315.458 205.479 314.83 205.53C314.172 205.564 313.521 205.689 312.897 205.901C311.827 206.301 310.957 207.125 310.825 208.301C310.807 208.467 311.063 208.463 311.083 208.301Z" fill="#5E1212"/>
<path d="M327.545 235.569L326.605 234.326C327.232 233.861 328.016 233.705 328.799 233.705C329.269 233.705 329.583 233.395 329.583 233.239C329.583 232.929 329.269 232.618 328.956 232.308C326.449 229.823 325.508 226.096 326.292 222.68L327.859 222.99C327.232 225.785 328.016 229.047 330.053 231.065C330.523 231.686 331.306 232.463 331.15 233.395C330.993 234.326 330.209 234.948 328.956 235.103C328.329 235.413 327.859 235.413 327.545 235.569ZM322.688 247.215C321.434 246.594 320.337 245.507 319.867 244.265L321.277 243.644C321.591 244.575 322.374 245.352 323.315 245.663C324.255 246.128 325.352 246.128 326.292 245.663L326.919 247.06C325.508 247.681 324.098 247.681 322.688 247.215Z" fill="#5E1212"/>
<path d="M272.74 227.703C272.963 227.692 273.184 227.645 273.392 227.562C274.86 226.988 275.542 224.911 275.619 224.667L274.094 224.195C273.928 224.729 273.376 225.883 272.789 226.11C272.697 226.144 272.597 226.156 272.5 226.143C272.402 226.13 272.31 226.093 272.23 226.035C271.75 225.761 271.739 225.552 271.784 224.709C271.868 224.024 271.798 223.328 271.578 222.672C271.359 222.017 270.995 221.42 270.515 220.923C269.698 220.106 268.712 219.478 267.627 219.084C266.323 218.54 266.091 218.402 266.362 217.038C266.411 216.82 266.504 216.614 266.637 216.434C266.769 216.254 266.937 216.103 267.13 215.991C268.722 215.415 270.457 215.358 272.083 215.829L272.481 214.307C272.317 214.316 268.53 213.321 266.322 214.64C265.951 214.857 265.628 215.147 265.374 215.494C265.119 215.841 264.938 216.236 264.842 216.655C264.191 219.315 265.695 219.954 267.014 220.512C267.9 220.825 268.705 221.329 269.373 221.99C269.716 222.329 269.972 222.746 270.12 223.205C270.267 223.665 270.302 224.153 270.22 224.629C270.104 225.16 270.162 225.715 270.386 226.211C270.61 226.707 270.988 227.117 271.463 227.382C271.846 227.616 272.291 227.727 272.74 227.703Z" fill="#5E1212"/>
</svg>
