<svg width="82" height="36" viewBox="0 0 82 36" fill="none" xmlns="http://www.w3.org/2000/svg">
<rect width="82" height="36" fill="#1E1E1E"/>
<path d="M-1487 -4546C-1487 -4547.1 -1486.1 -4548 -1485 -4548H1567C1568.1 -4548 1569 -4547.1 1569 -4546V1832C1569 1833.1 1568.1 1834 1567 1834H-1485C-1486.1 1834 -1487 1833.1 -1487 1832V-4546Z" fill="#404040"/>
<rect width="1440" height="5616" transform="translate(-679 -4152)" fill="#020013"/>
<rect width="1440" height="5616" transform="translate(-679 -4152)" fill="#020013"/>
<rect width="1440" height="782" transform="translate(-679 -300)" fill="#020013"/>
<rect x="-154.75" y="-37.75" width="391.5" height="419.5" rx="9.75" fill="#09071B"/>
<path d="M54.5695 10.7517C52.6344 12.5396 52.7796 16.4295 54.884 19.0631C55.779 20.1987 57.7866 21.2617 58.9961 21.2617C59.6008 21.2617 59.7701 21.1893 59.5282 21.0443C59.2622 20.8752 59.2863 20.8027 59.6975 20.7302C60.1813 20.6577 60.1088 20.4161 58.343 16.4779C57.3029 14.2067 56.3837 12.3946 56.3111 12.4671C56.2386 12.5396 56.1902 12.443 56.1902 12.2738C56.2386 11.8631 55.5855 10.1477 55.3678 10.1477C55.2952 10.1477 54.9324 10.4134 54.5695 10.7517Z" fill="white"/>
<path opacity="0.7" d="M59.1003 9.85586C56.5951 10.675 55.1032 14.2711 55.9166 17.5413C56.2561 18.9462 57.6371 20.7486 58.7364 21.2523C59.2861 21.5042 59.4702 21.5088 59.3109 21.2763C59.1396 21.0117 59.1919 20.9559 59.5959 21.0613C60.0659 21.1969 60.1008 20.9471 60.1398 16.6321C60.1424 14.1346 60.0634 12.1047 59.9672 12.1404C59.871 12.1761 59.8673 12.0681 59.9379 11.9143C60.1534 11.5612 60.2758 9.72995 60.078 9.63929C60.012 9.60907 59.5713 9.69952 59.1003 9.85586Z" fill="white"/>
<path d="M30.5992 11.4282C30.5266 11.5973 30.5025 15.1007 30.5266 19.2081L30.5992 26.698H31.5668H32.5343L32.6553 24.2819L32.7762 21.8658L33.5019 21.7933C34.1792 21.745 34.3727 21.9383 35.9933 24.2819L37.7591 26.8188H38.8234C39.4039 26.8188 39.9603 26.698 40.0328 26.5772C40.1054 26.4322 39.3556 25.1759 38.3396 23.7745C37.3237 22.3732 36.4529 21.0926 36.3803 20.9235C36.332 20.7785 37.0818 19.498 38.0736 18.1208C39.0653 16.7195 39.791 15.4873 39.6942 15.3906C39.5733 15.2698 39.0169 15.2215 38.4364 15.2698C37.4205 15.3423 37.3479 15.3906 35.8482 17.5168C34.4694 19.4739 34.2517 19.6913 33.5502 19.6913H32.7762L32.7036 15.3906L32.6553 11.1141H31.6635C31.1072 11.1141 30.6476 11.2349 30.5992 11.4282Z" fill="white"/>
<path d="M3.8964 15.2215C2.05805 15.6805 0.848615 17.2993 1.0905 18.9664C1.33239 20.5852 2.27575 21.2859 4.83977 21.7449C7.04095 22.1315 7.74242 22.5423 7.74242 23.4362C7.74242 25.2725 4.16248 25.6349 3.26749 23.9194C2.92885 23.2671 2.75953 23.1946 1.79198 23.1946C0.606727 23.1946 0.606727 23.1705 1.21145 24.7651C1.7436 26.1423 3.8964 27.0845 6.17015 26.8913C8.54065 26.6738 10.0162 25.2725 9.96779 23.2671C9.9436 21.31 8.97605 20.5127 5.85569 19.9087C3.19493 19.4013 2.42089 18.4832 3.77546 17.4201C4.91233 16.5262 7.25864 16.9611 7.62148 18.1208C7.74242 18.5074 7.98431 18.604 8.73416 18.604C9.55658 18.604 9.67752 18.5315 9.67752 18.0483C9.67752 17.2268 8.8551 16.0671 7.96012 15.6322C6.92 15.149 4.96071 14.9557 3.8964 15.2215Z" fill="white"/>
<path d="M18.505 15.1973C14.8767 16.1396 13.0141 20.1745 14.6106 23.557C15.6749 25.804 17.4165 26.8671 19.9805 26.8671C21.9398 26.8429 23.3911 26.1181 24.6247 24.5476C25.423 23.5087 25.3262 23.1946 24.1652 23.1946C23.3911 23.1946 22.9799 23.3637 22.351 23.9194C21.0206 25.0792 18.892 25.1758 17.5858 24.1611C16.9569 23.6537 16.1587 22.2523 16.3522 21.9382C16.4247 21.8416 18.5292 21.7449 21.069 21.7449H25.6407V20.8268C25.6407 18.7007 24.1652 16.3087 22.3752 15.5597C21.3593 15.149 19.4241 14.9557 18.505 15.1973ZM21.8914 17.6617C22.8831 18.2416 23.6572 19.5463 23.1976 19.8362C23.0041 19.957 21.456 20.0295 19.7144 20.0054C16.1103 19.9329 15.8684 19.7637 17.1746 18.2899C18.3598 16.9369 20.2708 16.6711 21.8914 17.6617Z" fill="white"/>
<path d="M73.7058 15.318C71.1418 16.0187 69.5938 18.169 69.5938 20.9959C69.5938 24.5717 71.7949 26.8187 75.3749 26.867C76.5359 26.8912 77.1648 26.7704 78.0598 26.3113C79.0999 25.7556 80.7932 23.9918 80.7932 23.412C80.7932 23.2912 80.2852 23.1945 79.6321 23.1945C78.7855 23.1945 78.4227 23.3153 78.205 23.6294C77.8179 24.2818 76.415 24.8858 75.3507 24.8858C73.7542 24.8858 71.8433 23.3878 71.8433 22.1314C71.8433 21.7932 72.3996 21.7449 76.4392 21.7449C80.2126 21.7449 81.0834 21.6724 81.1802 21.4066C81.4221 20.7784 80.5513 18.0241 79.8498 17.1543C78.471 15.4147 76.0038 14.6657 73.7058 15.318ZM77.2858 17.6133C78.084 18.0724 78.979 19.4254 78.7371 19.812C78.5436 20.1261 72.1578 20.1502 71.9643 19.812C71.7466 19.4737 72.7383 17.9274 73.3672 17.5892C74.7218 16.8885 75.9796 16.8885 77.2858 17.6133Z" fill="white"/>
<path d="M44.3653 15.5839C44.2686 15.7772 44.2686 17.6618 44.3169 19.7396C44.4137 23.8712 44.5588 24.4027 45.8892 25.6591C46.8326 26.5531 47.7759 26.8672 49.5417 26.8672C51.7187 26.8913 53.0975 26.1182 53.9924 24.4269C54.5004 23.4363 54.6697 22.8081 54.6697 21.7208C54.6697 20.4645 54.573 20.1745 53.8231 19.1839C53.3635 18.5799 52.9765 17.9276 52.9765 17.7343C52.9765 17.541 52.8798 17.396 52.7346 17.396C52.5895 17.396 52.4927 18.3625 52.4686 19.7396C52.4686 22.6148 52.1541 23.6054 51.0656 24.3302C50.0255 25.0309 48.9128 25.0309 47.8727 24.3302C46.7116 23.5571 46.4697 22.639 46.4697 18.6524L46.4455 15.2215H45.478C44.8249 15.2215 44.4379 15.3423 44.3653 15.5839Z" fill="white"/>
<path d="M62.239 15.3906C61.0538 15.6081 60.957 16.1396 60.957 21.6725C60.957 24.4994 61.0296 26.8188 61.1022 26.8188C61.6343 26.8188 62.8679 25.949 63.255 25.2967C63.6662 24.6443 63.7629 23.9195 63.8597 20.7302C63.9806 17.1061 64.0048 16.9128 64.5854 16.3088C64.924 15.9463 65.4078 15.5598 65.6738 15.4631C66.1818 15.2457 63.255 15.1974 62.239 15.3906ZM62.8921 16.5504C62.8921 16.7437 62.7954 16.9128 62.6744 16.9128C62.36 16.9128 62.1423 16.5262 62.3358 16.3329C62.6019 16.0672 62.8921 16.188 62.8921 16.5504Z" fill="white"/>
<rect x="-154.75" y="-37.75" width="391.5" height="419.5" rx="9.75" stroke="#18171C" stroke-width="0.5"/>
<path d="M-1485 -4547H1567V-4549H-1485V-4547ZM1568 -4546V1832H1570V-4546H1568ZM1567 1833H-1485V1835H1567V1833ZM-1486 1832V-4546H-1488V1832H-1486ZM-1485 1833C-1485.55 1833 -1486 1832.55 -1486 1832H-1488C-1488 1833.66 -1486.66 1835 -1485 1835V1833ZM1568 1832C1568 1832.55 1567.55 1833 1567 1833V1835C1568.66 1835 1570 1833.66 1570 1832H1568ZM1567 -4547C1567.55 -4547 1568 -4546.55 1568 -4546H1570C1570 -4547.66 1568.66 -4549 1567 -4549V-4547ZM-1485 -4549C-1486.66 -4549 -1488 -4547.66 -1488 -4546H-1486C-1486 -4546.55 -1485.55 -4547 -1485 -4547V-4549Z" fill="white" fill-opacity="0.1"/>
</svg>
