<svg width="101" height="24" viewBox="0 0 101 24" fill="none" xmlns="http://www.w3.org/2000/svg">
<g id="Walmart_logo 1" clip-path="url(#clip0_3127_101455)">
<g id="Group">
<path id="Vector" d="M58.0859 12.7709C58.0859 10.4007 57.0713 8.30664 53.64 8.30664C51.8796 8.30664 50.4811 8.80839 49.7229 9.24758L50.2787 11.1491C50.9767 10.7111 52.0906 10.3504 53.1419 10.3504C54.8791 10.348 55.1637 11.3306 55.1637 11.9624V12.1145C51.3717 12.1084 48.9746 13.4186 48.9746 16.0868C48.9746 17.7172 50.1916 19.2458 52.3188 19.2458C53.6167 19.2458 54.7134 18.722 55.3685 17.8951H55.4323C55.4323 17.8951 55.8642 19.7021 58.2527 19.0115C58.1312 18.2546 58.0859 17.4572 58.0859 16.488V12.7709ZM55.257 15.2735C55.257 15.4649 55.241 15.6636 55.1846 15.8341C54.9661 16.5641 54.213 17.175 53.2757 17.175C52.4844 17.175 51.8636 16.7272 51.8636 15.7887C51.8636 14.3534 53.4486 13.9584 55.257 13.9682" fill="#C3C2CB"/>
<path id="Vector_2" d="M0.0292969 5.08203C0.0292969 5.08203 2.50613 15.2152 2.89994 16.8566C3.36365 18.7753 4.19418 19.4844 6.59131 19.0121L8.13949 12.7285C8.53083 11.1717 8.79702 10.0554 9.04976 8.46916H9.09267C9.2681 10.0713 9.52085 11.1717 9.84102 12.7334C9.84102 12.7334 10.4728 15.5881 10.8004 17.0836C11.1193 18.579 12.0173 19.5224 14.3691 19.0121L18.0543 5.08203H15.0793L13.8146 11.1079C13.4796 12.8536 13.1754 14.2289 12.9386 15.8286H12.8957C12.6822 14.246 12.4111 12.9273 12.0627 11.2171L10.7525 5.08203H7.64879L6.25025 11.0601C5.85153 12.8855 5.47861 14.3491 5.24429 15.8985H5.20381C4.96215 14.4448 4.6346 12.5936 4.2874 10.8368C4.2874 10.8368 3.45687 6.55662 3.1637 5.08203" fill="#C3C2CB"/>
<path id="Vector_3" d="M26.3461 12.7709C26.3461 10.4007 25.3291 8.30664 21.8978 8.30664C20.1423 8.30664 18.7413 8.80839 17.9832 9.24758L18.5389 11.1491C19.2345 10.7111 20.3472 10.3504 21.4022 10.3504C23.1393 10.348 23.4239 11.3306 23.4239 11.9624V12.1145C19.632 12.1084 17.2324 13.4186 17.2324 16.0868C17.2324 17.7172 18.4543 19.2458 20.5717 19.2458C21.8818 19.2458 22.9688 18.722 23.6239 17.8951H23.6901C23.6901 17.8951 24.1244 19.7021 26.5105 19.0115C26.3878 18.2546 26.3461 17.4572 26.3461 16.488V12.7709ZM23.5147 15.2735C23.5147 15.4649 23.4988 15.6636 23.4448 15.8341C23.2239 16.5641 22.4707 17.175 21.531 17.175C20.7446 17.175 20.1215 16.7272 20.1215 15.7887C20.1215 14.3534 21.7064 13.9584 23.5147 13.9682" fill="#C3C2CB"/>
<path id="Vector_4" d="M27.8887 5.08203V19.0071H30.72V16.0543V5.08203H27.8887Z" fill="#C3C2CB"/>
<path id="Vector_5" d="M66.7715 5.08203V15.3563C66.7715 16.7744 67.0377 17.7632 67.6105 18.3692C68.1136 18.9004 68.9367 19.2464 69.9169 19.2464C70.7585 19.2464 71.5816 19.0844 71.9705 18.9434L71.9362 16.7315C71.6454 16.799 71.313 16.8566 70.8566 16.8566C69.8899 16.8566 69.571 16.2445 69.571 14.9711V11.038H72.0368V8.37715H69.571V5.08203" fill="#C3C2CB"/>
<path id="Vector_6" d="M59.459 8.54949V19.0127H62.3861V13.6541C62.3861 13.3658 62.4044 13.1168 62.4498 12.8861C62.6682 11.7563 63.5257 11.0411 64.7611 11.0411C65.1058 11.0411 65.3401 11.0791 65.6002 11.1196V8.37652C65.3818 8.33726 65.2334 8.31641 64.9647 8.31641C63.8692 8.31641 62.6277 9.01199 62.1038 10.5271H62.0315V8.54949" fill="#C3C2CB"/>
<path id="Vector_7" d="M32.3652 8.54949V19.0127H35.2174V12.8714C35.2174 12.5831 35.2493 12.2887 35.3512 12.0225C35.583 11.4005 36.1584 10.6804 37.0821 10.6804C38.2304 10.6804 38.7726 11.6496 38.7726 13.0481V19.0127H41.6176V12.7978C41.6176 12.5267 41.6556 12.1942 41.7353 11.9538C41.9635 11.2484 42.5867 10.6804 43.4479 10.6804C44.6084 10.6804 45.1703 11.6287 45.1703 13.2775V19.0127H48.0127V12.8432C48.0127 9.60207 46.3639 8.31641 44.4918 8.31641C43.6687 8.31641 43.0136 8.51883 42.4247 8.88195C41.9266 9.18742 41.49 9.61801 41.0986 10.1811H41.0557C40.6055 9.05492 39.548 8.31641 38.1666 8.31641C36.3952 8.31641 35.5904 9.21073 35.1169 9.96642H35.0739V8.54949" fill="#C3C2CB"/>
<path id="Vector_8" d="M87.3554 8.07953C87.9148 8.07953 88.3858 7.78756 88.4471 7.41217L89.0017 1.13109C89.0017 0.509112 88.2693 0 87.3554 0C86.4365 0 85.709 0.509112 85.709 1.13109L86.2684 7.41217C86.3273 7.78756 86.7959 8.07953 87.3554 8.07953Z" fill="#C3C2CB"/>
<path id="Vector_9" d="M83.9556 10.0446C84.2328 9.55388 84.2168 9.00919 83.9176 8.76629L78.7405 5.14608C78.202 4.83203 77.396 5.2062 76.9348 5.99869C76.4747 6.78996 76.5679 7.67815 77.0954 7.98607L82.8269 10.6433C83.1937 10.7807 83.6734 10.5255 83.9556 10.0397" fill="#C3C2CB"/>
<path id="Vector_10" d="M90.759 10.0398C91.0521 10.5256 91.5318 10.7808 91.8888 10.6507L97.6203 7.98617C98.1527 7.67212 98.2325 6.79252 97.7822 6.00125C97.3222 5.20875 96.5113 4.83704 95.974 5.14496L90.7958 8.76149C90.5087 9.00807 90.4879 9.55522 90.7651 10.0447" fill="#C3C2CB"/>
<path id="Vector_11" d="M87.3554 15.9258C87.9148 15.9258 88.3858 16.2178 88.4471 16.5931L89.0017 22.8742C89.0017 23.4962 88.2693 24.0004 87.3554 24.0004C86.4365 24.0004 85.709 23.4962 85.709 22.8742L86.2684 16.5931C86.3273 16.2178 86.7959 15.9258 87.3554 15.9258Z" fill="#C3C2CB"/>
<path id="Vector_12" d="M90.759 13.9646C91.0521 13.4775 91.5318 13.2175 91.8888 13.3585L97.6203 16.0182C98.1527 16.3261 98.2325 17.2131 97.7822 18.0056C97.3222 18.7919 96.5113 19.1661 95.974 18.8582L90.7958 15.2367C90.5087 14.9926 90.4879 14.4479 90.7651 13.9646" fill="#C3C2CB"/>
<path id="Vector_13" d="M83.9556 13.9593C84.2328 14.4488 84.2168 14.9923 83.9176 15.2376L78.7405 18.8529C78.202 19.167 77.396 18.7916 76.9348 18.0052C76.4747 17.214 76.5679 16.3258 77.0954 16.0179L82.8269 13.3582C83.1937 13.2184 83.6734 13.476 83.9556 13.9593Z" fill="#C3C2CB"/>
<path id="Vector_14" d="M99.2977 18.3071H99.3689C99.4658 18.3071 99.505 18.3378 99.5161 18.4151C99.5369 18.501 99.548 18.5586 99.5688 18.5831H99.7528C99.7369 18.5647 99.716 18.5181 99.705 18.4102C99.6841 18.3169 99.6363 18.2642 99.5688 18.2458V18.2286C99.662 18.2078 99.716 18.1452 99.716 18.0679C99.716 17.998 99.6841 17.9477 99.6522 17.9158C99.5909 17.8863 99.532 17.863 99.402 17.863C99.2867 17.863 99.202 17.8728 99.1345 17.8888V18.5831H99.2977V18.3071ZM99.3026 17.9906L99.386 17.9796C99.4842 17.9796 99.5369 18.025 99.5369 18.0888C99.5369 18.1599 99.4658 18.193 99.375 18.193H99.3026V17.9906ZM99.4069 17.5195C99.0045 17.5195 98.6855 17.8336 98.6855 18.2188C98.6855 18.6138 99.0045 18.9279 99.4069 18.9279C99.8142 18.9279 100.123 18.6138 100.123 18.2188C100.123 17.8336 99.8142 17.5195 99.4069 17.5195ZM99.4069 17.6606C99.716 17.6606 99.9454 17.9109 99.9454 18.2188C99.9454 18.5292 99.716 18.7868 99.4069 18.7819C99.0977 18.7819 98.8634 18.5292 98.8634 18.2188C98.8634 17.9109 99.0977 17.6606 99.402 17.6606" fill="#C3C2CB"/>
</g>
</g>
<defs>
<clipPath id="clip0_3127_101455">
<rect width="100.094" height="24" fill="white" transform="translate(0.0292969)"/>
</clipPath>
</defs>
</svg>
