<svg width="35" height="24" viewBox="0 0 35 24" fill="none" xmlns="http://www.w3.org/2000/svg">
<g clip-path="url(#clip0_738_2006)">
<path d="M35 0H0V24H35V0ZM18.4392 13.689H18.4377V18.661H16.1321V13.597L10.1398 5.894H12.8742L16.4063 10.769L17.36 12.205C17.656 11.751 17.9929 11.268 18.359 10.769L21.9377 5.894H24.4927L18.4392 13.689Z" fill="#F3621D"/>
<path d="M12.873 5.894H10.1387L16.131 13.598V18.662H17.3574V12.2L16.4051 10.768L12.873 5.894ZM17.3574 0H-0.142578V24H-0.00111981V0H17.3574Z" fill="#DEDEDE"/>
<path d="M17.3585 0H0V24H17.3585V18.661H16.1321V13.598L10.1398 5.894H12.8742L16.4062 10.769L17.3585 12.2V0Z" fill="#D45519"/>
</g>
<defs>
<clipPath id="clip0_738_2006">
<rect width="35" height="24" fill="white"/>
</clipPath>
</defs>
</svg>
