<svg width="29" height="28" viewBox="0 0 29 28" fill="none" xmlns="http://www.w3.org/2000/svg">
<g id="Y_Combinator_logo 1" clip-path="url(#clip0_3127_101484)">
<g id="Group">
<path id="Vector" d="M28.709 0H0.708984V28H28.709V0Z" fill="#C3C2CB"/>
<path id="Vector_2" d="M13.765 15.8315L8.95898 6.82837H11.1554L13.9825 12.526C14.026 12.6275 14.0767 12.7326 14.1347 12.8413C14.1927 12.9501 14.2434 13.0624 14.2869 13.1784C14.3159 13.2219 14.3377 13.2618 14.3522 13.298C14.3667 13.3342 14.3812 13.3669 14.3957 13.3959C14.4681 13.5408 14.5334 13.6822 14.5914 13.8199C14.6494 13.9577 14.7001 14.0845 14.7436 14.2005C14.8596 13.954 14.9864 13.6894 15.1242 13.4067C15.2619 13.124 15.4032 12.8305 15.5482 12.526L18.4188 6.82837H20.463L15.6135 15.9402V21.7466H13.765V15.8315Z" fill="#020013"/>
</g>
</g>
<defs>
<clipPath id="clip0_3127_101484">
<rect width="28" height="28" fill="white" transform="translate(0.708984)"/>
</clipPath>
</defs>
</svg>
