<svg width="642" height="459" viewBox="0 0 642 459" fill="none" xmlns="http://www.w3.org/2000/svg">
<path d="M559 403.79C578.44 369.08 595.94 332.36 603.62 292.59C611.3 252.81 608.31 209.35 588.9 174.62C569.5 139.88 531.88 116.01 494.85 121.67C463.24 126.5 433.27 151.24 402.34 142.69C370.38 133.86 355.05 94.42 328.11 73.74C280.56 37.24 205.96 63.89 176.4 114.28C156.54 148.14 152.01 193.12 124.01 219.31C102.83 239.12 71.43 244.52 53.99 268.24C39.17 288.38 38.54 318.05 48.47 341.48C58.4 364.91 79.33 390.58 100.18 402.9L559 403.79Z" fill="#F2F2F2"/>
<path d="M586.72 375.96H327.49V167.46C327.49 160.62 333.03 155.08 339.87 155.08H574.34C581.18 155.08 586.72 160.62 586.72 167.46V375.96Z" stroke="#706F6E" stroke-miterlimit="10"/>
<path d="M569.94 179.57H341.32V359.38H569.94V179.57Z" stroke="#706F6E" stroke-miterlimit="10"/>
<path d="M583.7 399.17H292.48C288.37 399.17 285.04 395.84 285.04 391.73V375.96H591.14V391.73C591.15 395.84 587.81 399.17 583.7 399.17Z" fill="#706F6E"/>
<path d="M218.83 399.57H84.91C75.8 399.57 68.42 392.19 68.42 383.08V162.46C68.42 153.35 75.8 145.97 84.91 145.97H218.82C227.93 145.97 235.31 153.35 235.31 162.46V383.08C235.32 392.18 227.93 399.57 218.83 399.57Z" stroke="#706F6E" stroke-miterlimit="10"/>
<path d="M218.68 365.77H83.46C79.49 365.77 76.28 362.55 76.28 358.59V170.73C76.28 166.76 79.5 163.55 83.46 163.55H218.68C222.65 163.55 225.86 166.77 225.86 170.73V358.59C225.86 362.55 222.64 365.77 218.68 365.77Z" stroke="#706F6E" stroke-miterlimit="10"/>
<path d="M161.44 389.64H148C146.68 389.64 145.61 388.57 145.61 387.25V377.12C145.61 375.8 146.68 374.73 148 374.73H161.45C162.77 374.73 163.84 375.8 163.84 377.12V387.25C163.83 388.57 162.76 389.64 161.44 389.64Z" fill="#706F6E"/>
<path d="M171.96 155.58H136.15C135.83 155.58 135.57 155.32 135.57 155V152.54C135.57 152.22 135.83 151.96 136.15 151.96H171.96C172.28 151.96 172.54 152.22 172.54 152.54V155C172.54 155.32 172.28 155.58 171.96 155.58Z" fill="#351710"/>
<path d="M177.24 155.58C178.085 155.58 178.77 154.77 178.77 153.77C178.77 152.77 178.085 151.96 177.24 151.96C176.395 151.96 175.71 152.77 175.71 153.77C175.71 154.77 176.395 155.58 177.24 155.58Z" fill="#351710"/>
<path d="M246.88 269.72L244.79 318.06C244.79 318.06 295.02 350.77 318.89 342.35C342.76 333.93 341.64 332.21 342.76 330.88C343.88 329.55 370.75 294.48 340.59 286.56C310.43 278.64 246.88 269.72 246.88 269.72Z" fill="#BC8057"/>
<path d="M407.91 323.24C407.91 323.24 394.1 328.13 380.85 335.51C367.6 342.88 305.79 353.84 305.79 353.84C305.79 353.84 300.08 355.04 298.53 350.76C296.99 346.48 301.92 343.65 303.34 342.75C303.34 342.75 278.97 351.52 275.49 341.19C272 330.86 286.32 328.39 286.32 328.39C286.32 328.39 269.59 331.63 268.3 323.84C267.01 316.05 271.98 312.34 281.85 309.6C281.85 309.6 271.03 310.73 270.26 304.2C269.49 297.66 274.51 293.21 295.32 290.85C316.13 288.49 332.95 283.37 332.95 283.36C332.49 283.54 331.57 283.2 331.1 283.17C326.54 282.9 322.13 281.81 317.33 280.71C313.49 279.83 307.54 278.76 305.21 274.57C303.31 271.15 306.28 267.48 308.83 266.15C314.04 263.45 319.68 264.33 325.13 265.27C333.64 266.74 342.33 266.62 350.78 268.91C358.63 271.04 366.39 273.99 374.33 275.74C375.91 276.09 377.49 276.36 379.09 276.56C385.69 277.36 392.4 276.87 398.95 275.78C401.88 275.29 404.81 274.7 407.68 273.89L416.67 320.86L407.91 323.24Z" fill="#F4A877"/>
<path d="M412.83 330.77L395.87 334.4C395.87 334.4 384.64 340.38 381.05 308.79C377.46 277.2 377.35 276.2 381.24 273.46C385.13 270.72 400.68 266.6 400.68 266.6L412.83 330.77Z" fill="#FDFAFC"/>
<path d="M569.69 297.74C525.45 319.52 406.34 337.48 406.34 337.48C385.73 314.12 389.96 265.05 389.97 264.9C501.24 247.99 570.68 187.79 569.69 187.79V297.74Z" fill="#5957D9"/>
<g opacity="0.15">
<path opacity="0.15" d="M389.99 266.6C389.07 266.9 388.14 267.21 387.24 267.52C386.85 280 387.36 311.01 400.57 330.33L402.94 329.82C389.74 309.99 389.55 278.31 389.99 266.6Z" fill="black"/>
</g>
<path d="M421.05 325.6C424.132 325.6 426.63 322.654 426.63 319.02C426.63 315.386 424.132 312.44 421.05 312.44C417.968 312.44 415.47 315.386 415.47 319.02C415.47 322.654 417.968 325.6 421.05 325.6Z" fill="#F7AD04"/>
<g opacity="0.15">
<path opacity="0.15" d="M421.91 322.34C419.4 323.24 416.78 321.94 415.5 319.39C415.53 319.9 415.59 320.42 415.72 320.93C416.62 324.4 419.73 326.36 422.68 325.3C425.63 324.24 427.28 320.56 426.39 317.09C426.26 316.58 426.06 316.11 425.84 315.66C425.98 318.63 424.42 321.44 421.91 322.34Z" fill="black"/>
</g>
<path d="M322.82 286.95C312.33 287.82 302.04 288.23 298.69 289.24L247.05 277.66L246.66 259.24C246.66 259.24 270.32 271.15 285.05 268.37C300.88 265.39 328.23 267.51 328.23 267.51C328.23 267.51 350.91 270.82 353.63 281.03C356.34 291.23 348.22 292.2 342.66 290.87C337.1 289.53 329.63 286.38 322.82 286.95Z" fill="#BC8057"/>
<path d="M225.14 317.11L241.91 321.75C241.91 321.75 252.85 328.4 257.89 297.06C262.93 265.72 263.09 264.74 259.33 261.76C255.57 258.79 240.23 253.74 240.23 253.74L225.14 317.11Z" fill="#FDFAFC"/>
<path d="M76.79 286.99C76.78 286.99 76.79 287 76.79 286.99C119.74 311.41 230.11 328.08 230.11 328.08C251.71 305.99 249.77 256.73 249.77 256.58C167.27 238.92 103.73 198.66 76.83 179.74L76.79 286.99Z" fill="#5957D9"/>
<g opacity="0.15">
<path opacity="0.15" d="M249.8 257.19C250.71 257.54 251.61 257.91 252.5 258.28C252.32 270.76 250.37 301.7 236.29 320.2L233.95 319.55C248.05 300.53 249.69 268.91 249.8 257.19Z" fill="black"/>
</g>
<path d="M223.03 304.942C223.069 301.308 220.602 298.336 217.52 298.304C214.439 298.272 211.91 301.191 211.872 304.825C211.833 308.458 214.3 311.43 217.382 311.463C220.463 311.495 222.992 308.576 223.03 304.942Z" fill="#B9C3E5"/>
<path d="M320.11 347.94C321.54 349.58 324.16 350.88 326.16 351.54C328.42 352.28 330.79 351.68 332.92 350.74C333.91 350.3 334.92 349.87 335.79 349.19C335.99 349.03 337.61 347.65 337.33 347.43C337.33 347.43 344.91 353.26 350.15 345.63C350.15 345.63 358.19 349.79 362.76 341.52C362.76 341.52 371.52 346.22 374.3 337.23C377.08 328.24 367.97 328.79 364.23 331.15C364.23 331.15 353.84 326.48 349.81 334.19C349.81 334.19 341.15 326.83 334.97 336.48C334.97 336.49 332.05 335.48 331.86 335.43C329.75 334.91 327.47 334.68 325.34 335.23C321.12 336.32 318.62 341.05 319.05 345.45C319.14 346.49 319.53 347.28 320.11 347.94Z" fill="#BC8057"/>
<path d="M595.03 399.92H62.58V403.79H595.03V399.92Z" fill="#585856"/>
</svg>
