<svg width="642" height="459" viewBox="0 0 642 459" fill="none" xmlns="http://www.w3.org/2000/svg">
<path d="M546.87 416.7C564.86 378.43 581.05 337.96 588.15 294.11C595.25 250.26 592.49 202.35 574.53 164.06C556.58 125.76 521.77 99.45 487.52 105.69C458.28 111.02 430.54 138.29 401.92 128.86C372.35 119.12 358.16 75.64 333.24 52.85C289.26 12.6 220.24 41.98 192.88 97.54C174.5 134.87 170.32 184.46 144.41 213.33C124.81 235.16 95.77 241.12 79.62 267.27C65.91 289.48 65.32 322.18 74.51 348.01C83.7 373.84 103.07 402.14 122.35 415.72L546.87 416.7Z" fill="#F3F3F3"/>
<path d="M538.6 413.17H139.2V416.7H538.6V413.17Z" fill="#575756"/>
<path opacity="0.95" d="M393.2 224.2H497.72C506.98 224.2 514.49 216.69 514.49 207.43V121.51C514.49 112.25 506.98 104.74 497.72 104.74H393.2C383.94 104.74 376.43 112.25 376.43 121.51V207.43C376.42 216.69 383.93 224.2 393.2 224.2Z" fill="#D9D9D9"/>
<path d="M413.501 199.738L477.421 199.738L477.421 197.008L413.501 197.008L413.501 199.738Z" fill="#BAC6F2"/>
<path d="M422.551 208.348L468.371 208.348L468.371 205.618L422.551 205.618L422.551 208.348Z" fill="#BAC6F2"/>
<path opacity="0.95" d="M187.7 353.93H330.75C343.43 353.93 353.71 343.65 353.71 330.97V184.97C353.71 172.29 343.43 162.01 330.75 162.01H187.7C175.02 162.01 164.74 172.29 164.74 184.97V330.97C164.74 343.65 175.02 353.93 187.7 353.93Z" fill="#D9D9D9"/>
<path d="M268.03 259.39H253.04V261.79H268.03V259.39Z" fill="#BAC4E5"/>
<path d="M237.722 297.048L324.932 297.048L324.932 292.398L237.722 292.398L237.722 297.048Z" fill="#BAC6F2"/>
<path d="M254.41 319.367L324.93 319.367L324.93 314.717L254.41 314.717L254.41 319.367Z" fill="#BAC6F2"/>
<path d="M283.589 308.202L324.929 308.202L324.929 303.552L283.589 303.552L283.589 308.202Z" fill="#BAC6F2"/>
<path d="M196.21 181.16V196.49H198.92V183.51H214.9V181.16H196.21V181.16ZM323.43 181.16H304.73V183.51H320.71V196.49H323.42V181.16H323.43ZM196.21 263.45V278.78H214.91V276.43H198.93V263.45H196.21V263.45ZM320.72 276.43H304.74V278.78H323.44V263.45H320.73V276.43H320.72Z" fill="#BAC6F2"/>
<path opacity="0.95" d="M272.52 139.55H351.76C357.89 139.55 362.86 134.58 362.86 128.45V71.6C362.86 65.47 357.89 60.5 351.76 60.5H272.52C266.39 60.5 261.42 65.47 261.42 71.6V128.45C261.42 134.58 266.39 139.55 272.52 139.55Z" fill="#D9D9D9"/>
<path d="M316.55 124.59H308.5V125.88H316.55V124.59Z" fill="#BAC6F2"/>
<path d="M277.99 74.8V83.03H279.45V76.06H288.03V74.8H277.99ZM346.29 74.8H336.25V76.06H344.83V83.03H346.29V74.8V74.8ZM277.99 118.98V127.21H288.03V125.95H279.45V118.98H277.99ZM344.83 125.95H336.25V127.21H346.29V118.98H344.83V125.95V125.95Z" fill="#BAC6F2"/>
<path d="M450.84 183.65H440.09V185.37H450.84V183.65Z" fill="#BAC6F2"/>
<path d="M399.85 117.15V128.14H401.8V118.83H413.26V117.15H399.85ZM491.07 117.15H477.66V118.83H489.12V128.14H491.07V117.15V117.15ZM399.85 176.15V187.14H413.25V185.46H401.8V176.15H399.85ZM489.12 185.46H477.66V187.14H491.07V176.15H489.12V185.46V185.46Z" fill="#BAC6F2"/>
<path d="M202.16 253.79H220.09C221.27 246.36 222.72 237.89 222.72 237.89C222.72 237.89 223.44 244.89 224.33 253.79H296.07C296.72 245.78 297.51 239.79 297.8 239.66C298.21 239.48 300.77 246.59 302.89 253.79H322.31C317.32 235.17 308 205.31 302.61 203.52C294.94 200.97 263.68 192.63 263.68 192.63H245.84C245.84 192.63 214.14 200.46 211.19 208.96C208.83 215.75 203.66 238.11 202.16 253.79Z" fill="#6F6F6E"/>
<path d="M253.93 142.55C253.93 142.55 237.27 144.82 239.81 167.37C242.35 189.92 257.05 188.07 258.03 188.05C259.01 188.03 272.79 188.46 273.86 160.93C273.87 160.93 274.34 140.57 253.93 142.55Z" fill="#EDA886"/>
<path d="M246.16 181.41C246.16 181.41 246.62 190.69 245.58 192.69C244.54 194.7 259.33 201.15 268.35 193.96C268.35 193.96 266.17 183.88 266.78 180.31C267.37 176.74 246.16 181.41 246.16 181.41Z" fill="#EDA886"/>
<path d="M239.55 161C239.55 161 237.73 159.31 237.06 161.02C236.39 162.73 239.89 170.35 239.66 170.7C239.66 170.7 239.99 171.36 240.43 171C240.87 170.63 239.55 161 239.55 161Z" fill="#EDA886"/>
<path d="M273.68 160.72C273.68 160.72 275.47 159 276.17 160.7C276.88 162.4 273.55 170.08 273.78 170.42C273.78 170.42 273.46 171.09 273.02 170.73C272.58 170.37 273.68 160.72 273.68 160.72Z" fill="#EDA886"/>
<path d="M239.56 164.46L241.95 167.22C241.95 167.22 241.88 161.17 242.27 160.22C242.65 159.27 243.24 156.37 243.56 155.69C243.88 155.01 257.87 151.62 270.22 156.68C270.22 156.68 269.68 161.03 270.86 161.42C272.04 161.81 271.46 168.5 271.46 168.5L273.42 166.59C273.42 166.59 276.42 149.24 275.68 147.43C274.94 145.62 272.58 134.75 247.23 141.2C247.23 141.2 239.33 139.75 237.74 144.47C236.15 149.2 239.56 164.46 239.56 164.46Z" fill="#1D1D1B"/>
<path d="M245.57 192.7C245.57 192.7 241.81 193.39 257.54 206.44C257.54 206.44 268.7 195.76 268.33 193.97C267.98 192.18 245.57 192.7 245.57 192.7Z" fill="#EDA886"/>
<path d="M257.54 206.43L253.25 212.78L240.52 194.08L246.03 190.75L257.54 206.43Z" fill="#F5F5F5"/>
<path d="M257.54 206.43L267.96 192.09L273.87 195.38L263.28 212.78L257.54 206.43Z" fill="#F5F5F5"/>
<path d="M260.77 246.17C260.64 248.28 260.59 250.88 260.58 253.79H261.17C261.18 250.89 261.23 248.3 261.36 246.19C262.33 230.28 257.87 210.92 257.84 206.38L257.26 206.48C257.3 211.02 261.74 230.32 260.77 246.17Z" fill="#F5F5F5"/>
<path d="M265.22 185.4C265.22 185.4 261.26 189.02 255.67 188.06C250.08 187.09 247.6 184.88 247.6 184.88C247.6 184.88 249.81 189.67 256.27 190.11C262.73 190.54 265.22 185.4 265.22 185.4Z" fill="#C78C72"/>
<path d="M458.14 117.74C457.81 117.46 458.57 111.31 458.73 110.08V110.06L458.74 110.05C458.77 110.02 459.45 109.37 460.05 109.47C460.33 109.52 460.54 109.72 460.67 110.08C461.1 111.2 460 114.12 459.54 115.37C459.46 115.59 459.4 115.74 459.37 115.83C459.25 116.14 458.66 117.7 458.28 117.78C458.27 117.78 458.25 117.78 458.24 117.78C458.21 117.78 458.17 117.77 458.14 117.74ZM458.86 110.12C458.51 112.92 458.03 117.42 458.24 117.66C458.25 117.67 458.25 117.67 458.26 117.67C458.48 117.62 458.97 116.55 459.25 115.8C459.28 115.71 459.34 115.56 459.42 115.34C459.84 114.21 460.97 111.21 460.55 110.12C460.43 109.81 460.26 109.63 460.03 109.59C459.99 109.58 459.96 109.58 459.92 109.58C459.46 109.58 458.95 110.03 458.86 110.12Z" fill="#EDA785"/>
<path d="M445.86 93.27C445.86 93.27 436.69 92.44 433.39 100.1C430.09 107.76 426.97 110.27 426.58 114.3C425 130.58 416.22 126.9 418.69 136.28C421.16 145.67 422.87 147.08 422.87 147.08L443.88 143.52L465.16 143.58C465.16 143.58 456.83 139.98 458.69 132.32C460.54 124.66 465.16 112.1 462.55 103.54C459.95 95 451.34 93.93 445.86 93.27Z" fill="#16202E"/>
<path d="M434.62 117.78C434.24 117.7 433.65 116.14 433.53 115.83C433.5 115.75 433.44 115.59 433.36 115.37C432.89 114.12 431.8 111.2 432.23 110.08C432.36 109.73 432.57 109.52 432.85 109.47C433.45 109.36 434.13 110.02 434.16 110.05L434.17 110.06V110.08C434.33 111.31 435.08 117.46 434.76 117.74C434.73 117.77 434.69 117.78 434.65 117.78C434.65 117.78 434.64 117.78 434.62 117.78ZM432.89 109.59C432.66 109.63 432.49 109.81 432.37 110.12C431.96 111.2 433.08 114.21 433.5 115.34C433.58 115.56 433.64 115.72 433.67 115.8C433.95 116.55 434.44 117.62 434.66 117.67C434.67 117.67 434.67 117.67 434.68 117.66C434.89 117.41 434.41 112.91 434.06 110.12C433.95 110.02 433.37 109.5 432.89 109.59Z" fill="#EDA785"/>
<path d="M402.74 166.48H415.83C418.54 162.2 420.75 158.85 420.75 158.85C420.75 158.85 422.51 161.64 423.88 166.48H467.95C468.62 163.46 468.66 160.56 468.52 158.5C468.52 158.5 470.88 162.18 473.61 166.48H488.42C484.49 160.11 477.13 148.52 475.46 147.01C473.36 145.11 461.18 137.82 452.49 135.45C443.79 133.07 438.85 135.37 438.85 135.37C438.85 135.37 429.92 136.76 421.66 139.6C418.41 140.71 409.45 155.04 402.74 166.48Z" fill="#ECECEC"/>
<path d="M444.65 97.76C444.65 97.76 432.5 99.28 434.28 114.79C436.06 130.3 446.78 129.07 447.49 129.06C448.21 129.05 458.24 129.38 459.11 110.45C459.12 110.45 459.53 96.45 444.65 97.76Z" fill="#EDA886"/>
<path d="M439.26 126.3C439.26 126.3 440.01 134.37 438.22 136.79C436.42 139.21 439.76 142.49 446.62 141.37C453.49 140.25 453.09 136.88 453.09 136.88C453.09 136.88 451.17 131.9 451.73 127.91C452.28 123.92 439.26 126.3 439.26 126.3Z" fill="#EDA886"/>
<path d="M446.04 103.38C446.04 103.38 440.37 108.54 437.73 111.16C435.09 113.77 434.79 118.82 434.79 118.82C434.79 118.82 430.35 114.13 432.21 108.66C434.07 103.2 438.46 92.56 449.58 95.83C460.7 99.1 461.11 113.47 459.81 120.6C459.81 120.6 454.82 104.86 446.04 103.38Z" fill="#16202E"/>
<path d="M434.99 136.08C434.99 136.08 443.41 154.54 448.53 157.75C448.53 157.75 455.25 138.92 454.78 136.17C454.79 136.16 444.65 132.72 434.99 136.08Z" fill="#EDA886"/>
<path d="M452.79 131.61C452.79 131.61 467.8 143.17 463.91 150.38C460.58 156.53 448.79 152.76 450.74 146.31C452.68 139.87 452.79 131.61 452.79 131.61Z" fill="#16202E"/>
<path d="M450.83 128.35C450.83 128.35 445.66 130.47 440.62 127.34C440.62 127.34 442.02 129.84 445.73 130.2C449.43 130.55 450.83 128.35 450.83 128.35Z" fill="#633029"/>
<path d="M317.56 85.65C317.56 85.65 322.54 101.87 323.58 105.52C323.89 106.62 324.89 108.52 326.15 110.69C326.16 110.71 326.17 110.72 326.18 110.74C326.45 111.22 326.58 111.65 326.65 112.06C326.85 113.41 326.25 114.48 327.29 116.08L327.48 116.75H337.34C336.19 113.79 334.73 110.03 333.56 107C332.58 104.44 331.8 102.41 331.6 101.82C330.99 100.06 328.76 94.37 326.86 90.58C326.2 89.26 323.64 87.96 321.38 87.02C319.35 86.2 317.56 85.65 317.56 85.65Z" fill="#575756"/>
<path d="M324.16 62.49C324.16 62.49 327.3 44.9 310.47 45.23C293.64 45.55 293.86 54.25 294.16 62.88C294.46 71.51 300.91 70.86 293.63 82.87C286.35 94.88 299.93 94.88 299.93 94.88L310.46 82.36L324.16 62.49Z" fill="#1D1D1B"/>
<path d="M312.31 46.92C312.31 46.92 323.71 48.48 324.16 62.49C324.61 76.51 321.09 79.49 311.11 76.57C301.13 73.65 297.98 58.98 297.76 56.71C297.53 54.44 296.93 45.23 312.31 46.92Z" fill="#EDA785"/>
<path d="M292.28 95.67C292.24 100.49 298.65 112.03 299.64 115.6C299.76 116.01 299.88 116.4 300.01 116.76H331.12C331.28 115.1 331.43 113.68 331.51 112.87C331.76 110.24 334.84 104.56 334.74 101.92C334.63 99.23 333.11 96.9 330.97 94.03C330.31 93.14 329.61 92.23 328.91 91.35C326.64 88.47 324.38 85.86 323.27 84.96C322.44 84.29 321.67 83.78 321 83.39C319.6 82.58 318.66 82.32 318.66 82.32L308.86 80.96C308.86 80.96 302.75 82.87 299.24 83.58C299.24 83.59 292.39 84.46 292.28 95.67Z" fill="#5957D9"/>
<path d="M321 83.39L326.68 91.13L331.92 98.28C331.91 98.24 331.56 97.16 330.97 94.02C330.86 93.43 330.74 92.76 330.61 92.01C330.57 91.79 330.52 91.57 330.45 91.35C328.2 86.88 321.26 83.5 321 83.39Z" fill="#E45453"/>
<path d="M304.69 70.26C305.68 71.87 306.72 81.9 306.72 81.9C306.72 81.9 320.66 86.46 319.24 83.88C318.59 82.71 318.4 81.19 318.39 79.88C318.38 78.85 318.48 77.95 318.54 77.45C318.58 77.19 318.6 77.03 318.6 77.03C318.6 77.03 303.7 68.64 304.69 70.26Z" fill="#EDA785"/>
<path d="M316.96 56.97C316.96 56.97 311.11 65.21 305.78 68.46C300.45 71.7 303.15 74.3 303.15 74.3C303.15 74.3 289.26 48.99 302.47 47.24C315.68 45.49 323.78 45.36 324.16 62.49C324.16 62.49 318.16 56.84 316.96 56.97Z" fill="#1D1D1B"/>
<path d="M310.59 76.41C312.73 79.14 318.39 79.88 318.39 79.88C318.38 78.85 318.48 77.95 318.54 77.45C314.91 78.05 310.59 76.41 310.59 76.41Z" fill="#A67860"/>
<path d="M330.42 91.3C330.42 91.3 330.72 91.84 330.97 94.03L328.92 91.35C328.92 91.35 325.25 86.8 324 85.62C322.74 84.44 321.02 83.4 321.02 83.4C321.02 83.4 328.22 86.39 330.42 91.3Z" fill="#E9ECF7"/>
<path d="M302.67 98.09C302.67 98.09 293.72 95.05 291.07 94.88C291.07 94.88 292.87 82.45 301.66 83.76C310.45 85.07 302.67 98.09 302.67 98.09Z" fill="#E45453"/>
<path d="M318.66 82.32C318.66 82.32 325.23 91.06 323.01 91.83C320.79 92.59 308.75 90.81 303.63 82.51C303.63 82.51 311.28 79.11 318.66 82.32Z" fill="#EDA785"/>
<path d="M291.07 94.87C291.53 101.72 293.77 108.23 295.63 114.19C295.9 115.05 296.16 115.91 296.4 116.75H314.62C314.66 114.39 314.66 112.3 314.57 110.56C313.65 91.54 306.68 81.53 306.68 81.53C306.68 81.53 304.45 82.18 298.05 83.75C293.66 84.82 292 89.65 291.4 92.58C291.4 92.58 291.4 92.59 291.39 92.61C291.13 93.95 291.07 94.87 291.07 94.87Z" fill="#575756"/>
<path d="M318.67 82.33C318.74 82.44 319.94 84.18 321.38 87.03C323.54 91.31 326.23 98.09 326.46 105.56C326.53 107.96 327.08 111.84 327.92 116.75H331.56C331.93 112.64 332.8 109.36 333.56 107C334.06 105.47 334.51 104.33 334.76 103.6C335.92 100.19 332.21 95.64 330.97 94.01C329.72 92.4 326.75 84.93 318.67 82.33Z" fill="#575756"/>
<path d="M285.27 116.76H295.05C295.05 116.21 295.27 115.31 295.63 114.2C297.41 108.73 302.67 98.09 302.67 98.09C302.67 98.09 310.54 86.96 303.08 84.12C295.62 81.28 292.41 89.21 291.41 92.59C291.41 92.59 291.41 92.6 291.4 92.62C291.15 93.44 286.71 108.09 285.27 116.76Z" fill="#575756"/>
<path d="M346.67 221.31C346.67 221.31 346.84 219.52 346.59 218.68C346.17 217.24 346.79 214.9 344.69 213.76C342.59 212.62 336.56 217.38 336.08 218.7C335.61 220.03 337.86 222.29 342.58 224.19C347.3 226.09 346.67 221.31 346.67 221.31Z" fill="#EDA785"/>
<path d="M345.34 214.23C345.34 214.23 343.3 211.58 340.61 208.87C338.25 206.49 334.94 203.83 334.24 204.33C333.18 205.1 336.18 207.02 338.34 209.51C340.32 211.81 339.48 211.64 339.48 211.64C339.48 211.64 339.72 211.68 336.99 209.54C334.05 207.24 330.79 204.88 330.21 205.29C329.49 205.79 329.45 205.91 330.35 206.89C329.69 206.42 329.44 206.51 329.19 206.73C327.87 207.88 331.57 211.84 333.03 213.41C331.89 212.21 330.91 211.43 330.62 212.59C330.3 213.91 335.82 219.3 337.58 221.4C339.51 223.69 345.34 214.23 345.34 214.23Z" fill="#EDA785"/>
<path d="M415.92 404.71C415.92 404.71 410.18 407.65 407.58 408.74C404.98 409.83 394.88 410.14 393.88 410.97C392.88 411.79 393.25 414.4 394.92 414.67C396.59 414.94 408.87 415.9 412.97 415.07C417.07 414.24 424.73 415.64 426.43 415.14C428.13 414.64 427.03 406.73 426.38 404.95C425.72 403.17 415.92 404.71 415.92 404.71Z" fill="#3C3C3B"/>
<path d="M415.44 401.48L415.92 404.72C415.92 404.72 423.6 405.96 425.92 404.94L425.34 401.58L415.44 401.48Z" fill="#22243B"/>
<path d="M384.64 290.94C384.72 293.18 385.19 298.04 385.74 303.15C385.86 304.28 385.99 305.43 386.12 306.56C386.89 313.43 387.66 319.79 387.66 319.79C388.63 325.26 390.63 334.76 392.87 341.94C393.52 344.01 394.18 345.89 394.84 347.42C395.49 348.91 396.14 350.08 396.77 350.78C401.53 356.04 412.44 402.65 412.44 402.65L427.33 402.55C427.33 402.55 424.06 370.98 420.76 362.98C417.09 354.04 410.71 342 412.29 333.38C413.28 327.97 414.56 310.76 414.56 310.76C414.56 310.76 415.8 291.42 409.96 277.25C408.5 273.71 384.64 290.94 384.64 290.94Z" fill="#575756"/>
<path d="M374.08 405.92C374.08 405.92 368.38 408.92 365.79 410.04C363.21 411.16 353.11 411.58 352.12 412.41C351.13 413.24 351.54 415.85 353.21 416.1C354.89 416.35 367.18 417.18 371.26 416.31C375.35 415.44 383.03 416.75 384.72 416.24C386.41 415.72 385.21 407.82 384.53 406.05C383.85 404.28 374.08 405.92 374.08 405.92Z" fill="#3C3C3B"/>
<path d="M373.55 402.69L374.07 405.92C374.07 405.92 381.76 407.08 384.08 406.04L383.46 402.68L373.55 402.69Z" fill="#22243B"/>
<path d="M391.35 356.47C391.74 346.16 392.79 339.31 395.86 333.35C398.44 328.35 400.64 312.64 400.64 312.64C400.64 312.64 407.62 294.23 406.2 279.24C405.85 275.49 378.87 284.91 378.87 284.91C378.28 287.09 376.48 293.97 375.84 299.06C372.19 328.18 373.55 347.15 373.55 347.15C375.64 353.58 370.37 404.17 370.37 404.17H385.55C385.55 404.17 389.53 386.17 389.95 374.98C389.95 374.98 391.5 358.25 391.35 356.47Z" fill="#575756"/>
<path d="M391.69 223.06C391.69 223.06 384.62 233.09 382.55 238.69C380.48 244.29 382.15 260.57 381.78 263.84C380.65 273.99 379 285.17 379 285.17L402.71 298.28C402.71 298.28 406.97 289.68 410.68 278.97C414.39 268.26 414.69 258.62 414.66 252.17C414.55 231.96 401.92 220.55 401.92 220.55L391.69 223.06Z" fill="#CEBDB5"/>
<path d="M382.98 196.14C382.98 196.14 378.12 200.64 379.49 201.83C380.62 202.81 376.15 207.3 375.52 208.05C374.88 208.8 377.51 210.05 377.94 210.73C378.37 211.41 378.12 218.47 380.37 219.19C382.62 219.92 393.98 219.15 397.59 217.24C401.2 215.33 407.02 204.34 406.61 199.05C406.18 193.76 391.53 188.29 382.98 196.14Z" fill="#EDA785"/>
<path d="M387.57 217.67C387.57 217.67 387.65 218.27 387.76 219.2C387.8 219.59 387.86 220.03 387.91 220.52C387.94 220.81 387.97 221.11 388 221.43C388.01 221.51 388.02 221.6 388.03 221.68C388.04 221.82 388.06 221.97 388.07 222.12C388.13 222.8 388.18 223.5 388.22 224.2C388.32 225.99 388.34 227.71 388.12 228.66C387.52 231.28 400.55 220.24 400.55 220.24C400.55 220.24 399.45 211.68 399.98 202.05C400.52 192.42 387.57 217.67 387.57 217.67Z" fill="#EDA785"/>
<path d="M381.98 197.13C381.98 197.13 379.68 192.43 386.77 189.18C395.12 185.34 403.98 194.98 405.15 195.54C406.32 196.11 411.66 201.31 406.44 208.2C399.85 216.9 400.19 216.6 400.19 216.6C400.19 216.6 399.53 210.19 399.57 208.95C399.65 206.69 392.79 206.42 392.79 206.42C392.79 206.42 395.61 203.18 392.48 201.72C389.35 200.27 385.69 196.81 381.98 197.13Z" fill="#3A3F47"/>
<path d="M396.4 205.6C396.9 204.99 398.73 202.31 401.09 204.67C403.45 207.02 397.13 211.42 396.61 211.38C396.08 211.33 392.2 210.71 396.4 205.6Z" fill="#EDA785"/>
<path d="M377.7 289.49C377.7 289.49 378.88 284.69 379.11 283.97L413.79 288.96L413.43 292.84C413.44 292.84 388.45 291.55 377.7 289.49Z" fill="#24263D"/>
<path d="M416.88 268.34C416.88 268.34 411.55 288.25 419.9 311.47C420.92 314.31 396.8 311.03 396.8 311.03L416.88 268.34Z" fill="#5957D9"/>
<path d="M386.25 309.58C386.25 309.58 403.38 312.83 408.19 311.36C408.19 311.36 415.19 289.33 417.63 266.96C417.82 265.23 417.98 263.5 418.11 261.78C419.47 243.59 414.12 225.13 401.93 220.54C401.59 220.74 384.41 233.84 384.74 245.84C384.76 246.65 384.78 247.47 384.78 248.28C384.79 249.75 384.78 251.23 384.74 252.71C384.63 257.27 384.3 261.82 383.84 266.24C383.79 266.7 383.74 267.16 383.69 267.62C383.61 268.36 383.52 269.1 383.43 269.83C383.31 270.81 383.18 271.77 383.05 272.73C380.26 292.75 386.25 309.58 386.25 309.58Z" fill="#5957D9"/>
<path d="M386.95 231.82C386.95 231.82 383.72 242.87 382.49 256.78C381.46 268.42 380.09 276.64 380.09 276.64L378.03 282.4L377.18 276.85C377.18 276.85 377.94 261.83 378.94 255.73C379.96 249.57 380.4 241.75 386.09 231.61L386.95 231.82Z" fill="#5957D9"/>
<path d="M387.31 231.83C387.31 231.83 386.92 232.15 386.37 232.22C385.82 232.29 385.03 231.53 387.85 228.32L387.31 231.83Z" fill="#D34040"/>
<path d="M400.4 218.88C400.4 218.88 392.42 225.38 387.68 226.81L386.77 233.04L401.92 220.54L400.4 218.88Z" fill="#EDD9D2"/>
<path d="M395.05 244.04C398.19 243.07 411.26 237.59 407.78 231.18C404.31 224.77 395.35 228.18 388.6 230.79C381.54 233.52 364.89 241.9 363.57 241.11C362.25 240.33 356.49 233.2 355.45 231.61C354.41 230.02 348.12 219.86 347.53 219.09C346.95 218.34 337.82 224.98 337.82 224.98C337.82 224.98 354.22 250.18 358.63 254.2C363.05 258.21 395.05 244.04 395.05 244.04Z" fill="#5957D9"/>
<path d="M392.87 341.93C393.52 344 394.18 345.88 394.84 347.42L400.03 320.62C398.73 323.16 392.87 341.93 392.87 341.93Z" fill="#191929"/>
<path d="M384.73 252.7L399.76 242.08C395.78 243.93 386 247.79 384.77 248.27C384.78 249.75 384.77 251.23 384.73 252.7Z" fill="#5957D9"/>
<path d="M387.77 219.2C387.81 219.59 387.87 220.03 387.92 220.52C387.95 220.81 387.98 221.11 388.01 221.43C392.99 221.14 396.84 217.71 397.07 217.5C395.04 218.89 387.77 219.2 387.77 219.2Z" fill="#A67860"/>
</svg>
