<svg width="642" height="459" viewBox="0 0 642 459" fill="none" xmlns="http://www.w3.org/2000/svg">
<path d="M555.64 429.92C574.83 389.14 592.1 345.99 599.67 299.26C607.24 252.53 604.3 201.46 585.15 160.65C566 119.83 528.87 91.79 492.33 98.44C461.14 104.12 431.55 133.18 401.02 123.14C369.48 112.76 354.35 66.42 327.76 42.13C280.84 -0.76 207.21 30.55 178.03 89.76C158.43 129.54 153.96 182.4 126.32 213.17C105.42 236.44 74.43 242.79 57.21 270.66C42.58 294.33 41.96 329.19 51.76 356.71C61.56 384.24 82.22 414.4 102.8 428.88L555.64 429.92Z" fill="#F3F3F3"/>
<path d="M315.11 426.29C315.15 425.96 315.17 425.62 315.17 425.28C315.17 420.18 311.04 416.05 305.94 416.05C302.92 416.05 300.25 417.5 298.57 419.74C298.14 419.13 297.66 418.54 297.11 417.99C292.9 413.78 286.56 413.01 281.57 415.68C281.83 414.36 281.97 413 281.97 411.6C281.97 400.16 272.69 390.88 261.25 390.88C261.14 390.88 261.02 390.89 260.91 390.89C263.11 389.9 264.64 387.69 264.64 385.12C264.64 381.62 261.8 378.79 258.31 378.79C254.81 378.79 251.98 381.63 251.98 385.12C251.98 388.17 254.14 390.72 257.01 391.32C251.02 392.57 245.99 396.4 243.12 401.6C242.82 401.43 242.5 401.27 242.19 401.12C242.47 400.11 242.63 399.06 242.63 397.96C242.63 394.53 241.16 391.45 238.83 389.29C247.51 385.82 253.65 377.34 253.65 367.41C253.65 364.34 253.06 361.41 251.98 358.72C250.15 348.1 253.43 338.78 262.82 326.31C276.91 307.59 281.99 301.3 281.99 301.3C281.99 301.3 267.38 316.94 255.33 326.31C243.28 335.68 232.24 336.65 232.24 336.65C227.86 337.17 224.14 339.83 222.15 343.56C219.91 339.27 215.43 336.34 210.25 336.34C205.19 336.34 200.79 339.14 198.5 343.27C197.32 342.53 195.93 342.1 194.43 342.1C190.74 342.1 187.66 344.71 186.93 348.18C186.65 348.2 186.38 348.22 186.1 348.24C186.1 348.19 186.11 348.15 186.11 348.1C186.11 340.8 180.19 334.88 172.89 334.88C170.26 334.88 167.82 335.66 165.77 336.98C165.08 332.28 162.52 328.19 158.86 325.49C160.95 323.15 162.24 320.07 162.24 316.69C162.24 309.39 156.32 303.47 149.02 303.47C145.28 303.47 141.91 305.03 139.51 307.52L139.36 426.3H315.11V426.29Z" fill="url(#paint0_linear_2_1348)"/>
<path d="M300.06 268.77L307.51 277.69L317.57 283.35C319.67 284.53 320.36 287.21 319.05 289.09L296.48 321.63C296.48 321.63 286.79 311.69 282.66 308.25C278.53 304.81 266.46 296.65 266.46 296.65L294.25 268.36C295.82 266.76 298.53 266.95 300.06 268.77Z" fill="#29C6BE"/>
<path d="M338.22 240.57C337.13 260.8 319.6 287.84 319.6 287.84C309.83 283.47 301.4 276.45 295.32 267.63C295.32 267.63 319.47 244.79 338.22 240.57Z" fill="#29C6BE"/>
<path d="M319.6 287.84C319.6 287.84 323.93 281.62 317.47 291.35C299.9 317.82 296.47 321.63 296.47 321.63C296.47 321.63 289.72 313.52 282.65 308.25C282.65 308.25 291.74 297.51 304.85 282.01C305.45 281.3 306.04 280.58 306.64 279.84C310.59 283.06 314.94 285.75 319.6 287.84Z" fill="#84F59A"/>
<path d="M306.64 279.86C319.07 264.51 330.85 243.49 331.8 242.63C333.98 241.76 336.14 241.05 338.22 240.58C338.21 240.75 338.19 240.92 338.18 241.1C337.98 243.26 336.88 252.18 331.45 265.37C326.12 277.8 319.6 287.85 319.6 287.85C314.94 285.75 310.59 283.06 306.64 279.86Z" fill="#84F59A"/>
<path d="M266.46 296.66C265.79 297.47 271.96 303.72 280.25 310.62C288.54 317.52 295.8 322.45 296.48 321.64C297.15 320.83 290.98 314.58 282.69 307.68C274.4 300.78 267.13 295.85 266.46 296.66Z" fill="#1D1D1B"/>
<path d="M330.979 224.363L355.691 245.112L393.294 200.328L368.581 179.579L330.979 224.363Z" fill="#E6431E"/>
<path d="M362.83 218.73C362.83 218.73 364.11 217.13 363.43 215.84C362.75 214.55 351.08 204.2 351.08 204.2C351.08 204.2 365.41 213.18 368.51 215.86C371.61 218.54 373.86 223.71 373.86 223.71L371.62 226.11L362.83 218.73Z" fill="#B92918"/>
<path d="M342.12 192.61L380.65 224.64L384.9 228.75L416.84 190.7L373.96 154.69L342.12 192.61Z" fill="#BAC6F2"/>
<path d="M302.079 258.776L326.792 279.526L371.628 226.127L346.916 205.377L302.079 258.776Z" fill="#BAC6F2"/>
<path d="M412.65 119.48L427.18 136.5L446.34 147.8C450.34 150.16 451.82 155.12 449.52 158.45L409.72 215.96C409.72 215.96 390.94 196.86 382.99 190.19C375.05 183.52 351.95 167.45 351.95 167.45L401.79 118.22C404.61 115.42 409.68 116.01 412.65 119.48Z" fill="#BAC6F2"/>
<path d="M481.61 76.34C478.6 112.46 450.47 156.2 450.47 156.2C431.84 147.25 415.77 133.76 403.73 116.96C403.73 116.96 443.27 80.92 477.02 72.4C479.5 71.78 481.82 73.8 481.61 76.34Z" fill="#5957D9"/>
<path d="M409.71 215.95L398.91 212.05C398.91 212.05 389.12 202.04 379.1 193.75C365.94 182.86 356.03 176.03 356.03 176.03L351.93 167.45L354.35 168.88C375.37 181.29 394.09 197.22 409.71 215.95Z" fill="#29C6BE"/>
<path d="M373.86 223.71C373.86 223.71 369.86 219.08 362.63 213.1C353.14 205.24 349.07 202.88 349.07 202.88L346.37 196.19C359.19 204.05 370.83 213.71 380.91 224.85L373.86 223.71Z" fill="#29C6BE"/>
<path d="M406.209 184.365C418.448 183.543 427.704 172.955 426.882 160.715C426.06 148.476 415.472 139.221 403.233 140.042C390.993 140.864 381.738 151.452 382.559 163.692C383.381 175.931 393.969 185.187 406.209 184.365Z" fill="#5957D9"/>
<path d="M346.43 205.93L371.14 226.68C371.45 226.94 371.92 226.9 372.18 226.59C372.44 226.28 372.4 225.81 372.09 225.55L347.38 204.8C347.07 204.54 346.6 204.58 346.34 204.89C346.08 205.2 346.12 205.66 346.43 205.93Z" fill="#BAC4E5"/>
<path d="M300.918 254.954L330.754 280.006L369.623 233.713L339.788 208.662L300.918 254.954Z" fill="#BAC6F2"/>
<path d="M298.6 258.9C297.93 259.71 304.1 265.96 312.39 272.86C320.68 279.76 327.94 284.69 328.62 283.88C329.29 283.07 323.12 276.82 314.83 269.92C306.54 263.02 299.28 258.09 298.6 258.9Z" fill="#1D1D1B"/>
<path d="M316.72 288.75L324.21 296.81L333.97 301.36C336.01 302.31 336.8 304.89 335.68 306.9L316.26 341.64C316.26 341.64 306.61 332.8 302.54 329.83C298.47 326.86 286.68 320.03 286.68 320.03L311.24 288.96C312.63 287.2 315.19 287.1 316.72 288.75Z" fill="#BAC6F2"/>
<path d="M351.04 256.66C351.13 276.87 336.14 305.6 336.14 305.6C326.72 302.3 318.41 296.23 312.2 288.12C312.21 288.12 333.65 262.85 351.04 256.66Z" fill="#5957D9"/>
<path d="M279.94 253.26L285.99 262.01L295.03 267.84C296.91 269.06 297.23 271.61 295.7 273.3L269.27 302.7C269.27 302.7 261.17 292.87 257.61 289.43C254.05 285.99 243.39 277.71 243.39 277.71L274.33 252.57C276.09 251.16 278.71 251.47 279.94 253.26Z" fill="#BAC6F2"/>
<path d="M320.99 228.73C317.18 247.67 296.41 272.16 296.41 272.16C287.48 267.56 280.21 260.54 275.47 251.95C275.48 251.95 302.14 231.73 320.99 228.73Z" fill="#5957D9"/>
<path opacity="0.58" d="M396.7 290.52C396.7 290.35 396.71 290.17 396.71 290C396.71 290.01 396.71 290.19 396.7 290.52Z" fill="#00888C"/>
<path d="M243.34 277.9C242.58 278.63 247.72 284.79 254.82 291.65C261.92 298.51 268.3 303.48 269.07 302.75C269.83 302.02 264.69 295.86 257.59 289C250.48 282.14 244.1 277.17 243.34 277.9Z" fill="#5957D9"/>
<path d="M286.58 320.17C285.99 321.05 292.13 326.59 300.3 332.56C308.47 338.52 315.57 342.65 316.16 341.77C316.75 340.89 310.61 335.35 302.44 329.38C294.27 323.41 287.17 319.29 286.58 320.17Z" fill="#5957D9"/>
<path opacity="0.58" d="M379.62 284.85C379.63 284.68 379.65 284.5 379.66 284.33C379.66 284.34 379.65 284.52 379.62 284.85Z" fill="#00888C"/>
<path opacity="0.58" d="M346.66 196.53L361.72 180.73L359.45 178.77L342.12 192.61L346.66 196.53Z" fill="#00888C"/>
<path d="M267.47 142.81C267.47 142.81 265.91 159.22 267.69 170.8C269.48 182.38 271.75 203.13 268.78 215.87C265.81 228.61 259.23 255.72 258.39 256.47C257.56 257.22 268.89 254.57 268.89 254.57C268.89 254.57 286.02 222.65 287.97 206.4C289.92 190.15 289.43 162.31 291.7 159.1C293.97 155.89 301.16 153.16 302.98 146.27C305.33 137.37 298.79 127.78 298.79 127.78C298.79 127.78 269.44 137.8 267.47 142.81Z" fill="#3C3C3B"/>
<path d="M200.95 127.112L199.712 126.523L198.128 129.856L199.366 130.444L200.95 127.112Z" fill="#F9B410"/>
<path d="M215.312 135.719L214.075 135.131L213.096 137.19L214.333 137.778L215.312 135.719Z" fill="#F9B410"/>
<path d="M223.42 142.61L185.576 124.626L174.082 148.814L211.926 166.798L223.42 142.61Z" fill="#5957D9"/>
<path d="M225.026 141.555L185.502 122.769L178.77 136.931L218.294 155.717L225.026 141.555Z" fill="#5957D9"/>
<path d="M202.705 144.827L198.162 142.668L195.457 148.358L200.001 150.518L202.705 144.827Z" fill="#BAC4E5"/>
<path d="M218.65 131.65L200.27 122.92L197.96 127.77L200.99 129.21L202.45 126.29L214.67 132.1L213.2 135.02L216.34 136.51L218.65 131.65Z" fill="#5957D9"/>
<path d="M200.428 130.508L200.02 131.366L212.24 137.173L212.648 136.315L200.428 130.508Z" fill="#5957D9"/>
<path d="M300.01 131.37C300.01 131.37 306.99 115.86 309.18 97.37C311.36 78.87 299.9 76.38 299.05 75.98C293.21 73.21 270.64 74.77 269.3 77.62C266.06 84.49 277.97 99.62 278.38 115.82C278.66 126.95 264.65 149.91 262.3 152.18C258.45 155.91 270.27 155.61 281.87 139.45C283.13 137.7 284.62 139.55 289.09 137.68C290.53 137.08 291.91 135.92 293.01 135.1C296.28 132.65 300.01 131.37 300.01 131.37Z" fill="#ECECEC"/>
<path d="M278.31 137.2C278.31 137.2 289.58 120.19 293.12 110.34C296.66 100.49 295.18 90.76 294.59 88.26C294 85.77 294.71 81.51 294.71 81.51L289.73 79.32L284.36 79.21C284.36 79.22 279.02 133.24 278.31 137.2Z" fill="#ECECEC"/>
<path d="M283 74.83C283 74.83 288 64.27 288.1 60.54C288.2 56.81 288.09 49.04 294.02 47.95C299.95 46.87 301.63 52.63 301.95 54.9C302.27 57.17 302.78 63.35 302.4 63.44C302.02 63.53 300.79 62.56 300.79 62.56C300.79 62.56 300.98 66.47 299.33 67.66C297.67 68.86 295.53 68.35 295.53 68.35C295.53 68.35 293.37 73.64 293.64 75.28C293.91 76.92 295.66 80.66 295.66 80.66C295.66 80.66 284.2 80.84 283 74.83Z" fill="#F6B48E"/>
<path d="M282.04 74.08C282.04 74.08 290.59 85.66 292.56 93.5C294.53 101.34 279.86 138.17 274.61 142.74C269.37 147.31 261.04 149.38 261.04 149.38C261.04 149.38 269.54 120.63 270.61 105.94C271.68 91.25 266.37 80.83 270.09 76.57C273.82 72.33 282.04 74.08 282.04 74.08Z" fill="#3C3C3B"/>
<path d="M295.02 74.28C295.02 74.28 299.44 86.43 303.38 92.96C307.32 99.49 307.63 129.06 307.63 129.06L309.14 128.22C309.14 128.22 312.2 93.83 311.44 87.33C310.69 80.83 306.37 75.77 304.15 75.58C301.92 75.39 295.02 74.28 295.02 74.28Z" fill="#3C3C3B"/>
<path d="M261.05 149.39C261.05 149.39 272.9 147.65 277.2 139.29C281.49 130.92 286.16 106.52 285.49 99.85C284.82 93.18 284.03 92.54 284.03 92.54L288.23 91.7L283.4 89.4C283.4 89.4 283.63 87.23 280.88 83.19C278.13 79.15 273.52 74.68 273.52 74.68C273.52 74.68 267.78 74.6 268.82 82.63C269.86 90.66 270.02 104.87 269.62 109.93C269.21 114.99 263.13 145.15 261.05 149.39Z" fill="#3C3C3B"/>
<path d="M301 75.19C301 75.19 307.28 86.34 308.04 87.82C308.8 89.3 304.95 89.26 304.95 89.26L308.57 90.29C308.57 90.29 309.91 95.05 310.26 98.72C310.61 102.39 308.14 115.26 308.14 115.26L307.62 129.07L310.18 127.96C310.18 127.96 313.64 94.46 312.04 86.63C310.44 78.8 306.34 76.37 305.24 75.97C304.15 75.58 301 75.19 301 75.19Z" fill="#3C3C3B"/>
<path d="M311.61 89.56C311.61 89.56 340.63 94.58 343.35 89.21C346.07 83.84 342.04 61.05 341.01 59.31C339.98 57.57 338.72 57.84 338.72 57.84L334.41 59.47C334.41 59.47 335.02 78.26 334.54 79.41C334.07 80.56 312.65 75.45 305.24 75.97C305.25 75.98 310.71 89.13 311.61 89.56Z" fill="#3C3C3B"/>
<path d="M271.98 75.03C271.98 75.03 235.19 88.75 226.78 100.45C218.37 112.15 213.47 119.34 213.47 119.34L218.92 124.33C218.92 124.33 232.28 107.92 241.48 101.87C250.68 95.82 271.26 91.6 274.4 87.39C277.55 83.18 271.98 75.03 271.98 75.03Z" fill="#3C3C3B"/>
<path d="M217.92 123.41C217.92 123.41 217.27 127.31 215.68 130.37C214.09 133.43 213.41 132.45 213.81 130.24C214.21 128.03 214.05 126.71 214.05 126.71C214.05 126.71 212.37 128.07 211.82 129.47C211.57 130.11 213.04 130.97 212.69 131.19C210.91 132.3 209.03 130.02 209.03 130.02C209.03 130.02 208.3 131.15 207.53 130.99C205.89 130.63 207.08 128.91 207.08 128.91C207.08 128.91 205.71 130.12 205.35 128.82C204.99 127.52 205.14 127.57 205.14 127.57C205.14 127.57 201.46 130.33 201.61 128.59C201.76 126.85 213.48 119.35 213.48 119.35L217.92 123.41Z" fill="#F6B48E"/>
<path d="M295.02 74.28L294.39 74.87C294.39 74.87 301.33 88.79 302.97 93.06C305.56 99.82 305.52 101.96 306.24 105.38C306.44 106.33 306.76 110.72 306.76 110.72L307.61 128.85C307.61 128.85 309.84 109.42 306.11 98.32C304.65 93.91 295.02 74.28 295.02 74.28Z" fill="#0C0D1E"/>
<path d="M215.33 120.14L214.91 119.86C215.5 118.98 229.13 98.73 232.24 97.1C232.29 97.07 232.34 97.05 232.39 97.04C233.63 96.59 241.12 92.26 249.05 87.67C260.97 80.78 268.85 76.25 269.77 76.18C269.86 76.17 270 76.19 270.13 76.34C270.91 77.18 271.41 83 271.05 85.16L270.55 85.08C270.94 82.75 270.3 77.07 269.75 76.67C268.94 76.75 258.05 83.05 249.3 88.11C241.35 92.71 233.84 97.05 232.56 97.51C232.52 97.52 232.48 97.54 232.44 97.56C229.99 98.85 219.31 114.22 215.33 120.14Z" fill="#0C0D1E"/>
<path d="M266.24 124.58L273.84 123.05L274.64 120.56L266.65 122.61L266.24 124.58Z" fill="#0C0D1E"/>
<path d="M267.61 122.62C267.55 122.65 267.47 122.66 267.4 122.63C267.27 122.58 267.21 122.43 267.26 122.3C267.31 122.18 272.24 109.96 273.51 103.2C274.78 96.46 274.59 93.86 274.59 93.83C274.58 93.69 274.68 93.57 274.82 93.56C274.96 93.55 275.08 93.65 275.09 93.79C275.1 93.9 275.3 96.47 274.01 103.29C272.72 110.11 267.78 122.37 267.73 122.49C267.71 122.54 267.67 122.59 267.61 122.62Z" fill="#0C0D1E"/>
<path d="M270.08 109.58C270.04 109.6 269.99 109.61 269.94 109.61C269.8 109.6 269.7 109.47 269.71 109.33L271.16 94.46C271.17 94.32 271.3 94.22 271.44 94.23C271.58 94.24 271.68 94.37 271.67 94.51L270.22 109.38C270.2 109.47 270.15 109.55 270.08 109.58Z" fill="#0C0D1E"/>
<path d="M291.27 93.54C291.2 93.58 291.11 93.58 291.04 93.54L283.16 89.56L283.14 89.43C283.14 89.41 282.88 87.83 280.64 83.3C278.39 78.76 273.4 74.92 273.35 74.88C273.24 74.8 273.22 74.64 273.3 74.53C273.38 74.42 273.54 74.4 273.65 74.48C273.7 74.52 278.79 78.42 281.09 83.07C283.04 87.02 283.51 88.75 283.61 89.22L291.27 93.08C291.39 93.14 291.44 93.29 291.38 93.42C291.36 93.47 291.32 93.51 291.27 93.54Z" fill="#0C0D1E"/>
<path d="M282.41 123.36C282.35 123.39 282.29 123.4 282.22 123.38C282.09 123.34 282.01 123.2 282.05 123.07C282.07 122.98 284.56 114.13 284.98 106.29C285.39 98.45 284.23 92.56 284.22 92.5C284.19 92.36 284.28 92.23 284.42 92.2C284.56 92.17 284.69 92.26 284.72 92.4C284.73 92.46 285.91 98.42 285.49 106.32C285.07 114.22 282.57 123.12 282.54 123.21C282.52 123.27 282.47 123.32 282.41 123.36Z" fill="#0C0D1E"/>
<path d="M307.96 88.89C307.17 89.31 305.54 89.47 304.98 89.51C304.84 89.52 304.72 89.42 304.71 89.28C304.7 89.14 304.8 89.02 304.94 89.01C306.41 88.89 307.83 88.56 307.92 88.3C307.58 87.55 301.79 77.11 301.74 77C301.67 76.88 301.72 76.72 301.84 76.66C301.84 76.66 301.84 76.66 301.85 76.66C301.97 76.6 302.12 76.64 302.19 76.76C302.43 77.19 308.04 87.32 308.39 88.1C308.46 88.25 308.45 88.42 308.36 88.57C308.28 88.68 308.14 88.79 307.96 88.89Z" fill="#0C0D1E"/>
<path d="M309.41 111.11C309.36 111.13 309.31 111.14 309.26 111.14C309.12 111.12 309.03 110.99 309.05 110.85C309.06 110.78 310.01 104.07 310.05 100C310.09 95.95 308.49 90.87 308.47 90.82C308.43 90.69 308.5 90.54 308.63 90.5C308.76 90.46 308.9 90.53 308.95 90.66C308.97 90.71 310.59 95.87 310.55 100C310.51 104.11 309.55 110.85 309.54 110.92C309.53 111.01 309.48 111.08 309.41 111.11Z" fill="#0C0D1E"/>
<path d="M286.54 65.11C286.54 65.11 289.45 63.44 290.61 61.36C291.77 59.29 292.09 58.12 291.69 57.2C290.87 55.26 292 51.61 292.77 52.64C293.54 53.67 293.12 56.39 293.8 55.72C294.48 55.06 294.3 51.54 296.35 50.6C298.4 49.66 299.7 51.38 302.06 51.03C304.61 50.65 308.21 49.43 309.43 48.55C313.47 45.63 315 42.47 313.51 39.94C311.22 36.04 306.67 36.6 300.44 38.75C293.99 40.99 285.72 45.22 286.01 47.14C286.3 49.05 289.68 50.88 287.84 50.85C286 50.82 284.99 51.94 285.1 53.5C285.34 56.78 287.86 61.29 286.54 65.11Z" fill="#1D1D1B"/>
<path d="M281.17 72.78C281.42 72.71 284.01 73.43 287.52 75.16C291.03 76.88 293.47 79.21 293.47 79.21C293.47 79.21 293.2 79.78 294.12 80.65C295.04 81.52 294.72 81.52 294.72 81.52C294.72 81.52 293.91 82.08 293.46 81.77C293.01 81.46 291.91 80.43 291.91 80.43L290.55 83C290.55 83 287.21 81.02 284.04 78.38C281.61 76.35 278.28 73.73 278.28 73.73L281.17 72.78Z" fill="#ECECEC"/>
<path d="M293.7 73.66L296.84 73.65C296.84 73.65 298.29 75.04 298.4 77.03C298.51 79.02 297.36 81.52 297.29 81.42C297.22 81.32 295.98 79.56 295.8 79.78C295.62 80 295.61 80.94 295.61 80.94C295.61 80.94 293.52 76.23 293.55 75.31C293.57 74.38 293.7 73.66 293.7 73.66Z" fill="#ECECEC"/>
<path d="M293.67 81.85L296.98 85.38L296.59 80.49C296.59 80.48 294.72 81.54 293.67 81.85Z" fill="#5957D9"/>
<path d="M272.93 128.94L277 122.42C277 122.42 286.55 112.67 291.58 102.83C296.62 93 295.82 83.51 295.82 83.51L296.99 84.92C296.99 84.92 298.41 100.31 292.24 112.29C286.07 124.27 280.74 127.37 272.93 128.94Z" fill="#5957D9"/>
<path d="M295.44 68.37L292.09 65.94C292.09 65.94 291.79 70.38 291.85 72.71C291.91 75.03 294.03 76.85 294.03 76.85C294.03 76.85 293.55 75.8 293.74 74.19C293.93 72.58 295.44 68.37 295.44 68.37Z" fill="#EE8958"/>
<path d="M298.45 50.02C298.44 50.02 298.43 50.03 298.42 50.03C298.28 50.07 298.15 49.98 298.11 49.85C298.08 49.72 298.16 49.58 298.29 49.54C298.29 49.54 298.29 49.54 298.3 49.54C298.49 49.49 304.45 47.86 306.96 43.54C307.46 42.68 307.55 42 307.23 41.51C306.34 40.18 302.52 40.36 301.12 40.54C300.98 40.56 300.85 40.46 300.84 40.32C300.82 40.18 300.92 40.05 301.06 40.04C301.28 40.01 306.41 39.36 307.65 41.23C308.09 41.89 308 42.75 307.4 43.79C304.81 48.24 298.96 49.89 298.45 50.02Z" fill="#0C0D1E"/>
<path d="M297.04 50.22C296.96 50.26 296.85 50.26 296.77 50.2C296.66 50.11 296.64 49.96 296.72 49.85C299.59 46.14 301.73 42.63 301.39 42.19C300.94 41.6 299.04 42.18 297.96 42.69C297.83 42.75 297.68 42.69 297.62 42.57C297.56 42.44 297.62 42.29 297.74 42.23C298.07 42.08 300.94 40.77 301.79 41.88C302.59 42.93 298.42 48.48 297.12 50.16C297.1 50.18 297.07 50.2 297.04 50.22Z" fill="#0C0D1E"/>
<path d="M293.92 53.55C293.9 53.55 293.89 53.55 293.87 53.55C293.73 53.53 293.64 53.4 293.65 53.27C293.65 53.25 293.83 51.61 291.93 49.31C290.02 47.01 287.35 47.32 287.32 47.32C287.19 47.34 287.06 47.24 287.04 47.1C287.02 46.96 287.12 46.84 287.26 46.82C287.38 46.81 290.25 46.47 292.32 48.99C294.38 51.48 294.16 53.27 294.15 53.34C294.13 53.45 294.03 53.54 293.92 53.55Z" fill="#0C0D1E"/>
<path d="M307.25 48.75C304.27 50.31 301.24 50.7 301.05 50.72C300.91 50.74 300.79 50.64 300.77 50.5C300.75 50.36 300.85 50.24 300.99 50.22C301.06 50.21 307.75 49.35 310.9 45.13C311.69 44.07 311.98 43.23 311.71 42.71C311.34 41.98 309.99 41.98 309.97 41.98C309.83 41.98 309.72 41.87 309.71 41.73C309.71 41.59 309.82 41.48 309.96 41.47C310.03 41.47 311.64 41.46 312.15 42.47C312.51 43.18 312.22 44.18 311.29 45.42C310.21 46.9 308.73 47.97 307.25 48.75Z" fill="#0C0D1E"/>
<path d="M335 59.07C335 59.07 330.89 55.1 330.75 54.07C330.62 53.04 332.21 50.04 332.58 49.63C332.95 49.22 333 53.12 332.97 53.94C332.94 54.76 334.51 54.42 336.24 54.3C338.53 54.14 339.62 54 339.91 54.31C340.2 54.62 338.92 57.78 338.92 57.78L335 59.07Z" fill="#F6B48E"/>
<path d="M338.93 57.79C338.93 57.79 337.53 57.96 335.83 57.23C334.13 56.5 333.31 54.48 333.31 54.48C333.31 54.48 335.62 53.64 337.48 53.7C339.34 53.75 340.03 53.84 340.03 53.84C340.03 53.84 340.19 56.07 338.93 57.79Z" fill="#EE8958"/>
<path d="M300.01 131.37C304.36 128.16 346.52 119.23 350.28 125.6C354.04 131.97 347.28 179.42 347.28 179.42L337.5 182.28C337.5 182.28 337.87 172.68 337.58 161.8C337.11 144.24 337.34 141.87 337.34 141.87C334.57 140.41 288.58 157.2 288.58 157.2C288.58 157.2 295.06 135.02 300.01 131.37Z" fill="#3C3C3B"/>
<path d="M267.28 261.71C267.28 261.71 265.89 261.49 265.85 259.37C265.8 257.25 266.17 255.27 266.17 255.27L259.01 256.7C259.01 256.7 259.77 266.78 262.51 267.28C264.31 267.6 265.46 263.6 267.28 261.71Z" fill="white"/>
<path d="M259.99 266.51C259.99 266.51 261.96 269.2 264.05 267.96C266.14 266.73 281.13 256.99 280.49 256.61C279.85 256.24 279.54 255.04 279.11 255.25C278.69 255.46 271.64 259.3 269.24 258.37C266.84 257.44 266.68 255.45 266.68 255.45L263.4 257.66C263.4 257.66 265.44 260.13 265.33 261.53C265.22 262.94 259.99 266.51 259.99 266.51Z" fill="#0D0E1F"/>
<path d="M348.22 186.04C348.22 186.04 346.82 185.91 346.64 183.8C346.46 181.69 346.7 179.69 346.7 179.69L339.64 181.58C339.64 181.58 341.04 191.59 343.81 191.91C345.63 192.11 346.52 188.05 348.22 186.04Z" fill="white"/>
<path d="M341.25 191.31C341.25 191.31 343.39 193.86 345.39 192.5C347.4 191.14 361.73 180.45 361.06 180.12C360.4 179.79 360.01 178.61 359.6 178.85C359.19 179.09 352.4 183.37 349.95 182.6C347.5 181.82 347.21 179.85 347.21 179.85L344.08 182.27C344.08 182.27 346.27 184.6 346.25 186.01C346.24 187.41 341.25 191.31 341.25 191.31Z" fill="#0D0E1F"/>
<path d="M262.59 154.49C262.5 154.49 262.45 154.49 262.43 154.48C262.26 154.46 262.13 154.31 262.15 154.13C262.17 153.96 262.33 153.83 262.5 153.85C262.52 153.85 264.97 154.02 270.3 150.7C273.99 148.4 277.74 143.85 279.99 141.13C281.37 139.46 281.94 138.78 282.29 138.66C282.54 138.57 283.02 138.53 283.68 138.47C285.5 138.3 288.55 138.02 290.32 136.58C292.19 135.07 294.19 134.04 295.65 133.29C296.16 133.03 296.61 132.8 296.98 132.59C298.43 131.76 299.87 131.08 299.89 131.08C300.05 131 300.24 131.08 300.31 131.23C300.38 131.39 300.31 131.58 300.16 131.65C300.15 131.66 298.73 132.32 297.3 133.14C296.92 133.36 296.46 133.59 295.95 133.86C294.52 134.6 292.55 135.61 290.74 137.08C288.82 138.64 285.65 138.93 283.75 139.11C283.18 139.16 282.69 139.21 282.5 139.27C282.27 139.38 281.37 140.47 280.49 141.54C278.22 144.29 274.43 148.89 270.65 151.25C265.77 154.27 263.22 154.49 262.59 154.49Z" fill="#0C0D1E"/>
<path d="M268.32 159.94L268.1 156.68L268.32 156.6C268.38 156.58 273.94 154.41 276.71 152.94C279.37 151.53 279.88 150.93 279.9 150.9L280.33 150.38L280.96 153.72L280.79 153.84C280.76 153.86 277.44 156.08 275.01 157.41C272.56 158.75 268.86 159.8 268.71 159.85L268.32 159.94ZM268.76 157.1L268.9 159.11C269.91 158.8 272.75 157.9 274.69 156.84C276.78 155.7 279.54 153.89 280.25 153.41L279.93 151.7C279.48 152.05 278.61 152.63 277 153.49C274.52 154.82 269.82 156.68 268.76 157.1Z" fill="#0C0D1E"/>
<path d="M279.2 207.94C279.17 207.94 279.13 207.94 279.1 207.92C276.85 207.16 271.58 205.3 271.31 204.38C271.27 204.23 271.29 204.08 271.39 203.97C271.98 203.22 279.29 202.26 282.41 201.89C282.58 201.87 282.74 201.99 282.76 202.17C282.78 202.34 282.66 202.5 282.48 202.52C277.92 203.07 272.97 203.86 272.01 204.3C272.67 204.88 276.18 206.28 279.31 207.33C279.48 207.39 279.57 207.57 279.51 207.73C279.46 207.86 279.33 207.94 279.2 207.94Z" fill="#0C0D1E"/>
<path d="M280.703 198.796L273.609 201.258L273.818 201.862L280.913 199.401L280.703 198.796Z" fill="#0C0D1E"/>
<path d="M258.58 256.66C258.55 256.66 258.52 256.66 258.5 256.65C258.33 256.6 258.23 256.43 258.28 256.26L259.67 251.16L269.5 250.49C269.68 250.47 269.83 250.61 269.84 250.79C269.85 250.97 269.72 251.12 269.54 251.13L260.16 251.77L258.89 256.43C258.85 256.57 258.72 256.66 258.58 256.66Z" fill="#0C0D1E"/>
<path d="M291.72 159.42C291.68 159.42 291.63 159.41 291.59 159.39C291.43 159.32 291.36 159.13 291.43 158.97C291.43 158.97 292.75 156.03 294.18 152.73C295.23 150.29 294.93 148.58 294.7 147.32C294.63 146.92 294.56 146.54 294.55 146.19C294.5 144.81 294.74 139.41 294.75 139.18C294.76 139 294.91 138.86 295.08 138.88C295.26 138.89 295.39 139.04 295.38 139.21C295.38 139.27 295.12 144.81 295.18 146.16C295.19 146.46 295.25 146.81 295.32 147.21C295.56 148.54 295.88 150.37 294.75 152.98C293.32 156.29 292 159.23 292 159.23C291.95 159.35 291.84 159.42 291.72 159.42Z" fill="#0C0D1E"/>
<path d="M338.67 144.1C338.02 144.1 337.92 143.9 337.87 143.79C337.58 143.17 339.76 140.42 344.33 135.62C344.45 135.49 344.65 135.49 344.78 135.61C344.91 135.73 344.91 135.93 344.79 136.06C341.87 139.12 338.82 142.62 338.49 143.48C339.22 143.59 342.47 142.7 345.23 141.75C345.39 141.69 345.58 141.78 345.63 141.95C345.69 142.12 345.6 142.3 345.43 142.35C341.39 143.74 339.54 144.1 338.67 144.1Z" fill="#0C0D1E"/>
<path d="M337.15 182.7L337.52 176.58L341.14 175.52L348.31 174.25L347.58 179.67L347.37 179.72C347.35 179.72 345.75 180.12 344.4 180.59C343.02 181.06 337.82 182.52 337.59 182.58L337.15 182.7ZM338.13 177.06L337.84 181.84C339.15 181.47 343.05 180.37 344.18 179.98C345.27 179.61 346.51 179.28 346.99 179.15L347.55 175.02L341.28 176.13L338.13 177.06Z" fill="#0C0D1E"/>
<path d="M307.99 128.18L307.36 128.12C307.37 128 308.29 116.24 308.94 110.79C309.07 109.69 309.08 109.62 309.41 109.65C309.53 109.66 309.61 109.67 309.63 110.04L309.68 110.05C309.67 110.09 309.66 110.18 309.64 110.34C309.62 111.29 309.41 113.57 308.88 119.08C308.44 123.64 307.99 128.18 307.99 128.18Z" fill="#0C0D1E"/>
<path d="M296.78 154.86C296.73 154.86 296.69 154.85 296.64 154.83C296.48 154.75 296.41 154.56 296.49 154.41C296.51 154.37 298.56 150.04 299.64 146.93C300.71 143.87 300.47 140.96 300.46 140.94C300.44 140.76 300.57 140.61 300.75 140.6C300.93 140.59 301.08 140.71 301.09 140.89C301.1 141.01 301.34 143.96 300.23 147.15C299.14 150.29 297.07 154.65 297.05 154.69C297.02 154.79 296.9 154.86 296.78 154.86Z" fill="#0C0D1E"/>
<path d="M302.65 58.65C302.48 58.65 302.33 58.62 302.24 58.6L302.02 58.55L301.67 55.14L301.91 55.06C302.29 54.93 302.99 54.74 303.34 54.91C303.45 54.97 303.54 55.06 303.57 55.17C303.67 55.48 303.53 58.16 303.19 58.47C303.05 58.61 302.84 58.65 302.65 58.65ZM302.6 58.01C302.65 58.01 302.7 58.01 302.73 58.01C302.85 57.6 303 55.98 302.97 55.48C302.84 55.48 302.6 55.53 302.35 55.59L302.6 58.01Z" fill="#0C0D1E"/>
<path d="M295.73 59.04C295.3 59.04 295.21 58.96 295.15 58.91L295.03 58.81L295.02 58.61C295.04 58.25 295.25 56.22 295.26 56.14L295.29 55.9L295.53 55.86C300.99 54.95 301.02 55.05 301.12 55.37C301.21 55.65 300.87 57.18 300.46 57.87C300.27 58.2 300.05 58.39 299.81 58.43C297.42 58.91 296.29 59.04 295.73 59.04ZM295.68 58.41C296.26 58.41 297.81 58.18 299.69 57.81C299.97 57.75 300.38 56.44 300.48 55.78C299.74 55.84 297.73 56.14 295.87 56.45C295.81 57.07 295.71 57.96 295.68 58.41Z" fill="#0C0D1E"/>
<path d="M302.09 57.34C302.08 57.34 302.08 57.34 302.07 57.34L300.49 57.25C300.31 57.24 300.18 57.09 300.19 56.92C300.2 56.74 300.33 56.62 300.52 56.62L302.1 56.71C302.28 56.72 302.41 56.87 302.4 57.04C302.4 57.21 302.26 57.34 302.09 57.34Z" fill="#0C0D1E"/>
<path d="M295.58 56.17C295.58 56.17 293.02 52.37 292.2 52.18C291.38 52 289.97 53.29 289.97 53.29L290.31 53.55C290.31 53.55 291.41 52.58 291.89 53.12C292.37 53.65 295.07 58.78 295.07 58.78L295.58 56.17Z" fill="#0C0D1E"/>
<path d="M332.78 51.72C332.78 51.72 334.39 55.04 335.06 55.27C335.72 55.5 335.64 54.04 335.64 54.04C335.64 54.04 336.28 55.73 336.94 55.5C337.59 55.27 337.4 53.89 337.4 53.89C337.4 53.89 337.97 55.25 338.47 54.83C338.97 54.42 338.9 53.11 338.9 53.11C338.9 53.11 339.06 54.32 339.78 54.38C340.5 54.43 340.26 52.65 339.67 51.16C339.09 49.66 338.66 49.11 338.24 49.18C337.81 49.25 337.74 49.5 337.74 49.5C337.74 49.5 336.95 48.8 336.47 49.14C335.99 49.48 336.02 49.81 336.02 49.81C336.02 49.81 334.78 48.95 334.33 49.36C333.88 49.77 333.81 50.26 333.81 50.26C333.81 50.26 332.74 49.52 332.43 49.97C332.13 50.42 331.74 51.67 331.74 51.67L332.78 51.72Z" fill="#F6B48E"/>
<path d="M549.4 426.29H115.31V429.92H549.4V426.29Z" fill="#575756"/>
<defs>
<linearGradient id="paint0_linear_2_1348" x1="139.326" y1="363.788" x2="315.166" y2="363.788" gradientUnits="userSpaceOnUse">
<stop stop-color="#F3F3F3"/>
<stop offset="1" stop-color="#BAC4E5"/>
</linearGradient>
</defs>
</svg>
