<svg width="1248" height="751" viewBox="0 0 1248 751" fill="none" xmlns="http://www.w3.org/2000/svg">
<path d="M164.95 413.75C178.24 480.75 208.54 542.61 242.2 601.08L1036.5 599.6C1072.59 578.84 1108.83 535.59 1126.02 496.12C1143.2 456.66 1142.1 406.67 1116.45 372.74C1086.25 332.79 1074.42 222.67 1013.48 216.24C949.14 209.45 938.91 170.42 904.54 113.37C853.36 28.46 724.2 -16.43 641.89 45.07C595.27 79.91 568.72 146.34 513.39 161.22C459.85 175.63 407.95 133.95 353.24 125.82C289.15 116.29 224.01 156.49 190.42 215.02C156.83 273.53 151.67 346.75 164.95 413.75Z" fill="#F3F3F3"/>
<path d="M524.01 294.12C525.07 291.72 567.68 222.46 583.41 214.59C599.14 206.72 641.26 210.94 649.13 217.05C657 223.16 701.37 284.79 706.64 297.56C712.76 312.41 706.65 331.64 699.66 331.64C692.67 331.64 535.39 331.68 535.39 331.68C535.39 331.68 510.91 323.83 524.01 294.12Z" fill="#B1B1B1"/>
<path d="M664.9 250.22L661.96 376.37L566.44 377.28L563.91 250.25C563.9 228.96 579.31 211.25 599.59 207.68C602.03 207.26 604.53 207.04 607.1 207.04H621.7C645.54 207.03 664.89 226.37 664.9 250.22Z" fill="#B1B1B1"/>
<path d="M645.41 186.95L590.25 186.96C582.95 186.96 577.03 181.05 577.03 173.75L577.01 110.52C577.01 101.35 584.44 93.91 593.62 93.9L641.98 93.89C651.15 93.89 658.59 101.32 658.6 110.5L658.62 173.73C658.63 181.03 652.71 186.95 645.41 186.95Z" fill="#575756"/>
<path d="M587.86 142.33L587.31 151.85L586.93 158.28L584.06 158.15C583.85 158.14 583.64 158.13 583.44 158.09C578.66 157.58 575.05 153.74 575.29 149.52C575.41 147.33 576.56 145.5 578.32 144.12C579.89 142.88 581.96 142.23 584.22 142.2H584.23C584.49 142.18 584.71 142.18 584.98 142.2L587.86 142.33Z" fill="#F4A891"/>
<path d="M650.42 142.53L650.97 152.05L651.35 158.48L654.22 158.35C654.43 158.34 654.64 158.33 654.84 158.29C659.62 157.78 663.23 153.94 662.99 149.71C662.87 147.52 661.72 145.69 659.96 144.31C658.39 143.08 656.32 142.42 654.06 142.4H654.05C653.79 142.38 653.57 142.38 653.3 142.4L650.42 142.53Z" fill="#F4A891"/>
<path d="M625.76 222.7H608.99C605.82 222.7 603.23 220.11 603.23 216.94L603.22 172.19C603.22 169.02 605.81 166.43 608.98 166.43H625.75C628.92 166.43 631.51 169.02 631.51 172.19L631.52 216.94C631.53 220.1 628.93 222.69 625.76 222.7Z" fill="#F4A891"/>
<path d="M655.93 140.99L655.04 158.41L654.91 161.02C654.83 162.74 654.61 164.44 654.3 166.08C651.62 179.92 641.02 190.87 627.52 194.34C626.01 194.73 624.47 195.02 622.89 195.22C622.42 195.3 621.93 195.34 621.46 195.36C620.46 195.47 619.47 195.52 618.46 195.52C617.74 195.52 617.02 195.49 616.28 195.47C614.63 195.38 613.03 195.18 611.44 194.88C610.78 194.76 610.14 194.62 609.5 194.46C607.05 193.88 604.72 193.05 602.5 192C602.5 192 602.49 192 602.47 191.99C591.85 186.97 584.12 177.09 582 165.47C581.99 165.43 581.99 165.4 581.99 165.37C581.78 164.11 581.62 162.84 581.53 161.56C581.49 161.15 581.48 160.76 581.46 160.35C581.45 159.93 581.43 159.52 581.45 159.11C581.42 158.62 581.45 158.13 581.48 157.63V157.37L581.53 156.18L581.7 153.07L581.96 147.75V147.7L582.22 142.33L582.23 142.23V142.22L582.33 140.24L582.41 138.69L582.49 137.27L582.52 136.9C582.66 134.44 583.16 132.05 583.88 129.77C584.36 128.17 584.97 126.61 585.63 125.12C585.72 124.87 585.81 124.66 585.92 124.44C586.47 123.21 587.11 121.99 587.81 120.84C587.81 120.83 587.82 120.81 587.82 120.81C590.45 116.41 594 112.59 598.2 109.64C599.04 109.05 599.9 108.49 600.78 107.96C606.9 104.37 614.08 102.44 621.66 102.83C631.79 103.35 640.88 107.9 647.21 114.84C649.07 116.88 650.59 119.11 651.84 121.52C652.88 123.47 653.73 125.53 654.46 127.71C654.93 129.07 655.27 130.48 655.52 131.89C655.52 131.89 655.52 131.9 655.52 131.92C655.6 132.41 655.66 132.88 655.72 133.36C655.83 134.21 655.9 135.08 655.94 135.95C656.04 137.59 656.02 139.28 655.93 140.99Z" fill="#FFC7B0"/>
<path d="M627.99 168.3C624.64 173.22 621.55 176.49 616.97 175.78C613.13 175.19 610.01 172.3 608.09 168.03L627.99 168.3Z" fill="white"/>
<path d="M655.93 140.99L655.04 158.41L654.91 161.02C654.83 162.74 654.61 164.44 654.3 166.08C651.62 179.92 641.02 190.87 627.52 194.34C626.01 194.73 624.47 195.02 622.89 195.22C622.42 195.3 621.93 195.34 621.46 195.36C620.46 195.47 619.47 195.52 618.46 195.52C617.74 195.52 617.02 195.49 616.28 195.47C614.41 195.39 612.57 195.18 610.76 194.87C610.39 194.8 610.04 194.75 609.67 194.67C607.19 194.09 604.85 193.26 602.62 192.21C602.62 192.21 602.61 192.21 602.59 192.2C591.89 187.14 584.09 177.2 582.01 165.47C582 165.43 582 165.4 582 165.37C581.78 164.11 581.62 162.84 581.54 161.56C581.5 161.15 581.49 160.76 581.47 160.35C581.46 159.93 581.44 159.52 581.46 159.11C581.43 158.62 581.46 158.13 581.49 157.63V157.37L581.54 156.18L581.71 153.07L581.97 147.75C583.61 167.24 590.51 191.86 614.81 192.85C648.46 194.22 655.43 157.23 655.95 135.94C656.04 137.59 656.02 139.28 655.93 140.99Z" fill="#F4A891"/>
<path d="M636.09 377.81L598.05 377.82L598.1 204.09L607.66 203.8L616.62 220.82L626.48 204.37L636.59 204.53L636.09 377.81Z" fill="white"/>
<path d="M607.82 203.63L602.24 213.08L594.89 209.11L597.46 203.63H607.82Z" fill="#EAECEE"/>
<path d="M626.56 204.23L632.53 213.08L639.83 210.59L637.62 204.23H626.56Z" fill="#EAECEE"/>
<path d="M658.91 123.89C662.234 117.564 659.8 109.74 653.473 106.416C647.146 103.092 639.323 105.527 635.999 111.854C632.675 118.18 635.109 126.004 641.436 129.328C647.763 132.652 655.587 130.217 658.91 123.89Z" fill="#575756"/>
<path d="M636.82 122.2C636.82 127.7 632.37 132.15 626.87 132.15C621.37 132.15 616.92 127.7 616.92 122.2C616.92 116.7 621.37 112.25 626.87 112.25C632.36 112.25 636.82 116.7 636.82 122.2Z" fill="#575756"/>
<path d="M612.06 120.6L620.84 123.63C619.18 128.45 613.85 131.04 609.03 129.38C604.21 127.72 601.62 122.39 603.28 117.57C604.94 112.75 610.27 110.16 615.09 111.82C619.15 113.22 621.74 117.27 621.3 121.54L612.06 120.6Z" fill="#575756"/>
<path d="M602.99 120.38C602.99 125.23 599.06 129.17 594.2 129.17C589.35 129.17 585.41 125.24 585.41 120.38C585.41 115.52 589.34 111.59 594.2 111.59C599.05 111.59 602.99 115.53 602.99 120.38Z" fill="#575756"/>
<path d="M605.81 101.81C605.81 101.81 624.38 96.5 634.33 103.46C644.28 110.42 649.59 120.04 649.59 120.04L611.45 123.37L588.56 119.73L597.35 102.98L605.81 101.81Z" fill="#575756"/>
<path d="M589.23 122.87L585.01 150.95C584.81 152.25 583.35 152.92 582.23 152.22C581.73 151.91 581.42 151.38 581.38 150.79L580.11 130.33C580.11 130.34 586.9 113.42 589.23 122.87Z" fill="#575756"/>
<path d="M647.6 126.5L651.83 154.58C652.03 155.88 653.5 156.55 654.61 155.85C655.11 155.54 655.42 155.01 655.46 154.42L656.72 128.32C656.72 128.33 649.92 117.05 647.6 126.5Z" fill="#575756"/>
<path d="M585.25 149.57C584.75 156.37 588.41 187.55 616.6 188.2C644.79 188.86 650.47 158.68 650.92 152.37C651.37 146.06 655.56 146.73 655.56 148.06L655.4 164.32C655.4 183.36 639.97 198.81 620.93 198.81H616.93C597.89 198.81 581.12 184.36 581.11 165.32L581.27 149.73C581.27 149.74 585.3 148.99 585.25 149.57Z" fill="#575756"/>
<path d="M864.9 226.43H787.07V111.56C787.07 102.81 794.17 95.71 802.92 95.71H849.06C857.81 95.71 864.91 102.81 864.91 111.56V226.43H864.9Z" fill="black"/>
<path d="M872.47 312.46H782.7V217.97C782.7 207.87 790.88 199.69 800.98 199.69H854.2C864.3 199.69 872.48 207.87 872.48 217.97V312.46H872.47Z" fill="#575756"/>
<path d="M840.63 180.23H813.21V217.82H840.63V180.23Z" fill="#F4A891"/>
<path d="M867.8 148.27C867.82 151.55 865.44 154.48 862.27 155.16C861.98 155.22 861.68 155.27 861.36 155.3C861.22 155.33 861.06 155.32 860.89 155.33L858.75 155.35L858.71 150.88L858.7 149.88L858.64 141.76L860.8 141.74C861 141.74 861.18 141.74 861.36 141.76H861.37C861.65 141.77 861.92 141.81 862.18 141.86C862.18 141.86 862.19 141.85 862.19 141.86C863.55 142.08 864.77 142.67 865.71 143.59C866.99 144.82 867.78 146.41 867.8 148.27Z" fill="#F4A891"/>
<path d="M784.8 148.27C784.78 151.55 787.16 154.48 790.33 155.16C790.62 155.22 790.92 155.27 791.24 155.3C791.38 155.33 791.54 155.32 791.7 155.33L793.84 155.35L793.88 150.88L793.89 149.88L793.95 141.76L791.79 141.74C791.59 141.74 791.41 141.74 791.23 141.76H791.22C790.94 141.77 790.67 141.81 790.41 141.86C790.41 141.86 790.4 141.85 790.4 141.86C789.04 142.08 787.82 142.67 786.88 143.59C785.61 144.82 784.82 146.41 784.8 148.27Z" fill="#F4A891"/>
<path d="M860.97 153.83V154.96L860.96 155.2C860.96 155.68 860.96 156.16 860.92 156.62C860.92 157.02 860.88 157.4 860.85 157.81C860.85 157.93 860.82 158.05 860.81 158.18C860.4 163.14 858.89 167.83 856.55 171.99C856.43 172.2 856.31 172.41 856.19 172.61C852.37 179.08 846.52 184.25 839.49 187.2C839.48 187.21 839.46 187.21 839.46 187.21C836.74 188.36 833.85 189.17 830.82 189.58C829.71 189.74 828.59 189.85 827.46 189.91C827.01 189.94 826.56 189.94 826.09 189.94C824.45 189.95 822.83 189.86 821.23 189.63C820.78 189.58 820.31 189.52 819.88 189.43C805.01 186.92 793.33 175.13 791.12 160.32C790.89 158.74 790.75 157.11 790.75 155.46L790.72 152.97L790.64 141.87L790.6 136.32C790.59 135.47 790.6 134.62 790.64 133.79C790.71 132.17 790.85 130.58 791.1 129.03C791.41 127.2 791.87 125.42 792.55 123.7C793.35 121.66 794.25 119.71 795.32 117.86C796.61 115.63 798.13 113.57 799.99 111.72C806.32 105.35 815.18 101.4 824.87 101.32C832.11 101.25 838.89 103.4 844.57 107.08C845.39 107.62 846.19 108.19 846.97 108.79C850.22 111.3 853.03 114.38 855.21 117.86C855.63 118.51 856.03 119.19 856.4 119.88C856.4 119.88 856.41 119.89 856.41 119.91C857.02 121.04 857.59 122.22 858.05 123.43C858.14 123.64 858.22 123.84 858.3 124.09C858.87 125.54 859.39 127.05 859.79 128.6C860.37 130.8 860.76 133.1 860.79 135.46L860.8 135.8L860.81 137.15L860.82 138.64L860.83 140.52V140.53L860.84 140.64V140.96L860.85 141.85L860.89 149.94V150.84L860.97 153.83Z" fill="#FFC7B0"/>
<path d="M810.54 204.37C814.16 223.99 827.8 294.83 827.8 294.83L843.09 204.84C843.64 201.58 841.08 198.62 837.77 198.7C835.67 198.75 833.81 200.04 833.02 201.99C830.56 208.08 822.06 208.43 819.11 202.56L818.65 201.65C817.9 200.15 816.35 199.23 814.68 199.27C812.03 199.33 810.06 201.75 810.54 204.37Z" fill="white"/>
<path d="M862.48 139.23C862.47 139.27 862.47 139.3 862.47 139.32C862.39 140.59 862.27 141.43 862.23 141.72C862.22 141.79 860.99 141.68 860.99 141.68C859.03 128.93 828.69 117.76 809.79 118.75C807.67 118.86 805.77 119.35 804.07 120.1C790.64 126.12 790.42 149.83 790.23 148.97C778.95 97.56 823.38 96.52 823.38 96.52C835.77 96.97 844.3 100.5 850.15 105.41C862.7 115.95 862.92 132.82 862.48 139.23Z" fill="black"/>
<path d="M815.43 165.16C816.71 166.9 819.52 169.32 825.1 169.11C830.15 168.92 832.59 167.01 833.74 165.47" stroke="#E48867" stroke-width="1.3558" stroke-miterlimit="10" stroke-linecap="round"/>
<path d="M798.56 119.52C798.56 119.52 806.19 130.8 825.76 131.79C845.33 132.79 854.95 131.96 860.42 150.7C861.92 155.83 861.58 130.63 861.58 130.63C861.58 130.63 819.79 96.64 798.56 119.52Z" fill="black"/>
<path d="M803.54 118.86C803.54 118.86 794.95 137.1 791.6 149.04C788.25 160.98 784.63 114.05 803.54 118.86Z" fill="black"/>
<path d="M639.66 450.39H595.82C587.54 450.39 580.76 443.61 580.76 435.33V388.29C580.76 380.01 587.54 373.23 595.82 373.23H639.66C647.94 373.23 654.72 380.01 654.72 388.29V435.33C654.72 443.61 647.94 450.39 639.66 450.39Z" fill="#B95241"/>
<path d="M633.02 435.68H605.6V478.58H633.02V435.68Z" fill="#F4A891"/>
<path d="M660.2 403.72C660.22 407 657.84 409.93 654.67 410.61C654.38 410.67 654.08 410.72 653.76 410.75C653.62 410.78 653.46 410.77 653.3 410.78L651.16 410.8L651.12 406.33L651.11 405.33L651.05 397.21L653.21 397.19C653.41 397.19 653.59 397.19 653.77 397.21H653.78C654.06 397.22 654.33 397.26 654.59 397.31C654.59 397.31 654.6 397.3 654.6 397.31C655.96 397.53 657.18 398.12 658.12 399.04C659.38 400.26 660.18 401.85 660.2 403.72Z" fill="#F4A891"/>
<path d="M577.19 403.72C577.17 407 579.55 409.93 582.72 410.61C583.01 410.67 583.31 410.72 583.63 410.75C583.77 410.78 583.93 410.77 584.09 410.78L586.23 410.8L586.27 406.33L586.28 405.33L586.34 397.21L584.18 397.19C583.98 397.19 583.8 397.19 583.62 397.21H583.61C583.33 397.22 583.06 397.26 582.8 397.31C582.8 397.31 582.79 397.3 582.79 397.31C581.43 397.53 580.21 398.12 579.27 399.04C578.01 400.26 577.21 401.85 577.19 403.72Z" fill="#F4A891"/>
<path d="M653.36 409.27V410.4L653.35 410.64C653.35 411.12 653.35 411.6 653.31 412.06C653.31 412.46 653.27 412.84 653.24 413.25C653.24 413.37 653.21 413.49 653.2 413.62C652.79 418.58 651.28 423.27 648.94 427.43C648.82 427.64 648.7 427.85 648.58 428.05C644.76 434.52 638.91 439.69 631.88 442.64C631.87 442.65 631.85 442.65 631.85 442.65C629.13 443.8 626.24 444.61 623.21 445.02C622.1 445.18 620.98 445.29 619.85 445.35C619.4 445.38 618.95 445.38 618.48 445.38C616.84 445.39 615.22 445.3 613.62 445.07C613.17 445.02 612.7 444.96 612.27 444.87C597.4 442.36 585.72 430.57 583.51 415.76C583.28 414.18 583.14 412.55 583.14 410.9L583.11 408.41L583.03 397.31L582.99 391.76C582.98 390.91 582.99 390.06 583.03 389.23C583.1 387.61 583.24 386.02 583.49 384.47C583.8 382.64 584.26 380.86 584.94 379.14C585.74 377.1 586.64 375.15 587.71 373.3C589 371.07 590.52 369.01 592.38 367.16C598.71 360.79 607.57 356.84 617.26 356.76C624.5 356.69 631.28 358.84 636.96 362.52C637.78 363.06 638.58 363.63 639.36 364.23C642.61 366.74 645.42 369.82 647.6 373.3C648.02 373.95 648.42 374.63 648.79 375.32C648.79 375.32 648.8 375.33 648.8 375.35C649.41 376.48 649.98 377.66 650.44 378.87C650.53 379.08 650.61 379.28 650.69 379.53C651.26 380.98 651.78 382.49 652.18 384.04C652.76 386.24 653.15 388.54 653.18 390.9L653.19 391.24L653.2 392.59L653.21 394.08L653.22 395.96V395.97L653.23 396.08V396.4L653.24 397.29L653.28 405.38V406.28L653.36 409.27Z" fill="#FFC7B0"/>
<path d="M654.87 394.68C654.86 394.72 654.86 394.75 654.86 394.77C654.75 395.67 654.67 396.49 654.62 397.17C654.61 397.24 654.61 397.28 654.61 397.28C654.5 398.66 653.43 399.76 652.06 399.93C652.03 399.93 652.01 399.93 651.99 399.94C650.85 400.07 649.74 399.53 649.14 398.55L645.11 391.89C639.6 381.37 604.75 380.4 604.75 380.4C602.32 380.51 600.05 379.62 598.38 378.09C597.58 377.37 596.93 376.51 596.46 375.56C595.66 374.02 595.31 372.23 595.56 370.35C596.14 366.04 599.94 362.87 604.29 362.67L642.55 360.88C655.1 371.39 655.31 388.27 654.87 394.68Z" fill="#DB734C"/>
<path d="M613.02 413.46C613.02 413.46 613.48 415.97 617.03 415.78C620.16 415.61 620.42 413.42 620.42 413.42L613.02 413.46Z" fill="#F4A891"/>
<path d="M598.58 393.67C598.58 393.67 604.16 390.68 609.78 393.97" stroke="#DB734C" stroke-width="2.5582" stroke-miterlimit="10" stroke-linecap="round"/>
<g opacity="0.18">
<path opacity="0.18" d="M609.75 410.22C609.73 411.64 606.73 412.75 603.05 412.69C599.37 412.63 596.41 411.43 596.43 410.01C596.45 408.59 599.45 407.48 603.13 407.54C606.81 407.6 609.77 408.8 609.75 410.22Z" fill="#5957D9"/>
</g>
<path d="M664.86 567.91H575.09V473.42C575.09 463.32 583.27 455.14 593.37 455.14H646.59C656.69 455.14 664.87 463.32 664.87 473.42V567.91H664.86Z" fill="#5957D9"/>
<path d="M602.06 454.84C602.06 456.12 620.19 550.27 620.19 550.27L636.55 453.98L602.06 454.84Z" fill="#FFC050"/>
<path opacity="0.56" d="M618.76 455.44L620.87 551.84" stroke="white" stroke-width="1.2235" stroke-miterlimit="10"/>
<path d="M624.06 471.48C624.09 472.3 623.64 472.97 623.07 472.99C622.49 473.01 622.01 472.36 621.98 471.55C621.95 470.73 622.4 470.06 622.97 470.04C623.55 470.02 624.04 470.67 624.06 471.48Z" fill="white"/>
<path d="M624.35 480.12C624.38 480.94 623.93 481.61 623.36 481.63C622.78 481.65 622.3 481 622.27 480.19C622.24 479.37 622.69 478.7 623.26 478.68C623.83 478.66 624.32 479.31 624.35 480.12Z" fill="white"/>
<path d="M624.63 488.76C624.66 489.58 624.21 490.25 623.64 490.27C623.06 490.29 622.58 489.64 622.55 488.83C622.52 488.01 622.97 487.34 623.54 487.32C624.12 487.3 624.61 487.95 624.63 488.76Z" fill="white"/>
<path d="M641.02 460.51L626.3 461.59C621.98 461.55 618.55 458.81 618.59 454.63L638.81 454.13C640.5 454.14 641.78 455.6 641.53 457.22L641.02 460.51Z" fill="white"/>
<path d="M596.96 461.22L611.68 462.3C616 462.26 619.47 458.84 619.43 454.66L619.42 454.54L599.16 454.83C597.47 454.84 596.19 456.3 596.44 457.92L596.96 461.22Z" fill="white"/>
<path d="M653.36 403.99V410.4L653.35 410.64C653.35 411.12 653.35 411.6 653.31 412.06C653.31 412.46 653.27 412.84 653.24 413.25C653.24 413.37 653.21 413.49 653.2 413.62C652.79 418.58 651.28 423.27 648.94 427.43C648.82 427.64 648.7 427.85 648.58 428.05C644.76 434.52 638.91 439.69 631.88 442.64C631.87 442.65 631.85 442.65 631.85 442.65C629.13 443.8 626.24 444.61 623.21 445.02C622.1 445.18 620.98 445.29 619.85 445.35C619.4 445.38 618.95 445.38 618.48 445.38C616.84 445.39 615.22 445.3 613.62 445.07C613.17 445.02 612.7 444.96 612.27 444.87C597.4 442.36 585.72 430.57 583.51 415.76C583.28 414.18 583.14 412.55 583.14 410.9L583.11 408.41L583.03 397.31V390.9L583.11 402L583.14 404.49C583.14 406.14 583.29 407.77 583.51 409.35C585.73 424.16 597.4 435.95 612.27 438.46C612.71 438.55 613.17 438.61 613.62 438.66C615.21 438.89 616.83 438.98 618.48 438.97C618.94 438.97 619.4 438.97 619.85 438.94C620.98 438.87 622.09 438.77 623.21 438.61C626.24 438.2 629.13 437.39 631.85 436.24C631.85 436.24 631.86 436.24 631.88 436.23C638.91 433.27 644.76 428.11 648.58 421.64C648.7 421.44 648.82 421.23 648.94 421.02C651.27 416.85 652.79 412.17 653.2 407.21C653.21 407.08 653.24 406.96 653.24 406.84C653.27 406.43 653.31 406.04 653.31 405.65C653.32 405.57 653.32 405.48 653.32 405.4C653.35 405.02 653.35 404.63 653.35 404.23L653.36 403.99Z" fill="#F4A891"/>
<path d="M654.87 394.68C654.86 394.72 654.86 394.75 654.86 394.77C654.78 396.04 654.66 396.88 654.62 397.17C654.61 397.24 654.61 397.28 654.61 397.28C652.65 384.53 621.08 373.21 602.18 374.21C600.06 374.32 598.16 374.81 596.46 375.56C583.03 381.58 582.13 405.25 581.95 404.39C570.67 352.98 615.78 351.98 615.78 351.98C628.17 352.43 636.7 355.96 642.55 360.87C655.1 371.39 655.31 388.27 654.87 394.68Z" fill="#DB734C"/>
<path d="M602.29 403.67V397.81C602.29 397.48 602.56 397.2 602.9 397.2H604.67C605 397.2 605.28 397.47 605.28 397.81V403.67C605.28 404 605.01 404.28 604.67 404.28H602.9C602.56 404.28 602.29 404 602.29 403.67Z" fill="#07113D"/>
<path d="M626.28 393.67C626.28 393.67 631.86 390.68 637.48 393.97" stroke="#DB734C" stroke-width="2.5582" stroke-miterlimit="10" stroke-linecap="round"/>
<g opacity="0.18">
<path opacity="0.18" d="M637.44 410.22C637.42 411.64 634.42 412.75 630.74 412.69C627.06 412.63 624.1 411.43 624.12 410.01C624.14 408.59 627.14 407.48 630.82 407.54C634.5 407.6 637.47 408.8 637.44 410.22Z" fill="#5957D9"/>
</g>
<path d="M629.98 403.67V397.81C629.98 397.48 630.25 397.2 630.59 397.2H632.36C632.69 397.2 632.97 397.47 632.97 397.81V403.67C632.97 404 632.7 404.28 632.36 404.28H630.59C630.25 404.28 629.98 404 629.98 403.67Z" fill="#07113D"/>
<path d="M606.27 418.1L627.72 417.99C627.72 417.99 625.06 425.1 617.44 425.51C609.25 425.95 606.27 418.1 606.27 418.1Z" fill="white"/>
<path d="M681.69 331.4H542.72V519.44H681.69V331.4Z" stroke="#575756" stroke-width="3" stroke-miterlimit="10"/>
<path d="M835.22 362.861C841.113 356.968 841.113 347.413 835.22 341.52C829.327 335.627 819.773 335.628 813.88 341.52C807.987 347.413 807.987 356.968 813.88 362.861C819.773 368.754 829.327 368.754 835.22 362.861Z" fill="#3C3C3B"/>
<path d="M876.64 577.79H780.48V476.57C780.48 465.76 789.25 456.99 800.06 456.99H857.06C867.87 456.99 876.64 465.76 876.64 476.57V577.79V577.79Z" fill="#B1B1B1"/>
<path d="M840.63 435.68H813.21V473.27H840.63V435.68Z" fill="#F4A891"/>
<path d="M867.8 403.72C867.82 407 865.44 409.93 862.27 410.61C861.98 410.67 861.68 410.72 861.36 410.75C861.22 410.78 861.06 410.77 860.89 410.78L858.75 410.8L858.71 406.33L858.7 405.33L858.64 397.21L860.8 397.19C861 397.19 861.18 397.19 861.36 397.21H861.37C861.65 397.22 861.92 397.26 862.18 397.31C862.18 397.31 862.19 397.3 862.19 397.31C863.55 397.53 864.77 398.12 865.71 399.04C866.99 400.26 867.78 401.85 867.8 403.72Z" fill="#F4A891"/>
<path d="M784.8 403.72C784.78 407 787.16 409.93 790.33 410.61C790.62 410.67 790.92 410.72 791.24 410.75C791.38 410.78 791.54 410.77 791.7 410.78L793.84 410.8L793.88 406.33L793.89 405.33L793.95 397.21L791.79 397.19C791.59 397.19 791.41 397.19 791.23 397.21H791.22C790.94 397.22 790.67 397.26 790.41 397.31C790.41 397.31 790.4 397.3 790.4 397.31C789.04 397.53 787.82 398.12 786.88 399.04C785.61 400.26 784.82 401.85 784.8 403.72Z" fill="#F4A891"/>
<path d="M860.97 409.27V410.4L860.96 410.64C860.96 411.12 860.96 411.6 860.92 412.06C860.92 412.46 860.88 412.84 860.85 413.25C860.85 413.37 860.82 413.49 860.81 413.62C860.4 418.58 858.89 423.27 856.55 427.43C856.43 427.64 856.31 427.85 856.19 428.05C852.37 434.52 846.52 439.69 839.49 442.64C839.48 442.65 839.46 442.65 839.46 442.65C836.74 443.8 833.85 444.61 830.82 445.02C829.71 445.18 828.59 445.29 827.46 445.35C827.01 445.38 826.56 445.38 826.09 445.38C824.45 445.39 822.83 445.3 821.23 445.07C820.78 445.02 820.31 444.96 819.88 444.87C805.01 442.36 793.33 430.57 791.12 415.76C790.89 414.18 790.75 412.55 790.75 410.9L790.72 408.41L790.64 397.31L790.6 391.76C790.59 390.91 790.6 390.06 790.64 389.23C790.71 387.61 790.85 386.02 791.1 384.47C791.41 382.64 791.87 380.86 792.55 379.14C793.35 377.1 794.25 375.15 795.32 373.3C796.61 371.07 798.13 369.01 799.99 367.16C806.32 360.79 815.18 356.84 824.87 356.76C832.11 356.69 838.89 358.84 844.57 362.52C845.39 363.06 846.19 363.63 846.97 364.23C850.22 366.74 853.03 369.82 855.21 373.3C855.63 373.95 856.03 374.63 856.4 375.32C856.4 375.32 856.41 375.33 856.41 375.35C857.02 376.48 857.59 377.66 858.05 378.87C858.14 379.08 858.22 379.28 858.3 379.53C858.87 380.98 859.39 382.49 859.79 384.04C860.37 386.24 860.76 388.54 860.79 390.9L860.8 391.24L860.81 392.59L860.82 394.08L860.83 395.96V395.97L860.84 396.08V396.4L860.85 397.29L860.89 405.38V406.28L860.97 409.27Z" fill="#FFC7B0"/>
<path d="M809.67 454.84C809.67 456.12 827.8 550.27 827.8 550.27L844.16 453.98L834.32 454.22L826.7 473.08L817.43 454.64L809.67 454.84Z" fill="#5957D9"/>
<path d="M860.87 396.8C860.86 396.84 860.98 399.79 860.98 399.79C859.02 387.04 828.68 375.87 809.78 376.86C807.66 376.97 805.76 377.46 804.06 378.21C790.63 384.23 790.34 407.96 790.22 407.08C783.59 356.66 823.37 354.63 823.37 354.63C835.76 355.08 844.29 358.61 850.14 363.52C862.7 374.05 861.31 390.39 860.87 396.8Z" fill="#F4A891"/>
<path d="M813.78 389.4C818.972 389.4 823.18 385.388 823.18 380.44C823.18 375.492 818.972 371.48 813.78 371.48C808.589 371.48 804.38 375.492 804.38 380.44C804.38 385.388 808.589 389.4 813.78 389.4Z" fill="#F4A891"/>
<path d="M831.24 389.4C836.431 389.4 840.64 385.388 840.64 380.44C840.64 375.492 836.431 371.48 831.24 371.48C826.049 371.48 821.84 375.492 821.84 380.44C821.84 385.388 826.049 389.4 831.24 389.4Z" fill="#F4A891"/>
<path d="M844.95 390.73C850.141 390.73 854.35 386.718 854.35 381.77C854.35 376.822 850.141 372.81 844.95 372.81C839.759 372.81 835.55 376.822 835.55 381.77C835.55 386.718 839.759 390.73 844.95 390.73Z" fill="#F4A891"/>
<path d="M862.48 394.68C862.47 394.72 862.47 394.75 862.47 394.77C862.39 396.04 862.27 396.88 862.23 397.17C862.22 397.24 860.99 397.13 860.99 397.13C859.03 384.38 828.69 373.21 809.79 374.2C807.67 374.31 805.77 374.8 804.07 375.55C790.64 381.57 790.42 405.28 790.23 404.42C778.95 353.01 823.38 351.97 823.38 351.97C835.77 352.42 844.3 355.95 850.15 360.86C862.7 371.39 862.92 388.27 862.48 394.68Z" fill="#3C3C3B"/>
<path d="M813.78 386.75C818.972 386.75 823.18 382.738 823.18 377.79C823.18 372.842 818.972 368.83 813.78 368.83C808.589 368.83 804.38 372.842 804.38 377.79C804.38 382.738 808.589 386.75 813.78 386.75Z" fill="#3C3C3B"/>
<path d="M831.24 386.75C836.431 386.75 840.64 382.738 840.64 377.79C840.64 372.842 836.431 368.83 831.24 368.83C826.049 368.83 821.84 372.842 821.84 377.79C821.84 382.738 826.049 386.75 831.24 386.75Z" fill="#3C3C3B"/>
<path d="M844.95 388.07C850.141 388.07 854.35 384.058 854.35 379.11C854.35 374.162 850.141 370.15 844.95 370.15C839.759 370.15 835.55 374.162 835.55 379.11C835.55 384.058 839.759 388.07 844.95 388.07Z" fill="#3C3C3B"/>
<path d="M857.15 384.97C857.15 384.05 857.15 401.02 857.15 407.23C857.15 408.46 858.15 409.46 859.38 409.46C860.61 409.46 861.61 408.46 861.61 407.23V386.55C861.62 386.55 857.15 385.42 857.15 384.97Z" fill="#3C3C3B"/>
<path d="M789.56 384.97C789.56 384.07 789.56 400.73 789.56 406.83C789.56 408.04 790.54 409.02 791.75 409.02C792.96 409.02 793.94 408.04 793.94 406.83V386.52C793.95 386.52 789.56 385.41 789.56 384.97Z" fill="#3C3C3B"/>
<path d="M828.26 423.67H820.96C820.23 423.67 819.63 423.07 819.63 422.34C819.63 421.61 820.23 421.01 820.96 421.01H828.26C828.99 421.01 829.59 421.61 829.59 422.34C829.59 423.07 828.99 423.67 828.26 423.67Z" fill="#5957D9"/>
<path d="M828.31 426.04H821.16C820.86 426.04 820.62 425.8 820.62 425.5V423.93C820.62 423.63 820.86 423.39 821.16 423.39H828.31C828.61 423.39 828.85 423.63 828.85 423.93V425.5C828.85 425.8 828.61 426.04 828.31 426.04Z" fill="#5957D9"/>
<path d="M304.68 294.43C305.74 292.03 348.37 222.78 364.1 214.92C379.83 207.06 422.64 210.55 430.51 216.67C438.37 222.79 482.04 285.16 487.3 297.93C493.42 312.78 487.3 332.01 480.31 332.01C473.32 332.01 316.04 332.01 316.04 332.01C316.04 332.01 291.57 324.14 304.68 294.43Z" fill="#5957D9"/>
<path d="M427.44 186.95H372.28C364.98 186.95 359.07 181.03 359.07 173.74V110.51C359.07 101.34 366.51 93.9 375.68 93.9H424.04C433.21 93.9 440.65 101.34 440.65 110.51V173.74C440.66 181.04 434.74 186.95 427.44 186.95Z" fill="#1D1D1B"/>
<path d="M369.89 142.32L369.34 151.84L368.96 158.27L366.09 158.14C365.88 158.13 365.67 158.12 365.47 158.08C360.69 157.57 357.08 153.73 357.32 149.51C357.44 147.32 358.59 145.49 360.35 144.11C361.92 142.88 363.99 142.22 366.25 142.19H366.26C366.52 142.17 366.74 142.17 367.01 142.19L369.89 142.32Z" fill="#F4A891"/>
<path d="M432.46 142.54L433.01 152.06L433.39 158.49L436.26 158.36C436.47 158.35 436.68 158.34 436.88 158.3C441.66 157.79 445.27 153.95 445.03 149.73C444.91 147.54 443.76 145.71 442 144.33C440.43 143.1 438.36 142.44 436.1 142.41H436.09C435.83 142.39 435.61 142.39 435.34 142.41L432.46 142.54Z" fill="#F4A891"/>
<path d="M407.78 218.87H391.01C387.84 218.87 385.25 216.28 385.25 213.11V172.18C385.25 169.01 387.84 166.42 391.01 166.42H407.78C410.95 166.42 413.54 169.01 413.54 172.18V213.11C413.54 216.28 410.95 218.87 407.78 218.87Z" fill="#F4A891"/>
<path d="M436.16 141.4L435.31 157.97L435.19 160.45C435.12 162.08 434.9 163.7 434.6 165.26C432.04 178.43 421.96 188.84 409.11 192.14C407.68 192.51 406.21 192.79 404.71 192.98C404.26 193.05 403.8 193.09 403.35 193.12C402.4 193.22 401.45 193.27 400.49 193.27C399.8 193.27 399.12 193.25 398.42 193.22C396.85 193.13 395.33 192.95 393.82 192.66C393.2 192.55 392.59 192.41 391.97 192.26C389.64 191.71 387.42 190.91 385.31 189.92C385.31 189.92 385.3 189.92 385.29 189.91C375.19 185.13 367.83 175.73 365.83 164.67C365.82 164.63 365.82 164.61 365.82 164.57C365.62 163.37 365.47 162.16 365.38 160.94C365.34 160.55 365.33 160.18 365.32 159.79C365.31 159.39 365.29 159 365.31 158.61C365.29 158.15 365.31 157.67 365.33 157.2V156.95L365.38 155.82L365.54 152.86L365.79 147.8V147.75L366.04 142.64L366.05 142.54V142.53L366.15 140.65L366.22 139.18L366.29 137.83L366.31 137.48C366.45 135.14 366.92 132.87 367.61 130.7C368.07 129.18 368.64 127.69 369.28 126.27C369.37 126.03 369.45 125.83 369.55 125.62C370.07 124.45 370.68 123.29 371.35 122.19C371.35 122.18 371.36 122.16 371.36 122.16C373.87 117.97 377.24 114.34 381.23 111.54C382.03 110.98 382.85 110.44 383.69 109.94C389.51 106.52 396.35 104.69 403.55 105.06C413.19 105.56 421.83 109.89 427.85 116.49C429.62 118.44 431.07 120.56 432.25 122.85C433.23 124.71 434.05 126.67 434.74 128.74C435.19 130.04 435.51 131.37 435.75 132.72C435.75 132.72 435.75 132.73 435.75 132.75C435.82 133.21 435.89 133.66 435.94 134.12C436.04 134.93 436.11 135.75 436.15 136.59C436.26 138.16 436.24 139.77 436.16 141.4Z" fill="#FFC7B0"/>
<path d="M410.02 168.3C406.67 173.22 403.58 176.49 399 175.78C395.16 175.18 392.04 172.3 390.12 168.02L410.02 168.3Z" fill="white"/>
<path d="M390.2 120.44L410.05 126.58C413.18 127.55 416.05 124.5 414.9 121.43L414.77 121.09L417.16 122.36C424.17 126.09 429.84 131.91 433.4 139.01L437.93 148.06C437.93 148.06 448.63 102.19 398.39 101.1C358.29 100.23 363.33 140.42 363.33 140.42C363.33 140.42 372.17 117.82 390.2 120.44Z" fill="#1D1D1B"/>
<path d="M444.92 249.9L441.94 376.05L346.42 376.93L343.92 249.9C343.92 228.61 359.33 210.91 379.61 207.34C382.05 206.92 384.55 206.7 387.12 206.7H401.72C425.58 206.7 444.92 226.05 444.92 249.9Z" fill="#5957D9"/>
<path d="M418.06 377.82H380.03L380.12 204.08H418.79L418.06 377.82Z" fill="white"/>
<path d="M389.87 205.63C390.53 206.61 400.36 220.7 400.36 220.7L412.16 206.28L406.59 201.37L395.78 202.68L389.87 205.63Z" fill="#575756"/>
<path d="M419.22 213.91L401.09 203.26L379.9 213.91V200.8H419.22V213.91Z" fill="white"/>
<path d="M407.23 261.66H393.49L396.42 211.86H405.27L407.23 261.66Z" fill="#575756"/>
<path d="M369.71 117.54L368.51 147.76C368.45 149.19 367.14 150.25 365.73 150C364.62 149.8 363.8 148.84 363.78 147.71L363.32 122.13L369.71 117.54Z" fill="#1D1D1B"/>
<path d="M432.63 119.35L433.83 149.57C433.89 151 435.2 152.06 436.61 151.81C437.72 151.61 438.54 150.65 438.56 149.52L439.02 123.94L432.63 119.35Z" fill="#1D1D1B"/>
<path d="M306 551.36C307.06 548.96 349.69 479.71 365.42 471.85C381.15 463.99 423.27 468.21 431.14 474.33C439 480.45 483.36 542.09 488.62 554.86C494.74 569.71 488.62 588.94 481.63 588.94C474.64 588.94 317.36 588.94 317.36 588.94C317.36 588.94 292.9 581.07 306 551.36Z" fill="#5957D9"/>
<path d="M446.91 507.5L443.93 633.65L348.41 634.53L345.91 507.5C345.91 486.21 361.32 468.51 381.6 464.94C384.04 464.52 386.54 464.3 389.11 464.3H403.71C427.57 464.3 446.91 483.65 446.91 507.5Z" fill="#5957D9"/>
<path d="M427.44 444.22H372.28C364.98 444.22 359.07 438.3 359.07 431.01V367.78C359.07 358.61 366.51 351.17 375.68 351.17H424.04C433.21 351.17 440.65 358.61 440.65 367.78V431.01C440.66 438.31 434.74 444.22 427.44 444.22Z" fill="#1D1D1B"/>
<path d="M369.89 399.59L369.34 409.11L368.96 415.54L366.09 415.41C365.88 415.4 365.67 415.39 365.47 415.35C360.69 414.84 357.08 411 357.32 406.78C357.44 404.59 358.59 402.76 360.35 401.38C361.92 400.15 363.99 399.49 366.25 399.46H366.26C366.52 399.44 366.74 399.44 367.01 399.46L369.89 399.59Z" fill="#F4A891"/>
<path d="M432.46 399.81L433.01 409.33L433.39 415.76L436.26 415.63C436.47 415.62 436.68 415.61 436.88 415.57C441.66 415.06 445.27 411.22 445.03 407C444.91 404.81 443.76 402.98 442 401.6C440.43 400.37 438.36 399.71 436.1 399.68H436.09C435.83 399.66 435.61 399.66 435.34 399.68L432.46 399.81Z" fill="#F4A891"/>
<path d="M407.78 479.97H391.01C387.84 479.97 385.25 477.38 385.25 474.21V429.46C385.25 426.29 387.84 423.7 391.01 423.7H407.78C410.95 423.7 413.54 426.29 413.54 429.46V474.21C413.54 477.37 410.95 479.97 407.78 479.97Z" fill="#F4A891"/>
<path d="M436.11 398.68L435.26 415.23L435.14 417.71C435.07 419.34 434.85 420.96 434.56 422.52C432.01 435.67 421.93 446.07 409.11 449.37C407.68 449.74 406.21 450.02 404.71 450.2C404.26 450.27 403.8 450.31 403.35 450.34C402.4 450.44 401.46 450.49 400.5 450.49C399.81 450.49 399.13 450.47 398.43 450.44C396.86 450.35 395.34 450.17 393.84 449.88C393.22 449.77 392.61 449.63 392 449.48C389.67 448.93 387.46 448.14 385.35 447.14C385.35 447.14 385.34 447.14 385.33 447.13C375.24 442.36 367.9 432.97 365.89 421.93C365.88 421.89 365.88 421.87 365.88 421.83C365.68 420.63 365.53 419.43 365.44 418.21C365.4 417.82 365.39 417.45 365.38 417.06C365.37 416.66 365.36 416.28 365.37 415.88C365.35 415.42 365.37 414.95 365.39 414.47V414.22L365.44 413.09L365.6 410.14L365.85 405.08V405.03L366.1 399.92L366.11 399.82V399.81L366.21 397.93L366.28 396.46L366.35 395.12L366.37 394.77C366.51 392.43 366.98 390.16 367.66 388C368.12 386.48 368.69 385 369.33 383.58C369.42 383.34 369.5 383.14 369.6 382.93C370.12 381.76 370.73 380.6 371.39 379.51C371.39 379.5 371.4 379.48 371.4 379.48C373.9 375.3 377.28 371.67 381.26 368.87C382.06 368.31 382.88 367.77 383.71 367.28C389.52 363.87 396.35 362.04 403.54 362.41C413.16 362.91 421.79 367.23 427.81 373.83C429.58 375.77 431.02 377.89 432.21 380.18C433.19 382.04 434 383.99 434.7 386.06C435.15 387.35 435.47 388.69 435.71 390.03C435.71 390.03 435.71 390.04 435.71 390.05C435.78 390.51 435.85 390.96 435.9 391.42C436 392.23 436.07 393.05 436.11 393.89C436.21 395.44 436.2 397.05 436.11 398.68Z" fill="#FFC7B0"/>
<path d="M371.27 380.13L367.04 408.21C366.84 409.51 365.38 410.18 364.26 409.48C363.76 409.17 363.45 408.64 363.41 408.05L362.14 387.59C362.15 387.6 368.95 370.68 371.27 380.13Z" fill="#1D1D1B"/>
<path d="M429.64 383.78L433.87 411.86C434.07 413.16 435.53 413.83 436.65 413.13C437.15 412.82 437.46 412.29 437.5 411.7L438.77 385.6C438.77 385.61 431.97 374.33 429.64 383.78Z" fill="#1D1D1B"/>
<path d="M366.25 399.46L374.04 389.92C375.87 387.68 377.47 385.25 378.81 382.68L383.6 373.49C383.6 373.49 425.61 376.14 432.69 399.58L438.44 383.66C438.44 383.66 425.62 348.28 392.89 356.68C360.16 365.1 366.25 399.46 366.25 399.46Z" fill="#1D1D1B"/>
<path d="M416.32 354.92C416.32 354.92 446.83 370.84 446.83 372.17C446.83 373.5 437.1 381.46 426.93 376.59C416.76 371.73 416.32 354.92 416.32 354.92Z" fill="#1D1D1B"/>
<path d="M415.44 362.89C415.44 362.89 445.95 378.81 445.95 380.14C445.95 381.47 436.22 389.43 426.05 384.56C415.88 379.69 415.44 362.89 415.44 362.89Z" fill="#1D1D1B"/>
<path d="M385.03 463.05C385.03 463.05 386.03 476.48 398.3 476.65C410.57 476.82 413.72 462.72 413.72 462.72L415.88 466.2C415.88 466.2 415.55 481.15 398.63 480.79C382.88 480.46 382.38 466.69 382.21 464.87L385.03 463.05Z" fill="#FBFCFC"/>
<path d="M408.62 425.61C406.66 427.64 403.62 428.83 400.27 428.66C397.46 428.52 394.96 427.44 393.2 425.79" stroke="#E48867" stroke-width="1.3558" stroke-miterlimit="10"/>
<path d="M665.69 484.97C665.04 485.35 664.39 485.73 663.72 486.11C635.28 502.26 601.94 502.33 574.38 489.13C568.37 486.25 562.64 482.74 557.29 478.63C547.45 471.08 538.92 461.47 532.4 450.01C506.23 403.59 522.23 344.64 568.67 318.48C603.28 298.76 644.94 302.88 674.73 325.62C684.72 333.24 693.38 342.96 700 354.57C725.96 400.15 710.43 458.09 665.69 484.97Z" fill="white"/>
<path d="M665.69 484.97C665.04 485.35 664.39 485.73 663.72 486.11C635.28 502.26 601.94 502.33 574.38 489.13C580.69 482.07 588.56 476.43 597.43 472.73C605.01 469.56 613.33 467.82 622.07 467.82C630.05 467.82 637.71 469.28 644.76 471.96C652.59 474.92 659.67 479.37 665.69 484.97Z" fill="#5957D9"/>
<path d="M650.17 461.05H587.61C575.79 461.05 566.12 451.38 566.12 439.56V372.43C566.12 360.61 575.79 350.94 587.61 350.94H650.17C661.99 350.94 671.66 360.61 671.66 372.43V439.56C671.66 451.38 661.99 461.05 650.17 461.05Z" fill="#6F6F6E"/>
<path d="M640.7 440.06H601.57V501.28H640.7V440.06Z" fill="#F4A891"/>
<path d="M679.48 394.45C679.51 399.13 676.11 403.31 671.59 404.28C671.17 404.37 670.74 404.44 670.29 404.47C670.09 404.52 669.86 404.51 669.63 404.51L666.57 404.54L666.51 398.15L666.5 396.72L666.42 385.13L669.5 385.1C669.79 385.09 670.04 385.11 670.3 385.14H670.32C670.71 385.16 671.1 385.21 671.48 385.28C671.48 385.28 671.5 385.26 671.5 385.28C673.43 385.6 675.19 386.44 676.52 387.75C678.32 389.52 679.45 391.78 679.48 394.45Z" fill="#F4A891"/>
<path d="M561.03 394.45C561 399.13 564.4 403.31 568.92 404.28C569.34 404.37 569.77 404.44 570.22 404.47C570.42 404.52 570.65 404.51 570.88 404.51L573.94 404.54L574 398.15L574.01 396.72L574.09 385.13L571.01 385.1C570.72 385.09 570.47 385.11 570.21 385.14H570.19C569.8 385.16 569.41 385.21 569.03 385.28C569.03 385.28 569.01 385.26 569.01 385.28C567.08 385.6 565.32 386.44 563.99 387.75C562.19 389.52 561.05 391.78 561.03 394.45Z" fill="#F4A891"/>
<path d="M669.72 402.37V403.98L669.7 404.32C669.7 405 669.7 405.68 669.64 406.35C669.64 406.92 669.58 407.47 669.55 408.05C669.55 408.22 669.51 408.39 669.49 408.58C668.9 415.66 666.74 422.34 663.41 428.29C663.24 428.59 663.07 428.9 662.9 429.18C657.45 438.42 649.1 445.78 639.06 450.01C639.04 450.03 639.02 450.03 639.02 450.03C635.14 451.68 631.01 452.83 626.69 453.42C625.1 453.65 623.51 453.8 621.9 453.89C621.26 453.93 620.61 453.93 619.95 453.93C617.6 453.95 615.29 453.82 613.02 453.49C612.38 453.41 611.71 453.34 611.09 453.21C589.87 449.63 573.2 432.8 570.04 411.67C569.72 409.42 569.51 407.09 569.51 404.74L569.47 401.18L569.36 385.33L569.3 377.42C569.28 376.21 569.3 375 569.36 373.8C569.45 371.49 569.66 369.22 570.02 367C570.46 364.39 571.12 361.85 572.08 359.39C573.22 356.47 574.5 353.69 576.04 351.06C577.88 347.88 580.05 344.94 582.7 342.29C591.73 333.2 604.38 327.56 618.2 327.45C628.54 327.36 638.21 330.42 646.32 335.67C647.49 336.45 648.63 337.26 649.75 338.11C654.39 341.69 658.4 346.08 661.51 351.06C662.12 351.99 662.68 352.95 663.21 353.94C663.21 353.94 663.23 353.96 663.23 353.98C664.1 355.59 664.91 357.27 665.58 359C665.71 359.3 665.83 359.59 665.94 359.95C666.75 362.01 667.49 364.17 668.06 366.39C668.89 369.53 669.44 372.81 669.48 376.18L669.5 376.67L669.52 378.6L669.54 380.72L669.56 383.41V383.43L669.58 383.58V384.03L669.6 385.3L669.66 396.85V398.14L669.72 402.37Z" fill="#FFC7B0"/>
<path d="M671.88 381.55C671.86 381.61 671.86 381.64 671.86 381.68C671.71 382.97 671.59 384.14 671.52 385.11C671.5 385.2 671.5 385.26 671.5 385.26C671.35 387.23 669.81 388.8 667.86 389.05C667.82 389.05 667.78 389.05 667.76 389.07C666.13 389.26 664.54 388.48 663.69 387.08L657.93 377.58C650.07 362.57 600.33 361.18 600.33 361.18C596.87 361.33 593.63 360.06 591.24 357.89C590.1 356.87 589.18 355.64 588.49 354.27C587.35 352.07 586.84 349.52 587.2 346.83C588.03 340.68 593.45 336.15 599.66 335.87L654.26 333.31C672.2 348.32 672.5 372.4 671.88 381.55Z" fill="#6F6F6E"/>
<path d="M645.29 468.92L644.78 471.96L636.66 518.08H606.23C602.4 498.06 599.02 481.36 597.45 472.73C596.86 469.51 596.53 467.6 596.53 467.4L645.29 468.92Z" fill="#B1B1B1"/>
<path opacity="0.56" d="M620.35 468.26L621.14 504.29" stroke="white" stroke-width="1.746" stroke-miterlimit="10"/>
<path d="M627.91 491.15C627.95 492.32 627.31 493.28 626.49 493.31C625.67 493.34 624.97 492.41 624.93 491.25C624.89 490.08 625.53 489.12 626.35 489.09C627.18 489.07 627.87 489.99 627.91 491.15Z" fill="white"/>
<path d="M628.32 503.49C628.36 504.66 627.72 505.62 626.9 505.65C626.08 505.68 625.38 504.75 625.34 503.59C625.3 502.42 625.94 501.46 626.76 501.43C627.58 501.4 628.28 502.32 628.32 503.49Z" fill="white"/>
<path d="M628.73 515.82C628.77 516.99 628.13 517.95 627.31 517.98C626.49 518.01 625.79 517.08 625.75 515.92C625.71 514.75 626.35 513.79 627.17 513.76C627.99 513.73 628.69 514.65 628.73 515.82Z" fill="white"/>
<path d="M652.11 475.5L631.11 477.05C624.94 477 620.05 473.09 620.11 467.12L648.97 466.4C651.38 466.42 653.21 468.5 652.85 470.81L652.11 475.5Z" fill="#D9D9D9"/>
<path d="M589.23 476.52L610.23 478.07C616.4 478.02 621.35 473.14 621.29 467.17L619.51 467.03L592.37 467.42C589.96 467.44 588.13 469.52 588.49 471.83L589.23 476.52Z" fill="#D9D9D9"/>
<path d="M669.72 394.84V403.98L669.7 404.32C669.7 405 669.7 405.68 669.64 406.35C669.64 406.92 669.58 407.47 669.55 408.05C669.55 408.22 669.51 408.39 669.49 408.58C668.9 415.66 666.74 422.34 663.41 428.29C663.24 428.59 663.07 428.9 662.9 429.18C657.45 438.42 649.1 445.78 639.06 450.01C639.04 450.03 639.02 450.03 639.02 450.03C635.14 451.68 631.01 452.83 626.69 453.42C625.1 453.65 623.51 453.8 621.9 453.89C621.26 453.93 620.61 453.93 619.95 453.93C617.6 453.95 615.29 453.82 613.02 453.49C612.38 453.41 611.71 453.34 611.09 453.21C589.87 449.63 573.2 432.8 570.04 411.67C569.72 409.42 569.51 407.09 569.51 404.74L569.47 401.18L569.36 385.33V376.19L569.47 392.04L569.51 395.6C569.51 397.95 569.72 400.28 570.04 402.53C573.2 423.66 589.86 440.49 611.09 444.07C611.71 444.2 612.38 444.28 613.02 444.35C615.29 444.67 617.6 444.8 619.95 444.79C620.61 444.79 621.26 444.79 621.9 444.75C623.51 444.66 625.1 444.5 626.69 444.28C631.01 443.69 635.13 442.54 639.02 440.89C639.02 440.89 639.04 440.89 639.06 440.87C649.09 436.65 657.44 429.28 662.9 420.04C663.07 419.76 663.24 419.45 663.41 419.15C666.74 413.2 668.9 406.52 669.49 399.44C669.51 399.25 669.55 399.08 669.55 398.91C669.59 398.32 669.64 397.77 669.64 397.21C669.66 397.1 669.66 396.96 669.66 396.85C669.7 396.3 669.7 395.75 669.7 395.18L669.72 394.84Z" fill="#F4A891"/>
<path d="M671.88 381.55C671.86 381.61 671.86 381.64 671.86 381.68C671.75 383.5 671.58 384.69 671.52 385.11C671.5 385.2 671.5 385.26 671.5 385.26C668.7 367.06 623.65 350.91 596.67 352.33C593.64 352.48 590.93 353.18 588.51 354.26C569.35 362.86 568.06 396.63 567.8 395.4C551.71 322.03 616.08 320.61 616.08 320.61C633.76 321.25 645.94 326.29 654.29 333.3C672.2 348.32 672.5 372.4 671.88 381.55Z" fill="#6F6F6E"/>
<path d="M602.51 414.97L633.12 414.81C633.12 414.81 629.32 424.95 618.45 425.54C606.77 426.17 602.51 414.97 602.51 414.97Z" fill="white"/>
<path d="M734.55 595.19C759.9 584.48 787.89 576.71 814.89 582C832.23 585.4 907.11 601.09 907.11 601.09C907.11 601.09 904.77 670.26 906.31 673.72C914.28 691.61 753.78 704.57 753.78 704.57C753.78 704.57 719.86 601.39 734.55 595.19Z" fill="#FFC7B0"/>
<path d="M809.73 698.45C809.73 698.45 783.33 608.88 780.82 608.35C778.32 607.82 724.85 590.38 724.85 590.38C724.85 590.38 780.98 700.17 782.86 700.23C784.75 700.29 809.73 698.45 809.73 698.45Z" fill="#F4A891"/>
<path d="M775.28 725.41L649.78 494.19L660.46 488.39L680 477.79L805.51 709C808.89 715.24 808.03 722.66 803.87 727.89C802.47 729.65 800.7 731.18 798.6 732.33C790.25 736.85 779.82 733.76 775.28 725.41Z" fill="#575756"/>
<path d="M673.48 548.88L709.7 529.22C712.52 527.69 713.57 524.13 712.04 521.31L703.94 506.39C702.41 503.57 698.85 502.52 696.03 504.05L659.81 523.71C656.99 525.24 655.94 528.8 657.47 531.62L665.57 546.54C667.1 549.36 670.66 550.41 673.48 548.88Z" fill="#575756"/>
<path d="M717.68 343.94C709.72 329.89 699.27 318.13 687.2 308.9C651.1 281.27 600.46 276.21 558.32 300.16C502.26 331.91 482.58 403.29 514.53 459.51C522.47 473.48 532.84 485.2 544.81 494.41C581.01 522.33 631.82 527.47 674.08 503.46C730.12 471.36 749.79 399.99 717.68 343.94ZM663.73 485.63C629.09 505.3 587.16 501.12 557.29 478.15C547.45 470.6 538.92 460.99 532.4 449.53C506.23 403.11 522.23 344.16 568.67 318C603.28 298.28 644.94 302.4 674.73 325.14C684.72 332.76 693.38 342.48 700 354.09C726.34 400.34 709.97 459.29 663.73 485.63Z" fill="#575756"/>
<path d="M666.45 621.55V621.69C666.41 622.93 666.52 624.2 666.81 625.46C668.62 633.45 676.65 638.48 684.62 636.66L719.86 628.61C726.57 627.07 731.2 621.15 731.41 614.56C731.45 613.32 731.34 612.05 731.05 610.79C731.05 610.76 731.04 610.74 731.04 610.71C729.16 602.78 721.19 597.77 713.23 599.6L678.01 607.64C671.33 609.16 666.72 615.01 666.45 621.55Z" fill="#F4A891"/>
<path d="M666.45 621.55C668.34 629.45 676.32 634.43 684.25 632.62L719.47 624.57C726.13 623.06 730.73 617.23 731.03 610.72C729.15 602.79 721.18 597.78 713.22 599.61L678 607.65C671.33 609.16 666.72 615.01 666.45 621.55Z" fill="#FFC7B0"/>
<path d="M692.82 646.32V646.38C692.78 647.62 692.89 648.89 693.18 650.17C695.02 658.2 703.1 663.28 711.14 661.45L750.48 652.46C757.24 650.91 761.91 644.96 762.13 638.31C762.17 637.06 762.04 635.79 761.75 634.51C761.68 634.22 761.62 633.93 761.52 633.66C759.35 626.13 751.55 621.47 743.79 623.23L704.46 632.22C697.71 633.76 693.06 639.7 692.82 646.32Z" fill="#F4A891"/>
<path d="M692.82 646.32C695.03 653.84 702.8 658.48 710.53 656.71L749.87 647.73C756.59 646.18 761.27 640.26 761.51 633.65C759.34 626.12 751.54 621.46 743.78 623.22L704.45 632.21C697.71 633.76 693.06 639.7 692.82 646.32Z" fill="#FFC7B0"/>
<path d="M714.21 670.66C714.18 671.52 714.23 672.41 714.38 673.29C714.43 673.55 714.48 673.79 714.54 674.05C716.18 681.26 723.43 685.81 730.63 684.17L764.19 676.5C770.26 675.11 774.43 669.76 774.63 663.8C774.67 662.68 774.57 661.55 774.3 660.41C774.11 659.59 773.85 658.81 773.53 658.07C771.03 652.25 764.6 648.83 758.21 650.3L724.65 657.95C718.59 659.35 714.4 664.71 714.21 670.66Z" fill="#F4A891"/>
<path d="M714.21 670.66C714.18 671.52 714.23 672.41 714.38 673.29C716.88 679.14 723.31 682.58 729.71 681.12L763.27 673.45C769.34 672.06 773.51 666.71 773.71 660.77C773.74 659.89 773.68 658.99 773.52 658.08C771.02 652.26 764.59 648.84 758.2 650.31L724.64 657.96C718.59 659.35 714.4 664.71 714.21 670.66Z" fill="#FFC7B0"/>
<path d="M732.51 694.29L732.76 695.96C732.8 696.22 732.83 696.46 732.9 696.7C734.13 702.67 739.89 706.77 746 705.9L779.38 701.13C785.75 700.22 790.23 694.26 789.32 687.87L789.07 686.2C788.85 684.64 788.32 683.19 787.53 681.89C785.19 677.95 780.63 675.58 775.82 676.27L742.44 681.04C736.08 681.96 731.6 687.92 732.51 694.29Z" fill="#F4A891"/>
<path d="M732.51 694.29L732.76 695.96C732.8 696.22 732.83 696.46 732.9 696.7C735.22 700.64 739.8 703.01 744.61 702.32L777.99 697.55C784.36 696.65 788.84 690.68 787.93 684.31L787.68 682.64C787.64 682.38 787.61 682.14 787.54 681.9C785.2 677.96 780.64 675.59 775.83 676.28L742.45 681.05C736.08 681.96 731.6 687.92 732.51 694.29Z" fill="#FFC7B0"/>
<path d="M841.25 623.45L759.5 601.01L723.49 588.86C711.5 585.57 705.14 577.94 704.28 565.51C704.26 565.15 704.24 564.81 704.25 564.45C704.3 562.95 704.67 561.55 705.32 560.3C706.61 557.76 709.41 557.21 712.51 557.5C714.33 557.65 716.25 558.1 718.03 558.6L730.43 562.86L751.3 570.02L819.31 582.91L841.25 623.45Z" fill="#FFC7B0"/>
<g opacity="0.63">
<path opacity="0.63" d="M708.3 605.87L714.19 604.27C714.89 604.08 715.6 603.98 716.32 603.98C720.09 603.98 723.33 606.55 724.2 610.23C725.22 614.55 722.54 618.92 718.22 619.96L711.9 621.49L708.3 605.87Z" fill="#FFE0D2"/>
</g>
<g opacity="0.63">
<path opacity="0.63" d="M739.75 630.03L745.5 628.48C746.18 628.3 746.88 628.2 747.58 628.2C751.27 628.2 754.44 630.69 755.28 634.25C756.27 638.43 753.66 642.66 749.44 643.67L743.26 645.15L739.75 630.03Z" fill="#FFE0D2"/>
</g>
<g opacity="0.63">
<path opacity="0.63" d="M754.97 656.7L760.41 655.3C761.06 655.13 761.72 655.05 762.39 655.05C765.92 655.05 768.94 657.32 769.76 660.58C770.2 662.36 769.92 664.21 768.95 665.79C767.91 667.48 766.24 668.66 764.23 669.12L758.34 670.47L754.97 656.7Z" fill="#FFE0D2"/>
</g>
<g opacity="0.63">
<path opacity="0.63" d="M770.62 681.96L775.83 681.01C776.26 680.93 776.69 680.89 777.12 680.89C780.6 680.89 783.61 683.46 784.13 686.86C784.71 690.65 782.06 694.21 778.24 694.79L772.65 695.65L770.62 681.96Z" fill="#FFE0D2"/>
</g>
<path d="M730.43 562.86C730.43 562.98 730.41 563.08 730.37 563.18L727.73 570.23C727.57 570.66 727.15 570.95 726.68 570.95C726.57 570.95 726.46 570.93 726.36 570.9C722.94 569.87 714.76 566.98 712.5 562.33C711.79 560.85 711.74 559.35 712.37 557.74C712.4 557.65 712.45 557.57 712.51 557.51C713.03 556.51 715.97 557.73 718.03 558.61L730.43 562.86Z" fill="#FFD7C5"/>
<path d="M703.09 565.33C703.08 565.42 703.1 565.52 703.11 565.61C703.99 577.83 709.67 585.18 725.76 591.74L780.74 614.54C780.98 614.5 793.21 607.52 793.22 607.45C793.26 606.18 724.09 586.34 713.22 578.83C698.54 568.68 707.17 556.74 706.86 558.53C703.99 559.33 703.35 563.3 703.09 565.33Z" fill="#F4A891"/>
<path d="M801.61 626.72L781.47 609.65L801.37 701.96L910.64 686.3L906.92 597.34H892.26L887.8 640.31C887.81 640.31 846.06 663.15 801.61 626.72Z" fill="#F4A891"/>
<path d="M893.998 695.491L925.682 696.508L928.977 593.92L897.293 592.902L893.998 695.491Z" fill="#C6C6C5"/>
<path d="M919.19 703.05L1053.51 707.92V597.79L922.73 592.92L919.19 703.05Z" fill="#5957D9"/>
<path d="M439.17 472.54H350.94C349.89 472.54 349.06 473.45 349.17 474.49L353.48 518.87C353.57 519.78 354.34 520.48 355.25 520.48H434.86C435.78 520.48 436.54 519.78 436.63 518.87L440.94 474.49C441.04 473.45 440.22 472.54 439.17 472.54Z" fill="white" stroke="#6F6F6E" stroke-miterlimit="10"/>
<path d="M398.19 494.67C397.4 493.35 397.68 491.93 398.47 490.8C397.47 490.2 396.31 489.84 395.06 489.84C391.37 489.84 388.38 492.83 388.38 496.52C388.38 500.21 391.37 503.2 395.06 503.2C398.63 503.2 401.53 500.38 401.7 496.85C400.28 496.58 398.94 495.92 398.19 494.67Z" fill="white" stroke="#6F6F6E" stroke-miterlimit="10"/>
<path d="M464.54 331.55H325.57V519.59H464.54V331.55Z" stroke="#575756" stroke-width="3" stroke-miterlimit="10"/>
<path d="M871.49 470.77H783.26C782.21 470.77 781.38 471.68 781.49 472.72L785.8 517.1C785.89 518.01 786.66 518.71 787.57 518.71H867.18C868.1 518.71 868.86 518.01 868.95 517.1L873.26 472.72C873.36 471.68 872.54 470.77 871.49 470.77Z" fill="#6F6F6E"/>
<path d="M830.51 492.9C829.72 491.58 830 490.16 830.79 489.03C829.79 488.43 828.63 488.07 827.38 488.07C823.69 488.07 820.7 491.06 820.7 494.75C820.7 498.44 823.69 501.43 827.38 501.43C830.95 501.43 833.85 498.61 834.02 495.08C832.6 494.81 831.25 494.15 830.51 492.9Z" fill="white"/>
<path d="M659.17 213.41H570.94C569.89 213.41 569.06 214.32 569.17 215.36L573.48 259.74C573.57 260.65 574.34 261.35 575.25 261.35H654.86C655.78 261.35 656.54 260.65 656.63 259.74L660.94 215.36C661.04 214.31 660.22 213.41 659.17 213.41Z" fill="#6F6F6E"/>
<path d="M870.33 214.23H782.1C781.05 214.23 780.22 215.14 780.33 216.18L784.64 260.56C784.73 261.47 785.5 262.17 786.41 262.17H866.02C866.94 262.17 867.7 261.47 867.79 260.56L872.1 216.18C872.21 215.14 871.38 214.23 870.33 214.23Z" fill="#D9D9D9"/>
<path d="M831.9 241.6C831.11 240.28 831.39 238.86 832.18 237.73C831.18 237.13 830.02 236.77 828.77 236.77C825.08 236.77 822.09 239.76 822.09 243.45C822.09 247.14 825.08 250.13 828.77 250.13C832.34 250.13 835.24 247.31 835.41 243.78C833.99 243.51 832.64 242.85 831.9 241.6Z" fill="white"/>
<path d="M619.36 240.8C618.57 239.48 618.85 238.06 619.64 236.93C618.64 236.33 617.48 235.97 616.23 235.97C612.54 235.97 609.55 238.96 609.55 242.65C609.55 246.34 612.54 249.33 616.23 249.33C619.8 249.33 622.7 246.51 622.87 242.98C621.44 242.71 620.1 242.05 619.36 240.8Z" fill="white"/>
<path d="M440.61 212.52H352.38C351.33 212.52 350.5 213.43 350.61 214.47L354.92 258.85C355.01 259.76 355.78 260.46 356.69 260.46H436.3C437.22 260.46 437.98 259.76 438.07 258.85L442.38 214.47C442.48 213.43 441.66 212.52 440.61 212.52Z" fill="#C6C6C5"/>
<path d="M402.19 239.52C401.4 238.2 401.68 236.78 402.47 235.65C401.47 235.05 400.31 234.69 399.06 234.69C395.37 234.69 392.38 237.68 392.38 241.37C392.38 245.06 395.37 248.05 399.06 248.05C402.63 248.05 405.53 245.23 405.7 241.7C404.28 241.43 402.94 240.77 402.19 239.52Z" fill="white"/>
<path d="M464.54 74.13H325.57V262.17H464.54V74.13Z" stroke="#575756" stroke-width="3" stroke-miterlimit="10"/>
<path d="M684.54 74.13H545.57V262.17H684.54V74.13Z" stroke="#575756" stroke-width="3" stroke-miterlimit="10"/>
<path d="M893.75 75.95H754.78V263.99H893.75V75.95Z" stroke="#575756" stroke-width="3" stroke-miterlimit="10"/>
<path d="M895.7 331.4H756.73V519.44H895.7V331.4Z" stroke="#575756" stroke-width="3" stroke-miterlimit="10"/>
</svg>
