<svg width="435" height="415" viewBox="0 0 435 415" fill="none" xmlns="http://www.w3.org/2000/svg">
<path d="M334.4 281.9C333.9 283.7 333.3 285.6 332.6 287.4C326.8 301.4 313.3 310.8 299.5 316.9C278.5 326.2 255.4 329.7 232.5 330.8C201.1 332.4 168.6 329.5 140.6 315.4C127.3 308.7 112.1 297.4 109 281.9C106.7 270.6 110.5 257.2 117.7 248.4C125 239.4 137.1 234.1 148.6 235.9C160.1 237.6 170.2 247.1 171.9 258.6C172.6 263.3 172.2 268.8 175.6 271.9C178.3 274.3 182.5 274.4 185.8 273C189.1 271.6 191.7 268.8 194.1 266C201.7 256.8 207.5 246 215.7 237.5C231.7 221 255.8 214.5 278.8 213.9C296.7 213.5 316.7 217.4 327.2 231.9C332.7 239.4 334.8 248.7 335.9 257.9C336.4 265.9 336.5 274.2 334.4 281.9Z" fill="#E2E2E2"/>
<path d="M142.3 232.9H293.3C294.4 232.9 295.3 233.8 295.3 234.9V331.3C295.3 333.6 293.4 335.6 291 335.6H144.3C142 335.6 140 333.7 140 331.3V235.2C140 233.9 141 232.9 142.3 232.9Z" fill="#455A64"/>
<path d="M133.5 328H301.8V333C301.8 335.3 300 337.1 297.7 337.1H137.6C135.3 337.1 133.5 335.3 133.5 333V328Z" fill="#455A64"/>
<path d="M290.7 237H144.2V323.7H290.7V237Z" fill="#E0E0E0"/>
<path d="M202.3 328L204.4 331.3H233.8L235.7 328H202.3Z" fill="#263238"/>
<path d="M286.7 242H148.5V323.7H286.7V242Z" fill="#263238"/>
<path d="M161.4 321.3C161.3 321.3 161.2 303.9 161.2 282.5C161.2 261 161.3 243.7 161.4 243.7C161.5 243.7 161.6 261.1 161.6 282.5C161.6 303.9 161.5 321.3 161.4 321.3Z" fill="#E0E0E0"/>
<path d="M156.3 250.6C156.3 250.7 155.3 250.8 154 250.8C152.8 250.8 151.7 250.7 151.7 250.6C151.7 250.5 152.7 250.4 154 250.4C155.2 250.4 156.3 250.5 156.3 250.6Z" fill="#E0E0E0"/>
<path d="M156.5 246.2C156.5 246.3 155.5 246.4 154.2 246.4C152.9 246.4 151.9 246.3 151.9 246.2C151.9 246.1 152.9 246 154.2 246C155.5 246 156.5 246.1 156.5 246.2Z" fill="#E0E0E0"/>
<path d="M156.3 255.3C156.3 255.4 155.3 255.5 154 255.5C152.8 255.5 151.7 255.4 151.7 255.3C151.7 255.2 152.7 255.1 154 255.1C155.2 255.1 156.3 255.3 156.3 255.3Z" fill="#E0E0E0"/>
<path d="M156.3 260.1C156.3 260.2 155.3 260.3 154 260.3C152.8 260.3 151.7 260.2 151.7 260.1C151.7 260 152.7 259.9 154 259.9C155.2 259.9 156.3 260.1 156.3 260.1Z" fill="#E0E0E0"/>
<path d="M156.3 264.9C156.3 265 155.3 265.1 154 265.1C152.8 265.1 151.7 265 151.7 264.9C151.7 264.8 152.7 264.7 154 264.7C155.2 264.7 156.3 264.8 156.3 264.9Z" fill="#E0E0E0"/>
<path d="M156.3 269.6C156.3 269.7 155.3 269.8 154 269.8C152.8 269.8 151.7 269.7 151.7 269.6C151.7 269.5 152.7 269.4 154 269.4C155.2 269.4 156.3 269.6 156.3 269.6Z" fill="#E0E0E0"/>
<path d="M156.3 274.3C156.3 274.4 155.3 274.5 154 274.5C152.8 274.5 151.7 274.4 151.7 274.3C151.7 274.2 152.7 274.1 154 274.1C155.2 274.2 156.3 274.3 156.3 274.3Z" fill="#E0E0E0"/>
<path d="M156.3 279.1C156.3 279.2 155.3 279.3 154 279.3C152.8 279.3 151.7 279.2 151.7 279.1C151.7 279 152.7 278.9 154 278.9C155.2 278.9 156.3 279 156.3 279.1Z" fill="#E0E0E0"/>
<path d="M156.3 283.9C156.3 284 155.3 284.1 154 284.1C152.8 284.1 151.7 284 151.7 283.9C151.7 283.8 152.7 283.7 154 283.7C155.2 283.7 156.3 283.8 156.3 283.9Z" fill="#E0E0E0"/>
<path d="M156.3 288.6C156.3 288.7 155.3 288.8 154 288.8C152.8 288.8 151.7 288.7 151.7 288.6C151.7 288.5 152.7 288.4 154 288.4C155.2 288.4 156.3 288.6 156.3 288.6Z" fill="#E0E0E0"/>
<path d="M156.3 293.4C156.3 293.5 155.3 293.6 154 293.6C152.8 293.6 151.7 293.5 151.7 293.4C151.7 293.3 152.7 293.2 154 293.2C155.2 293.2 156.3 293.4 156.3 293.4Z" fill="#E0E0E0"/>
<path d="M156.3 298.1C156.3 298.2 155.3 298.3 154 298.3C152.8 298.3 151.7 298.2 151.7 298.1C151.7 298 152.7 297.9 154 297.9C155.2 298 156.3 298.1 156.3 298.1Z" fill="#E0E0E0"/>
<path d="M156.3 302.9C156.3 303 155.3 303.1 154 303.1C152.8 303.1 151.7 303 151.7 302.9C151.7 302.8 152.7 302.7 154 302.7C155.2 302.7 156.3 302.8 156.3 302.9Z" fill="#E0E0E0"/>
<path d="M156.3 307.6C156.3 307.7 155.3 307.8 154 307.8C152.8 307.8 151.7 307.7 151.7 307.6C151.7 307.5 152.7 307.4 154 307.4C155.2 307.4 156.3 307.6 156.3 307.6Z" fill="#E0E0E0"/>
<path d="M156.3 312.4C156.3 312.5 155.3 312.6 154 312.6C152.8 312.6 151.7 312.5 151.7 312.4C151.7 312.3 152.7 312.2 154 312.2C155.2 312.2 156.3 312.3 156.3 312.4Z" fill="#E0E0E0"/>
<path d="M156.3 317.1C156.3 317.2 155.3 317.3 154 317.3C152.8 317.3 151.7 317.2 151.7 317.1C151.7 317 152.7 316.9 154 316.9C155.2 316.9 156.3 317.1 156.3 317.1Z" fill="#E0E0E0"/>
<path d="M174.4 250.3C174.4 250.4 171.8 250.5 168.6 250.5C165.4 250.5 162.8 250.4 162.8 250.3C162.8 250.2 165.4 250.1 168.6 250.1C171.8 250.1 174.4 250.3 174.4 250.3Z" fill="#EA284E"/>
<path d="M174.4 317.1C174.4 317.2 171.8 317.3 168.6 317.3C165.4 317.3 162.8 317.2 162.8 317.1C162.8 317 165.4 316.9 168.6 316.9C171.8 316.9 174.4 317.1 174.4 317.1Z" fill="#EA284E"/>
<path d="M190.5 260.1C190.5 260.2 185.6 260.3 179.6 260.3C173.6 260.3 168.7 260.2 168.7 260.1C168.7 260 173.6 259.9 179.6 259.9C185.6 260 190.5 260.1 190.5 260.1Z" fill="#EA284E"/>
<path d="M215.7 260.1C215.7 260.2 210.8 260.3 204.8 260.3C198.8 260.3 193.9 260.2 193.9 260.1C193.9 260 198.8 259.9 204.8 259.9C210.9 260 215.7 260.1 215.7 260.1Z" fill="#E0E0E0"/>
<path d="M206.1 264.9C206.1 265 198.9 265.1 190 265.1C181.1 265.1 173.9 265 173.9 264.9C173.9 264.8 181.1 264.7 190 264.7C198.9 264.7 206.1 264.8 206.1 264.9Z" fill="#E0E0E0"/>
<path d="M206.1 269.6C206.1 269.7 198.9 269.8 190 269.8C181.1 269.8 173.9 269.7 173.9 269.6C173.9 269.5 181.1 269.4 190 269.4C198.9 269.4 206.1 269.6 206.1 269.6Z" fill="#E0E0E0"/>
<path d="M228.2 283.9C228.2 284 221 284.1 212.1 284.1C203.2 284.1 196 284 196 283.9C196 283.8 203.2 283.7 212.1 283.7C221 283.7 228.2 283.8 228.2 283.9Z" fill="#E0E0E0"/>
<path d="M218.7 274.3C218.7 274.4 211.5 274.5 202.6 274.5C193.7 274.5 186.5 274.4 186.5 274.3C186.5 274.2 193.7 274.1 202.6 274.1C211.5 274.2 218.7 274.3 218.7 274.3Z" fill="#E0E0E0"/>
<path d="M258 274.3C258 274.4 250.8 274.5 241.9 274.5C233 274.5 225.8 274.4 225.8 274.3C225.8 274.2 233 274.1 241.9 274.1C250.8 274.1 258 274.3 258 274.3Z" fill="#E0E0E0"/>
<path d="M244.3 264.9C244.3 265 237.1 265.1 228.2 265.1C219.3 265.1 212.1 265 212.1 264.9C212.1 264.8 219.3 264.7 228.2 264.7C237.1 264.7 244.3 264.8 244.3 264.9Z" fill="#FAFAFA"/>
<path d="M266.5 283.9C266.5 284 259.3 284.1 250.4 284.1C241.5 284.1 234.3 284 234.3 283.9C234.3 283.8 241.5 283.7 250.4 283.7C259.3 283.7 266.5 283.8 266.5 283.9Z" fill="#FAFAFA"/>
<path d="M262 269.6C262 269.7 250.9 269.8 237.1 269.8C223.3 269.8 212.2 269.7 212.2 269.6C212.2 269.5 223.3 269.4 237.1 269.4C250.9 269.4 262 269.6 262 269.6Z" fill="#455A64"/>
<path d="M174.4 255.3C174.4 255.4 171.8 255.5 168.6 255.5C165.4 255.5 162.8 255.4 162.8 255.3C162.8 255.2 165.4 255.1 168.6 255.1C171.8 255.1 174.4 255.3 174.4 255.3Z" fill="#FAFAFA"/>
<path d="M174.4 312.4C174.4 312.5 171.8 312.6 168.6 312.6C165.4 312.6 162.8 312.5 162.8 312.4C162.8 312.3 165.4 312.2 168.6 312.2C171.8 312.2 174.4 312.3 174.4 312.4Z" fill="#FAFAFA"/>
<path d="M180.1 274.3C180.1 274.4 177.5 274.5 174.3 274.5C171.1 274.5 168.5 274.4 168.5 274.3C168.5 274.2 171.1 274.1 174.3 274.1C177.5 274.2 180.1 274.3 180.1 274.3Z" fill="#FAFAFA"/>
<path d="M273.4 274.3C273.4 274.4 270.8 274.5 267.6 274.5C264.4 274.5 261.8 274.4 261.8 274.3C261.8 274.2 264.4 274.1 267.6 274.1C270.8 274.2 273.4 274.3 273.4 274.3Z" fill="#EA284E"/>
<path d="M190.5 293.4C190.5 293.5 185.6 293.6 179.6 293.6C173.6 293.6 168.7 293.5 168.7 293.4C168.7 293.3 173.6 293.2 179.6 293.2C185.6 293.2 190.5 293.3 190.5 293.4Z" fill="#EA284E"/>
<path d="M215.7 293.4C215.7 293.5 210.8 293.6 204.8 293.6C198.8 293.6 193.9 293.5 193.9 293.4C193.9 293.3 198.8 293.2 204.8 293.2C210.8 293.2 215.7 293.3 215.7 293.4Z" fill="#E0E0E0"/>
<path d="M206.1 298.1C206.1 298.2 198.9 298.3 190 298.3C181.1 298.3 173.9 298.2 173.9 298.1C173.9 298 181.1 297.9 190 297.9C198.9 298 206.1 298.1 206.1 298.1Z" fill="#E0E0E0"/>
<path d="M206.1 302.8C206.1 302.9 198.9 303 190 303C181.1 303 173.9 302.9 173.9 302.8C173.9 302.7 181.1 302.6 190 302.6C198.9 302.7 206.1 302.7 206.1 302.8Z" fill="#E0E0E0"/>
<path d="M218.7 307.6C218.7 307.7 211.5 307.8 202.6 307.8C193.7 307.8 186.5 307.7 186.5 307.6C186.5 307.5 193.7 307.4 202.6 307.4C211.5 307.4 218.7 307.5 218.7 307.6Z" fill="#E0E0E0"/>
<path d="M258 307.6C258 307.7 250.8 307.8 241.9 307.8C233 307.8 225.8 307.7 225.8 307.6C225.8 307.5 233 307.4 241.9 307.4C250.8 307.4 258 307.5 258 307.6Z" fill="#E0E0E0"/>
<path d="M244.3 298.1C244.3 298.2 237.1 298.3 228.2 298.3C219.3 298.3 212.1 298.2 212.1 298.1C212.1 298 219.3 297.9 228.2 297.9C237.1 298 244.3 298.1 244.3 298.1Z" fill="#FAFAFA"/>
<path d="M262 302.8C262 302.9 250.9 303 237.1 303C223.3 303 212.2 302.9 212.2 302.8C212.2 302.7 223.3 302.6 237.1 302.6C250.9 302.7 262 302.7 262 302.8Z" fill="#455A64"/>
<path d="M180.1 307.6C180.1 307.7 177.5 307.8 174.3 307.8C171.1 307.8 168.5 307.7 168.5 307.6C168.5 307.5 171.1 307.4 174.3 307.4C177.5 307.4 180.1 307.5 180.1 307.6Z" fill="#FAFAFA"/>
<path d="M273.4 307.6C273.4 307.7 270.8 307.8 267.6 307.8C264.4 307.8 261.8 307.7 261.8 307.6C261.8 307.5 264.4 307.4 267.6 307.4C270.8 307.4 273.4 307.5 273.4 307.6Z" fill="#EA284E"/>
<path d="M276.6 331C276.6 331.1 246.9 331.1 210.1 331.1C173.3 331.1 143.6 331 143.6 331C143.6 330.9 173.3 330.9 210.1 330.9C246.9 330.9 276.6 330.9 276.6 331Z" fill="#263238"/>
<path d="M302.8 337.1C302.8 337.2 264.6 337.2 217.6 337.2C170.6 337.2 132.4 337.1 132.4 337.1C132.4 337 170.6 337 217.6 337C264.6 336.9 302.8 337 302.8 337.1Z" fill="#263238"/>
<path d="M56.1 62.5C55.1 62.5 54.2 62.2 53.2 61.7L39.6 53.7C38 52.7 37 50.7 37 49V33.3C37 31.5 38 29.6 39.6 28.6L53.2 20.6C54 20.1 54.9 19.8 55.9 19.8C56.9 19.8 57.8 20.1 58.8 20.6L72.4 28.6C74 29.6 75 31.6 75 33.3V49C75 50.8 74 52.7 72.4 53.7L58.8 61.7C58 62.1 57 62.5 56.1 62.5Z" fill="#F2F2F2"/>
<path d="M55.9 20.2C56.8 20.2 57.6 20.5 58.5 20.9L72.1 28.9C73.6 29.9 74.5 31.6 74.5 33.2V49C74.5 50.7 73.5 52.4 72.1 53.3L58.5 61.3C57.8 61.8 56.9 62 56.1 62C55.3 62 54.4 61.7 53.5 61.3L39.9 53.3C38.4 52.3 37.5 50.6 37.5 49V33.3C37.5 31.6 38.5 29.9 39.9 29L53.5 21C54.2 20.5 55 20.2 55.9 20.2ZM55.9 19.3C54.9 19.3 53.8 19.6 53 20.2L39.5 28.2C37.8 29.3 36.7 31.3 36.7 33.2V49C36.7 50.9 37.8 52.9 39.5 54L53.1 62C54.1 62.5 55.1 62.9 56.1 62.9C57.1 62.9 58.2 62.6 59 62L72.5 54C74.2 52.9 75.3 50.9 75.3 49V33.3C75.3 31.4 74.2 29.4 72.5 28.3L58.9 20.3C58 19.6 56.9 19.3 55.9 19.3Z" fill="#D9D9D9"/>
<path d="M148.5 64.6C147.5 64.6 146.7 64.3 145.9 63.9L132.3 56.1C130.6 55.2 129.6 53.4 129.6 51.4V35.8C129.6 34 130.6 32.1 132.3 31.1L145.9 23.3C146.8 22.9 147.7 22.6 148.6 22.6C149.6 22.6 150.4 22.9 151.2 23.3L164.8 31.1C166.5 32 167.5 33.8 167.5 35.8V51.4C167.5 53.2 166.5 55.1 164.8 56.1L151.2 63.9C150.4 64.4 149.4 64.6 148.5 64.6Z" fill="#F2F2F2"/>
<path d="M148.5 22.9C149.4 22.9 150.2 23.1 150.9 23.6L164.5 31.4C166.1 32.3 166.9 34 166.9 35.7V51.3C166.9 53 165.9 54.8 164.5 55.6L151 63.6C150.2 64 149.3 64.3 148.5 64.3C147.7 64.3 146.8 64.1 146.1 63.6L132.5 55.8C130.9 54.9 130.1 53.2 130.1 51.5V35.8C130.1 34.1 131.1 32.3 132.5 31.5L146.1 23.7C146.9 23.1 147.8 22.9 148.5 22.9ZM148.5 22C147.5 22 146.5 22.3 145.5 22.8L131.9 30.6C130.2 31.6 129 33.7 129 35.7V51.3C129 53.5 130.1 55.4 132 56.4L145.6 64.2C146.5 64.7 147.4 65 148.5 65C149.5 65 150.5 64.7 151.5 64.2L165.1 56.4C166.8 55.4 168 53.3 168 51.3V35.8C168 33.6 166.9 31.7 165 30.7L151.4 22.9C150.6 22.3 149.6 22 148.5 22Z" fill="#D9D9D9"/>
<path d="M102.2 108.8C101.2 108.8 100.3 108.5 99.5 108.1L85.9 100.2C84.2 99.2 83.1 97.4 83.1 95.5V79.8C83.1 77.9 84.1 76.1 85.9 75.1L99.5 67.2C100.4 66.8 101.3 66.5 102.2 66.5C103.2 66.5 104.1 66.8 104.9 67.2L118.5 75C120.2 76 121.3 77.8 121.3 79.7V95.4C121.3 97.3 120.3 99.1 118.5 100.1L104.9 108C104.1 108.5 103.2 108.8 102.2 108.8Z" fill="#F2F2F2"/>
<path d="M102.3 66.9C103.2 66.9 104 67.1 104.7 67.6L118.3 75.4C119.9 76.3 120.8 77.9 120.8 79.7V95.4C120.8 97.2 119.8 98.8 118.3 99.7L104.7 107.6C103.9 108 103 108.3 102.2 108.3C101.4 108.3 100.5 108 99.8 107.6L86.2 99.7C84.6 98.8 83.7 97.2 83.7 95.4V79.8C83.7 78 84.7 76.4 86.2 75.5L99.8 67.6C100.6 67.1 101.4 66.9 102.3 66.9ZM102.3 66C101.3 66 100.3 66.3 99.3 66.8L85.7 74.7C83.8 75.8 82.7 77.7 82.7 79.8V95.4C82.7 97.6 83.8 99.5 85.7 100.5L99.3 108.4C100.2 108.9 101.2 109.2 102.2 109.2C103.2 109.2 104.2 108.9 105.2 108.4L118.8 100.5C120.7 99.4 121.8 97.5 121.8 95.4V79.7C121.8 77.5 120.7 75.6 118.8 74.6L105.2 66.8C104.3 66.3 103.3 66 102.3 66Z" fill="#D9D9D9"/>
<path d="M148.5 155.1C147.5 155.1 146.6 154.8 145.7 154.4L132.1 146.6C130.4 145.7 129.4 143.9 129.4 141.9V126.3C129.4 124.5 130.4 122.6 132.1 121.6L145.7 113.8C146.6 113.4 147.5 113.1 148.5 113.1C149.5 113.1 150.4 113.4 151.3 113.8L164.9 121.6C166.6 122.5 167.6 124.3 167.6 126.3V141.9C167.6 143.7 166.6 145.6 164.9 146.6L151.3 154.4C150.5 154.8 149.5 155.1 148.5 155.1Z" fill="#F2F2F2"/>
<path d="M148.5 113.4C149.4 113.4 150.2 113.6 151 114.1L164.6 121.9C166.2 122.8 167 124.5 167 126.2V141.8C167 143.5 166 145.3 164.6 146.1L151 153.9C150.2 154.3 149.3 154.6 148.5 154.6C147.7 154.6 146.8 154.4 146 153.9L132.4 146.1C130.8 145.2 130 143.5 130 141.8V126.2C130 124.5 131 122.7 132.4 121.9L146 114.1C146.8 113.6 147.7 113.4 148.5 113.4ZM148.5 112.5C147.5 112.5 146.5 112.8 145.5 113.3L131.9 121.1C130.2 122.1 129 124.2 129 126.2V141.8C129 144 130.1 145.9 132 146.9L145.6 154.7C146.6 155.2 147.5 155.5 148.6 155.5C149.6 155.5 150.6 155.2 151.6 154.7L165.2 146.9C166.9 145.9 168.1 143.8 168.1 141.8V126.2C168.1 124 167 122.1 165.1 121.1L151.5 113.3C150.5 112.8 149.6 112.5 148.5 112.5Z" fill="#D9D9D9"/>
<path d="M379.4 108.9C378.4 108.9 377.5 108.6 376.5 108L362.9 100C361.2 98.7 360.3 97 360.3 95.3V79.7C360.3 78 361.3 76.2 362.9 75L376.5 67C377.2 66.5 378.2 66.1 379.1 66.1C380.1 66.1 381 66.4 382 67L395.6 75C397.3 76.3 398.2 78 398.2 79.7V95.3C398.2 97 397.2 98.8 395.6 100L382 108C381.3 108.7 380.4 108.9 379.4 108.9Z" fill="#F2F2F2"/>
<path d="M379.1 66.6C380 66.6 380.9 66.9 381.8 67.4L395.4 75.4C396.8 76.4 397.8 78 397.8 79.7V95.3C397.8 97 396.8 98.6 395.4 99.6L381.8 107.6C381.1 108.1 380.2 108.4 379.4 108.4C378.5 108.4 377.6 108.1 376.7 107.6L363.1 99.6C361.7 98.6 360.7 97 360.7 95.3V79.7C360.7 78 361.7 76.4 363.1 75.4L376.7 67.4C377.5 66.9 378.2 66.6 379.1 66.6ZM379.1 65.8C378.1 65.8 377 66.1 376.2 66.8L362.6 74.8C360.9 76.1 359.8 77.9 359.8 79.8V95.4C359.8 97.3 360.8 99.1 362.6 100.4L376.2 108.4C377.2 109 378.3 109.3 379.3 109.3C380.3 109.3 381.4 109 382.2 108.3L395.8 100.3C397.5 99 398.6 97.2 398.6 95.3V79.7C398.6 77.8 397.6 76 395.8 74.7L382.2 66.7C381.3 66.1 380.1 65.8 379.1 65.8Z" fill="#D9D9D9"/>
<path d="M240.8 63.1C239.8 63.1 238.9 62.8 237.9 62.3L224.3 54.6C222.6 53.6 221.7 51.6 221.7 49.9V34.2C221.7 32.4 222.7 30.5 224.3 29.5L237.9 21.8C238.7 21.3 239.6 21 240.6 21C241.6 21 242.5 21.3 243.5 21.8L257.1 29.5C258.8 30.5 259.7 32.5 259.7 34.2V49.9C259.7 51.7 258.7 53.6 257.1 54.6L243.5 62.3C242.7 62.9 241.9 63.1 240.8 63.1Z" fill="#F2F2F2"/>
<path d="M240.7 21.4C241.6 21.4 242.4 21.7 243.3 22.1L256.9 29.8C258.4 30.8 259.3 32.5 259.3 34.1V49.8C259.3 51.5 258.3 53.2 256.9 54.1L243.3 62C242.6 62.5 241.7 62.7 240.9 62.7C240.1 62.7 239.2 62.4 238.3 62L224.7 54.3C223.2 53.3 222.3 51.6 222.3 50V34.2C222.3 32.5 223.3 30.8 224.7 29.9L238.3 22.2C239 21.7 239.8 21.4 240.7 21.4ZM240.7 20.6C239.7 20.6 238.6 20.9 237.8 21.5L224.3 29.2C222.6 30.3 221.5 32.3 221.5 34.2V49.9C221.5 51.8 222.6 53.8 224.3 54.9L237.9 62.6C238.9 63.1 239.9 63.5 240.9 63.5C241.9 63.5 243 63.2 243.8 62.6L257.3 54.9C259 53.8 260.1 51.8 260.1 49.9V34.2C260.1 32.3 259 30.3 257.3 29.2L243.7 21.5C242.7 20.8 241.7 20.6 240.7 20.6Z" fill="#D9D9D9"/>
<path d="M240.7 155.4C239.8 155.4 239 155.1 238.1 154.6L224.6 146.6C222.9 145.6 221.7 143.8 221.7 141.9V126.2C221.7 124.3 222.8 122.5 224.6 121.5L238.1 113.5C239 113 239.9 112.7 240.8 112.7C241.7 112.7 242.5 113 243.4 113.5L256.9 121.5C258.6 122.5 259.8 124.3 259.8 126.2V141.9C259.8 143.8 258.7 145.6 256.9 146.6L243.4 154.6C242.5 155.1 241.6 155.4 240.7 155.4Z" fill="#F2F2F2"/>
<path d="M240.8 113.1C241.6 113.1 242.4 113.4 243.1 113.8L256.7 121.8C258.4 122.8 259.4 124.5 259.4 126.1V141.8C259.4 143.5 258.4 145.2 256.7 146.1L243.1 154.1C242.2 154.6 241.4 154.8 240.6 154.8C239.8 154.8 239 154.5 238.3 154.1L224.7 146.1C223 145.1 222 143.4 222 141.8V126.1C222 124.4 223 122.7 224.7 121.8L238.3 113.8C239.2 113.4 240.1 113.1 240.8 113.1ZM240.8 112.3C239.8 112.3 238.8 112.6 237.8 113.2L224.2 121.2C222.3 122.2 221.2 124.2 221.2 126.3V142C221.2 144.1 222.4 146 224.3 147.1L237.8 155C238.7 155.6 239.6 155.9 240.6 155.9C241.6 155.9 242.6 155.6 243.6 155L257.2 147C259.1 146 260.2 144 260.2 141.9V126.2C260.2 124.1 259 122.2 257.1 121.1L243.6 113.2C242.8 112.5 241.9 112.3 240.8 112.3Z" fill="#D9D9D9"/>
<path d="M333.2 62.1C332.2 62.1 331.3 61.8 330.3 61.3L316.7 53.3C315.1 52.3 314.1 50.3 314.1 48.6V32.9C314.1 31.1 315.1 29.2 316.7 28.2L330.3 20.2C331.1 19.7 332 19.4 333 19.4C334 19.4 334.9 19.7 335.9 20.2L349.5 28.2C351.1 29.2 352.1 31.2 352.1 32.9V48.6C352.1 50.4 351.1 52.3 349.5 53.3L335.9 61.3C335.1 61.8 334.3 62.1 333.2 62.1Z" fill="#F2F2F2"/>
<path d="M333 19.9C333.9 19.9 334.7 20.2 335.6 20.6L349.2 28.6C350.7 29.6 351.6 31.3 351.6 32.9V48.6C351.6 50.3 350.6 52 349.2 52.9L335.6 60.9C334.9 61.4 334 61.6 333.2 61.6C332.3 61.6 331.5 61.3 330.6 60.9L317 52.9C315.5 51.9 314.6 50.2 314.6 48.6V32.9C314.6 31.2 315.6 29.5 317 28.6L330.6 20.6C331.4 20.1 332.2 19.9 333 19.9ZM333 19C332 19 330.9 19.3 330.1 19.9L316.6 27.9C314.9 29 313.8 31 313.8 32.9V48.6C313.8 50.5 314.9 52.5 316.6 53.6L330.2 61.6C331.2 62.1 332.2 62.5 333.2 62.5C334.2 62.5 335.3 62.2 336.1 61.6L349.6 53.6C351.3 52.5 352.4 50.5 352.4 48.6V32.9C352.4 31 351.3 29 349.6 27.9L336 19.9C335.2 19.3 334.1 19 333 19Z" fill="#D9D9D9"/>
<path d="M287 108.7C286 108.7 285.1 108.4 284.2 108L270.6 100.2C268.9 99.3 267.9 97.5 267.9 95.5V79.8C267.9 78 268.9 76.1 270.6 75.1L284.2 67.3C285.1 66.9 286 66.6 287 66.6C288 66.6 288.9 66.9 289.8 67.3L303.4 75.1C305.1 76 306.1 77.8 306.1 79.8V95.4C306.1 97.2 305.1 99.1 303.4 100.1L289.8 107.9C288.9 108.4 287.9 108.7 287 108.7Z" fill="#F2F2F2"/>
<path d="M287 67C287.9 67 288.7 67.2 289.5 67.7L303.1 75.5C304.7 76.4 305.5 78.1 305.5 79.8V95.4C305.5 97.1 304.5 98.9 303.1 99.7L289.5 107.5C288.7 107.9 287.8 108.2 287 108.2C286.1 108.2 285.3 108 284.5 107.5L270.9 99.7C269.3 98.8 268.5 97.1 268.5 95.4V79.8C268.5 78.1 269.5 76.3 270.9 75.5L284.5 67.7C285.2 67.1 286.1 67 287 67ZM287 66.1C286 66.1 285 66.4 284 66.9L270.4 74.7C268.7 75.7 267.5 77.8 267.5 79.8V95.4C267.5 97.6 268.6 99.5 270.5 100.5L284.1 108.3C285.1 108.8 286 109.1 287.1 109.1C288.1 109.1 289.1 108.8 290.1 108.3L303.7 100.5C305.4 99.5 306.6 97.4 306.6 95.4V79.8C306.6 77.6 305.5 75.7 303.6 74.7L290 66.9C289 66.4 288 66.1 287 66.1Z" fill="#D9D9D9"/>
<path d="M56 155.3C55 155.3 54.1 155 53.3 154.6L39.6 146.6C37.9 145.6 37 143.9 37 141.9V126.3C37 124.2 38 122.5 39.7 121.6L53.3 113.5C54.2 113.1 55.1 112.8 56.1 112.8C57.1 112.8 58 113.1 58.8 113.5L72.5 121.5C74.2 122.5 75.1 124.2 75.1 126.2V141.8C75.1 143.9 74.1 145.6 72.4 146.5L58.7 154.5C57.9 155 56.9 155.3 56 155.3Z" fill="#F2F2F2"/>
<path d="M56 113.2C56.9 113.2 57.7 113.4 58.5 113.9L72.2 121.9C73.8 122.8 74.6 124.3 74.6 126.2V141.8C74.6 143.7 73.7 145.3 72.2 146.1L58.5 154.1C57.7 154.5 56.8 154.8 56 154.8C55.2 154.8 54.3 154.6 53.5 154.1L39.8 146.1C38.2 145.2 37.4 143.7 37.4 141.8V126.2C37.4 124.3 38.3 122.7 39.8 121.9L53.5 113.9C54.2 113.4 55.1 113.2 56 113.2ZM56 112.3C55 112.3 53.9 112.6 53 113.1L39.3 121.1C37.5 122.1 36.4 124 36.4 126.2V141.8C36.4 144.1 37.4 145.9 39.3 146.9L53 154.9C53.9 155.4 54.9 155.7 56 155.7C57.1 155.7 58.1 155.4 59 154.9L72.7 146.9C74.5 145.9 75.6 144 75.6 141.8V126.2C75.6 123.9 74.6 122.1 72.7 121.1L59 113.1C58.1 112.6 57 112.3 56 112.3Z" fill="#D9D9D9"/>
<path d="M64.2 129.5H63.5H48.2H47.5V128.8C47.5 126.4 48.9 123.8 51.2 122.4L50.3 120.8C50.1 120.6 50.1 120.3 50.3 120.1C50.3 119.9 50.5 119.6 50.8 119.6C51 119.6 51.1 119.4 51.3 119.4C51.6 119.4 52 119.6 52 119.9L52.9 121.6C53.8 121.3 55 121.1 55.9 121.1C56.9 121.1 58 121.3 59 121.6L59.9 119.9C60.1 119.6 60.4 119.4 60.6 119.4C60.8 119.4 60.9 119.4 61.1 119.6C61.3 119.8 61.4 119.9 61.6 120.1C61.6 120.3 61.6 120.6 61.6 120.8L60.7 122.4C63 123.8 64.4 126.1 64.4 128.8L64.2 129.5ZM59.7 122.7L60.9 120.6C60.9 120.4 60.9 120.3 60.7 120.3C60.5 120.3 60.4 120.3 60.4 120.5L59.2 122.6C58.3 122.1 57.1 121.9 55.9 121.9C54.7 121.9 53.6 122.2 52.6 122.6L51.4 120.5C51.4 120.3 51.2 120.3 51.1 120.3C50.9 120.3 50.9 120.5 50.9 120.6L52.1 122.7C49.8 123.9 48.3 126.2 48.3 128.8H63.6C63.7 126.2 62 123.9 59.7 122.7ZM52.4 126C52.1 126 51.7 125.7 51.7 125.3C51.7 124.9 52 124.6 52.4 124.6C52.7 124.6 53.1 124.9 53.1 125.3C53.1 125.7 52.8 126 52.4 126ZM59.5 126C59.2 126 58.8 125.7 58.8 125.3C58.8 124.9 59.1 124.6 59.5 124.6C59.9 124.6 60.2 124.9 60.2 125.3C60.1 125.6 59.7 126 59.5 126ZM53.1 148.2C51.9 148.2 50.8 147.2 50.8 145.9V142.8H50.1C49.4 142.8 48.9 142.5 48.4 142.1C47.9 141.6 47.7 141.1 47.7 140.4V129.4V128.7H48.4H63.7H64.4V129.4V140.4C64.4 141.8 63.4 142.8 62 142.8H61.3V145.9C61.3 147.1 60.3 148.2 59 148.2C58.3 148.2 57.8 147.9 57.3 147.5C56.8 147 56.6 146.5 56.6 145.8V142.7H55.6V145.8C55.4 147.2 54.3 148.2 53.1 148.2Z" fill="#F2F2F2"/>
<path d="M48.4 140.2C48.4 141.1 49.1 142.1 50.3 142.1H51.5V145.8C51.5 146.7 52.2 147.5 53.2 147.5C54.2 147.5 54.9 146.8 54.9 145.8V142.1H57.2V145.8C57.2 146.7 57.9 147.5 58.9 147.5C59.9 147.5 60.6 146.8 60.6 145.8V142.1H62C62.9 142.1 63.9 141.4 63.9 140.2V129.2H48.6L48.4 140.2ZM65.8 140.1C64.6 140.1 63.5 139.1 63.5 137.8V130.7C63.5 129.5 64.5 128.4 65.8 128.4C67 128.4 68.1 129.4 68.1 130.7V137.8C68.2 139 67.2 140.1 65.8 140.1ZM65.8 128.9C64.9 128.9 64.1 129.6 64.1 130.6V137.7C64.1 138.6 64.8 139.4 65.8 139.4C66.8 139.4 67.5 138.7 67.5 137.7V130.6C67.5 129.8 66.8 128.9 65.8 128.9Z" fill="#F2F2F2"/>
<path d="M46.2 140.1C45 140.1 43.9 139.1 43.9 137.8V130.7C43.9 129.5 44.9 128.4 46.2 128.4C46.9 128.4 47.4 128.7 47.9 129.1C48.4 129.6 48.6 130.1 48.6 130.8V137.9C48.6 138.6 48.3 139.1 47.9 139.6C47.2 139.9 46.7 140.1 46.2 140.1ZM46.2 128.9C45.3 128.9 44.5 129.6 44.5 130.6V137.7C44.5 138.6 45.2 139.4 46.2 139.4C47.2 139.4 47.9 138.7 47.9 137.7V130.6C47.7 129.8 47 128.9 46.2 128.9Z" fill="#F2F2F2"/>
<path d="M102.3 201.9C101.3 201.9 100.4 201.6 99.4 201.1L85.8 193.1C84.2 192.1 83.2 190.1 83.2 188.4V172.7C83.2 170.9 84.2 169 85.8 168L99.4 160C100.2 159.5 101.1 159.2 102.1 159.2C103.1 159.2 104 159.5 105 160L118.6 168C120.2 169 121.2 171 121.2 172.7V188.4C121.2 190.2 120.2 192.1 118.6 193.1L105 201.1C104.2 201.6 103.3 201.9 102.3 201.9Z" fill="#F2F2F2"/>
<path d="M102.1 159.7C103 159.7 103.8 160 104.7 160.4L118.3 168.4C119.8 169.4 120.7 171.1 120.7 172.7V188.4C120.7 190.1 119.7 191.8 118.3 192.7L104.7 200.7C104 201.2 103.1 201.4 102.3 201.4C101.5 201.4 100.6 201.1 99.7 200.7L86.1 192.7C84.6 191.7 83.7 190 83.7 188.4V172.7C83.7 171 84.7 169.3 86.1 168.4L99.7 160.4C100.4 160 101.3 159.7 102.1 159.7ZM102.1 158.8C101.1 158.8 100 159.1 99.2 159.7L85.7 167.7C84 168.8 82.9 170.8 82.9 172.7V188.4C82.9 190.3 84 192.3 85.7 193.4L99.3 201.4C100.3 201.9 101.3 202.3 102.3 202.3C103.3 202.3 104.4 202 105.2 201.4L118.7 193.4C120.4 192.3 121.5 190.3 121.5 188.4V172.7C121.5 170.8 120.4 168.8 118.7 167.7L105.1 159.7C104.2 159.1 103.2 158.8 102.1 158.8Z" fill="#D9D9D9"/>
<path d="M194.7 108.7C193.7 108.7 192.8 108.4 192 108L178.4 100.2C176.7 99.3 175.8 97.5 175.8 95.5V79.8C175.8 78 176.8 76.1 178.4 75.1L192 67.3C192.9 66.9 193.8 66.6 194.8 66.6C195.8 66.6 196.7 66.9 197.5 67.3L211.1 75.1C212.8 76 213.8 77.8 213.8 79.8V95.4C213.8 97.2 212.8 99.1 211.2 100.1L197.6 107.9C196.6 108.4 195.6 108.7 194.7 108.7Z" fill="#F2F2F2"/>
<path d="M194.7 67C195.6 67 196.4 67.2 197.2 67.7L210.8 75.5C212.4 76.4 213.2 78.1 213.2 79.8V95.4C213.2 97.1 212.2 98.9 210.8 99.7L197.2 107.5C196.4 107.9 195.5 108.2 194.7 108.2C193.9 108.2 193 108 192.2 107.5L178.6 99.7C177 98.8 176.2 97.1 176.2 95.4V79.8C176.2 78.1 177.2 76.3 178.6 75.5L192.2 67.7C192.9 67.1 193.8 67 194.7 67ZM194.7 66.1C193.7 66.1 192.6 66.4 191.7 66.9L178.1 74.7C176.4 75.7 175.2 77.8 175.2 79.8V95.4C175.2 97.6 176.3 99.5 178.1 100.5L191.7 108.3C192.6 108.8 193.6 109.1 194.7 109.1C195.8 109.1 196.8 108.8 197.7 108.3L211.3 100.5C213 99.5 214.2 97.4 214.2 95.4V79.8C214.2 77.6 213.1 75.7 211.3 74.7L197.7 66.9C196.8 66.4 195.7 66.1 194.7 66.1Z" fill="#D9D9D9"/>
<path d="M333.1 156.1C332.1 156.1 331.1 155.8 330.2 155.4L315.9 147.1C314.2 146.2 313 144.3 313 142.1V125.5C313 123.5 314.1 121.5 315.9 120.5L330.2 112.2C331.2 111.8 332.1 111.5 333.2 111.5C334.2 111.5 335.2 111.8 336.1 112.2L350.4 120.5C352.1 121.4 353.3 123.3 353.3 125.5V142.1C353.3 144.1 352.2 146.1 350.4 147.1L336.1 155.4C335.1 156 334.2 156.1 333.1 156.1Z" fill="#F2F2F2"/>
<path d="M333.1 112.3C334.1 112.3 334.9 112.6 335.8 113L350.1 121.3C351.8 122.2 352.7 124.1 352.7 125.8V142.4C352.7 144.3 351.7 146.1 350.1 146.9L335.8 155.2C334.9 155.6 334 155.9 333.1 155.9C332.1 155.9 331.3 155.6 330.4 155.2L316.1 146.9C314.4 146 313.5 144.1 313.5 142.4V125.8C313.5 123.9 314.5 122.1 316.1 121.3L330.4 113C331.3 112.5 332.3 112.3 333.1 112.3ZM333.1 111.4C332.1 111.4 331 111.7 330 112.2L315.7 120.5C313.8 121.5 312.7 123.5 312.7 125.8V142.4C312.7 144.7 313.9 146.7 315.7 147.7L330 155.9C331 156.4 332 156.7 333.1 156.7C334.1 156.7 335.2 156.4 336.2 155.9L350.5 147.6C352.4 146.6 353.5 144.6 353.5 142.3V125.7C353.5 123.4 352.3 121.4 350.5 120.4L336.2 112.2C335.3 111.6 334.3 111.4 333.1 111.4Z" fill="#D9D9D9"/>
<path d="M345.6 144.2C345.4 144.5 345.4 144.8 345.3 145C345 144.5 344.7 144.2 344.3 143.9C343.3 143.1 342.4 142.6 341.1 142.6C340.5 142.6 339.8 142.9 339.2 143.2C338.2 143.7 337.3 144.2 336.2 144.5C334.7 145 333.2 145.1 331.7 145C329.3 144.8 327 144.4 324.8 143.3C321.4 141.6 318.8 139.4 316.6 136.3C316.6 136.3 316.6 136.1 316.4 136.1C317.2 136.6 318.2 137.1 319.2 137.6C321.1 138.4 323.1 139.1 325.2 139.4C327.8 139.7 330.2 139.4 332.8 138.1C333 138.1 333 137.9 333.1 137.9C332.8 137.6 332.3 137.4 332 137.1C330.3 135.8 328.8 134.3 327.5 132.8C324.7 129.8 322.3 127 319.7 123.7C319.7 123.7 319.7 123.5 319.5 123.5C320.5 124.1 321.3 125 322.3 125.6C324.9 127.5 327.3 129.5 330.1 131.2C330.3 131.4 330.4 131.4 330.6 131.5C327.8 128.5 325.6 125.3 323.2 122C323.4 122 323.4 122 323.5 122C326.9 125 330.5 128 334.3 130.7C335.1 131.3 336.1 132 336.9 132.6C337.1 132.8 337.1 132.8 337.2 132.4C337.8 130.5 338 128.5 337.7 126.4C337.4 123.6 336.2 121.2 334.7 118.8H334.9C337.7 120.7 340.3 123 342.1 126.2C343.4 128.3 344 130.7 344 133.2C344 134.3 343.8 135.5 343.5 136.4C343.5 136.6 343.5 136.7 343.7 136.9C344.7 138.2 345.5 139.7 346 141.2C346 141.4 346 141.7 346.2 141.8C346.2 142.3 346.2 142.6 346.2 143.1C345.6 144.1 345.6 144.1 345.6 144.2Z" fill="#FF5722"/>
<path d="M287 202.7C286 202.7 285.1 202.4 284.1 202L269.8 193.7C268.1 192.8 267 190.9 267 188.7V172.3C267 170.3 268 168.4 269.8 167.3L284.1 159C285.1 158.6 286 158.3 287 158.3C288 158.3 288.9 158.6 289.9 159L304.2 167.3C305.9 168.2 307 170.1 307 172.3V188.7C307 190.7 306 192.6 304.2 193.7L289.9 202C288.9 202.5 287.9 202.7 287 202.7Z" fill="#F2F2F2"/>
<path d="M287 158.8C287.9 158.8 288.8 159 289.7 159.4L304 167.7C305.7 168.6 306.6 170.5 306.6 172.3V188.7C306.6 190.6 305.6 192.4 304 193.3L289.7 201.6C288.8 202 288 202.2 287 202.2C286 202.2 285.2 202 284.3 201.6L270 193.3C268.3 192.4 267.4 190.5 267.4 188.7V172.3C267.4 170.4 268.4 168.6 270 167.7L284.3 159.4C285.2 159.1 286.1 158.8 287 158.8ZM287 158C286 158 284.9 158.3 284 158.8L269.7 167.1C267.8 168.3 266.7 170.3 266.7 172.5V188.9C266.7 191.2 267.8 193.3 269.7 194.3L284 202.6C285 203.1 286 203.4 287 203.4C288 203.4 289.1 203.1 290 202.6L304.3 194.3C306.2 193.1 307.3 191.1 307.3 188.9V172.5C307.3 170.2 306.2 168.1 304.3 167.1L290 158.8C289.1 158.2 288 158 287 158Z" fill="#D9D9D9"/>
<path d="M194.8 201.9C193.8 201.9 192.9 201.6 191.9 201.1L178.3 193.1C176.7 192.1 175.7 190.1 175.7 188.4V172.7C175.7 170.9 176.7 169 178.3 168L191.9 160C192.7 159.5 193.6 159.2 194.6 159.2C195.6 159.2 196.5 159.5 197.5 160L211.1 168C212.7 169 213.7 171 213.7 172.7V188.4C213.7 190.2 212.7 192.1 211.1 193.1L197.5 201.1C196.7 201.6 195.7 201.9 194.8 201.9Z" fill="#F2F2F2"/>
<path d="M194.6 159.7C195.5 159.7 196.3 160 197.2 160.4L210.8 168.4C212.3 169.4 213.2 171.1 213.2 172.7V188.4C213.2 190.1 212.2 191.8 210.8 192.7L197.2 200.7C196.5 201.2 195.6 201.4 194.8 201.4C194 201.4 193.1 201.1 192.2 200.7L178.6 192.7C177.1 191.7 176.2 190 176.2 188.4V172.7C176.2 171 177.2 169.3 178.6 168.4L192.2 160.4C192.9 160 193.7 159.7 194.6 159.7ZM194.6 158.8C193.6 158.8 192.5 159.1 191.7 159.7L178.2 167.7C176.5 168.8 175.4 170.8 175.4 172.7V188.4C175.4 190.3 176.5 192.3 178.2 193.4L191.8 201.4C192.8 201.9 193.8 202.3 194.8 202.3C195.8 202.3 196.9 202 197.7 201.4L211.2 193.4C212.9 192.3 214 190.3 214 188.4V172.7C214 170.8 212.9 168.8 211.2 167.7L197.6 159.7C196.7 159.1 195.6 158.8 194.6 158.8Z" fill="#D9D9D9"/>
<path opacity="0.2" d="M284.1 396C295.035 396 303.9 393.09 303.9 389.5C303.9 385.91 295.035 383 284.1 383C273.165 383 264.3 385.91 264.3 389.5C264.3 393.09 273.165 396 284.1 396Z" fill="url(#paint0_radial_2_8917)"/>
<path d="M291.1 389.5C290.6 389.5 285.3 389.4 285.2 389.4C283.4 389.7 281.5 387.8 281.2 388.7C281 389 281.3 389.3 281.5 389.4C282.4 389.9 283 390.2 284.3 390.3C284.8 390.3 285.5 390.1 286 390.2C287.9 390.5 288.6 391 289.2 391C290.9 391 291.3 390.8 291.5 390.3C291.7 389.9 291.7 389.5 291.1 389.5Z" fill="#5B1022"/>
<path d="M291.7 387.9C291.6 387.4 291.4 386.9 291.3 386.5C291.2 386.2 291.1 386.1 291 385.8V385.7C290.8 385.4 289.8 385.4 289.4 385.4C288.9 385.4 288.1 385.4 288.1 385.6C287.4 387 285.9 385.9 284.6 385.7C284.3 385.7 283.6 385.7 283.5 385.7C281.7 386 281.3 387 281.2 388C281.2 388.3 281.3 388.5 281.4 388.6C281.4 388.6 281.4 388.6 281.5 388.6C282.4 389.1 283 389.4 284.3 389.5C284.8 389.5 285.5 389.5 286 389.6C287.9 389.9 288.8 390.2 289.5 390.2C291.2 390.2 291.3 389.9 291.7 389.5C291.7 389.5 291.7 388.4 291.7 387.9Z" fill="#5957D9"/>
<path d="M284.5 385.8C284.2 385.8 283.5 385.8 283.4 385.8C282.2 386.1 281.7 386.6 281.4 387.1C281.8 387.6 283 387.8 283.6 387C284.1 386.3 284.8 386 285.2 385.8C284.9 385.9 284.6 385.8 284.5 385.8Z" fill="#5957D9"/>
<path d="M291.5 389.7C291.7 389.5 291.7 388.5 291.6 388C291.5 387.5 291.3 387 291.2 386.6C291.1 386.5 291.1 386.3 291 386.3C290.7 386 290.3 386 289.9 386C288.7 386 287.8 387.2 287.8 388.6C287.8 389.3 288.1 389.9 288.4 390.4C288.7 390.5 289 390.5 289.3 390.5C291.1 390.3 291.2 390.1 291.5 389.7Z" fill="#5957D9"/>
<path d="M285.6 386C285.4 386.2 285.3 386.4 285.3 386.7C285.2 386.9 285.6 387 285.6 386.8C285.7 386.6 285.8 386.4 285.9 386.2C285.8 386.1 285.7 386.1 285.6 386Z" fill="#841933"/>
<path d="M286.4 387C286.4 386.7 286.4 386.6 286.5 386.3C286.4 386.3 286.3 386.2 286.2 386.2C286.1 386.5 286.1 386.7 286.1 387C286 387.1 286.3 387.1 286.4 387Z" fill="#841933"/>
<path d="M286.7 387C286.8 387.2 287 387.1 287 386.9C286.9 386.7 286.9 386.6 286.9 386.4C286.8 386.4 286.7 386.4 286.6 386.4C286.6 386.5 286.6 386.7 286.7 387Z" fill="#841933"/>
<path d="M287.3 386.8C287.5 387 287.6 386.8 287.6 386.6C287.5 386.5 287.4 386.3 287.4 386.3C287.3 386.3 287.2 386.4 287.1 386.4C287.1 386.5 287.2 386.6 287.3 386.8Z" fill="#841933"/>
<path d="M288.1 386.4C288.3 386.5 288.4 386.2 288.2 386.1C288 386 287.9 385.9 287.8 385.8C287.7 385.9 287.7 386 287.6 386.1C287.8 386.2 287.9 386.3 288.1 386.4Z" fill="#841933"/>
<path d="M282.4 389.5C281.9 389.5 276.6 389.4 276.5 389.4C274.7 389.7 272.8 387.8 272.5 388.7C272.3 389 272.6 389.3 272.8 389.4C273.7 389.9 274.3 390.2 275.6 390.3C276.1 390.3 276.8 390.1 277.3 390.2C279.2 390.5 279.9 391 280.5 391C282.2 391 282.6 390.8 282.8 390.3C283 389.9 283 389.5 282.4 389.5Z" fill="#5B1022"/>
<path d="M282.9 387.9C282.8 387.4 282.6 386.9 282.5 386.5C282.4 386.2 282.3 386.1 282.2 385.8V385.7C282 385.4 281 385.4 280.6 385.4C280.1 385.4 279.3 385.4 279.3 385.6C278.6 387 277.1 385.9 275.8 385.7C275.5 385.7 274.8 385.7 274.7 385.7C272.9 386 272.5 387 272.4 388C272.4 388.3 272.5 388.5 272.6 388.6C272.6 388.6 272.6 388.6 272.7 388.6C273.6 389.1 274.2 389.4 275.5 389.5C276 389.5 276.7 389.5 277.2 389.6C279.1 389.9 280 390.2 280.7 390.2C282.4 390.2 282.5 389.9 282.9 389.5C283 389.5 283 388.4 282.9 387.9Z" fill="#5957D9"/>
<path d="M275.9 385.8C275.6 385.8 274.9 385.8 274.8 385.8C273.6 386.1 273.1 386.6 272.8 387.1C273.2 387.6 274.4 387.8 275 387C275.5 386.3 276.2 386 276.6 385.8C276.3 385.9 276 385.8 275.9 385.8Z" fill="#5957D9"/>
<path d="M282.8 389.7C283 389.5 283 388.5 282.9 388C282.8 387.5 282.6 387 282.5 386.6C282.4 386.5 282.4 386.3 282.3 386.3C282 386 281.6 386 281.2 386C280 386 279.1 387.2 279.1 388.6C279.1 389.3 279.4 389.9 279.7 390.4C280 390.5 280.3 390.5 280.6 390.5C282.4 390.3 282.5 390.1 282.8 389.7Z" fill="#5957D9"/>
<path d="M277 386C276.8 386.2 276.7 386.4 276.7 386.7C276.6 386.9 277 387 277 386.8C277.1 386.6 277.2 386.4 277.3 386.2C277.2 386.1 277.1 386.1 277 386Z" fill="#841933"/>
<path d="M277.6 387C277.6 386.7 277.6 386.6 277.7 386.3C277.6 386.3 277.5 386.2 277.4 386.2C277.3 386.5 277.3 386.7 277.3 387C277.4 387.1 277.6 387.1 277.6 387Z" fill="#841933"/>
<path d="M278 387C278.1 387.2 278.3 387.1 278.3 386.9C278.3 386.7 278.2 386.6 278.2 386.4C278.1 386.4 278 386.4 277.9 386.4C277.9 386.5 277.9 386.7 278 387Z" fill="#841933"/>
<path d="M278.6 386.8C278.8 387 278.9 386.8 278.9 386.6C278.8 386.5 278.7 386.3 278.7 386.3C278.6 386.3 278.5 386.4 278.4 386.4C278.5 386.5 278.6 386.6 278.6 386.8Z" fill="#841933"/>
<path d="M279.5 386.4C279.7 386.5 279.8 386.2 279.6 386.1C279.4 386 279.3 385.9 279.2 385.8C279.1 385.9 279.1 386 279 386.1C279.2 386.2 279.3 386.3 279.5 386.4Z" fill="#841933"/>
<path d="M278.1 312.6C280.4 310.3 279.7 305.5 279.7 305.5L282.2 305.7V305.6L285.4 305.5C285.4 305.5 284.6 310.3 287 312.6C288.2 313.8 283.9 316.5 282.8 317.2V317.5C282.8 317.4 276.8 313.9 278.1 312.6Z" fill="#EFD3A5"/>
<path d="M276.3 298.2C275 302.2 278.4 307.3 279.9 307.6C281.6 308 283.8 307.3 284.8 306.6C286.6 305.4 288.4 303 288.4 300.7L288.9 295.6C288.9 292.4 286 291.9 282.8 291.9L282.4 292C279.1 292 276.5 292.1 276.4 295.3C276.4 295.2 276.6 297.2 276.3 298.2Z" fill="#EFD3A5"/>
<path d="M276.1 298.8C276.1 298.8 276.5 299.1 276.5 299.6C276.5 300 275.9 300.4 275.9 300.4C275.9 299.9 276 299.4 276.1 298.8Z" fill="#FFB593"/>
<path d="M276.1 297.1C276.4 297.7 277.7 300 277.7 299.2C277.7 298.7 278.7 297.8 278.7 297.4C279.1 297.7 279.2 303.4 281.5 305.6C282.2 306.3 283.2 305 284.1 304.9C284.6 304.9 284.5 305.6 285.2 305.6C288.5 305.8 290.4 294.9 289.5 292.7C288.8 291.2 287.3 290.3 286.4 290.8C286.4 290.7 286.1 290.3 286 290.1C285.7 289.8 285.3 289.8 285 289.7C283.8 289.5 282.6 289.6 281.4 289.7C281 289.7 280.4 289.8 280.1 289.8C279.9 289.8 279.7 289.8 279.5 289.8C279 289.7 278.5 289.6 278.2 289.3C278.1 289.2 278 289.3 278 289.3C277.9 289.3 277.9 289.4 278 289.5C278.2 289.8 278.4 290.2 278.7 290.5C278.3 290.5 277.8 290.4 277.6 290.2C277.5 290.1 277.4 290.2 277.4 290.3C277.5 290.6 277.7 290.9 277.8 291.2C277.3 291.2 276.9 291.5 276.6 291.9C275.2 292.8 275.6 295.9 276.1 297.1Z" fill="#132328"/>
<path d="M287.2 310.7C287.2 310.7 286.5 309.6 286.3 309.3C285.5 308 285.1 308 284.7 308H280.3C279.7 308 279.4 308.3 279.1 308.9L277.9 310.6L279.5 314L280.7 312.1H281.7L282.8 314.5L287.2 310.7Z" fill="#D1D5E8"/>
<path d="M278.7 297.4C278.4 297.3 278.2 297.2 277.8 297.3C276.9 297.5 276.8 298.3 276.9 299C277 299.9 277.9 301.1 278.6 301.2L278.7 297.4Z" fill="#CE9A57"/>
<path d="M266.7 344.4C266.7 344.4 266.1 347.5 267 348.9C268.1 350.7 268.8 351.2 268.8 351.2C268.8 351.2 269 351.3 269.1 351.1C269.3 350.9 268.1 349.4 268 348.8C267.9 347.9 268 346.9 268.3 346.8C268.6 346.7 268.7 348 268.7 348.3C268.7 348.6 268.7 349.3 269 349.4C269.3 349.5 269.8 348.6 269.4 347.2C269.1 345.8 269.2 344.9 269.2 344.9L268.9 343L266.7 344.4Z" fill="#EFD3A5"/>
<path d="M266.2 343.1L266.4 344.7C266.4 344.7 267 345.2 268 345.2C268.6 345.2 269.5 345.1 269.5 345.1L269.7 343.3L266.2 343.1Z" fill="#D1D5E8"/>
<path d="M273.5 322.1C273.5 322.1 273.5 318.5 272.7 315.8C271.9 312.9 271.1 312.5 271.1 312.5C271.1 312.5 269.3 314.1 267.5 323.5C266.4 329.4 265.9 343.4 265.9 343.4C265.9 343.4 266.5 343.7 267.5 343.8C268.9 343.9 269.8 343.4 269.8 343.4C269.8 343.4 270.5 336.1 271.8 328.9C272.2 327.2 273.5 322.1 273.5 322.1Z" fill="#5957D9"/>
<path d="M287.2 385.7C287.2 385.7 287.9 386.1 288.6 386.1C290.8 386 290.9 385.7 290.9 385.7C290.9 385.7 290.5 368.2 290.1 364.5C289.8 360.6 289.6 343.4 289.6 343.4L281.7 343.7C282 347.4 284.7 362.1 285 364.7C285.8 369.1 287.2 385.7 287.2 385.7Z" fill="#263238"/>
<path d="M290.4 364.4C290.1 361.3 290 351.4 289.9 346.4C289.6 345.3 289.3 344.3 288.9 343.4L282.7 343.7C282.5 344.1 282.3 344.7 282.1 345.1C282.8 350.2 285 362.4 285.2 364.7C285.3 365.7 285.5 367.2 285.6 369C285.9 369.1 286.1 369.1 286.4 369.1C288.2 369.1 289.5 367.1 290.4 364.4Z" fill="#2B3A3F"/>
<path d="M278.8 385.8C278.8 385.8 279.5 386.2 280.2 386.2C282.4 386.2 282.6 385.9 282.6 385.9C282.6 385.9 282.9 368.4 282.7 364.7C282.5 360.7 283 343.6 283 343.6L275.1 343.7C275.3 347.4 277.3 362.2 277.5 364.8C278 369.1 278.8 385.8 278.8 385.8Z" fill="#263238"/>
<path d="M282.7 364.5C282.6 361.4 282.8 351.5 283 346.5C282.7 345.4 282.5 344.4 282.1 343.5H275.9C275.6 343.9 275.5 344.5 275.2 344.9C275.6 350 277.3 362.3 277.5 364.6C277.6 365.6 277.7 367.1 277.8 368.9C278.1 369 278.3 369 278.6 369C280.4 369.1 281.9 367.2 282.7 364.5Z" fill="#2B3A3F"/>
<path d="M275.6 347.4C275.4 345.2 275.3 343.6 275.3 343.6C275.3 343.6 277 336.3 284 336.7C291 337.1 290.1 343 290.1 343C290.1 343 290 344.9 289.9 347.6C287.9 348.5 285.3 348.4 283.2 348.4C281 348.4 277.5 348.5 275.6 347.4Z" fill="#72152B"/>
<path d="M296.7 343.8C296.7 343.8 297.3 346.9 296.4 348.3C295.3 350.1 294.6 350.6 294.6 350.6C294.6 350.6 294.4 350.7 294.3 350.5C294.1 350.3 295.3 348.8 295.4 348.2C295.5 347.3 295.4 346.3 295.1 346.2C294.8 346.1 294.7 347.4 294.7 347.7C294.7 348 294.7 348.7 294.4 348.8C294.1 348.9 293.6 348 294 346.6C294.4 345.2 294.2 344.3 294.2 344.3L294.5 342.4L296.7 343.8Z" fill="#EFD3A5"/>
<path d="M297.2 342.5L297 344.1C297 344.1 296.4 344.6 295.4 344.6C294.8 344.6 293.9 344.5 293.9 344.5L293.7 342.7L297.2 342.5Z" fill="#D1D5E8"/>
<path d="M289.9 321.6C289.9 321.6 289.9 318 290.7 315.3C291.5 312.4 292.3 312 292.3 312C292.3 312 294.1 313.6 295.9 323C297 328.9 297.5 342.9 297.5 342.9C297.5 342.9 296.9 343.2 295.9 343.3C294.5 343.4 293.6 342.9 293.6 342.9C293.6 342.9 292.9 335.6 291.6 328.4C291.3 326.6 289.9 321.6 289.9 321.6Z" fill="#5957D9"/>
<path d="M296 342.3C296 342.6 296.2 342.8 296.5 342.8C296.8 342.8 297 342.6 297 342.3C297 342 296.8 341.8 296.5 341.8C296.2 341.8 296 342 296 342.3Z" fill="#A00B2F"/>
<path d="M292.3 312L285.8 310.5C285.8 310.5 284.8 310.2 282.3 310.2C280.3 310.2 278.6 310.5 278.6 310.5L271 312.6C271 312.6 271.2 318 272.6 320.9C274.2 324.4 274 328.2 274 328.2L275.2 346.4C275.2 346.4 277.5 347.4 282 347.4C284 347.4 290.3 346.6 290.3 346.6L291.6 328.4C291.6 328.4 291.7 327.2 292.5 322.6C293.1 319.3 292.3 312 292.3 312Z" fill="#5957D9"/>
<path d="M275.7 311.4C275.7 311.4 279.1 309.8 283.2 309.9C287.3 310 288.6 311.2 288.6 311.2C288.6 311.2 286.1 312.4 283.5 312.4C280.7 312.4 275.7 311.4 275.7 311.4Z" fill="#A80936"/>
<path d="M275.7 311.4C275.7 311.4 279.3 309.1 283.4 309.1C287.6 309.2 288.5 311.2 288.5 311.2C288.5 311.2 286 311.9 283.4 311.9C280.8 311.8 275.7 311.4 275.7 311.4Z" fill="#BA2246"/>
<path d="M286.5 290.3C286.5 290.9 287.2 291.3 287.6 291.5C288.1 291.8 288.6 292.1 288.9 292.5C289.9 293.7 289.9 295.5 289.9 296.8C289.9 296.9 289.8 297 289.8 296.8C289.7 296.4 289.7 295.9 289.7 295.6C289.7 295.3 289.6 294.7 289.5 294.4C289.3 293.6 289 292.9 288.4 292.3C287.8 291.7 286.4 291.5 286.5 290.3Z" fill="#14162C"/>
<path d="M286.5 290.1C286.5 290.8 286.8 291.3 287.2 291.8C287.5 292.4 288 292.9 288.3 293.4C288.6 293.9 288.9 294.5 289 295.1C289.1 295.7 289.1 296.3 288.9 296.9C288.9 297 288.8 297 288.8 296.9C288.8 296.6 288.8 296.3 288.9 295.9C288.9 295.6 288.9 295.2 288.8 294.9C288.6 294.2 288.3 293.7 287.9 293.1C287.6 292.6 287.2 292 286.9 291.5C286.5 291.1 286.4 290.6 286.5 290.1C286.5 290.1 286.5 290 286.5 290.1Z" fill="#14162C"/>
<path d="M286.5 290.4C286.3 290.9 286.6 291.5 286.8 292C287 292.5 287.1 293 287.1 293.5C287.1 294 287 294.5 286.8 294.7C286.7 294.9 286.5 295.1 286.4 295.3C286.3 295.5 286.1 295.6 285.9 295.8C285.8 295.8 285.8 295.7 285.9 295.7C286.1 295.5 286.2 295.4 286.4 295.2C286.6 295 286.7 294.8 286.8 294.6C287.1 294.2 287.1 293.7 287.1 293.3C286.9 292.3 286.2 291.2 286.5 290.4Z" fill="#14162C"/>
<path d="M286.5 290.7C286.3 292.5 284.8 293.8 283 294.2C281.8 294.5 280.6 294.2 279.4 293.9C278.8 293.7 278.2 293.5 277.7 293.2C277.2 292.9 276.6 292.7 276 292.6C275.5 292.6 275 292.8 274.6 292.9V292.8C275 292.5 275.6 292.3 276.1 292.4C276.7 292.5 277.2 292.7 277.7 292.9C278.9 293.4 280 293.9 281.3 293.9C283.2 294.2 285.5 293.5 286.3 291.6C286.3 291.1 286.4 290.9 286.5 290.7C286.5 290.6 286.5 290.6 286.5 290.7Z" fill="#14162C"/>
<path d="M286.5 290.6C286.6 291.3 285.7 291.9 285.3 292.2C284.3 292.7 283.3 292.7 282.3 292.7C281.1 292.7 280 292.4 278.9 292.2C278.4 292.1 277.8 291.9 277.3 291.9C276.9 291.8 276.3 291.9 275.7 291.9C275.6 291.9 275.6 291.7 275.7 291.7C276.7 291.4 277.7 291.7 278.7 291.9C279.7 292.2 280.8 292.3 281.9 292.5C282.9 292.6 283.9 292.6 284.9 292.3C285.3 292.2 285.7 292 286 291.7C286 291.4 286.4 291.1 286.5 290.6Z" fill="#14162C"/>
<path d="M286.5 290.7C286.5 291 286.3 291.2 286.2 291.3C285.9 291.6 285.6 291.7 285.2 291.8C284.8 292 284.2 292 283.8 292C283.4 292 282.8 292 282.5 291.9C281.6 291.7 281 291.2 280.3 290.7C280 290.4 279.6 290.1 279.2 289.9C278.8 289.6 278.3 289.6 278 289.3V289.1C278.4 289.1 278.8 289.4 279.1 289.5C279.4 289.6 279.8 289.9 280.1 290.2C280.7 290.7 281.3 291.2 282.1 291.4C282.9 291.7 283.8 291.7 284.6 291.6C285 291.6 285.4 291.4 285.7 291.3C286 291.1 286.4 290.9 286.5 290.7C286.5 290.7 286.5 290.6 286.5 290.7Z" fill="#14162C"/>
<path d="M286.5 290.7C285.8 291.7 284.5 291.3 283.6 290.9C283.1 290.6 282.6 290.4 282.2 290.1C281.9 289.9 281.6 289.8 281.2 289.7C280.9 289.6 280.5 289.6 280.2 289.5C280.1 289.5 280.2 289.3 280.2 289.3C281.4 289.1 282.4 290 283.3 290.5C283.8 290.8 284.3 291 284.9 291C285.2 291 285.4 291 285.7 290.9C286 290.9 286.2 290.8 286.5 290.7C286.5 290.7 286.5 290.6 286.5 290.7Z" fill="#14162C"/>
<path d="M286.5 290.6C286.4 291.4 286.2 292.1 285.6 292.8C285.1 293.5 284.4 294 283.7 294.3C282 295.2 280.2 295.1 278.4 294.9C277.5 294.8 276.7 294.8 275.9 295.1C275.1 295.4 274.5 296.1 274.1 296.7C274.1 296.7 274.1 296.9 274.1 296.8C274.6 296.2 275.1 295.7 275.8 295.4C276.5 295.1 277.2 295.1 278 295.1C279.7 295.3 281.6 295.4 283.2 294.8C284.2 294.5 284.9 293.8 285.5 293.1C286.1 292.3 286.4 291.5 286.5 290.6C286.5 290.5 286.5 290.6 286.5 290.6Z" fill="#14162C"/>
<path d="M286.4 291.1C286.2 292.3 285.6 293.4 284.7 294.2C283.7 295 282.5 295.4 281.3 295.7C280.2 296 279 296.2 277.9 296.6C277.6 296.7 277.3 296.8 276.9 296.9C276.5 297.1 276.1 297.2 275.8 297.5C275.2 298 275 298.8 274.8 299.6C274.8 299.6 274.8 299.8 274.9 299.7C275.2 298.8 275.3 298 276.1 297.5C276.4 297.2 276.9 297.2 277.3 297C277.6 296.9 277.9 296.8 278.2 296.7C279.4 296.4 280.6 296.1 281.8 295.7C282.9 295.4 284 294.9 284.9 294.2C285.9 293.4 286.4 292.2 286.4 291.1C286.5 291 286.5 291 286.4 291.1Z" fill="#14162C"/>
<path d="M285.8 295C285.4 295.9 285 296.7 284.4 297.4C283.7 298.2 283 298.7 282.3 299.4C281.6 300.1 281 300.7 280.5 301.6C280.1 302.4 279.9 303.2 279.9 303.9C279.9 304.2 279.9 304.3 279.9 304.6C279.9 304.7 280 304.7 280 304.6C280.1 303.7 280.2 302.9 280.5 302C280.9 301 281.6 300.4 282.2 299.7C282.9 299 283.6 298.4 284.3 297.7C285 297 285.4 296.2 285.7 295.4C285.7 295.3 285.7 295.1 285.8 295C285.8 294.9 285.8 295 285.8 295Z" fill="#14162C"/>
<path d="M284.6 295.2C284.4 295.6 284.2 296 283.9 296.3C283.6 296.6 283.3 297 282.9 297.3C282.2 297.9 281.6 298.3 280.9 298.9C280.2 299.4 279.7 300.1 279.2 300.8C278.8 301.6 278.5 302.4 278.3 303.2C278.3 303.4 278.2 303.6 278.2 303.8C278.2 303.9 278.3 304 278.3 303.9C278.6 303 278.6 302.2 279.1 301.4C279.5 300.5 280.1 299.9 280.8 299.3C281.5 298.7 282.2 298.3 282.9 297.7C283.5 297.1 284.1 296.5 284.6 295.8C284.5 295.5 284.5 295.4 284.6 295.2C284.6 295.2 284.6 295.3 284.6 295.2Z" fill="#14162C"/>
<path d="M285.5 297.1C285.2 297.5 285.1 298 284.9 298.3C284.6 298.7 284.3 299.1 284 299.4C283.4 300.1 282.8 300.8 282.3 301.6C281.8 302.3 281.3 303.1 281.1 303.9C280.8 304.9 280.8 305.8 281 306.8C281 306.9 281.1 306.8 281.1 306.7C280.9 305.7 281 304.8 281.4 303.7C281.7 302.8 282.2 302.1 282.7 301.4C283.2 300.7 283.8 300 284.3 299.3C284.6 299 284.9 298.6 285.1 298.2C285.2 298 285.3 297.5 285.5 297.1C285.5 297 285.6 297.1 285.5 297.1Z" fill="#14162C"/>
<path d="M285.5 298.9C285.4 299.6 284.9 300.2 284.5 300.7C284.1 301.3 283.5 301.9 283.3 302.4C282.5 303.6 282.1 305.2 282.6 306.6C282.6 306.7 282.7 306.6 282.7 306.5C282.6 306.2 282.6 305.7 282.5 305.4C282.5 305 282.6 304.5 282.7 304.2C282.9 303.5 283.2 302.9 283.7 302.2C284.3 301.3 285.3 300.3 285.5 298.9C285.5 298.8 285.5 298.9 285.5 298.9Z" fill="#14162C"/>
<path d="M286.3 298.3C286 299.7 286.3 301.2 286.4 302.6C286.5 303.4 286.5 304.1 286.3 304.9C286.2 305.2 286.1 305.7 286 306C285.8 306.3 285.7 306.8 285.6 307.1C285.6 307.1 285.6 307.3 285.7 307.3C285.9 307 286 306.7 286.1 306.3C286.3 306 286.4 305.5 286.4 305.2C286.6 304.4 286.6 303.8 286.6 303C286.5 301.4 285.9 299.9 286.3 298.3C286.3 298.2 286.3 298.3 286.3 298.3Z" fill="#14162C"/>
<path d="M287 297.2C286.7 298.6 287.2 300.2 287.3 301.5C287.4 302.3 287.5 303.1 287.6 303.8C287.6 304.2 287.6 304.7 287.6 305C287.6 305.4 287.4 305.9 287.3 306.2C287.3 306.2 287.3 306.4 287.4 306.3C287.6 306 287.7 305.6 287.7 305.3C287.8 304.9 287.8 304.5 287.8 304.1C287.8 303.2 287.7 302.5 287.5 301.7C287.3 300.4 286.8 298.8 287 297.2C287 297.2 287 297.3 287 297.2Z" fill="#14162C"/>
<path d="M287.8 295.9C287.7 296.6 287.8 297.2 287.9 298C288.1 298.7 288.2 299.4 288.5 300.1C288.7 300.9 288.9 301.5 288.9 302.3C288.9 303.2 288.7 303.9 288.6 304.7C288.6 304.7 288.7 304.9 288.7 304.8C289 304 289 303.3 289.1 302.5C289.1 301.7 288.9 301 288.8 300.2C288.3 298.8 287.7 297.4 287.8 295.9Z" fill="#14162C"/>
<path d="M369.3 87.5V97.5H389.3V77.5H369.3V87.5ZM381.4 93.9C381.5 93.8 381.8 93.6 382.2 93.5L382.8 93.2L382.9 93.4C383.1 93.7 383.4 94 383.7 94.1C384.3 94.4 385.2 94.4 385.6 94C385.8 93.8 385.9 93.7 385.9 93.5C385.9 93.2 385.9 93.2 385.7 93C385.5 92.7 385.3 92.6 384.3 92.2C383.3 91.8 382.8 91.5 382.4 91.1C382.1 90.8 382 90.5 381.9 90.1C381.8 89.8 381.8 89.1 381.9 88.8C382.1 87.8 382.9 87.1 384 86.9C384.3 86.8 385.1 86.9 385.5 87C386 87.1 386.4 87.3 386.7 87.7C386.9 87.9 387.1 88.2 387.2 88.3C387.2 88.3 386.3 88.9 385.8 89.3C385.8 89.3 385.7 89.2 385.6 89.1C385.3 88.8 385.1 88.6 384.6 88.6C384 88.6 383.6 88.9 383.6 89.4C383.6 89.5 383.6 89.7 383.7 89.7C383.9 90 384 90.1 384.8 90.5C386.2 91.1 386.9 91.5 387.2 92.1C387.6 92.7 387.7 93.8 387.5 94.5C387.2 95.4 386.4 95.9 385.3 96.1C385 96.2 384.2 96.2 383.7 96.1C382.9 95.9 382.1 95.6 381.7 95.1C381.5 94.9 381.2 94.4 381.2 94.3C381.2 94 381.3 93.9 381.4 93.9ZM373.6 87.6C373.6 87.2 373.6 86.8 373.6 86.8C373.6 86.8 375.2 86.8 377.1 86.8H380.6V87.6V88.4H378V95.8H376.2V88.4H373.6V87.6Z" fill="#1677C7"/>
<path d="M240.8 44.1C241.9 44.1 242.8 43.1 242.8 42.1C242.8 41 241.9 40.1 240.8 40.1C239.7 40.1 238.8 41.1 238.8 42.1C238.7 43.2 239.7 44.1 240.8 44.1Z" fill="#61DAFB"/>
<path d="M248.6 38.7C248.2 38.5 247.8 38.4 247.4 38.3C247.5 37.9 247.6 37.4 247.7 37C248 34.7 247.7 33 246.5 32.3C246.2 32.1 245.8 32 245.4 32C244.2 32 242.5 33 241 34.5C239.3 32.9 237.8 32 236.6 32C236.2 32 235.8 32.1 235.5 32.3C234.4 33 233.9 34.6 234.3 37C234.4 37.4 234.5 37.9 234.6 38.3C234.2 38.4 233.7 38.6 233.4 38.7C231.1 39.6 229.9 40.7 229.9 42.1C229.9 43.4 231.1 44.6 233.4 45.5C233.8 45.7 234.2 45.8 234.6 45.9C234.5 46.3 234.4 46.8 234.3 47.2C234 49.5 234.3 51.2 235.5 51.9C235.8 52.1 236.2 52.2 236.6 52.2C237.9 52.2 239.5 51.2 241 49.7C242.7 51.3 244.2 52.2 245.4 52.2C245.8 52.2 246.2 52.1 246.5 51.9C247.6 51.2 248.1 49.6 247.7 47.2C247.6 46.8 247.5 46.3 247.4 45.9C247.8 45.8 248.3 45.6 248.6 45.5C250.9 44.6 252.1 43.5 252.1 42.1C252 40.7 250.7 39.6 248.6 38.7ZM245.9 33.3C246.6 33.7 246.9 35 246.6 37C246.5 37.3 246.4 37.8 246.3 38.2C245.3 38 244.4 37.9 243.3 37.8C242.7 36.9 242.1 36.1 241.5 35.5C242.8 34.2 244.2 33.3 245.2 33.3C245.5 33.1 245.7 33.2 245.9 33.3ZM243.9 43.9C243.6 44.5 243.2 45 242.8 45.6C242.1 45.7 241.5 45.7 240.8 45.7C240.1 45.7 239.4 45.7 238.8 45.6C238.4 45 238 44.5 237.8 43.9C237.5 43.3 237.1 42.7 236.8 42.1C237.1 41.5 237.4 40.9 237.8 40.3C238.1 39.7 238.5 39.2 238.9 38.6C239.6 38.5 240.2 38.5 240.9 38.5C241.6 38.5 242.3 38.5 242.9 38.6C243.3 39.2 243.7 39.7 243.9 40.3C244.2 40.9 244.6 41.5 244.9 42.1C244.5 42.6 244.2 43.2 243.9 43.9ZM245.4 43.2C245.7 43.8 245.9 44.4 246.1 45C245.5 45.2 244.9 45.3 244.2 45.3C244.4 45 244.6 44.6 244.8 44.3C245 44 245.2 43.6 245.4 43.2ZM240.8 48.1C240.4 47.7 239.9 47.1 239.6 46.6C240 46.6 240.4 46.6 240.8 46.6C241.2 46.6 241.6 46.6 242 46.6C241.6 47.2 241.2 47.7 240.8 48.1ZM237.4 45.4C236.7 45.3 236.1 45.2 235.5 45.1C235.7 44.5 235.9 43.9 236.2 43.3C236.4 43.6 236.6 44 236.8 44.4C237 44.7 237.3 45.1 237.4 45.4ZM236.2 40.9C235.9 40.3 235.7 39.7 235.5 39.1C236.1 38.9 236.7 38.8 237.4 38.8C237.2 39.1 237 39.5 236.8 39.8C236.6 40.1 236.4 40.6 236.2 40.9ZM240.8 36C241.2 36.4 241.7 37 242 37.5C241.6 37.5 241.2 37.5 240.8 37.5C240.4 37.5 240 37.5 239.6 37.5C240 37 240.4 36.5 240.8 36ZM244.7 39.8L244.1 38.8C244.8 38.9 245.4 39 246 39.1C245.8 39.7 245.6 40.3 245.3 40.9C245.2 40.6 245 40.1 244.7 39.8ZM235 36.9C234.7 35 234.9 33.7 235.7 33.2C235.9 33.1 236.1 33 236.3 33C237.3 33 238.7 33.9 240 35.2C239.4 35.9 238.8 36.7 238.2 37.5C237.2 37.6 236.2 37.8 235.2 37.9C235.2 37.7 235.1 37.3 235 36.9ZM230.6 42.1C230.6 41.2 231.6 40.4 233.4 39.7C233.7 39.5 234.2 39.4 234.5 39.4C234.8 40.3 235.1 41.2 235.5 42.2C235.1 43.2 234.7 44.1 234.5 45C232.1 44.1 230.6 43.1 230.6 42.1ZM235.7 50.9C235 50.5 234.7 49.2 235 47.2C235.1 46.9 235.2 46.4 235.3 46C236.3 46.2 237.2 46.3 238.3 46.4C238.9 47.3 239.5 48.1 240.1 48.7C238.8 50 237.4 50.9 236.4 50.9C236.1 51.1 235.9 51 235.7 50.9ZM246.6 47.2C246.9 49.1 246.7 50.4 245.9 50.9C245.7 51 245.5 51.1 245.3 51.1C244.3 51.1 242.9 50.2 241.6 48.9C242.2 48.2 242.8 47.4 243.4 46.6C244.4 46.5 245.4 46.3 246.4 46.2C246.4 46.5 246.5 46.9 246.6 47.2ZM248.1 44.5C247.8 44.7 247.3 44.8 247 44.8C246.7 43.9 246.4 43 246 42C246.4 41 246.8 40.1 247 39.2C249.4 39.9 250.9 41 250.9 42C251 42.9 250 43.8 248.1 44.5Z" fill="#61DAFB"/>
<path d="M320.4 38.3C321.9 39 330.1 42.3 331.4 43C332.7 43.6 333.7 43.6 335.3 42.7C336.9 41.8 344.7 38.7 346.2 37.9C347 37.5 347.3 37.2 347.3 36.9V34.1C347.3 33.8 347 33.6 346.2 33.3C344.7 32.8 337.1 29.7 335.6 29.1C334.1 28.6 333.5 28.6 331.8 29.2C330.1 29.8 321.9 33 320.4 33.6C319.7 33.9 319.3 34.1 319.3 34.4H319.2V37.3C319.1 37.6 319.6 37.9 320.4 38.3ZM333.8 38.6L329.3 36.7L335.8 35.7L333.8 38.6ZM343.6 34.2L339.8 35.7L339.4 35.9L335.6 34.4L339.9 32.7L343.6 34.2ZM332.3 31.4L331.7 30.3L333.7 31.1L335.5 30.5L335 31.7L336.9 32.4L334.5 32.7L334 34L333.1 32.5L330.3 32.2L332.3 31.4ZM327.5 33.1C329.4 33.1 331 33.7 331 34.4C331 35.1 329.4 35.7 327.5 35.7C325.6 35.7 324 35.1 324 34.4C324 33.6 325.6 33.1 327.5 33.1ZM346.2 39.9C344.7 40.7 337 43.9 335.3 44.7C333.6 45.6 332.8 45.6 331.5 45C330.2 44.4 321.9 41.1 320.5 40.3C319.7 40 319.3 39.7 319.3 39.3V42.2C319.3 42.5 319.7 42.8 320.4 43.2C321.9 43.9 330.1 47.2 331.4 47.9C332.7 48.5 333.7 48.5 335.3 47.6C337 46.7 344.7 43.6 346.2 42.8C347 42.4 347.3 42.1 347.3 41.8V39C347.2 39.2 346.9 39.4 346.2 39.9ZM346.2 44.5C344.7 45.3 337 48.5 335.3 49.3C333.6 50.2 332.8 50.2 331.5 49.6C330.2 49 321.9 45.7 320.5 44.9C319.7 44.6 319.3 44.3 319.3 43.9V46.8C319.3 47.1 319.7 47.4 320.4 47.8C321.9 48.5 330.1 51.8 331.4 52.5C332.7 53.1 333.7 53.1 335.3 52.2C336.9 51.3 344.7 48.2 346.2 47.4C347 47 347.3 46.7 347.3 46.4V43.6C347.2 43.8 346.9 44 346.2 44.5Z" fill="#D82C20"/>
<path d="M103.5 166.9L95.4 173.9L88.5 186.2H94.7L103.5 166.9ZM104.6 168.6L101.1 178.2L107.7 186.5L94.9 188.7H115.9L104.6 168.6Z" fill="#0072C6"/>
<path d="M287 79.8C278.5 79.8 271.5 83.3 271.5 87.6C271.5 91.9 278.5 95.4 287 95.4C295.5 95.4 302.5 91.9 302.5 87.6C302.5 83.3 295.5 79.8 287 79.8ZM283 89.2C282.7 89.5 282.2 89.7 281.8 89.8C281.4 90 280.8 89.9 280.1 89.9H278.5L278.1 92.4H276.3L278 83.8H281.6C282.6 83.8 283.4 84.1 283.9 84.7C284.4 85.2 284.5 86.1 284.3 87C284.2 87.4 284.1 87.8 283.9 88.1C283.5 88.6 283.2 88.9 283 89.2ZM288.4 89.9L289.1 86.2C289.2 85.8 289.2 85.4 289 85.3C288.8 85.1 288.6 85 288 85H286.5L285.5 89.8H283.7L285.4 81.5H287.2L286.8 83.8H288.5C289.5 83.8 290.2 84 290.6 84.3C290.9 84.6 291.1 85.2 290.9 86L290.1 89.8L288.4 89.9ZM298.5 87.1C298.4 87.5 298.3 87.9 298.1 88.2C297.9 88.5 297.7 88.9 297.3 89.2C297 89.5 296.5 89.7 296.1 89.8C295.7 90 295.1 89.9 294.4 89.9H292.8L292.4 92.4H290.6L292.3 83.8H295.9C296.9 83.8 297.7 84.1 298.2 84.7C298.5 85.3 298.7 86.1 298.5 87.1ZM295.1 85.1H293.8L293.1 88.7H294.2C295 88.7 295.5 88.6 295.9 88.4C296.2 88.1 296.5 87.7 296.6 87C296.7 86.4 296.7 85.9 296.4 85.6C296.2 85.3 295.8 85.1 295.1 85.1ZM280.6 85.1H279.3L278.6 88.7H279.7C280.5 88.7 281 88.6 281.4 88.4C281.7 88.1 282 87.7 282.1 87C282.2 86.4 282.2 85.9 281.9 85.6C281.9 85.3 281.3 85.1 280.6 85.1Z" fill="#6181B6"/>
<path d="M46 129.2C45 129.2 44.3 130 44.3 130.9V138C44.3 139 45.1 139.7 46 139.7C47 139.7 47.7 138.9 47.7 138V130.8C47.6 130 46.9 129.2 46 129.2ZM59.7 122.8L60.9 120.6C61 120.5 60.9 120.3 60.8 120.3C60.7 120.2 60.5 120.3 60.5 120.4L59.3 122.6C58.3 122.2 57.1 121.9 55.9 121.9C54.7 121.9 53.6 122.2 52.6 122.6L51.4 120.4C51.3 120.3 51.2 120.2 51.1 120.3C51 120.4 50.9 120.5 51 120.6L52.2 122.8C49.9 124 48.3 126.3 48.3 129H63.7C63.7 126.2 62.1 124 59.7 122.8ZM52.5 126.1C52.2 126.1 51.9 125.8 51.9 125.5C51.9 125.2 52.2 124.9 52.5 124.9C52.8 124.9 53.1 125.2 53.1 125.5C53.1 125.8 52.9 126.1 52.5 126.1ZM59.5 126.1C59.2 126.1 58.9 125.8 58.9 125.5C58.9 125.2 59.2 124.9 59.5 124.9C59.8 124.9 60.1 125.2 60.1 125.5C60.2 125.8 59.8 126.1 59.5 126.1ZM48.3 129.5V140.6C48.3 141.6 49.1 142.4 50.1 142.4H51.3V146.2C51.3 147.2 52.1 147.9 53 147.9C54 147.9 54.7 147.1 54.7 146.2V142.4H57V146.2C57 147.2 57.8 147.9 58.7 147.9C59.7 147.9 60.4 147.1 60.4 146.2V142.4H61.6C62.6 142.4 63.4 141.6 63.4 140.6V129.5H48.3ZM67.7 130.8C67.7 129.8 66.9 129.1 66 129.1C65.1 129.1 64.3 129.9 64.3 130.8V137.9C64.3 138.9 65.1 139.6 66 139.6C66.9 139.6 67.7 138.8 67.7 137.9V130.8Z" fill="#A4C439"/>
<path d="M148.4 30.3C147.5 30.3 146.7 30.4 145.9 30.5C143.6 30.9 143.3 31.7 143.3 33.3V35.3H148.6V36H141.3C139.7 36 138.4 37 138 38.7C137.5 40.7 137.5 42 138 44.1C138.3 45.7 139.3 46.8 140.8 46.8H142.6V44.4C142.6 42.7 144.1 41.1 145.9 41.1H151.2C152.7 41.1 153.8 39.9 153.8 38.4V33.4C153.8 32 152.6 30.9 151.2 30.6C150.2 30.4 149.2 30.3 148.4 30.3ZM145.5 31.9C146 31.9 146.5 32.3 146.5 32.9C146.5 33.4 146.1 33.9 145.5 33.9C144.9 33.9 144.5 33.5 144.5 32.9C144.5 32.3 145 31.9 145.5 31.9Z" fill="url(#paint1_linear_2_8917)"/>
<path d="M154.4 35.9V38.2C154.4 40 152.8 41.6 151.1 41.6H145.8C144.3 41.6 143.2 42.8 143.2 44.3V49.3C143.2 50.7 144.4 51.6 145.8 52C147.5 52.5 149.1 52.6 151.1 52C152.4 51.7 153.7 50.9 153.7 49.3V47.3H148.4V46.6H156.3C157.9 46.6 158.4 45.6 158.9 43.9C159.4 42.2 159.4 40.7 158.9 38.5C158.6 36.9 157.8 35.8 156.3 35.8H154.4V35.9ZM151.4 48.7C151.9 48.7 152.4 49.1 152.4 49.7C152.4 50.2 152 50.7 151.4 50.7C150.9 50.7 150.4 50.3 150.4 49.7C150.5 49.2 150.9 48.7 151.4 48.7Z" fill="url(#paint2_linear_2_8917)"/>
<path opacity="0.444" d="M155.6 55.5C155.6 56.3 152.5 56.9 148.6 56.9C144.7 56.9 141.6 56.3 141.6 55.5C141.6 54.7 144.7 54.1 148.6 54.1C152.5 54.1 155.6 54.7 155.6 55.5Z" fill="url(#paint3_radial_2_8917)"/>
<path d="M135.8 136.9C139.2 139.9 143.6 141.8 148.6 141.8C152.1 141.8 156.2 140.7 159 138.6C159.4 138.3 159.1 137.7 158.6 137.9C155.5 139.3 152 139.9 148.9 139.9C144.3 139.9 139.8 138.6 136.1 136.5C135.8 136.3 135.5 136.7 135.8 136.9Z" fill="#FF9800"/>
<path d="M154.1 126.8C154.1 126.6 154 126.6 153.9 126.6H153.1C153 126.6 152.9 126.6 152.8 126.7C152.7 126.8 152.7 126.9 152.6 127L151.1 132.8L149.7 127C149.7 126.8 149.6 126.7 149.5 126.7C149.4 126.6 149.3 126.6 149.2 126.6H148.5C148.4 126.6 148.2 126.6 148.2 126.7C148.2 126.8 148.1 126.9 148 127L146.7 132.7L145.2 127C145.1 126.8 145.1 126.7 145 126.7C144.9 126.6 144.8 126.6 144.7 126.6H143.8C143.6 126.6 143.6 126.7 143.6 126.8C143.6 126.9 143.6 127.1 143.7 127.1L145.7 133.8C145.8 134 145.8 134.1 145.9 134.1C146 134.2 146.1 134.2 146.2 134.2H146.9C147.1 134.2 147.2 134.2 147.2 134.1C147.3 134 147.3 133.9 147.4 133.8L148.7 128.2L150 133.8C150 134 150.1 134.1 150.2 134.1C150.3 134.2 150.4 134.2 150.5 134.2H151.2C151.3 134.2 151.4 134.2 151.5 134.1C151.6 134 151.6 133.9 151.7 133.8L153.8 127.1C153.9 127 154 126.9 154.1 126.8C154.1 126.8 154.1 126.9 154.1 126.8ZM159 132.2C159 132.5 158.8 132.9 158.6 133C158.3 133.2 157.9 133.3 157.4 133.3C157.1 133.3 156.7 133.3 156.4 133.2C156.1 133.1 155.8 133 155.4 132.9C155.3 132.9 155.2 132.8 155.2 132.8C155.1 132.8 155.1 132.8 155 132.8C154.9 132.8 154.8 132.9 154.8 133.1V133.5C154.8 133.6 154.8 133.7 154.9 133.8C154.9 133.9 155 134 155.2 134.1C155.5 134.2 155.7 134.4 156.2 134.4C156.6 134.5 157.1 134.6 157.5 134.6C157.9 134.6 158.4 134.5 158.7 134.4C159 134.3 159.4 134.1 159.7 133.9C160 133.7 160.1 133.5 160.3 133.1C160.5 132.8 160.6 132.5 160.6 132.1C160.6 131.7 160.5 131.2 160.2 130.9C159.9 130.6 159.5 130.3 158.9 130L157.7 129.7C157.3 129.5 156.9 129.4 156.7 129.3C156.5 129.1 156.4 129 156.4 128.7C156.4 128.4 156.6 128.1 156.8 127.9C157.1 127.7 157.4 127.6 157.9 127.6C157.9 127.6 157.9 127.6 158 127.6C158.6 127.6 159.1 127.7 159.6 127.9C159.7 128 159.8 128 159.9 128C160 128 160.1 127.9 160.1 127.7V127.3C160.1 127.2 160.1 127.1 160 127C159.9 126.9 159.8 126.8 159.7 126.8C159.6 126.7 159.5 126.7 159.4 126.6C159.2 126.5 159.1 126.5 158.9 126.4C158.7 126.4 158.6 126.3 158.4 126.3C158.2 126.3 158.1 126.3 157.8 126.3C157.5 126.3 157.1 126.4 156.8 126.5C156.5 126.6 156.2 126.8 155.9 126.9C155.6 127.1 155.5 127.3 155.3 127.6C155.1 127.9 155 128.2 155 128.6C155 129 155.2 129.6 155.4 129.8C155.7 130.1 156.2 130.5 156.8 130.7L158 131C158.4 131.2 158.7 131.3 158.9 131.4C158.9 131.7 159 131.9 159 132.2Z" fill="#212121"/>
<path d="M159.8 140.7C161.3 139.4 161.7 136.8 161.4 136.4C161.1 136.1 158.4 135.7 156.8 136.8C156.5 137 156.6 137.2 156.9 137.1C157.9 137 159.9 136.8 160.2 137.2C160.5 137.6 159.8 139.5 159.4 140.4C159.2 140.8 159.5 140.8 159.8 140.7Z" fill="#FF9800"/>
<path d="M140.5 129.7C140.2 129.7 139.9 129.6 139.6 129.6C138.7 129.6 138 129.9 137.5 130.3C137 130.7 136.7 131.3 136.7 132.1C136.7 132.8 136.9 133.3 137.3 133.8C137.7 134.2 138.3 134.4 139 134.4C140 134.4 140.8 134 141.5 133.2C141.6 133.4 141.7 133.5 141.8 133.6C141.9 133.8 142 133.9 142.1 134C142.2 134.1 142.3 134.1 142.4 134.1C142.5 134.1 142.6 134.1 142.7 134L143.2 133.7C143.3 133.6 143.4 133.5 143.4 133.4C143.4 133.3 143.4 133.3 143.3 133.2C143.2 132.9 143.1 132.8 143 132.6C142.9 132.4 142.9 132.2 142.9 131.8V129C142.9 128 142.6 127.3 142.2 126.9C141.7 126.5 141 126.2 139.9 126.2C139.9 126.2 139.9 126.2 139.8 126.2C139.4 126.2 138.9 126.3 138.5 126.4C138.1 126.5 137.7 126.7 137.5 126.7C137.4 126.7 137.3 126.8 137.2 126.9C137.2 127 137.1 127.1 137.1 127.2V127.6C137.1 127.8 137.2 127.9 137.3 127.9C137.4 127.9 137.4 127.9 137.5 127.9C137.6 127.9 137.7 127.8 137.8 127.8C138.1 127.7 138.4 127.6 138.8 127.5C139.1 127.4 139.4 127.4 139.8 127.4C140.5 127.4 140.9 127.5 141.2 127.8C141.5 128.1 141.6 128.5 141.6 129.2V129.8C141.2 129.8 140.8 129.7 140.5 129.7ZM141.5 130.8V131.1C141.5 131.4 141.5 131.6 141.4 131.9C141.3 132.1 141.2 132.3 141.1 132.4C140.8 132.7 140.6 132.8 140.3 132.9C140 133 139.7 133.1 139.4 133.1C139 133.1 138.7 133 138.5 132.8C138.3 132.6 138.2 132.3 138.2 131.8C138.2 131.3 138.4 131 138.6 130.8C138.9 130.5 139.3 130.5 139.9 130.5C140.2 130.5 140.4 130.5 140.7 130.6C141.1 130.8 141.3 130.8 141.5 130.8Z" fill="#212121"/>
<path d="M287.4 177.7H289.8V180.2H291C291.6 180.2 292.1 180.1 292.7 179.9C293 179.8 293.3 179.6 293.6 179.6C293.3 179.2 293.1 178.6 293 178C292.9 177.2 293.1 176.3 293.6 175.7L293.9 175.4L294.2 175.7C295 176.3 295.7 177.2 295.8 178.2C296.8 177.9 297.8 178 298.7 178.5L299 178.7L298.8 179C298.1 180.4 296.6 180.8 295.2 180.7C293 186 288.4 188.5 282.8 188.5C279.8 188.5 277.2 187.4 275.7 184.8L275.4 184.4C274.9 183.3 274.7 182.1 274.8 180.7V180.4H276.9V178H279.3V175.6H284.3V173.2H287.3L287.4 177.7Z" fill="#364548"/>
<path d="M295.4 178.6C295.6 177.3 294.6 176.3 294 175.8C293.3 176.6 293.2 178.7 294.3 179.5C293.7 180 292.4 180.5 291.1 180.5H275.3C275.2 181.9 275.4 183.1 276 184.2L276.2 184.5C276.3 184.7 276.5 184.8 276.5 185C277.1 185 277.7 185.1 278.3 185.1C279.3 185.1 280.3 184.9 280.9 184.8C281 184.8 281.1 184.8 281.2 184.9C281.2 185 281.2 185.1 281.1 185.2C281 185.2 280.9 185.3 280.8 185.3C280.3 185.5 279.7 185.6 279 185.6H278.9H278.8C278.5 185.6 278.2 185.6 277.9 185.6C277.6 185.6 277.2 185.6 276.9 185.6C278.2 187.1 280.3 187.9 282.9 187.9C288.4 187.9 293 185.5 295.1 180C296.6 180.2 298 179.7 298.6 178.5C297.5 178.1 296.2 178.3 295.4 178.6Z" fill="#22A0C8"/>
<path d="M295.4 178.6C295.6 177.3 294.6 176.3 294 175.8C293.3 176.6 293.2 178.7 294.3 179.5C293.7 180 292.4 180.5 291.1 180.5H276.2C276.1 182.6 276.9 184.2 278.3 185.1C279.3 185.1 280.3 184.9 280.9 184.8C281 184.8 281.1 184.8 281.2 184.9C281.2 185 281.2 185.1 281.1 185.2C281 185.2 280.9 185.3 280.8 185.3C280.3 185.5 279.7 185.6 279 185.6C280.8 186.6 283.5 186.6 286.6 185.3C290.1 184 293.3 181.4 295.6 178.5C295.5 178.6 295.5 178.6 295.4 178.6Z" fill="#37B1D9"/>
<path d="M275.3 182.3C275.4 183 275.6 183.7 275.9 184.3L276.1 184.6C276.2 184.8 276.4 184.9 276.4 185.1C277 185.1 277.6 185.2 278.2 185.2C279.2 185.2 280.2 185 280.8 184.9C280.9 184.9 281 184.9 281.1 185C281.1 185.1 281.1 185.2 281 185.3C280.9 185.3 280.8 185.4 280.7 185.4C280.2 185.6 279.6 185.7 278.9 185.7H278.8C278.5 185.7 278.2 185.7 277.9 185.7C277.6 185.7 277.2 185.7 276.9 185.7C278.2 187.2 280.3 188 282.9 188C287.6 188 291.7 186.3 294 182.3H275.3Z" fill="#1B81A5"/>
<path d="M276.4 182.3C276.7 183.6 277.4 184.6 278.3 185.3C279.3 185.3 280.3 185.1 280.9 185C281 185 281.1 185 281.2 185.1C281.2 185.2 281.2 185.3 281.1 185.4C281 185.4 280.9 185.5 280.8 185.5C280.3 185.7 279.7 185.8 278.9 185.8C280.7 186.8 283.4 186.8 286.5 185.5C288.4 184.8 290.2 183.7 291.8 182.5L276.4 182.3Z" fill="#1D91B4"/>
<path d="M277.5 178.1H279.7V180.3H277.5V178.1ZM277.7 178.3H277.9V180.1H277.7V178.3ZM277.9 178.3H278.1V180.1H277.9V178.3ZM278.3 178.3H278.5V180.1H278.3V178.3ZM278.6 178.3H278.8V180.1H278.6V178.3ZM279 178.3H279.2V180.1H279V178.3ZM279.2 178.3H279.4V180.1H279.2V178.3ZM279.9 175.7H282.1V177.9H279.9V175.7ZM280.1 175.9H280.3V177.7H280.1V175.9ZM280.5 175.9H280.7V177.7H280.5V175.9ZM280.8 175.9H281V177.7H280.8V175.9ZM281.1 175.9H281.3V177.7H281.1V175.9ZM281.4 175.9H281.6V177.7H281.4V175.9ZM281.8 175.9H282V177.7H281.8V175.9Z" fill="#23A3C2"/>
<path d="M279.9 178.1H282.1V180.3H279.9V178.1ZM280.1 178.3H280.3V180.1H280.1V178.3ZM280.5 178.3H280.7V180.1H280.5V178.3ZM280.8 178.3H281V180.1H280.8V178.3ZM281.1 178.3H281.3V180.1H281.1V178.3ZM281.4 178.3H281.6V180.1H281.4V178.3ZM281.8 178.3H282V180.1H281.8V178.3Z" fill="#34BBDE"/>
<path d="M282.5 178.1H284.7V180.3H282.5V178.1ZM282.6 178.3H282.8V180.1H282.6V178.3ZM282.9 178.3H283.1V180.1H282.9V178.3ZM283.2 178.3H283.4V180.1H283.2V178.3ZM283.6 178.3H283.8V180.1H283.6V178.3ZM283.9 178.3H284.1V180.1H283.9V178.3ZM284.2 178.3H284.4V180.1H284.2V178.3Z" fill="#23A3C2"/>
<path d="M282.5 175.7H284.7V177.9H282.5V175.7ZM282.6 175.9H282.8V177.7H282.6V175.9ZM282.9 175.9H283.1V177.7H282.9V175.9ZM283.2 175.9H283.4V177.7H283.2V175.9ZM283.6 175.9H283.8V177.7H283.6V175.9ZM283.9 175.9H284.1V177.7H283.9V175.9ZM284.2 175.9H284.4V177.7H284.2V175.9ZM284.9 178.1H287.1V180.3H284.9V178.1ZM285.1 178.3H285.3V180.1H285.1V178.3ZM285.4 178.3H285.6V180.1H285.4V178.3ZM285.7 178.3H285.9V180.1H285.7V178.3ZM286 178.3H286.2V180.1H286V178.3ZM286.4 178.3H286.6V180.1H286.4V178.3ZM286.7 178.3H286.9V180.1H286.7V178.3Z" fill="#34BBDE"/>
<path d="M284.9 175.7H287.1V177.9H284.9V175.7ZM285.1 175.9H285.3V177.7H285.1V175.9ZM285.4 175.9H285.6V177.7H285.4V175.9ZM285.7 175.9H285.9V177.7H285.7V175.9ZM286 175.9H286.2V177.7H286V175.9ZM286.4 175.9H286.6V177.7H286.4V175.9ZM286.7 175.9H286.9V177.7H286.7V175.9Z" fill="#23A3C2"/>
<path d="M284.9 173.2H287.1V175.4H284.9V173.2ZM285.1 173.3H285.3V175.1H285.1V173.3ZM285.4 173.3H285.6V175.1H285.4V173.3ZM285.7 173.3H285.9V175.1H285.7V173.3ZM286 173.3H286.2V175.1H286V173.3ZM286.4 173.3H286.6V175.1H286.4V173.3ZM286.7 173.3H286.9V175.1H286.7V173.3Z" fill="#34BBDE"/>
<path d="M287.3 178.1H289.5V180.3H287.3V178.1ZM287.5 178.3H287.7V180.1H287.5V178.3ZM287.9 178.3H288.1V180.1H287.9V178.3ZM288.2 178.3H288.4V180.1H288.2V178.3ZM288.5 178.3H288.7V180.1H288.5V178.3ZM288.8 178.3H289V180.1H288.8V178.3ZM289.2 178.3H289.4V180.1H289.2V178.3Z" fill="#23A3C2"/>
<path d="M281.9 183.8C282.2 183.8 282.5 184.1 282.5 184.4C282.5 184.7 282.2 185 281.9 185C281.6 185 281.3 184.7 281.3 184.4C281.4 184 281.7 183.8 281.9 183.8Z" fill="#D3ECEC"/>
<path d="M281.9 183.9C282 183.9 282 183.9 282.1 183.9C282 184 282 184.1 282 184.2C282 184.3 282.1 184.3 282.2 184.3C282.3 184.3 282.3 184.3 282.4 184.2C282.5 184.4 282.4 184.6 282.1 184.7C281.9 184.8 281.7 184.7 281.6 184.4C281.5 184.2 281.6 184 281.9 183.9Z" fill="#364548"/>
<path d="M283.5 188C282 187.3 281.2 186.3 280.8 185.3C280.3 185.5 279.6 185.6 278.9 185.6C278.6 185.6 278.3 185.6 278 185.6C277.7 185.6 277.2 185.6 276.9 185.6C278.2 186.9 279.9 187.9 283 188C283.1 188 283.3 188 283.5 188Z" fill="#BDD9D7"/>
<path d="M281.3 186.3C281.1 186 280.9 185.7 280.8 185.3C280.3 185.5 279.6 185.6 278.9 185.6C279.4 185.9 280.1 186.2 281.3 186.3Z" fill="#D3ECEC"/>
<path d="M243.6 130.6L241.1 133L238.8 128.1L240 125.3C240.3 124.8 240.8 124.8 241.1 125.3L243.6 130.6Z" fill="#FFA000"/>
<path d="M241 132.8L231.7 141.6L238.7 128.1L241 132.8Z" fill="#F57F17"/>
<path d="M246.3 127C246.7 126.6 247.3 126.7 247.3 127.3L249.7 141.4L241.6 146.3C241.3 146.5 240.6 146.6 240.6 146.6C240.6 146.6 239.9 146.5 239.6 146.3L231.5 141.6L246.3 127Z" fill="#FFCA28"/>
<path d="M238.7 128.2L231.7 141.5L234.8 122C234.9 121.4 235.2 121.3 235.6 121.8L238.7 128.2Z" fill="#FFA000"/>
<path d="M188.2 96.4C188 96.4 187.9 96.4 187.8 96.4V97C188.1 97.1 188.3 97.2 188.5 97.2C189.2 97.2 189.8 96.8 190.4 96C191.2 95 191.8 93.2 192.2 90.9H191.2C191 92.4 190.7 93.7 190.2 94.9C190.2 94.6 190.1 94.2 189.9 93.6L189 90.9H187.9L189.1 94.5C189.3 95 189.4 95.4 189.4 95.5C189.4 95.8 189.3 96 189.1 96.2C188.8 96.3 188.5 96.4 188.2 96.4Z" fill="#105E86"/>
<path d="M203.6 89V95.6H206.7V94.8H204.6V89H203.6Z" fill="#DE8A03"/>
<path d="M181.7 90.3L183.4 95.6H184.3L186 90.3C186.2 92 186.3 93.7 186.3 95.6H187.4C187.3 93.6 187.1 91.3 186.9 89H185.6L183.9 93.9L182.3 89H180.9C180.6 91.1 180.5 93.3 180.4 95.6H181.4C181.5 93.7 181.6 91.8 181.7 90.3Z" fill="#105E86"/>
<path d="M202.8 92.2C202.8 90 201.9 88.9 200.2 88.9C199.3 88.9 198.7 89.2 198.2 89.8C197.7 90.4 197.4 91.3 197.4 92.5C197.4 93.6 197.7 94.5 198.1 95C198.5 95.5 199.1 95.7 200 95.7C200.3 95.7 200.6 95.7 200.9 95.6L202.5 96.6L202.9 95.8L201.7 95.2C201.8 95.1 201.9 95 202 94.9C202.5 94.3 202.8 93.4 202.8 92.2ZM200.2 94.9C199.7 94.9 199.2 94.7 199.1 94.3C198.8 93.9 198.7 93.2 198.7 92.2C198.7 90.5 199.2 89.7 200.3 89.7C200.8 89.7 201.3 89.9 201.4 90.3C201.7 90.7 201.8 91.4 201.8 92.4C201.6 94.1 201.1 94.9 200.2 94.9ZM196.2 92.4C196.2 92.4 195.2 91.9 194.8 91.6C194.3 91.3 194 91 194 90.6C194 90.3 194.1 90.2 194.3 90C194.5 89.8 194.7 89.7 195.1 89.7C195.5 89.7 196 89.8 196.4 90L196.7 89.4C196.2 89.1 195.7 88.9 195 88.9C194.4 88.9 194 89.1 193.5 89.4C193.2 89.7 193 90.2 193 90.7C193 91.3 193.3 91.7 193.8 92.1C193.8 92.1 194.8 92.6 195.2 92.9C195.7 93.2 196 93.5 196 93.9C196 94.2 195.8 94.4 195.7 94.6C195.4 94.8 195.2 94.9 194.7 94.9C194.3 94.9 193.8 94.8 193.3 94.6L193 95.2C193.6 95.6 194.2 95.8 194.9 95.8C195.6 95.8 196.1 95.6 196.6 95.3C197 95 197.2 94.5 197.2 93.9C196.9 93.1 196.7 92.8 196.2 92.4Z" fill="#DE8A03"/>
<path d="M191.8 92.4H190.8C190.6 93.3 190.4 94.1 190 94.8C190 94.5 189.9 94.1 189.7 93.6L189.3 92.4H188.2L188.9 94.5C189.1 95 189.2 95.4 189.2 95.5C189.2 95.8 189.1 95.9 188.9 96.2C188.7 96.4 188.5 96.5 188.1 96.5C187.9 96.5 187.8 96.5 187.7 96.5V97C188 97.1 188.2 97.2 188.4 97.2C189.1 97.2 189.7 96.8 190.3 96C191 95.1 191.5 93.9 191.8 92.4Z" fill="#0E5275"/>
<path d="M204.6 92.4H203.6V95.5H206.7V94.7H204.6V92.4Z" fill="#C17803"/>
<path d="M181.6 92.4H180.6C180.5 93.4 180.4 94.5 180.4 95.5H181.4C181.5 94.4 181.6 93.4 181.6 92.4ZM185.3 92.4H184.4L183.9 93.9L183.4 92.4H182.4L183.4 95.5H184.3L185.3 92.4ZM187.2 92.4H186.1C186.2 93.4 186.2 94.5 186.3 95.5H187.4C187.4 94.5 187.3 93.5 187.2 92.4Z" fill="#0E5275"/>
<path d="M202.8 92.4H201.7C201.7 92.4 201.7 92.4 201.7 92.5C201.7 94.2 201.2 94.9 200.1 94.9C199.6 94.9 199.1 94.7 198.9 94.3C198.6 93.9 198.5 93.3 198.5 92.4H197.4V92.5C197.4 93.6 197.7 94.5 198.1 95C198.5 95.5 199.1 95.7 200 95.7C200.3 95.7 200.6 95.7 200.9 95.6L202.5 96.5L202.9 95.8L201.7 95.2C201.8 95.1 201.9 95 202 94.9C202.5 94.3 202.8 93.5 202.8 92.4ZM196.1 92.4H194C194.3 92.6 194.8 92.8 195 93C195.5 93.3 195.8 93.6 195.8 94C195.8 94.3 195.6 94.5 195.5 94.7C195.2 94.9 195 95 194.5 95C194.1 95 193.6 94.9 193.1 94.7L192.8 95.2C193.4 95.6 194 95.8 194.7 95.8C195.4 95.8 195.9 95.6 196.4 95.3C196.8 95 197 94.5 197 93.9C197 93.3 196.7 92.9 196.2 92.5C196.2 92.4 196.2 92.4 196.1 92.4Z" fill="#C17803"/>
<path d="M200.1 80.1C199.9 80.1 199.8 80.1 199.8 80.1C199.9 80.2 200 80.3 200.1 80.4C200.2 80.5 200.2 80.6 200.3 80.7C200.4 80.6 200.5 80.5 200.5 80.4L200.4 80.2L200.1 80.1Z" fill="#105E86"/>
<path d="M208.5 89C208.2 88.7 208 88.4 207.6 88.2C207.3 88 206.8 87.8 206.6 87.5C206.8 87.5 206.9 87.4 207.1 87.4C207.4 87.3 207.6 87.3 207.9 87.3C208 87.3 208.2 87.2 208.2 87.2V87.1C208 86.9 207.9 86.8 207.8 86.7C207.4 86.4 206.9 86 206.5 85.7C206.2 85.5 205.9 85.4 205.6 85.3L205.3 85.1C205.1 84.9 205 84.7 205 84.5C204.7 84.1 204.6 83.5 204.4 83.1C204.2 82.8 204.1 82.5 204 82.2C203.2 80.9 202.3 80 201 79.2C200.7 79 200.4 78.9 200 78.9C199.8 78.9 199.6 78.9 199.4 78.9C199.2 78.8 199.1 78.7 199.1 78.6C198.7 78.3 197.4 77.7 197.2 78.5C197 79 197.5 79.5 197.7 79.8C197.9 80 198 80.1 198.1 80.4C198.2 80.6 198.2 80.7 198.2 80.8C198.3 81.1 198.5 81.5 198.6 81.8C198.7 82 198.8 82.1 198.9 82.3C199 82.4 199.1 82.4 199.1 82.6C199 82.8 199 83 198.9 83.2C198.6 84.1 198.7 85.2 199.2 85.9C199.3 86.1 199.6 86.5 200.1 86.3C200.4 86.1 200.4 85.7 200.4 85.3L200.5 85C200.6 85.3 200.8 85.4 200.8 85.7C201.1 86 201.5 86.5 201.8 86.7C202 86.9 202.1 87 202.4 87.1L202.2 86.9C202 86.7 201.9 86.6 201.8 86.5C201.5 86.1 201.2 85.5 200.9 85C200.7 84.7 200.6 84.5 200.6 84.2L200.5 83.9C200.4 84.1 200.2 84.2 200.2 84.4C200 84.7 200 85.2 199.9 85.6C199.6 85.5 199.6 85.3 199.5 85.1C199.2 84.6 199.2 83.6 199.4 83C199.5 82.8 199.7 82.3 199.6 82.1C199.5 81.9 199.4 81.8 199.3 81.8C199.2 81.6 199.1 81.5 199 81.3C198.8 80.9 198.7 80.3 198.5 79.9C198.4 79.7 198.2 79.5 198.1 79.3C197.9 79.1 197.8 79 197.7 78.7V78.4L197.8 78.3L198.3 78.4C198.6 78.5 198.8 78.7 199.1 78.8C199.2 78.9 199.4 79.1 199.4 79.1H199.6C199.9 79.2 200.1 79.1 200.4 79.2C200.8 79.4 201.2 79.5 201.5 79.7C202.5 80.4 203.4 81.3 204 82.4C204.1 82.6 204.2 82.7 204.3 82.9C204.5 83.2 204.6 83.7 204.8 84C205 84.3 205.1 84.8 205.4 85C205.5 85.2 206 85.3 206.2 85.3C206.4 85.4 206.6 85.5 206.7 85.6C207 85.8 207.2 85.9 207.5 86.1C207.7 86.2 208 86.4 208 86.5C207.4 86.5 206.9 86.6 206.4 86.8C206.3 86.9 206.1 86.9 206.1 87L206.3 87.3C206.4 87.5 206.6 87.6 206.7 87.8C206.9 87.9 207 88.1 207.2 88.1C207.5 88.3 207.9 88.4 208.2 88.6C208.4 88.7 208.5 88.9 208.7 88.9C208.8 89 208.9 89.1 209 89.1L208.9 88.8L208.5 89Z" fill="#105E86"/>
<path d="M200.1 80.1C199.9 80.1 199.8 80.1 199.8 80.1C199.9 80.2 200 80.3 200.1 80.4C200.2 80.5 200.2 80.6 200.3 80.7C200.4 80.6 200.5 80.5 200.5 80.4L200.4 80.2L200.1 80.1Z" fill="#0E5275"/>
<path d="M197.9 78.2C197.6 78.2 197.4 78.3 197.3 78.6C197.1 79.1 197.6 79.6 197.8 79.9C198 80.1 198.1 80.2 198.2 80.5C198.3 80.7 198.3 80.8 198.3 80.9C198.4 81.2 198.6 81.6 198.7 81.9C198.8 82.1 198.9 82.2 199 82.4C199.1 82.5 199.2 82.5 199.2 82.7C199.1 82.9 199.1 83.1 199 83.3C198.7 84.2 198.8 85.3 199.3 85.9C199.4 86.1 199.6 86.4 200 86.4C200.1 86.4 200.1 86.4 200.2 86.4C200.5 86.2 200.5 85.8 200.5 85.4L200.6 85.1C200.7 85.4 200.9 85.5 200.9 85.8C201.2 86.1 201.6 86.6 201.9 86.8C202.1 87 202.2 87.1 202.5 87.2L202.3 87C202.1 86.8 202 86.7 201.9 86.6C201.6 86.2 201.3 85.6 201 85.2C200.8 84.9 200.7 84.7 200.7 84.4L200.5 84.1C200.4 84.3 200.2 84.4 200.2 84.6C200 84.9 200 85.4 199.9 85.8C199.6 85.7 199.6 85.5 199.5 85.3C199.2 84.8 199.2 83.8 199.4 83.2C199.5 83 199.7 82.5 199.6 82.3C199.5 82.1 199.4 82 199.3 82C199.2 81.8 199.1 81.7 199 81.5C198.8 81.1 198.7 80.5 198.5 80.1C198.4 79.9 198.2 79.7 198.1 79.5C197.9 79.3 197.8 79.2 197.7 78.9V78.6L197.8 78.5L198.3 78.6C198.6 78.7 198.8 78.9 199.1 79C199.2 79.1 199.4 79.3 199.4 79.3H199.6C199.9 79.4 200.1 79.3 200.4 79.4C200.8 79.6 201.2 79.7 201.5 79.9C201.8 80.2 202.2 80.4 202.5 80.7V80.1C202.1 79.8 201.6 79.5 201.2 79.2C200.9 79 200.5 78.9 200.2 78.9C200 78.9 199.8 78.9 199.6 78.9C199.4 78.8 199.3 78.7 199.3 78.6C198.9 78.4 198.3 78.2 197.9 78.2Z" fill="#0E5275"/>
<path d="M109.4 96.1L109.6 96V96.1H109.4L109.5 96.4H109.4V96.1ZM110 96.1L109.9 96.4H109.8L109.7 96.1V96.4H109.6V96H109.7L109.8 96.3L110 96.1L110.1 96.4H110V96.1Z" fill="#E76F00"/>
<path d="M99.6 88.5C99.6 88.5 98.8 88.9 100.1 89.1C101.5 89.3 102.9 89.3 104.3 88.9C104.6 89.1 105 89.2 105.4 89.4C101.4 91.1 96.6 89.4 99.6 88.5ZM99.2 86.4C99.2 86.4 98.3 87 99.6 87.2C101.3 87.4 103.2 87.3 104.9 86.9C105.2 87.2 105.4 87.3 105.7 87.4C101 88.8 95.8 87.5 99.2 86.4Z" fill="#5382A1"/>
<path d="M103.2 82.6C104.2 83.7 102.9 84.7 102.9 84.7C102.9 84.7 105.3 83.4 104.2 81.8C103.2 80.3 102.4 79.6 106.7 77.1C106.7 77.2 99.9 78.9 103.2 82.6Z" fill="#E76F00"/>
<path d="M108.3 90.2C108.3 90.2 108.8 90.6 107.7 91C105.4 91.7 98.3 91.9 96.3 91C95.6 90.7 96.9 90.2 97.3 90.1C97.6 90 97.8 90 98 90C97.2 89.5 92.9 91.1 95.8 91.6C103.9 93 110.4 91 108.3 90.2ZM100 84.1C100 84.1 96.3 85 98.7 85.3C99.7 85.5 101.7 85.4 103.5 85.2C105 85.1 106.5 84.8 106.5 84.8C106.2 85 105.9 85.1 105.6 85.3C101.9 86.3 94.8 85.8 96.8 84.9C97.8 84.4 98.9 84.1 100 84.1ZM106.5 87.7C110.2 85.8 108.5 83.9 107.3 84.1C107.1 84.1 107 84.2 106.9 84.2C107 84.1 107.1 84 107.2 83.9C109.6 83.1 111.4 86.5 106.5 87.7C106.5 87.7 106.5 87.8 106.5 87.7Z" fill="#5382A1"/>
<path d="M104.2 73.1C104.2 73.1 106.3 75.2 102.2 78.4C99 80.9 101.4 82.4 102.2 84C100.3 82.3 98.9 80.8 99.9 79.4C101.3 77.4 105.1 76.4 104.2 73.1Z" fill="#E76F00"/>
<path d="M100.3 93C103.9 93.3 109.4 92.9 109.5 91.2C109.5 91.2 109.2 91.8 106.5 92.3C103.5 92.8 100.4 92.8 97.4 92.5C97.5 92.4 98 92.9 100.3 93Z" fill="#5382A1"/>
<path d="M99.8 99.5C99.5 99.8 99.2 99.9 98.8 99.9C98.7 99.9 98.6 99.9 98.5 99.9C98.4 99.9 98.3 99.8 98.2 99.7C98.1 99.6 98.1 99.5 98 99.4C97.9 99.3 98 99.2 98 99.1C98 98.7 98.3 98.2 99.3 98.2H99.7V99.5H99.8ZM100.7 100.5V97.2C100.7 96.3 100.3 95.8 99 95.8C98.4 95.8 97.8 96 97.3 96.1L97.5 96.7C97.9 96.5 98.4 96.4 98.8 96.4C99.5 96.4 99.8 96.7 99.8 97.2V97.6H99.5C97.9 97.6 97.2 98.2 97.2 99.2C97.2 100 97.6 100.5 98.6 100.5C99.1 100.5 99.6 100.2 100 99.9L100.1 100.4L100.7 100.5ZM103.8 100.5H102.7L101.3 95.9H102.3L103.2 98.7L103.4 99.6C103.8 98.4 104.1 97.2 104.3 95.9H105.3C105 97.6 104.5 99.1 103.8 100.5ZM108.3 99.5C108 99.8 107.7 99.9 107.3 99.9C107.2 99.9 107.1 99.9 107 99.9C106.9 99.9 106.8 99.8 106.7 99.7C106.6 99.6 106.6 99.5 106.5 99.4C106.5 99.3 106.5 99.2 106.5 99.1C106.5 98.7 106.8 98.2 107.8 98.2H108.2V99.5H108.3ZM109.3 100.5V97.2C109.3 96.3 108.9 95.8 107.6 95.8C107 95.8 106.4 96 105.9 96.1L106.1 96.7C106.5 96.5 107 96.4 107.4 96.4C108.1 96.4 108.4 96.7 108.4 97.2V97.6H108C106.4 97.6 105.7 98.2 105.7 99.2C105.7 100 106.1 100.5 107.1 100.5C107.6 100.5 108.1 100.2 108.5 99.9L108.6 100.4L109.3 100.5ZM96 101.3C95.7 101.7 95.3 102 94.9 102.2L94.5 101.7C94.8 101.5 95.1 101.3 95.3 100.9C95.4 100.6 95.5 100.4 95.5 99.6V94.4H96.5V99.5C96.4 100.5 96.3 101 96 101.3Z" fill="#E76F00"/>
<path d="M189.7 176.7C190.9 180.3 191.4 186.8 194.7 186.8C195 186.8 195.2 186.8 195.5 186.7C192.4 186 192 179.6 190.1 176.3C190 176.5 189.9 176.6 189.7 176.7Z" fill="url(#paint4_linear_2_8917)"/>
<path d="M190.2 176.3C192.1 179.6 192.5 185.9 195.6 186.7C195.9 186.6 196.1 186.6 196.4 186.5C193.6 185.1 192.8 178.9 190.7 176C190.4 176.1 190.3 176.2 190.2 176.3Z" fill="url(#paint5_linear_2_8917)"/>
<path d="M192.9 174.4C192.6 174.4 192.4 174.4 192.1 174.5C191.4 174.7 190.7 174.9 190 175.4C190.2 175.6 190.3 175.8 190.5 176.1C191.2 175.5 192 175.1 192.7 174.8C193 174.7 193.2 174.6 193.5 174.5C193.4 174.4 193.1 174.4 192.9 174.4Z" fill="#14559A"/>
<path d="M198.5 185.3C198.8 185 199.1 184.8 199.4 184.5C198.2 180.9 197.7 174.4 194.3 174.4C194 174.4 193.8 174.4 193.5 174.5C196.7 175.3 197.1 182.1 198.5 185.3Z" fill="url(#paint6_linear_2_8917)"/>
<path d="M193.6 174.5C193.4 174.4 193.2 174.4 193 174.4H194.4C194.1 174.4 193.8 174.4 193.6 174.5Z" fill="#3092C4"/>
<path d="M198.5 186C198.3 185.9 198.2 185.7 198.1 185.6C197.5 186 197 186.3 196.4 186.6C196.6 186.7 196.8 186.8 197 186.9C197.2 186.9 197.3 187 197.5 187C198.1 187 198.6 186.9 199.1 186.7C198.9 186.4 198.7 186.2 198.5 186Z" fill="#1969BC"/>
<path d="M192.8 174.6C195.7 176.1 195.8 182.8 198.1 185.6C198.3 185.5 198.4 185.3 198.5 185.3C197.1 182.2 196.7 175.3 193.5 174.5C193.3 174.5 193 174.6 192.8 174.6Z" fill="url(#paint7_linear_2_8917)"/>
<path d="M190.6 176C192.8 179 193.6 185.1 196.3 186.5C196.9 186.3 197.4 186 198 185.5C195.7 182.8 195.5 176 192.7 174.5C192 174.9 191.3 175.3 190.6 176Z" fill="url(#paint8_linear_2_8917)"/>
<path d="M188.3 176.6C188 177.4 187.6 178.4 187.2 179.7C188.1 178.5 188.9 177.5 189.7 176.7C189.6 176.4 189.4 176 189.4 175.7C189 176 188.7 176.3 188.3 176.6Z" fill="url(#paint9_linear_2_8917)"/>
<path d="M189.6 175.5C189.5 175.6 189.4 175.7 189.3 175.8C189.5 176.1 189.6 176.4 189.6 176.8C189.8 176.6 189.9 176.5 190 176.4C190 176 189.8 175.8 189.6 175.5Z" fill="#2B74B1"/>
<path d="M190 175.3C189.9 175.4 189.7 175.5 189.7 175.6C189.9 175.9 190 176.1 190.2 176.4C190.4 176.3 190.5 176.1 190.6 176.1C190.4 175.8 190.3 175.5 190 175.3Z" fill="#125A9E"/>
<path d="M209.4 174.1C207.8 180.3 204.4 185.2 201.7 186.5L201.5 186.6H201.4H201.3H201.2H201.1C201.2 186.7 201.4 186.7 201.5 186.7C204.2 186.7 206.8 181.9 211.3 174L209.4 174.1Z" fill="url(#paint10_linear_2_8917)"/>
<path d="M186.7 174.6L186.9 174.5H187H187.1H187.3H187.4H187.5C187.4 174.5 187.3 174.5 187.2 174.5C184.2 174.5 180.1 180.1 178.2 187.3H178.5C179.1 186.3 179.6 185.2 180.2 184.3C181.7 179 184.3 175.5 186.7 174.6Z" fill="url(#paint11_linear_2_8917)"/>
<path d="M188.3 176.6C188.6 176.3 189 176 189.3 175.7C189.2 175.5 189.1 175.4 189 175.3C188.9 175.6 188.6 176.1 188.3 176.6Z" fill="#0D82CA"/>
<path d="M188.6 174.6C188.8 174.8 188.9 174.9 189.1 175.3C189.2 175.2 189.2 175.2 189.3 175.1C189 174.9 188.8 174.7 188.6 174.6Z" fill="#0D82CA"/>
<path d="M180.3 184.1C183 178.8 184.3 175.5 186.6 174.6C184.3 175.5 181.7 179 180.3 184.1Z" fill="url(#paint12_linear_2_8917)"/>
<path d="M189.3 175.2C189.2 175.3 189.2 175.3 189.1 175.4C189.2 175.6 189.3 175.7 189.4 175.8C189.5 175.7 189.6 175.6 189.7 175.5C189.6 175.4 189.4 175.3 189.3 175.2Z" fill="#127BCA"/>
<path d="M181.6 187.1H181.4C184.2 187 185.4 185.6 186.1 183.6C186.5 182 187 180.8 187.3 179.7C186.2 181.4 185 183.3 183.8 185.4C183.2 186.6 182.3 187 181.6 187.1Z" fill="url(#paint13_linear_2_8917)"/>
<path d="M181.6 187.1C182.3 187 183.2 186.6 183.8 185.5C184.9 183.3 186.1 181.4 187.3 179.8C187.7 178.5 188.1 177.5 188.4 176.7C186 178.8 183.7 182.5 181.6 187.1Z" fill="url(#paint14_linear_2_8917)"/>
<path d="M180.3 184.1C179.8 185.1 179.3 186 178.6 187.1H179.6C179.9 186 180.1 185.1 180.3 184.1Z" fill="#05A1E6"/>
<path d="M187.6 174.4H187.4H187.2H187.1H187C184.7 175.3 183.4 178.7 180.7 183.9C180.4 184.9 180.3 185.8 180.1 186.9H180.3H181.3H181.7H181.8H181.9C184.1 182.3 186.3 178.6 188.7 176.5C189 175.9 189.2 175.5 189.5 175.2C189.3 174.9 189.2 174.7 189 174.5H188.9H188.8H188.7H188.6H188.5C188.4 174.5 188.4 174.5 188.3 174.5H188.2H188.1H188L187.6 174.4Z" fill="url(#paint15_linear_2_8917)"/>
<path d="M203.1 177.5C202.6 179.2 202.1 180.5 201.8 181.8C203.3 179.8 204.7 177.3 206.1 174.4C204.4 174.8 203.6 176 203.1 177.5Z" fill="url(#paint16_linear_2_8917)"/>
<path d="M201.8 186.4C201.7 186.4 201.6 186.5 201.5 186.5C204.3 185.3 207.7 180.2 209.2 174.1H208.9C205.4 180.6 204.2 185.1 201.8 186.4Z" fill="url(#paint17_linear_2_8917)"/>
<path d="M200 185.9C200.6 185.1 201.1 183.9 201.8 181.8C201 182.8 200.2 183.8 199.5 184.6C199.6 185 199.7 185.4 200 185.9Z" fill="#079AE1"/>
<path d="M200 185.9C199.8 186.2 199.6 186.3 199.3 186.5C199.2 186.5 199.2 186.6 199.1 186.6C199.4 186.8 199.6 186.9 200 186.9H200.2H200.3H200.6H200.7H200.8H200.9H201H201.2C200.5 186.6 200.2 186.3 200 185.9Z" fill="#1969BC"/>
<path d="M194.8 186.8C195.1 186.8 195.3 186.8 195.6 186.7C195.9 186.6 196.1 186.6 196.4 186.5C196.6 186.6 196.8 186.7 197 186.8C197.2 186.8 197.3 186.9 197.5 186.9L194.8 186.8ZM197.6 186.8C198.2 186.8 198.7 186.7 199.2 186.5C199.5 186.7 199.7 186.8 200.1 186.8H200.3H200.4H200.5H197.6Z" fill="#1E5CB3"/>
<path d="M200.3 186.8H200.5H200.6H200.7H200.8H200.9H201.1C201.2 186.9 201.4 186.9 201.5 186.9L200.3 186.8Z" fill="#1D60B5"/>
<path d="M199.4 184.5C199.1 184.8 198.8 185 198.5 185.3C198.3 185.4 198.2 185.6 198.1 185.6C198.2 185.8 198.4 185.9 198.5 186C198.7 186.2 198.9 186.3 199.2 186.5C199.3 186.5 199.3 186.4 199.4 186.4C199.7 186.2 199.8 186.1 200.1 185.8C199.7 185.4 199.6 185 199.4 184.5Z" fill="#175FAB"/>
<path d="M208 174.1H206.3H206L205.9 174.4C204.5 177.3 203.1 179.8 201.6 181.8C200.9 183.9 200.4 185.2 199.8 185.9C200.1 186.3 200.3 186.7 200.8 186.8H200.9H201H201.1L201.3 186.7C201.4 186.7 201.5 186.6 201.6 186.6C203.9 185.3 205.2 180.9 208.8 174.3L208 174.1Z" fill="url(#paint18_linear_2_8917)"/>
<path d="M187.6 174.4H187.8H187.9H188.1H188.2H188.3H188.4H188.5H188.6C188.9 174.5 189.1 174.7 189.3 174.9C189.4 174.8 189.5 174.7 189.6 174.6C189.1 174.3 188.6 174.1 187.9 174.1C187.8 174.4 187.7 174.4 187.6 174.4Z" fill="#7DCBEC"/>
<path d="M189.3 175.2C189.5 175.3 189.6 175.5 189.6 175.6C189.7 175.5 189.9 175.4 189.9 175.3C189.7 175.1 189.6 175 189.4 174.9C189.5 175 189.4 175.1 189.3 175.2Z" fill="#5EC5ED"/>
<path d="M187.6 174.4H187.9C188.5 174.4 189.1 174.6 189.6 174.9C190.1 174.5 190.7 174.4 191.6 174.4H187.4H187.6Z" fill="url(#paint19_linear_2_8917)"/>
<path d="M191.5 174.4C190.6 174.4 190 174.6 189.5 174.9C189.7 175 189.8 175.2 190 175.3C190.7 174.9 191.4 174.5 192.1 174.4C192.4 174.3 192.6 174.3 192.9 174.3H191.5V174.4Z" fill="url(#paint20_linear_2_8917)"/>
<path d="M201.7 181.7C202 180.6 202.5 179.2 203 177.4C203.4 175.9 204.3 174.7 205.9 174.3L206 174C203.4 174.2 202.3 175.5 201.7 177.4C200.7 180.8 200 183 199.4 184.4C200.2 183.7 200.9 182.8 201.7 181.7Z" fill="url(#paint21_linear_2_8917)"/>
<path d="M65.5 47.9L67.2 33L56.1 28.9L44.9 33L46.6 47.9L56.1 53.2L65.5 47.9ZM51.6 47.5H49L56 31.6L63 47.5H60.4L59 43.9H53L51.6 47.5Z" fill="#F44336"/>
<path d="M54 41.8H58.1L56 36.8L54 41.8Z" fill="#F44336"/>
<defs>
<radialGradient id="paint0_radial_2_8917" cx="0" cy="0" r="1" gradientUnits="userSpaceOnUse" gradientTransform="translate(284.114 389.445) scale(14.7578)">
<stop stop-color="#9E9E9E"/>
<stop offset="1" stop-color="#363636"/>
</radialGradient>
<linearGradient id="paint1_linear_2_8917" x1="136.954" y1="31.038" x2="149.135" y2="41.4257" gradientUnits="userSpaceOnUse">
<stop stop-color="#5A9FD4"/>
<stop offset="1" stop-color="#306998"/>
</linearGradient>
<linearGradient id="paint2_linear_2_8917" x1="153.797" y1="47.7965" x2="149.429" y2="41.6713" gradientUnits="userSpaceOnUse">
<stop stop-color="#FFD43B"/>
<stop offset="1" stop-color="#FFE873"/>
</linearGradient>
<radialGradient id="paint3_radial_2_8917" cx="0" cy="0" r="1" gradientUnits="userSpaceOnUse" gradientTransform="translate(148.54 55.4394) rotate(-90) scale(1.3717 6.02981)">
<stop stop-color="#B8B8B8" stop-opacity="0.498"/>
<stop offset="1" stop-color="#7F7F7F" stop-opacity="0"/>
</radialGradient>
<linearGradient id="paint4_linear_2_8917" x1="192.645" y1="174.275" x2="192.645" y2="189.909" gradientUnits="userSpaceOnUse">
<stop stop-color="#0994DC"/>
<stop offset="0.35" stop-color="#66CEF5"/>
<stop offset="0.846" stop-color="#127BCA"/>
<stop offset="1" stop-color="#127BCA"/>
</linearGradient>
<linearGradient id="paint5_linear_2_8917" x1="193.253" y1="173.9" x2="193.253" y2="189.89" gradientUnits="userSpaceOnUse">
<stop stop-color="#0E76BC"/>
<stop offset="0.36" stop-color="#36AEE8"/>
<stop offset="0.846" stop-color="#00ADEF"/>
<stop offset="1" stop-color="#00ADEF"/>
</linearGradient>
<linearGradient id="paint6_linear_2_8917" x1="196.425" y1="186.408" x2="196.425" y2="173.684" gradientUnits="userSpaceOnUse">
<stop stop-color="#1C63B7"/>
<stop offset="0.5" stop-color="#33BDF2"/>
<stop offset="1" stop-color="#33BDF2" stop-opacity="0.42"/>
</linearGradient>
<linearGradient id="paint7_linear_2_8917" x1="195.643" y1="172.229" x2="195.643" y2="188.873" gradientUnits="userSpaceOnUse">
<stop stop-color="#166AB8"/>
<stop offset="0.4" stop-color="#36AEE8"/>
<stop offset="0.846" stop-color="#0798DD"/>
<stop offset="1" stop-color="#0798DD"/>
</linearGradient>
<linearGradient id="paint8_linear_2_8917" x1="194.34" y1="172.359" x2="194.34" y2="190.058" gradientUnits="userSpaceOnUse">
<stop stop-color="#124379"/>
<stop offset="0.39" stop-color="#1487CB"/>
<stop offset="0.78" stop-color="#165197"/>
<stop offset="1" stop-color="#165197"/>
</linearGradient>
<linearGradient id="paint9_linear_2_8917" x1="187.101" y1="177.778" x2="189.6" y2="177.778" gradientUnits="userSpaceOnUse">
<stop stop-color="#33BDF2" stop-opacity="0.698"/>
<stop offset="1" stop-color="#1DACD8"/>
</linearGradient>
<linearGradient id="paint10_linear_2_8917" x1="206.246" y1="186.076" x2="206.246" y2="173.682" gradientUnits="userSpaceOnUse">
<stop stop-color="#136AB4"/>
<stop offset="0.6" stop-color="#59CAF5" stop-opacity="0.549"/>
<stop offset="1" stop-color="#59CAF5" stop-opacity="0.235"/>
</linearGradient>
<linearGradient id="paint11_linear_2_8917" x1="178.235" y1="180.95" x2="187.504" y2="180.95" gradientUnits="userSpaceOnUse">
<stop stop-color="#05A1E6" stop-opacity="0.247"/>
<stop offset="1" stop-color="#05A1E6"/>
</linearGradient>
<linearGradient id="paint12_linear_2_8917" x1="183.52" y1="186.396" x2="183.52" y2="173.706" gradientUnits="userSpaceOnUse">
<stop stop-color="#318ED5"/>
<stop offset="1" stop-color="#38A7E4"/>
</linearGradient>
<linearGradient id="paint13_linear_2_8917" x1="184.345" y1="186.464" x2="184.345" y2="174.096" gradientUnits="userSpaceOnUse">
<stop stop-color="#05A1E6"/>
<stop offset="1" stop-color="#05A1E6" stop-opacity="0.549"/>
</linearGradient>
<linearGradient id="paint14_linear_2_8917" x1="184.954" y1="187.111" x2="184.954" y2="176.66" gradientUnits="userSpaceOnUse">
<stop stop-color="#1959A6"/>
<stop offset="0.5" stop-color="#05A1E6"/>
<stop offset="0.918" stop-color="#7EC5EA"/>
<stop offset="1" stop-color="#7EC5EA"/>
</linearGradient>
<linearGradient id="paint15_linear_2_8917" x1="185.632" y1="186.364" x2="183.639" y2="175.062" gradientUnits="userSpaceOnUse">
<stop stop-color="#165096"/>
<stop offset="1" stop-color="#0D82CA"/>
</linearGradient>
<linearGradient id="paint16_linear_2_8917" x1="203.943" y1="180.007" x2="203.943" y2="174.101" gradientUnits="userSpaceOnUse">
<stop stop-color="#05A1E6"/>
<stop offset="0.874" stop-color="#0495D6"/>
<stop offset="1" stop-color="#0495D6"/>
</linearGradient>
<linearGradient id="paint17_linear_2_8917" x1="206.599" y1="173.567" x2="204.198" y2="187.187" gradientUnits="userSpaceOnUse">
<stop stop-color="#38A7E4" stop-opacity="0.329"/>
<stop offset="0.962" stop-color="#0E88D3"/>
<stop offset="1" stop-color="#0E88D3"/>
</linearGradient>
<linearGradient id="paint18_linear_2_8917" x1="204.334" y1="174.064" x2="204.334" y2="186.95" gradientUnits="userSpaceOnUse">
<stop stop-color="#168CD4"/>
<stop offset="0.5" stop-color="#1C87CC"/>
<stop offset="1" stop-color="#154B8D"/>
</linearGradient>
<linearGradient id="paint19_linear_2_8917" x1="186.788" y1="173.311" x2="201.771" y2="179.525" gradientUnits="userSpaceOnUse">
<stop stop-color="#97D6EE"/>
<stop offset="0.703" stop-color="#55C1EA"/>
<stop offset="1" stop-color="#55C1EA"/>
</linearGradient>
<linearGradient id="paint20_linear_2_8917" x1="190.449" y1="174.954" x2="202.284" y2="169.589" gradientUnits="userSpaceOnUse">
<stop stop-color="#7ACCEC"/>
<stop offset="1" stop-color="#3FB7ED"/>
</linearGradient>
<linearGradient id="paint21_linear_2_8917" x1="202.639" y1="174.764" x2="202.639" y2="187.369" gradientUnits="userSpaceOnUse">
<stop stop-color="#1DA7E7"/>
<stop offset="1" stop-color="#37ABE7" stop-opacity="0"/>
</linearGradient>
</defs>
</svg>
