<svg width="1200" height="817" viewBox="0 0 1200 817" fill="none" xmlns="http://www.w3.org/2000/svg">
<g clip-path="url(#clip0_2_9241)">
<path d="M985.35 188.12H287.79V684.23H985.35V188.12Z" fill="white"/>
<path d="M36.65 539.29C52.25 622.11 87.79 698.57 127.28 770.84L1059.21 769.01C1101.55 743.35 1144.07 689.89 1164.25 641.1C1184.41 592.33 1183.12 530.54 1153.02 488.59C1117.59 439.21 1103.71 303.1 1032.21 295.15C956.72 286.75 944.72 238.51 904.39 167.99C844.34 63.05 692.81 7.56002 596.23 83.58C541.53 126.64 510.38 208.76 445.47 227.15C382.65 244.96 321.76 193.44 257.57 183.39C182.37 171.61 105.95 221.3 66.54 293.65C27.13 365.97 21.07 456.47 36.65 539.29Z" fill="#F2F2F2"/>
<path d="M310.26 634.99C310.37 615.99 322.8 603.84 322.8 603.84C326.6 619.48 310.26 634.99 310.26 634.99Z" fill="#95C88B"/>
<path d="M328.47 626.18C345.94 618.7 362.04 625.25 362.04 625.25C349.22 634.96 328.47 626.18 328.47 626.18Z" fill="#95C88B"/>
<path d="M330.54 616.05C327.5 601.36 335.11 589.96 335.11 589.96C340.6 601.41 330.54 616.05 330.54 616.05Z" fill="#95C88B"/>
<path d="M260.14 579.51C286.75 586.59 301.03 609.73 301.03 609.73C278.29 609.75 260.14 579.51 260.14 579.51Z" fill="#95C88B"/>
<path d="M302.65 590.42C301.27 561.73 329.3 529.27 329.3 529.27C325.07 564.88 302.65 590.42 302.65 590.42Z" fill="#95C88B"/>
<path d="M302.51 508.72C303.7 531.98 292.43 549.81 292.43 549.81C288.47 531.36 302.51 508.72 302.51 508.72Z" fill="#95C88B"/>
<path d="M291.7 567C270.73 564.75 259.32 543.88 259.32 543.88C284.68 550.99 291.7 567 291.7 567Z" fill="#95C88B"/>
<path d="M246.46 654.7C262.49 644.49 279.43 648.35 279.43 648.35C268.36 660 246.46 654.7 246.46 654.7Z" fill="#95C88B"/>
<path d="M300.81 664.11C296.83 675.07 286.72 679.99 286.72 679.99C287.61 670.31 300.81 664.11 300.81 664.11Z" fill="#95C88B"/>
<path d="M298.11 661.02C286.18 668.36 273.03 665.5 273.03 665.5C281.11 657.09 298.11 661.02 298.11 661.02Z" fill="#95C88B"/>
<path d="M308.84 699.64C308.82 699.64 308.81 699.49 308.8 699.21C308.79 698.87 308.78 698.46 308.77 697.96C308.77 696.78 308.76 695.18 308.76 693.15C308.78 691.06 308.78 688.51 308.72 685.55C308.67 682.59 308.67 679.21 308.51 675.49C308.33 668.03 307.8 659.16 307.04 649.33C306.19 639.51 304.99 628.73 303.35 617.47C300.03 594.94 295.51 574.81 291.87 560.34C290.04 553.11 288.49 547.27 287.36 543.25C286.83 541.3 286.41 539.75 286.11 538.61C285.99 538.12 285.89 537.72 285.81 537.4C285.75 537.13 285.72 536.98 285.74 536.98C285.76 536.98 285.81 537.11 285.9 537.38C286.01 537.7 286.14 538.09 286.29 538.57C286.64 539.7 287.11 541.23 287.71 543.16C288.95 547.15 290.59 552.96 292.51 560.18C296.32 574.62 300.96 594.77 304.28 617.34C305.93 628.62 307.09 639.42 307.9 649.27C308.62 659.12 309.08 668.01 309.17 675.48C309.29 679.21 309.25 682.59 309.24 685.56C309.25 688.53 309.2 691.08 309.12 693.17C309.05 695.19 308.99 696.8 308.95 697.98C308.92 698.48 308.9 698.89 308.88 699.23C308.87 699.49 308.85 699.64 308.84 699.64Z" fill="#1D1E1C"/>
<path d="M270.34 638.92C270.49 638.71 278.96 644.26 289.27 651.33C299.58 658.4 307.82 664.3 307.67 664.51C307.52 664.72 299.05 659.17 288.74 652.1C278.44 645.04 270.2 639.13 270.34 638.92Z" fill="#1D1E1C"/>
<path d="M307.68 641.98C307.64 641.93 308.1 641.43 308.98 640.56C310.02 639.56 311.28 638.34 312.75 636.92C316.15 633.73 320.52 629.63 325.35 625.1C330.19 620.57 334.56 616.47 337.96 613.28C339.45 611.88 340.73 610.69 341.78 609.7C342.69 608.86 343.22 608.42 343.26 608.46C343.31 608.51 342.87 609.03 342.04 609.95C341.21 610.87 339.97 612.17 338.43 613.75C335.33 616.91 330.94 621.17 326 625.78C321.07 630.39 316.53 634.49 313.2 637.41C311.54 638.87 310.18 640.04 309.22 640.83C308.27 641.61 307.72 642.02 307.68 641.98Z" fill="#1D1E1C"/>
<path d="M243.42 625.33C243.42 625.33 265.09 624.92 274.26 641.98C274.26 641.97 255.77 642.58 243.42 625.33Z" fill="#95C88B"/>
<path d="M273.02 616.63C273.02 616.63 290.67 629.22 287.86 648.38C287.86 648.38 272.65 637.84 273.02 616.63Z" fill="#95C88B"/>
<path d="M365.97 585.61C365.97 585.61 359.01 609.87 336.88 614.23C336.88 614.23 342.54 593.45 365.97 585.61Z" fill="#95C88B"/>
<path d="M263.39 495.42C263.39 495.42 291.04 513.46 287.98 542.79C287.98 542.79 264.18 527.73 263.39 495.42Z" fill="#95C88B"/>
<path d="M355.42 655.85C355.46 655.9 354.81 656.42 353.62 657.29C352.42 658.15 350.72 659.44 348.66 661.08C344.53 664.35 339.06 669.18 333.69 675.15C328.33 681.14 324.11 687.09 321.3 691.55C319.89 693.78 318.79 695.61 318.06 696.89C317.32 698.17 316.88 698.86 316.82 698.83C316.76 698.8 317.09 698.05 317.74 696.72C318.37 695.38 319.39 693.49 320.73 691.21C323.41 686.64 327.57 680.57 332.98 674.53C338.4 668.51 343.99 663.72 348.25 660.56C350.38 658.98 352.15 657.77 353.41 656.99C354.68 656.2 355.39 655.8 355.42 655.85Z" fill="#1D1E1C"/>
<path d="M331.36 673.87C327.83 655.2 337.71 640.9 337.71 640.9C340.68 661.46 331.36 673.87 331.36 673.87Z" fill="#95C88B"/>
<path d="M349.97 663.72C361.89 656.72 374.11 659.98 374.11 659.98C360.75 667.06 349.97 663.72 349.97 663.72Z" fill="#95C88B"/>
<path d="M268.52 701.89L278.89 770.07H339.17L353.16 702.88L268.52 701.89Z" fill="#5957D9"/>
<path d="M261.6 688.39V701.15C261.6 703.92 263.85 706.17 266.62 706.17H353.9C356.67 706.17 358.92 703.92 358.92 701.15V688.39H261.6Z" fill="#5957D9"/>
<path d="M785.85 350.05V432.82L757.51 463.38H785.85V610.92H1057.26V350.05H785.85Z" fill="white"/>
<path d="M1057.35 350.34H785.94V369.88H1057.35V350.34Z" fill="#F5F4F4"/>
<path d="M786.02 569.75V611.2H800.17H835.79H1057.35V569.75H786.02Z" fill="#ECEBEB"/>
<path d="M970 602.27C977.119 602.27 982.89 596.499 982.89 589.38C982.89 582.261 977.119 576.49 970 576.49C962.881 576.49 957.11 582.261 957.11 589.38C957.11 596.499 962.881 602.27 970 602.27Z" fill="#5957D9"/>
<path d="M970.52 592.89H966.66C965.95 592.89 965.38 592.32 965.38 591.61V587.75C965.38 587.04 965.95 586.47 966.66 586.47H970.52C971.23 586.47 971.8 587.04 971.8 587.75V591.61C971.8 592.31 971.23 592.89 970.52 592.89Z" fill="white"/>
<path d="M972.39 590.81V588.63L974.02 586.89C974.24 586.66 974.63 586.81 974.63 587.13V592.08C974.63 592.39 974.27 592.54 974.04 592.34L972.39 590.81Z" fill="white"/>
<path d="M922.21 598.55C917.25 593.59 917.25 585.54 922.21 580.58C927.17 575.62 935.22 575.62 940.18 580.58C945.14 585.54 945.14 593.59 940.18 598.55C935.22 603.51 927.17 603.51 922.21 598.55Z" fill="#5957D9"/>
<path d="M925.63 591.65L927.9 591.12C928.18 591.05 928.38 590.8 928.38 590.52V590.05C928.38 590.05 928.28 589.26 929.03 589.21C929.57 589.17 932.97 589.21 932.97 589.21C932.97 589.21 933.87 589.19 933.85 589.9V590.58C933.85 590.81 934 591.02 934.23 591.09L936.69 591.83C936.95 591.91 937.23 591.78 937.33 591.53L937.64 590.77C937.7 590.63 937.73 590.48 937.72 590.33C937.7 590.03 937.59 589.57 937.3 589.19C936.81 588.57 934.52 587.09 930.14 587.3C925.97 587.5 925.06 589.26 924.82 589.68C924.67 589.94 924.63 590.58 924.74 590.85C924.78 590.95 924.85 591.12 924.92 591.28C925.03 591.57 925.34 591.72 925.63 591.65Z" fill="white"/>
<path d="M892.39 602.26C899.443 602.26 905.16 596.543 905.16 589.49C905.16 582.437 899.443 576.72 892.39 576.72C885.337 576.72 879.62 582.437 879.62 589.49C879.62 596.543 885.337 602.26 892.39 602.26Z" fill="#5957D9"/>
<path d="M888.34 590.75C887.64 590.75 887.08 590.19 887.08 589.49C887.08 588.79 887.64 588.23 888.34 588.23C889.04 588.23 889.6 588.79 889.6 589.49C889.6 590.19 889.03 590.75 888.34 590.75Z" fill="white"/>
<path d="M892.26 590.75C891.56 590.75 891 590.19 891 589.49C891 588.79 891.56 588.23 892.26 588.23C892.96 588.23 893.52 588.79 893.52 589.49C893.51 590.19 892.95 590.75 892.26 590.75Z" fill="white"/>
<path d="M896.45 590.75C897.146 590.75 897.71 590.186 897.71 589.49C897.71 588.794 897.146 588.23 896.45 588.23C895.754 588.23 895.19 588.794 895.19 589.49C895.19 590.186 895.754 590.75 896.45 590.75Z" fill="white"/>
<path d="M785.94 350.34C785.94 350.34 786.35 350.33 787.18 350.32C788.02 350.32 789.25 350.31 790.88 350.3C794.16 350.29 799.02 350.28 805.34 350.26C818.04 350.24 836.66 350.21 860.37 350.17C907.87 350.13 975.76 350.06 1057.35 349.99H1057.71V350.35C1057.73 426.24 1057.75 515.62 1057.77 611.22V611.64H1057.35C1051.12 611.64 1044.4 611.64 1037.65 611.64C946.73 611.62 860.95 611.61 785.94 611.59H785.79L785.68 611.48L785.57 611.37V611.22C785.6 555.48 785.63 505.72 785.65 463.68L785.94 463.97C775.75 463.96 766.47 463.95 757.61 463.95H757.01L757.42 463.51C767.81 452.33 777.26 442.16 785.79 432.98L785.73 433.13C785.78 406.58 785.82 385.87 785.85 371.79C785.87 364.78 785.89 359.42 785.9 355.8C785.91 354.01 785.92 352.65 785.92 351.73C785.93 350.79 785.94 350.34 785.94 350.34C785.94 350.34 785.95 350.82 785.96 351.74C785.96 352.67 785.97 354.04 785.98 355.85C785.99 359.48 786.01 364.86 786.03 371.89C786.06 385.95 786.1 406.61 786.15 433.1V433.19L786.09 433.25C777.58 442.44 768.16 452.63 757.79 463.84L757.6 463.4C766.46 463.39 775.74 463.38 785.93 463.38H786.22V463.67C786.24 505.71 786.27 555.47 786.3 611.21L786.19 610.95L785.93 610.84C860.94 610.83 946.72 610.81 1037.64 610.79C1044.39 610.79 1051.11 610.79 1057.34 610.79L1056.92 611.21C1056.94 515.61 1056.96 426.23 1056.98 350.34L1057.34 350.7C975.84 350.62 908.03 350.56 860.59 350.52C836.85 350.48 818.2 350.45 805.48 350.43C799.12 350.41 794.25 350.4 790.95 350.39C789.31 350.38 788.06 350.37 787.21 350.37C786.38 350.35 785.94 350.34 785.94 350.34Z" fill="#263339"/>
<path d="M975.86 484.48C975.87 484.71 968.4 485.22 959.18 485.63C949.96 486.03 942.47 486.17 942.46 485.94C942.45 485.71 949.92 485.2 959.14 484.79C968.36 484.39 975.85 484.25 975.86 484.48Z" fill="white"/>
<path d="M894.33 425.03C895.79 417.01 897.72 408.77 902.66 402.29C907.6 395.81 916.34 391.55 924.06 394.16L933.58 399.68C931.62 421.83 927.1 443.75 920.15 464.86C919.47 466.93 918.72 469.08 917.18 470.63C914.09 473.76 909.05 473.47 904.69 472.97C899.42 472.36 893.27 471.15 891.01 466.34C889.92 464.03 890.03 461.35 890.19 458.8C890.92 447.47 892.3 436.19 894.33 425.03Z" fill="#1D1E1C"/>
<path d="M947.9 410.77L918.57 401.04C909.07 399.33 901.85 410.65 900.54 420.21C899.09 430.83 897.74 443.86 898.42 451.91C899.79 468.11 911.92 471.04 911.92 471.04C911.93 470.99 910.48 476.07 910.97 483.23C911.73 494.26 918.84 497.1 924.67 497.51C933.86 498.48 943.45 495.57 944.51 486.39L952.53 416.85C952.8 413.93 950.79 411.29 947.9 410.77Z" fill="#F9BF9D"/>
<path d="M911.92 471.04C911.92 471.04 923.56 472.59 934.7 466.95C934.7 466.95 927.55 477.75 911.64 475.08L911.92 471.04Z" fill="#F49A6C"/>
<path d="M915.6 404.98C916.76 407.04 918.47 408.73 920.15 410.39C922.84 413.04 925.53 415.7 928.22 418.35C930.13 420.24 932.05 422.13 934.19 423.77C936.09 425.22 938.13 426.46 940.18 427.69C942.31 428.97 943.4 432.29 945.53 433.58C946.01 433.87 947.57 433.69 948.08 434.06C947.98 437.65 947.93 449.06 947.89 453.6C947.83 460.76 945.27 479.85 945.27 479.85H951.37C956.15 479.12 961.2 473.62 962.2 468.89C963.14 464.46 962.91 458.31 963.2 454.68C963.95 445.37 962.13 435.95 961.52 426.63C961.27 422.87 961.02 419.05 959.69 415.52C957.81 410.52 953.95 406.53 949.79 403.19C945.01 399.35 939.6 396.13 933.62 394.77C927.64 393.41 921.04 394.09 915.95 397.51C915.16 398.04 914.36 398.71 914.15 399.63C913.38 401.89 914.44 402.92 915.6 404.98ZM948.21 434.2C948.44 434.63 948.26 435.74 948.21 434.2V434.2Z" fill="#1D1E1C"/>
<path d="M947.15 438.51C947.56 435.12 951.43 433.1 954.27 435.02C955.83 436.07 956.93 438.04 956.53 441.65C955.45 451.27 946.02 448.2 946.03 447.92C946.03 447.75 946.67 442.49 947.15 438.51Z" fill="#F9BF9D"/>
<path d="M949.37 444.61C949.42 444.58 949.52 444.75 949.79 444.91C950.05 445.07 950.52 445.21 951.04 445.08C952.1 444.82 953.13 443.3 953.38 441.58C953.5 440.71 953.41 439.85 953.18 439.13C952.97 438.39 952.57 437.85 952.06 437.7C951.56 437.53 951.17 437.79 951.02 438.05C950.86 438.3 950.9 438.5 950.85 438.51C950.82 438.53 950.66 438.33 950.78 437.94C950.84 437.75 950.98 437.54 951.23 437.38C951.48 437.22 951.83 437.16 952.18 437.24C952.92 437.37 953.51 438.13 953.76 438.93C954.06 439.73 954.18 440.7 954.04 441.68C953.76 443.61 952.57 445.31 951.13 445.56C950.43 445.66 949.89 445.39 949.63 445.13C949.36 444.84 949.34 444.62 949.37 444.61Z" fill="#F49A6C"/>
<path d="M952.34 449.02C952.27 450.07 951.36 450.85 950.31 450.78C949.26 450.71 948.48 449.8 948.55 448.75C948.62 447.7 949.53 446.92 950.58 446.99C951.63 447.07 952.42 447.98 952.34 449.02Z" fill="#263339"/>
<path d="M922 449.54C922.78 450.72 922.93 452.28 922.41 453.59C921.89 454.9 920.69 455.93 919.32 456.25C918.77 456.38 918.18 456.39 917.66 456.16C916.76 455.74 916.37 454.69 916.06 453.75C915.81 452.96 915.56 452.18 915.3 451.39C915.22 451.13 915.13 450.82 915.27 450.58C915.42 450.32 915.75 450.24 916.05 450.2C917.98 449.88 919.91 449.55 921.84 449.23" fill="#F49A6C"/>
<path d="M917.81 455.89C917.81 455.95 918.81 456.13 920.42 455.75C921.21 455.54 922.18 455.05 922.82 454.07C923.14 453.6 923.31 452.92 923.29 452.33C923.29 451.72 923.2 451.09 922.97 450.48C922.75 449.89 922.41 449.36 922 448.92L921.86 448.77L921.67 448.82C917.81 449.88 914.81 450.35 914.83 450.51C914.84 450.68 917.91 450.48 921.85 449.47L921.52 449.37C921.86 449.75 922.15 450.2 922.34 450.71C922.7 451.76 922.79 452.95 922.29 453.73C921.8 454.55 920.99 455.03 920.28 455.28C918.82 455.76 917.8 455.76 917.81 455.89Z" fill="#263339"/>
<path d="M938.56 410.83C944.59 415.14 949.76 420.65 953.67 426.94L948.47 435.76C939.64 434.93 938.59 434.03 932.37 427.71C926.15 421.39 913.78 408.8 913.09 399.96C921.45 402.3 931.49 405.79 938.56 410.83Z" fill="#1D1E1C"/>
<path d="M867.82 518.93C867.82 518.93 869.55 505.06 876.24 498.12C882.93 491.18 910.91 482.5 910.91 482.5C910.91 482.5 912.07 492.39 918.77 494.78C925.88 497.31 933.91 496.36 939.11 490.32C944.14 484.48 945.61 476.98 945.61 476.98C945.61 476.98 979.02 480.05 984.47 489.22C989.92 498.38 996.97 533.88 996.97 533.88L965.73 540.51L967.73 569.3L890.96 569.75L888.59 544.28L865.99 547.51L867.82 518.93Z" fill="#3C3C3B"/>
<path d="M959.52 542.53C959.47 542.53 959.43 542.04 959.41 541.15C959.39 540.26 959.37 538.98 959.37 537.39C959.37 534.22 959.42 529.84 959.52 525.01C959.62 520.17 959.75 515.8 959.88 512.63C959.95 511.05 960.01 509.76 960.07 508.88C960.13 507.99 960.19 507.5 960.24 507.5C960.29 507.5 960.33 507.99 960.35 508.88C960.37 509.77 960.39 511.05 960.39 512.63C960.39 515.8 960.34 520.18 960.24 525.02C960.14 529.86 960.01 534.24 959.88 537.41C959.81 538.99 959.75 540.28 959.69 541.16C959.63 542.04 959.57 542.53 959.52 542.53Z" fill="#263339"/>
<path d="M880.88 517.36C881.07 517.31 883.02 523.51 885.23 531.21C887.44 538.91 889.08 545.2 888.89 545.26C888.7 545.31 886.75 539.12 884.54 531.41C882.33 523.7 880.69 517.41 880.88 517.36Z" fill="#263339"/>
<path d="M980.97 487.02C980.99 487.15 979.49 487.42 977.21 488.29C974.93 489.15 971.91 490.72 969.1 493.16C966.3 495.61 964.32 498.38 963.15 500.52C961.97 502.66 961.49 504.11 961.37 504.07C961.32 504.05 961.41 503.68 961.61 503.02C961.79 502.35 962.16 501.41 962.7 500.29C963.77 498.05 965.75 495.14 968.63 492.63C971.52 490.13 974.67 488.58 977.04 487.82C978.22 487.44 979.21 487.2 979.9 487.11C980.59 487 980.97 486.97 980.97 487.02Z" fill="#263339"/>
<path d="M875.74 500.92C875.93 500.87 876.59 502.8 877.21 505.23C877.83 507.66 878.17 509.67 877.98 509.71C877.79 509.76 877.13 507.83 876.51 505.4C875.89 502.98 875.54 500.97 875.74 500.92Z" fill="#263339"/>
<path d="M960.24 507.5C960.27 507.73 942.52 510.12 920.61 512.84C898.69 515.56 880.9 517.58 880.87 517.35C880.84 517.12 898.58 514.73 920.5 512.01C942.42 509.29 960.22 507.27 960.24 507.5Z" fill="white"/>
<path d="M990.09 506.46C990.15 506.68 983.62 508.49 975.51 510.5C967.4 512.51 960.78 513.95 960.72 513.73C960.66 513.51 967.19 511.7 975.3 509.69C983.42 507.68 990.04 506.24 990.09 506.46Z" fill="white"/>
<path d="M995.15 525.78C995.2 526.01 987.56 527.83 978.08 529.85C968.6 531.88 960.88 533.33 960.83 533.11C960.78 532.88 968.42 531.06 977.9 529.04C987.38 527.02 995.1 525.56 995.15 525.78Z" fill="white"/>
<path d="M910.69 489.22C910.75 489.44 903.4 491.52 894.27 493.86C885.14 496.2 877.7 497.91 877.65 497.69C877.59 497.47 884.94 495.39 894.07 493.05C903.19 490.72 910.63 489 910.69 489.22Z" fill="white"/>
<path d="M959 536.72C959.01 536.95 943.12 538.08 923.5 539.24C903.87 540.4 887.96 541.16 887.94 540.93C887.93 540.7 903.82 539.57 923.45 538.41C943.07 537.25 958.99 536.49 959 536.72Z" fill="white"/>
<path d="M870.29 526.82C870.27 526.59 873.07 526.19 876.51 525.75C879.96 525.31 882.76 524.99 882.8 525.22C882.84 525.44 880.09 526.14 876.61 526.58C873.14 527.02 870.3 527.04 870.29 526.82Z" fill="white"/>
<path d="M957.85 560.27C957.85 560.33 956.99 560.42 955.43 560.53C953.72 560.64 951.5 560.79 948.83 560.97C943.11 561.35 935.48 561.86 927.05 562.42C918.63 563.08 911.01 563.68 905.29 564.12C902.62 564.33 900.4 564.5 898.69 564.64C897.13 564.75 896.27 564.78 896.26 564.73C896.25 564.67 897.11 564.53 898.66 564.32C900.21 564.11 902.46 563.84 905.23 563.54C910.79 562.93 918.48 562.21 926.99 561.59C935.5 560.98 943.21 560.58 948.8 560.39C951.59 560.29 953.85 560.23 955.42 560.22C956.98 560.2 957.85 560.22 957.85 560.27Z" fill="white"/>
<path d="M888.58 544.27L877.9 545.65L867.82 519.63L851.5 526.23C851.5 526.23 860.71 557.42 864.23 569.74L897.38 569.7L888.58 544.27Z" fill="#F9BF9D"/>
<path d="M889.72 564.58C887.63 562.28 885.72 560.06 884.23 557.84C882.72 555.64 881.57 553.52 880.68 551.7C879.8 549.88 879.2 548.35 878.79 547.29C878.38 546.23 878.17 545.64 878.11 545.65C878.07 545.66 878.19 546.28 878.52 547.38C878.85 548.47 879.39 550.04 880.22 551.91C881.06 553.78 882.18 555.95 883.68 558.21C885.16 560.48 887.1 562.77 889.19 565.06C891.27 567.36 891.76 567.52 893.21 569.75L894.05 569.72C892.59 567.41 891.8 566.88 889.72 564.58Z" fill="#F49A6C"/>
<path d="M867.82 519.64C867.82 519.64 867.88 508.26 866.88 505.05L858.84 487.08C858.84 487.08 856.77 485.81 855.78 489.39C854.81 492.92 857.93 496.66 857.93 496.66L858.17 501.37L854.91 498.72L848.64 486.98C848.64 486.98 844.32 478.43 843.2 479.79C842.08 481.15 842.45 483.89 844.31 487.58C846.17 491.27 848.53 495.95 848.53 495.95C848.53 495.95 849.17 497.44 846.95 495.28C844.73 493.12 839.91 482.68 838.92 481.38C837.92 480.08 836.56 476.25 834.4 477.11C832.24 477.97 835.01 482.56 835.01 482.56L841.92 498.04C841.92 498.04 837.91 492.18 837.19 491.19C836.47 490.2 834.8 486.84 833.49 485.14C832.18 483.43 830.75 482.77 829.79 483.18C828.07 483.92 828.59 485.54 828.59 485.54L835.97 498.34C835.97 498.34 839.66 504.08 839.65 504.52C839.64 504.96 836.43 502.62 836.43 502.62L833.34 498.68C833.34 498.68 829.99 492.77 828.24 493.1C826.48 493.42 826.8 494.73 826.8 494.73L833.02 505.48L842.04 517.08L851.68 526.66L857.25 524.86L867.82 519.64Z" fill="#F9BF9D"/>
<path d="M850.08 517.71C850.23 517.72 850.32 516.32 850.66 514.12C851.02 511.99 851.76 508.81 854.37 506.75C855.51 505.83 856.86 505.32 858.12 505.32H858.58L858.55 504.82C858.41 502.61 858.49 500.51 858.41 499.12C858.37 497.7 858.21 496.85 858.1 496.87C858.02 496.89 857.99 497.7 857.88 499.12C857.82 500.56 857.6 502.48 857.7 504.97L858.13 504.47C856.66 504.42 855.08 505.01 853.8 506.04C852.37 507.16 851.42 508.67 850.89 510.11C850.34 511.55 850.13 512.92 850.03 514.05C849.83 516.32 849.98 517.71 850.08 517.71Z" fill="#F49A6C"/>
<path d="M962.55 541.18L956.61 569.77L984.5 569.74C985.57 565.67 991.4 535.06 991.4 535.06L962.55 541.18Z" fill="#F9BF9D"/>
<path d="M898.32 319.06H629.92V61.08H898.32V319.06Z" fill="white"/>
<path d="M898.33 61.08H629.92V80.4H898.33V61.08Z" fill="#F5F4F4"/>
<path d="M898.32 278.06H629.99V319.06H643.99V357.31L679.21 319.06H898.32V278.06Z" fill="#ECEBEB"/>
<path d="M898.36 278.45C898.36 278.45 898.4 280.06 898.41 283.19C898.42 286.33 898.44 290.96 898.46 297.01C898.47 303.07 898.49 310.55 898.51 319.35V319.45C898.18 319.77 898.39 319.54 898.3 319.61H898.25H898.04H897.62H896.78C896.22 319.61 895.65 319.61 895.08 319.61C893.94 319.61 892.78 319.61 891.6 319.62C889.24 319.62 886.79 319.63 884.27 319.63C879.22 319.64 873.85 319.64 868.18 319.65C822.77 319.69 757.75 319.74 679.23 319.8L679.49 319.69C668.4 331.75 656.53 344.64 644.28 357.95L643.63 358.66V357.7C643.63 345.74 643.62 332.72 643.62 319.45L644.01 319.84C639.66 319.84 634.82 319.84 629.94 319.84H629.75L629.62 319.68L629.54 319.58V319.44C629.53 260.94 629.52 196.85 629.51 130C629.51 106.74 629.51 83.81 629.51 61.46V61.05H629.92C730.83 61.08 823.01 61.11 898.33 61.13H898.66V61.46C898.6 127.73 898.55 181.97 898.52 219.66C898.48 238.49 898.45 253.18 898.43 263.18C898.41 268.16 898.39 271.98 898.38 274.56C898.39 277.13 898.36 278.45 898.36 278.45C898.36 278.45 898.33 277.13 898.31 274.56C898.3 271.98 898.28 268.17 898.26 263.18C898.24 253.18 898.21 238.49 898.17 219.66C898.14 181.97 898.09 127.73 898.03 61.46L898.36 61.79C823.04 61.81 730.86 61.84 629.95 61.87L630.36 61.46C630.36 83.81 630.36 106.74 630.36 130C630.35 196.85 630.34 260.94 630.33 319.44L630.25 319.21L629.94 319.05C634.82 319.05 639.66 319.05 644.01 319.05H644.4V319.44C644.4 332.71 644.39 345.73 644.39 357.69L643.74 357.44C656 344.14 667.87 331.25 678.98 319.21L679.09 319.1H679.24C757.75 319.16 822.78 319.21 868.19 319.25C873.86 319.26 879.23 319.27 884.28 319.27C886.8 319.27 889.25 319.28 891.61 319.28C892.79 319.28 893.95 319.28 895.09 319.29C895.66 319.29 896.23 319.29 896.79 319.29H897.63H898.05H898.26H898.31C898.26 319.36 898.5 319.13 898.2 319.45V319.35C898.22 310.55 898.24 303.08 898.25 297.01C898.27 290.96 898.29 286.32 898.3 283.19C898.32 280.06 898.36 278.45 898.36 278.45Z" fill="#263339"/>
<path d="M824.511 299.547C825.641 292.603 820.928 286.057 813.983 284.927C807.038 283.797 800.493 288.511 799.363 295.455C798.233 302.4 802.946 308.946 809.891 310.076C816.836 311.206 823.381 306.492 824.511 299.547Z" fill="#5957D9"/>
<path d="M812.44 300.94H808.65C807.94 300.94 807.37 300.37 807.37 299.66V295.87C807.37 295.16 807.94 294.59 808.65 294.59H812.44C813.15 294.59 813.72 295.16 813.72 295.87V299.66C813.72 300.36 813.14 300.94 812.44 300.94Z" fill="white"/>
<path d="M814.3 298.89V296.74L815.91 295.02C816.12 294.79 816.51 294.94 816.51 295.26V300.16C816.51 300.46 816.15 300.62 815.93 300.41L814.3 298.89Z" fill="white"/>
<path d="M764.68 306.54C759.77 301.63 759.77 293.68 764.68 288.77C769.59 283.86 777.54 283.86 782.45 288.77C787.36 293.68 787.36 301.63 782.45 306.54C777.54 311.45 769.58 311.45 764.68 306.54Z" fill="#5957D9"/>
<path d="M768.06 299.72L770.3 299.19C770.58 299.12 770.77 298.88 770.77 298.59V298.13C770.77 298.13 770.67 297.35 771.41 297.3C771.94 297.26 775.31 297.3 775.31 297.3C775.31 297.3 776.2 297.28 776.18 297.98V298.65C776.18 298.88 776.33 299.09 776.55 299.15L778.98 299.88C779.24 299.96 779.51 299.83 779.62 299.58L779.93 298.83C779.99 298.69 780.01 298.55 780.01 298.4C779.99 298.11 779.88 297.65 779.59 297.28C779.11 296.66 776.84 295.2 772.5 295.41C768.38 295.61 767.48 297.35 767.24 297.76C767.09 298.02 767.05 298.65 767.16 298.92C767.2 299.02 767.27 299.19 767.34 299.35C767.47 299.64 767.77 299.79 768.06 299.72Z" fill="white"/>
<path d="M747.47 300.461C749.078 293.673 744.878 286.867 738.091 285.259C731.303 283.651 724.497 287.851 722.889 294.638C721.281 301.426 725.481 308.232 732.268 309.84C739.056 311.448 745.862 307.248 747.47 300.461Z" fill="#5957D9"/>
<path d="M731.18 298.83C730.49 298.83 729.93 298.27 729.93 297.58C729.93 296.89 730.49 296.34 731.18 296.34C731.87 296.34 732.42 296.9 732.42 297.58C732.42 298.27 731.86 298.83 731.18 298.83Z" fill="white"/>
<path d="M735.05 298.83C734.36 298.83 733.81 298.27 733.81 297.58C733.81 296.89 734.37 296.34 735.05 296.34C735.73 296.34 736.3 296.9 736.3 297.58C736.3 298.27 735.74 298.83 735.05 298.83Z" fill="white"/>
<path d="M739.2 298.83C738.51 298.83 737.95 298.27 737.95 297.58C737.95 296.89 738.51 296.34 739.2 296.34C739.89 296.34 740.45 296.9 740.45 297.58C740.44 298.27 739.89 298.83 739.2 298.83Z" fill="white"/>
<path d="M712.98 132.47C715.43 129.38 718.46 126.39 719.09 122.5C719.67 118.92 718.1 114.99 719.71 111.74C721.69 107.73 727.37 106.95 729.84 103.23C731.03 101.43 731.32 99.14 732.49 97.33C734.5 94.24 738.62 93.24 742.3 93.46C745.98 93.67 749.57 94.82 753.25 94.89C758.31 95 763.43 93.1 768.33 94.31C773.75 95.65 777.24 100.21 780.94 104.61L785.73 109.69C786.71 110.55 787.74 111.34 788.87 111.99C790.83 113.13 793.06 113.87 794.77 115.36C798.44 118.55 798.46 125.03 794.81 128.24C798.75 129.29 801.73 133.2 801.69 137.28C801.67 139.52 800.84 141.67 800.28 143.84C799.71 146.01 799.43 148.41 800.42 150.42C801.41 152.43 804.11 153.71 806.01 152.52C805.46 155.45 803.51 158.09 800.86 159.47C801.96 160.5 803.47 161.08 804.98 161.07C801.36 170.87 790.48 176.44 780.05 177C769.62 177.55 759.45 174.07 749.58 170.64L721.14 164.68C718.65 164.23 717.48 161.28 717.39 158.75C717.31 156.22 717.82 153.56 716.81 151.23C715.42 148.05 711.57 146.51 710.12 143.35C708.48 139.75 710.53 135.57 712.98 132.47Z" fill="#1D1E1C"/>
<path d="M780.65 154.94C782.38 148.5 784.09 142.01 784.69 135.36C785.29 128.71 784.73 121.85 782.09 115.72C781.69 114.79 778.36 108.59 777.36 108.74C776.64 108.85 778.8 114.68 778.47 115.32C775.31 121.45 774.74 128.66 775.64 135.5C776.54 142.34 778.3 148.45 780.65 154.94Z" fill="#1D1E1C"/>
<path d="M780 129.48C779.68 112.75 769.68 98.99 752.96 99.77L751.42 99.93C735.92 101.56 724.26 114.83 724.64 130.41C725 144.91 725.58 160.93 726.48 168.63C728.36 184.58 744.59 185.38 744.59 185.38C744.63 185.38 745.47 198.29 745.47 198.29L783.99 195.57L780 129.48Z" fill="#F3AD91"/>
<path d="M744.61 185.38C744.61 185.38 754.74 184.91 764.75 177.04C764.75 177.04 760.98 189.19 744.9 189.43L744.61 185.38Z" fill="#8C6B63"/>
<path d="M753.49 155.86C753.09 155.88 753.36 158.54 751.28 160.67C749.2 162.81 746.33 162.81 746.35 163.18C746.33 163.35 747.04 163.63 748.24 163.54C749.42 163.46 751.1 162.9 752.37 161.59C753.64 160.28 754.07 158.67 754.05 157.57C754.03 156.45 753.67 155.83 753.49 155.86Z" fill="#263339"/>
<path d="M779.94 141.44C780.2 141.29 790.57 137.04 791.37 147.99C792.17 158.94 781.01 157.49 780.97 157.18C780.93 156.87 779.94 141.44 779.94 141.44Z" fill="#F3AD91"/>
<path d="M730.57 111.8C728.73 110.94 733.69 104.85 737.92 102.59C744.32 99.18 754.26 96.69 760.44 98.02C767.89 99.62 774.2 102.87 778.3 109.29C782.4 115.71 784.28 123.38 784.56 130.99C784.64 133.31 784.56 135.75 783.45 137.79C782.07 140.31 779.24 142.03 779.58 145.36C779.71 146.58 779.44 147.83 778.66 148.78C776.79 151.04 774.21 149.2 772.95 147.26C770.26 143.12 769.67 138.01 769.14 133.11C768.76 129.62 768.39 126.06 769.16 122.64C769.58 120.78 770.33 119 770.64 117.11C770.95 115.23 770.76 113.13 769.51 111.69C769.31 111.46 768.98 111.17 768.56 110.85C765.28 108.33 760.88 107.79 757.08 109.42C751.05 112 740.72 115.94 737.83 114.02C733.68 111.26 732.6 109.36 732.6 109.36L730.57 111.8Z" fill="#1D1E1C"/>
<path d="M759.78 96.57C753.63 94.94 746.78 95.49 741.33 98.78C738.44 100.52 735.89 103.18 735.19 106.48C734.49 109.78 736.13 113.69 739.33 114.76L739.55 114.88C744.33 116.15 747.33 115.33 751.89 113.42C755.73 111.81 759.06 109.16 762.9 107.57C766.99 105.88 771.58 105.45 775.91 106.35C771.41 101.85 765.93 98.19 759.78 96.57Z" fill="#1D1E1C"/>
<path d="M821.01 202.68L781.1 190.06L745.29 197L702.93 220.17L722.38 278.06H820.6L818.56 221.41L821.01 202.68Z" fill="#5957D9"/>
<path d="M744.61 198.85V192.62L784.42 186.79L784.01 198.85L743.84 203.16L744.61 198.85Z" fill="#5957D9"/>
<path d="M842.99 216.52C837.29 202.68 818.78 201.59 817.56 201.59L814.9 212.45L819.83 267.8L822.19 278.06H865.15C858.43 256.13 846.69 225.5 842.99 216.52Z" fill="#5957D9"/>
<path d="M702.93 220.17C702.93 220.17 697.73 225.67 696.96 240.59C696.19 255.51 694.47 278.06 694.47 278.06H725.89L727.95 255.88L702.93 220.17Z" fill="#5957D9"/>
<path d="M519.74 770.15H505.39L500.07 705.56H516.97L519.74 770.15Z" fill="#9B9A9A"/>
<path d="M644.08 770.15H658.43L663.75 705.56H646.85L644.08 770.15Z" fill="#9B9A9A"/>
<path d="M673.6 713.74L488.93 718.08L483.31 598.8C482.76 587.12 492.08 577.35 503.77 577.35H661.11C672.98 577.35 682.37 587.41 681.55 599.25L673.6 713.74Z" fill="#1D1E1C"/>
<path d="M683.07 598.39C683.07 598.4 682.9 598.42 682.55 598.43C682.16 598.44 681.66 598.46 681.04 598.48C679.65 598.5 677.7 598.53 675.22 598.57C670.11 598.59 662.81 598.61 653.81 598.65C635.74 598.68 610.76 598.48 583.2 599.12C555.62 600.04 530.63 599.88 512.56 599.61C503.52 599.47 496.21 599.29 491.16 599.14C488.68 599.06 486.73 598.99 485.34 598.94C484.71 598.91 484.21 598.89 483.83 598.87C483.49 598.85 483.32 598.83 483.32 598.82C483.32 598.81 483.5 598.8 483.84 598.79C484.23 598.79 484.73 598.78 485.35 598.78C486.74 598.79 488.69 598.8 491.17 598.82C496.28 598.87 503.58 598.94 512.57 599.03C530.64 599.15 555.61 599.22 583.18 598.3C610.76 597.66 635.74 597.96 653.81 598.08C662.81 598.16 670.1 598.22 675.22 598.27C677.7 598.3 679.65 598.32 681.04 598.34C681.67 598.36 682.17 598.37 682.55 598.38C682.9 598.36 683.07 598.37 683.07 598.39Z" fill="#263339"/>
<path d="M550.68 579.21C550.73 579.49 544.89 579.59 538.69 582.81C532.44 585.94 528.94 590.61 528.74 590.41C528.67 590.36 529.42 589.13 531.03 587.44C532.63 585.76 535.14 583.69 538.31 582.07C541.49 580.46 544.64 579.63 546.93 579.33C549.24 579.01 550.68 579.12 550.68 579.21Z" fill="#263339"/>
<g opacity="0.3">
<g opacity="0.3">
<path opacity="0.3" d="M527 577.35C532.47 583.46 541.4 586.13 549.51 587.37C564.1 589.59 579.04 590.78 593.59 588.3C602.91 586.71 612.15 583.62 621.59 584.27C631.25 584.93 640.95 589.49 650.27 586.85C655.26 585.43 659.62 581.91 662.06 577.33C662.84 575.87 663.32 573.82 662.06 572.75C661.42 572.21 660.03 574.09 659.19 574.02C615.43 570.68 570.77 580.41 527 577.35Z" fill="#000100"/>
</g>
</g>
<g opacity="0.3">
<g opacity="0.3">
<path opacity="0.3" d="M639.64 606.01C638.86 610.07 640.83 614.25 643.71 617.21C646.58 620.18 650.28 622.18 653.86 624.25C659.79 627.69 665.71 631.63 669.42 637.4C676.47 648.36 673.86 662.73 676.85 675.42C676.85 675.42 679.34 620.69 678.82 622.07" fill="#000100"/>
</g>
</g>
<path d="M583.93 243.27C590.45 249.77 593.44 259.61 591.66 268.64C590.8 273.03 588.98 277.94 591.46 281.66C593.92 285.34 599.53 285.9 601.86 289.67C604.6 294.1 601.2 299.82 601.75 305C602.27 309.86 606.86 313.94 611.75 313.9C605.56 317.85 598.26 320.04 590.91 320.17C589.34 317.58 587.77 314.99 586.2 312.4C588.01 315.14 586.98 319.05 584.65 321.36C582.31 323.67 579.01 324.69 575.78 325.31C560.38 328.27 543.68 323.5 532.16 312.85" fill="#263339"/>
<path d="M496.08 272.6C497.59 269.34 499.82 266.41 500.98 263C503.47 255.68 500.81 246.8 505.24 240.47C508.4 235.97 514.2 234.26 519.61 233.27C525.02 232.28 530.79 231.57 535.13 228.2C538.32 225.73 540.4 222.05 543.58 219.56C548.11 216.02 554.26 215.36 560 215.68C565.89 216.01 571.88 217.28 576.84 220.49C581.8 223.69 585.6 229.06 585.86 234.96C585.99 237.84 585.29 240.75 585.86 243.57C586.49 246.67 588.56 249.27 589.68 252.24C592.04 258.5 589.45 266.25 583.8 269.82L537.49 317C528.67 319.19 508.68 312.93 502.88 305.93C497.1 298.92 492.27 280.85 496.08 272.6Z" fill="#263339"/>
<path d="M583.5 263.1C583.23 251.12 575.91 236.14 563.95 236.92L526.39 244.81C522.76 245.05 519.91 248.02 519.83 251.66L520.18 341.46C520.09 341.48 520.01 341.49 519.92 341.51C519.92 341.51 527.31 367.15 552.2 360.48C557.14 359.16 559.59 353.92 560.79 348.48L561.04 348.52C561.08 347.87 561.11 347.26 561.15 346.64C562.23 340.35 561.82 334.34 561.82 334.34C562.2 327.11 562.32 324.14 562.32 324.21C562.32 324.21 577.69 322.29 581.66 302.51C583.63 292.67 583.79 276.41 583.5 263.1Z" fill="#F9BF9D"/>
<path d="M562.32 324.22C562.32 324.22 548.89 324.54 535.93 316.03C535.93 316.03 541.85 329.97 561.86 328.92L562.32 324.22Z" fill="#F49A6C"/>
<path d="M560.31 298.19C559.37 296.84 557.67 296.06 555.94 296.17C554.74 296.25 553.51 296.78 552.75 297.72C551.99 298.66 551.78 300.03 552.4 300.99C553.1 302.06 554.64 302.37 555.97 302.05C557.3 301.73 558.46 300.91 559.57 300.1C559.88 299.87 560.19 299.64 560.39 299.32C560.59 299 560.65 298.58 560.43 298.3" fill="#EE715F"/>
<path d="M553.58 293.19C554.03 293.18 553.91 296.17 556.38 298.39C558.84 300.62 562.04 300.41 562.04 300.83C562.07 301.02 561.31 301.38 559.96 301.36C558.64 301.35 556.74 300.85 555.23 299.49C553.72 298.13 553.13 296.37 553.07 295.14C553.01 293.89 553.37 293.16 553.58 293.19Z" fill="#263339"/>
<path d="M518.07 246.71C520.22 244.12 523.67 243.06 526.93 242.22C541 238.61 555.5 236.68 570.03 236.49C571.47 239.64 569.35 243.44 566.41 245.26C563.47 247.08 559.92 247.52 556.56 248.34C553.2 249.17 549.69 250.63 547.99 253.64C546.18 256.84 546.9 260.98 545.26 264.27C542.43 269.93 533.96 270.87 531.16 276.54C529.05 280.83 531.08 285.91 531.18 290.69C531.29 296.11 528.65 301.52 524.31 304.77C520.89 307.33 516.48 308.48 512.23 308.06C513.25 290.98 514.27 273.9 515.28 256.82C515.48 253.28 515.79 249.45 518.07 246.71Z" fill="#263339"/>
<path d="M478.84 285.55C481.8 283.46 485.41 281.78 486.88 278.47C489.02 273.65 485.7 267.29 488.82 263.04C491.67 259.16 498.6 260.19 501.29 256.2C503.39 253.09 501.77 249.92 502.77 247.08C503.76 244.24 508.2 242.18 511.12 242.87L530.34 279.18C531.17 290.7 532.62 296.95 529.43 303.25C527.68 306.71 525.53 310.03 524.56 313.78C523.59 317.53 524.06 321.97 526.91 324.6C512.93 324.06 500.8 315.28 489.63 306.85C485.69 303.88 481.75 300.91 477.81 297.94C476.58 297.01 475.3 296.03 474.66 294.62C473.17 291.33 475.88 287.64 478.84 285.55Z" fill="#263339"/>
<path d="M489.69 303.43C489.69 303.43 490.16 303.67 491.14 303.89C492.11 304.1 493.59 304.32 495.49 304.09C497.37 303.86 499.69 303.19 501.89 301.56C504.09 299.96 506.02 297.28 506.81 293.93C507.2 292.26 507.3 290.42 506.98 288.56C506.66 286.69 505.85 284.9 505.01 283.11C504.18 281.32 503.27 279.48 502.98 277.46C502.7 275.47 502.96 273.18 504.41 271.67C505.87 270.13 508.26 269.99 510.53 269.37C511.67 269.06 512.88 268.52 513.74 267.53C514.6 266.55 515 265.26 515.12 264.01C515.39 261.47 514.58 259.02 514.39 256.61C514.29 255.4 514.35 254.17 514.78 253.07C515.21 251.97 516.04 251.06 517.11 250.5C519.28 249.31 521.86 249.38 524.34 249.45C526.83 249.56 529.48 249.31 531.73 248.19C533.99 247.13 535.9 245.47 537.24 243.47C538.57 241.45 539.23 239.18 539.82 237.04C540.41 234.89 540.96 232.8 541.91 230.97C542.86 229.15 544.22 227.63 545.75 226.44C548.86 224.11 552.55 223.11 555.85 223.23C559.17 223.34 562.04 224.56 564.22 226.03C566.42 227.5 567.99 229.21 569.08 230.72C571.25 233.78 571.71 235.89 571.82 235.83C571.83 235.83 571.8 235.7 571.73 235.45C571.65 235.21 571.56 234.84 571.37 234.38C571.02 233.45 570.4 232.1 569.34 230.53C568.27 228.97 566.71 227.19 564.48 225.64C562.27 224.1 559.33 222.8 555.88 222.64C552.46 222.48 548.62 223.48 545.36 225.89C543.76 227.12 542.31 228.71 541.3 230.62C540.29 232.54 539.72 234.68 539.12 236.82C538.52 238.95 537.86 241.13 536.61 243.02C535.35 244.89 533.54 246.46 531.41 247.45C529.28 248.5 526.87 248.73 524.38 248.62C521.92 248.55 519.17 248.44 516.74 249.76C515.54 250.39 514.53 251.47 514.05 252.75C513.55 254.02 513.5 255.38 513.6 256.65C513.81 259.21 514.59 261.58 514.34 263.91C514.23 265.06 513.87 266.17 513.16 266.99C512.44 267.81 511.42 268.3 510.33 268.6C509.24 268.92 508.1 269.08 506.97 269.41C505.85 269.72 504.71 270.24 503.88 271.12C502.2 272.91 501.97 275.42 502.28 277.53C502.6 279.71 503.57 281.59 504.4 283.37C505.25 285.15 506.04 286.88 506.36 288.64C506.68 290.41 506.6 292.16 506.25 293.77C505.53 297 503.71 299.59 501.62 301.17C499.53 302.78 497.28 303.48 495.45 303.75C491.72 304.27 489.7 303.28 489.69 303.43Z" fill="#385A65"/>
<path d="M474.02 277.38C474.02 277.38 473.7 277.69 473.43 278.46C473.16 279.22 473.03 280.51 473.62 281.97C473.93 282.68 474.41 283.44 475.17 284.04C475.92 284.64 476.92 285.06 478.04 285.18C480.24 285.46 483 284.44 484.56 282.04C485.35 280.87 485.86 279.45 486.04 277.93C486.22 276.4 486.01 274.8 485.6 273.24C484.85 270.11 483.2 266.96 483.57 263.45C483.73 261.75 484.35 259.95 485.74 258.88C487.12 257.77 489.06 257.69 490.96 257.9C492.87 258.06 494.91 258.55 497.03 257.98C498.07 257.69 499.06 257.06 499.74 256.19C500.43 255.33 500.86 254.3 501.11 253.25C501.62 251.12 501.36 249.02 501.33 247.03C501.26 245.04 501.6 243.13 502.32 241.36C503.77 237.84 506.57 235.06 509.76 233.66C512.98 232.2 516.47 232.42 519.63 232.6C522.8 232.8 525.87 232.96 528.56 232.25C531.25 231.59 533.49 230.38 535.23 229.07C536.99 227.77 538.24 226.34 539.14 225.1C540.92 222.59 541.31 220.9 541.31 220.9C541.22 220.85 540.72 222.51 538.89 224.91C537.97 226.1 536.7 227.46 534.96 228.7C533.23 229.94 531.04 231.08 528.43 231.68C525.83 232.34 522.85 232.15 519.67 231.92C516.52 231.72 512.9 231.44 509.46 232.97C506.08 234.44 503.12 237.33 501.58 241.06C500.81 242.91 500.44 245 500.52 247.04C500.55 249.07 500.78 251.12 500.31 253.06C499.88 254.99 498.65 256.73 496.8 257.2C494.97 257.7 492.98 257.27 491.02 257.1C489.1 256.89 486.88 256.95 485.24 258.26C483.61 259.54 482.97 261.56 482.81 263.37C482.63 265.22 482.97 267.05 483.47 268.68C483.96 270.33 484.53 271.87 484.93 273.4C485.34 274.92 485.54 276.43 485.4 277.86C485.25 279.29 484.78 280.62 484.06 281.72C482.64 283.96 480.12 284.94 478.06 284.73C477.02 284.65 476.09 284.27 475.39 283.74C474.68 283.21 474.2 282.51 473.89 281.85C473.29 280.49 473.35 279.26 473.57 278.52C473.8 277.75 474.06 277.4 474.02 277.38Z" fill="#263339"/>
<path d="M619.05 302.84C618.92 302.82 619.64 304.26 618.58 306.46C618.05 307.49 617 308.7 615.36 309.04C613.76 309.38 611.67 308.73 610.44 307.05C609.82 306.23 609.53 305.14 609.59 304.01C609.65 302.87 610.01 301.71 610.53 300.57C611.54 298.31 613.34 295.94 613.47 292.85C613.65 289.86 612.5 286.65 610.2 284.35C609.06 283.19 607.68 282.25 606.15 281.57C604.62 280.87 602.94 280.56 601.3 280.28C599.66 280 598.04 279.76 596.57 279.22C595.11 278.68 593.84 277.75 593.11 276.46C592.38 275.17 592.18 273.66 592.24 272.2C592.31 270.73 592.65 269.33 593.1 267.97C593.99 265.27 595.14 262.68 595.3 260.01C595.47 257.36 594.75 254.91 593.62 252.99C592.49 251.03 590.89 249.73 589.55 248.64C588.2 247.55 587.04 246.62 586.23 245.72C584.56 243.94 584.41 242.48 584.3 242.54C584.29 242.54 584.3 242.63 584.33 242.79C584.37 242.95 584.4 243.2 584.53 243.5C584.73 244.12 585.18 244.99 585.99 245.93C586.79 246.88 587.93 247.87 589.25 248.99C590.56 250.11 592.07 251.4 593.11 253.27C594.16 255.12 594.81 257.46 594.62 259.96C594.45 262.47 593.32 264.98 592.38 267.73C591.91 269.11 591.53 270.6 591.45 272.16C591.37 273.71 591.57 275.38 592.4 276.85C593.22 278.33 594.69 279.39 596.26 279.97C597.84 280.56 599.51 280.8 601.14 281.08C602.78 281.36 604.37 281.66 605.8 282.31C607.24 282.94 608.54 283.83 609.61 284.91C611.77 287.05 612.85 290.04 612.7 292.81C612.62 295.63 610.94 297.92 609.89 300.29C609.36 301.49 608.98 302.73 608.94 303.98C608.89 305.22 609.24 306.47 609.95 307.39C611.37 309.24 613.66 309.9 615.43 309.48C617.24 309.05 618.33 307.7 618.84 306.59C619.37 305.44 619.38 304.43 619.31 303.79C619.23 303.14 619.05 302.84 619.05 302.84Z" fill="#263339"/>
<path d="M690.23 479.29L683.15 468.59L671.78 462.89L671.35 462.58C667.63 459.88 662.9 459 658.46 460.18C653.83 461.41 647.66 462.95 642.3 463.86L630.07 460.51V484.38L691.77 480.48L690.23 479.29Z" fill="#F9BF9D"/>
<path d="M689.8 478.64C689.87 478.56 688.86 477.65 687.19 476.26C685.52 474.87 683.18 472.98 680.57 470.94C679.72 470.28 678.9 469.65 678.12 469.04L678.05 468.98L677.97 468.96C675.44 468.49 673.24 468.1 671.67 467.86C670.1 467.62 669.16 467.52 669.14 467.6C669.12 467.69 670.03 467.95 671.58 468.32C673.12 468.69 675.3 469.17 677.82 469.69L677.66 469.62C678.43 470.23 679.25 470.87 680.09 471.54C682.7 473.58 685.1 475.4 686.85 476.69C688.62 477.97 689.74 478.72 689.8 478.64Z" fill="#F49A6C"/>
<path d="M684.99 480.72C685.09 480.53 681.12 478.14 676.12 475.36C675.37 474.95 674.65 474.55 673.96 474.17L673.88 474.13H673.8C669.27 473.88 665.91 473.82 665.9 474C665.89 474.18 669.23 474.55 673.75 474.88L673.59 474.83C674.28 475.22 675 475.62 675.74 476.04C680.75 478.81 684.89 480.91 684.99 480.72Z" fill="#F49A6C"/>
<path d="M762.05 411.75C759.98 410.59 757.38 411.15 755.97 413.06L706.28 480.36L627.65 481.43C624.51 481.62 620.7 487.96 623.51 491.04L712.3 489.83L763.56 418.61C765.2 416.32 764.49 413.12 762.05 411.75Z" fill="#E0DFDF"/>
<path d="M762.05 411.75C762.05 411.74 762.19 411.81 762.44 411.97C762.69 412.13 763.05 412.4 763.43 412.85C764.17 413.69 765.06 415.57 764.16 417.77C763.66 418.83 762.83 419.77 762.06 420.92C761.26 422.05 760.38 423.28 759.44 424.6C757.54 427.26 755.37 430.31 752.94 433.72C743.16 447.37 729.24 466.81 712.6 490.03L712.49 490.18H712.3C686.73 490.54 656.87 490.97 625.12 491.42C624.58 491.43 624.04 491.43 623.51 491.44H623.33L623.2 491.3C622.4 490.44 622.07 489.23 622.12 488.13C622.16 487.01 622.48 485.95 622.96 484.98C623.44 484.02 624.07 483.13 624.87 482.38C625.64 481.66 626.67 480.98 627.85 480.99C631.94 480.94 635.99 480.88 639.99 480.83C648 480.73 655.84 480.62 663.46 480.52C678.7 480.33 693.08 480.15 706.27 479.98L705.99 480.13C722.15 458.34 735.62 440.19 745.07 427.45C749.8 421.13 753.52 416.16 756.08 412.74C757.55 411.06 759.47 410.94 760.51 411.14C761.59 411.37 762.05 411.75 762.05 411.75C762.03 411.79 761.56 411.43 760.48 411.26C759.46 411.1 757.61 411.27 756.24 412.89C753.72 416.34 750.06 421.35 745.4 427.71C736.01 440.49 722.63 458.7 706.56 480.56L706.45 480.7H706.27C693.08 480.89 678.71 481.1 663.47 481.32C655.85 481.43 648.01 481.54 640.01 481.65C636 481.71 631.96 481.76 627.87 481.82C626.96 481.81 626.14 482.34 625.43 482.99C624.73 483.65 624.14 484.47 623.7 485.35C622.84 487.06 622.52 489.33 623.81 490.73L623.5 490.59C624.03 490.58 624.57 490.58 625.11 490.57C656.86 490.15 686.72 489.76 712.29 489.43L712 489.6C728.74 466.45 742.75 447.08 752.59 433.46C755.05 430.07 757.25 427.04 759.17 424.4C760.13 423.08 761.02 421.86 761.83 420.75C762.61 419.62 763.47 418.65 763.95 417.68C764.85 415.6 764.04 413.77 763.34 412.92C762.62 412.02 762.01 411.79 762.05 411.75Z" fill="#F4F4F4"/>
<path d="M762.05 411.75C762.05 411.74 762.19 411.81 762.44 411.97C762.69 412.13 763.05 412.4 763.43 412.85C764.17 413.69 765.06 415.57 764.16 417.77C763.66 418.83 762.83 419.77 762.06 420.92C761.26 422.05 760.38 423.28 759.44 424.6C757.54 427.26 755.37 430.31 752.94 433.72C743.16 447.37 729.24 466.81 712.6 490.03L712.49 490.18H712.3C686.73 490.54 656.87 490.97 625.12 491.42C624.58 491.43 624.04 491.43 623.51 491.44H623.33L623.2 491.3C622.4 490.44 622.07 489.23 622.12 488.13C622.16 487.01 622.48 485.95 622.96 484.98C623.44 484.02 624.07 483.13 624.87 482.38C625.64 481.66 626.67 480.98 627.85 480.99C631.94 480.94 635.99 480.88 639.99 480.83C648 480.73 655.84 480.62 663.46 480.52C678.7 480.33 693.08 480.15 706.27 479.98L705.99 480.13C722.15 458.34 735.62 440.19 745.07 427.45C749.8 421.13 753.52 416.16 756.08 412.74C757.55 411.06 759.47 410.94 760.51 411.14C761.59 411.37 762.05 411.75 762.05 411.75ZM762.05 411.75C762.03 411.79 761.56 411.43 760.48 411.26C759.46 411.1 757.61 411.27 756.24 412.89C753.72 416.34 750.06 421.35 745.4 427.71C736.01 440.49 722.63 458.7 706.56 480.56L706.45 480.7H706.27C693.08 480.89 678.71 481.1 663.47 481.32C655.85 481.43 648.01 481.54 640.01 481.65C636 481.71 631.96 481.76 627.87 481.82C626.96 481.81 626.14 482.34 625.43 482.99C624.73 483.65 624.14 484.47 623.7 485.35C622.84 487.06 622.52 489.33 623.81 490.73L623.5 490.59C624.03 490.58 624.57 490.58 625.11 490.57C656.86 490.15 686.72 489.76 712.29 489.43L712 489.6C728.74 466.45 742.75 447.08 752.59 433.46C755.05 430.07 757.25 427.04 759.17 424.4C760.13 423.08 761.02 421.86 761.83 420.75C762.61 419.62 763.47 418.65 763.95 417.68C764.85 415.6 764.04 413.77 763.34 412.92C762.62 412.02 762.01 411.79 762.05 411.75Z" stroke="black" stroke-width="0.5" stroke-miterlimit="10"/>
<path d="M523.86 333.81C519.62 334.28 513.71 337.01 510.65 339.98C505.65 344.82 502.02 351.45 500.07 357.31C497.45 365.18 498.62 396.25 498.62 405.25C498.62 414.25 500.91 448.06 502.04 453.68C503.17 459.3 501.31 467.67 498.7 473.11C494.02 482.87 501.32 487.87 501.32 487.87L597.81 487.15L597.42 483.55C596.76 477.28 599.09 470.89 596.7 465.06C594.2 458.95 591.4 449.29 592.26 438.02C593.49 421.95 598.29 410.97 595.35 401.65C590.85 387.42 575.99 355.07 558.04 341.26C558.04 341.26 543.88 338.23 540.68 337.11C533.4 334.55 529.54 333.17 523.86 333.81Z" fill="#5957D9"/>
<path d="M637.3 457.74L554.87 440.53L552.74 368.97C552.74 368.97 549.86 339.82 535.24 337.11L500.06 380.9C502.03 402.97 500.24 444.73 510.38 460.84C520.52 476.95 530.39 489.85 555.37 488.71C580.35 487.56 635.4 487.04 635.4 487.04L637.3 457.74Z" fill="#5957D9"/>
<path d="M682.66 633.39L670.42 723.55L702.44 728.8L725.22 648.8L682.66 633.39Z" fill="#F9BF9D"/>
<path d="M585.58 494.85C585.58 494.85 722.14 481.86 732.27 491.15C742.39 500.43 750.83 520.68 747.46 527.43C744.09 534.18 736.49 556.96 736.49 556.96L673.59 542.62L585.58 494.85Z" fill="#3C3C3B"/>
<path d="M673.59 556.95L648.25 595.61L678.07 614.93L710.42 565.35L673.59 556.95Z" fill="#F9BF9D"/>
<path d="M503.63 487.77C503.63 487.77 491.82 541.77 511.22 563.7C530.62 585.64 559.31 585.64 588.84 581.42C618.37 577.2 688.47 575.74 688.47 575.74C688.47 575.74 685.34 594.91 683.05 616.72C680.76 638.59 680.29 652.33 680.29 652.33L724.18 655.99C724.18 655.99 748.63 581.57 752.39 566.83C756.15 552.11 754.88 532.29 741.87 524.95C730.85 518.73 643.93 494.62 602.31 491.04L597.79 487.16L503.63 487.77Z" fill="#3C3C3B"/>
<path d="M704.93 726.46L706 722.55C692.41 721.13 680.29 716.09 670.66 707.32L659.81 730.77L732.16 762.94C734.89 756.03 704.93 726.46 704.93 726.46Z" fill="#EE715F"/>
<path d="M659.81 730.78L662.46 725.05L730.97 758.1C730.97 758.1 733.55 760.9 732.15 762.94L659.81 730.78Z" fill="#E0DFDF"/>
<path d="M703.96 726.01C703.79 726.35 701.95 725.72 699.69 726.05C697.42 726.33 695.83 727.42 695.57 727.14C695.28 726.93 696.77 725.11 699.51 724.75C702.24 724.37 704.19 725.73 703.96 726.01Z" fill="#263339"/>
<path d="M675.81 723.5C675.31 724.51 674.07 724.94 673.03 724.46C671.99 723.98 671.55 722.76 672.05 721.75C672.55 720.74 673.79 720.31 674.83 720.79C675.87 721.27 676.31 722.48 675.81 723.5Z" fill="#E0DFDF"/>
<path d="M703.53 725.53C703.51 725.59 702.93 725.51 701.89 725.23C700.89 724.93 699.27 724.5 697.83 723.07C697.48 722.71 697.15 722.29 696.88 721.82C696.61 721.36 696.33 720.83 696.27 720.16C696.18 719.47 696.67 718.63 697.4 718.37C698.11 718.06 698.95 718.17 699.59 718.47C702.08 719.66 704 722.38 704.06 725.53L702.99 725.38C703.16 724.84 703.4 724.29 703.7 723.76C705.33 720.82 708.64 719.24 711.54 719.33C711.9 719.34 712.33 719.36 712.76 719.57C713.19 719.78 713.51 720.22 713.58 720.64C713.73 721.48 713.43 722.18 713.06 722.73C712.32 723.83 711.27 724.51 710.29 724.96C708.27 725.86 706.46 725.68 705.32 725.7C704.17 725.64 703.53 725.6 703.53 725.53C703.52 725.46 704.17 725.36 705.33 725.26C706.47 725.12 708.2 725.15 709.97 724.25C710.84 723.81 711.73 723.16 712.31 722.23C712.6 721.8 712.76 721.24 712.66 720.82C712.57 720.42 712.23 720.28 711.56 720.29C708.98 720.27 706.11 721.68 704.68 724.26C704.41 724.72 704.2 725.21 704.05 725.68C703.96 725.96 703.66 726.12 703.37 726.03C703.14 725.96 702.99 725.75 702.99 725.53C702.97 722.83 701.26 720.37 699.2 719.33C698.22 718.81 697.08 719.26 697.16 720.11C697.24 720.99 697.84 721.93 698.39 722.57C699.58 723.9 701.08 724.44 702.03 724.85C703 725.24 703.55 725.46 703.53 725.53Z" fill="#263339"/>
<path d="M709.51 731.03C709.45 731.27 707.29 730.7 704.72 731.37C702.15 731.98 700.5 733.5 700.33 733.31C700.14 733.2 701.68 731.24 704.51 730.56C707.36 729.84 709.63 730.85 709.51 731.03Z" fill="#263339"/>
<path d="M713.55 735.62C713.53 735.87 711.57 735.81 709.31 736.49C707.04 737.15 705.43 738.26 705.28 738.07C705.13 737.92 706.62 736.41 709.07 735.69C711.52 734.96 713.59 735.41 713.55 735.62Z" fill="#263339"/>
<path d="M683.75 610.57L685.46 606.9C672.3 603.21 661.2 596.2 653.19 585.94L638.55 607.23L704.45 651.12C708.3 644.76 683.75 610.57 683.75 610.57Z" fill="#EE715F"/>
<path d="M638.55 607.23L642.13 602.03L704.1 646.14C704.1 646.14 706.17 649.33 704.45 651.11L638.55 607.23Z" fill="#E0DFDF"/>
<path d="M682.87 609.96C682.64 610.27 680.94 609.33 678.65 609.28C676.37 609.17 674.61 609.98 674.4 609.66C674.15 609.4 675.92 607.86 678.68 607.97C681.45 608.06 683.14 609.72 682.87 609.96Z" fill="#263339"/>
<path d="M655.54 602.75C654.88 603.66 653.58 603.88 652.63 603.22C651.69 602.57 651.46 601.3 652.12 600.38C652.78 599.47 654.08 599.25 655.03 599.91C655.97 600.56 656.2 601.83 655.54 602.75Z" fill="#E0DFDF"/>
<path d="M682.52 609.42C682.49 609.48 681.93 609.3 680.95 608.85C680.01 608.38 678.49 607.69 677.31 606.03C677.02 605.62 676.78 605.15 676.59 604.64C676.4 604.14 676.21 603.58 676.27 602.9C676.29 602.21 676.93 601.46 677.69 601.33C678.44 601.14 679.25 601.4 679.83 601.8C682.09 603.4 683.52 606.4 683.05 609.51L682.02 609.18C682.28 608.68 682.61 608.17 683 607.7C685.1 605.08 688.63 604.08 691.48 604.65C691.84 604.72 692.25 604.81 692.64 605.09C693.03 605.37 693.27 605.86 693.27 606.28C693.28 607.13 692.86 607.77 692.4 608.25C691.49 609.21 690.34 609.71 689.29 609.98C687.14 610.53 685.39 610.05 684.27 609.88C683.14 609.64 682.52 609.49 682.52 609.42C682.53 609.34 683.18 609.36 684.34 609.46C685.49 609.52 687.19 609.84 689.08 609.25C690.02 608.96 691 608.47 691.73 607.65C692.09 607.27 692.34 606.75 692.31 606.32C692.29 605.91 691.97 605.71 691.31 605.61C688.77 605.16 685.71 606.06 683.86 608.37C683.52 608.78 683.23 609.23 683 609.66C682.87 609.92 682.54 610.02 682.27 609.89C682.05 609.78 681.94 609.55 681.98 609.33C682.42 606.66 681.14 603.95 679.29 602.58C678.41 601.9 677.21 602.15 677.15 603C677.08 603.88 677.51 604.91 677.95 605.64C678.9 607.15 680.28 607.94 681.16 608.5C682.05 609.05 682.56 609.35 682.52 609.42Z" fill="#263339"/>
<path d="M687.5 615.85C687.4 616.08 685.36 615.15 682.73 615.37C680.09 615.54 678.21 616.76 678.08 616.55C677.91 616.41 679.75 614.74 682.67 614.54C685.57 614.31 687.64 615.68 687.5 615.85Z" fill="#263339"/>
<path d="M690.7 621.05C690.64 621.29 688.72 620.9 686.38 621.2C684.03 621.46 682.26 622.29 682.14 622.08C682.01 621.91 683.74 620.67 686.28 620.37C688.81 620.06 690.78 620.85 690.7 621.05Z" fill="#263339"/>
<path d="M480.1 328.46L441.95 293.33V157.8H173.54V415.78H441.95V328.46H480.1Z" fill="white"/>
<path d="M441.95 157.8H173.54V177.12H441.95V157.8Z" fill="#F5F4F4"/>
<path d="M173.61 374.78V415.78H392.73H427.95H441.94V374.78H173.61Z" fill="#ECEBEB"/>
<path d="M367.928 397.254C369.616 390.423 365.447 383.517 358.616 381.829C351.786 380.141 344.88 384.31 343.192 391.141C341.504 397.972 345.673 404.877 352.504 406.565C359.334 408.253 366.24 404.084 367.928 397.254Z" fill="#5957D9"/>
<path d="M356.06 397.66H352.27C351.56 397.66 350.99 397.09 350.99 396.38V392.59C350.99 391.88 351.56 391.31 352.27 391.31H356.06C356.77 391.31 357.34 391.88 357.34 392.59V396.38C357.34 397.09 356.77 397.66 356.06 397.66Z" fill="white"/>
<path d="M357.92 395.61V393.46L359.53 391.74C359.74 391.51 360.13 391.66 360.13 391.98V396.88C360.13 397.18 359.77 397.34 359.55 397.13L357.92 395.61Z" fill="white"/>
<path d="M308.3 403.26C303.39 398.35 303.39 390.4 308.3 385.49C313.21 380.58 321.16 380.58 326.07 385.49C330.98 390.4 330.98 398.35 326.07 403.26C321.16 408.17 313.21 408.17 308.3 403.26Z" fill="#5957D9"/>
<path d="M311.68 396.44L313.92 395.91C314.2 395.84 314.39 395.6 314.39 395.31V394.85C314.39 394.85 314.29 394.07 315.03 394.02C315.56 393.98 318.93 394.02 318.93 394.02C318.93 394.02 319.82 394 319.8 394.7V395.37C319.8 395.6 319.95 395.81 320.17 395.87L322.6 396.6C322.86 396.68 323.13 396.55 323.24 396.3L323.55 395.55C323.61 395.41 323.63 395.27 323.63 395.12C323.62 394.83 323.5 394.37 323.21 394C322.73 393.38 320.46 391.92 316.12 392.13C311.99 392.33 311.1 394.07 310.86 394.48C310.71 394.74 310.67 395.37 310.78 395.64C310.82 395.74 310.89 395.91 310.96 396.07C311.09 396.36 311.39 396.51 311.68 396.44Z" fill="white"/>
<path d="M287.626 403.359C292.62 398.49 292.722 390.493 287.852 385.499C282.983 380.505 274.986 380.404 269.992 385.273C264.998 390.143 264.896 398.139 269.766 403.133C274.635 408.127 282.632 408.229 287.626 403.359Z" fill="#5957D9"/>
<path d="M274.8 395.56C274.11 395.56 273.55 395 273.55 394.31C273.55 393.62 274.11 393.07 274.8 393.07C275.49 393.07 276.04 393.63 276.04 394.31C276.05 395 275.49 395.56 274.8 395.56Z" fill="white"/>
<path d="M278.68 395.56C277.99 395.56 277.44 395 277.44 394.31C277.44 393.62 278 393.07 278.68 393.07C279.37 393.07 279.93 393.63 279.93 394.31C279.92 395 279.36 395.56 278.68 395.56Z" fill="white"/>
<path d="M282.82 395.56C282.13 395.56 281.57 395 281.57 394.31C281.57 393.62 282.13 393.07 282.82 393.07C283.51 393.07 284.07 393.63 284.07 394.31C284.07 395 283.51 395.56 282.82 395.56Z" fill="white"/>
<path d="M480.1 328.46C479.04 328.46 466.63 328.51 441.95 328.61L442.1 328.46C442.13 349.39 442.16 379.09 442.21 415.78V416.04H441.95C374.02 416.07 280.71 416.12 173.54 416.18H173.37L173.25 416.06L173.13 415.94V415.77C173.12 365.9 173.12 311.84 173.11 255.85C173.11 222.36 173.11 189.57 173.12 157.8V157.39H173.53C275.59 157.43 367.83 157.46 441.94 157.49H442.25V157.8C442.19 215 442.14 261.38 442.11 293.33L442.05 293.2C466.7 316.04 479.19 327.62 480.1 328.46C479.18 327.62 466.62 316.13 441.83 293.45L441.77 293.4V293.32C441.74 261.37 441.69 214.99 441.63 157.79L441.94 158.1C367.84 158.13 275.59 158.16 173.53 158.2L173.94 157.79C173.94 189.56 173.94 222.36 173.95 255.84C173.94 311.84 173.94 365.9 173.93 415.76L173.81 415.48L173.53 415.36C280.69 415.41 374.01 415.46 441.94 415.5L441.68 415.76C441.73 379.08 441.77 349.37 441.79 328.44V328.29H441.94C466.63 328.41 479.04 328.46 480.1 328.46Z" fill="#263339"/>
<path d="M287.2 236.31L292.32 303.68C293.19 315.14 296.81 331.79 314.86 329.59C330.38 326.5 333.22 311.3 332.4 300.61C332.01 295.54 331.69 291.31 331.69 290.79C331.69 290.79 348.72 287.87 348.67 270.8C348.65 262.55 347.21 245.57 345.74 230.21C344.16 213.72 330.16 201.23 313.6 201.48L311.95 201.51C294.2 202.81 285.4 218.61 287.2 236.31Z" fill="#FBD5BD"/>
<path d="M331.72 290.53C331.72 290.53 320.95 291.57 309.37 284.55C309.37 284.55 314.82 296.75 331.82 294.95L331.72 290.53Z" fill="#F7B295"/>
<path d="M288.79 248.92C288.5 248.8 277.01 245.63 277.56 257.29C278.11 268.95 289.71 265.99 289.71 265.66C289.72 265.33 288.79 248.92 288.79 248.92Z" fill="#FBD5BD"/>
<path d="M324.21 267.11C324.31 266.81 321.97 266.32 320.19 264.33C319.3 263.35 318.73 262.24 318.31 261.44C317.9 260.63 317.59 260.12 317.47 260.17C317.36 260.22 317.43 260.79 317.7 261.69C317.97 262.58 318.48 263.84 319.5 264.96C320.5 266.09 321.76 266.7 322.67 266.97C323.59 267.25 324.19 267.22 324.21 267.11Z" fill="#263339"/>
<path d="M366.88 213.01C366.64 212.34 366.09 211.83 365.45 211.52C364.05 210.85 362.54 211.09 361.06 211.2C356.56 211.53 351.97 210.55 347.98 208.45C345.98 206.05 343.78 203.83 341.42 201.79C335.82 196.95 331.27 193.72 326.75 192.35C320.9 190.57 311.36 190.49 305.6 192.56C299.84 194.63 294.97 199.88 294.69 205.99C291.14 203.49 286.18 203.95 282.29 205.93L282.19 205.89C277.85 207.88 275.72 212.85 274.8 217.54C273.88 222.23 273.75 227.17 271.69 231.48C271.26 232.38 270.75 233.46 271.27 234.31C271.67 234.97 272.57 235.18 273.33 235C274.08 234.82 274.72 234.34 275.33 233.87C274.94 235.11 274.54 236.35 274.15 237.6C275.8 237.74 277.47 237.46 279 236.84C280.33 241.03 281.9 245.81 283.26 248.62C285.13 248.45 286.86 248.43 288.11 249.37C289.81 250.64 290.74 253.24 293.26 252C294.54 251.37 295.51 248.48 295.83 247.08C297.99 237.84 298.11 228.14 296.22 218.84C297.9 216.7 300 214.88 302.36 213.52L302.18 213.72C306.77 211.66 311.98 209.57 316.67 211.39C320.31 212.81 322.68 216.24 325.54 218.9C330.96 223.93 337.88 226.31 345.27 225.98C345.94 230.73 346.14 237.51 346.81 242.25L350.15 234.25L350.16 234.29C350.44 233.7 350.66 233.11 350.87 232.53L350.94 232.35V232.33C351.28 231.39 351.59 230.44 352.04 229.5C352.06 229.51 352.07 229.52 352.09 229.54C354.88 231.59 358.38 227.77 356.09 225.17C355.64 224.65 355.11 224.21 354.52 223.85C355.8 224.85 357.61 225.23 359.11 224.62C360.62 224.01 361.68 222.33 361.4 220.73C361.21 219.64 360.34 218.72 359.3 218.37C361.4 218.35 363.5 217.7 365.22 216.5C366.35 215.7 367.42 214.47 366.88 213.01Z" fill="#1D1E1C"/>
<path d="M291.78 296.55L271.22 305.14C258.48 310.46 247.37 319.22 239.65 330.66C237.82 333.38 231.98 354.33 231.55 356.05C229.85 362.94 227.06 374.78 227.06 374.78H390.42C390.42 374.78 385.59 328.1 373.96 319.08C366.41 313.23 331.82 297.26 331.82 297.26C331.82 297.26 328.49 305.8 317.82 306.07C301.65 306.48 291.78 296.55 291.78 296.55Z" fill="#3C3C3B"/>
<path d="M1156.99 770.15C1156.99 770.38 911.14 770.57 607.95 770.57C304.65 770.57 58.86 770.38 58.86 770.15C58.86 769.92 304.65 769.73 607.95 769.73C911.14 769.73 1156.99 769.92 1156.99 770.15Z" fill="#263339"/>
</g>
<defs>
<clipPath id="clip0_2_9241">
<rect width="1200" height="816.98" fill="white"/>
</clipPath>
</defs>
</svg>
